<svg xmlns="http://www.w3.org/2000/svg" xmlns:xlink="http://www.w3.org/1999/xlink" width="95.15" height="90.64" viewBox="0 0 95.15 90.64">
  <defs>
    <clipPath id="clip-path">
      <rect id="Rectángulo_361886" data-name="Rectángulo 361886" width="68" height="68" transform="translate(402.5 1055.5)" fill="#fff" stroke="#fff" stroke-width="1"/>
    </clipPath>
  </defs>
  <g id="Grupo_1054394" data-name="Grupo 1054394" transform="translate(-390 -1040)">
    <circle id="Elipse_4744" data-name="Elipse 4744" cx="42.5" cy="42.5" r="42.5" transform="translate(390 1040)" fill="#025157"/>
    <g id="Enmascarar_grupo_62" data-name="Enmascarar grupo 62" transform="translate(-3.5 -6.5)" clip-path="url(#clip-path)">
      <g id="maniqui" transform="translate(416.823 1055.996)">
        <g id="Grupo_1054393" data-name="Grupo 1054393" transform="translate(0 3.793)">
          <g id="Grupo_1054390" data-name="Grupo 1054390">
            <path id="Trazado_771773" data-name="Trazado 771773" d="M32.8,54.035v4.726H26.981V54.035" transform="translate(-10.707 3.454)" fill="none" stroke="#fff" stroke-linecap="round" stroke-linejoin="round" stroke-miterlimit="10" stroke-width="1.729"/>
            <path id="Trazado_771774" data-name="Trazado 771774" d="M44.81,45.508A63.706,63.706,0,0,0,38.745,32.53s7.015-9.524,7.542-17.988a1.425,1.425,0,0,0-.825-1.382l-7.83-3.456" transform="translate(-9.082 -3.309)" fill="none" stroke="#fff" stroke-linecap="round" stroke-linejoin="round" stroke-miterlimit="10" stroke-width="1.729"/>
            <path id="Trazado_771775" data-name="Trazado 771775" d="M22.667,9.707,14.843,13.16a1.425,1.425,0,0,0-.825,1.382c.527,8.464,7.542,17.988,7.542,17.988s-7.666,11.277-8.691,25.206a2.853,2.853,0,0,0,2.849,3.06H48.358a2.851,2.851,0,0,0,2.849-3.066,47.563,47.563,0,0,0-1.445-8.325" transform="translate(-12.861 -3.308)" fill="none" stroke="#fff" stroke-linecap="round" stroke-linejoin="round" stroke-miterlimit="10" stroke-width="1.729"/>
            <path id="Trazado_771776" data-name="Trazado 771776" d="M35.231,8.649V4.155H25.114V8.649" transform="translate(-10.992 -4.155)" fill="none" stroke="#fff" stroke-linecap="round" stroke-linejoin="round" stroke-miterlimit="10" stroke-width="1.729"/>
            <line id="Línea_297" data-name="Línea 297" x2="6.614" transform="translate(14.123 29.222)" fill="none" stroke="#fff" stroke-linecap="round" stroke-linejoin="round" stroke-miterlimit="10" stroke-width="1.729"/>
            <line id="Línea_298" data-name="Línea 298" x1="5.327" transform="translate(18.912 4.494)" fill="none" stroke="#fff" stroke-linecap="round" stroke-linejoin="round" stroke-miterlimit="10" stroke-width="1.729"/>
          </g>
          <g id="Grupo_1054391" data-name="Grupo 1054391" transform="translate(10.082 3.526)">
            <path id="Trazado_771777" data-name="Trazado 771777" d="M21.608,16.043V8.616a1.4,1.4,0,0,1,1.4-1.4h2.608v38.1H21.608V20.15" transform="translate(-21.608 -7.214)" fill="none" stroke="#fff" stroke-linecap="round" stroke-linejoin="round" stroke-miterlimit="10" stroke-width="1.729"/>
            <path id="Trazado_771778" data-name="Trazado 771778" d="M24.917,43.773H22.309a.7.7,0,0,1-.7-.7v-2.8h4.009v2.8A.7.7,0,0,1,24.917,43.773Z" transform="translate(-21.608 -2.171)" fill="none" stroke="#fff" stroke-linecap="round" stroke-linejoin="round" stroke-miterlimit="10" stroke-width="1.729"/>
          </g>
          <g id="Grupo_1054392" data-name="Grupo 1054392" transform="translate(24.239 3.526)">
            <path id="Trazado_771779" data-name="Trazado 771779" d="M37.9,23.081H33.892V7.214H36.5a1.4,1.4,0,0,1,1.4,1.4Z" transform="translate(-33.892 -7.214)" fill="none" stroke="#fff" stroke-linecap="round" stroke-linejoin="round" stroke-miterlimit="10" stroke-width="1.729"/>
            <path id="Trazado_771780" data-name="Trazado 771780" d="M37.2,24.48H34.593a.7.7,0,0,1-.7-.7v-2.8H37.9v2.8A.7.7,0,0,1,37.2,24.48Z" transform="translate(-33.892 -5.114)" fill="none" stroke="#fff" stroke-linecap="round" stroke-linejoin="round" stroke-miterlimit="10" stroke-width="1.729"/>
          </g>
        </g>
        <path id="Trazado_771781" data-name="Trazado 771781" d="M32.525.864h-5.01a1.4,1.4,0,0,0-1.4,1.4V4.657h7.814V2.266A1.4,1.4,0,0,0,32.525.864Z" transform="translate(-10.839 -0.864)" fill="none" stroke="#fff" stroke-linecap="round" stroke-linejoin="round" stroke-miterlimit="10" stroke-width="1.729"/>
      </g>
    </g>
    <path id="Trazado_771772" data-name="Trazado 771772" d="M3.488,414.7c1.061-5.269.355-10.905,1.808-16.119a39.867,39.867,0,0,1,2.113-5.452l1.15-2.585a47.036,47.036,0,0,1-3.442,21.132,33.894,33.894,0,0,1-1.194,3.273q.56-.926,1.122-1.851a35.236,35.236,0,0,1,4.172-5.9,56.636,56.636,0,0,1,4.83-4.231,16.547,16.547,0,0,0,4.178-4.827,7.357,7.357,0,0,1-.912,4.284,21.913,21.913,0,0,1-2.565,3.626,53.767,53.767,0,0,1-5.939,6.528c-1.239,1.111-2.6,2.084-3.9,3.114-.578.456-1.39,1-2.088,1.609a35.349,35.349,0,0,1-4.351,6.533,27.185,27.185,0,0,0,6.583-3.79c1.36-1.155,2.529-2.579,4.115-3.4,1.839-.948,3.994-.959,6.05-1.183s4.268-.791,5.51-2.446a12.962,12.962,0,0,1-3.96,4.788,38.725,38.725,0,0,1-5.326,3.306c-2.9,1.592-5.954,3.224-9.265,3.3a29.974,29.974,0,0,0-3.594.021,4.834,4.834,0,0,0-.792.185q-1.017,1.141-2.131,2.192-.823.776-1.664,1.51a18.179,18.179,0,0,1,7.575-1.481A31.51,31.51,0,0,1,9.658,428.1a24.476,24.476,0,0,0,3.586.839,6.216,6.216,0,0,0,3.594-.521,20.411,20.411,0,0,1-3.578,2.927,6.858,6.858,0,0,1-4.422,1.041c-1.429-.213-2.7-1.019-4.1-1.38-1.673-.433-3.444-.212-5.155-.455-1.4-.2-2.748-.708-4.146-.947a7.636,7.636,0,0,0-1.615-.114,12.432,12.432,0,0,1-1.42.212l-.044-.005a34.3,34.3,0,0,1-8.209,4.97,1.983,1.983,0,0,1-.737.2.7.7,0,0,1-.642-.344.71.71,0,0,1,.193-.783,2.158,2.158,0,0,1,.747-.415,37.916,37.916,0,0,0,7.058-3.7c-.377-.355-.483-1.806-.641-2.232A14.47,14.47,0,0,0-11.4,424.51a21.2,21.2,0,0,1-3.059-5.426,10.8,10.8,0,0,1-.106-5.06,32.262,32.262,0,0,1,1.488-4.882,4.525,4.525,0,0,0,.581,3.42,22.058,22.058,0,0,1,1.662,3.147c.57,1.694.3,3.593.935,5.266.419,1.112,1.209,2.047,1.684,3.136a6.1,6.1,0,0,1,.421,3.31,5.873,5.873,0,0,1-.408,1.5q.506-.361,1-.739a26.481,26.481,0,0,0,2.95-2.658,3.645,3.645,0,0,0-.105-2.708c-.554-1.2-1.733-2.026-2.312-3.218A19.285,19.285,0,0,1-7.482,416a34.138,34.138,0,0,1-1.243-3.664C-9.212,409-5.968,406-6.348,402.654a98.633,98.633,0,0,0,2.527,12.26c.354,1.226.749,2.439,1.1,3.665a9.479,9.479,0,0,1,.477,4.668c.766-.933,1.493-1.891,2.183-2.848q.688-.954,1.328-1.942a4.012,4.012,0,0,0,.118-.958,9.766,9.766,0,0,0-.338-2.222A11.9,11.9,0,0,0-.27,411.541c-.541-.855-1.295-1.564-1.795-2.443-1.054-1.854-.826-4.159-.352-6.239s1.167-4.174.94-6.3c1.656,2.84,2.163,6.185,2.6,9.443q.5,3.742.937,7.492a13.409,13.409,0,0,1,.124,2.782,6.334,6.334,0,0,1-.176,1q.546-.9,1.052-1.815C3.2,415.22,3.342,414.963,3.488,414.7Z" transform="translate(525.772 697.887) rotate(9)" fill="#f5947a"/>
  </g>
</svg>
