<svg xmlns="http://www.w3.org/2000/svg" xmlns:xlink="http://www.w3.org/1999/xlink" width="299.439" height="246.129" viewBox="0 0 299.439 246.129">
  <defs>
    <linearGradient id="linear-gradient" x1="-22.542" y1="29.617" x2="-22.528" y2="29.617" gradientUnits="objectBoundingBox">
      <stop offset="0" stop-color="#f08e73"/>
      <stop offset="1" stop-color="#f9b99d"/>
    </linearGradient>
    <linearGradient id="linear-gradient-2" x1="-76.263" y1="78.207" x2="-76.214" y2="78.207" gradientUnits="objectBoundingBox">
      <stop offset="0" stop-color="#f24050"/>
      <stop offset="1" stop-color="#e03347"/>
    </linearGradient>
    <linearGradient id="linear-gradient-3" x1="-78.687" y1="93.744" x2="-78.638" y2="93.744" xlink:href="#linear-gradient-2"/>
    <linearGradient id="linear-gradient-4" x1="-124.027" y1="90.417" x2="-123.946" y2="90.417" xlink:href="#linear-gradient"/>
    <linearGradient id="linear-gradient-5" x1="-59.905" y1="54.373" x2="-59.868" y2="54.373" xlink:href="#linear-gradient"/>
    <linearGradient id="linear-gradient-6" x1="-210.183" y1="217.901" x2="-210.036" y2="217.901" xlink:href="#linear-gradient"/>
    <linearGradient id="linear-gradient-7" x1="-98.207" y1="43.622" x2="-98.143" y2="43.622" xlink:href="#linear-gradient"/>
    <linearGradient id="linear-gradient-8" x1="-24.495" y1="98.315" x2="-24.48" y2="98.315" xlink:href="#linear-gradient"/>
    <linearGradient id="linear-gradient-9" x1="-151.8" y1="488.938" x2="-151.702" y2="488.938" xlink:href="#linear-gradient"/>
    <linearGradient id="linear-gradient-10" x1="872.579" y1="5600.709" x2="874.026" y2="5600.709" xlink:href="#linear-gradient"/>
    <linearGradient id="linear-gradient-11" x1="-25.321" y1="12.109" x2="-25.306" y2="12.109" gradientUnits="objectBoundingBox">
      <stop offset="0" stop-color="#5f3759"/>
      <stop offset="1" stop-color="#3c3257"/>
    </linearGradient>
    <linearGradient id="linear-gradient-12" x1="-292.905" y1="12.445" x2="-292.701" y2="12.445" xlink:href="#linear-gradient-11"/>
    <linearGradient id="linear-gradient-13" x1="-47.224" y1="12.974" x2="-47.196" y2="12.974" gradientUnits="objectBoundingBox">
      <stop offset="0.006" stop-color="#77a5bd"/>
      <stop offset="1" stop-color="#66b0a5"/>
    </linearGradient>
    <linearGradient id="linear-gradient-14" x1="-48.214" y1="12.973" x2="-48.186" y2="12.973" xlink:href="#linear-gradient-13"/>
    <linearGradient id="linear-gradient-15" x1="-113.988" y1="89.422" x2="-113.924" y2="89.422" xlink:href="#linear-gradient"/>
    <linearGradient id="linear-gradient-16" x1="-71.338" y1="49.069" x2="-71.298" y2="49.069" xlink:href="#linear-gradient"/>
    <linearGradient id="linear-gradient-17" x1="-238.82" y1="187.612" x2="-238.674" y2="187.612" xlink:href="#linear-gradient"/>
    <linearGradient id="linear-gradient-18" x1="-77.244" y1="13.341" x2="-77.199" y2="13.341" gradientUnits="objectBoundingBox">
      <stop offset="0" stop-color="#fac383"/>
      <stop offset="1" stop-color="#f19b6c"/>
    </linearGradient>
    <linearGradient id="linear-gradient-19" x1="-241.866" y1="238.291" x2="-241.709" y2="238.291" xlink:href="#linear-gradient"/>
    <linearGradient id="linear-gradient-20" x1="-443.674" y1="668.05" x2="-443.306" y2="668.05" xlink:href="#linear-gradient"/>
    <linearGradient id="linear-gradient-21" x1="-386.183" y1="633.243" x2="-385.891" y2="633.243" xlink:href="#linear-gradient"/>
    <linearGradient id="linear-gradient-22" x1="-408.203" y1="864.573" x2="-407.885" y2="864.573" xlink:href="#linear-gradient"/>
    <linearGradient id="linear-gradient-23" x1="-400.133" y1="1087.568" x2="-399.824" y2="1087.568" xlink:href="#linear-gradient"/>
    <linearGradient id="linear-gradient-24" x1="-122.001" y1="182.931" x2="-121.929" y2="182.931" xlink:href="#linear-gradient"/>
    <linearGradient id="linear-gradient-25" x1="-107.752" y1="70.979" x2="-107.682" y2="70.979" xlink:href="#linear-gradient"/>
    <linearGradient id="linear-gradient-26" x1="-110.057" y1="70.103" x2="-109.988" y2="70.103" xlink:href="#linear-gradient"/>
  </defs>
  <g id="Grupo_1054729" data-name="Grupo 1054729" transform="translate(-205.5 -4761.485)">
    <path id="Trazado_771803" data-name="Trazado 771803" d="M70.8,240.812c11.576-1.957,12.72-10.534,14.135-20.768,3.467-25.06-2.522-51.214,5.379-75.386a72.607,72.607,0,0,1,20.105-30.852c7.395-6.75,16.147-12.068,23.91-18.45s14.745-14.243,16.914-23.67c3.14-13.648-4.292-27.972-1.178-41.625,2.309-10.125,10.2-18.461,19.222-24.506,4.512-3.022,9.7-5.678,15.254-5.55,7.612.175,14.132,5.69,17.314,12.129s3.675,13.707,4.1,20.784c2.857,48.072,4.634,96.311.976,144.336-2.2,28.88-6.667,58.493-22.2,83.579-4.552,7.354-10.144,14.348-17.621,19.2-9.763,6.341-21.915,8.542-33.757,9.683-26.954,2.6-54.145.494-81.149-1.61-15.036-1.171-59.4,2.924-51.2-23.654,1.85-6,7.44-10.3,13.089-13.657,10.637-6.325,22.931-10.8,35.551-10.563,6.185.116,12.348,1.355,18.515.892Q69.561,241.023,70.8,240.812Z" transform="translate(496.424 4798.627) rotate(90)" fill="#baefe4"/>
    <g id="Grupo_1054727" data-name="Grupo 1054727" transform="translate(217.489 4792.782)">
      <g id="Grupo_56260" data-name="Grupo 56260" transform="translate(0 0)">
        <g id="Grupo_56246" data-name="Grupo 56246" transform="translate(0 3.254)">
          <g id="Grupo_56237" data-name="Grupo 56237" transform="translate(0 48.096)">
            <path id="Trazado_107600" data-name="Trazado 107600" d="M1755.8-791.271c-6.345-13.4-13.141-73.615-15.723-98.382a4.118,4.118,0,0,1,3.667-4.526,4.118,4.118,0,0,1,3.212,1.059c18.624,17.036,63.959,59.3,70.32,72.741a34.009,34.009,0,0,1-16.186,45.29h0A34.008,34.008,0,0,1,1755.8-791.271Z" transform="translate(-1740.052 894.383)" fill="#8a8aae"/>
            <path id="Trazado_107601" data-name="Trazado 107601" d="M1801.4-774.463a.291.291,0,0,1-.3-.163l-56.547-119.442a.29.29,0,0,1,.137-.384.292.292,0,0,1,.385.136l56.545,119.442a.289.289,0,0,1-.135.385A.367.367,0,0,1,1801.4-774.463Z" transform="translate(-1741.591 894.479)" fill="#fff"/>
            <path id="Trazado_107602" data-name="Trazado 107602" d="M1810.382-776.159a.287.287,0,0,1-.131-.011.291.291,0,0,1-.184-.365l12.88-39.4a.294.294,0,0,1,.363-.184.289.289,0,0,1,.185.365l-12.879,39.4A.289.289,0,0,1,1810.382-776.159Z" transform="translate(-1764.141 867.518)" fill="#fff"/>
            <path id="Trazado_107603" data-name="Trazado 107603" d="M1805.488-786.055a.271.271,0,0,1-.111-.008.285.285,0,0,1-.205-.346l0-.007,10.363-38.556a.281.281,0,0,1,.342-.206l.011,0a.288.288,0,0,1,.2.351h0l-10.363,38.557A.288.288,0,0,1,1805.488-786.055Z" transform="translate(-1762.458 870.634)" fill="#fff"/>
            <path id="Trazado_107604" data-name="Trazado 107604" d="M1782.353-787.008a.29.29,0,0,1-.159-.024l-32-14.823a.287.287,0,0,1-.141-.381v0a.287.287,0,0,1,.38-.14h0l32,14.823a.287.287,0,0,1,.139.382h0A.287.287,0,0,1,1782.353-787.008Z" transform="translate(-1743.484 862.794)" fill="#fff"/>
            <path id="Trazado_107605" data-name="Trazado 107605" d="M1775.19-840.049a.287.287,0,0,1-.131-.015.289.289,0,0,1-.176-.367h0L1781.8-859.9a.287.287,0,0,1,.365-.176h0a.288.288,0,0,1,.175.367h0l-6.916,19.471A.286.286,0,0,1,1775.19-840.049Z" transform="translate(-1752.033 882.647)" fill="#fff"/>
            <path id="Trazado_107606" data-name="Trazado 107606" d="M1756.358-856.9a.3.3,0,0,1-.127-.012l-13.577-4.46a.289.289,0,0,1-.184-.364.29.29,0,0,1,.364-.184l13.577,4.46a.29.29,0,0,1,.184.365A.29.29,0,0,1,1756.358-856.9Z" transform="translate(-1740.879 883.28)" fill="#fff"/>
            <path id="Trazado_107607" data-name="Trazado 107607" d="M1758.064-851.372a.3.3,0,0,1-.089,0l-14.434-2.6a.288.288,0,0,1-.233-.335h0a.288.288,0,0,1,.334-.234h0l14.434,2.6a.287.287,0,0,1,.233.334h0A.286.286,0,0,1,1758.064-851.372Z" transform="translate(-1741.171 880.736)" fill="#fff"/>
            <path id="Trazado_107608" data-name="Trazado 107608" d="M1801.6-735.245a.276.276,0,0,1-.131-.012l-41.676-14.081a.29.29,0,0,1-.179-.367.293.293,0,0,1,.365-.181l41.674,14.082a.29.29,0,0,1,.181.367A.293.293,0,0,1,1801.6-735.245Z" transform="translate(-1746.779 844.726)" fill="#fff"/>
          </g>
          <path id="Trazado_107621" data-name="Trazado 107621" d="M1863.135-791.564a88.222,88.222,0,0,1-88.122-88.123,88.22,88.22,0,0,1,88.122-88.121,88.223,88.223,0,0,1,88.123,88.121A88.224,88.224,0,0,1,1863.135-791.564Zm0-175.091a87.068,87.068,0,0,0-86.97,86.97,87.067,87.067,0,0,0,86.97,86.97,87.068,87.068,0,0,0,86.969-86.97A87.068,87.068,0,0,0,1863.135-966.655Z" transform="translate(-1723.224 967.809)" fill="#8a8aae"/>
          <circle id="Elipse_4171" data-name="Elipse 4171" cx="81.561" cy="81.561" r="81.561" transform="translate(51.863 12.829)" fill="#fff"/>
        </g>
        <g id="Grupo_56259" data-name="Grupo 56259" transform="translate(21.833)">
          <g id="Grupo_56258" data-name="Grupo 56258">
            <path id="Trazado_107636" data-name="Trazado 107636" d="M1816.587-804.391s-6.907,32.391-10.245,55.239h0c-.015.1-.03.2-.045.306-.347,2.381-.656,4.657-.906,6.774H1801.5c-.149-2.41-.316-4.6-.5-6.62-.024-.254-.045-.5-.066-.751-1.319-14.143-3.318-19.629-4.3-32.383.274-6.353,7.215-18.505,7.215-18.505-9.742-5.428-24.857-30.1-25.444-38.289-.25-3.434,2.6-7.715,4.309-9.942.711-.932,1.225-1.5,1.225-1.5a44.643,44.643,0,0,1,7.911-.073c1.738.187,3.28.579,4.011,1.324a23.247,23.247,0,0,1,2.644,3.406C1806.4-833.462,1816.587-804.391,1816.587-804.391Z" transform="translate(-1761.898 930.618)" fill="#822b4f"/>
            <path id="Trazado_107637" data-name="Trazado 107637" d="M1836.344-903.152a.288.288,0,0,1-.262.257l-2.895.262.156.768a2.676,2.676,0,0,1-.077,1.422,3.114,3.114,0,0,1-2.164,1.849c-15.6,5.5-20.258,10.1-25.041,10.209a5.043,5.043,0,0,1-2.517-1.085s-2.932-4.247-6.266-9.787c-.81-1.343-1.64-2.764-2.463-4.217h0a79.033,79.033,0,0,1-6.041-12.757c-.963-2.894,1.612-8.892,1.612-8.892s7.543,3.888,8.828,6.9c.465,1.093.928,2.241,1.385,3.424.394,1.014.778,2.053,1.156,3.1.239.663.478,1.332.71,2,.241.686.478,1.374.708,2.058,1.526,4.509,2.857,8.893,3.792,12.086,10.829-3.472,10.915-2.115,23.561-5.589a5.753,5.753,0,0,1,2.8-2.923c1.142.188,2.773.6,2.773.6A.291.291,0,0,1,1836.344-903.152Z" transform="translate(-1765.394 956.374)" fill="url(#linear-gradient)"/>
            <g id="Grupo_56247" data-name="Grupo 56247" transform="translate(67.203 52.79)">
              <path id="Trazado_107638" data-name="Trazado 107638" d="M1855.729-891.514l5.479-.6a.154.154,0,0,1,.171.135v.007h0a.157.157,0,0,1-.111.163l-3.242.924,4.06-.771a.168.168,0,0,1,.187.1h0a.168.168,0,0,1-.09.22l-.013.005-3.813,1.264,3.434-.706a.151.151,0,0,1,.176.107h0a.15.15,0,0,1-.1.184l-3.365,1.141,2.917-.721a.175.175,0,0,1,.212.127.17.17,0,0,1,0,.06h0a.177.177,0,0,1-.1.142l-3.241,1.548a7.613,7.613,0,0,1-2.835.73l-1.463.087Z" transform="translate(-1853.891 892.226)" fill="#fff"/>
              <path id="Trazado_107639" data-name="Trazado 107639" d="M1853.942-887.318a.107.107,0,0,1-.088-.045.1.1,0,0,1-.012-.1l1.727-4.144a.106.106,0,0,1,.088-.066l5.479-.6a.26.26,0,0,1,.2.059.261.261,0,0,1,.094.182.263.263,0,0,1-.19.274l-.947.27,1.715-.328a.279.279,0,0,1,.307.165.276.276,0,0,1,0,.222.281.281,0,0,1-.165.148l-2.073.687,1.64-.337a.262.262,0,0,1,.3.182.263.263,0,0,1-.166.315l-.976.328.468-.115a.284.284,0,0,1,.252.061.282.282,0,0,1,.1.24.284.284,0,0,1-.16.229l-3.24,1.548a7.7,7.7,0,0,1-2.875.74l-1.463.087Zm1.8-4.152-1.64,3.927,1.291-.076a7.5,7.5,0,0,0,2.795-.722l3.241-1.548a.074.074,0,0,0,.038-.055.068.068,0,0,0-.023-.058.07.07,0,0,0-.061-.014l-2.916.722a.108.108,0,0,1-.131-.073.108.108,0,0,1,.066-.131l3.365-1.141a.043.043,0,0,0,.028-.053.041.041,0,0,0-.049-.03l-3.434.7a.108.108,0,0,1-.125-.077.108.108,0,0,1,.07-.131l3.812-1.263a.064.064,0,0,0,.037-.033.052.052,0,0,0,0-.049.064.064,0,0,0-.065-.037l-4.058.771a.11.11,0,0,1-.126-.081.11.11,0,0,1,.075-.131l3.243-.923a.049.049,0,0,0,.035-.05.045.045,0,0,0-.017-.033.049.049,0,0,0-.035-.012Z" transform="translate(-1853.834 892.282)"/>
            </g>
            <g id="Grupo_56248" data-name="Grupo 56248" transform="translate(47.625 61.473)">
              <path id="Trazado_107640" data-name="Trazado 107640" d="M1830.678-871.161l-.918-.066-2.451-.169a1.411,1.411,0,0,0-.424-.853,1.407,1.407,0,0,0-.451-.3,1.39,1.39,0,0,0-.446-.1,1.434,1.434,0,0,0-1.423.887,1.539,1.539,0,0,0-.062.193,1.46,1.46,0,0,0-.039.249,1.431,1.431,0,0,0,1.329,1.525,1.432,1.432,0,0,0,1.482-1.063l2.911.2c.266.033.937-.014,1,.61,3.368.209,9.91.184,10.718-.347Zm-4.869,1.076a1.133,1.133,0,0,1-1.055-1.088.774.774,0,0,1,0-.126,1.107,1.107,0,0,1,.262-.649,1.133,1.133,0,0,1,.95-.409h.017a1.126,1.126,0,0,1,.811.447,1.128,1.128,0,0,1,.229.763,1.139,1.139,0,0,1-1.211,1.061h0Z" transform="translate(-1824.459 876.845)" fill="#d3cbf7"/>
              <path id="Trazado_107641" data-name="Trazado 107641" d="M1832.591-870.942l.688-.614,8.4-7.487c-.964.074-6.146,4.066-8.681,6.3.328.533-.226.906-.418,1.1L1830.5-869.8l.355.4Z" transform="translate(-1826.537 879.043)" fill="#e8e3f9"/>
              <path id="Trazado_107642" data-name="Trazado 107642" d="M1835.634-869.482a.219.219,0,0,1-.289-.108.219.219,0,0,1,.108-.289.218.218,0,0,1,.289.107.218.218,0,0,1-.106.289Z" transform="translate(-1828.198 875.896)" fill="#d3cbf7"/>
            </g>
            <path id="Trazado_107643" data-name="Trazado 107643" d="M1828.683-862.447a1.84,1.84,0,0,0,.581-2.488,1.841,1.841,0,0,0-2.554.095,1.837,1.837,0,0,0-.578,2.488A1.837,1.837,0,0,0,1828.683-862.447Zm-2.329-.135a1.431,1.431,0,0,1,.451-1.937,1.431,1.431,0,0,1,1.987-.073,1.433,1.433,0,0,1-.452,1.937,1.43,1.43,0,0,1-1.986.072Z" transform="translate(-1777.364 935.823)" fill="#e8e3f9"/>
            <path id="Trazado_107644" data-name="Trazado 107644" d="M1788.924-953.034s-7.665,1.024-4.689,7.4,4.7,5.042,4.993,4.854,4.053-2,4.292-2.307a3.553,3.553,0,0,0,.237-2.761,27.973,27.973,0,0,0-1.166-3.69C1792.519-949.7,1788.924-953.034,1788.924-953.034Z" transform="translate(-1763.671 965.978)" fill="#743234"/>
            <path id="Trazado_107645" data-name="Trazado 107645" d="M1795.415-960.12a3.27,3.27,0,0,0-3.208-3.52c1.127-.152,2.2-.774,4.085,1.216-.089-1.895-.34-2.515,1.742-4.009-1.284,1.771-1.08,4.4,1.181,4.733C1799.235-960.916,1795.415-960.12,1795.415-960.12Z" transform="translate(-1766.65 970.589)" fill="#46161c"/>
            <path id="Trazado_107646" data-name="Trazado 107646" d="M1818.646-951.444c-.033,3.088-3.5,3.678-5.863,3.721h0a15.678,15.678,0,0,1-2.135-.1l-2.1-4.985s-.308-3.017-.41-3.27,0-3.321,0-3.321l1.207-.3,1.983.4.929.189a7.978,7.978,0,0,1,5.758,4.554A7.434,7.434,0,0,1,1818.646-951.444Z" transform="translate(-1771.439 968.269)" fill="#572627"/>
            <path id="Trazado_107647" data-name="Trazado 107647" d="M1820.341-951.232c-.034,3.088-3.5,3.678-5.863,3.721,3.818-.582,5.1-2.534,5.031-3.772-.216-4.608-5.968-6.262-5.968-6.262s-.3-.861-.522-1.531l.929.189a7.98,7.98,0,0,1,5.758,4.554A7.446,7.446,0,0,1,1820.341-951.232Z" transform="translate(-1773.088 968.057)" fill="#743234"/>
            <path id="Trazado_107648" data-name="Trazado 107648" d="M1787.433-941.341v5.163s-3.17,6.317-9.141,4.753a8.3,8.3,0,0,1-2.673-1.307c-3.445-2.679-.948-7.218,1.346-9.758,2.737-3.027,7.159-1.742,7.159-1.742l.842.737Z" transform="translate(-1760.357 963.043)" fill="#46161c"/>
            <path id="Trazado_107649" data-name="Trazado 107649" d="M1812.436-678.566l.984,5.8h1.405l.832-4.924Z" transform="translate(-1772.91 871.528)" fill="#961423"/>
            <path id="Trazado_107650" data-name="Trazado 107650" d="M1775.775-824.535c-.087,14.6-1.344,28.626-1.344,28.626l-.906,2.22-2.09,46.852-.183,4.086h-3.6c-.2-1.285-.534-2.912-.969-4.764-2.569-10.943-8.523-29.725-8.523-31.941,0-4.329,3.974-16.449,3.974-16.449s-8.886-26.477-8.886-47.1c0-4.651,5.335-9.258,5.335-9.258l15.093,1.817c.112.418.221.853.323,1.3a54.815,54.815,0,0,1,.927,5.539A158.463,158.463,0,0,1,1775.775-824.535Z" transform="translate(-1753.243 931.301)" fill="#933c5e"/>
            <path id="Trazado_107651" data-name="Trazado 107651" d="M1790.116-873.554c-.05.05-.1.1-.162.151-1.7,1.508-6.473,3.257-13.274,2.6a39.574,39.574,0,0,1-13.651-4.084q-1.388-.68-2.82-1.5-.393-.219-.787-.459l7.4-8.9s3.333-7.061,1.647-21.181c-.015-.131-.032-.272-.05-.407-1.7-10.3-2.755-14.14-2.755-14.14l1.674-2.224,8.011.039s4.828,2.5,5.349,2.966,8.243,14.357,8.243,14.357-.125.472-.328,1.307c-.1.409-.215.905-.347,1.479-.19.829-.41,1.812-.637,2.915-.554,2.651-1.181,5.991-1.645,9.494-.243,1.811-.446,3.666-.573,5.489.131.4.262.787.385,1.157.22.643.429,1.233.629,1.78C1788.073-878.233,1789.113-876.742,1790.116-873.554Z" transform="translate(-1755.368 955.885)" fill="#ff9696"/>
            <path id="Trazado_107652" data-name="Trazado 107652" d="M1796.139-907.9a6.3,6.3,0,0,1-1.877,2.665c-.59.521-2.442.663-4.75.608a130.729,130.729,0,0,1-13.3-1.351,18.643,18.643,0,0,0,1.656-11.717,20.308,20.308,0,0,0-4.8-9.121l7.425-.448,4.251.367a6.637,6.637,0,0,1,2.877.942h0a6.59,6.59,0,0,1,2.438,2.624c.78,1.516,1.66,3.219,2.23,4.3.017.035.04.069.055.1l.216.41q.41.778.787,1.5.178.339.348.67c.193.37.38.727.557,1.067.116.224.226.439.333.648.02.039.039.077.059.114.051.1.1.2.15.3.032.065.066.131.1.2.127.253.246.495.357.721.035.072.066.141.1.208.137.29.266.561.378.813.022.045.042.089.06.131A5.737,5.737,0,0,1,1796.139-907.9Z" transform="translate(-1760.064 957.11)" fill="#ff9696"/>
            <path id="Trazado_107653" data-name="Trazado 107653" d="M1773.611-678.793l1.307,7.9h2.056l.371-3.791Z" transform="translate(-1760.251 871.606)" fill="#961423"/>
            <path id="Trazado_107654" data-name="Trazado 107654" d="M1786.68-673.18l-.012.052h-6.69s-2.7-.131-6.477-7.9a3.87,3.87,0,0,1,1.043-4.268l.006.056c.1.877,1.449,11.84,8.385,7.668,0,0,1.443.676,2.427,1.217A2.5,2.5,0,0,1,1786.68-673.18Z" transform="translate(-1760.14 873.844)" fill="url(#linear-gradient-2)"/>
            <path id="Trazado_107655" data-name="Trazado 107655" d="M1825.5-675.626l-.084.541h-4.853a7.288,7.288,0,0,1-1.472-1.647,9.1,9.1,0,0,0-4.7-3.476l-2.067-.676c-.763-3.809.78-4.414.78-4.414s.039.037.1.1l.043.043c.03.031.066.066.1.1,1.072,1.049,5.285,5.148,6.019,5.522.844.432,2.641.918,2.562-.173h0a16.511,16.511,0,0,1,2.581,1.583A2.64,2.64,0,0,1,1825.5-675.626Z" transform="translate(-1772.763 873.845)" fill="url(#linear-gradient-3)"/>
            <path id="Trazado_107656" data-name="Trazado 107656" d="M1775.2-916.34a47.452,47.452,0,0,1-.805,5.986c-.043.234-.088.472-.135.71a11.576,11.576,0,0,0-10.71-5.9,6.088,6.088,0,0,0-.978.155.657.657,0,0,0-.359.279c-.006-.154-.287-8.41,7.118-11.524.066.059.131.115.2.177C1770.573-925.5,1775.432-920.781,1775.2-916.34Z" transform="translate(-1756.329 956.895)" fill="#ff9696"/>
            <path id="Trazado_107657" data-name="Trazado 107657" d="M1764.341-904.864l-.1,2.189a4.091,4.091,0,0,1-3.235-1.943,12.99,12.99,0,0,1,1.968-.246c.407-.023.861-.034,1.347-.017Z" transform="translate(-1755.913 949.411)" fill="#a76a3f"/>
            <path id="Trazado_107658" data-name="Trazado 107658" d="M1805.14-911.817a5.455,5.455,0,0,0-1.771.231q-.171-.376-.38-.812c-.032-.065-.066-.136-.1-.207-.111-.227-.229-.47-.357-.721l-.1-.2c-.065-.135-.138-.271-.209-.412l-.333-.649c-.176-.342-.363-.7-.556-1.068q-.169-.329-.349-.672-.379-.721-.787-1.5c-.07-.135-.143-.272-.216-.409-.017-.035-.037-.069-.055-.1-.569-1.083-1.449-2.786-2.23-4.3a6.587,6.587,0,0,0-2.441-2.624h0s6.122,1.91,9.085,11.164C1804.577-913.366,1804.887-912.619,1805.14-911.817Z" transform="translate(-1767.699 956.421)" fill="#ff9696"/>
            <path id="Trazado_107659" data-name="Trazado 107659" d="M1808.832-905.959a5.148,5.148,0,0,0-1.076.07.7.7,0,0,0-.082.012,5.968,5.968,0,0,0-.614.149c-.1-.232-.221-.482-.348-.748l-.131-.271h0c-.111-.226-.231-.468-.357-.721-.033-.066-.066-.131-.1-.2-.047-.088-.092-.18-.14-.274h0c.254-.051.581-.112.95-.17.342-.052.715-.1,1.1-.131Q1808.452-907.165,1808.832-905.959Z" transform="translate(-1770.767 950.563)" fill="#fff"/>
            <path id="Trazado_107660" data-name="Trazado 107660" d="M1809.078-903.125l-.518-1.554a5.157,5.157,0,0,1,1.158-.084A1.815,1.815,0,0,1,1809.078-903.125Z" transform="translate(-1771.63 949.369)" fill="#a76a3f"/>
            <path id="Trazado_107661" data-name="Trazado 107661" d="M1791.125-930.918s2.1,3.71-.682,3.71-6.053-4.291-6.053-4.291,3.208-1.978,4.329-8.072l3.733.943a21.006,21.006,0,0,1-.82,5.778h0C1791.358-931.731,1791.125-930.918,1791.125-930.918Z" transform="translate(-1763.96 961.345)" fill="url(#linear-gradient-4)"/>
            <path id="Trazado_107662" data-name="Trazado 107662" d="M1807.635-950.195l-.052.143v0c-.126.352-.262.7-.394,1.049-.217.586-.43,1.172-.594,1.766a9.43,9.43,0,0,0-.224,1.031c-.01.217-.027.428-.055.634a6.132,6.132,0,0,1-1.872,3.757,9.088,9.088,0,0,1-9.5,1.369,7.054,7.054,0,0,1-.9-.542c-1.878-1.326-3.111-3.546-2.676-5.589l.006-.03c-.984-2.549-.873-3.906.464-6.914,2.271-5.11,7.384-7.84,11.636-6.333.174.066.346.131.517.207a7.277,7.277,0,0,1,2.813,2.23,6.49,6.49,0,0,1,1.115,1.893h0c.055.135.1.274.144.41A7.471,7.471,0,0,1,1807.635-950.195Z" transform="translate(-1766.14 968.466)" fill="url(#linear-gradient-5)"/>
            <path id="Trazado_107663" data-name="Trazado 107663" d="M1808.839-947.963l-1.578,2.112-.2-.678-.259-.412-.243-.228-.792-.131-1.722.108.394-1.873c.291-.052.573-.1.857-.146a8.174,8.174,0,0,1,1.408-.109,2.532,2.532,0,0,1,1.257.328A2.592,2.592,0,0,1,1808.839-947.963Z" transform="translate(-1770.118 964.701)" fill="#db6951" opacity="0.15" style="isolation: isolate"/>
            <path id="Trazado_107664" data-name="Trazado 107664" d="M1795.714-953.724a4.656,4.656,0,0,0-2.971,2.86,3.145,3.145,0,0,0-.229,1.962,6.161,6.161,0,0,1-2.07-6.959c1.031-3.164,4.435-4.82,5.822-3.194l.066.079a5.64,5.64,0,0,1,.929,1.554,4.262,4.262,0,0,1,.234.827,2.325,2.325,0,0,1-1.655,2.841Q1795.777-953.737,1795.714-953.724Z" transform="translate(-1765.921 968.268)" fill="#743234"/>
            <path id="Trazado_107665" data-name="Trazado 107665" d="M1781.961-902.056h-.012a16,16,0,0,1-1.907-.283,4.1,4.1,0,0,1-.736-.234c-3.728-1.553-4.816-8.232-5.116-10.166a6.492,6.492,0,0,1,.053,1.185,47.385,47.385,0,0,1-.806,5.986c-.042.234-.087.472-.135.71q-.142.732-.3,1.489c-1.267,0-2.669.073-3.2.073-.213,0-.708.058-1.332.142,1.686,14.122-1.647,21.185-1.647,21.185l-7.4,8.9q1.837,1.091,3.6,1.957a10.933,10.933,0,0,0,5.873-3.752,9.336,9.336,0,0,1,6.749-3.428l10.778-.647c-.2-.546-.409-1.136-.628-1.78H1771.6c1.6-6.594.219-14.177,1.709-15.39,2-1.627,10.78-1.055,14.328-.75.229-1.1.448-2.086.638-2.915a2.711,2.711,0,0,0,1.3-.459,6.3,6.3,0,0,0,1.879-2.664A32.226,32.226,0,0,1,1781.961-902.056Z" transform="translate(-1755.37 952.112)" fill="#ed6666"/>
            <path id="Trazado_107666" data-name="Trazado 107666" d="M1793.116-942.931h0a1.893,1.893,0,0,1-1.069.975,1.859,1.859,0,0,1-1.3-.05,2.336,2.336,0,0,1-.328-.159,2.87,2.87,0,0,1-.946-.921,3.343,3.343,0,0,1-.359-.736,3.3,3.3,0,0,1-.166-1.423,2.12,2.12,0,0,1,1.326-1.856,1.787,1.787,0,0,1,.887-.07h0a2.809,2.809,0,0,1,2.045,1.936A3.006,3.006,0,0,1,1793.116-942.931Z" transform="translate(-1765.522 963.971)" fill="url(#linear-gradient-6)"/>
            <path id="Trazado_107667" data-name="Trazado 107667" d="M1775.648-932.886c-.009.053-.017.1-.029.154-3.445-2.679-.948-7.218,1.346-9.758,2.279-2.523,5.73-2.05,6.821-1.823a3.25,3.25,0,0,0,.165,1.421,3.306,3.306,0,0,0,.359.738C1782.827-941.949,1773.272-940.324,1775.648-932.886Z" transform="translate(-1760.357 963.043)" fill="#743234"/>
            <path id="Trazado_107668" data-name="Trazado 107668" d="M1811.025-951.826a5.872,5.872,0,0,0,.9-2.638,5.008,5.008,0,0,0-.952-2.994,4.973,4.973,0,0,1-.169,2.469,3.671,3.671,0,0,1-2.09,2.194h0l0-.012a.172.172,0,0,0,.02-.03l.015-.023a.613.613,0,0,0,.039-.066.281.281,0,0,0,.024-.041,7.311,7.311,0,0,0,.435-4.49c-.412-2.828-6.075.075-8.492-1.27a1.876,1.876,0,0,1-.742-.736,2.078,2.078,0,0,1-.166-.369,4.594,4.594,0,0,1-.257-1.276c-.225-4.161,5.8-6.743,11.186-2.917C1816.7-959.823,1812.435-952.346,1811.025-951.826Z" transform="translate(-1768.606 970.404)" fill="#743234"/>
            <path id="Trazado_107669" data-name="Trazado 107669" d="M1791.872-933.863c-.078.355-.16.7-.235,1.011h0a6.937,6.937,0,0,1-2.951-3.912c-1.624,4.682-4.288,5.264-4.288,5.264s3.208-1.978,4.329-8.072l.136.033a2.163,2.163,0,0,0,.323.159C1788.79-937.352,1790.017-935.174,1791.872-933.863Z" transform="translate(-1763.963 961.346)" fill="#db6951" opacity="0.5" style="isolation: isolate"/>
            <path id="Trazado_107670" data-name="Trazado 107670" d="M1774.4-899.637q-.16.743-.333,1.5c-1.251,5.5-2.864,11.289-3.87,14.774-.579,2-.958,3.237-.958,3.237l-5.059-.31c-.275-1.657.611-12.2,1.078-21.155.06-1.119.112-2.217.156-3.267v-.02C1768.294-904.79,1772.314-903.836,1774.4-899.637Z" transform="translate(-1756.988 949.407)" fill="url(#linear-gradient-7)"/>
            <path id="Trazado_107671" data-name="Trazado 107671" d="M1807.205-867.081a.627.627,0,0,1-.37.121.629.629,0,0,1-.344-.1l-1.631-1.059,1.1,1.236a.561.561,0,0,1-.042.794l-.013.012a.555.555,0,0,1-.367.138.553.553,0,0,1-.277-.073l-1.563-.876.381.413a.641.641,0,0,1-.036.906.609.609,0,0,1-.1.077.641.641,0,0,1-.331.092.609.609,0,0,1-.314-.082l-.747-.415h0l-.606.084a1.172,1.172,0,0,1-.9-.251l-1.91-1.56-1.262-.59H1766.8a2.6,2.6,0,0,1-1.782-.71,2.582,2.582,0,0,1-.59-2.934,11.962,11.962,0,0,1,.694-1.335h0a5.969,5.969,0,0,1,3.471-2.963,9.267,9.267,0,0,1,2.435-.222c5.6.169,13.544,4.2,27.84,4.945h0l.551-.015h0l2.649-.06a2.941,2.941,0,0,1,1.395.314,2.924,2.924,0,0,1,.879.666l2.9,2.452a.632.632,0,0,1,.08.891A.618.618,0,0,1,1807.205-867.081Z" transform="translate(-1757.013 939.603)" fill="url(#linear-gradient-8)"/>
            <path id="Trazado_107672" data-name="Trazado 107672" d="M1823.731-872.2l-.968.407-.452.188-.146.066h0a15.4,15.4,0,0,0-4.26,1.534l2.649-.06a2.934,2.934,0,0,1,1.4.314l.882-.756h0a2.934,2.934,0,0,0,1.711-1.246A1.127,1.127,0,0,0,1823.731-872.2Z" transform="translate(-1774.713 938.161)" fill="url(#linear-gradient-9)"/>
            <path id="Trazado_107673" data-name="Trazado 107673" d="M1827.919-872.222a1.4,1.4,0,0,0-.45-.3l.12-.05a.236.236,0,0,1,.311.122.207.207,0,0,1,.017.059A.908.908,0,0,1,1827.919-872.222Z" transform="translate(-1777.918 938.296)" fill="url(#linear-gradient-10)"/>
            <path id="Trazado_107674" data-name="Trazado 107674" d="M1793.208-944.58c-.01-.022-.022-.039-.031-.061a.115.115,0,0,0-.013-.024,2.4,2.4,0,0,0-2.2-1.337.106.106,0,0,0-.1.112v0a.106.106,0,0,0,.111.1h0a2.208,2.208,0,0,1,1.759.833,1.565,1.565,0,0,0-1.5.357.108.108,0,0,0,0,.152.109.109,0,0,0,.079.033.105.105,0,0,0,.074-.029,1.189,1.189,0,0,1,1.6-.1c.008.017.017.032.025.05a2.134,2.134,0,0,1-.346,2.345.106.106,0,0,0,0,.15l0,0a.107.107,0,0,0,.076.031.108.108,0,0,0,.077-.031A2.384,2.384,0,0,0,1793.208-944.58Z" transform="translate(-1766.189 963.559)" fill="#db6951" opacity="0.5" style="isolation: isolate"/>
            <path id="Trazado_107675" data-name="Trazado 107675" d="M1807.725-937.129a1.13,1.13,0,0,1,.772-.022.681.681,0,0,1,.328.242.59.59,0,0,1,.108.378.828.828,0,0,0-.491-.47A3.417,3.417,0,0,0,1807.725-937.129Z" transform="translate(-1771.99 960.532)" fill="#db6951" opacity="0.5" style="isolation: isolate"/>
            <path id="Trazado_107676" data-name="Trazado 107676" d="M1801.134-934.255a1.517,1.517,0,0,0,.51.467,1.994,1.994,0,0,0,.645.223,3.491,3.491,0,0,0,.691.045l.353-.022c.118-.012.235-.029.355-.036-.112.043-.228.075-.342.114s-.236.049-.356.07a2.457,2.457,0,0,1-.73-.012,1.665,1.665,0,0,1-.684-.276A1.158,1.158,0,0,1,1801.134-934.255Z" transform="translate(-1769.722 959.516)" fill="#db6951" opacity="0.5" style="isolation: isolate"/>
            <g id="Grupo_56252" data-name="Grupo 56252" transform="translate(67.664 10.468)">
              <path id="Trazado_107677" data-name="Trazado 107677" d="M1885.993-685.772h0a1.491,1.491,0,0,0-1.493-1.492h-5.79a1.492,1.492,0,0,0-1.491,1.492h0a1.481,1.481,0,0,1-.172.695l-7.14,8.747h1.758l8.714-8.412a1.468,1.468,0,0,1,1.226-.66h0a1.466,1.466,0,0,1,1.225.66l8.715,8.412h1.758l-7.141-8.747A1.5,1.5,0,0,1,1885.993-685.772Z" transform="translate(-1859.511 864.053)" fill="#362742"/>
              <g id="Grupo_56249" data-name="Grupo 56249">
                <path id="Trazado_107678" data-name="Trazado 107678" d="M1888.3-865.74h-24.289a9.953,9.953,0,0,1-9.95-9.956,10.007,10.007,0,0,1,.058-1.068c1.342-12.47,4.761-19.9,6.883-23.457.055-.095.112-.187.166-.277a11,11,0,0,0,1.618-5.738v-8.279a8.169,8.169,0,0,0-.9-3.725,8.184,8.184,0,0,0-2.5-2.907,4.875,4.875,0,0,1-2.027-3.955v-2.043c0-3.143-.152-6.106,1.613-8.521.275-.376.57-.74.881-1.089h0a14.4,14.4,0,0,1,6.4-4.143c2.511-.8,5.387-3.129,5.387-5.764v-9.553c0-.328,2.021-.6,4.514-.6s4.512.268,4.512.6v9.553c0,2.635,2.878,4.966,5.39,5.764a14.41,14.41,0,0,1,7.28,5.234c1.767,2.414,1.613,5.378,1.613,8.521v2.043a4.878,4.878,0,0,1-2.027,3.955,8.177,8.177,0,0,0-2.5,2.907,8.159,8.159,0,0,0-.9,3.725v8.276a11,11,0,0,0,1.617,5.738c2.1,3.441,5.671,10.931,7.05,23.734a9.955,9.955,0,0,1-8.826,10.967A10.034,10.034,0,0,1,1888.3-865.74Z" transform="translate(-1854.056 956.81)" fill="url(#linear-gradient-11)"/>
                <path id="Trazado_107679" data-name="Trazado 107679" d="M1890.2-815.662H1874.79a2.3,2.3,0,0,1-2.3-2.3h20A2.3,2.3,0,0,1,1890.2-815.662Z" transform="translate(-1860.401 909.028)" fill="#362742"/>
                <path id="Trazado_107680" data-name="Trazado 107680" d="M1888.569-812.628h-7.512a1.83,1.83,0,0,1-1.829-1.829H1890.4A1.829,1.829,0,0,1,1888.569-812.628Z" transform="translate(-1862.718 907.823)" fill="#362742"/>
              </g>
              <rect id="Rectángulo_5759" data-name="Rectángulo 5759" width="3.215" height="81.004" transform="translate(20.488 95.196)" fill="url(#linear-gradient-12)"/>
              <path id="Trazado_107681" data-name="Trazado 107681" d="M1887.242-684.809h-2.361a2.026,2.026,0,0,1-2.025-2.025h0a2.026,2.026,0,0,1,2.025-2.027h2.361a2.027,2.027,0,0,1,2.026,2.027h0a2.026,2.026,0,0,1-2.026,2.025Z" transform="translate(-1863.966 864.603)" fill="#362742"/>
              <g id="Grupo_56251" data-name="Grupo 56251" transform="translate(10.042 186.813)">
                <g id="Grupo_56250" data-name="Grupo 56250">
                  <path id="Trazado_107682" data-name="Trazado 107682" d="M1871.705-671.072h-1.884a.456.456,0,0,1-.455-.456h0a.454.454,0,0,1,.455-.455h1.884a.454.454,0,0,1,.454.455h0a.455.455,0,0,1-.454.456Z" transform="translate(-1869.367 671.982)" fill="#362742"/>
                  <path id="Trazado_107683" data-name="Trazado 107683" d="M1904.2-671.072h-1.882a.454.454,0,0,1-.454-.455h0a.455.455,0,0,1,.454-.455h1.882a.454.454,0,0,1,.455.455h0a.456.456,0,0,1-.455.456Z" transform="translate(-1880.55 671.982)" fill="#362742"/>
                </g>
              </g>
            </g>
            <path id="Trazado_107684" data-name="Trazado 107684" d="M1879.224-888.707v.012q0,.88-.024,1.771c0,.15-.007.3-.013.451-.2-1.036-.446-2.133-.721-3.276v-.006l-.006-.022a136.5,136.5,0,0,0-8.8-25.142c-.494-1.02-.99-1.987-1.484-2.893a25.367,25.367,0,0,0-4.059-5.816l2.714-1.7-3.941-2.582a5.152,5.152,0,0,1,.842-1.344,5.364,5.364,0,0,1,3.265-1.85s.418.647,1.1,1.85c.429.76.964,1.741,1.564,2.921.708,1.392,1.509,3.061,2.339,4.969C1875.378-913.583,1879.224-901.844,1879.224-888.707Z" transform="translate(-1789.573 958.43)" fill="#326160" opacity="0.5" style="isolation: isolate"/>
            <path id="Trazado_107685" data-name="Trazado 107685" d="M1900.2-925.321l2.713,1.7c-5.6,5.428-12.724,25.279-15.072,37.155q-.038-1.115-.038-2.224v-.013c0-13.165,3.87-24.927,7.252-32.7a74.28,74.28,0,0,1,4.978-9.689,5.48,5.48,0,0,1,4.108,3.194Z" transform="translate(-1797.828 958.429)" fill="#326160" opacity="0.5" style="isolation: isolate"/>
            <path id="Trazado_107686" data-name="Trazado 107686" d="M1875.531-885.245c0,.15-.007.3-.012.451a134.263,134.263,0,0,0-9.531-28.445h0c-.031-.066-.061-.126-.094-.188-.069-.144-.14-.287-.209-.428-.032-.066-.066-.131-.1-.193-.1-.2-.2-.4-.3-.6-.026-.05-.051-.1-.075-.148-.106-.2-.21-.406-.317-.607l-.054-.1c-.111-.21-.225-.42-.337-.626a25.351,25.351,0,0,0-4.058-5.816l2.714-1.7-3.94-2.582c-.312.348-1.174.394-1.449.768-1.767,2.414-1.045,5.7-1.045,8.841v2.043a4.874,4.874,0,0,0,2.027,3.955,8.188,8.188,0,0,1,2.5,2.907,8.159,8.159,0,0,1,.9,3.725v8.276a10.989,10.989,0,0,1-.815,4.147c-.042.05-9.046,11.19-9.117,36.926q-.006,2.343.089,4.848c2.857,6.628,16.228,9.028,19.428,5.256a9.434,9.434,0,0,0,1.377-3.7c1.949-8.834,2.266-29.38,2.483-36.567C1875.572-884.946,1875.552-885.1,1875.531-885.245Z" transform="translate(-1785.983 956.754)" fill="url(#linear-gradient-13)"/>
            <path id="Trazado_107687" data-name="Trazado 107687" d="M1887.744-884.794c.262,8.626.663,36.492,3.862,40.263s16.572,1.371,19.429-5.256c1.141-29.194-8.985-41.724-9.032-41.78a10.976,10.976,0,0,1-.814-4.145v-8.276a8.156,8.156,0,0,1,.9-3.725,8.174,8.174,0,0,1,2.5-2.907,4.878,4.878,0,0,0,2.026-3.955v-2.043c0-3.143.661-6.428-1.105-8.841-.275-.377-1.078-.42-1.388-.768l-3.941,2.581,2.716,1.7a25.269,25.269,0,0,0-4.059,5.816c-.114.205-.225.415-.339.628l-.054.1c-.105.2-.212.4-.316.608-.026.048-.05.1-.075.146-.1.2-.2.4-.3.6-.031.066-.065.131-.1.193-.066.142-.139.284-.209.427-.032.066-.062.126-.093.19h0a134.135,134.135,0,0,0-9.532,28.445q-.007-.226-.013-.451C1887.785-885.1,1887.765-884.946,1887.744-884.794Z" transform="translate(-1797.735 956.754)" fill="url(#linear-gradient-14)"/>
            <path id="Trazado_107688" data-name="Trazado 107688" d="M1873.111-810.665a9.573,9.573,0,0,1-1.377,3.7c-3.2,3.772-16.571,1.371-19.428-5.256q-.1-2.506-.089-4.848A21.213,21.213,0,0,0,1873.111-810.665Z" transform="translate(-1786.002 919.191)" fill="#fff" opacity="0.5" style="isolation: isolate"/>
            <path id="Trazado_107689" data-name="Trazado 107689" d="M1891.529-810.665a9.512,9.512,0,0,0,1.381,3.7c3.2,3.772,16.571,1.371,19.428-5.256q.1-2.506.089-4.848A21.222,21.222,0,0,1,1891.529-810.665Z" transform="translate(-1799.015 919.191)" fill="#fff" opacity="0.5" style="isolation: isolate"/>
            <path id="Trazado_107690" data-name="Trazado 107690" d="M1890.611-862.427a.875.875,0,0,1-.875.876h0a.874.874,0,0,1-.874-.874h0a.874.874,0,0,1,.873-.876h0a.875.875,0,0,1,.875.875Z" transform="translate(-1798.318 935.1)" fill="#326160" opacity="0.5" style="isolation: isolate"/>
            <path id="Trazado_107691" data-name="Trazado 107691" d="M1891-851.318a.875.875,0,0,1-.875.874h0a.873.873,0,0,1-.874-.873h0a.874.874,0,0,1,.873-.876h0a.875.875,0,0,1,.876.873Z" transform="translate(-1798.448 931.277)" fill="#326160" opacity="0.5" style="isolation: isolate"/>
            <path id="Trazado_107692" data-name="Trazado 107692" d="M1891.4-840.21a.876.876,0,0,1-.875.876.875.875,0,0,1-.874-.876h0a.875.875,0,0,1,.874-.876h0A.875.875,0,0,1,1891.4-840.21Z" transform="translate(-1798.579 927.455)" fill="#326160" opacity="0.5" style="isolation: isolate"/>
            <path id="Trazado_107693" data-name="Trazado 107693" d="M1914.55-863.574c0,.31-1.6.571-3.739.636-.336.008-.683.015-1.043.015-2.641,0-4.783-.291-4.783-.651-1.5-18.742-.752-34.983-.752-44.014,0-6.859,4-13.406,5.9-16.135.591-.853.984-1.333.984-1.333C1919.3-915.8,1914.55-863.574,1914.55-863.574Z" transform="translate(-1803.261 956.351)" fill="#8dbac4"/>
            <path id="Trazado_107694" data-name="Trazado 107694" d="M1917.744-863.574c0,.31-1.6.571-3.739.636,3.764-18.308.139-53.515-.676-60.784.59-.853.984-1.333.984-1.333C1922.493-915.8,1917.744-863.574,1917.744-863.574Z" transform="translate(-1806.408 956.351)" fill="#326160" opacity="0.25" style="isolation: isolate"/>
            <path id="Trazado_107695" data-name="Trazado 107695" d="M1865.236-889.238c0,7.534-.187,16.286-.938,25.665,0,.36-2.142.651-4.784.651-.168,0-.333,0-.5,0-.718-.008-1.389-.041-1.976-.09-.332-.026-.635-.059-.908-.094-.865-.119-1.4-.28-1.4-.459,0,0-4.747-52.229,3.431-61.482a37.273,37.273,0,0,1,5.451,9.876v.006a22.786,22.786,0,0,1,1.437,7.581C1865.051-903.075,1865.236-896.762,1865.236-889.238Z" transform="translate(-1786.45 956.349)" fill="#8dbac4"/>
            <path id="Trazado_107696" data-name="Trazado 107696" d="M1891.26-916.324c-3.384,7.774-7.251,19.536-7.252,32.7,0-13.137-3.85-24.876-7.228-32.651A24.215,24.215,0,0,0,1891.26-916.324Z" transform="translate(-1794.194 953.346)" fill="#e8f1f3"/>
            <path id="Trazado_107697" data-name="Trazado 107697" d="M1773.85-903.839l0,.015c-.018.092-.034.187-.054.281-.014.066-.028.131-.041.21a.608.608,0,0,1-.017.079c-.017.081-.035.169-.053.262-.05.246-.108.525-.166.815s-.12.571-.182.859c-2.091-4.2-6.111-5.153-8.986-5.241h-.02c-.487-.016-.94-.006-1.347.017a12.969,12.969,0,0,0-1.968.246,8.577,8.577,0,0,1,.8-3.007h0a.657.657,0,0,1,.359-.279,6.089,6.089,0,0,1,.978-.155,9.918,9.918,0,0,1,1.366-.014A11.694,11.694,0,0,1,1773.85-903.839Z" transform="translate(-1755.915 951.089)" fill="#fff"/>
            <path id="Trazado_107698" data-name="Trazado 107698" d="M1992.283-802.769h0c7.514-13.428,11.071-39.217,11.071-39.217L1983.8-859.48s-4.928,35.313-4.7,56.712h0l.464,1.791-5.823,60.472s5.326,2.282,6.811,0c3.94-21.557,14.692-40.009,14.692-46.679s-2.956-15.584-2.956-15.584Z" transform="translate(-1825.839 933.784)" fill="#2e2368"/>
            <path id="Trazado_107699" data-name="Trazado 107699" d="M1920.855-942.871h0a11.99,11.99,0,0,0-.867-1.856c-.009-.015-.018-.027-.026-.041a8.051,8.051,0,0,0-.734-1.032,8.2,8.2,0,0,0-.682-.728,7.873,7.873,0,0,0-.889-.733l-.082-.058-1.787-.876-1.066.939-.991,1.2-.8,2.189,1.332.328a11.584,11.584,0,0,0,4.077,4l2.732-2.763S1920.988-942.533,1920.855-942.871Z" transform="translate(-1806.251 964.313)" fill="#f2886b"/>
            <path id="Trazado_107700" data-name="Trazado 107700" d="M1994.971-935.264l-1.463.86a5.491,5.491,0,0,0,.731.721c.131.043.688-.066.731,0s.447-.533.469-.6A8.491,8.491,0,0,0,1994.971-935.264Z" transform="translate(-1832.642 959.863)" fill="#d3cbf7"/>
            <path id="Trazado_107701" data-name="Trazado 107701" d="M1964.883-914.077c-7.813,4.537-19.348,6.731-19.348,6.731s-.2.03-.525.058c-1.123.1-3.748.184-4.949-.993-14.846-14.591-16.034-23.767-16.034-23.767a10.872,10.872,0,0,1,4.078-2.324l.164-.05a153.79,153.79,0,0,1,17.54,16.144,42.7,42.7,0,0,0,5.7-2.246c4.716-2.192,9.752-6.967,11.8-8.53a3.925,3.925,0,0,1,.725-.478,46.8,46.8,0,0,1,6.822-1.625S1964.531-918.158,1964.883-914.077Z" transform="translate(-1808.732 959.574)" fill="#d3cbf7"/>
            <path id="Trazado_107702" data-name="Trazado 107702" d="M2002.944-939.272l-8.92.9-.452-3.18-.066-.459-.721-5.055,6.977-3.884.7,2.579.218.794.052.191,2.064,7.589Z" transform="translate(-1832.393 965.261)" fill="url(#linear-gradient-15)"/>
            <path id="Trazado_107703" data-name="Trazado 107703" d="M2012.445-678.082a13.576,13.576,0,0,1-8.914,4.1,1.574,1.574,0,0,0-1.428,1.708,1.575,1.575,0,0,0,.392.906l.021.022h17.114a6.738,6.738,0,0,0-.614-4.9l-1-1.836Z" transform="translate(-1835.598 871.362)" fill="#271f37"/>
            <path id="Trazado_107704" data-name="Trazado 107704" d="M1968.58-678.082a13.574,13.574,0,0,1-8.914,4.1,1.574,1.574,0,0,0-1.427,1.709,1.572,1.572,0,0,0,.392.905l.019.022h17.115a6.733,6.733,0,0,0-.614-4.9l-1-1.836Z" transform="translate(-1821.145 871.362)" fill="#271f37"/>
            <path id="Trazado_107705" data-name="Trazado 107705" d="M2011.785-886.762c-11.618,6.262-24.377,1.933-24.377,1.933q-.155-.479-.262-.971a10.081,10.081,0,0,1-.235-1.925c-.09-3.214,1.225-5.976.343-10.2s-1.8-5.817-2.455-11.8c-.107-.973-.208-2.063-.3-3.3-.066-.9-.131-1.888-.191-2.964q-.033-.578-.062-1.191a15.989,15.989,0,0,1,5.837-13.268h0c.16-.137.31-.256.452-.365.108-.084.211-.161.306-.233.131-.095.25-.179.354-.249.306-.209.487-.313.487-.313l.2-.035,8.118-1.5a43.7,43.7,0,0,1,3.444,3.991c1.56,2.05,3.113,4.54,3.4,6.6a41.27,41.27,0,0,1,.04,11.212c-.057.424-.1.918-.144,1.46-.213,3.083-.114,7.821.007,11.244a14.108,14.108,0,0,0,.247,2.181,13.622,13.622,0,0,0,2.373,5.462h0a12.807,12.807,0,0,0,1.258,1.472c.683.687.935.7,1.354,1.705C2012.024-887.358,2011.972-886.861,2011.785-886.762Z" transform="translate(-1829.445 959.134)" fill="#e8e3f9"/>
            <path id="Trazado_107706" data-name="Trazado 107706" d="M1972.423-889.618c-1.165,2.285-5.545,4.842-5.545,4.842l-2.65-1.35-2.392-.465-.023-.007-21.992-4.28-1.134-1.811-5.163-1.705a5.435,5.435,0,0,1-.273-1.324.221.221,0,0,0,0-.057,5.939,5.939,0,0,1,.328-2.338,5.771,5.771,0,0,1,.676-1.377h.026l5.591.328c4.511-1.014,25.281.1,25.281.1l1.1-4.935,1.271-5.683s2.34-7.707,3.426-9.291a20.675,20.675,0,0,1,4.975-8.142,9,9,0,0,1,3.307-2.017h.009a5.254,5.254,0,0,1,2.459-.278h0a18.42,18.42,0,0,1,3.36,4.56,12.393,12.393,0,0,1,1.419,4.8C1986.831-902.039,1973.584-891.9,1972.423-889.618Z" transform="translate(-1811.901 957.862)" fill="#e8e3f9"/>
            <g id="Grupo_56253" data-name="Grupo 56253" transform="translate(125.183 58.977)">
              <path id="Trazado_107707" data-name="Trazado 107707" d="M1941.342-877.086a6.351,6.351,0,0,1-.482-1.519,5.619,5.619,0,0,1-.089-1.6,4.718,4.718,0,0,1,.154-.8,3.514,3.514,0,0,1,.328-.744,3.176,3.176,0,0,1,.5-.634,3.157,3.157,0,0,1,.648-.468,3.56,3.56,0,0,0-1.005,1.18,4.114,4.114,0,0,0-.411,1.48,7.044,7.044,0,0,0,.037,1.557q.048.39.131.775C1941.2-877.6,1941.271-877.341,1941.342-877.086Z" transform="translate(-1940.749 882.85)" fill="#d3cbf7"/>
            </g>
            <path id="Trazado_107708" data-name="Trazado 107708" d="M2014.442-860.083s-.125.052-.368.142c-1.978.738-11.775,4-25.157,1.753-.167-.029-.336-.056-.5-.087l-.089-2.325s.171.041.5.107a49.691,49.691,0,0,0,23.833-1.755l.544-.18.59,1.115Z" transform="translate(-1830.859 934.798)" fill="#271f37"/>
            <path id="Trazado_107709" data-name="Trazado 107709" d="M1927.283-936.294a6.846,6.846,0,0,1-4.241,2.374l-.005,0-.009-.012c-.008-.016-.028-.044-.062-.1-.144-.21-.559-.823-1.762-2.594l-.027-.038a3.2,3.2,0,0,1,2.644-3.195Z" transform="translate(-1809.01 961.445)" fill="#d3cbf7"/>
            <path id="Trazado_107710" data-name="Trazado 107710" d="M2003.193-934.814h0a19.124,19.124,0,0,1-8.642,2.271l-.157-.424-.116-.315-.771-2.065a23.478,23.478,0,0,0,7.292-1.629,10.327,10.327,0,0,0,1.574-.853c.084-.054.164-.111.243-.166A12.947,12.947,0,0,1,2003.193-934.814Z" transform="translate(-1832.642 960.803)" fill="#f1eefb"/>
            <path id="Trazado_107711" data-name="Trazado 107711" d="M1994.392-931.574c-.181.125-.4.283-.656.482l-.228-2.862Z" transform="translate(-1832.642 959.412)" fill="#d3cbf7"/>
            <path id="Trazado_107712" data-name="Trazado 107712" d="M2014.894-755.038c-.012.1-.029.2-.047.313-.131.853-.255,1.715-.369,2.594-.353,2.682-.628,5.484-.779,8.446q-.089,1.7-.114,3.476a4.5,4.5,0,0,1-.932.439c-2.623.9-5.878-.439-5.878-.439q0-2.124-.032-4.216c-.085-5.457-.348-10.716-.716-15.664v-.006c-.622-8.349-1.551-15.807-2.45-21.806h0c-1.421-9.477-2.779-15.321-2.779-15.321l-1.438-2.164.251-5.61c-3.141-10.915-5.34-20.155-6.878-27.744a179.977,179.977,0,0,1-3.5-24.136c13.379,2.242,23.179-1.015,25.157-1.753a16.194,16.194,0,0,1,2.051,6.05c-.846,12.752-3.717,47.207-3.75,47.585h0c.111.187,6.077,10.035,6.441,14.069C2020.276-778.183,2016.876-767.865,2014.894-755.038Z" transform="translate(-1831.17 933.492)" fill="#392b69"/>
            <g id="Grupo_56254" data-name="Grupo 56254" transform="translate(150.627)">
              <path id="Trazado_107713" data-name="Trazado 107713" d="M2005.12-968.664s.3-2.886,4.469-2.842c-.594.257-2.515.731-2.657,2.313a2.938,2.938,0,0,1,2.737-.153s-2.852.872-2.4,2.08C2006.343-966.968,2005.12-968.664,2005.12-968.664Z" transform="translate(-1987.266 972.335)" fill="#572627"/>
              <path id="Trazado_107714" data-name="Trazado 107714" d="M1996.818-956.042c-.042.07-.087.142-.131.208l-2.287.321-.621.087.08,1.066.178,2.416-4.627,3.91-.625.525a4.747,4.747,0,0,1-3.091,1.124,2.4,2.4,0,0,1-1.475-.512,2.389,2.389,0,0,1-.853-1.307l-.59-2.329a30.222,30.222,0,0,1-.912-7.371V-961.5a7.764,7.764,0,0,1,1.216-4.177,7.623,7.623,0,0,1,5.414-3.481,18.386,18.386,0,0,1,6.6.438C1999.311-967.536,1998.939-959.589,1996.818-956.042Z" transform="translate(-1979.264 971.568)" fill="url(#linear-gradient-16)"/>
              <path id="Trazado_107715" data-name="Trazado 107715" d="M1997.682-960.4a18.358,18.358,0,0,1-2.37,3.433l-1.963-.373-.608-.117a2.514,2.514,0,0,1-1.588-3.18c.019-.058.041-.116.065-.173a3.589,3.589,0,0,0,.057-3.228c-1.339-2.164-2.249.829-7.4.829a10.245,10.245,0,0,1-3.3-.466c-2.536-.865-3.229-2.856-2.235-5.271.459-1.115.76-1.848.961-2.328l.02-.052c.209-.5.3-.721.328-.807a.321.321,0,0,1,.017-.038l.007-.012v.006c-.062.243-.722,2.837.131,3.87,1.21-1.785,6.057-7.266,15.107-2.676C2000.442-968.173,1999.358-963.558,1997.682-960.4Z" transform="translate(-1977.898 972.77)" fill="#743234"/>
              <path id="Trazado_107716" data-name="Trazado 107716" d="M2002.914-951.167a4.21,4.21,0,0,1-.112.7l-.012.052c-.433,1.677-1.724,2.795-2.886,2.492a1.5,1.5,0,0,1-.262-.094,1.5,1.5,0,0,1-.437-.3l-.008,0a3.328,3.328,0,0,1-.614-3.178c.026-.1.052-.192.084-.284.5-1.516,1.705-2.492,2.8-2.209C2002.455-953.74,2003.026-952.547,2002.914-951.167Z" transform="translate(-1984.959 966.326)" fill="url(#linear-gradient-17)"/>
              <path id="Trazado_107717" data-name="Trazado 107717" d="M2002.348-951.379a2.624,2.624,0,0,0-2.755.818,3.009,3.009,0,0,1,1.272-2.24.108.108,0,0,0,.032-.149.107.107,0,0,0-.148-.032h0a3.3,3.3,0,0,0-1.368,2.734.132.132,0,0,0,0,.05,4.46,4.46,0,0,0,.672,2.033.112.112,0,0,0,.094.053.119.119,0,0,0,.054-.015.108.108,0,0,0,.038-.147,4.306,4.306,0,0,1-.649-1.925,2.39,2.39,0,0,1,2.708-.97.108.108,0,0,0,.131-.078h0a.106.106,0,0,0-.078-.129Z" transform="translate(-1985.29 965.966)" fill="#db6951" opacity="0.5" style="isolation: isolate"/>
            </g>
            <path id="Trazado_107718" data-name="Trazado 107718" d="M1908-864.773c-.687-26.825,2.674-43.5,9.991-49.567,9.011-7.47-4.082-31.777-4.216-32.021l1.134-.618c.566,1.037,13.732,25.489,3.906,33.634-6.9,5.718-10.19,22.5-9.524,48.54Z" transform="translate(-1804.514 963.895)" fill="url(#linear-gradient-18)"/>
            <path id="Trazado_107719" data-name="Trazado 107719" d="M1922.641-944.49l-.1-1.1a1.841,1.841,0,0,0-1.265-1.585l-.262-.084a1.412,1.412,0,0,0-1.371.3,1.321,1.321,0,0,0-.179.191l-.678.887a.349.349,0,0,0-.07.208.356.356,0,0,0,.122.268.433.433,0,0,0,.525.026l.812-.557.217-.149.825.586a7.963,7.963,0,0,1,.734,1.031c.008.013.017.026.026.041a11.9,11.9,0,0,1,.867,1.856h0l.061.157Z" transform="translate(-1808.215 964.013)" fill="url(#linear-gradient-19)"/>
            <g id="Grupo_56256" data-name="Grupo 56256" transform="translate(106.598 16.042)">
              <g id="Grupo_56255" data-name="Grupo 56255">
                <path id="Trazado_107720" data-name="Trazado 107720" d="M1917.474-946.469h0a.388.388,0,0,0,.088-.5l-.676-1.154a.387.387,0,0,0-.53-.139.331.331,0,0,0-.051.035l-.328.272a.388.388,0,0,0-.052.546.374.374,0,0,0,.043.045l1.006.882A.389.389,0,0,0,1917.474-946.469Z" transform="translate(-1913.896 948.311)" fill="url(#linear-gradient-20)"/>
                <path id="Trazado_107721" data-name="Trazado 107721" d="M1916.178-945.134h0a.447.447,0,0,0-.029-.578l-1.056-1.125a.447.447,0,0,0-.631-.021.491.491,0,0,0-.048.053l-.3.394a.447.447,0,0,0,.082.627.486.486,0,0,0,.06.039l1.358.733A.447.447,0,0,0,1916.178-945.134Z" transform="translate(-1913.271 947.852)" fill="url(#linear-gradient-21)"/>
                <path id="Trazado_107722" data-name="Trazado 107722" d="M1914.947-943.711h0a.388.388,0,0,0-.126-.487l-1.094-.769a.388.388,0,0,0-.541.095.479.479,0,0,0-.031.052l-.187.385a.387.387,0,0,0,.18.518.39.39,0,0,0,.057.022l1.282.385A.389.389,0,0,0,1914.947-943.711Z" transform="translate(-1912.896 947.185)" fill="url(#linear-gradient-22)"/>
                <path id="Trazado_107723" data-name="Trazado 107723" d="M1914.995-941.516h0a.389.389,0,0,0-.237-.446l-1.254-.495a.393.393,0,0,0-.508.226.328.328,0,0,0-.016.054l-.092.421a.394.394,0,0,0,.305.465.452.452,0,0,0,.056.008l1.345.073A.389.389,0,0,0,1914.995-941.516Z" transform="translate(-1912.878 946.305)" fill="url(#linear-gradient-23)"/>
              </g>
            </g>
            <g id="Grupo_56257" data-name="Grupo 56257" transform="translate(107.855 56.478)">
              <path id="Trazado_107724" data-name="Trazado 107724" d="M1920.871-886.621l-5.748,1.409a.437.437,0,0,0-.328.452h0a.434.434,0,0,0,.462.4h.018l3.257-.342-3.584.652a.423.423,0,0,0-.341.485h0a.423.423,0,0,0,.434.353l3.44-.14-3.119.314a.468.468,0,0,0-.417.516l0,.018h0a.466.466,0,0,0,.462.4h.065l.01.1a.546.546,0,0,0,.465.495l5.378.9Z" transform="translate(-1914.602 886.647)" fill="#f2886b"/>
              <path id="Trazado_107725" data-name="Trazado 107725" d="M1929.038-881.044c-.4-.066-.807-.117-1.21-.17a24.942,24.942,0,0,1-3.481.634,2.9,2.9,0,0,1-1-.081h0a3.035,3.035,0,0,1-1.968-1.581c-.008-.017-.016-.034-.023-.052a3.116,3.116,0,0,1,1.348-4.2l.015-.007a1.358,1.358,0,0,1,.525-.159c.06,0,.123,0,.186,0a11.407,11.407,0,0,1,4.891,1.722c.356.041.706.077,1.058.112.224.023.447.045.671.065A6.179,6.179,0,0,0,1929.038-881.044Z" transform="translate(-1916.807 886.66)" fill="url(#linear-gradient-24)"/>
            </g>
            <ellipse id="Elipse_4173" data-name="Elipse 4173" cx="2.684" cy="2.001" rx="2.684" ry="2.001" transform="translate(30.416 19.195)" fill="#db6951" opacity="0.15" style="isolation: isolate"/>
            <path id="Trazado_107726" data-name="Trazado 107726" d="M1812.912-938.1a6.132,6.132,0,0,1-1.872,3.757,3.281,3.281,0,0,1-.525-.579c-.865-1.2-.842-2.7.057-3.35A2.042,2.042,0,0,1,1812.912-938.1Z" transform="translate(-1772.063 960.997)" fill="#db6951" opacity="0.15" style="isolation: isolate"/>
            <path id="Trazado_107727" data-name="Trazado 107727" d="M1806.942-949.219a.254.254,0,0,1-.024.041l-.039.066-.015.023a.184.184,0,0,1-.02.03l0,.012c.975-2.577-.186-5.686-1.306-5.288-2.021.717-3.926,1.111-5.758.4a2.372,2.372,0,0,1-1.269,2.7c-.891.243-3.16.833-3.515,1.742,1.152,2.683-.02,3.813-.084,3.874a3.005,3.005,0,0,0,.089-2.3,3.2,3.2,0,0,0-.862-1.333,4.656,4.656,0,0,1,2.971-2.86,2.325,2.325,0,0,0,1.808-2.746c-.009-.041-.018-.083-.029-.123,2.417,1.345,8.08-1.558,8.492,1.27A7.3,7.3,0,0,1,1806.942-949.219Z" transform="translate(-1767.314 966.654)" fill="#db6951" opacity="0.5" style="isolation: isolate"/>
            <path id="Trazado_107728" data-name="Trazado 107728" d="M1816.508-947.705h0a7.8,7.8,0,0,0,.12-2.86,4.963,4.963,0,0,0,.168-2.467c.054.135.1.273.144.411A7.492,7.492,0,0,1,1816.508-947.705Z" transform="translate(-1774.274 965.978)" fill="#db6951" opacity="0.5" style="isolation: isolate"/>
            <path id="Trazado_107729" data-name="Trazado 107729" d="M1756.866-845.839c4.607,19.267,7,42.432,7.127,49.9s2.23,39.65,4.476,53.428h-.825c-1.352-8.873-9.492-34.111-9.492-36.708,0-4.329,3.974-16.449,3.974-16.449s-8.886-26.477-8.886-47.1c0-3.778,3.521-7.528,4.841-8.8q1.431.823,2.82,1.5a39.567,39.567,0,0,0,13.651,4.084c.136.838.256,1.712.366,2.614C1771.8-843.257,1761.016-843.08,1756.866-845.839Z" transform="translate(-1753.241 931.062)" fill="#822b4f" opacity="0.5" style="isolation: isolate"/>
            <path id="Trazado_107730" data-name="Trazado 107730" d="M1783.086-680.069c-6.937,4.172-8.289-6.792-8.385-7.668l-.006-.057c-.2-1.285-.534-2.912-.969-4.764.415.347,2.508,1.925,4.753.678l-.242,4.78S1780.589-683.657,1783.086-680.069Z" transform="translate(-1760.29 876.343)" fill="url(#linear-gradient-25)"/>
            <path id="Trazado_107731" data-name="Trazado 107731" d="M1822.158-683.57h0c.079,1.094-1.717.605-2.562.173-.733-.375-4.946-4.474-6.018-5.522-.037-.037-.074-.07-.1-.1l-.042-.043c-.066-.066-.1-.1-.1-.1-.169-2.711-.36-5.149-.566-7.371,0,0,2.988,1.747,5.406.289h0c-.015.1-.03.2-.045.306-.347,2.381-.656,4.657-.906,6.774A51.437,51.437,0,0,1,1822.158-683.57Z" transform="translate(-1772.994 877.712)" fill="url(#linear-gradient-26)"/>
            <path id="Trazado_107732" data-name="Trazado 107732" d="M1804.857-747q-.686-.281-1.327-.562c-.024-.254-.045-.5-.066-.751-1.319-14.143-3.317-19.629-4.3-32.383.274-6.354,7.215-18.505,7.215-18.505-5.987-3.336-14-13.944-19.429-23.524a158.394,158.394,0,0,0-.853-19.074c-.107-.9-.229-1.776-.365-2.614,6.8.661,11.576-1.088,13.274-2.6a27.485,27.485,0,0,1,2.026,2.732l-.077.066a20.6,20.6,0,0,0-4.547,25.933c5.351,9.313,11.609,18.025,11.609,18.025S1803.838-767.7,1804.857-747Z" transform="translate(-1764.423 929.494)" fill="#62203b" opacity="0.25" style="isolation: isolate"/>
            <path id="Trazado_107733" data-name="Trazado 107733" d="M1803.935-946.176a8.7,8.7,0,0,1,1.049-.177,5.9,5.9,0,0,1,1.071-.029,1.914,1.914,0,0,1,.276.041.672.672,0,0,1,.278.117,1.257,1.257,0,0,1,.366.43,2.31,2.31,0,0,1,.263,1.042,3.386,3.386,0,0,0-.406-.955,1.233,1.233,0,0,0-.337-.35,1,1,0,0,0-.459-.112c-.34-.03-.693-.022-1.044-.018S1804.291-946.173,1803.935-946.176Z" transform="translate(-1770.686 963.693)" fill="#db6951" opacity="0.5" style="isolation: isolate"/>
            <path id="Trazado_107734" data-name="Trazado 107734" d="M1808.741-948.268a.261.261,0,0,0-.019-.036,2.6,2.6,0,0,0-.876-1.034,2.531,2.531,0,0,0-1.257-.328,8.225,8.225,0,0,0-1.408.109c-.284.043-.566.095-.857.146l-.617.109a4.548,4.548,0,0,1,1.348-.745,4.336,4.336,0,0,1,1.554-.266,2.358,2.358,0,0,1,1.549.571,1.864,1.864,0,0,1,.459.693A1.978,1.978,0,0,1,1808.741-948.268Z" transform="translate(-1770.004 965.042)" fill="#743234"/>
            <path id="Trazado_107735" data-name="Trazado 107735" d="M1815.149-943.769a4.1,4.1,0,0,1-.084.467,2.09,2.09,0,0,1-.066-.222c-.024-.077-.04-.152-.06-.227-.035-.147-.089-.287-.121-.429-.049-.137-.094-.273-.149-.4a2.443,2.443,0,0,0-.2-.355,1.237,1.237,0,0,0-.59-.478,2.19,2.19,0,0,0-.86-.112,1.294,1.294,0,0,1,.94-.213,1.293,1.293,0,0,1,.866.557,1.994,1.994,0,0,1,.224.459c.026.079.035.161.055.241a1.325,1.325,0,0,1,.039.239A3.712,3.712,0,0,1,1815.149-943.769Z" transform="translate(-1773.109 963.474)" fill="#743234"/>
            <path id="Trazado_107736" data-name="Trazado 107736" d="M1814.348-943.889c-.217.586-.43,1.172-.594,1.766-.1.142-.181.262-.181.262a1.9,1.9,0,0,0-.394-.829,2.833,2.833,0,0,0-.964-.4l-.691-.08.984-2.237a2.189,2.189,0,0,1,.861.112,1.235,1.235,0,0,1,.59.477,2.373,2.373,0,0,1,.2.356c.055.131.1.262.149.4A1.643,1.643,0,0,0,1814.348-943.889Z" transform="translate(-1772.609 963.356)" fill="#db6951" opacity="0.15" style="isolation: isolate"/>
            <path id="Trazado_107737" data-name="Trazado 107737" d="M1811.383-942.028a1.959,1.959,0,0,1,.721-.079,1.868,1.868,0,0,1,.722.191,1.314,1.314,0,0,1,.542.522,1.347,1.347,0,0,1,.166.712,2.238,2.238,0,0,0-.307-.621,1.464,1.464,0,0,0-.5-.422,2.456,2.456,0,0,0-.64-.216A5.289,5.289,0,0,0,1811.383-942.028Z" transform="translate(-1772.564 962.22)" fill="#db6951" opacity="0.5" style="isolation: isolate"/>
            <path id="Trazado_107738" data-name="Trazado 107738" d="M1774.91-899.636q-.16.743-.333,1.5c-.956,4.2-2.123,8.572-3.068,11.954a9.3,9.3,0,0,0-2.435.222A5.971,5.971,0,0,0,1765.6-883h0a4.552,4.552,0,0,1,5.09-3.94l.107.015a101.291,101.291,0,0,0,1.905-11.82c-1.416-1.865-5.175-2.6-6.937-2.846.06-1.119.112-2.217.156-3.268v-.02C1768.8-904.79,1772.821-903.835,1774.91-899.636Z" transform="translate(-1757.495 949.406)" fill="#db6951" opacity="0.5" style="isolation: isolate"/>
            <path id="Trazado_107739" data-name="Trazado 107739" d="M1810.641-881.344a5.049,5.049,0,0,1-2.517-1.085s-2.932-4.247-6.266-9.787c.126-.652.254-1.277.377-1.867.227-1.1.447-2.085.637-2.915a2.694,2.694,0,0,0,1.3-.459,6.3,6.3,0,0,0,1.876-2.664,5.731,5.731,0,0,0-.345-4.242c-.018-.043-.038-.087-.06-.131a5.89,5.89,0,0,1,.693-.163h0c.239.663.478,1.332.71,2q.361,1.03.708,2.058l-.131.2a14.474,14.474,0,0,0,.681,16.86A9.514,9.514,0,0,0,1810.641-881.344Z" transform="translate(-1769.377 949.331)" fill="#db6951" opacity="0.5" style="isolation: isolate"/>
            <path id="Trazado_107740" data-name="Trazado 107740" d="M2008.289-910.041c-.057.424-.1.918-.144,1.46-4.99,12.6-15.755,21.28-19.59,24.077a10.085,10.085,0,0,1-.235-1.925,10.936,10.936,0,0,0,3.058-3.163c1.162-2.284,14.407-12.422,14.057-30.424-.343-5.154-4.645-9.233-4.779-9.36a14.636,14.636,0,0,1,4.2,1.518c1.56,2.05,3.114,4.54,3.4,6.6A41.289,41.289,0,0,1,2008.289-910.041Z" transform="translate(-1830.857 957.837)" fill="#c6b9e5" opacity="0.25" style="isolation: isolate"/>
            <path id="Trazado_107741" data-name="Trazado 107741" d="M2018.694-871.741h0l-2.4-1.7-4.954,5.925,4.979-9.69A13.62,13.62,0,0,0,2018.694-871.741Z" transform="translate(-1838.779 939.884)" fill="#c6b9e5" opacity="0.25" style="isolation: isolate"/>
            <path id="Trazado_107742" data-name="Trazado 107742" d="M2023.895-858.655h0a.536.536,0,0,1-.7-.288h0l-1.073-2.574a.536.536,0,0,1,.287-.7h0a.536.536,0,0,1,.7.288h0l1.074,2.572a.536.536,0,0,1-.288.7Z" transform="translate(-1842.474 934.741)" fill="#211935"/>
            <path id="Trazado_107743" data-name="Trazado 107743" d="M2008.689-855.892h0a.537.537,0,0,1-.6-.459l-.375-2.762a.537.537,0,0,1,.459-.6h0a.536.536,0,0,1,.6.459l.374,2.763a.536.536,0,0,1-.458.6Z" transform="translate(-1837.528 933.868)" fill="#211935"/>
            <path id="Trazado_107744" data-name="Trazado 107744" d="M1993.928-855.882h0a.536.536,0,0,1-.508-.562h0l.14-2.784a.537.537,0,0,1,.563-.509h0a.535.535,0,0,1,.507.562h0l-.14,2.784a.535.535,0,0,1-.561.508Z" transform="translate(-1832.612 933.873)" fill="#211935"/>
            <path id="Trazado_107745" data-name="Trazado 107745" d="M1966.854-893.412c-6.719.475-27.257-2.567-33.1-3.462a5.743,5.743,0,0,1,.675-1.377h.025l5.591.328c4.511-1.014,25.281.1,25.281.1l1.1-4.934,1.27-5.683s2.34-7.707,3.426-9.291a20.677,20.677,0,0,1,4.975-8.142,4.192,4.192,0,0,1,2.207,1.33C1983.107-918.855,1971.032-899.233,1966.854-893.412Z" transform="translate(-1812.081 956.633)" fill="#f6f4fd" opacity="0.25" style="isolation: isolate"/>
            <path id="Trazado_107746" data-name="Trazado 107746" d="M1995.017-899.9l7.614,3.612-7.077,9.859,5.237-9.323Z" transform="translate(-1833.161 947.692)" fill="#c6b9e5" opacity="0.5" style="isolation: isolate"/>
            <path id="Trazado_107747" data-name="Trazado 107747" d="M1945.908-875.261l12.739,4.967,5.514-1.4-6.215.694Z" transform="translate(-1817.055 939.215)" fill="#c6b9e5" opacity="0.25" style="isolation: isolate"/>
            <path id="Trazado_107748" data-name="Trazado 107748" d="M2002.5-940.932l-1.386-5.1-.053-.192h0l-.217-.8a2.4,2.4,0,0,1-2.506,1.516,1.511,1.511,0,0,1-.263-.094l.1,1.312-4.289,3.626.065.459c.656-.4,3.476-2.242,5-3.3a.939.939,0,0,0,.4-.681,1.469,1.469,0,0,1,.111-.426l1.464,4.526A10.382,10.382,0,0,0,2002.5-940.932Z" transform="translate(-1832.773 963.908)" fill="#db6951" opacity="0.5" style="isolation: isolate"/>
            <path id="Trazado_107749" data-name="Trazado 107749" d="M1993.5-950.594c-2.122-1.318-3.476-5.034-2.542-8.426a15.411,15.411,0,0,1-9.084.838v-.342a7.638,7.638,0,0,1,.062-.971,10.248,10.248,0,0,0,3.3.466c5.153,0,6.063-3,7.4-.829a3.589,3.589,0,0,1-.057,3.228,2.523,2.523,0,0,0,.387,2.577c-.033.093-.058.187-.084.284A3.328,3.328,0,0,0,1993.5-950.594Z" transform="translate(-1828.639 968.598)" fill="#db6951" opacity="0.5" style="isolation: isolate"/>
            <path id="Trazado_107750" data-name="Trazado 107750" d="M1996.819-928.951a9,9,0,0,0-3.307,2.018,20.677,20.677,0,0,0-4.975,8.142c-1.085,1.584-3.426,9.291-3.426,9.291l-.272,1.215c-.107-.973-.208-2.063-.3-3.3-.065-.9-.131-1.888-.191-2.965C1986.988-920.729,1991.21-927.931,1996.819-928.951Z" transform="translate(-1829.49 957.691)" fill="#c6b9e5" opacity="0.25" style="isolation: isolate"/>
            <path id="Trazado_107751" data-name="Trazado 107751" d="M1994.317-930.048a2.076,2.076,0,0,0,0-1c.131-.094.25-.179.353-.249l.157.424a19.15,19.15,0,0,0,8.642-2.271A13.951,13.951,0,0,1,1994.317-930.048Z" transform="translate(-1832.921 959.134)" fill="#c6b9e5" opacity="0.25" style="isolation: isolate"/>
            <path id="Trazado_107752" data-name="Trazado 107752" d="M2016.438-852.589c-.847,12.752-3.718,47.207-3.75,47.585h0c-2.013-7.184-2.107-16.538-1.821-23.222a8.822,8.822,0,0,0-8.133-9.171h0a8.827,8.827,0,0,1-7.431-5.324l-6.071-14.167c13.38,2.242,23.179-1.015,25.157-1.753A16.2,16.2,0,0,1,2016.438-852.589Z" transform="translate(-1831.171 933.496)" fill="#2b204f" opacity="0.5" style="isolation: isolate"/>
            <path id="Trazado_107753" data-name="Trazado 107753" d="M2026.163-726.9c-.013.1-.029.2-.047.313-.132.853-.255,1.715-.369,2.594-.353,2.682-.628,5.484-.779,8.446q-.088,1.7-.114,3.476a4.527,4.527,0,0,1-.932.439c-.132-8.006-.689-36.073-1.945-42.953.487-6.876,1.948-21.948,1.979-22.268.112.187,6.077,10.035,6.44,14.069C2031.545-750.042,2028.146-739.723,2026.163-726.9Z" transform="translate(-1842.439 905.35)" fill="#2b204f" opacity="0.5" style="isolation: isolate"/>
            <path id="Trazado_107754" data-name="Trazado 107754" d="M1972.43-887.2c-1.165,2.285-5.545,4.842-5.545,4.842l-2.65-1.35-2.392-.465-.023-.007-21.992-4.28-1.134-1.811-5.163-1.705a5.412,5.412,0,0,1-.273-1.324l31.129,6.773-.36-1.4,6.525-1.087,1.18-3.757s12.56-18.218,13.339-29.66a12.393,12.393,0,0,1,1.419,4.8C1986.838-899.622,1973.589-889.484,1972.43-887.2Z" transform="translate(-1811.909 955.446)" fill="#c6b9e5" opacity="0.5" style="isolation: isolate"/>
            <path id="Trazado_107755" data-name="Trazado 107755" d="M1974.537-915.767q.029.614.062,1.19c.057,1.076.123,2.06.191,2.965-7.75,4.122-18.25,6.119-18.25,6.119s-.2.03-.525.058c1.083-.44,9.044-3.667,16.963-6.764-1.551-7.8-.047-12.527,1.332-15a3.921,3.921,0,0,1,.725-.477,34.69,34.69,0,0,1,5.343-1.356A15.985,15.985,0,0,0,1974.537-915.767Z" transform="translate(-1819.74 957.72)" fill="#c6b9e5"/>
            <path id="Trazado_107756" data-name="Trazado 107756" d="M1982.91-952.467q.071.859.126,1.715l.114,1.713c.039.571.077,1.141.125,1.709.026.285.049.569.083.853a8.083,8.083,0,0,0,.125.841l-.074-.05c.525-.044,1.057-.076,1.585-.1-.525.088-1.045.169-1.57.236l-.058.008-.015-.058a10.906,10.906,0,0,1-.282-1.705c-.057-.572-.1-1.144-.126-1.718s-.046-1.145-.051-1.718S1982.89-951.894,1982.91-952.467Z" transform="translate(-1828.989 965.783)" fill="#db6951" opacity="0.5" style="isolation: isolate"/>
            <path id="Trazado_107757" data-name="Trazado 107757" d="M1987.668-940.08a2.771,2.771,0,0,0,.552,0,1.782,1.782,0,0,0,.525-.126,1.122,1.122,0,0,0,.424-.314,1.641,1.641,0,0,0,.269-.476,1.185,1.185,0,0,1-.2.525,1.031,1.031,0,0,1-.447.361,1.462,1.462,0,0,1-.562.111A1.69,1.69,0,0,1,1987.668-940.08Z" transform="translate(-1830.633 961.835)" fill="#db6951"/>
            <path id="Trazado_107758" data-name="Trazado 107758" d="M1985.343-953.535a3.444,3.444,0,0,1,.857-.084,3.965,3.965,0,0,1,.861.106,3.243,3.243,0,0,1,.812.307,2.717,2.717,0,0,1,.686.525c-.127-.072-.234-.164-.365-.222l-.184-.1-.192-.086a4.8,4.8,0,0,0-.8-.262,6.559,6.559,0,0,0-.83-.14A7.82,7.82,0,0,0,1985.343-953.535Z" transform="translate(-1829.833 966.18)" fill="#db6951"/>
            <path id="Trazado_107759" data-name="Trazado 107759" d="M1982.9-953.17a1.567,1.567,0,0,0-1.022.127v-.161A1.659,1.659,0,0,1,1982.9-953.17Z" transform="translate(-1828.639 966.059)" fill="#db6951"/>
            <path id="Trazado_107760" data-name="Trazado 107760" d="M1985.649-955.456a3.585,3.585,0,0,1,1.257-.411,4.084,4.084,0,0,1,1.343.028,3.291,3.291,0,0,1,1.251.514,2.919,2.919,0,0,1,.908.969,6.355,6.355,0,0,0-1.076-.677,4.569,4.569,0,0,0-1.165-.383,6.7,6.7,0,0,0-1.236-.117A11.371,11.371,0,0,0,1985.649-955.456Z" transform="translate(-1829.938 966.968)" fill="#743234"/>
            <path id="Trazado_107761" data-name="Trazado 107761" d="M1981.4-955.3a.853.853,0,0,1,.365-.186,1.141,1.141,0,0,1,.413-.031,1.12,1.12,0,0,1,.4.121.938.938,0,0,1,.315.262c-.135-.033-.252-.076-.375-.1a2.509,2.509,0,0,0-.361-.065A3.653,3.653,0,0,0,1981.4-955.3Z" transform="translate(-1828.476 966.834)" fill="#743234"/>
            <path id="Trazado_107762" data-name="Trazado 107762" d="M1930.264-880.082c-.4-.066-.808-.118-1.21-.17a24.974,24.974,0,0,1-3.481.634,2.9,2.9,0,0,1-1-.081c.424-.066,2.277-.38,4.826-.987a7.733,7.733,0,0,1,1.2-3.178q.335.034.671.066A6.181,6.181,0,0,0,1930.264-880.082Z" transform="translate(-1810.13 942.175)" fill="#db6951" opacity="0.5" style="isolation: isolate"/>
            <path id="Trazado_107763" data-name="Trazado 107763" d="M1980.593-971.861l0,.006.007-.012Z" transform="translate(-1828.197 972.459)" fill="#db6951"/>
            <path id="Trazado_107764" data-name="Trazado 107764" d="M1995.851-956.821c.114-1.377-.459-2.573-1.443-2.827-1.1-.283-2.305.693-2.8,2.209a2.523,2.523,0,0,1-.388-2.577,3.589,3.589,0,0,0,.057-3.228c-1.339-2.164-2.249.829-7.4.829a10.246,10.246,0,0,1-3.3-.466c-2.536-.865-3.229-2.856-2.235-5.271.459-1.115.76-1.848.961-2.328-.591,1.649-1.431,5.111,1.213,6.708,3.536,2.135,9.814-3.716,12.839-1.709a17.467,17.467,0,0,1,1.879,1.4,5.288,5.288,0,0,1,.642,7.239Z" transform="translate(-1827.271 971.982)" fill="#572627"/>
            <path id="Trazado_107765" data-name="Trazado 107765" d="M1859.016-862.922a25.39,25.39,0,0,1-2.886-.184c-.865-.119-1.4-.28-1.4-.459,0,0-4.747-52.229,3.431-61.482C1858.163-925.053,1852.349-883.583,1859.016-862.922Z" transform="translate(-1786.492 956.348)" fill="#e8f1f3" opacity="0.25" style="isolation: isolate"/>
            <path id="Trazado_107766" data-name="Trazado 107766" d="M1869.08-856.4h-10.109v-1.431c.59.05,1.259.082,1.976.09.164,0,.328,0,.5,0,2.641,0,4.784-.291,4.784-.651.752-9.379.939-18.131.939-25.665s-.187-13.839-.187-18.349a22.79,22.79,0,0,0-1.435-7.587C1871.552-898.542,1869.08-856.4,1869.08-856.4Z" transform="translate(-1788.32 951.166)" fill="#326160" opacity="0.25" style="isolation: isolate"/>
          </g>
        </g>
      </g>
    </g>
    <path id="Trazado_771793" data-name="Trazado 771793" d="M35.888,41.738c1.834-9.1.614-18.843,3.123-27.851a68.882,68.882,0,0,1,3.651-9.42L44.65,0A81.273,81.273,0,0,1,38.7,36.514a58.571,58.571,0,0,1-2.064,5.656q.968-1.6,1.939-3.2a60.887,60.887,0,0,1,7.21-10.2,97.857,97.857,0,0,1,8.346-7.31,28.59,28.59,0,0,0,7.219-8.34,12.713,12.713,0,0,1-1.575,7.4,37.864,37.864,0,0,1-4.432,6.265A92.9,92.9,0,0,1,45.082,38.072c-2.14,1.919-4.484,3.6-6.739,5.38-1,.788-2.4,1.73-3.608,2.78a61.078,61.078,0,0,1-7.519,11.288c4.024-1.817,8.026-3.7,11.374-6.548,2.349-2,4.369-4.456,7.11-5.869,3.177-1.637,6.9-1.657,10.454-2.044s7.375-1.367,9.52-4.226A22.4,22.4,0,0,1,58.832,47.1a66.914,66.914,0,0,1-9.2,5.712c-5.018,2.75-10.287,5.571-16.008,5.705a51.792,51.792,0,0,0-6.21.036,8.358,8.358,0,0,0-1.368.319q-1.758,1.972-3.682,3.787Q20.938,64,19.486,65.273a31.411,31.411,0,0,1,13.089-2.559,54.445,54.445,0,0,1,13.973,2.171,42.3,42.3,0,0,0,6.2,1.45,10.739,10.739,0,0,0,6.21-.9,35.265,35.265,0,0,1-6.182,5.058,11.849,11.849,0,0,1-7.641,1.8c-2.468-.368-4.665-1.76-7.081-2.385-2.891-.748-5.951-.367-8.907-.786-2.427-.344-4.748-1.223-7.164-1.636a13.194,13.194,0,0,0-2.791-.2,21.479,21.479,0,0,1-2.454.367l-.075-.009A59.273,59.273,0,0,1,2.474,76.231a3.425,3.425,0,0,1-1.273.344,1.21,1.21,0,0,1-1.109-.594,1.226,1.226,0,0,1,.334-1.352,3.729,3.729,0,0,1,1.292-.716,65.515,65.515,0,0,0,12.195-6.39c-.651-.613-.835-3.121-1.107-3.856a25,25,0,0,0-2.641-4.984c-1.978-3.011-4.272-5.918-5.285-9.376a18.659,18.659,0,0,1-.183-8.742,55.745,55.745,0,0,1,2.572-8.435c-.631,1.954.043,4.094,1,5.909a38.116,38.116,0,0,1,2.872,5.437c.986,2.928.524,6.208,1.615,9.1.725,1.921,2.088,3.537,2.91,5.418a10.532,10.532,0,0,1,.727,5.719,10.148,10.148,0,0,1-.705,2.584q.874-.625,1.728-1.277a45.753,45.753,0,0,0,5.1-4.593,6.3,6.3,0,0,0-.182-4.68c-.958-2.079-2.994-3.5-3.994-5.56-.93-1.915-.859-4.151-1.405-6.209-.572-2.159-1.824-4.122-2.147-6.331-.842-5.759,4.764-10.943,4.106-16.726A170.422,170.422,0,0,0,23.258,42.1c.612,2.118,1.294,4.215,1.907,6.333.739,2.554,1.44,5.4.825,8.065,1.324-1.612,2.58-3.268,3.772-4.921q1.189-1.649,2.3-3.355a6.932,6.932,0,0,0,.2-1.655,16.875,16.875,0,0,0-.584-3.84,20.555,20.555,0,0,0-2.282-6.456c-.934-1.477-2.237-2.7-3.1-4.222-1.822-3.2-1.427-7.187-.608-10.78S27.7,14.061,27.31,10.4C30.171,15.3,31.047,21.082,31.8,26.712q.868,6.465,1.618,12.946a23.169,23.169,0,0,1,.215,4.807,10.943,10.943,0,0,1-.3,1.736q.943-1.548,1.817-3.136C35.387,42.632,35.636,42.188,35.888,41.738Z" transform="translate(439.424 4919.463) rotate(4)" fill="#025157"/>
    <g id="Grupo_1054728" data-name="Grupo 1054728" transform="translate(449.742 4750.646) rotate(25)" opacity="0.62">
      <path id="Trazado_771758" data-name="Trazado 771758" d="M.281,5.745c-.419,2.032-.606,4.608,1.185,5.984a6.174,6.174,0,0,0,4.736,1.6c3.212-.593,3.089-3.041,3.289-5.89a10.464,10.464,0,0,0-.438-4.5A4.417,4.417,0,0,0,5.812.037,4.33,4.33,0,0,0,1.967,1.731,9.177,9.177,0,0,0,.281,5.745Z" transform="translate(25.16 70.018)" fill="#f5947a"/>
      <path id="Trazado_771759" data-name="Trazado 771759" d="M11.79,5.78a3.542,3.542,0,0,0-.161-1.2,3.693,3.693,0,0,0-.506-.847L9.886,2.03A5.5,5.5,0,0,0,8.291.383,3.545,3.545,0,0,0,5.326.268,7.87,7.87,0,0,0,2.8,1.975,9.392,9.392,0,0,0,.557,4.866c-2.008,4.406,1.759,9.9,5.748,11.768C12.065,19.329,11.831,8.841,11.79,5.78Z" transform="translate(10.063 52.366)" fill="#f5947a"/>
      <path id="Trazado_771760" data-name="Trazado 771760" d="M12.517,7.014a4.521,4.521,0,0,0-1.312-1.7C9.105,3.342,6.928,1.324,4.226.332A3.441,3.441,0,0,0,1.679.191C.448.739.09,2.3.018,3.644c-.191,3.5,1.135,8.537,5.258,9.264C8.057,13.4,13.685,10.388,12.517,7.014Z" transform="translate(0 31.76)" fill="#f5947a"/>
      <path id="Trazado_771761" data-name="Trazado 771761" d="M12.31,3.8C11.3,1.856,9.584-.095,7.4,0a6.9,6.9,0,0,0-3.759,1.88A9.332,9.332,0,0,0,.477,5.446,8,8,0,0,0,.023,7.833c-.357,4.941,3.471,9.567,8.849,8.474C14.422,15.179,14.332,7.7,12.31,3.8Z" transform="translate(8.705 7.9)" fill="#f5947a"/>
      <path id="Trazado_771762" data-name="Trazado 771762" d="M14.691,8.039A7.912,7.912,0,0,0,15.483,5.8a7.374,7.374,0,0,0-.653-3.549A3.558,3.558,0,0,0,13.441.239a3.388,3.388,0,0,0-3.078.388,38.037,38.037,0,0,0-8.323,6.5A7.54,7.54,0,0,0,.629,8.737,5.155,5.155,0,0,0,0,11.2c-.1,3.386,2.908,7.124,6.567,5.938C10.727,15.792,12.961,11.705,14.691,8.039Z" transform="translate(28.527 0)" fill="#f5947a"/>
      <path id="Trazado_771763" data-name="Trazado 771763" d="M9.479,8.178A6.907,6.907,0,0,0,11,6.331c.462-1.179-.26-2.5-1.164-3.387A11.629,11.629,0,0,0,5.619.456,4.725,4.725,0,0,0,2.556.147,3.573,3.573,0,0,0,.472,2.389,10.19,10.19,0,0,0,.022,5.51c-.094,2.566-.035,7.2,3.392,7.648C6.613,13.579,7.816,10.057,9.479,8.178Z" transform="translate(21.203 29.799)" fill="#f5947a"/>
      <path id="Trazado_771764" data-name="Trazado 771764" d="M14.288,5.014A4.905,4.905,0,0,0,10.945.244,8.1,8.1,0,0,0,7.181.2a9.786,9.786,0,0,0-2.975.907A8.511,8.511,0,0,0,.328,6.66a8.027,8.027,0,0,0-.172,3.789C1,14.1,5.574,15.815,8.963,14.739,12.76,13.534,14.124,8.524,14.288,5.014Z" transform="translate(39.163 23.491)" fill="#f5947a"/>
      <path id="Trazado_771765" data-name="Trazado 771765" d="M11.205,8.192a10.735,10.735,0,0,0,.267-3.021c-.009-1.357-.067-2.847-.971-3.858C9.517.213,7.876.056,6.4.015A11.237,11.237,0,0,0,3,.289,4.179,4.179,0,0,0,.35,2.3a4.186,4.186,0,0,0-.04,3.26c.87,2.389,2.923,4.97,5.5,5.562A4.546,4.546,0,0,0,11.205,8.192Z" transform="translate(52.18 43)" fill="#f5947a"/>
      <path id="Trazado_771766" data-name="Trazado 771766" d="M11.488,9.093A9.5,9.5,0,0,0,9.055,4.555C7.383,2.514,5.4.415,2.783.04A2.274,2.274,0,0,0,.836.489a2.291,2.291,0,0,0-.509.935,8.327,8.327,0,0,0,.2,5.18,21.25,21.25,0,0,0,2.436,4.661C4,12.872,5.817,15.552,8.1,14.957,10.292,14.382,11.761,11.155,11.488,9.093Z" transform="translate(30.915 47.982)" fill="#f5947a"/>
      <path id="Trazado_771767" data-name="Trazado 771767" d="M10.581,5.016A5.241,5.241,0,0,0,8.761.831,6.136,6.136,0,0,0,4.807.021,5.4,5.4,0,0,0,1.7.913,5.476,5.476,0,0,0,.084,4.855,13.34,13.34,0,0,0,.392,9.693c.7,2.463,3.316,5.706,6.088,4.083C9.207,12.18,10.657,7.98,10.581,5.016Z" transform="translate(49.732 63.186)" fill="#f5947a"/>
    </g>
  </g>
</svg>
