<svg xmlns="http://www.w3.org/2000/svg" width="820" height="436.208" viewBox="0 0 820 436.208">
  <g id="Grupo_1055069" data-name="Grupo 1055069" transform="translate(-390 -5757)">
    <path id="Trazado_771824" data-name="Trazado 771824" d="M0,0H820V436.208H0Z" transform="translate(390 5757)" fill="#baefe4" opacity="0.55"/>
    <g id="Grupo_55922" data-name="Grupo 55922" transform="translate(502.795 5858.406)">
      <path id="Trazado_106328" data-name="Trazado 106328" d="M-2004.384,1448.079v119.374s434.953,8.255,460.352,36.194c0,0,10.794-31.748,46.352-37.464s100.96-15.239,100.96-15.239v-46.353l-58.417-4.19,58.417-2.24,2.54-75.481s-74.292-27.3-144.772-10.159-219.7,27.3-219.7,27.3Z" transform="translate(2004.384 -1406.866)" fill="#fff" stroke="#12263f" stroke-linecap="round" stroke-linejoin="round" stroke-width="2.445"/>
      <line id="Línea_303" data-name="Línea 303" y2="159.163" transform="translate(506.901 0.155)" fill="none" stroke="#12263f" stroke-linecap="round" stroke-linejoin="round" stroke-width="2.445"/>
      <line id="Línea_304" data-name="Línea 304" y1="189.624" transform="translate(460.352 7.156)" fill="none" stroke="#12263f" stroke-linecap="round" stroke-linejoin="round" stroke-width="2.445"/>
      <line id="Línea_305" data-name="Línea 305" y1="136.363" transform="translate(242.239 32.959)" fill="none" stroke="#12263f" stroke-linecap="round" stroke-linejoin="round" stroke-width="2.445"/>
      <line id="Línea_306" data-name="Línea 306" x2="549.248" y2="2.24" transform="translate(0 91.296)" fill="none" stroke="#12263f" stroke-linecap="round" stroke-linejoin="round" stroke-width="2.445"/>
      <line id="Línea_307" data-name="Línea 307" y2="112.072" transform="translate(19.367 44.388)" fill="none" stroke="#f5947a" stroke-linecap="round" stroke-linejoin="round" stroke-width="2.113" stroke-dasharray="3.281"/>
      <line id="Línea_308" data-name="Línea 308" y2="117.893" transform="translate(120.009 41.002)" fill="none" stroke="#f5947a" stroke-linecap="round" stroke-linejoin="round" stroke-width="2.113" stroke-dasharray="3.281"/>
      <line id="Línea_309" data-name="Línea 309" y2="126.041" transform="translate(213.032 37.721)" fill="none" stroke="#f5947a" stroke-linecap="round" stroke-linejoin="round" stroke-width="2.113" stroke-dasharray="3.281"/>
      <line id="Línea_310" data-name="Línea 310" y2="134.613" transform="translate(293.355 32.959)" fill="none" stroke="#f5947a" stroke-linecap="round" stroke-linejoin="round" stroke-width="2.113" stroke-dasharray="3.281"/>
      <line id="Línea_311" data-name="Línea 311" y2="143.08" transform="translate(345.635 28.514)" fill="none" stroke="#f5947a" stroke-linecap="round" stroke-linejoin="round" stroke-width="2.113" stroke-dasharray="3.281"/>
      <line id="Línea_312" data-name="Línea 312" y2="166.362" transform="translate(430.72 16.238)" fill="none" stroke="#f5947a" stroke-linecap="round" stroke-linejoin="round" stroke-width="2.113" stroke-dasharray="3.281"/>
      <line id="Línea_313" data-name="Línea 313" x1="33.865" y2="179.431" transform="translate(443.42 6.132)" fill="none" stroke="#f5947a" stroke-linecap="round" stroke-linejoin="round" stroke-width="2.113" stroke-dasharray="3.281"/>
    </g>
    <path id="Trazado_106329" data-name="Trazado 106329" d="M-1509.414,1576.3v28.256l38.356,12.773v27.288" transform="translate(2519.11 4455.624)" fill="none" stroke="#12263f" stroke-linecap="round" stroke-linejoin="round" stroke-width="2.445"/>
    <path id="Trazado_772898" data-name="Trazado 772898" d="M0,0V40.989" transform="translate(745.034 6055.187)" fill="#fff" stroke="#12263f" stroke-linecap="round" stroke-width="2.445"/>
    <path id="Trazado_772899" data-name="Trazado 772899" d="M0,0V51.383" transform="translate(502.795 6044.793)" fill="#fff" stroke="#12263f" stroke-linecap="round" stroke-width="2.445"/>
    <path id="Trazado_772900" data-name="Trazado 772900" d="M0,64.252V0" transform="translate(522.162 5822.667)" fill="#fff" stroke="#ff9696" stroke-linecap="round" stroke-width="2.445"/>
    <path id="Trazado_772901" data-name="Trazado 772901" d="M0,64.252V0" transform="translate(622.805 5822.667)" fill="#fff" stroke="#f5947a" stroke-linecap="round" stroke-width="2.445"/>
    <path id="Trazado_772902" data-name="Trazado 772902" d="M0,58.108V0" transform="translate(715.827 5822.667)" fill="#fff" stroke="#f5947a" stroke-linecap="round" stroke-width="2.445"/>
    <path id="Trazado_772903" data-name="Trazado 772903" d="M0,51.963V0" transform="translate(796.151 5822.667)" fill="#fff" stroke="#f5947a" stroke-linecap="round" stroke-width="2.445"/>
    <path id="Trazado_772904" data-name="Trazado 772904" d="M0,49.544,22.251,0" transform="translate(848.43 5818.942)" fill="#fff" stroke="#f5947a" stroke-linecap="round" stroke-width="2.445"/>
    <path id="Trazado_772905" data-name="Trazado 772905" d="M0,36.6V0" transform="translate(933.516 5822.667)" fill="#fff" stroke="#f5947a" stroke-linecap="round" stroke-width="2.445"/>
    <path id="Trazado_772906" data-name="Trazado 772906" d="M0,29.433,12.784,0" transform="translate(984.176 5822.667)" fill="#fff" stroke="#f5947a" stroke-linecap="round" stroke-width="2.445"/>
    <path id="Trazado_772907" data-name="Trazado 772907" d="M0,0V30.578" transform="translate(963.147 6065.598)" fill="#fff" stroke="#12263f" stroke-linecap="round" stroke-width="2.445"/>
    <path id="Trazado_772908" data-name="Trazado 772908" d="M-18.367,0h-1.508L-25.6-8.766V0h-1.508V-11.375H-25.6l5.742,8.8v-8.8h1.492Zm4.008,0H-15.8V-8.453h1.445Zm-1.562-10.7a.863.863,0,0,1,.215-.594.807.807,0,0,1,.637-.242.819.819,0,0,1,.641.242.854.854,0,0,1,.219.594.826.826,0,0,1-.219.586.834.834,0,0,1-.641.234.821.821,0,0,1-.637-.234A.834.834,0,0,1-15.922-10.7Zm6.664,8.734,2.094-6.492h1.477L-8.719,0h-1.1l-3.062-8.453h1.477ZM-.789.156a3.693,3.693,0,0,1-2.8-1.129,4.19,4.19,0,0,1-1.078-3.02v-.266A5.073,5.073,0,0,1-4.184-6.5,3.748,3.748,0,0,1-2.84-8.051,3.378,3.378,0,0,1-.969-8.609,3.166,3.166,0,0,1,1.594-7.523a4.7,4.7,0,0,1,.914,3.109v.6H-3.219a3,3,0,0,0,.73,2.02,2.3,2.3,0,0,0,1.777.77,2.517,2.517,0,0,0,1.3-.312,3.259,3.259,0,0,0,.93-.828l.883.688A3.55,3.55,0,0,1-.789.156Zm-.18-7.578a1.928,1.928,0,0,0-1.469.637A3.1,3.1,0,0,0-3.172-5H1.063v-.109A2.753,2.753,0,0,0,.469-6.816,1.815,1.815,0,0,0-.969-7.422ZM5.75,0H4.3V-12H5.75Zm5.922-4.3a4.952,4.952,0,0,1,.922-3.129,2.915,2.915,0,0,1,2.414-1.184,2.932,2.932,0,0,1,2.352,1.016V-12H18.8V0H17.477l-.07-.906A2.943,2.943,0,0,1,14.992.156a2.887,2.887,0,0,1-2.395-1.2,5.008,5.008,0,0,1-.926-3.141Zm1.445.164a3.749,3.749,0,0,0,.594,2.25,1.92,1.92,0,0,0,1.641.813A2.108,2.108,0,0,0,17.359-2.3V-6.187a2.125,2.125,0,0,0-1.992-1.2,1.929,1.929,0,0,0-1.656.82A4.128,4.128,0,0,0,13.117-4.133ZM24.555.156a3.693,3.693,0,0,1-2.8-1.129,4.19,4.19,0,0,1-1.078-3.02v-.266A5.073,5.073,0,0,1,21.16-6.5,3.748,3.748,0,0,1,22.5-8.051a3.378,3.378,0,0,1,1.871-.559,3.166,3.166,0,0,1,2.563,1.086,4.7,4.7,0,0,1,.914,3.109v.6H22.125a3,3,0,0,0,.73,2.02,2.3,2.3,0,0,0,1.777.77,2.517,2.517,0,0,0,1.3-.312,3.259,3.259,0,0,0,.93-.828l.883.688A3.55,3.55,0,0,1,24.555.156Zm-.18-7.578a1.928,1.928,0,0,0-1.469.637A3.1,3.1,0,0,0,22.172-5h4.234v-.109a2.753,2.753,0,0,0-.594-1.707A1.815,1.815,0,0,0,24.375-7.422ZM-29.8,16h-1.445V4H-29.8Zm7.531,0a3.036,3.036,0,0,1-.2-.891,3.225,3.225,0,0,1-2.406,1.047,2.984,2.984,0,0,1-2.051-.707,2.287,2.287,0,0,1-.8-1.793,2.39,2.39,0,0,1,1-2.051,4.733,4.733,0,0,1,2.824-.73H-22.5v-.664A1.623,1.623,0,0,0-22.949,9a1.821,1.821,0,0,0-1.336-.449,2.107,2.107,0,0,0-1.3.391,1.151,1.151,0,0,0-.523.945h-1.453a2,2,0,0,1,.449-1.223,3.066,3.066,0,0,1,1.219-.934A4.1,4.1,0,0,1-24.2,7.391a3.342,3.342,0,0,1,2.289.73,2.635,2.635,0,0,1,.859,2.012v3.891a4.757,4.757,0,0,0,.3,1.852V16Zm-2.4-1.1a2.54,2.54,0,0,0,1.289-.352,2.127,2.127,0,0,0,.883-.914V11.9h-1.133q-2.656,0-2.656,1.555a1.316,1.316,0,0,0,.453,1.063A1.742,1.742,0,0,0-24.668,14.9Zm13.234.078a2.082,2.082,0,0,0,1.352-.469,1.649,1.649,0,0,0,.641-1.172h1.367a2.621,2.621,0,0,1-.5,1.383A3.293,3.293,0,0,1-9.8,15.766a3.55,3.55,0,0,1-1.629.391A3.482,3.482,0,0,1-14.18,15a4.59,4.59,0,0,1-1.02-3.152v-.242a5.089,5.089,0,0,1,.453-2.2,3.451,3.451,0,0,1,1.3-1.492,3.7,3.7,0,0,1,2-.531,3.39,3.39,0,0,1,2.363.852,3.043,3.043,0,0,1,1,2.211H-9.441a1.992,1.992,0,0,0-.621-1.348,1.932,1.932,0,0,0-1.379-.527,2.023,2.023,0,0,0-1.707.793,3.724,3.724,0,0,0-.605,2.293v.273a3.65,3.65,0,0,0,.6,2.25A2.033,2.033,0,0,0-11.434,14.977ZM-1.23,16a3.036,3.036,0,0,1-.2-.891A3.225,3.225,0,0,1-3.84,16.156a2.984,2.984,0,0,1-2.051-.707,2.287,2.287,0,0,1-.8-1.793,2.39,2.39,0,0,1,1-2.051,4.733,4.733,0,0,1,2.824-.73h1.406v-.664A1.623,1.623,0,0,0-1.91,9a1.821,1.821,0,0,0-1.336-.449,2.107,2.107,0,0,0-1.3.391,1.151,1.151,0,0,0-.523.945H-6.52A2,2,0,0,1-6.07,8.668a3.066,3.066,0,0,1,1.219-.934A4.1,4.1,0,0,1-3.16,7.391a3.342,3.342,0,0,1,2.289.73,2.635,2.635,0,0,1,.859,2.012v3.891a4.757,4.757,0,0,0,.3,1.852V16Zm-2.4-1.1a2.54,2.54,0,0,0,1.289-.352,2.127,2.127,0,0,0,.883-.914V11.9H-2.59q-2.656,0-2.656,1.555a1.316,1.316,0,0,0,.453,1.063A1.742,1.742,0,0,0-3.629,14.9ZM1.9,11.7a4.952,4.952,0,0,1,.922-3.129A2.915,2.915,0,0,1,5.238,7.391,2.932,2.932,0,0,1,7.59,8.406V4H9.035V16H7.707l-.07-.906a2.943,2.943,0,0,1-2.414,1.063,2.887,2.887,0,0,1-2.395-1.2A5.008,5.008,0,0,1,1.9,11.813Zm1.445.164a3.749,3.749,0,0,0,.594,2.25,1.92,1.92,0,0,0,1.641.813A2.108,2.108,0,0,0,7.59,13.7V9.813A2.125,2.125,0,0,0,5.6,8.617a1.929,1.929,0,0,0-1.656.82A4.128,4.128,0,0,0,3.348,11.867Zm11.438,4.289a3.693,3.693,0,0,1-2.8-1.129,4.19,4.19,0,0,1-1.078-3.02v-.266a5.073,5.073,0,0,1,.48-2.246,3.748,3.748,0,0,1,1.344-1.547,3.378,3.378,0,0,1,1.871-.559,3.166,3.166,0,0,1,2.563,1.086,4.7,4.7,0,0,1,.914,3.109v.6H12.355a3,3,0,0,0,.73,2.02,2.3,2.3,0,0,0,1.777.77,2.517,2.517,0,0,0,1.3-.312,3.259,3.259,0,0,0,.93-.828l.883.688A3.55,3.55,0,0,1,14.785,16.156Zm-.18-7.578a1.928,1.928,0,0,0-1.469.637A3.1,3.1,0,0,0,12.4,11h4.234v-.109a2.753,2.753,0,0,0-.594-1.707A1.815,1.815,0,0,0,14.605,8.578Zm9.234.266a4.331,4.331,0,0,0-.711-.055A1.9,1.9,0,0,0,21.2,10v6H19.754V7.547H21.16l.023.977A2.251,2.251,0,0,1,23.2,7.391a1.477,1.477,0,0,1,.641.109ZM30.074,16a3.036,3.036,0,0,1-.2-.891,3.225,3.225,0,0,1-2.406,1.047,2.984,2.984,0,0,1-2.051-.707,2.287,2.287,0,0,1-.8-1.793,2.39,2.39,0,0,1,1-2.051,4.733,4.733,0,0,1,2.824-.73h1.406v-.664A1.623,1.623,0,0,0,29.395,9a1.821,1.821,0,0,0-1.336-.449,2.107,2.107,0,0,0-1.3.391,1.151,1.151,0,0,0-.523.945H24.785a2,2,0,0,1,.449-1.223,3.066,3.066,0,0,1,1.219-.934,4.1,4.1,0,0,1,1.691-.344,3.342,3.342,0,0,1,2.289.73,2.635,2.635,0,0,1,.859,2.012v3.891a4.757,4.757,0,0,0,.3,1.852V16Zm-2.4-1.1a2.54,2.54,0,0,0,1.289-.352,2.127,2.127,0,0,0,.883-.914V11.9H28.715q-2.656,0-2.656,1.555a1.316,1.316,0,0,0,.453,1.063A1.742,1.742,0,0,0,27.676,14.9Z" transform="translate(1049.055 6118.421)"/>
    <path id="Trazado_772909" data-name="Trazado 772909" d="M-7.637,0H-9.145l-5.727-8.766V0h-1.508V-11.375h1.508l5.742,8.8v-8.8h1.492Zm4.008,0H-5.074V-8.453h1.445ZM-5.191-10.7a.863.863,0,0,1,.215-.594.807.807,0,0,1,.637-.242.819.819,0,0,1,.641.242.854.854,0,0,1,.219.594.826.826,0,0,1-.219.586.834.834,0,0,1-.641.234.821.821,0,0,1-.637-.234A.834.834,0,0,1-5.191-10.7ZM1.473-1.961,3.566-8.453H5.043L2.012,0H.91L-2.152-8.453H-.676ZM9.941.156a3.693,3.693,0,0,1-2.8-1.129,4.19,4.19,0,0,1-1.078-3.02v-.266A5.073,5.073,0,0,1,6.547-6.5,3.748,3.748,0,0,1,7.891-8.051a3.378,3.378,0,0,1,1.871-.559,3.166,3.166,0,0,1,2.563,1.086,4.7,4.7,0,0,1,.914,3.109v.6H7.512a3,3,0,0,0,.73,2.02,2.3,2.3,0,0,0,1.777.77,2.517,2.517,0,0,0,1.3-.312,3.259,3.259,0,0,0,.93-.828l.883.688A3.55,3.55,0,0,1,9.941.156Zm-.18-7.578a1.928,1.928,0,0,0-1.469.637A3.1,3.1,0,0,0,7.559-5h4.234v-.109A2.753,2.753,0,0,0,11.2-6.816,1.815,1.815,0,0,0,9.762-7.422ZM16.48,0H15.035V-12H16.48ZM-23.676,11.7a4.952,4.952,0,0,1,.922-3.129A2.915,2.915,0,0,1-20.34,7.391a2.932,2.932,0,0,1,2.352,1.016V4h1.445V16h-1.328l-.07-.906a2.943,2.943,0,0,1-2.414,1.063,2.887,2.887,0,0,1-2.395-1.2,5.008,5.008,0,0,1-.926-3.141Zm1.445.164a3.749,3.749,0,0,0,.594,2.25A1.92,1.92,0,0,0-20,14.93,2.108,2.108,0,0,0-17.988,13.7V9.813a2.125,2.125,0,0,0-1.992-1.2,1.929,1.929,0,0,0-1.656.82A4.128,4.128,0,0,0-22.23,11.867Zm11.438,4.289a3.693,3.693,0,0,1-2.8-1.129,4.19,4.19,0,0,1-1.078-3.02v-.266a5.073,5.073,0,0,1,.48-2.246,3.748,3.748,0,0,1,1.344-1.547,3.378,3.378,0,0,1,1.871-.559A3.166,3.166,0,0,1-8.41,8.477,4.7,4.7,0,0,1-7.5,11.586v.6h-5.727a3,3,0,0,0,.73,2.02,2.3,2.3,0,0,0,1.777.77,2.517,2.517,0,0,0,1.3-.312,3.259,3.259,0,0,0,.93-.828l.883.688A3.55,3.55,0,0,1-10.793,16.156Zm-.18-7.578a1.928,1.928,0,0,0-1.469.637A3.1,3.1,0,0,0-13.176,11h4.234v-.109a2.753,2.753,0,0,0-.594-1.707A1.815,1.815,0,0,0-10.973,8.578ZM-4.254,16H-5.7V4h1.445ZM3.98,5.5V7.547H5.559V8.664H3.98v5.242a1.171,1.171,0,0,0,.211.762.888.888,0,0,0,.719.254,3.5,3.5,0,0,0,.688-.094V16a4.19,4.19,0,0,1-1.109.156,1.8,1.8,0,0,1-1.461-.586,2.517,2.517,0,0,1-.492-1.664V8.664H1V7.547H2.535V5.5ZM8.816,16H7.371V7.547H8.816ZM7.254,5.3a.863.863,0,0,1,.215-.594.807.807,0,0,1,.637-.242.819.819,0,0,1,.641.242.854.854,0,0,1,.219.594.826.826,0,0,1-.219.586.834.834,0,0,1-.641.234.821.821,0,0,1-.637-.234A.834.834,0,0,1,7.254,5.3Zm7.961,3.539a4.331,4.331,0,0,0-.711-.055A1.9,1.9,0,0,0,12.574,10v6H11.129V7.547h1.406l.023.977a2.251,2.251,0,0,1,2.016-1.133,1.477,1.477,0,0,1,.641.109ZM16,11.7a4.993,4.993,0,0,1,.488-2.234A3.643,3.643,0,0,1,17.852,7.93a3.7,3.7,0,0,1,1.988-.539,3.565,3.565,0,0,1,2.793,1.2,4.6,4.6,0,0,1,1.066,3.18v.1a5.036,5.036,0,0,1-.473,2.215,3.589,3.589,0,0,1-1.352,1.527,3.743,3.743,0,0,1-2.02.547,3.556,3.556,0,0,1-2.785-1.2A4.575,4.575,0,0,1,16,11.8Zm1.453.172a3.616,3.616,0,0,0,.652,2.258,2.211,2.211,0,0,0,3.5-.012,3.955,3.955,0,0,0,.648-2.418,3.61,3.61,0,0,0-.66-2.254,2.1,2.1,0,0,0-1.754-.863,2.075,2.075,0,0,0-1.727.852A3.925,3.925,0,0,0,17.457,11.867Z" transform="translate(961.288 6118.421)"/>
    <path id="Trazado_772910" data-name="Trazado 772910" d="M-7.637,0H-9.145l-5.727-8.766V0h-1.508V-11.375h1.508l5.742,8.8v-8.8h1.492Zm4.008,0H-5.074V-8.453h1.445ZM-5.191-10.7a.863.863,0,0,1,.215-.594.807.807,0,0,1,.637-.242.819.819,0,0,1,.641.242.854.854,0,0,1,.219.594.826.826,0,0,1-.219.586.834.834,0,0,1-.641.234.821.821,0,0,1-.637-.234A.834.834,0,0,1-5.191-10.7ZM1.473-1.961,3.566-8.453H5.043L2.012,0H.91L-2.152-8.453H-.676ZM9.941.156a3.693,3.693,0,0,1-2.8-1.129,4.19,4.19,0,0,1-1.078-3.02v-.266A5.073,5.073,0,0,1,6.547-6.5,3.748,3.748,0,0,1,7.891-8.051a3.378,3.378,0,0,1,1.871-.559,3.166,3.166,0,0,1,2.563,1.086,4.7,4.7,0,0,1,.914,3.109v.6H7.512a3,3,0,0,0,.73,2.02,2.3,2.3,0,0,0,1.777.77,2.517,2.517,0,0,0,1.3-.312,3.259,3.259,0,0,0,.93-.828l.883.688A3.55,3.55,0,0,1,9.941.156Zm-.18-7.578a1.928,1.928,0,0,0-1.469.637A3.1,3.1,0,0,0,7.559-5h4.234v-.109A2.753,2.753,0,0,0,11.2-6.816,1.815,1.815,0,0,0,9.762-7.422ZM16.48,0H15.035V-12H16.48ZM-31.961,11.7a4.952,4.952,0,0,1,.922-3.129,2.915,2.915,0,0,1,2.414-1.184,2.932,2.932,0,0,1,2.352,1.016V4h1.445V16h-1.328l-.07-.906a2.943,2.943,0,0,1-2.414,1.063,2.887,2.887,0,0,1-2.395-1.2,5.008,5.008,0,0,1-.926-3.141Zm1.445.164a3.749,3.749,0,0,0,.594,2.25,1.92,1.92,0,0,0,1.641.813A2.108,2.108,0,0,0-26.273,13.7V9.813a2.125,2.125,0,0,0-1.992-1.2,1.929,1.929,0,0,0-1.656.82A4.128,4.128,0,0,0-30.516,11.867Zm11.438,4.289a3.693,3.693,0,0,1-2.8-1.129,4.19,4.19,0,0,1-1.078-3.02v-.266a5.073,5.073,0,0,1,.48-2.246,3.748,3.748,0,0,1,1.344-1.547,3.378,3.378,0,0,1,1.871-.559A3.166,3.166,0,0,1-16.7,8.477a4.7,4.7,0,0,1,.914,3.109v.6h-5.727a3,3,0,0,0,.73,2.02,2.3,2.3,0,0,0,1.777.77,2.517,2.517,0,0,0,1.3-.312,3.259,3.259,0,0,0,.93-.828l.883.688A3.55,3.55,0,0,1-19.078,16.156Zm-.18-7.578a1.928,1.928,0,0,0-1.469.637A3.1,3.1,0,0,0-21.461,11h4.234v-.109a2.753,2.753,0,0,0-.594-1.707A1.815,1.815,0,0,0-19.258,8.578ZM-8.187,5.5V7.547h1.578V8.664H-8.187v5.242a1.171,1.171,0,0,0,.211.762.888.888,0,0,0,.719.254,3.5,3.5,0,0,0,.688-.094V16a4.19,4.19,0,0,1-1.109.156,1.8,1.8,0,0,1-1.461-.586,2.517,2.517,0,0,1-.492-1.664V8.664h-1.539V7.547h1.539V5.5Zm2.727,6.2a4.993,4.993,0,0,1,.488-2.234A3.643,3.643,0,0,1-3.613,7.93a3.7,3.7,0,0,1,1.988-.539,3.565,3.565,0,0,1,2.793,1.2,4.6,4.6,0,0,1,1.066,3.18v.1a5.036,5.036,0,0,1-.473,2.215A3.589,3.589,0,0,1,.41,15.609a3.743,3.743,0,0,1-2.02.547,3.556,3.556,0,0,1-2.785-1.2A4.575,4.575,0,0,1-5.461,11.8Zm1.453.172a3.616,3.616,0,0,0,.652,2.258,2.088,2.088,0,0,0,1.746.852,2.075,2.075,0,0,0,1.75-.863A3.955,3.955,0,0,0,.789,11.7a3.61,3.61,0,0,0-.66-2.254,2.1,2.1,0,0,0-1.754-.863,2.075,2.075,0,0,0-1.727.852A3.925,3.925,0,0,0-4.008,11.867Zm15.211,0a5.026,5.026,0,0,1-.891,3.113,2.846,2.846,0,0,1-2.391,1.176,2.947,2.947,0,0,1-2.477-1.133L5.375,16H4.047V4H5.492V8.477A2.93,2.93,0,0,1,7.906,7.391a2.863,2.863,0,0,1,2.418,1.164,5.177,5.177,0,0,1,.879,3.188ZM9.758,11.7a3.906,3.906,0,0,0-.57-2.281,1.888,1.888,0,0,0-1.641-.8A2.122,2.122,0,0,0,5.492,9.945V13.6a2.181,2.181,0,0,0,2.07,1.328,1.878,1.878,0,0,0,1.617-.8A4.153,4.153,0,0,0,9.758,11.7ZM14.594,16H13.148V7.547h1.445ZM13.031,5.3a.863.863,0,0,1,.215-.594.807.807,0,0,1,.637-.242.819.819,0,0,1,.641.242.854.854,0,0,1,.219.594.826.826,0,0,1-.219.586.834.834,0,0,1-.641.234.821.821,0,0,1-.637-.234A.834.834,0,0,1,13.031,5.3ZM18.477,16H17.031V4h1.445Zm3.883,0H20.914V4h1.445Zm1.93-4.3a4.993,4.993,0,0,1,.488-2.234A3.643,3.643,0,0,1,26.137,7.93a3.7,3.7,0,0,1,1.988-.539,3.565,3.565,0,0,1,2.793,1.2,4.6,4.6,0,0,1,1.066,3.18v.1a5.036,5.036,0,0,1-.473,2.215,3.589,3.589,0,0,1-1.352,1.527,3.743,3.743,0,0,1-2.02.547,3.556,3.556,0,0,1-2.785-1.2A4.575,4.575,0,0,1,24.289,11.8Zm1.453.172a3.616,3.616,0,0,0,.652,2.258,2.211,2.211,0,0,0,3.5-.012,3.955,3.955,0,0,0,.648-2.418,3.61,3.61,0,0,0-.66-2.254,2.1,2.1,0,0,0-1.754-.863A2.075,2.075,0,0,0,26.4,9.43,3.925,3.925,0,0,0,25.742,11.867Z" transform="translate(502 6118.421)"/>
    <path id="Trazado_772911" data-name="Trazado 772911" d="M-7.637,0H-9.145l-5.727-8.766V0h-1.508V-11.375h1.508l5.742,8.8v-8.8h1.492Zm4.008,0H-5.074V-8.453h1.445ZM-5.191-10.7a.863.863,0,0,1,.215-.594.807.807,0,0,1,.637-.242.819.819,0,0,1,.641.242.854.854,0,0,1,.219.594.826.826,0,0,1-.219.586.834.834,0,0,1-.641.234.821.821,0,0,1-.637-.234A.834.834,0,0,1-5.191-10.7ZM1.473-1.961,3.566-8.453H5.043L2.012,0H.91L-2.152-8.453H-.676ZM9.941.156a3.693,3.693,0,0,1-2.8-1.129,4.19,4.19,0,0,1-1.078-3.02v-.266A5.073,5.073,0,0,1,6.547-6.5,3.748,3.748,0,0,1,7.891-8.051a3.378,3.378,0,0,1,1.871-.559,3.166,3.166,0,0,1,2.563,1.086,4.7,4.7,0,0,1,.914,3.109v.6H7.512a3,3,0,0,0,.73,2.02,2.3,2.3,0,0,0,1.777.77,2.517,2.517,0,0,0,1.3-.312,3.259,3.259,0,0,0,.93-.828l.883.688A3.55,3.55,0,0,1,9.941.156Zm-.18-7.578a1.928,1.928,0,0,0-1.469.637A3.1,3.1,0,0,0,7.559-5h4.234v-.109A2.753,2.753,0,0,0,11.2-6.816,1.815,1.815,0,0,0,9.762-7.422ZM16.48,0H15.035V-12H16.48ZM-31.867,11.7a4.952,4.952,0,0,1,.922-3.129,2.915,2.915,0,0,1,2.414-1.184A2.932,2.932,0,0,1-26.18,8.406V4h1.445V16h-1.328l-.07-.906a2.943,2.943,0,0,1-2.414,1.063,2.887,2.887,0,0,1-2.395-1.2,5.008,5.008,0,0,1-.926-3.141Zm1.445.164a3.749,3.749,0,0,0,.594,2.25,1.92,1.92,0,0,0,1.641.813A2.108,2.108,0,0,0-26.18,13.7V9.813a2.125,2.125,0,0,0-1.992-1.2,1.929,1.929,0,0,0-1.656.82A4.128,4.128,0,0,0-30.422,11.867Zm11.438,4.289a3.693,3.693,0,0,1-2.8-1.129,4.19,4.19,0,0,1-1.078-3.02v-.266a5.073,5.073,0,0,1,.48-2.246,3.748,3.748,0,0,1,1.344-1.547,3.378,3.378,0,0,1,1.871-.559A3.166,3.166,0,0,1-16.6,8.477a4.7,4.7,0,0,1,.914,3.109v.6h-5.727a3,3,0,0,0,.73,2.02,2.3,2.3,0,0,0,1.777.77,2.517,2.517,0,0,0,1.3-.312,3.259,3.259,0,0,0,.93-.828l.883.688A3.55,3.55,0,0,1-18.984,16.156Zm-.18-7.578a1.928,1.928,0,0,0-1.469.637A3.1,3.1,0,0,0-21.367,11h4.234v-.109a2.753,2.753,0,0,0-.594-1.707A1.815,1.815,0,0,0-19.164,8.578Zm13.2.266a4.331,4.331,0,0,0-.711-.055A1.9,1.9,0,0,0-8.609,10v6h-1.445V7.547h1.406l.023.977A2.251,2.251,0,0,1-6.609,7.391a1.477,1.477,0,0,1,.641.109ZM-5.18,11.7a4.993,4.993,0,0,1,.488-2.234A3.643,3.643,0,0,1-3.332,7.93a3.7,3.7,0,0,1,1.988-.539,3.565,3.565,0,0,1,2.793,1.2,4.6,4.6,0,0,1,1.066,3.18v.1a5.036,5.036,0,0,1-.473,2.215A3.589,3.589,0,0,1,.691,15.609a3.743,3.743,0,0,1-2.02.547,3.556,3.556,0,0,1-2.785-1.2A4.575,4.575,0,0,1-5.18,11.8Zm1.453.172a3.616,3.616,0,0,0,.652,2.258,2.088,2.088,0,0,0,1.746.852,2.075,2.075,0,0,0,1.75-.863A3.955,3.955,0,0,0,1.07,11.7,3.61,3.61,0,0,0,.41,9.441a2.1,2.1,0,0,0-1.754-.863A2.075,2.075,0,0,0-3.07,9.43,3.925,3.925,0,0,0-3.727,11.867Zm7.7-.164A4.952,4.952,0,0,1,4.9,8.574,2.915,2.915,0,0,1,7.313,7.391,2.932,2.932,0,0,1,9.664,8.406V4h1.445V16H9.781l-.07-.906A2.943,2.943,0,0,1,7.3,16.156a2.887,2.887,0,0,1-2.395-1.2,5.008,5.008,0,0,1-.926-3.141Zm1.445.164a3.749,3.749,0,0,0,.594,2.25,1.92,1.92,0,0,0,1.641.813A2.108,2.108,0,0,0,9.664,13.7V9.813a2.125,2.125,0,0,0-1.992-1.2,1.929,1.929,0,0,0-1.656.82A4.128,4.128,0,0,0,5.422,11.867ZM14.922,16H13.477V7.547h1.445ZM13.359,5.3a.863.863,0,0,1,.215-.594.807.807,0,0,1,.637-.242.819.819,0,0,1,.641.242.854.854,0,0,1,.219.594.826.826,0,0,1-.219.586.834.834,0,0,1-.641.234.821.821,0,0,1-.637-.234A.834.834,0,0,1,13.359,5.3ZM18.8,16H17.359V4H18.8Zm3.883,0H21.242V4h1.445Zm7.531,0a3.036,3.036,0,0,1-.2-.891,3.225,3.225,0,0,1-2.406,1.047,2.984,2.984,0,0,1-2.051-.707,2.287,2.287,0,0,1-.8-1.793,2.39,2.39,0,0,1,1-2.051,4.733,4.733,0,0,1,2.824-.73h1.406v-.664A1.623,1.623,0,0,0,29.539,9,1.821,1.821,0,0,0,28.2,8.555a2.107,2.107,0,0,0-1.3.391,1.151,1.151,0,0,0-.523.945H24.93a2,2,0,0,1,.449-1.223A3.066,3.066,0,0,1,26.6,7.734a4.1,4.1,0,0,1,1.691-.344,3.342,3.342,0,0,1,2.289.73,2.635,2.635,0,0,1,.859,2.012v3.891a4.757,4.757,0,0,0,.3,1.852V16Zm-2.4-1.1a2.54,2.54,0,0,0,1.289-.352,2.127,2.127,0,0,0,.883-.914V11.9H28.859q-2.656,0-2.656,1.555a1.316,1.316,0,0,0,.453,1.063A1.742,1.742,0,0,0,27.82,14.9Z" transform="translate(744.239 6118.421)"/>
    <path id="Trazado_772912" data-name="Trazado 772912" d="M-9.008-3.609A4.185,4.185,0,0,1-10.34-.824a4.365,4.365,0,0,1-2.98.98,4.008,4.008,0,0,1-3.23-1.445,5.815,5.815,0,0,1-1.215-3.867V-6.25A6.481,6.481,0,0,1-17.2-9.039a4.231,4.231,0,0,1,1.605-1.848,4.47,4.47,0,0,1,2.406-.645,4.11,4.11,0,0,1,2.906,1.012,4.235,4.235,0,0,1,1.273,2.8h-1.508a3.254,3.254,0,0,0-.848-1.969,2.569,2.569,0,0,0-1.824-.609,2.685,2.685,0,0,0-2.254,1.063,4.875,4.875,0,0,0-.816,3.023v1.1a5.011,5.011,0,0,0,.773,2.945A2.5,2.5,0,0,0-13.32-1.07,2.887,2.887,0,0,0-11.4-1.637a3.143,3.143,0,0,0,.887-1.973ZM-1.969,0a3.036,3.036,0,0,1-.2-.891A3.225,3.225,0,0,1-4.578.156,2.984,2.984,0,0,1-6.629-.551a2.287,2.287,0,0,1-.8-1.793,2.39,2.39,0,0,1,1-2.051A4.733,4.733,0,0,1-3.6-5.125H-2.2v-.664A1.623,1.623,0,0,0-2.648-7a1.821,1.821,0,0,0-1.336-.449,2.107,2.107,0,0,0-1.3.391,1.151,1.151,0,0,0-.523.945H-7.258a2,2,0,0,1,.449-1.223A3.066,3.066,0,0,1-5.59-8.266,4.1,4.1,0,0,1-3.9-8.609a3.342,3.342,0,0,1,2.289.73A2.635,2.635,0,0,1-.75-5.867v3.891a4.757,4.757,0,0,0,.3,1.852V0Zm-2.4-1.1a2.54,2.54,0,0,0,1.289-.352A2.127,2.127,0,0,0-2.2-2.367V-4.1H-3.328q-2.656,0-2.656,1.555a1.316,1.316,0,0,0,.453,1.063A1.742,1.742,0,0,0-4.367-1.1ZM8.656-4.133a5.062,5.062,0,0,1-.883,3.109A2.829,2.829,0,0,1,5.383.156,3.1,3.1,0,0,1,2.961-.82V3.25H1.516v-11.7h1.32l.07.938A2.977,2.977,0,0,1,5.359-8.609,2.882,2.882,0,0,1,7.77-7.461a5.117,5.117,0,0,1,.887,3.2ZM7.211-4.3A3.735,3.735,0,0,0,6.6-6.555,1.963,1.963,0,0,0,4.93-7.383,2.125,2.125,0,0,0,2.961-6.219V-2.18A2.129,2.129,0,0,0,4.945-1.023,1.954,1.954,0,0,0,6.6-1.848,4.077,4.077,0,0,0,7.211-4.3Zm7.367-2.859a4.331,4.331,0,0,0-.711-.055A1.9,1.9,0,0,0,11.938-6V0H10.492V-8.453H11.9l.023.977a2.251,2.251,0,0,1,2.016-1.133,1.477,1.477,0,0,1,.641.109ZM17.477,0H16.031V-8.453h1.445ZM15.914-10.7a.863.863,0,0,1,.215-.594.807.807,0,0,1,.637-.242.819.819,0,0,1,.641.242.854.854,0,0,1,.219.594.826.826,0,0,1-.219.586.834.834,0,0,1-.641.234.821.821,0,0,1-.637-.234A.834.834,0,0,1,15.914-10.7Z" transform="translate(521 5811)"/>
    <path id="Trazado_772913" data-name="Trazado 772913" d="M-22.848-10.141H-26.5V0H-28V-10.141h-3.648v-1.234h8.8Zm.3,5.836a4.993,4.993,0,0,1,.488-2.234A3.643,3.643,0,0,1-20.7-8.07a3.7,3.7,0,0,1,1.988-.539,3.565,3.565,0,0,1,2.793,1.2,4.6,4.6,0,0,1,1.066,3.18v.1a5.036,5.036,0,0,1-.473,2.215A3.589,3.589,0,0,1-16.672-.391a3.743,3.743,0,0,1-2.02.547,3.556,3.556,0,0,1-2.785-1.2A4.575,4.575,0,0,1-22.543-4.2Zm1.453.172a3.616,3.616,0,0,0,.652,2.258,2.088,2.088,0,0,0,1.746.852,2.075,2.075,0,0,0,1.75-.863A3.955,3.955,0,0,0-16.293-4.3a3.61,3.61,0,0,0-.66-2.254,2.1,2.1,0,0,0-1.754-.863,2.075,2.075,0,0,0-1.727.852A3.925,3.925,0,0,0-21.09-4.133ZM-8.949-7.156a4.331,4.331,0,0,0-.711-.055A1.9,1.9,0,0,0-11.59-6V0h-1.445V-8.453h1.406l.023.977A2.251,2.251,0,0,1-9.59-8.609a1.477,1.477,0,0,1,.641.109ZM-4.113.156A3.693,3.693,0,0,1-6.91-.973a4.19,4.19,0,0,1-1.078-3.02v-.266A5.073,5.073,0,0,1-7.508-6.5,3.748,3.748,0,0,1-6.164-8.051a3.378,3.378,0,0,1,1.871-.559A3.166,3.166,0,0,1-1.73-7.523,4.7,4.7,0,0,1-.816-4.414v.6H-6.543a3,3,0,0,0,.73,2.02,2.3,2.3,0,0,0,1.777.77,2.517,2.517,0,0,0,1.3-.312,3.259,3.259,0,0,0,.93-.828l.883.688A3.55,3.55,0,0,1-4.113.156Zm-.18-7.578a1.928,1.928,0,0,0-1.469.637A3.1,3.1,0,0,0-6.5-5h4.234v-.109a2.753,2.753,0,0,0-.594-1.707A1.815,1.815,0,0,0-4.293-7.422ZM6.074,0a3.036,3.036,0,0,1-.2-.891A3.225,3.225,0,0,1,3.465.156,2.984,2.984,0,0,1,1.414-.551a2.287,2.287,0,0,1-.8-1.793,2.39,2.39,0,0,1,1-2.051,4.733,4.733,0,0,1,2.824-.73H5.848v-.664A1.623,1.623,0,0,0,5.395-7a1.821,1.821,0,0,0-1.336-.449,2.107,2.107,0,0,0-1.3.391,1.151,1.151,0,0,0-.523.945H.785a2,2,0,0,1,.449-1.223,3.066,3.066,0,0,1,1.219-.934,4.1,4.1,0,0,1,1.691-.344,3.342,3.342,0,0,1,2.289.73,2.635,2.635,0,0,1,.859,2.012v3.891a4.757,4.757,0,0,0,.3,1.852V0Zm-2.4-1.1a2.54,2.54,0,0,0,1.289-.352,2.127,2.127,0,0,0,.883-.914V-4.1H4.715q-2.656,0-2.656,1.555a1.316,1.316,0,0,0,.453,1.063A1.742,1.742,0,0,0,3.676-1.1ZM9.207-4.3a4.952,4.952,0,0,1,.922-3.129,2.915,2.915,0,0,1,2.414-1.184,2.932,2.932,0,0,1,2.352,1.016V-12H16.34V0H15.012l-.07-.906A2.943,2.943,0,0,1,12.527.156a2.887,2.887,0,0,1-2.395-1.2,5.008,5.008,0,0,1-.926-3.141Zm1.445.164a3.749,3.749,0,0,0,.594,2.25,1.92,1.92,0,0,0,1.641.813A2.108,2.108,0,0,0,14.895-2.3V-6.187a2.125,2.125,0,0,0-1.992-1.2,1.929,1.929,0,0,0-1.656.82A4.128,4.128,0,0,0,10.652-4.133ZM18.2-4.3a4.993,4.993,0,0,1,.488-2.234A3.643,3.643,0,0,1,20.047-8.07a3.7,3.7,0,0,1,1.988-.539,3.565,3.565,0,0,1,2.793,1.2,4.6,4.6,0,0,1,1.066,3.18v.1a5.036,5.036,0,0,1-.473,2.215A3.589,3.589,0,0,1,24.07-.391a3.743,3.743,0,0,1-2.02.547,3.556,3.556,0,0,1-2.785-1.2A4.575,4.575,0,0,1,18.2-4.2Zm1.453.172A3.616,3.616,0,0,0,20.3-1.875a2.088,2.088,0,0,0,1.746.852,2.075,2.075,0,0,0,1.75-.863A3.955,3.955,0,0,0,24.449-4.3a3.61,3.61,0,0,0-.66-2.254,2.1,2.1,0,0,0-1.754-.863,2.075,2.075,0,0,0-1.727.852A3.925,3.925,0,0,0,19.652-4.133ZM31.793-7.156a4.331,4.331,0,0,0-.711-.055A1.9,1.9,0,0,0,29.152-6V0H27.707V-8.453h1.406l.023.977a2.251,2.251,0,0,1,2.016-1.133,1.477,1.477,0,0,1,.641.109Z" transform="translate(622.033 5810.919)"/>
    <path id="Trazado_772914" data-name="Trazado 772914" d="M-28.7-4.453V0h-1.5V-11.375H-26a4.215,4.215,0,0,1,2.926.953A3.231,3.231,0,0,1-22.02-7.9a3.189,3.189,0,0,1-1.035,2.551,4.4,4.4,0,0,1-2.965.895Zm0-1.227H-26a2.7,2.7,0,0,0,1.844-.566,2.069,2.069,0,0,0,.641-1.637,2.138,2.138,0,0,0-.641-1.625,2.528,2.528,0,0,0-1.758-.633H-28.7ZM-16.824.156a3.693,3.693,0,0,1-2.8-1.129A4.19,4.19,0,0,1-20.7-3.992v-.266a5.073,5.073,0,0,1,.48-2.246,3.748,3.748,0,0,1,1.344-1.547A3.378,3.378,0,0,1-17-8.609a3.166,3.166,0,0,1,2.563,1.086,4.7,4.7,0,0,1,.914,3.109v.6h-5.727a3,3,0,0,0,.73,2.02,2.3,2.3,0,0,0,1.777.77,2.517,2.517,0,0,0,1.3-.312,3.259,3.259,0,0,0,.93-.828l.883.688A3.55,3.55,0,0,1-16.824.156ZM-17-7.422a1.928,1.928,0,0,0-1.469.637A3.1,3.1,0,0,0-19.207-5h4.234v-.109a2.753,2.753,0,0,0-.594-1.707A1.815,1.815,0,0,0-17-7.422Zm4.8,3.125a4.952,4.952,0,0,1,.922-3.129A2.915,2.915,0,0,1-8.871-8.609,2.932,2.932,0,0,1-6.52-7.594V-12h1.445V0H-6.4l-.07-.906A2.943,2.943,0,0,1-8.887.156a2.887,2.887,0,0,1-2.395-1.2,5.008,5.008,0,0,1-.926-3.141Zm1.445.164a3.749,3.749,0,0,0,.594,2.25,1.92,1.92,0,0,0,1.641.813A2.108,2.108,0,0,0-6.52-2.3V-6.187a2.125,2.125,0,0,0-1.992-1.2,1.929,1.929,0,0,0-1.656.82A4.128,4.128,0,0,0-10.762-4.133ZM2.387,0a3.036,3.036,0,0,1-.2-.891A3.225,3.225,0,0,1-.223.156,2.984,2.984,0,0,1-2.273-.551a2.287,2.287,0,0,1-.8-1.793,2.39,2.39,0,0,1,1-2.051,4.733,4.733,0,0,1,2.824-.73H2.16v-.664A1.623,1.623,0,0,0,1.707-7,1.821,1.821,0,0,0,.371-7.445a2.107,2.107,0,0,0-1.3.391,1.151,1.151,0,0,0-.523.945H-2.9a2,2,0,0,1,.449-1.223,3.066,3.066,0,0,1,1.219-.934A4.1,4.1,0,0,1,.457-8.609a3.342,3.342,0,0,1,2.289.73,2.635,2.635,0,0,1,.859,2.012v3.891A4.757,4.757,0,0,0,3.9-.125V0Zm-2.4-1.1a2.54,2.54,0,0,0,1.289-.352,2.127,2.127,0,0,0,.883-.914V-4.1H1.027q-2.656,0-2.656,1.555a1.316,1.316,0,0,0,.453,1.063A1.742,1.742,0,0,0-.012-1.1ZM7.441,0H6V-12H7.441Zm5.82.156a3.693,3.693,0,0,1-2.8-1.129,4.19,4.19,0,0,1-1.078-3.02v-.266A5.073,5.073,0,0,1,9.867-6.5a3.748,3.748,0,0,1,1.344-1.547,3.378,3.378,0,0,1,1.871-.559,3.166,3.166,0,0,1,2.563,1.086,4.7,4.7,0,0,1,.914,3.109v.6H10.832a3,3,0,0,0,.73,2.02,2.3,2.3,0,0,0,1.777.77,2.517,2.517,0,0,0,1.3-.312,3.259,3.259,0,0,0,.93-.828l.883.688A3.55,3.55,0,0,1,13.262.156Zm-.18-7.578a1.928,1.928,0,0,0-1.469.637A3.1,3.1,0,0,0,10.879-5h4.234v-.109a2.753,2.753,0,0,0-.594-1.707A1.815,1.815,0,0,0,13.082-7.422Zm9.234.266a4.331,4.331,0,0,0-.711-.055A1.9,1.9,0,0,0,19.676-6V0H18.23V-8.453h1.406l.023.977a2.251,2.251,0,0,1,2.016-1.133,1.477,1.477,0,0,1,.641.109ZM23.105-4.3a4.993,4.993,0,0,1,.488-2.234A3.643,3.643,0,0,1,24.953-8.07a3.7,3.7,0,0,1,1.988-.539,3.565,3.565,0,0,1,2.793,1.2A4.6,4.6,0,0,1,30.8-4.234v.1a5.036,5.036,0,0,1-.473,2.215A3.589,3.589,0,0,1,28.977-.391a3.743,3.743,0,0,1-2.02.547,3.556,3.556,0,0,1-2.785-1.2A4.575,4.575,0,0,1,23.105-4.2Zm1.453.172a3.616,3.616,0,0,0,.652,2.258,2.088,2.088,0,0,0,1.746.852,2.075,2.075,0,0,0,1.75-.863A3.955,3.955,0,0,0,29.355-4.3a3.61,3.61,0,0,0-.66-2.254,2.1,2.1,0,0,0-1.754-.863,2.075,2.075,0,0,0-1.727.852A3.925,3.925,0,0,0,24.559-4.133Z" transform="translate(715.08 5810.919)"/>
    <path id="Trazado_772915" data-name="Trazado 772915" d="M-30.891,0V-11.375h3.719a4.317,4.317,0,0,1,2.785.766,2.759,2.759,0,0,1,.934,2.266,2.31,2.31,0,0,1-.453,1.41,2.938,2.938,0,0,1-1.234.949A2.638,2.638,0,0,1-23.684-5a2.814,2.814,0,0,1,.535,1.723,3.042,3.042,0,0,1-.992,2.406,4.1,4.1,0,0,1-2.8.875Zm1.5-5.32v4.094h2.477a2.385,2.385,0,0,0,1.652-.543,1.907,1.907,0,0,0,.605-1.5q0-2.055-2.234-2.055Zm0-1.2h2.266a2.378,2.378,0,0,0,1.574-.492,1.649,1.649,0,0,0,.59-1.336,1.621,1.621,0,0,0-.547-1.363,2.69,2.69,0,0,0-1.664-.426h-2.219ZM-17.648.156a3.693,3.693,0,0,1-2.8-1.129,4.19,4.19,0,0,1-1.078-3.02v-.266a5.073,5.073,0,0,1,.48-2.246A3.748,3.748,0,0,1-19.7-8.051a3.378,3.378,0,0,1,1.871-.559,3.166,3.166,0,0,1,2.563,1.086,4.7,4.7,0,0,1,.914,3.109v.6h-5.727a3,3,0,0,0,.73,2.02,2.3,2.3,0,0,0,1.777.77,2.517,2.517,0,0,0,1.3-.312,3.259,3.259,0,0,0,.93-.828l.883.688A3.55,3.55,0,0,1-17.648.156Zm-.18-7.578a1.928,1.928,0,0,0-1.469.637A3.1,3.1,0,0,0-20.031-5H-15.8v-.109a2.753,2.753,0,0,0-.594-1.707A1.815,1.815,0,0,0-17.828-7.422Zm9.234.266A4.331,4.331,0,0,0-9.3-7.211,1.9,1.9,0,0,0-11.234-6V0H-12.68V-8.453h1.406l.023.977A2.251,2.251,0,0,1-9.234-8.609a1.477,1.477,0,0,1,.641.109Zm2.688-1.3.039.938A3.122,3.122,0,0,1-3.359-8.609,2.417,2.417,0,0,1-.945-7.25a3.2,3.2,0,0,1,1.1-.984,3.242,3.242,0,0,1,1.6-.375q2.781,0,2.828,2.945V0H3.133V-5.578a1.941,1.941,0,0,0-.414-1.355,1.823,1.823,0,0,0-1.391-.449A1.916,1.916,0,0,0-.008-6.9,1.949,1.949,0,0,0-.625-5.609V0H-2.078V-5.539a1.613,1.613,0,0,0-1.8-1.844A1.934,1.934,0,0,0-5.828-6.172V0H-7.273V-8.453ZM11.977-.836A3.07,3.07,0,0,1,9.5.156,2.628,2.628,0,0,1,7.441-.629a3.4,3.4,0,0,1-.715-2.324v-5.5H8.172v5.461q0,1.922,1.563,1.922a2.163,2.163,0,0,0,2.2-1.234V-8.453h1.445V0H12.008ZM15.227-4.3a4.952,4.952,0,0,1,.922-3.129,2.915,2.915,0,0,1,2.414-1.184,2.932,2.932,0,0,1,2.352,1.016V-12h1.445V0H21.031l-.07-.906A2.943,2.943,0,0,1,18.547.156a2.887,2.887,0,0,1-2.395-1.2,5.008,5.008,0,0,1-.926-3.141Zm1.445.164a3.749,3.749,0,0,0,.594,2.25,1.92,1.92,0,0,0,1.641.813A2.108,2.108,0,0,0,20.914-2.3V-6.187a2.125,2.125,0,0,0-1.992-1.2,1.929,1.929,0,0,0-1.656.82A4.128,4.128,0,0,0,16.672-4.133ZM29.82,0a3.036,3.036,0,0,1-.2-.891A3.225,3.225,0,0,1,27.211.156,2.984,2.984,0,0,1,25.16-.551a2.287,2.287,0,0,1-.8-1.793,2.39,2.39,0,0,1,1-2.051,4.733,4.733,0,0,1,2.824-.73h1.406v-.664A1.623,1.623,0,0,0,29.141-7,1.821,1.821,0,0,0,27.8-7.445a2.108,2.108,0,0,0-1.3.391,1.151,1.151,0,0,0-.523.945H24.531a2,2,0,0,1,.449-1.223A3.066,3.066,0,0,1,26.2-8.266a4.1,4.1,0,0,1,1.691-.344,3.342,3.342,0,0,1,2.289.73,2.635,2.635,0,0,1,.859,2.012v3.891a4.757,4.757,0,0,0,.3,1.852V0Zm-2.4-1.1a2.54,2.54,0,0,0,1.289-.352,2.127,2.127,0,0,0,.883-.914V-4.1H28.461Q25.8-4.1,25.8-2.547a1.316,1.316,0,0,0,.453,1.063A1.742,1.742,0,0,0,27.422-1.1Z" transform="translate(795.38 5810.919)"/>
    <path id="Trazado_772916" data-name="Trazado 772916" d="M-24.523-11.375h1.508V-3.32A3.336,3.336,0,0,1-24-.766a3.66,3.66,0,0,1-2.613.922A3.762,3.762,0,0,1-29.25-.711a3.132,3.132,0,0,1-.945-2.43h1.5a2.086,2.086,0,0,0,.535,1.523,2.073,2.073,0,0,0,1.551.547,2.012,2.012,0,0,0,1.5-.586A2.27,2.27,0,0,0-24.523-3.3ZM-15.469,0a3.036,3.036,0,0,1-.2-.891A3.225,3.225,0,0,1-18.078.156a2.984,2.984,0,0,1-2.051-.707,2.287,2.287,0,0,1-.8-1.793,2.39,2.39,0,0,1,1-2.051,4.733,4.733,0,0,1,2.824-.73H-15.7v-.664A1.623,1.623,0,0,0-16.148-7a1.821,1.821,0,0,0-1.336-.449,2.108,2.108,0,0,0-1.3.391,1.151,1.151,0,0,0-.523.945h-1.453a2,2,0,0,1,.449-1.223,3.066,3.066,0,0,1,1.219-.934A4.1,4.1,0,0,1-17.4-8.609a3.342,3.342,0,0,1,2.289.73,2.635,2.635,0,0,1,.859,2.012v3.891a4.757,4.757,0,0,0,.3,1.852V0Zm-2.4-1.1a2.54,2.54,0,0,0,1.289-.352,2.127,2.127,0,0,0,.883-.914V-4.1h-1.133q-2.656,0-2.656,1.555a1.316,1.316,0,0,0,.453,1.063A1.742,1.742,0,0,0-17.867-1.1Zm7.242-7.352.039.938A3.122,3.122,0,0,1-8.078-8.609,2.417,2.417,0,0,1-5.664-7.25a3.2,3.2,0,0,1,1.1-.984,3.242,3.242,0,0,1,1.6-.375q2.781,0,2.828,2.945V0H-1.586V-5.578A1.941,1.941,0,0,0-2-6.934a1.823,1.823,0,0,0-1.391-.449,1.916,1.916,0,0,0-1.336.48,1.949,1.949,0,0,0-.617,1.293V0H-6.8V-5.539A1.613,1.613,0,0,0-8.6-7.383a1.934,1.934,0,0,0-1.945,1.211V0h-1.445V-8.453ZM7.258,0a3.036,3.036,0,0,1-.2-.891A3.225,3.225,0,0,1,4.648.156,2.984,2.984,0,0,1,2.6-.551a2.287,2.287,0,0,1-.8-1.793,2.39,2.39,0,0,1,1-2.051,4.733,4.733,0,0,1,2.824-.73H7.031v-.664A1.623,1.623,0,0,0,6.578-7a1.821,1.821,0,0,0-1.336-.449,2.107,2.107,0,0,0-1.3.391,1.151,1.151,0,0,0-.523.945H1.969a2,2,0,0,1,.449-1.223,3.066,3.066,0,0,1,1.219-.934,4.1,4.1,0,0,1,1.691-.344,3.342,3.342,0,0,1,2.289.73,2.635,2.635,0,0,1,.859,2.012v3.891a4.757,4.757,0,0,0,.3,1.852V0Zm-2.4-1.1a2.54,2.54,0,0,0,1.289-.352,2.127,2.127,0,0,0,.883-.914V-4.1H5.9q-2.656,0-2.656,1.555A1.316,1.316,0,0,0,3.7-1.484,1.742,1.742,0,0,0,4.859-1.1ZM12.313,0H10.867V-8.453h1.445ZM10.75-10.7a.863.863,0,0,1,.215-.594.807.807,0,0,1,.637-.242.819.819,0,0,1,.641.242.854.854,0,0,1,.219.594.826.826,0,0,1-.219.586.834.834,0,0,1-.641.234.821.821,0,0,1-.637-.234A.834.834,0,0,1,10.75-10.7Zm7.266,9.672a2.082,2.082,0,0,0,1.352-.469,1.649,1.649,0,0,0,.641-1.172h1.367a2.621,2.621,0,0,1-.5,1.383,3.293,3.293,0,0,1-1.23,1.047,3.55,3.55,0,0,1-1.629.391A3.482,3.482,0,0,1,15.27-1a4.59,4.59,0,0,1-1.02-3.152v-.242a5.089,5.089,0,0,1,.453-2.2A3.451,3.451,0,0,1,16-8.078a3.7,3.7,0,0,1,2-.531,3.39,3.39,0,0,1,2.363.852,3.043,3.043,0,0,1,1,2.211H20.008a1.992,1.992,0,0,0-.621-1.348,1.932,1.932,0,0,0-1.379-.527,2.023,2.023,0,0,0-1.707.793A3.724,3.724,0,0,0,15.7-4.336v.273a3.65,3.65,0,0,0,.6,2.25A2.033,2.033,0,0,0,18.016-1.023ZM28.219,0a3.036,3.036,0,0,1-.2-.891A3.225,3.225,0,0,1,25.609.156a2.984,2.984,0,0,1-2.051-.707,2.287,2.287,0,0,1-.8-1.793,2.39,2.39,0,0,1,1-2.051,4.733,4.733,0,0,1,2.824-.73h1.406v-.664A1.623,1.623,0,0,0,27.539-7,1.821,1.821,0,0,0,26.2-7.445a2.108,2.108,0,0,0-1.3.391,1.151,1.151,0,0,0-.523.945H22.93a2,2,0,0,1,.449-1.223A3.066,3.066,0,0,1,24.6-8.266a4.1,4.1,0,0,1,1.691-.344,3.342,3.342,0,0,1,2.289.73,2.635,2.635,0,0,1,.859,2.012v3.891a4.757,4.757,0,0,0,.3,1.852V0Zm-2.4-1.1a2.54,2.54,0,0,0,1.289-.352,2.127,2.127,0,0,0,.883-.914V-4.1H26.859Q24.2-4.1,24.2-2.547a1.316,1.316,0,0,0,.453,1.063A1.742,1.742,0,0,0,25.82-1.1Z" transform="translate(871.729 5810.919)"/>
    <path id="Trazado_772917" data-name="Trazado 772917" d="M-16.043-2.93q.172-1.25-1.3-1.828l-1.352-.492-.453-.2q-2.281-1.039-2.133-2.922a3.056,3.056,0,0,1,.648-1.672,3.69,3.69,0,0,1,1.512-1.121,4.849,4.849,0,0,1,2-.371,4,4,0,0,1,1.84.461,2.962,2.962,0,0,1,1.23,1.223,3.333,3.333,0,0,1,.375,1.77l-1.477-.008a2.025,2.025,0,0,0-.469-1.621,2.1,2.1,0,0,0-1.562-.59,2.914,2.914,0,0,0-1.789.5,1.951,1.951,0,0,0-.828,1.406q-.156,1.164,1.43,1.766l1.164.414.586.25a2.941,2.941,0,0,1,2.039,3.016,3.012,3.012,0,0,1-.648,1.66A3.626,3.626,0,0,1-16.75-.2a5.266,5.266,0,0,1-2.074.359A4.34,4.34,0,0,1-20.781-.3a3.193,3.193,0,0,1-1.348-1.23A3.078,3.078,0,0,1-22.535-3.3l1.469.008a1.935,1.935,0,0,0,.551,1.613,2.479,2.479,0,0,0,1.754.613,3.131,3.131,0,0,0,1.867-.492A1.916,1.916,0,0,0-16.043-2.93Zm5.32-4.492A3.275,3.275,0,0,1-8.168-8.6a2.058,2.058,0,0,1,1.762.816A3.217,3.217,0,0,1-5.98-5.539L-6.9,0H-8.316l.93-5.562a2.968,2.968,0,0,0,.008-.711A1.168,1.168,0,0,0-8.668-7.391,2.6,2.6,0,0,0-10.9-6.031L-11.949,0h-1.414l2.086-12h1.414ZM-.043-8.609a3.047,3.047,0,0,1,1.82.578A3.285,3.285,0,0,1,2.9-6.48a4.8,4.8,0,0,1,.246,2.16l-.016.172a5.685,5.685,0,0,1-.734,2.23A4.309,4.309,0,0,1,.879-.367,3.7,3.7,0,0,1-1.16.156,3.052,3.052,0,0,1-2.977-.422,3.21,3.21,0,0,1-4.09-1.953a4.931,4.931,0,0,1-.25-2.133,5.76,5.76,0,0,1,.711-2.359A4.409,4.409,0,0,1-2.1-8.066,3.652,3.652,0,0,1-.043-8.609ZM-2.918-4.078a4.8,4.8,0,0,0,0,1.023,2.507,2.507,0,0,0,.551,1.469,1.653,1.653,0,0,0,1.262.57,2.253,2.253,0,0,0,1.3-.348,2.919,2.919,0,0,0,1-1.121,4.721,4.721,0,0,0,.523-1.664,7.494,7.494,0,0,0,.023-1.211,2.6,2.6,0,0,0-.57-1.492A1.69,1.69,0,0,0-.1-7.43a2.3,2.3,0,0,0-1.859.859A4.245,4.245,0,0,0-2.9-4.258ZM9.449-7.164l-.664-.07A2.42,2.42,0,0,0,6.645-6.008L5.605,0H4.191L5.66-8.453l1.367-.008-.211.984A2.527,2.527,0,0,1,8.934-8.625a2.594,2.594,0,0,1,.672.117Zm4.2-3.336-.359,2.047h1.539l-.2,1.117H13.1l-.883,5.258a1.833,1.833,0,0,0-.008.375.6.6,0,0,0,.664.609,4.05,4.05,0,0,0,.688-.078L13.449.008a3.847,3.847,0,0,1-1.031.141,1.476,1.476,0,0,1-1.266-.621A2.4,2.4,0,0,1,10.824-2.1l.859-5.234H10.191l.2-1.117h1.492l.359-2.047Zm6.648,8.211q.117-.875-.961-1.234l-1.469-.43Q16-4.594,16.066-6.078a2.341,2.341,0,0,1,1.02-1.832,3.631,3.631,0,0,1,2.27-.7,3.027,3.027,0,0,1,2.082.746,2.363,2.363,0,0,1,.77,1.9L20.8-5.969A1.319,1.319,0,0,0,20.4-7a1.576,1.576,0,0,0-1.1-.414,2.059,2.059,0,0,0-1.266.359,1.316,1.316,0,0,0-.57.922q-.1.734.9,1.07l.711.2a4.577,4.577,0,0,1,2.063.977A1.865,1.865,0,0,1,21.7-2.4a2.37,2.37,0,0,1-.516,1.375,2.948,2.948,0,0,1-1.25.895A4.18,4.18,0,0,1,18.27.156a3.3,3.3,0,0,1-2.219-.785,2.427,2.427,0,0,1-.844-1.98l1.414.008a1.5,1.5,0,0,0,.453,1.141,1.732,1.732,0,0,0,1.242.43,2.436,2.436,0,0,0,1.336-.324A1.247,1.247,0,0,0,20.293-2.289Z" transform="translate(939.245 5810.919)"/>
    <path id="Trazado_772918" data-name="Trazado 772918" d="M-20.121,0H-21.59l.914-5.258H-26.23L-27.145,0h-1.469l1.977-11.375h1.469l-.852,4.891h5.547l.852-4.891h1.477ZM-13-8.609a3.047,3.047,0,0,1,1.82.578A3.285,3.285,0,0,1-10.055-6.48a4.8,4.8,0,0,1,.246,2.16l-.016.172a5.685,5.685,0,0,1-.734,2.23A4.309,4.309,0,0,1-12.074-.367a3.7,3.7,0,0,1-2.039.523A3.052,3.052,0,0,1-15.93-.422a3.21,3.21,0,0,1-1.113-1.531,4.931,4.931,0,0,1-.25-2.133,5.76,5.76,0,0,1,.711-2.359,4.409,4.409,0,0,1,1.527-1.621A3.652,3.652,0,0,1-13-8.609Zm-2.875,4.531a4.8,4.8,0,0,0,0,1.023,2.507,2.507,0,0,0,.551,1.469,1.653,1.653,0,0,0,1.262.57,2.253,2.253,0,0,0,1.3-.348,2.919,2.919,0,0,0,1-1.121,4.721,4.721,0,0,0,.523-1.664,7.494,7.494,0,0,0,.023-1.211,2.6,2.6,0,0,0-.57-1.492,1.69,1.69,0,0,0-1.266-.578,2.3,2.3,0,0,0-1.859.859,4.245,4.245,0,0,0-.945,2.313ZM-5.027-10.5l-.359,2.047h1.539l-.2,1.117H-5.574l-.883,5.258a1.833,1.833,0,0,0-.008.375.6.6,0,0,0,.664.609,4.05,4.05,0,0,0,.688-.078L-5.223.008A3.847,3.847,0,0,1-6.254.148,1.476,1.476,0,0,1-7.52-.473,2.4,2.4,0,0,1-7.848-2.1l.859-5.234H-8.48l.2-1.117h1.492l.359-2.047ZM1.84,0H.434L2.512-12H3.926ZM7.809.156A3.048,3.048,0,0,1,5.34-1.008a4.006,4.006,0,0,1-.75-2.9l.039-.336a5.624,5.624,0,0,1,.746-2.3,4.339,4.339,0,0,1,1.5-1.566,3.491,3.491,0,0,1,1.906-.5,2.688,2.688,0,0,1,2.047.867,3.566,3.566,0,0,1,.813,2.266,6.621,6.621,0,0,1-.031,1.016l-.086.648H6a2.856,2.856,0,0,0,.379,1.953,1.8,1.8,0,0,0,1.551.836,3.007,3.007,0,0,0,2.313-1.125l.813.688A3.718,3.718,0,0,1,9.68-.262,3.886,3.886,0,0,1,7.809.156Zm.9-7.586a2.066,2.066,0,0,0-1.527.594A4.22,4.22,0,0,0,6.145-5l4.109.008.031-.125a2.313,2.313,0,0,0-.316-1.637A1.488,1.488,0,0,0,8.707-7.43Zm4.156,3.188a6.889,6.889,0,0,1,.746-2.4,3.9,3.9,0,0,1,1.359-1.508,3.151,3.151,0,0,1,1.754-.465,2.6,2.6,0,0,1,2.219,1.109l.281-.945h1.3L19.113-.18A4.113,4.113,0,0,1,17.8,2.41a3.7,3.7,0,0,1-2.68.926,3.8,3.8,0,0,1-1.645-.406,3.127,3.127,0,0,1-1.238-1.07l.8-.867a2.419,2.419,0,0,0,2.023,1.164,2.425,2.425,0,0,0,1.707-.562A2.9,2.9,0,0,0,17.7-.094l.156-.75a3.2,3.2,0,0,1-2.414,1A2.486,2.486,0,0,1,14.07-.27a2.589,2.589,0,0,1-.9-1.164,4.759,4.759,0,0,1-.352-1.7A8.733,8.733,0,0,1,12.863-4.242Zm1.367.8a2.98,2.98,0,0,0,.387,1.73,1.461,1.461,0,0,0,1.238.645A2.56,2.56,0,0,0,18.035-2.3L18.7-6.187a1.776,1.776,0,0,0-1.7-1.2,2.193,2.193,0,0,0-1.887.938,4.888,4.888,0,0,0-.871,2.617ZM26.473-2.289q.117-.875-.961-1.234l-1.469-.43q-1.859-.641-1.8-2.125a2.341,2.341,0,0,1,1.02-1.832,3.631,3.631,0,0,1,2.27-.7,3.027,3.027,0,0,1,2.082.746,2.363,2.363,0,0,1,.77,1.9L26.98-5.969A1.319,1.319,0,0,0,26.582-7a1.576,1.576,0,0,0-1.1-.414,2.059,2.059,0,0,0-1.266.359,1.316,1.316,0,0,0-.57.922q-.1.734.9,1.07l.711.2a4.577,4.577,0,0,1,2.063.977A1.865,1.865,0,0,1,27.879-2.4a2.37,2.37,0,0,1-.516,1.375,2.948,2.948,0,0,1-1.25.895,4.18,4.18,0,0,1-1.664.285A3.3,3.3,0,0,1,22.23-.629a2.427,2.427,0,0,1-.844-1.98L22.8-2.6a1.5,1.5,0,0,0,.453,1.141,1.732,1.732,0,0,0,1.242.43,2.436,2.436,0,0,0,1.336-.324A1.247,1.247,0,0,0,26.473-2.289Z" transform="translate(1021.029 5810.919)"/>
    <path id="Trazado_772919" data-name="Trazado 772919" d="M-12.8-5.592h.95a2.088,2.088,0,0,0,1.408-.472A1.576,1.576,0,0,0-9.926-7.3a1.544,1.544,0,0,0-1.743-1.75,1.813,1.813,0,0,0-1.309.468,1.639,1.639,0,0,0-.489,1.241h-1.265a2.539,2.539,0,0,1,.865-1.965,3.15,3.15,0,0,1,2.2-.783,3.113,3.113,0,0,1,2.208.745,2.692,2.692,0,0,1,.8,2.071,2.185,2.185,0,0,1-.42,1.258,2.538,2.538,0,0,1-1.145.909,2.446,2.446,0,0,1,1.268.861,2.392,2.392,0,0,1,.448,1.47A2.715,2.715,0,0,1-9.386-.649a3.277,3.277,0,0,1-2.276.786,3.363,3.363,0,0,1-2.28-.759,2.517,2.517,0,0,1-.878-2h1.271a1.627,1.627,0,0,0,.513,1.258A1.95,1.95,0,0,0-11.662-.9a1.914,1.914,0,0,0,1.4-.479,1.844,1.844,0,0,0,.485-1.374,1.673,1.673,0,0,0-.533-1.333,2.323,2.323,0,0,0-1.538-.479h-.95ZM-.212-.9a1.822,1.822,0,0,0,1.183-.41,1.443,1.443,0,0,0,.561-1.025h1.2a2.293,2.293,0,0,1-.437,1.21,2.881,2.881,0,0,1-1.077.916A3.107,3.107,0,0,1-.212.137a3.047,3.047,0,0,1-2.4-1.008A4.016,4.016,0,0,1-3.507-3.63v-.212a4.453,4.453,0,0,1,.4-1.921A3.02,3.02,0,0,1-1.972-7.068,3.233,3.233,0,0,1-.219-7.533a2.966,2.966,0,0,1,2.068.745,2.663,2.663,0,0,1,.878,1.935h-1.2A1.743,1.743,0,0,0,.988-6.033,1.691,1.691,0,0,0-.219-6.494,1.77,1.77,0,0,0-1.712-5.8a3.259,3.259,0,0,0-.53,2.006v.239a3.194,3.194,0,0,0,.526,1.969A1.779,1.779,0,0,0-.212-.9ZM5.339-7.4l.034.82a2.732,2.732,0,0,1,2.194-.957A2.115,2.115,0,0,1,9.68-6.344a2.8,2.8,0,0,1,.96-.861,2.837,2.837,0,0,1,1.4-.328q2.434,0,2.475,2.577V0H13.248V-4.881a1.7,1.7,0,0,0-.362-1.186,1.6,1.6,0,0,0-1.217-.393,1.677,1.677,0,0,0-1.169.42,1.706,1.706,0,0,0-.54,1.131V0H8.688V-4.847A1.411,1.411,0,0,0,7.109-6.46a1.692,1.692,0,0,0-1.7,1.06V0H4.143V-7.4Z" transform="translate(521.735 6043.95)" fill="#28c6ba"/>
    <g id="Grupo_55925" data-name="Grupo 55925" transform="translate(504.961 6022.341)">
      <line id="Línea_324" data-name="Línea 324" x2="32.223" transform="translate(1.252 4.245)" fill="#fff"/>
      <g id="Grupo_55924" data-name="Grupo 55924">
        <path id="Trazado_106330" data-name="Trazado 106330" d="M-1971.656,1572.368h-29.361a1.252,1.252,0,0,1-1.252-1.251,1.252,1.252,0,0,1,1.252-1.252h29.361a1.252,1.252,0,0,1,1.251,1.252A1.252,1.252,0,0,1-1971.656,1572.368Z" transform="translate(2002.27 -1566.872)" fill="#28c6ba"/>
        <g id="Grupo_55923" data-name="Grupo 55923" transform="translate(25.626)">
          <path id="Trazado_106331" data-name="Trazado 106331" d="M-1977.247,1575.431l4.247-4.245-4.247-4.245h3.6l4.245,4.245-4.245,4.245Z" transform="translate(1977.247 -1566.942)" fill="#28c6ba"/>
        </g>
      </g>
    </g>
    <path id="Trazado_772920" data-name="Trazado 772920" d="M-18.1-5.592h.95a2.088,2.088,0,0,0,1.408-.472A1.576,1.576,0,0,0-15.23-7.3a1.544,1.544,0,0,0-1.743-1.75,1.813,1.813,0,0,0-1.309.468,1.639,1.639,0,0,0-.489,1.241h-1.265a2.539,2.539,0,0,1,.865-1.965,3.15,3.15,0,0,1,2.2-.783,3.113,3.113,0,0,1,2.208.745,2.692,2.692,0,0,1,.8,2.071,2.185,2.185,0,0,1-.42,1.258,2.538,2.538,0,0,1-1.145.909,2.446,2.446,0,0,1,1.268.861,2.392,2.392,0,0,1,.448,1.47A2.715,2.715,0,0,1-14.69-.649a3.277,3.277,0,0,1-2.276.786,3.363,3.363,0,0,1-2.28-.759,2.517,2.517,0,0,1-.878-2h1.271a1.627,1.627,0,0,0,.513,1.258A1.95,1.95,0,0,0-16.967-.9a1.914,1.914,0,0,0,1.4-.479,1.844,1.844,0,0,0,.485-1.374,1.673,1.673,0,0,0-.533-1.333,2.323,2.323,0,0,0-1.538-.479h-.95Zm6.111,7.574-.718-.492a3.3,3.3,0,0,0,.67-1.846V-1.5H-10.8v.991A3.114,3.114,0,0,1-11.139.875,3.233,3.233,0,0,1-11.99,1.982ZM-8.75-4.99l.506-4.963h5.1v1.169H-7.171l-.3,2.714A3.212,3.212,0,0,1-5.811-6.5a2.746,2.746,0,0,1,2.16.9,3.523,3.523,0,0,1,.8,2.43A3.4,3.4,0,0,1-3.681-.749,3.027,3.027,0,0,1-6,.137,3.146,3.146,0,0,1-8.155-.595a2.919,2.919,0,0,1-.95-2.023h1.2A2.009,2.009,0,0,0-7.3-1.33,1.892,1.892,0,0,0-6-.9a1.706,1.706,0,0,0,1.384-.6,2.515,2.515,0,0,0,.5-1.661,2.308,2.308,0,0,0-.543-1.6,1.849,1.849,0,0,0-1.446-.6A2.085,2.085,0,0,0-7.4-5l-.335.273ZM5.093-.9a1.822,1.822,0,0,0,1.183-.41,1.443,1.443,0,0,0,.561-1.025h1.2a2.293,2.293,0,0,1-.437,1.21,2.881,2.881,0,0,1-1.077.916A3.107,3.107,0,0,1,5.093.137,3.047,3.047,0,0,1,2.69-.872,4.016,4.016,0,0,1,1.8-3.63v-.212a4.453,4.453,0,0,1,.4-1.921A3.02,3.02,0,0,1,3.333-7.068a3.233,3.233,0,0,1,1.753-.465,2.966,2.966,0,0,1,2.068.745,2.663,2.663,0,0,1,.878,1.935h-1.2a1.743,1.743,0,0,0-.543-1.179,1.691,1.691,0,0,0-1.207-.461A1.77,1.77,0,0,0,3.592-5.8a3.259,3.259,0,0,0-.53,2.006v.239a3.194,3.194,0,0,0,.526,1.969A1.779,1.779,0,0,0,5.093-.9Zm5.551-6.5.034.82a2.732,2.732,0,0,1,2.194-.957,2.115,2.115,0,0,1,2.112,1.189,2.8,2.8,0,0,1,.96-.861,2.837,2.837,0,0,1,1.4-.328q2.434,0,2.475,2.577V0H18.553V-4.881a1.7,1.7,0,0,0-.362-1.186,1.6,1.6,0,0,0-1.217-.393,1.677,1.677,0,0,0-1.169.42,1.706,1.706,0,0,0-.54,1.131V0H13.993V-4.847A1.411,1.411,0,0,0,12.414-6.46a1.692,1.692,0,0,0-1.7,1.06V0H9.447V-7.4Z" transform="translate(937.289 6074.94)" fill="#28c6ba"/>
    <g id="Grupo_55928" data-name="Grupo 55928" transform="translate(930.104 6054.355)">
      <line id="Línea_325" data-name="Línea 325" x1="32.223" transform="translate(0 4.245)" fill="#fff"/>
      <g id="Grupo_55927" data-name="Grupo 55927">
        <path id="Trazado_106332" data-name="Trazado 106332" d="M-1554.948,1603.63h-29.361a1.253,1.253,0,0,1-1.253-1.253,1.252,1.252,0,0,1,1.253-1.251h29.361a1.251,1.251,0,0,1,1.251,1.251A1.252,1.252,0,0,1-1554.948,1603.63Z" transform="translate(1587.172 -1598.133)" fill="#28c6ba"/>
        <g id="Grupo_55926" data-name="Grupo 55926">
          <path id="Trazado_106333" data-name="Trazado 106333" d="M-1579.285,1598.2l-4.247,4.245,4.247,4.245h-3.6l-4.245-4.245,4.245-4.245Z" transform="translate(1587.134 -1598.203)" fill="#28c6ba"/>
        </g>
      </g>
    </g>
    <path id="Trazado_772921" data-name="Trazado 772921" d="M-14.055-4.99l.506-4.963h5.1v1.169h-4.026l-.3,2.714A3.212,3.212,0,0,1-11.115-6.5a2.746,2.746,0,0,1,2.16.9,3.523,3.523,0,0,1,.8,2.43A3.4,3.4,0,0,1-8.986-.749a3.027,3.027,0,0,1-2.321.885A3.146,3.146,0,0,1-13.46-.595a2.919,2.919,0,0,1-.95-2.023h1.2a2.009,2.009,0,0,0,.608,1.289,1.892,1.892,0,0,0,1.3.434,1.706,1.706,0,0,0,1.384-.6,2.515,2.515,0,0,0,.5-1.661,2.308,2.308,0,0,0-.543-1.6,1.849,1.849,0,0,0-1.446-.6,2.085,2.085,0,0,0-1.3.362l-.335.273ZM-.212-.9a1.822,1.822,0,0,0,1.183-.41,1.443,1.443,0,0,0,.561-1.025h1.2a2.293,2.293,0,0,1-.437,1.21,2.881,2.881,0,0,1-1.077.916A3.107,3.107,0,0,1-.212.137a3.047,3.047,0,0,1-2.4-1.008A4.016,4.016,0,0,1-3.507-3.63v-.212a4.453,4.453,0,0,1,.4-1.921A3.02,3.02,0,0,1-1.972-7.068,3.233,3.233,0,0,1-.219-7.533a2.966,2.966,0,0,1,2.068.745,2.663,2.663,0,0,1,.878,1.935h-1.2A1.743,1.743,0,0,0,.988-6.033,1.691,1.691,0,0,0-.219-6.494,1.77,1.77,0,0,0-1.712-5.8a3.259,3.259,0,0,0-.53,2.006v.239a3.194,3.194,0,0,0,.526,1.969A1.779,1.779,0,0,0-.212-.9ZM5.339-7.4l.034.82a2.732,2.732,0,0,1,2.194-.957A2.115,2.115,0,0,1,9.68-6.344a2.8,2.8,0,0,1,.96-.861,2.837,2.837,0,0,1,1.4-.328q2.434,0,2.475,2.577V0H13.248V-4.881a1.7,1.7,0,0,0-.362-1.186,1.6,1.6,0,0,0-1.217-.393,1.677,1.677,0,0,0-1.169.42,1.706,1.706,0,0,0-.54,1.131V0H8.688V-4.847A1.411,1.411,0,0,0,7.109-6.46a1.692,1.692,0,0,0-1.7,1.06V0H4.143V-7.4Z" transform="translate(726.91 6050.094)" fill="#28c6ba"/>
    <g id="Grupo_55931" data-name="Grupo 55931" transform="translate(710.364 6028.653)">
      <line id="Línea_326" data-name="Línea 326" x1="32.223" transform="translate(0 4.245)" fill="#fff"/>
      <g id="Grupo_55930" data-name="Grupo 55930">
        <path id="Trazado_106334" data-name="Trazado 106334" d="M-1769.516,1578.532h-29.361a1.252,1.252,0,0,1-1.252-1.252,1.252,1.252,0,0,1,1.252-1.252h29.361a1.252,1.252,0,0,1,1.252,1.252A1.252,1.252,0,0,1-1769.516,1578.532Z" transform="translate(1801.739 -1573.035)" fill="#28c6ba"/>
        <g id="Grupo_55929" data-name="Grupo 55929">
          <path id="Trazado_106335" data-name="Trazado 106335" d="M-1793.853,1573.106l-4.247,4.245,4.247,4.245h-3.6l-4.245-4.245,4.245-4.245Z" transform="translate(1801.702 -1573.106)" fill="#28c6ba"/>
        </g>
      </g>
    </g>
  </g>
</svg>
