<svg xmlns="http://www.w3.org/2000/svg" width="211.764" height="124.232" viewBox="0 0 211.764 124.232">
  <g id="Grupo_1054771" data-name="Grupo 1054771" transform="translate(2220.857 -4706.522)">
    <g id="Grupo_55947" data-name="Grupo 55947" transform="translate(-2220.857 4706.656)">
      <rect id="Rectángulo_5650" data-name="Rectángulo 5650" width="196.076" height="58.36" transform="translate(15.104 65.452)" fill="#f5947a"/>
      <line id="Línea_342" data-name="Línea 342" x2="118.494" transform="translate(92.685 64.868)" fill="none" stroke="#025157" stroke-miterlimit="10" stroke-width="3.942"/>
      <line id="Línea_343" data-name="Línea 343" y2="58.944" transform="translate(174.627 64.868)" fill="none" stroke="#b7b6b6" stroke-miterlimit="10" stroke-width="4.076"/>
      <path id="Trazado_106349" data-name="Trazado 106349" d="M-2034.912,4764.785h11.137" transform="translate(2181.237 -4709.539)" fill="none" stroke="#025157" stroke-miterlimit="10" stroke-width="4.076"/>
      <line id="Línea_344" data-name="Línea 344" y1="8.902" transform="translate(151.894 55.246)" fill="none" stroke="#025157" stroke-miterlimit="10" stroke-width="4.076"/>
      <path id="Trazado_772741" data-name="Trazado 772741" d="M0,0V118.8" transform="translate(15.104 2.894)" fill="none" stroke="#025157" stroke-width="2.038" stroke-dasharray="4.076"/>
      <line id="Línea_346" data-name="Línea 346" x2="211.179" transform="translate(0 54.716)" fill="none" stroke="#5984ef" stroke-miterlimit="10" stroke-width="2" stroke-dasharray="3.999"/>
      <path id="Trazado_106350" data-name="Trazado 106350" d="M-2120.984,4720.594h7.425v38.942h-6.213Z" transform="translate(2199.577 -4700.123)" fill="#f5947a"/>
      <g id="Grupo_55946" data-name="Grupo 55946" transform="translate(55.771 29.333)">
        <rect id="Rectángulo_5651" data-name="Rectángulo 5651" width="38.867" height="5.929" transform="translate(6.777 7.087)" fill="#f5947a"/>
        <g id="Grupo_55944" data-name="Grupo 55944">
          <path id="Trazado_106351" data-name="Trazado 106351" d="M-2131.4,4751.959l-10.058-10.052,10.058-10.052h-8.535l-10.052,10.052,10.052,10.052Z" transform="translate(2149.985 -4731.855)" fill="#f5947a"/>
        </g>
        <g id="Grupo_55945" data-name="Grupo 55945" transform="translate(33.883)">
          <path id="Trazado_106352" data-name="Trazado 106352" d="M-2106.927,4731.855l10.058,10.052-10.058,10.052h8.535l10.052-10.052-10.052-10.052Z" transform="translate(2106.927 -4731.855)" fill="#f5947a"/>
        </g>
      </g>
      <path id="Trazado_106353" data-name="Trazado 106353" d="M-2200.124,4774.112s82.961,4.773,135.465-10" transform="translate(2216.439 -4709.395)" fill="none" stroke="#12263f" stroke-miterlimit="10" stroke-width="4.076"/>
      <path id="Trazado_772817" data-name="Trazado 772817" d="M-11.11-2.6a2.767,2.767,0,0,1-.932,1.987,3.273,3.273,0,0,1-2.216.725A2.943,2.943,0,0,1-16.624-.905a4.151,4.151,0,0,1-.862-2.78v-.478a4.688,4.688,0,0,1,.4-1.987,2.979,2.979,0,0,1,1.136-1.319,3.182,3.182,0,0,1,1.716-.459,3.188,3.188,0,0,1,2.181.725A2.974,2.974,0,0,1-11.1-5.167h-1.611a1.633,1.633,0,0,0-.422-1.1,1.561,1.561,0,0,0-1.1-.341,1.369,1.369,0,0,0-1.206.577,3.236,3.236,0,0,0-.411,1.791v.591a3.463,3.463,0,0,0,.384,1.853,1.344,1.344,0,0,0,1.211.585,1.591,1.591,0,0,0,1.115-.341A1.54,1.54,0,0,0-12.721-2.6ZM-8.516,0h-1.558V-5.812h1.558Zm-1.649-7.315a.764.764,0,0,1,.234-.575.878.878,0,0,1,.636-.226.88.88,0,0,1,.634.226.76.76,0,0,1,.236.575.762.762,0,0,1-.239.58.882.882,0,0,1-.631.226.882.882,0,0,1-.631-.226A.762.762,0,0,1-10.165-7.315Zm4.356,1.5.048.671a2.029,2.029,0,0,1,1.67-.779,1.686,1.686,0,0,1,1.375.542,2.531,2.531,0,0,1,.462,1.622V0H-3.805V-3.717a1.007,1.007,0,0,0-.215-.717.962.962,0,0,0-.714-.223,1.068,1.068,0,0,0-.983.559V0H-7.27V-5.812ZM.781-7.24v1.429h.994v1.139H.781v2.9a.693.693,0,0,0,.124.462.62.62,0,0,0,.473.14,2.475,2.475,0,0,0,.457-.038V-.032a3.2,3.2,0,0,1-.94.14A1.482,1.482,0,0,1-.771-1.542V-4.673h-.849V-5.812h.849V-7.24ZM6.12-.591a1.947,1.947,0,0,1-1.59.7A1.836,1.836,0,0,1,3.1-.43,2.293,2.293,0,0,1,2.6-2V-5.812H4.155v3.754q0,.908.827.908A1.121,1.121,0,0,0,6.067-1.7V-5.812H7.624V0H6.163Zm5.94-3.765A4.217,4.217,0,0,0,11.5-4.4a1.137,1.137,0,0,0-1.155.6V0H8.8V-5.812h1.466l.043.693a1.438,1.438,0,0,1,1.294-.8,1.626,1.626,0,0,1,.483.07ZM16.014,0a1.724,1.724,0,0,1-.156-.521,1.878,1.878,0,0,1-1.466.628,2.063,2.063,0,0,1-1.415-.494,1.589,1.589,0,0,1-.561-1.246A1.642,1.642,0,0,1,13.1-3.051a3.379,3.379,0,0,1,1.979-.5h.714v-.333a.958.958,0,0,0-.207-.645.813.813,0,0,0-.653-.242.925.925,0,0,0-.615.188.639.639,0,0,0-.223.516H12.544A1.559,1.559,0,0,1,12.856-5a2.059,2.059,0,0,1,.881-.674,3.21,3.21,0,0,1,1.278-.244,2.536,2.536,0,0,1,1.705.54,1.888,1.888,0,0,1,.631,1.517v2.519a2.778,2.778,0,0,0,.231,1.251V0ZM14.73-1.08a1.337,1.337,0,0,0,.634-.153,1,1,0,0,0,.43-.411v-1h-.58q-1.166,0-1.241.806l-.005.091a.621.621,0,0,0,.2.478A.793.793,0,0,0,14.73-1.08Z" transform="translate(174.528 48.419)"/>
      <path id="Trazado_106354" data-name="Trazado 106354" d="M-2127.723,4765.652" transform="translate(2201.013 -4709.724)" fill="none" stroke="#8c757e" stroke-miterlimit="10" stroke-width="2.038"/>
      <g id="Grupo_1054790" data-name="Grupo 1054790" transform="translate(73.29 55.246)">
        <rect id="Rectángulo_5652" data-name="Rectángulo 5652" width="3.788" height="21.365" fill="#025157"/>
        <rect id="Rectángulo_5653" data-name="Rectángulo 5653" width="3.788" height="21.365" transform="translate(15.608)" fill="#025157"/>
        <rect id="Rectángulo_5654" data-name="Rectángulo 5654" width="3.788" height="9.622" transform="translate(7.804 5.395)" fill="#025157"/>
        <rect id="Rectángulo_5655" data-name="Rectángulo 5655" width="4.659" height="13.304" transform="translate(16.365 7.292) rotate(90)" fill="#025157"/>
      </g>
      <path id="Trazado_106355" data-name="Trazado 106355" d="M-1990.047,4833.351l9.7-68.565s15.607,6.023,19.85,7.292" transform="translate(2171.678 -4709.539)" fill="none" stroke="#025157" stroke-miterlimit="10" stroke-width="4.076" opacity="0.36"/>
      <path id="Trazado_106356" data-name="Trazado 106356" d="M-1960.588,4774.221l-18.078-6.933-9.31,66.6h24.32Z" transform="translate(2171.237 -4710.072)" fill="#fff" opacity="0.34"/>
      <path id="Trazado_106357" data-name="Trazado 106357" d="M-2045.281,4694.58s-5.228,39.487-5.228,51.307,8.637,72.505,8.637,72.505" transform="translate(2184.561 -4694.58)" fill="none" stroke="#8c757e" stroke-miterlimit="10" stroke-width="2.038"/>
      <path id="Trazado_106358" data-name="Trazado 106358" d="M-1962.242,4694.58s5.228,39.487,5.228,51.307-8.637,72.505-8.637,72.505" transform="translate(2166.48 -4694.58)" fill="none" stroke="#8c757e" stroke-miterlimit="10" stroke-width="2.038"/>
      <line id="Línea_347" data-name="Línea 347" x2="13.475" transform="translate(0 64.868)" fill="none" stroke="#424242" stroke-miterlimit="10" stroke-width="4.076" stroke-dasharray="4.076"/>
    </g>
  </g>
</svg>
