<svg xmlns="http://www.w3.org/2000/svg" width="1240" height="472.932" viewBox="0 0 1240 472.932">
  <g id="Grupo_1055060" data-name="Grupo 1055060" transform="translate(-180 -4928)">
    <path id="Trazado_772898" data-name="Trazado 772898" d="M0,0H1240V471H0Z" transform="translate(180 4928)" fill="#baefe4" opacity="0.17"/>
    <path id="Trazado_106555" data-name="Trazado 106555" d="M-2522.25,5908.807s-8.9-19.265-8.9-24.414,1.908-13.733,1.908-13.733l-6.928-20.41s-11.956-10.109-13.1-11.827-26.133-9.918-26.133-9.918-11.445,8.2-11.063,23.27c0,0,2.479,6.677,1.335,8.583s-7.63,10.493-5.913,11.827,3.816,2.861,3.816,2.861l.191,4.768,2.479,2.459-.381,3.073,3.052,2.1s-1.907,7.632,3.052,8.013,12.017-3.433,15.26.191,9.193,17.2,5.34,21.744l5.342,4.482,25.559-4.482Z" transform="translate(3355.334 -777.956)" fill="#fff" stroke="#000" stroke-linecap="round" stroke-linejoin="round" stroke-width="1.5"/>
    <path id="Trazado_106556" data-name="Trazado 106556" d="M-2534.306,5883.157l-1.018,3.181-2.035-4.705-1.4,1.779-1.271-4.45h-1.781l-2.161-2.288-1.781-2.29v-1.654s1.907-6.357,2.161-7.628-2.8-10.045-9.41-7-6.565,1.781-6.565,1.781l-3.752-3.687-3.671-3.178s-3.077-3.178-3.509-3.562-3.485-1.525-2.722-1.78a23.78,23.78,0,0,0,3.943-2.161c.636-.509,1.525-2.417,1.271-3.053a53.08,53.08,0,0,0-3.305-4.314,7.524,7.524,0,0,0-3.178-1.025c-1.145.126-3.307-.02-5.087-.011a10.185,10.185,0,0,1-3.732-.91s4.876-13.448,28.528-14.72,27.34,13.86,27.34,13.86,1.781,7.884,2.416,9.156,2.417,10.173,2.8,11.19,1.908,2.925.763,5.468S-2529.856,5882.9-2534.306,5883.157Z" transform="translate(3358.108 -780.408)" fill="#fff" stroke="#000" stroke-linecap="round" stroke-linejoin="round" stroke-width="1.5"/>
    <path id="Trazado_106557" data-name="Trazado 106557" d="M-2559.885,5863.984s-.254,5.6-2.035,6.868-6.994,5.34-6.994,5.34" transform="translate(3363.085 -765.686)" fill="none" stroke="#000" stroke-linecap="round" stroke-linejoin="round" stroke-width="1.5"/>
    <path id="Trazado_106558" data-name="Trazado 106558" d="M-2563.244,5862.059s3.815,2.8,6.359,0l2.543-2.8" transform="translate(3365.046 -767.32)" fill="none" stroke="#000" stroke-linecap="round" stroke-linejoin="round" stroke-width="1.5"/>
    <path id="Trazado_106559" data-name="Trazado 106559" d="M-2541.464,5834.508a7.274,7.274,0,0,1,7.438-5.1c5.851.381,12.336,3.688,10.81,8.265l-1.526,4.578s3,.381,1.752,2.544-1.116,2.67-.608,4.451.508,4.577-.254,5.722-4.959,3.433-4.959,3.433-7.321,3.269-7.121,0S-2541.464,5834.508-2541.464,5834.508Z" transform="translate(3372.578 -777.649)" fill="#fff" stroke="#000" stroke-linecap="round" stroke-linejoin="round" stroke-width="1.5"/>
    <path id="Trazado_106560" data-name="Trazado 106560" d="M-2520.965,5888.173s-30.773,9.41-36.113,9.41c0,0-29.5,29.5-34.08,33.063s-3.815,18.313,8.392,22.126c0,0-1.527,29.5-1.272,33.317s3.052,26.2,3.052,26.2-19.154,8.9-12.756,145.218h77.609s2.67-90.029,4.959-98.424,4.579-32.426-12.971-46.159c0,0,12.266-51.882,14.525-74.771S-2513.843,5893.769-2520.965,5888.173Z" transform="translate(3354.048 -757.321)" fill="#fff" stroke="#000" stroke-linecap="round" stroke-linejoin="round" stroke-width="1.5"/>
    <path id="Trazado_772900" data-name="Trazado 772900" d="M3.495,0,0,107.58" transform="translate(800.055 5287.644)" fill="none" stroke="#000" stroke-linecap="round" stroke-width="1.5"/>
    <path id="Trazado_106561" data-name="Trazado 106561" d="M-2566,5939.488s-3.052-39.476,22.89-40.818,15.641,47.686,15.641,47.686l-6.1,58.748-22.24,88.506h-28.5l16.4-82.146,4.943-10.937Z" transform="translate(3357.76 -753.701)" fill="#fff" stroke="#000" stroke-linecap="round" stroke-linejoin="round" stroke-width="1.5"/>
    <path id="Trazado_106562" data-name="Trazado 106562" d="M-2548.894,5900.93l-3.052,44.251-2.289,55.316-18.884,91.938" transform="translate(3361.632 -752.91)" fill="none" stroke="#000" stroke-linecap="round" stroke-linejoin="round" stroke-width="1.5"/>
    <path id="Trazado_106563" data-name="Trazado 106563" d="M-2570.761,5927.946s20.254,6.09,39.411,3.56" transform="translate(3362.447 -743.569)" fill="none" stroke="#000" stroke-linecap="round" stroke-linejoin="round" stroke-width="1.5"/>
    <path id="Trazado_772901" data-name="Trazado 772901" d="M2.991,0,0,8.965" transform="translate(816.172 5134.953)" fill="none" stroke="#000" stroke-linecap="round" stroke-width="1.5"/>
    <path id="Trazado_106564" data-name="Trazado 106564" d="M-2579.845,6043.512l-2.479,17.548s-3.243,9.156-1.908,10.492,13.645,17.166,14.167,18.12,2.619,2.861,3.954,2.67,2.1-.572,2.1-2.1.763-4.769,0-5.148-5.15-12.019-5.15-12.019l2.289-9.919s3.348-8.009,3.2-10.871-3.391-8.775-3.391-8.775Z" transform="translate(3357.677 -703.604)" fill="none" stroke="#000" stroke-linecap="round" stroke-linejoin="round" stroke-width="1.5"/>
    <path id="Trazado_772902" data-name="Trazado 772902" d="M0,.89,14.548,0" transform="translate(773.064 5254.073)" fill="none" stroke="#000" stroke-linecap="round" stroke-width="1.5"/>
    <path id="Trazado_106565" data-name="Trazado 106565" d="M-2362.466,5913.511s-10.874-18.224-11.416-23.346.457-13.858.457-13.858l-9.032-19.57s-12.951-8.8-14.268-10.387-27.029-7.121-27.029-7.121-10.52,9.357-8.559,24.3c0,0,3.165,6.379,2.228,8.4s-6.488,11.233-4.64,12.382,4.094,2.444,4.094,2.444l.69,4.722,2.724,2.184-.056,3.1,3.254,1.767s-1.1,7.787,3.876,7.647,11.59-4.676,15.2-1.413,10.948,16.143,7.593,21.065l5.781,3.9,24.949-7.14Z" transform="translate(3014.921 -774.74)" fill="#fff" stroke="#000" stroke-linecap="round" stroke-linejoin="round" stroke-width="1.5"/>
    <path id="Trazado_106566" data-name="Trazado 106566" d="M-2376.393,5889.747l-.678,3.27-2.516-4.467-1.2,1.917-1.733-4.293-1.77.188-2.39-2.051-2.011-2.088-.173-1.645s1.229-6.523,1.349-7.813-3.836-9.7-10.092-5.969-6.342,2.46-6.342,2.46l-4.118-3.274-3.985-2.777s-3.393-2.839-3.862-3.172-3.626-1.151-2.894-1.485a23.817,23.817,0,0,0,3.693-2.563c.579-.572,1.263-2.563.944-3.169a52.785,52.785,0,0,0-3.741-3.945,7.531,7.531,0,0,0-3.27-.685c-1.125.248-3.29.328-5.058.524a10.2,10.2,0,0,1-3.808-.515s3.439-13.885,26.826-17.633,28.644,10.915,28.644,10.915,2.6,7.654,3.364,8.852,3.47,9.864,3.956,10.836,2.2,2.708,1.333,5.357S-2371.993,5889.027-2376.393,5889.747Z" transform="translate(3016.667 -777.949)" fill="#fff" stroke="#000" stroke-linecap="round" stroke-linejoin="round" stroke-width="1.5"/>
    <path id="Trazado_106567" data-name="Trazado 106567" d="M-2403.772,5872.7s.334,5.589-1.3,7.041-6.4,6.046-6.4,6.046" transform="translate(3023.093 -763.166)" fill="none" stroke="#000" stroke-linecap="round" stroke-linejoin="round" stroke-width="1.5"/>
    <path id="Trazado_106568" data-name="Trazado 106568" d="M-2407.061,5871.132s4.087,2.381,6.322-.667l2.236-3.05" transform="translate(3024.617 -764.992)" fill="none" stroke="#000" stroke-linecap="round" stroke-linejoin="round" stroke-width="1.5"/>
    <path id="Trazado_106569" data-name="Trazado 106569" d="M-2388.355,5841.408a7.274,7.274,0,0,1,6.862-5.854c5.857-.234,12.653,2.374,11.617,7.085l-1.038,4.713s3.019.066,2.009,2.346-.83,2.772-.137,4.489.987,4.5.347,5.718-4.572,3.935-4.572,3.935-6.937,4.02-7.081.747S-2388.355,5841.408-2388.355,5841.408Z" transform="translate(3031.085 -776.016)" fill="#fff" stroke="#000" stroke-linecap="round" stroke-linejoin="round" stroke-width="1.5"/>
    <path id="Trazado_106570" data-name="Trazado 106570" d="M-2400.224,5898.632s31.663-3.815,34.715-5.341,20.6,27.467,19.457,44.253-10.682,72.863-11.445,74.009,10.407,25.939,11.5,52.645-6.158,91.556-6.158,91.556h-69.049s-27.467-115.208,3.052-141.913l1.144-37.768s-21.235-11.444-10.045-29.247,22.126-37.64,23.144-39.42S-2400.224,5898.632-2400.224,5898.632Z" transform="translate(3015.801 -756.064)" fill="#fff" stroke="#000" stroke-linecap="round" stroke-linejoin="round" stroke-width="1.5"/>
    <path id="Trazado_106571" data-name="Trazado 106571" d="M-2373.509,5943.658s5.342-43.3-20.792-41.583-16.976,33.571-16.976,34.716,2.1,25.94,2.1,25.94l.763,46.352-25.178,67.524-2.861,13.924,26.323,5.912,29.947-77.25s2.67-11.827,2.67-14.688S-2373.509,5943.658-2373.509,5943.658Z" transform="translate(3014.453 -753.023)" fill="#fff" stroke="#000" stroke-linecap="round" stroke-linejoin="round" stroke-width="1.5"/>
    <path id="Trazado_106572" data-name="Trazado 106572" d="M-2398.28,5903.906s-4.2,19.646,1.526,39.292v64.472l-31.5,84.69" transform="translate(3017.289 -752.374)" fill="none" stroke="#000" stroke-linecap="round" stroke-linejoin="round" stroke-width="1.5"/>
    <path id="Trazado_106573" data-name="Trazado 106573" d="M-2416.55,5932.487s25.413,4.2,35.205,1.781" transform="translate(3021.336 -742.49)" fill="none" stroke="#000" stroke-linecap="round" stroke-linejoin="round" stroke-width="1.5"/>
    <path id="Trazado_106574" data-name="Trazado 106574" d="M-2408.125,5922.2s-2.24-15.2-1.4-17.676" transform="translate(3023.7 -752.162)" fill="none" stroke="#e87777" stroke-linecap="round" stroke-linejoin="round" stroke-width="1.5" stroke-dasharray="2"/>
    <path id="Trazado_772903" data-name="Trazado 772903" d="M0,0H17.259" transform="translate(641.394 5257.394)" fill="none" stroke="#000" stroke-linecap="round" stroke-width="1.5"/>
    <path id="Trazado_772904" data-name="Trazado 772904" d="M3.495,0,0,107.58" transform="translate(626.578 5292.11)" fill="none" stroke="#000" stroke-linecap="round" stroke-width="1.5"/>
    <path id="Trazado_106575" data-name="Trazado 106575" d="M-2430.645,6043.142l-2.224,23.005s-3.243,9.156-1.907,10.492,13.645,17.166,14.166,18.12,2.619,2.861,3.954,2.67,2.1-.572,2.1-2.1.763-4.768,0-5.147-5.149-12.019-5.149-12.019l2.288-9.919s3.35-8.01,3.2-10.872-3.425-11.311-3.425-11.311Z" transform="translate(3014.921 -704.225)" fill="#fff" stroke="#000" stroke-linecap="round" stroke-linejoin="round" stroke-width="1.5"/>
    <path id="Trazado_106576" data-name="Trazado 106576" d="M-2200.94,5925.947s-5-20.625-4-25.677,4.53-13.1,4.53-13.1l-2.844-21.365s-9.773-12.232-10.563-14.139-23.717-14.791-23.717-14.791-12.816,5.832-15.359,20.689c0,0,1.14,7.029-.353,8.68s-9.516,8.814-8.091,10.457,3.19,3.545,3.19,3.545l-.736,4.715,1.957,2.892-.971,2.941,2.588,2.649s-3.349,7.116,1.442,8.452,12.455-1.042,14.935,3.141,5.688,18.657,1.03,22.367l4.371,5.431,25.945.552Z" transform="translate(3209.702 -775.533)" fill="#fff" stroke="#000" stroke-linecap="round" stroke-linejoin="round" stroke-width="1.5"/>
    <path id="Trazado_106577" data-name="Trazado 106577" d="M-2209.21,5897.949l-1.614,2.924-1.084-5.011-1.718,1.475-.386-4.612-1.746-.345-1.678-2.665-1.3-2.591.319-1.622s3.1-5.867,3.6-7.066-.8-10.4-7.877-8.683-6.787.475-6.787.475l-2.966-4.345-2.987-3.831s-2.4-3.714-2.753-4.172-3.122-2.172-2.325-2.273a23.834,23.834,0,0,0,4.286-1.357c.722-.376,1.965-2.075,1.838-2.748a52.937,52.937,0,0,0-2.408-4.874,7.541,7.541,0,0,0-2.92-1.622c-1.148-.1-3.239-.659-4.989-.994a10.207,10.207,0,0,1-3.485-1.617s7.389-12.251,30.839-8.918,24.138,18.893,24.138,18.893.221,8.08.6,9.451.4,10.448.579,11.52,1.3,3.238-.311,5.512S-2204.8,5898.561-2209.21,5897.949Z" transform="translate(3214.307 -776.904)" fill="#fff" stroke="#000" stroke-linecap="round" stroke-linejoin="round" stroke-width="1.5"/>
    <path id="Trazado_106578" data-name="Trazado 106578" d="M-2230.721,5875.027s-1.332,5.44-3.325,6.344-7.9,3.885-7.9,3.885" transform="translate(3216.469 -762.337)" fill="none" stroke="#000" stroke-linecap="round" stroke-linejoin="round" stroke-width="1.5"/>
    <path id="Trazado_106579" data-name="Trazado 106579" d="M-2234.112,5872.492s3.2,3.483,6.238,1.232l3.036-2.253" transform="translate(3219.177 -763.566)" fill="none" stroke="#000" stroke-linecap="round" stroke-linejoin="round" stroke-width="1.5"/>
    <path id="Trazado_106580" data-name="Trazado 106580" d="M-2207.294,5849.823s2.622-5.072,8.286-3.565,11.387,6.006,9,10.2l-2.383,4.194s2.865.955,1.226,2.834-1.611,2.4-1.458,4.25-.387,4.589-1.357,5.563-5.531,2.409-5.531,2.409-7.816,1.79-6.986-1.379S-2207.294,5849.823-2207.294,5849.823Z" transform="translate(3228.45 -772.384)" fill="#fff" stroke="#000" stroke-linecap="round" stroke-linejoin="round" stroke-width="1.5"/>
    <path id="Trazado_106581" data-name="Trazado 106581" d="M-2198.859,5896.488s-28.23,9.664-32.3,9.156c-2.66-.333-17.282,11.188-27.087,19.2-3.113,2.545-7.087,5-9.358,8.368-2.5,3.7-2.879,9.123-2.067,13.414a12.344,12.344,0,0,0,7.479,9.1c.519.226,5.443,1.968,5.6,1.548,0,0-5.086,13.479-3.56,19.838s10.682,42.981,10.934,44.507-2.542,22.636-.507,33.571,9.155,91.049,6.866,99.44h58.748s7.558-36.524,12.288-65.209c.855-5.186,1.777-10.39,2.375-15.613.62-5.405,1.98-11.146,1.05-16.578-.743-4.339-3.015-8.206-5.379-11.846-2.487-3.825-4.919-7.675-7.554-11.413-4.627-6.558-9.062-12.35-10.665-14.639-3.56-5.089,5.087-69.941,5.6-72.993S-2186.4,5903.1-2198.859,5896.488Z" transform="translate(3206.747 -754.916)" fill="#fff" stroke="#000" stroke-linecap="round" stroke-linejoin="round" stroke-width="1.5"/>
    <path id="Trazado_106582" data-name="Trazado 106582" d="M-2249.352,6045.352l-2.307,20.24s-3.242,9.155-1.907,10.49,13.645,17.167,14.166,18.121,2.618,2.861,3.954,2.67,2.1-.572,2.1-2.1.763-4.77,0-5.15-5.149-12.017-5.149-12.017l2.288-9.918s3.348-8.012,3.2-10.873-3.39-8.774-3.39-8.774Z" transform="translate(3212.338 -703.438)" fill="#fff" stroke="#000" stroke-linecap="round" stroke-linejoin="round" stroke-width="1.5"/>
    <path id="Trazado_106583" data-name="Trazado 106583" d="M-2233.308,5921.619s6.1-15.768,16.022-16.785,17.8,4.832,18.311,10.427,2.544,61.548,2.544,61.548l-2.544,32.554-32.808,87.74-25.432-4.831,28.23-86.47Z" transform="translate(3211.187 -752.07)" fill="#fff" stroke="#000" stroke-linecap="round" stroke-linejoin="round" stroke-width="1.5"/>
    <path id="Trazado_106584" data-name="Trazado 106584" d="M-2219.166,5906.5a195,195,0,0,1,4.07,27.467c1.016,14.5,1.512,57.732,1.512,57.732l-2.791,14.243-30.258,86.217" transform="translate(3214.846 -751.453)" fill="none" stroke="#000" stroke-linecap="round" stroke-linejoin="round" stroke-width="1.5"/>
    <path id="Trazado_106585" data-name="Trazado 106585" d="M-2252.585,5991.424s11.062.381,13.1-.637" transform="translate(3212.788 -722.307)" fill="#fff" stroke="#000" stroke-linecap="round" stroke-linejoin="round" stroke-width="1.5"/>
    <path id="Trazado_106586" data-name="Trazado 106586" d="M-2237.656,5936.694s26.832.889,32.68-1.654" transform="translate(3217.951 -741.585)" fill="#fff" stroke="#000" stroke-linecap="round" stroke-linejoin="round" stroke-width="1.5"/>
    <path id="Trazado_772899" data-name="Trazado 772899" d="M0,19.361V0" transform="translate(1002.611 5154.194)" fill="none" stroke="#e87777" stroke-linecap="round" stroke-width="1.5" stroke-dasharray="2"/>
    <path id="Trazado_772905" data-name="Trazado 772905" d="M8,0H151a8,8,0,0,1,8,8V41a8,8,0,0,1-8,8H8a8,8,0,0,1-8-8V8A8,8,0,0,1,8,0Z" transform="translate(544 4979)" fill="#025157"/>
    <path id="Trazado_772906" data-name="Trazado 772906" d="M8,0H151a8,8,0,0,1,8,8V41a8,8,0,0,1-8,8H8a8,8,0,0,1-8-8V8A8,8,0,0,1,8,0Z" transform="translate(727 4979)" fill="#025157"/>
    <path id="Trazado_772907" data-name="Trazado 772907" d="M8,0H151a8,8,0,0,1,8,8V41a8,8,0,0,1-8,8H8a8,8,0,0,1-8-8V8A8,8,0,0,1,8,0Z" transform="translate(912 4979)" fill="#025157"/>
    <path id="Trazado_772908" data-name="Trazado 772908" d="M1.016,17V5.625H5a5.232,5.232,0,0,1,3.141.793,2.712,2.712,0,0,1,1.07,2.324,2.57,2.57,0,0,1-.43,1.473,2.482,2.482,0,0,1-1.2.934,2.4,2.4,0,0,1,1.379.883,2.61,2.61,0,0,1,.5,1.625,3,3,0,0,1-1.047,2.484A4.713,4.713,0,0,1,5.438,17Zm2.344-4.953v3.07H5.367a1.938,1.938,0,0,0,1.293-.395,1.353,1.353,0,0,0,.465-1.09,1.428,1.428,0,0,0-1.617-1.586Zm0-1.656H5.094q1.773-.031,1.773-1.414a1.307,1.307,0,0,0-.449-1.113A2.363,2.363,0,0,0,5,7.523H3.359Zm12.469.273a6.134,6.134,0,0,0-.812-.062,1.654,1.654,0,0,0-1.68.867V17H11.078V8.547h2.133l.063,1.008a2.092,2.092,0,0,1,1.883-1.164,2.366,2.366,0,0,1,.7.1ZM21.578,17a2.507,2.507,0,0,1-.227-.758,2.732,2.732,0,0,1-2.133.914,3,3,0,0,1-2.059-.719,2.312,2.312,0,0,1-.816-1.812,2.389,2.389,0,0,1,1-2.062,4.915,4.915,0,0,1,2.879-.727h1.039v-.484a1.393,1.393,0,0,0-.3-.937,1.183,1.183,0,0,0-.949-.352,1.345,1.345,0,0,0-.895.273.929.929,0,0,0-.324.75H16.531a2.268,2.268,0,0,1,.453-1.359,3,3,0,0,1,1.281-.98,4.669,4.669,0,0,1,1.859-.355,3.689,3.689,0,0,1,2.48.785,2.747,2.747,0,0,1,.918,2.207v3.664a4.041,4.041,0,0,0,.336,1.82V17Zm-1.867-1.57a1.945,1.945,0,0,0,.922-.223,1.462,1.462,0,0,0,.625-.6V13.156h-.844q-1.7,0-1.8,1.172l-.008.133a.9.9,0,0,0,.3.7A1.153,1.153,0,0,0,19.711,15.43Zm8.141-.25h4.133V17H24.969V15.625l3.977-5.25H25.086V8.547h6.773V9.883Zm5.07-2.484a5.013,5.013,0,0,1,.484-2.242A3.546,3.546,0,0,1,34.8,8.93a4.069,4.069,0,0,1,2.113-.539,3.849,3.849,0,0,1,2.793,1.047,4.2,4.2,0,0,1,1.207,2.844l.016.578a4.418,4.418,0,0,1-1.086,3.121,4.209,4.209,0,0,1-5.832,0,4.5,4.5,0,0,1-1.09-3.187Zm2.258.164a3.151,3.151,0,0,0,.453,1.84,1.629,1.629,0,0,0,2.578.008,3.448,3.448,0,0,0,.461-2.012,3.12,3.12,0,0,0-.461-1.828,1.5,1.5,0,0,0-1.3-.648,1.475,1.475,0,0,0-1.281.645A3.506,3.506,0,0,0,35.18,12.859ZM51.2,17a2.507,2.507,0,0,1-.227-.758,2.732,2.732,0,0,1-2.133.914,3,3,0,0,1-2.059-.719,2.312,2.312,0,0,1-.816-1.812,2.389,2.389,0,0,1,1-2.062,4.915,4.915,0,0,1,2.879-.727h1.039v-.484a1.393,1.393,0,0,0-.3-.937,1.183,1.183,0,0,0-.949-.352,1.345,1.345,0,0,0-.895.273.929.929,0,0,0-.324.75H46.156a2.268,2.268,0,0,1,.453-1.359,3,3,0,0,1,1.281-.98,4.669,4.669,0,0,1,1.859-.355,3.689,3.689,0,0,1,2.48.785,2.747,2.747,0,0,1,.918,2.207v3.664a4.041,4.041,0,0,0,.336,1.82V17Zm-1.867-1.57a1.945,1.945,0,0,0,.922-.223,1.462,1.462,0,0,0,.625-.6V13.156h-.844q-1.7,0-1.8,1.172l-.008.133a.9.9,0,0,0,.3.7A1.153,1.153,0,0,0,49.336,15.43Zm5.2-2.719a5.094,5.094,0,0,1,.887-3.148,2.877,2.877,0,0,1,2.426-1.172,2.589,2.589,0,0,1,2.039.922V5h2.266V17H60.109L60,16.1a2.657,2.657,0,0,1-2.172,1.055,2.869,2.869,0,0,1-2.395-1.176A5.258,5.258,0,0,1,54.531,12.711Zm2.258.164A3.328,3.328,0,0,0,57.2,14.7a1.349,1.349,0,0,0,1.2.633,1.511,1.511,0,0,0,1.477-.883V11.109a1.489,1.489,0,0,0-1.461-.883Q56.789,10.227,56.789,12.875Zm11,4.281a4.15,4.15,0,0,1-3.027-1.141,4.054,4.054,0,0,1-1.168-3.039v-.219a5.106,5.106,0,0,1,.492-2.277A3.612,3.612,0,0,1,65.48,8.934a3.914,3.914,0,0,1,2.059-.543,3.508,3.508,0,0,1,2.73,1.094,4.444,4.444,0,0,1,1,3.1v.922H65.883a2.1,2.1,0,0,0,.66,1.328,2,2,0,0,0,1.395.5,2.437,2.437,0,0,0,2.039-.945l1.109,1.242a3.389,3.389,0,0,1-1.375,1.121A4.511,4.511,0,0,1,67.789,17.156Zm-.258-6.937a1.414,1.414,0,0,0-1.09.453,2.341,2.341,0,0,0-.535,1.3h3.141v-.18a1.669,1.669,0,0,0-.406-1.16A1.459,1.459,0,0,0,67.531,10.219ZM74.93,17H72.664V5H74.93Zm6.758,0a2.507,2.507,0,0,1-.227-.758,2.732,2.732,0,0,1-2.133.914,3,3,0,0,1-2.059-.719,2.312,2.312,0,0,1-.816-1.812,2.389,2.389,0,0,1,1-2.062,4.915,4.915,0,0,1,2.879-.727h1.039v-.484a1.393,1.393,0,0,0-.3-.937,1.183,1.183,0,0,0-.949-.352,1.345,1.345,0,0,0-.895.273.929.929,0,0,0-.324.75H76.641a2.268,2.268,0,0,1,.453-1.359,3,3,0,0,1,1.281-.98,4.669,4.669,0,0,1,1.859-.355,3.689,3.689,0,0,1,2.48.785,2.747,2.747,0,0,1,.918,2.207v3.664a4.041,4.041,0,0,0,.336,1.82V17ZM79.82,15.43a1.945,1.945,0,0,0,.922-.223,1.462,1.462,0,0,0,.625-.6V13.156h-.844q-1.7,0-1.8,1.172l-.008.133a.9.9,0,0,0,.3.7A1.153,1.153,0,0,0,79.82,15.43Zm7.625-6.883.07.977a2.951,2.951,0,0,1,2.43-1.133,2.453,2.453,0,0,1,2,.789,3.682,3.682,0,0,1,.672,2.359V17H90.359V11.594a1.465,1.465,0,0,0-.312-1.043,1.4,1.4,0,0,0-1.039-.324,1.553,1.553,0,0,0-1.43.813V17H85.32V8.547Zm9.586-2.078V8.547h1.445V10.2H97.031v4.219a1.007,1.007,0,0,0,.18.672.9.9,0,0,0,.688.2,3.6,3.6,0,0,0,.664-.055v1.711a4.648,4.648,0,0,1-1.367.2,2.156,2.156,0,0,1-2.422-2.4V10.2H93.539V8.547h1.234V6.469ZM104.633,17a2.507,2.507,0,0,1-.227-.758,2.732,2.732,0,0,1-2.133.914,3,3,0,0,1-2.059-.719,2.312,2.312,0,0,1-.816-1.812,2.389,2.389,0,0,1,1-2.062,4.915,4.915,0,0,1,2.879-.727h1.039v-.484a1.393,1.393,0,0,0-.3-.937,1.183,1.183,0,0,0-.949-.352,1.345,1.345,0,0,0-.895.273.929.929,0,0,0-.324.75H99.586a2.268,2.268,0,0,1,.453-1.359,3,3,0,0,1,1.281-.98,4.669,4.669,0,0,1,1.859-.355,3.689,3.689,0,0,1,2.48.785,2.747,2.747,0,0,1,.918,2.207v3.664a4.041,4.041,0,0,0,.336,1.82V17Zm-1.867-1.57a1.945,1.945,0,0,0,.922-.223,1.462,1.462,0,0,0,.625-.6V13.156h-.844q-1.7,0-1.8,1.172l-.008.133a.9.9,0,0,0,.3.7A1.153,1.153,0,0,0,102.766,15.43Zm5.2-2.719a5.094,5.094,0,0,1,.887-3.148,2.877,2.877,0,0,1,2.426-1.172,2.589,2.589,0,0,1,2.039.922V5h2.266V17h-2.039l-.109-.9a2.657,2.657,0,0,1-2.172,1.055,2.869,2.869,0,0,1-2.395-1.176A5.258,5.258,0,0,1,107.961,12.711Zm2.258.164a3.328,3.328,0,0,0,.414,1.82,1.349,1.349,0,0,0,1.2.633,1.511,1.511,0,0,0,1.477-.883V11.109a1.489,1.489,0,0,0-1.461-.883Q110.219,10.227,110.219,12.875Zm6.758-.18a5.013,5.013,0,0,1,.484-2.242,3.546,3.546,0,0,1,1.395-1.523,4.069,4.069,0,0,1,2.113-.539,3.849,3.849,0,0,1,2.793,1.047,4.2,4.2,0,0,1,1.207,2.844l.016.578A4.418,4.418,0,0,1,123.9,15.98a4.209,4.209,0,0,1-5.832,0,4.5,4.5,0,0,1-1.09-3.187Zm2.258.164a3.151,3.151,0,0,0,.453,1.84,1.629,1.629,0,0,0,2.578.008,3.448,3.448,0,0,0,.461-2.012,3.12,3.12,0,0,0-.461-1.828,1.5,1.5,0,0,0-1.3-.648,1.475,1.475,0,0,0-1.281.645A3.506,3.506,0,0,0,119.234,12.859Z" transform="translate(558.707 4993)" fill="#fff"/>
    <path id="Trazado_772909" data-name="Trazado 772909" d="M1.016,17V5.625H5a5.232,5.232,0,0,1,3.141.793,2.712,2.712,0,0,1,1.07,2.324,2.57,2.57,0,0,1-.43,1.473,2.482,2.482,0,0,1-1.2.934,2.4,2.4,0,0,1,1.379.883,2.61,2.61,0,0,1,.5,1.625,3,3,0,0,1-1.047,2.484A4.713,4.713,0,0,1,5.438,17Zm2.344-4.953v3.07H5.367a1.938,1.938,0,0,0,1.293-.395,1.353,1.353,0,0,0,.465-1.09,1.428,1.428,0,0,0-1.617-1.586Zm0-1.656H5.094q1.773-.031,1.773-1.414a1.307,1.307,0,0,0-.449-1.113A2.363,2.363,0,0,0,5,7.523H3.359Zm12.469.273a6.134,6.134,0,0,0-.812-.062,1.654,1.654,0,0,0-1.68.867V17H11.078V8.547h2.133l.063,1.008a2.092,2.092,0,0,1,1.883-1.164,2.366,2.366,0,0,1,.7.1ZM21.578,17a2.507,2.507,0,0,1-.227-.758,2.732,2.732,0,0,1-2.133.914,3,3,0,0,1-2.059-.719,2.312,2.312,0,0,1-.816-1.812,2.389,2.389,0,0,1,1-2.062,4.915,4.915,0,0,1,2.879-.727h1.039v-.484a1.393,1.393,0,0,0-.3-.937,1.183,1.183,0,0,0-.949-.352,1.345,1.345,0,0,0-.895.273.929.929,0,0,0-.324.75H16.531a2.268,2.268,0,0,1,.453-1.359,3,3,0,0,1,1.281-.98,4.669,4.669,0,0,1,1.859-.355,3.689,3.689,0,0,1,2.48.785,2.747,2.747,0,0,1,.918,2.207v3.664a4.041,4.041,0,0,0,.336,1.82V17Zm-1.867-1.57a1.945,1.945,0,0,0,.922-.223,1.462,1.462,0,0,0,.625-.6V13.156h-.844q-1.7,0-1.8,1.172l-.008.133a.9.9,0,0,0,.3.7A1.153,1.153,0,0,0,19.711,15.43Zm8.141-.25h4.133V17H24.969V15.625l3.977-5.25H25.086V8.547h6.773V9.883Zm5.07-2.484a5.013,5.013,0,0,1,.484-2.242A3.546,3.546,0,0,1,34.8,8.93a4.069,4.069,0,0,1,2.113-.539,3.849,3.849,0,0,1,2.793,1.047,4.2,4.2,0,0,1,1.207,2.844l.016.578a4.418,4.418,0,0,1-1.086,3.121,4.209,4.209,0,0,1-5.832,0,4.5,4.5,0,0,1-1.09-3.187Zm2.258.164a3.151,3.151,0,0,0,.453,1.84,1.629,1.629,0,0,0,2.578.008,3.448,3.448,0,0,0,.461-2.012,3.12,3.12,0,0,0-.461-1.828,1.5,1.5,0,0,0-1.3-.648,1.475,1.475,0,0,0-1.281.645A3.506,3.506,0,0,0,35.18,12.859Zm15.875-2.2a6.134,6.134,0,0,0-.812-.062,1.654,1.654,0,0,0-1.68.867V17H46.3V8.547h2.133L48.5,9.555a2.092,2.092,0,0,1,1.883-1.164,2.366,2.366,0,0,1,.7.1Zm4.977,6.492A4.15,4.15,0,0,1,53,16.016a4.054,4.054,0,0,1-1.168-3.039v-.219a5.106,5.106,0,0,1,.492-2.277,3.612,3.612,0,0,1,1.395-1.547,3.914,3.914,0,0,1,2.059-.543,3.508,3.508,0,0,1,2.73,1.094,4.444,4.444,0,0,1,1,3.1v.922H54.125a2.1,2.1,0,0,0,.66,1.328,2,2,0,0,0,1.395.5,2.437,2.437,0,0,0,2.039-.945l1.109,1.242a3.389,3.389,0,0,1-1.375,1.121A4.511,4.511,0,0,1,56.031,17.156Zm-.258-6.937a1.414,1.414,0,0,0-1.09.453,2.341,2.341,0,0,0-.535,1.3h3.141v-.18a1.669,1.669,0,0,0-.406-1.16A1.459,1.459,0,0,0,55.773,10.219Zm4.688,2.492a4.954,4.954,0,0,1,.926-3.133,3,3,0,0,1,2.5-1.187,2.631,2.631,0,0,1,2.164.953l.094-.8h2.047v8.172a3.613,3.613,0,0,1-.5,1.93,3.236,3.236,0,0,1-1.418,1.25,4.985,4.985,0,0,1-2.141.43,4.635,4.635,0,0,1-1.812-.371A3.217,3.217,0,0,1,60.977,19l1-1.375a2.645,2.645,0,0,0,2.047.945,1.936,1.936,0,0,0,1.4-.48,1.8,1.8,0,0,0,.5-1.363v-.453a2.612,2.612,0,0,1-2.055.883A2.992,2.992,0,0,1,61.4,15.965a4.953,4.953,0,0,1-.941-3.16Zm2.258.164a3.076,3.076,0,0,0,.461,1.8,1.467,1.467,0,0,0,1.266.652,1.568,1.568,0,0,0,1.477-.773V11a1.565,1.565,0,0,0-1.461-.773,1.476,1.476,0,0,0-1.277.664A3.467,3.467,0,0,0,62.719,12.875Zm12.266,3.266a2.831,2.831,0,0,1-2.312,1.016,2.67,2.67,0,0,1-2.074-.781,3.335,3.335,0,0,1-.73-2.289V8.547h2.258v5.461q0,1.32,1.2,1.32a1.631,1.631,0,0,0,1.578-.8V8.547h2.266V17H75.047ZM81.258,17H78.992V5h2.266Zm6.758,0a2.507,2.507,0,0,1-.227-.758,2.732,2.732,0,0,1-2.133.914,3,3,0,0,1-2.059-.719,2.312,2.312,0,0,1-.816-1.812,2.389,2.389,0,0,1,1-2.062,4.915,4.915,0,0,1,2.879-.727H87.7v-.484a1.393,1.393,0,0,0-.3-.937,1.183,1.183,0,0,0-.949-.352,1.345,1.345,0,0,0-.895.273.929.929,0,0,0-.324.75H82.969a2.268,2.268,0,0,1,.453-1.359,3,3,0,0,1,1.281-.98,4.669,4.669,0,0,1,1.859-.355,3.689,3.689,0,0,1,2.48.785,2.747,2.747,0,0,1,.918,2.207v3.664a4.041,4.041,0,0,0,.336,1.82V17Zm-1.867-1.57a1.945,1.945,0,0,0,.922-.223,1.462,1.462,0,0,0,.625-.6V13.156h-.844q-1.7,0-1.8,1.172l-.008.133a.9.9,0,0,0,.3.7A1.153,1.153,0,0,0,86.148,15.43Zm10.3-4.766a6.134,6.134,0,0,0-.812-.062,1.654,1.654,0,0,0-1.68.867V17H91.7V8.547h2.133l.063,1.008a2.092,2.092,0,0,1,1.883-1.164,2.366,2.366,0,0,1,.7.1Z" transform="translate(755.25 4993)" fill="#fff"/>
    <path id="Trazado_772910" data-name="Trazado 772910" d="M1.016,17V5.625H5a5.232,5.232,0,0,1,3.141.793,2.712,2.712,0,0,1,1.07,2.324,2.57,2.57,0,0,1-.43,1.473,2.482,2.482,0,0,1-1.2.934,2.4,2.4,0,0,1,1.379.883,2.61,2.61,0,0,1,.5,1.625,3,3,0,0,1-1.047,2.484A4.713,4.713,0,0,1,5.438,17Zm2.344-4.953v3.07H5.367a1.938,1.938,0,0,0,1.293-.395,1.353,1.353,0,0,0,.465-1.09,1.428,1.428,0,0,0-1.617-1.586Zm0-1.656H5.094q1.773-.031,1.773-1.414a1.307,1.307,0,0,0-.449-1.113A2.363,2.363,0,0,0,5,7.523H3.359Zm12.469.273a6.134,6.134,0,0,0-.812-.062,1.654,1.654,0,0,0-1.68.867V17H11.078V8.547h2.133l.063,1.008a2.092,2.092,0,0,1,1.883-1.164,2.366,2.366,0,0,1,.7.1ZM21.578,17a2.507,2.507,0,0,1-.227-.758,2.732,2.732,0,0,1-2.133.914,3,3,0,0,1-2.059-.719,2.312,2.312,0,0,1-.816-1.812,2.389,2.389,0,0,1,1-2.062,4.915,4.915,0,0,1,2.879-.727h1.039v-.484a1.393,1.393,0,0,0-.3-.937,1.183,1.183,0,0,0-.949-.352,1.345,1.345,0,0,0-.895.273.929.929,0,0,0-.324.75H16.531a2.268,2.268,0,0,1,.453-1.359,3,3,0,0,1,1.281-.98,4.669,4.669,0,0,1,1.859-.355,3.689,3.689,0,0,1,2.48.785,2.747,2.747,0,0,1,.918,2.207v3.664a4.041,4.041,0,0,0,.336,1.82V17Zm-1.867-1.57a1.945,1.945,0,0,0,.922-.223,1.462,1.462,0,0,0,.625-.6V13.156h-.844q-1.7,0-1.8,1.172l-.008.133a.9.9,0,0,0,.3.7A1.153,1.153,0,0,0,19.711,15.43Zm8.141-.25h4.133V17H24.969V15.625l3.977-5.25H25.086V8.547h6.773V9.883Zm5.07-2.484a5.013,5.013,0,0,1,.484-2.242A3.546,3.546,0,0,1,34.8,8.93a4.069,4.069,0,0,1,2.113-.539,3.849,3.849,0,0,1,2.793,1.047,4.2,4.2,0,0,1,1.207,2.844l.016.578a4.418,4.418,0,0,1-1.086,3.121,4.209,4.209,0,0,1-5.832,0,4.5,4.5,0,0,1-1.09-3.187Zm2.258.164a3.151,3.151,0,0,0,.453,1.84,1.629,1.629,0,0,0,2.578.008,3.448,3.448,0,0,0,.461-2.012,3.12,3.12,0,0,0-.461-1.828,1.5,1.5,0,0,0-1.3-.648,1.475,1.475,0,0,0-1.281.645A3.506,3.506,0,0,0,35.18,12.859ZM51.2,17a2.507,2.507,0,0,1-.227-.758,2.732,2.732,0,0,1-2.133.914,3,3,0,0,1-2.059-.719,2.312,2.312,0,0,1-.816-1.812,2.389,2.389,0,0,1,1-2.062,4.915,4.915,0,0,1,2.879-.727h1.039v-.484a1.393,1.393,0,0,0-.3-.937,1.183,1.183,0,0,0-.949-.352,1.345,1.345,0,0,0-.895.273.929.929,0,0,0-.324.75H46.156a2.268,2.268,0,0,1,.453-1.359,3,3,0,0,1,1.281-.98,4.669,4.669,0,0,1,1.859-.355,3.689,3.689,0,0,1,2.48.785,2.747,2.747,0,0,1,.918,2.207v3.664a4.041,4.041,0,0,0,.336,1.82V17Zm-1.867-1.57a1.945,1.945,0,0,0,.922-.223,1.462,1.462,0,0,0,.625-.6V13.156h-.844q-1.7,0-1.8,1.172l-.008.133a.9.9,0,0,0,.3.7A1.153,1.153,0,0,0,49.336,15.43Zm8.25-8.961V8.547h1.445V10.2H57.586v4.219a1.007,1.007,0,0,0,.18.672.9.9,0,0,0,.688.2,3.6,3.6,0,0,0,.664-.055v1.711a4.648,4.648,0,0,1-1.367.2,2.156,2.156,0,0,1-2.422-2.4V10.2H54.094V8.547h1.234V6.469Zm7.453,4.2a6.134,6.134,0,0,0-.812-.062,1.654,1.654,0,0,0-1.68.867V17H60.289V8.547h2.133l.063,1.008a2.092,2.092,0,0,1,1.883-1.164,2.366,2.366,0,0,1,.7.1ZM70.789,17a2.507,2.507,0,0,1-.227-.758,2.732,2.732,0,0,1-2.133.914,3,3,0,0,1-2.059-.719,2.312,2.312,0,0,1-.816-1.812,2.389,2.389,0,0,1,1-2.062,4.915,4.915,0,0,1,2.879-.727h1.039v-.484a1.393,1.393,0,0,0-.3-.937,1.183,1.183,0,0,0-.949-.352,1.345,1.345,0,0,0-.895.273.929.929,0,0,0-.324.75H65.742A2.268,2.268,0,0,1,66.2,9.727a3,3,0,0,1,1.281-.98,4.669,4.669,0,0,1,1.859-.355,3.689,3.689,0,0,1,2.48.785,2.747,2.747,0,0,1,.918,2.207v3.664a4.041,4.041,0,0,0,.336,1.82V17Zm-1.867-1.57a1.945,1.945,0,0,0,.922-.223,1.462,1.462,0,0,0,.625-.6V13.156h-.844q-1.7,0-1.8,1.172l-.008.133a.9.9,0,0,0,.3.7A1.153,1.153,0,0,0,68.922,15.43Zm10.125-.766a.727.727,0,0,0-.41-.652,4.659,4.659,0,0,0-1.316-.426Q74.3,12.953,74.3,11.023a2.323,2.323,0,0,1,.934-1.879,3.766,3.766,0,0,1,2.441-.754,4.053,4.053,0,0,1,2.574.758,2.388,2.388,0,0,1,.965,1.969H78.961a1.092,1.092,0,0,0-.312-.8A1.322,1.322,0,0,0,77.672,10a1.351,1.351,0,0,0-.883.258.814.814,0,0,0-.312.656.7.7,0,0,0,.355.605,3.657,3.657,0,0,0,1.2.4,9.8,9.8,0,0,1,1.422.379,2.336,2.336,0,0,1,1.789,2.273,2.2,2.2,0,0,1-.992,1.871,4.28,4.28,0,0,1-2.562.715,4.47,4.47,0,0,1-1.887-.379,3.166,3.166,0,0,1-1.293-1.039,2.414,2.414,0,0,1-.469-1.426H76.18a1.179,1.179,0,0,0,.445.922,1.766,1.766,0,0,0,1.109.32,1.635,1.635,0,0,0,.98-.246A.766.766,0,0,0,79.047,14.664ZM87.594,17a2.507,2.507,0,0,1-.227-.758,2.732,2.732,0,0,1-2.133.914,3,3,0,0,1-2.059-.719,2.312,2.312,0,0,1-.816-1.812,2.389,2.389,0,0,1,1-2.062,4.915,4.915,0,0,1,2.879-.727h1.039v-.484a1.393,1.393,0,0,0-.3-.937,1.183,1.183,0,0,0-.949-.352,1.345,1.345,0,0,0-.895.273.929.929,0,0,0-.324.75H82.547A2.268,2.268,0,0,1,83,9.727a3,3,0,0,1,1.281-.98,4.669,4.669,0,0,1,1.859-.355,3.689,3.689,0,0,1,2.48.785,2.747,2.747,0,0,1,.918,2.207v3.664a4.041,4.041,0,0,0,.336,1.82V17Zm-1.867-1.57a1.945,1.945,0,0,0,.922-.223,1.462,1.462,0,0,0,.625-.6V13.156H86.43q-1.7,0-1.8,1.172l-.008.133a.9.9,0,0,0,.3.7A1.153,1.153,0,0,0,85.727,15.43Zm5.2-2.719a5.094,5.094,0,0,1,.887-3.148,2.877,2.877,0,0,1,2.426-1.172,2.589,2.589,0,0,1,2.039.922V5h2.266V17H96.5l-.109-.9a2.657,2.657,0,0,1-2.172,1.055,2.869,2.869,0,0,1-2.395-1.176A5.258,5.258,0,0,1,90.922,12.711Zm2.258.164a3.328,3.328,0,0,0,.414,1.82,1.349,1.349,0,0,0,1.2.633,1.511,1.511,0,0,0,1.477-.883V11.109a1.489,1.489,0,0,0-1.461-.883Q93.18,10.227,93.18,12.875Zm6.758-.18a5.013,5.013,0,0,1,.484-2.242,3.546,3.546,0,0,1,1.395-1.523,4.069,4.069,0,0,1,2.113-.539,3.849,3.849,0,0,1,2.793,1.047,4.2,4.2,0,0,1,1.207,2.844l.016.578a4.418,4.418,0,0,1-1.086,3.121,4.209,4.209,0,0,1-5.832,0,4.5,4.5,0,0,1-1.09-3.187Zm2.258.164a3.151,3.151,0,0,0,.453,1.84,1.629,1.629,0,0,0,2.578.008,3.448,3.448,0,0,0,.461-2.012,3.12,3.12,0,0,0-.461-1.828,1.5,1.5,0,0,0-1.3-.648,1.475,1.475,0,0,0-1.281.645A3.506,3.506,0,0,0,102.2,12.859Zm11.719,1.8a.727.727,0,0,0-.41-.652,4.659,4.659,0,0,0-1.316-.426q-3.016-.633-3.016-2.562a2.323,2.323,0,0,1,.934-1.879,3.766,3.766,0,0,1,2.441-.754,4.053,4.053,0,0,1,2.574.758,2.388,2.388,0,0,1,.965,1.969h-2.258a1.092,1.092,0,0,0-.312-.8,1.322,1.322,0,0,0-.977-.316,1.351,1.351,0,0,0-.883.258.814.814,0,0,0-.312.656.7.7,0,0,0,.355.605,3.657,3.657,0,0,0,1.2.4,9.8,9.8,0,0,1,1.422.379,2.336,2.336,0,0,1,1.789,2.273,2.2,2.2,0,0,1-.992,1.871,4.28,4.28,0,0,1-2.562.715,4.47,4.47,0,0,1-1.887-.379,3.166,3.166,0,0,1-1.293-1.039,2.414,2.414,0,0,1-.469-1.426h2.141a1.179,1.179,0,0,0,.445.922,1.766,1.766,0,0,0,1.109.32,1.635,1.635,0,0,0,.98-.246A.766.766,0,0,0,113.914,14.664Z" transform="translate(932.597 4993)" fill="#fff"/>
    <path id="Trazado_772880" data-name="Trazado 772880" d="M-35.043-6677.783v-50.656" transform="translate(659 11656.783)" fill="none" stroke="#727997" stroke-width="4"/>
    <path id="Trazado_772881" data-name="Trazado 772881" d="M-35.043-6677.783v-50.656" transform="translate(842.043 11656.783)" fill="none" stroke="#727997" stroke-width="4"/>
    <path id="Trazado_772882" data-name="Trazado 772882" d="M-35.043-6677.783v-50.656" transform="translate(1027.043 11656.783)" fill="none" stroke="#727997" stroke-width="4"/>
  </g>
</svg>
