<svg xmlns="http://www.w3.org/2000/svg" width="376" height="431" viewBox="0 0 376 431">
  <g id="Grupo_1055049" data-name="Grupo 1055049" transform="translate(1533.33 8361.759)">
    <rect id="Rectángulo_362215" data-name="Rectángulo 362215" width="376" height="431" transform="translate(-1533.33 -8361.759)" fill="#727997"/>
    <g id="Grupo_1054961" data-name="Grupo 1054961" transform="translate(-2711.259 -713.934)">
      <path id="Trazado_106510" data-name="Trazado 106510" d="M1789.3,5101.866" transform="translate(-507.508 -12521.688)"/>
      <g id="Grupo_55997" data-name="Grupo 55997" transform="translate(1322.156 -7581.793)">
        <path id="Trazado_106511" data-name="Trazado 106511" d="M1849.931,5214.336h20.589l16.324-45.7s3.963-17.361,3.963-23.118,1.132-16.135,1.132-16.135l8.586-23.117s6.039,25.948,7.172,34.346,2.453,26.891,0,39.063-6.982,34.656-6.982,34.656h75.3l43.593-.4-6.7-39.629s-2.044-27.71-.912-31.2,8.806-41.014,8.806-41.014l11.355,34.282s5.85,38.592,6.982,41.707,13.493,36.259,13.493,36.259h22.74l-12.361-68.624-3.491-14.531-1.416-9.341-7.076-55.01s-5.284-30.288-12.078-36.421-22.362-6.039-22.362-6.039l-33.4-11.983-1.888-30.76-37.082,1.6-4.812-2.3s.755,29.062-1.133,31.327-31.075,9.938-31.075,9.938-18.242-.88-26.8,13.336-12.833,64.414-12.833,64.414l-2.893,30.7s-11.449,35.478-11.449,38.749-3.291,44.941-3.291,44.941" transform="translate(-1849.931 -4899.471)" fill="#e7e7e8"/>
        <g id="Grupo_55996" data-name="Grupo 55996" transform="translate(0 76.558)">
          <path id="Trazado_106512" data-name="Trazado 106512" d="M1983.058,5009.923s12.1,4.875,22.923,4.819a53.246,53.246,0,0,0,21.7-4.819l-1.887-30.76-32.081-5.6-9.813,4.907S1983.165,5001.655,1983.058,5009.923Z" transform="translate(-1894.431 -4973.564)" fill="#d3d3d3"/>
          <path id="Trazado_106513" data-name="Trazado 106513" d="M1890.807,5166.245c0-5.755,1.132-16.136,1.132-16.136l8.586-23.116c-5.787-18.84-1.51-45.574,3.271-52.62s3.271-20.128,3.271-20.128c.861-2.582-.1-7.181-1.364-11.319-4.515.142-18.226,1.563-25.308,13.332-8.555,14.216-12.833,64.414-12.833,64.414l-2.893,30.7s-11.449,35.478-11.449,38.75-3.291,44.941-3.291,44.941h20.589l16.324-45.7S1890.807,5172,1890.807,5166.245Z" transform="translate(-1849.931 -4996.75)" fill="#d3d3d3"/>
          <path id="Trazado_106514" data-name="Trazado 106514" d="M2144.8,5167.444l-3.491-14.531-1.415-9.341-7.077-55.01s-5.284-30.288-12.078-36.422-22.362-6.038-22.362-6.038l-.43-.154c-1.763,5.074-3.1,10.012-3.1,10.012s-1.509,13.085,3.272,20.13c4.284,6.314,8.166,28.447,4.757,46.535l.033,2.151,11.038,33.326s5.85,38.592,6.982,41.705,13.493,36.262,13.493,36.262h22.74Z" transform="translate(-1931.721 -4997.76)" fill="#d3d3d3"/>
        </g>
        <line id="Línea_386" data-name="Línea 386" y2="181.147" transform="translate(110.833 132.055)" fill="none" stroke="#a8a8a8" stroke-linecap="round" stroke-linejoin="round" stroke-width="2" stroke-dasharray="5"/>
        <path id="Trazado_106515" data-name="Trazado 106515" d="M1921.961,5134.762s100.772,5.661,124.172,0" transform="translate(-1874.008 -4950.889)" fill="none" stroke="#a8a8a8" stroke-linecap="round" stroke-linejoin="round" stroke-width="2" stroke-dasharray="5"/>
        <path id="Trazado_106516" data-name="Trazado 106516" d="M2041.443,5251.548s-69.069,4.53-99.64,0" transform="translate(-1880.641 -4989.927)" fill="none" stroke="#a8a8a8" stroke-linecap="round" stroke-linejoin="round" stroke-width="2" stroke-dasharray="5"/>
        <path id="Trazado_106517" data-name="Trazado 106517" d="M1980.543,4999.833" transform="translate(-1893.59 -4905.788)" fill="none" stroke="#e7e7e8" stroke-linecap="round" stroke-linejoin="round" stroke-width="2"/>
        <circle id="Elipse_4149" data-name="Elipse 4149" cx="1.56" cy="1.56" r="1.56" transform="translate(109.598 124.288)" fill="#e7e7e8"/>
        <path id="Trazado_106518" data-name="Trazado 106518" d="M1978.765,4945.554l.006.012c2.747-1.993,16.441-10.4,41.249-1.54,6.2-8.433,8.67-18.158,10.837-28.774,2.73-13.372,3.2-27.544-3.053-40.049a29.162,29.162,0,0,0-11.19-12.326c-4.783-2.762-10.363-3.82-15.879-4.2l-.44-.028c-13.851-.857-26.2,4.758-30.479,18.779-7.217,23.67,2.021,53.112,2.021,53.112Z" transform="translate(-1889.083 -4858.568)" fill="#e7e7e8"/>
      </g>
      <path id="Trazado_106519" data-name="Trazado 106519" d="M1649.238,5214.336h20.589l16.324-45.7s3.963-17.361,3.963-23.118,1.132-16.135,1.132-16.135l8.587-23.117s6.039,25.948,7.172,34.346,2.453,26.891,0,39.063-6.982,34.656-6.982,34.656h75.3l43.593-.4-6.7-39.629s-2.045-27.71-.912-31.2,8.807-41.014,8.807-41.014l11.354,34.282s5.85,38.592,6.982,41.707,13.493,36.259,13.493,36.259h22.74l-12.361-68.624-3.491-14.531-1.415-9.341-7.077-55.01s-5.284-30.288-12.078-36.421-22.362-6.039-22.362-6.039l-33.4-11.983-1.888-30.76-37.082,1.6-4.812-2.3s.755,29.062-1.133,31.327-31.075,9.938-31.075,9.938-18.242-.88-26.8,13.336-12.832,64.414-12.832,64.414l-2.894,30.7s-11.449,35.478-11.449,38.749-3.291,44.941-3.291,44.941" transform="translate(-460.691 -12481.264)" fill="#e7e7e8"/>
      <g id="Grupo_55998" data-name="Grupo 55998" transform="translate(1188.547 -7500.33)">
        <path id="Trazado_106520" data-name="Trazado 106520" d="M1781.929,5012.262s7.558,5.961,23.258,6.516c13.352.472,22.013-5.4,22.013-5.4l-2.245-31.752-37.082,1.6-4.812-2.3S1782.036,5003.994,1781.929,5012.262Z" transform="translate(-1693.592 -4980.935)" fill="#d3d3d3"/>
        <path id="Trazado_106521" data-name="Trazado 106521" d="M1690.114,5166.245c0-5.755,1.132-16.136,1.132-16.136l8.587-23.116c-5.787-18.84-1.51-45.574,3.271-52.62s3.271-20.128,3.271-20.128c.861-2.582-.1-7.181-1.364-11.319-4.515.142-18.225,1.563-25.307,13.332-8.555,14.216-12.832,64.414-12.832,64.414l-2.894,30.7s-11.449,35.478-11.449,38.75-3.291,44.941-3.291,44.941h20.589l16.324-45.7S1690.114,5172,1690.114,5166.245Z" transform="translate(-1649.238 -5001.655)" fill="#d3d3d3"/>
        <path id="Trazado_106522" data-name="Trazado 106522" d="M1944.1,5167.444l-3.491-14.531-1.416-9.341-7.077-55.01s-5.284-30.288-12.078-36.422-22.362-6.038-22.362-6.038l-.429-.154c-1.764,5.074-3.1,10.012-3.1,10.012s-1.51,13.085,3.271,20.13c4.285,6.314,8.166,28.447,4.757,46.535l.033,2.151,11.038,33.326s5.85,38.592,6.982,41.705,13.493,36.262,13.493,36.262h22.74Z" transform="translate(-1731.028 -5002.667)" fill="#d3d3d3"/>
      </g>
      <path id="Trazado_106523" data-name="Trazado 106523" d="M1800.042,4858.681l-.439-.028c-13.852-.857-26.2,4.758-30.479,18.779-7.217,23.67,2.02,53.112,2.02,53.112l6.928,15.011c3.936,8.528,16.582,13.962,25.277,11.317,4.591-1.4,8.436-4.555,11.815-7.963,9.394-9.473,12.4-20.927,15-33.657,2.729-13.372,3.2-27.543-3.053-40.048a29.161,29.161,0,0,0-11.19-12.326C1811.138,4860.115,1805.559,4859.058,1800.042,4858.681Z" transform="translate(-499.843 -12440.36)" fill="#e7e7e8"/>
      <line id="Línea_387" data-name="Línea 387" y2="90.494" transform="translate(1299.38 -7577.868)" fill="none" stroke="#a8a8a8" stroke-linecap="round" stroke-linejoin="round" stroke-width="2" stroke-dasharray="5"/>
      <line id="Línea_388" data-name="Línea 388" y2="181.147" transform="translate(1299.38 -7449.739)" fill="none" stroke="#a8a8a8" stroke-linecap="round" stroke-linejoin="round" stroke-width="2" stroke-dasharray="5"/>
      <path id="Trazado_106524" data-name="Trazado 106524" d="M1721.268,5134.762s100.773,5.661,124.172,0" transform="translate(-484.768 -12532.683)" fill="none" stroke="#a8a8a8" stroke-linecap="round" stroke-linejoin="round" stroke-width="2" stroke-dasharray="5"/>
      <path id="Trazado_106525" data-name="Trazado 106525" d="M1840.75,5251.548s-69.069,4.53-99.64,0" transform="translate(-491.4 -12571.721)" fill="none" stroke="#a8a8a8" stroke-linecap="round" stroke-linejoin="round" stroke-width="2" stroke-dasharray="5"/>
      <path id="Trazado_106526" data-name="Trazado 106526" d="M1779.85,4999.833" transform="translate(-504.35 -12487.58)" fill="none" stroke="#e7e7e8" stroke-linecap="round" stroke-linejoin="round" stroke-width="2"/>
      <circle id="Elipse_4150" data-name="Elipse 4150" cx="1.56" cy="1.56" r="1.56" transform="translate(1298.145 -7457.505)" fill="#e7e7e8"/>
      <path id="Trazado_106527" data-name="Trazado 106527" d="M1768.178,4932.752s34.6,13.889,63.3,0" transform="translate(-500.448 -12465.158)" fill="none" stroke="#a8a8a8" stroke-linecap="round" stroke-linejoin="round" stroke-width="1.933" stroke-dasharray="4.832"/>
      <path id="Trazado_106528" data-name="Trazado 106528" d="M1790.384,5041.932v6.449s-5.1,6.835-10.568,10.193-13.965,1.344-21.891-3.358-19.249-19.464-19.249-19.464l24.776-7s4.852,4.881,9.947,7.166,16.984,3.078,16.984,3.078Z" transform="translate(-490.587 -12497.247)" fill="#f5947a"/>
      <path id="Trazado_106529" data-name="Trazado 106529" d="M1816.346,5041.848v6.449s5.095,6.169,10.568,9.528,13.964,1.343,21.891-3.359,19.249-18.8,19.249-18.8l-25.37-7.169s-4.258,5.715-9.353,8-16.984,2.413-16.984,2.413Z" transform="translate(-516.549 -12497.163)" fill="#f5947a"/>
      <path id="Trazado_106530" data-name="Trazado 106530" d="M2016.437,5028.142a27.275,27.275,0,0,1-8.514,6.24c-5.1,2.283-16.984,1.746-16.984,1.746s-11.889.537-16.984-1.746a25.472,25.472,0,0,1-8.353-6.24l-26.37,7.406s11.664,14.229,19.249,19.464c14.293,9.866,49.9,11.5,64.917-.666,7.161-5.8,19.249-18.8,19.249-18.8Z" transform="translate(-557.625 -12497.044)" fill="#73d8c0"/>
    </g>
  </g>
</svg>
