<svg xmlns="http://www.w3.org/2000/svg" width="376" height="431" viewBox="0 0 376 431">
  <g id="Grupo_1055048" data-name="Grupo 1055048" transform="translate(1157.33 8912.759)">
    <rect id="Rectángulo_362211" data-name="Rectángulo 362211" width="376" height="431" transform="translate(-1157.33 -8912.759)" fill="#12263f"/>
    <g id="Grupo_1054947" data-name="Grupo 1054947" transform="translate(-1145.699 -8847.347)">
      <path id="Trazado_772762" data-name="Trazado 772762" d="M1789.3,5787.273" transform="translate(-1696.764 -5626.532)"/>
      <g id="Grupo_1054853" data-name="Grupo 1054853" transform="translate(132.593 0.001)">
        <path id="Trazado_106490" data-name="Trazado 106490" d="M1849.931,5897.971h20.433l16.2-45.349s3.933-17.229,3.933-22.941,1.123-16.012,1.123-16.012l8.521-22.942s5.993,25.751,7.117,34.085,2.434,26.688,0,38.767-6.929,34.394-6.929,34.394h74.724l43.261-.4-6.649-39.329s-2.029-27.5-.9-30.963,8.739-40.7,8.739-40.7l11.269,34.023s5.805,38.3,6.929,41.387,13.39,35.986,13.39,35.986h22.568l-12.267-68.1-3.464-14.42-1.4-9.271-7.023-54.592s-5.244-30.057-11.986-36.145-22.192-5.992-22.192-5.992l-33.148-11.893-1.873-30.527-36.8,1.592-4.775-2.278s.749,28.841-1.124,31.088-30.838,9.863-30.838,9.863-18.1-.874-26.594,13.233-12.735,63.925-12.735,63.925l-2.871,30.464s-11.362,35.208-11.362,38.455-3.266,44.6-3.266,44.6" transform="translate(-1849.931 -5585.498)" fill="#e7e7e8"/>
        <g id="Grupo_55992" data-name="Grupo 55992" transform="translate(0 75.975)">
          <path id="Trazado_106491" data-name="Trazado 106491" d="M1983.058,5695.055s12.01,4.837,22.749,4.782a52.862,52.862,0,0,0,21.535-4.782l-1.873-30.526-31.837-5.556-9.739,4.869S1983.164,5686.85,1983.058,5695.055Z" transform="translate(-1895.104 -5658.972)" fill="#d3d3d3"/>
          <path id="Trazado_106492" data-name="Trazado 106492" d="M1890.5,5850.714c0-5.712,1.123-16.012,1.123-16.012l8.521-22.942c-5.743-18.7-1.5-45.228,3.246-52.219s3.247-19.977,3.247-19.977c.854-2.563-.1-7.125-1.354-11.232-4.481.14-18.088,1.552-25.115,13.23-8.49,14.108-12.735,63.924-12.735,63.924l-2.871,30.465s-11.362,35.208-11.362,38.453-3.266,44.6-3.266,44.6h20.433l16.2-45.349S1890.5,5856.426,1890.5,5850.714Z" transform="translate(-1849.931 -5682.507)" fill="#d3d3d3"/>
          <path id="Trazado_106493" data-name="Trazado 106493" d="M2144.415,5851.928l-3.464-14.421-1.4-9.27-7.023-54.591s-5.244-30.058-11.986-36.145-22.192-5.994-22.192-5.994l-.426-.153c-1.75,5.036-3.078,9.937-3.078,9.937s-1.5,12.984,3.247,19.977c4.252,6.268,8.1,28.231,4.721,46.182l.033,2.135,10.954,33.073s5.805,38.3,6.929,41.387,13.391,35.986,13.391,35.986h22.566Z" transform="translate(-1932.958 -5683.534)" fill="#d3d3d3"/>
        </g>
        <line id="Línea_383" data-name="Línea 383" y2="176.798" transform="translate(109.99 133.033)" fill="none" stroke="#a8a8a8" stroke-linecap="round" stroke-linejoin="round" stroke-width="2" stroke-dasharray="5"/>
        <path id="Trazado_106494" data-name="Trazado 106494" d="M1921.961,5820.168s100.007,5.618,123.229,0" transform="translate(-1874.373 -5637.694)" fill="none" stroke="#a8a8a8" stroke-linecap="round" stroke-linejoin="round" stroke-width="2" stroke-dasharray="5"/>
        <path id="Trazado_106495" data-name="Trazado 106495" d="M2040.686,5936.958s-68.544,4.494-98.883,0" transform="translate(-1881.105 -5677.324)" fill="none" stroke="#a8a8a8" stroke-linecap="round" stroke-linejoin="round" stroke-width="2" stroke-dasharray="5"/>
        <path id="Trazado_106496" data-name="Trazado 106496" d="M1980.543,5685.24" transform="translate(-1894.251 -5591.91)" fill="none" stroke="#e7e7e8" stroke-linecap="round" stroke-linejoin="round" stroke-width="2"/>
        <ellipse id="Elipse_4147" data-name="Elipse 4147" cx="1.548" cy="1.548" rx="1.548" ry="1.548" transform="translate(108.765 123.343)" fill="#e7e7e8"/>
        <path id="Trazado_106497" data-name="Trazado 106497" d="M1978.676,5630.3l.006.011c2.726-1.978,16.316-10.326,40.935-1.528,6.157-8.369,8.6-18.019,10.755-28.555,2.709-13.27,3.179-27.334-3.03-39.745a28.938,28.938,0,0,0-11.1-12.232c-4.747-2.741-10.284-3.791-15.759-4.165l-.436-.028c-13.746-.851-26.006,4.722-30.247,18.637-7.162,23.49,2,52.709,2,52.709Z" transform="translate(-1889.676 -5543.976)" fill="#e7e7e8"/>
        <path id="Trazado_106498" data-name="Trazado 106498" d="M2043.745,5725.414s8.428,58.023,11.423,59.773c0,0-42.077,6.619-68.046,4.747s-48.667-4.747-48.667-4.747l-3.07-42.073-1.679-19.849,32.317-9.867s24.346,10.983,44.573.124Z" transform="translate(-1878.358 -5601.466)" fill="#f5947a"/>
      </g>
      <path id="Trazado_772763" data-name="Trazado 772763" d="M1649.238,5897.971h20.433l16.2-45.349s3.933-17.229,3.933-22.941,1.123-16.012,1.123-16.012l8.521-22.942s5.993,25.751,7.117,34.085,2.434,26.688,0,38.767-6.929,34.394-6.929,34.394h74.724l43.261-.4-6.648-39.329s-2.029-27.5-.905-30.963,8.74-40.7,8.74-40.7l11.268,34.023s5.8,38.3,6.929,41.387,13.391,35.986,13.391,35.986h22.567l-12.267-68.1-3.465-14.42-1.4-9.271-7.023-54.592s-5.244-30.057-11.986-36.145-22.192-5.992-22.192-5.992l-33.148-11.893-1.873-30.527-36.8,1.592-4.776-2.278s.75,28.841-1.124,31.088-30.838,9.863-30.838,9.863-18.1-.874-26.594,13.233-12.735,63.925-12.735,63.925l-2.871,30.464s-11.362,35.208-11.362,38.455-3.266,44.6-3.266,44.6" transform="translate(-1649.238 -5585.497)" fill="#e7e7e8"/>
      <g id="Grupo_1054854" data-name="Grupo 1054854" transform="translate(0 80.845)">
        <path id="Trazado_106500" data-name="Trazado 106500" d="M1781.929,5697.431s17.807,6.335,23.081,6.467c5.957.147,21.846-5.358,21.846-5.358l-2.228-31.511-36.8,1.592-4.775-2.278S1782.035,5689.226,1781.929,5697.431Z" transform="translate(-1694.263 -5666.342)" fill="#d3d3d3"/>
        <path id="Trazado_106501" data-name="Trazado 106501" d="M1689.8,5850.714c0-5.712,1.123-16.012,1.123-16.012l8.521-22.942c-5.743-18.7-1.5-45.228,3.246-52.219s3.246-19.977,3.246-19.977c.854-2.563-.1-7.125-1.354-11.232-4.481.14-18.087,1.552-25.115,13.23-8.49,14.108-12.735,63.924-12.735,63.924l-2.871,30.465s-11.362,35.208-11.362,38.453-3.266,44.6-3.266,44.6h20.433l16.2-45.349S1689.8,5856.426,1689.8,5850.714Z" transform="translate(-1649.238 -5687.376)" fill="#d3d3d3"/>
        <path id="Trazado_106502" data-name="Trazado 106502" d="M1943.722,5851.928l-3.464-14.421-1.4-9.27-7.023-54.591s-5.244-30.058-11.986-36.145-22.192-5.994-22.192-5.994l-.426-.153c-1.75,5.036-3.077,9.937-3.077,9.937s-1.5,12.984,3.246,19.977c4.252,6.268,8.1,28.231,4.721,46.182l.033,2.135,10.954,33.073s5.805,38.3,6.929,41.387,13.391,35.986,13.391,35.986h22.567Z" transform="translate(-1732.266 -5688.402)" fill="#d3d3d3"/>
      </g>
      <path id="Trazado_772764" data-name="Trazado 772764" d="M1799.786,5544.087l-.436-.028c-13.746-.851-26.005,4.723-30.247,18.637-7.162,23.49,2.005,52.709,2.005,52.709l6.875,14.9c3.906,8.463,16.456,13.856,25.085,11.23,4.556-1.386,8.372-4.521,11.726-7.9,9.322-9.4,12.306-20.768,14.886-33.4,2.709-13.27,3.178-27.335-3.03-39.745a28.934,28.934,0,0,0-11.1-12.232C1810.8,5545.51,1805.261,5544.461,1799.786,5544.087Z" transform="translate(-1688.983 -5543.975)" fill="#e7e7e8"/>
      <line id="Línea_523" data-name="Línea 523" y2="89.806" transform="translate(109.99 3.897)" fill="none" stroke="#a8a8a8" stroke-linecap="round" stroke-linejoin="round" stroke-width="2" stroke-dasharray="5"/>
      <line id="Línea_524" data-name="Línea 524" y2="176.137" transform="translate(109.99 133.034)" fill="none" stroke="#a8a8a8" stroke-linecap="round" stroke-linejoin="round" stroke-width="2" stroke-dasharray="5"/>
      <path id="Trazado_772765" data-name="Trazado 772765" d="M1721.268,5820.168s100.006,5.618,123.229,0" transform="translate(-1673.68 -5637.694)" fill="none" stroke="#a8a8a8" stroke-linecap="round" stroke-linejoin="round" stroke-width="2" stroke-dasharray="5"/>
      <path id="Trazado_772766" data-name="Trazado 772766" d="M1839.993,5936.958s-68.544,4.494-98.883,0" transform="translate(-1680.412 -5677.323)" fill="none" stroke="#a8a8a8" stroke-linecap="round" stroke-linejoin="round" stroke-width="2" stroke-dasharray="5"/>
      <path id="Trazado_772767" data-name="Trazado 772767" d="M1779.85,5685.24" transform="translate(-1693.558 -5591.909)" fill="none" stroke="#e7e7e8" stroke-linecap="round" stroke-linejoin="round" stroke-width="2"/>
      <ellipse id="Elipse_4755" data-name="Elipse 4755" cx="1.548" cy="1.548" rx="1.548" ry="1.548" transform="translate(108.765 123.344)" fill="#e7e7e8"/>
      <path id="Trazado_772768" data-name="Trazado 772768" d="M1768.178,5618.159s34.339,13.784,62.82,0" transform="translate(-1689.597 -5569.147)" fill="none" stroke="#a8a8a8" stroke-linecap="round" stroke-linejoin="round" stroke-width="1.933" stroke-dasharray="4.832"/>
      <path id="Trazado_772769" data-name="Trazado 772769" d="M1816.208,5786.146l24.129-71.362,30.513,10.065Z" transform="translate(-1705.895 -5601.935)" fill="#f5947a"/>
      <path id="Trazado_772770" data-name="Trazado 772770" d="M1787.149,5785.485l-24.565-72.651-31.064,10.248Z" transform="translate(-1677.158 -5601.272)" fill="#f5947a"/>
    </g>
  </g>
</svg>
