<svg xmlns="http://www.w3.org/2000/svg" width="376" height="431" viewBox="0 0 376 431">
  <g id="Grupo_1055046" data-name="Grupo 1055046" transform="translate(1909.33 8912.759)">
    <path id="Trazado_772793" data-name="Trazado 772793" d="M0,0H376V431H0Z" transform="translate(-1909.33 -8912.759)" fill="#d3deea"/>
    <g id="Grupo_1054946" data-name="Grupo 1054946" transform="translate(-1889.187 -8835.819)">
      <g id="Grupo_1054852" data-name="Grupo 1054852">
        <path id="Trazado_106457" data-name="Trazado 106457" d="M1751.773,4243.566s-7.327,26.985,1.55,38.262,45.972,19.194,45.972,19.194,12.293-5.038,13.752-5.278,18.973-30.471,18.733-31.191-16.075-25.433-16.075-25.433Z" transform="translate(-1685.645 -4192.822)" fill="#025157"/>
        <g id="Grupo_55988" data-name="Grupo 55988" transform="translate(127.402 0.707)">
          <path id="Trazado_106458" data-name="Trazado 106458" d="M1849.931,4512.23h19.633l15.566-43.574s3.779-16.555,3.779-22.043,1.079-15.386,1.079-15.386l8.188-22.043s5.758,24.743,6.838,32.75,2.339,25.642,0,37.249-6.658,33.047-6.658,33.047h71.8l41.568-.387-6.388-37.789s-1.95-26.422-.87-29.75,8.4-39.109,8.4-39.109l10.827,32.69s5.578,36.8,6.658,39.769,12.865,34.576,12.865,34.576H2064.9l-11.787-65.437-3.329-13.856-1.349-8.907-6.748-52.455s-5.039-28.881-11.517-34.729-21.323-5.758-21.323-5.758l-31.85-11.426-1.8-29.332-35.36,1.53-4.588-2.19s.72,27.712-1.08,29.872-29.631,9.477-29.631,9.477-17.4-.84-25.552,12.717-12.236,61.421-12.236,61.421l-2.759,29.271s-10.917,33.83-10.917,36.949-3.138,42.854-3.138,42.854" transform="translate(-1849.931 -4211.99)" fill="#e7e7e8"/>
          <g id="Grupo_55987" data-name="Grupo 55987" transform="translate(0 73.001)">
            <path id="Trazado_106459" data-name="Trazado 106459" d="M1984.438,4303.2l40.812.4-.979-15.962-30.591-5.338-9.357,4.679S1984.539,4295.313,1984.438,4303.2Z" transform="translate(-1899.01 -4282.299)" fill="#d3d3d3"/>
            <path id="Trazado_106460" data-name="Trazado 106460" d="M1888.908,4469.251c0-5.488,1.079-15.385,1.079-15.385l8.188-22.043c-5.518-17.964-1.44-43.457,3.119-50.175s3.12-19.194,3.12-19.194c.821-2.462-.1-6.847-1.3-10.792-4.305.134-17.379,1.49-24.132,12.712-8.158,13.556-12.236,61.421-12.236,61.421l-2.759,29.271s-10.917,33.83-10.917,36.949-3.138,42.854-3.138,42.854h19.633l15.566-43.573S1888.908,4474.74,1888.908,4469.251Z" transform="translate(-1849.931 -4307.629)" fill="#d3d3d3"/>
            <path id="Trazado_106461" data-name="Trazado 106461" d="M2142.466,4470.535l-3.329-13.856-1.35-8.907-6.748-52.454s-5.039-28.881-11.516-34.73-21.323-5.758-21.323-5.758l-.409-.146c-1.681,4.84-2.957,9.548-2.957,9.548s-1.439,12.475,3.12,19.193c4.085,6.022,7.786,27.126,4.536,44.374l.031,2.052,10.525,31.778s5.578,36.8,6.658,39.769,12.866,34.576,12.866,34.576h21.683Z" transform="translate(-1939.288 -4308.732)" fill="#d3d3d3"/>
          </g>
          <line id="Línea_375" data-name="Línea 375" y2="169.005" transform="translate(105.684 127.825)" fill="none" stroke="#a8a8a8" stroke-linecap="round" stroke-linejoin="round" stroke-width="2" stroke-dasharray="5"/>
          <path id="Trazado_106462" data-name="Trazado 106462" d="M1921.961,4443.5s96.091,5.4,118.4,0" transform="translate(-1876.236 -4268.166)" fill="none" stroke="#a8a8a8" stroke-linecap="round" stroke-linejoin="round" stroke-width="2" stroke-dasharray="5"/>
          <path id="Trazado_106463" data-name="Trazado 106463" d="M2036.814,4560.284s-65.86,4.318-95.011,0" transform="translate(-1883.482 -4310.814)" fill="none" stroke="#a8a8a8" stroke-linecap="round" stroke-linejoin="round" stroke-width="2" stroke-dasharray="5"/>
          <path id="Trazado_106464" data-name="Trazado 106464" d="M1980.543,4308.568" transform="translate(-1897.629 -4218.892)" fill="none" stroke="#e7e7e8" stroke-linecap="round" stroke-linejoin="round" stroke-width="2"/>
          <ellipse id="Elipse_4145" data-name="Elipse 4145" cx="1.488" cy="1.488" rx="1.488" ry="1.488" transform="translate(104.506 118.514)" fill="#e7e7e8"/>
          <path id="Trazado_106465" data-name="Trazado 106465" d="M1978.222,4250.248l.006.011c2.619-1.9,15.677-9.922,39.332-1.468,5.916-8.042,8.267-17.315,10.334-27.438,2.6-12.751,3.054-26.264-2.911-38.188a27.8,27.8,0,0,0-10.67-11.754c-4.561-2.634-9.881-3.643-15.141-4l-.419-.027c-13.208-.817-24.987,4.537-29.063,17.906-6.881,22.57,1.927,50.645,1.927,50.645Z" transform="translate(-1892.706 -4167.303)" fill="#e7e7e8"/>
        </g>
        <path id="Trazado_106466" data-name="Trazado 106466" d="M1649.238,4512.23h19.633l15.566-43.574s3.779-16.555,3.779-22.043,1.079-15.386,1.079-15.386l8.188-22.043s5.758,24.743,6.838,32.75,2.339,25.642,0,37.249-6.658,33.047-6.658,33.047h71.8l41.568-.387-6.388-37.789s-1.949-26.422-.87-29.75,8.4-39.109,8.4-39.109l10.827,32.69s5.578,36.8,6.658,39.769,12.866,34.576,12.866,34.576H1864.2l-11.787-65.437-3.329-13.856-1.35-8.907-6.748-52.455s-5.039-28.881-11.517-34.729-21.323-5.758-21.323-5.758l-31.85-11.426-1.8-29.332-35.36,1.53-4.589-2.19s.72,27.712-1.08,29.872-29.631,9.477-29.631,9.477-17.4-.84-25.552,12.717-12.237,61.421-12.237,61.421l-2.759,29.271s-10.917,33.83-10.917,36.949-3.138,42.854-3.138,42.854" transform="translate(-1649.238 -4211.283)" fill="#e7e7e8"/>
        <g id="Grupo_55989" data-name="Grupo 55989" transform="translate(0 78.387)">
          <path id="Trazado_106467" data-name="Trazado 106467" d="M1781.929,4319.541s17.109,6.089,22.178,6.214c5.724.142,20.991-5.148,20.991-5.148l-2.141-30.278-35.36,1.53-4.589-2.19S1782.03,4311.657,1781.929,4319.541Z" transform="translate(-1697.695 -4289.669)" fill="#d3d3d3"/>
          <path id="Trazado_106468" data-name="Trazado 106468" d="M1688.215,4469.251c0-5.488,1.079-15.385,1.079-15.385l8.188-22.043c-5.519-17.964-1.44-43.457,3.12-50.175s3.119-19.194,3.119-19.194c.821-2.462-.1-6.847-1.3-10.792-4.305.134-17.378,1.49-24.131,12.712-8.157,13.556-12.237,61.421-12.237,61.421l-2.759,29.271s-10.917,33.83-10.917,36.949-3.138,42.854-3.138,42.854h19.633l15.566-43.573S1688.215,4474.74,1688.215,4469.251Z" transform="translate(-1649.238 -4312.308)" fill="#d3d3d3"/>
          <path id="Trazado_106469" data-name="Trazado 106469" d="M1941.773,4470.535l-3.329-13.856-1.349-8.907-6.748-52.454s-5.039-28.881-11.517-34.73-21.323-5.758-21.323-5.758l-.409-.146c-1.682,4.84-2.957,9.548-2.957,9.548s-1.44,12.475,3.119,19.193c4.086,6.022,7.786,27.126,4.536,44.374l.032,2.052,10.525,31.778s5.578,36.8,6.658,39.769,12.866,34.576,12.866,34.576h21.683Z" transform="translate(-1738.595 -4313.411)" fill="#d3d3d3"/>
        </g>
        <path id="Trazado_106470" data-name="Trazado 106470" d="M1798.478,4167.411l-.419-.027c-13.208-.817-24.988,4.537-29.063,17.906-6.881,22.57,1.927,50.645,1.927,50.645l6.606,14.313c3.753,8.132,15.812,13.314,24.1,10.791,4.378-1.332,8.044-4.343,11.267-7.592,8.957-9.034,11.824-19.955,14.3-32.094,2.6-12.75,3.054-26.263-2.911-38.187a27.805,27.805,0,0,0-10.67-11.754C1809.058,4168.777,1803.738,4167.77,1798.478,4167.411Z" transform="translate(-1692.013 -4166.597)" fill="#e7e7e8"/>
        <line id="Línea_376" data-name="Línea 376" y2="86.29" transform="translate(105.684 4.45)" fill="none" stroke="#a8a8a8" stroke-linecap="round" stroke-linejoin="round" stroke-width="2" stroke-dasharray="5"/>
        <path id="Trazado_107844" data-name="Trazado 107844" d="M0,0,.291,170.766" transform="translate(105.684 128.532)" fill="none" stroke="#a8a8a8" stroke-linecap="round" stroke-width="2" stroke-dasharray="5"/>
        <path id="Trazado_106471" data-name="Trazado 106471" d="M1721.268,4443.5s96.091,5.4,118.4,0" transform="translate(-1675.543 -4267.459)" fill="none" stroke="#a8a8a8" stroke-linecap="round" stroke-linejoin="round" stroke-width="2" stroke-dasharray="5"/>
        <path id="Trazado_106472" data-name="Trazado 106472" d="M1836.122,4560.284s-65.86,4.318-95.012,0" transform="translate(-1682.789 -4310.108)" fill="none" stroke="#a8a8a8" stroke-linecap="round" stroke-linejoin="round" stroke-width="2" stroke-dasharray="5"/>
        <path id="Trazado_106473" data-name="Trazado 106473" d="M1779.85,4308.568" transform="translate(-1696.936 -4218.185)" fill="none" stroke="#e7e7e8" stroke-linecap="round" stroke-linejoin="round" stroke-width="2"/>
        <ellipse id="Elipse_4146" data-name="Elipse 4146" cx="1.488" cy="1.488" rx="1.488" ry="1.488" transform="translate(104.507 119.221)" fill="#e7e7e8"/>
        <path id="Trazado_106474" data-name="Trazado 106474" d="M1768.178,4241.487s32.994,13.244,60.36,0" transform="translate(-1692.674 -4193.688)" fill="none" stroke="#a8a8a8" stroke-linecap="round" stroke-linejoin="round" stroke-width="1.933" stroke-dasharray="4.832"/>
        <path id="Trazado_106475" data-name="Trazado 106475" d="M1815.619,4211.318" transform="translate(-1709.999 -4182.67)" fill="#fffdf4"/>
        <path id="Trazado_106476" data-name="Trazado 106476" d="M1768.391,4326.164s-.72,13.5,9.9,16.2a81.986,81.986,0,0,0,19.614,2.519s-10.267-12.776-14.76-14.035S1768.391,4326.164,1768.391,4326.164Z" transform="translate(-1692.748 -4224.61)" fill="#f5947a"/>
        <path id="Trazado_106477" data-name="Trazado 106477" d="M1785.9,4322.606s.12-7.258-8.878-13.616-27.453-25.673-25.783-35.389-1.569-9.6-3.249-6.718-12.476,31.07-12.476,31.07-.6,6.718,14.4,9.6S1776.061,4311.871,1785.9,4322.606Z" transform="translate(-1680.743 -4202.338)" fill="#baefe4" opacity="0.97"/>
        <path id="Trazado_106478" data-name="Trazado 106478" d="M1846.943,4326.164s.72,13.5-9.9,16.2a81.987,81.987,0,0,1-19.614,2.519s10.267-12.776,14.76-14.035S1846.943,4326.164,1846.943,4326.164Z" transform="translate(-1710.661 -4224.61)" fill="#f5947a"/>
        <path id="Trazado_106479" data-name="Trazado 106479" d="M1817.432,4322.606s-.12-7.258,8.877-13.616,27.453-25.673,25.783-35.389,1.569-9.6,3.249-6.718,12.476,31.07,12.476,31.07.6,6.718-14.4,9.6S1827.269,4311.871,1817.432,4322.606Z" transform="translate(-1710.661 -4202.338)" fill="#baefe4" opacity="0.97"/>
        <path id="Trazado_106480" data-name="Trazado 106480" d="M1735.5,4261.8s23.393-46.905,51.345-45.466,51.042,45.466,51.042,45.466,4.495-94.892-50.385-95.611S1735.5,4261.8,1735.5,4261.8Z" transform="translate(-1680.731 -4166.189)" fill="#f5947a"/>
        <line id="Línea_378" data-name="Línea 378" y2="36.544" transform="translate(105.62 2.976)" fill="none" stroke="#fff" stroke-linecap="round" stroke-linejoin="round" stroke-width="2" stroke-dasharray="5"/>
        <path id="Trazado_106481" data-name="Trazado 106481" d="M1959.854,4276.546s26.632,12.69,57.343,0c0,0,17.754-24.649,19.434-26.358s4.079-86.152-47.026-83.956-51.286,61.015-50.476,80.295c0,0,11.043,15.62,12.165,17.085S1959.854,4276.546,1959.854,4276.546Z" transform="translate(-1755.043 -4166.189)" fill="#f5947a"/>
        <line id="Línea_379" data-name="Línea 379" y2="93.572" transform="translate(233.086 6.77)" fill="none" stroke="#fff" stroke-linecap="round" stroke-linejoin="round" stroke-width="2" stroke-dasharray="5"/>
      </g>
    </g>
  </g>
</svg>
