<svg xmlns="http://www.w3.org/2000/svg" width="449" height="226" viewBox="0 0 449 226">
  <g id="Grupo_1054502" data-name="Grupo 1054502" transform="translate(3692.901 -1903.485)">
    <g id="Rectángulo_5555" data-name="Rectángulo 5555">
      <rect id="Rectángulo_5595" data-name="Rectángulo 5595" width="449" height="226" transform="translate(-3692.902 1903.486)" fill="#fff"/>
    </g>
    <g id="Grupo_55909" data-name="Grupo 55909">
      <path id="Trazado_106317" data-name="Trazado 106317" d="M-3278.764,2086.9l2.835-23.528-34.016-19.559,36.283,9.921-2.267-21.826s-26.362.283-27.5-28.063,5.669-59.245,5.669-59.245l-44.22-14.456s-.284,29.48-18.426,33.165v59.244h-3.685v-59.433s-17.2,2.173-20.6-32.976l-43.748,16.441s23.527,87.874-20.126,85.889l-1.7,20.693,35.906-9.07-33.638,19.464,3.212,29.669" fill="#fff" stroke="#12263f" stroke-linecap="round" stroke-linejoin="round" stroke-width="2.235"/>
      <path id="Trazado_106318" data-name="Trazado 106318" d="M-3488.811,2100.219l2.268-23.245-33.733-19.842,35.433,8.5v-20.977s-27.212.52-28.346-29.929a219.17,219.17,0,0,1,5.386-55.96l-43.087-15.591s1.134,33.165-20.693,33.165-22.11-33.165-22.11-33.165l-43.654,17.008s20.977,86.74-20.692,86.173l-1.985,20.693,36-9.071-36,20.126,4.536,24.724" fill="none" stroke="#12263f" stroke-linecap="round" stroke-linejoin="round" stroke-width="2.235"/>
      <path id="Trazado_106319" data-name="Trazado 106319" d="M-3578.294,1975.123v65.427h10.821v-64.642" fill="none" stroke="#12263f" stroke-linecap="round" stroke-linejoin="round" stroke-width="2.235"/>
      <circle id="Elipse_4116" data-name="Elipse 4116" cx="2.315" cy="2.315" r="2.315" transform="translate(-3574.984 1982.203)" fill="none" stroke="#8c757e" stroke-linecap="round" stroke-linejoin="round" stroke-width="1"/>
      <circle id="Elipse_4117" data-name="Elipse 4117" cx="2.315" cy="2.315" r="2.315" transform="translate(-3574.984 2004.407)" fill="none" stroke="#8c757e" stroke-linecap="round" stroke-linejoin="round" stroke-width="1"/>
      <circle id="Elipse_4118" data-name="Elipse 4118" cx="2.315" cy="2.315" r="2.315" transform="translate(-3574.984 2026.611)" fill="none" stroke="#8c757e" stroke-linecap="round" stroke-linejoin="round" stroke-width="1"/>
      <path id="Trazado_106320" data-name="Trazado 106320" d="M-3483.284,1945.589s6.662,6.094,13.465,2.267c0,0,8.929,3.969,13.89-1.134v70.016h-26.646Z" fill="none" stroke="#8c757e" stroke-linecap="round" stroke-linejoin="round" stroke-width="1" stroke-dasharray="3"/>
      <path id="Trazado_106321" data-name="Trazado 106321" d="M-3479.457,1950.927v60.756h20.5v-60.756" fill="none" stroke="#f5947a" stroke-linecap="round" stroke-linejoin="round" stroke-width="1.932" stroke-dasharray="3"/>
      <rect id="Rectángulo_5596" data-name="Rectángulo 5596" width="1.772" height="4.843" transform="translate(-3470.008 1948.967)" fill="#db0080"/>
      <rect id="Rectángulo_5597" data-name="Rectángulo 5597" width="1.772" height="15.614" transform="translate(-3470.008 1957.778)" fill="#db0080"/>
      <rect id="Rectángulo_5598" data-name="Rectángulo 5598" width="1.772" height="15.614" transform="translate(-3470.008 1977.313)" fill="#db0080"/>
      <rect id="Rectángulo_5599" data-name="Rectángulo 5599" width="1.772" height="14.135" transform="translate(-3470.008 1996.38)" fill="#db0080"/>
      <rect id="Rectángulo_5600" data-name="Rectángulo 5600" width="1.772" height="2.315" transform="translate(-3470.008 1954.825)" fill="#db0080"/>
      <rect id="Rectángulo_5601" data-name="Rectángulo 5601" width="1.772" height="2.315" transform="translate(-3470.008 1974.478)" fill="#db0080"/>
      <rect id="Rectángulo_5602" data-name="Rectángulo 5602" width="1.772" height="2.315" transform="translate(-3470.008 1993.496)" fill="#db0080"/>
    </g>
  </g>
</svg>
