<svg xmlns="http://www.w3.org/2000/svg" width="856.362" height="399.335" viewBox="0 0 856.362 399.335">
  <g id="Grupo_1055042" data-name="Grupo 1055042" transform="translate(-388.5 -6516.505)">
    <rect id="Rectángulo_5532" data-name="Rectángulo 5532" width="856.362" height="399.335" transform="translate(388.5 6516.505)" fill="#c9d8d7"/>
    <g id="Grupo_1054571" data-name="Grupo 1054571" transform="translate(97.348 -155.72)">
      <circle id="Elipse_4102" data-name="Elipse 4102" cx="125.147" cy="125.147" r="125.147" transform="translate(801.785 6716.625)" fill="#fff"/>
      <g id="Grupo_55868" data-name="Grupo 55868" transform="translate(2739.996 10217.289)">
        <path id="Trazado_106257-2" data-name="Trazado 106257-2" d="M-1778.38-3453.046v176.574l-71.086-33.05v-143.524Z" fill="#fff" stroke="#12263f" stroke-linecap="round" stroke-linejoin="round" stroke-width="1.723"/>
        <line id="Línea_229-3" data-name="Línea 229-3" x1="68.435" transform="translate(-1847.281 -3309.977)" fill="none" stroke="#12263f" stroke-linecap="round" stroke-linejoin="round" stroke-width="1.723"/>
      </g>
      <g id="_6_cm" data-name=" 6 cm" transform="translate(2739.996 10217.289)" style="isolation: isolate">
        <text id="_6_cm-2" data-name="6 cm" transform="translate(-1827.416 -3463.161)" font-size="12.925" font-family="Roboto-Regular, Roboto" style="isolation: isolate"><tspan x="0" y="0">6 cm</tspan></text>
      </g>
      <g id="_12_cm" data-name=" 12 cm" transform="translate(2739.996 10217.289)" style="isolation: isolate">
        <text id="_12_cm-2" data-name="12 cm" transform="translate(-1907.318 -3381.482)" font-size="12.925" font-family="Roboto-Regular, Roboto" style="isolation: isolate"><tspan x="0" y="0">12 cm</tspan></text>
      </g>
      <path id="Trazado_771812" data-name="Trazado 771812" d="M-1886.669-3433.276c.567-5.1,14.279-52.455,14.279-52.455l-193.429,134.616,2.835,33.419,18.708,41.224,7.758,5.948,223.454,20.154Z" transform="translate(2739.996 10217.289)" fill="#fff" opacity="0.33"/>
      <g id="Grupo_55864" data-name="Grupo 55864" transform="translate(2739.996 10217.289)">
        <path id="Trazado_106252" data-name="Trazado 106252" d="M-2246.009-3522.065s6.2,50.834,42.154,45.048v308.727s-77.284-3.306-84.723-5.786-50.007-20.251-60.339-19.425c0,0-1.24-45.876,12.4-75.633l-14.052-77.572,51.823-25.635-54.1,12.082,2.273-27.9s46.7.413,44.223-49.594-8.679-61.993-8.679-61.993Z" fill="#fff" stroke="#12263f" stroke-linecap="round" stroke-linejoin="round" stroke-width="2.341"/>
        <path id="Trazado_106253" data-name="Trazado 106253" d="M-2297.665-3398.493h63.852v65.713l-31.926,15.084-31.926-13.639Z" fill="none" stroke="#12263f" stroke-linecap="round" stroke-linejoin="round" stroke-width="2.341"/>
        <path id="Trazado_106254" data-name="Trazado 106254" d="M-2293.328-3391.467h55.175v55.532l-27.588,12.748-27.587-11.525Z" fill="none" stroke="#f5947a" stroke-linecap="round" stroke-linejoin="round" stroke-width="2.341" stroke-dasharray="6.466"/>
        <path id="Trazado_106255" data-name="Trazado 106255" d="M-2154.922-3471.741h76.045v78.259l-38.022,17.965-38.023-16.242Z" fill="#fff" stroke="#12263f" stroke-linecap="round" stroke-linejoin="round" stroke-width="2.341"/>
        <path id="Trazado_106256" data-name="Trazado 106256" d="M-2149.754-3463.374h65.7v66.135l-32.855,15.181-32.854-13.727Z" fill="none" stroke="#f5947a" stroke-linecap="round" stroke-linejoin="round" stroke-width="2.341" stroke-dasharray="6.466"/>
        <line id="Línea_228-2" data-name="Línea 228-2" y2="295.045" transform="translate(-2211.289 -3470.818)" fill="none" stroke="#f5947a" stroke-linecap="round" stroke-linejoin="round" stroke-width="2.341" stroke-dasharray="6.466"/>
      </g>
      <line id="Línea_500" data-name="Línea 500" y1="122.034" x2="179.174" transform="translate(671.034 6744.139)" fill="none" stroke="#fff" stroke-miterlimit="10" stroke-width="1"/>
      <line id="Línea_501" data-name="Línea 501" x2="215.187" y2="19.091" transform="translate(703.478 6946.764)" fill="none" stroke="#fff" stroke-miterlimit="10" stroke-width="1"/>
      <path id="Trazado_106257" data-name="Trazado 106257" d="M-2036.518-3351.115v80.591l-32.444-15.085v-65.506Z" transform="translate(2739.996 10217.289)" fill="#fff" stroke="#12263f" stroke-linecap="round" stroke-linejoin="round" stroke-width="2.341"/>
      <line id="Línea_229-2" data-name="Línea 229-2" x1="30.414" transform="translate(672.03 6931.473)" fill="none" stroke="#12263f" stroke-linecap="round" stroke-linejoin="round" stroke-width="2.341"/>
    </g>
    <g id="_2_5_cm" data-name=" 2 5 cm" transform="translate(2876.301 10034.289)" style="isolation: isolate">
      <text id="_2_5_cm-2" data-name="2,5 cm" transform="translate(-1771.301 -3289.556)" font-size="12.925" font-family="Roboto-Regular, Roboto" style="isolation: isolate"><tspan x="0" y="0">2,5 cm</tspan></text>
    </g>
  </g>
</svg>
