<svg id="Grupo_1054474" data-name="Grupo 1054474" xmlns="http://www.w3.org/2000/svg" xmlns:xlink="http://www.w3.org/1999/xlink" width="127.123" height="124.253" viewBox="0 0 127.123 124.253">
  <defs>
    <clipPath id="clip-path">
      <rect id="Rectángulo_361886" data-name="Rectángulo 361886" width="82.064" height="82.064" transform="translate(0 0)" fill="#025157" stroke="#025157" stroke-width="1"/>
    </clipPath>
  </defs>
  <g id="Grupo_1054473" data-name="Grupo 1054473" transform="translate(9.226)">
    <g id="Grupo_55730" data-name="Grupo 55730" transform="translate(0 0)">
      <path id="Trazado_106041" data-name="Trazado 106041" d="M58.948,0A58.948,58.948,0,1,1,0,58.948,58.948,58.948,0,0,1,58.948,0Z" transform="translate(0 0)" fill="#fff"/>
    </g>
    <g id="Enmascarar_grupo_62" data-name="Enmascarar grupo 62" transform="translate(17.936 17.936)" clip-path="url(#clip-path)">
      <g id="maniqui" transform="translate(17.285 0.599)">
        <g id="Grupo_1054393" data-name="Grupo 1054393" transform="translate(0 4.577)">
          <g id="Grupo_1054390" data-name="Grupo 1054390">
            <path id="Trazado_771773" data-name="Trazado 771773" d="M34,54.035v5.7H26.981v-5.7" transform="translate(-7.341 15.344)" fill="none" stroke="#025157" stroke-linecap="round" stroke-linejoin="round" stroke-miterlimit="10" stroke-width="1.729"/>
            <path id="Trazado_771774" data-name="Trazado 771774" d="M46.295,52.913a76.882,76.882,0,0,0-7.319-15.661s8.466-11.494,9.1-21.708a1.72,1.72,0,0,0-1-1.668l-9.449-4.17" transform="translate(-3.177 -1.986)" fill="none" stroke="#025157" stroke-linecap="round" stroke-linejoin="round" stroke-miterlimit="10" stroke-width="1.729"/>
            <path id="Trazado_771775" data-name="Trazado 771775" d="M24.695,9.707l-9.442,4.167a1.72,1.72,0,0,0-1,1.668c.636,10.214,9.1,21.708,9.1,21.708S14.108,50.859,12.87,67.67a3.443,3.443,0,0,0,3.439,3.693H55.7a3.441,3.441,0,0,0,3.438-3.7,57.4,57.4,0,0,0-1.743-10.047" transform="translate(-12.861 -1.985)" fill="none" stroke="#025157" stroke-linecap="round" stroke-linejoin="round" stroke-miterlimit="10" stroke-width="1.729"/>
            <path id="Trazado_771776" data-name="Trazado 771776" d="M37.323,9.579V4.155H25.114V9.579" transform="translate(-8.071 -4.155)" fill="none" stroke="#025157" stroke-linecap="round" stroke-linejoin="round" stroke-miterlimit="10" stroke-width="1.729"/>
            <line id="Línea_297" data-name="Línea 297" x2="7.982" transform="translate(17.044 35.265)" fill="none" stroke="#025157" stroke-linecap="round" stroke-linejoin="round" stroke-miterlimit="10" stroke-width="1.729"/>
            <line id="Línea_298" data-name="Línea 298" x1="6.429" transform="translate(22.823 5.423)" fill="none" stroke="#025157" stroke-linecap="round" stroke-linejoin="round" stroke-miterlimit="10" stroke-width="1.729"/>
          </g>
          <g id="Grupo_1054391" data-name="Grupo 1054391" transform="translate(12.167 4.255)">
            <path id="Trazado_771777" data-name="Trazado 771777" d="M21.608,17.869V8.906A1.692,1.692,0,0,1,23.3,7.214h3.147V53.2H21.608V22.825" transform="translate(-21.608 -7.214)" fill="none" stroke="#025157" stroke-linecap="round" stroke-linejoin="round" stroke-miterlimit="10" stroke-width="1.729"/>
            <path id="Trazado_771778" data-name="Trazado 771778" d="M25.6,44.5H22.454a.846.846,0,0,1-.846-.846V40.274h4.839v3.378A.846.846,0,0,1,25.6,44.5Z" transform="translate(-21.608 5.709)" fill="none" stroke="#025157" stroke-linecap="round" stroke-linejoin="round" stroke-miterlimit="10" stroke-width="1.729"/>
          </g>
          <g id="Grupo_1054392" data-name="Grupo 1054392" transform="translate(29.252 4.255)">
            <path id="Trazado_771779" data-name="Trazado 771779" d="M38.731,26.362H33.892V7.214h3.147a1.692,1.692,0,0,1,1.692,1.692Z" transform="translate(-33.892 -7.214)" fill="none" stroke="#025157" stroke-linecap="round" stroke-linejoin="round" stroke-miterlimit="10" stroke-width="1.729"/>
            <path id="Trazado_771780" data-name="Trazado 771780" d="M37.885,25.2H34.738a.846.846,0,0,1-.846-.846V20.981h4.839v3.378A.846.846,0,0,1,37.885,25.2Z" transform="translate(-33.892 -1.833)" fill="none" stroke="#025157" stroke-linecap="round" stroke-linejoin="round" stroke-miterlimit="10" stroke-width="1.729"/>
          </g>
        </g>
        <path id="Trazado_771781" data-name="Trazado 771781" d="M33.851.864H27.805a1.692,1.692,0,0,0-1.692,1.692V5.442h9.43V2.556A1.692,1.692,0,0,0,33.851.864Z" transform="translate(-7.68 -0.864)" fill="none" stroke="#025157" stroke-linecap="round" stroke-linejoin="round" stroke-miterlimit="10" stroke-width="1.729"/>
      </g>
    </g>
  </g>
  <path id="Trazado_771772" data-name="Trazado 771772" d="M25.066,24.332c1.281,6.359.429,13.161,2.182,19.453a48.115,48.115,0,0,0,2.55,6.58l1.388,3.119a56.764,56.764,0,0,0-4.154-25.5A40.9,40.9,0,0,0,25.59,24.03q.676,1.118,1.354,2.234a42.521,42.521,0,0,0,5.035,7.121,68.338,68.338,0,0,0,5.829,5.106,19.97,19.97,0,0,1,5.042,5.825,8.879,8.879,0,0,0-1.1-5.171,26.446,26.446,0,0,0-3.1-4.375,64.889,64.889,0,0,0-7.168-7.878c-1.495-1.34-3.132-2.515-4.707-3.758-.7-.55-1.677-1.208-2.52-1.941a42.66,42.66,0,0,0-5.252-7.884,32.806,32.806,0,0,1,7.944,4.574C28.594,19.277,30,21,31.919,21.982c2.219,1.143,4.82,1.157,7.3,1.428s5.151.955,6.65,2.952a15.643,15.643,0,0,0-4.779-5.778,46.731,46.731,0,0,0-6.428-3.989c-3.505-1.921-7.185-3.891-11.181-3.985a36.173,36.173,0,0,1-4.337-.025,5.834,5.834,0,0,1-.955-.223q-1.228-1.377-2.572-2.645-.994-.936-2.008-1.822a21.938,21.938,0,0,0,9.142,1.788,38.029,38.029,0,0,0,9.759-1.516,29.543,29.543,0,0,1,4.328-1.013,7.5,7.5,0,0,1,4.337.629,24.633,24.633,0,0,0-4.318-3.533,8.276,8.276,0,0,0-5.337-1.256c-1.724.257-3.258,1.229-4.946,1.666-2.019.522-4.157.256-6.221.549-1.695.24-3.317.854-5,1.142a9.216,9.216,0,0,1-1.949.138,15.012,15.012,0,0,0-1.714-.256l-.053.006a41.4,41.4,0,0,0-9.907-6A2.394,2.394,0,0,0,.838,0,.845.845,0,0,0,.063.415.857.857,0,0,0,.3,1.359a2.6,2.6,0,0,0,.9.5A45.759,45.759,0,0,1,9.716,6.323c-.455.428-.583,2.18-.773,2.693A17.462,17.462,0,0,1,7.1,12.5c-1.382,2.1-2.983,4.134-3.691,6.548a13.032,13.032,0,0,0-.128,6.106,38.936,38.936,0,0,0,1.8,5.891,5.46,5.46,0,0,1,.7-4.127,26.618,26.618,0,0,0,2.006-3.8c.688-2.045.366-4.336,1.128-6.355.506-1.341,1.459-2.471,2.032-3.784a7.356,7.356,0,0,0,.508-3.994,7.088,7.088,0,0,0-.492-1.805q.611.436,1.207.892a31.957,31.957,0,0,1,3.56,3.208,4.4,4.4,0,0,1-.127,3.269c-.669,1.452-2.091,2.445-2.79,3.883-.65,1.338-.6,2.9-.981,4.337-.4,1.508-1.274,2.879-1.5,4.422-.588,4.022,3.327,7.643,2.868,11.682a119.032,119.032,0,0,1,3.05-14.8c.427-1.479.9-2.944,1.332-4.423a11.44,11.44,0,0,0,.576-5.633c.925,1.126,1.8,2.283,2.635,3.437q.831,1.151,1.6,2.343a4.842,4.842,0,0,1,.142,1.156,11.787,11.787,0,0,1-.408,2.682,14.356,14.356,0,0,1-1.594,4.509c-.652,1.032-1.563,1.888-2.166,2.949-1.272,2.238-1,5.019-.424,7.529s1.408,5.037,1.134,7.6c2-3.427,2.61-7.464,3.138-11.4q.606-4.516,1.13-9.042a16.182,16.182,0,0,0,.15-3.357,7.643,7.643,0,0,0-.213-1.213q.658,1.081,1.269,2.191C24.716,23.708,24.89,24.018,25.066,24.332Z" transform="translate(54.461 116.288) rotate(170)" fill="#73d8c0"/>
</svg>
