<svg xmlns="http://www.w3.org/2000/svg" width="1019" height="224.706" viewBox="0 0 1019 224.706">
  <g id="Grupo_1055046" data-name="Grupo 1055046" transform="translate(-285 -11387.828)">
    <rect id="Rectángulo_5431" data-name="Rectángulo 5431" width="1019" height="224.706" transform="translate(285 11387.828)" fill="#baefe4" opacity="0.28" style="isolation: isolate"/>
    <path id="Trazado_106042" data-name="Trazado 106042" d="M3446.848-1371.082v-74.885s13.035-5.825,14.977-17.2l23.575,8.043s-8.321,31.341,15.809,28.845l7.766,46.04-20.477,8.71-16.688,7.1-1.346-39.939Z" transform="translate(-3116.369 12922.375)" fill="#fff" stroke="#1d1d1b" stroke-linecap="round" stroke-linejoin="round" stroke-width="2"/>
    <line id="Línea_187" data-name="Línea 187" x2="15.929" y2="32.916" transform="translate(354.122 11518.818)" fill="none" stroke="#1d1d1b" stroke-linecap="round" stroke-linejoin="round" stroke-width="2"/>
    <path id="Trazado_106045" data-name="Trazado 106045" d="M3674.064-1372.6l-17.03-1.625v-75.2l23.222,38.482" transform="translate(-3116.369 12922.375)" fill="#fff" stroke="#1d1d1b" stroke-linecap="round" stroke-linejoin="round" stroke-width="2"/>
    <path id="Trazado_106046" data-name="Trazado 106046" d="M3781.549-1454.727l11.722,42.463-.234,2.187-4.189,39.171-18.135-1.692v-76.6Z" transform="translate(-3116.369 12922.375)" fill="#fff" stroke="#1d1d1b" stroke-linecap="round" stroke-linejoin="round" stroke-width="2"/>
    <path id="Trazado_106047" data-name="Trazado 106047" d="M3807.646-1456.5l7.741-5.75,17.472,17.03s-27.425,20.568-4.424,36.27l-16.587,41.358-23-3.318,4.19-39.17Z" transform="translate(-3116.369 12922.375)" fill="#fff" stroke="#1d1d1b" stroke-linecap="round" stroke-linejoin="round" stroke-width="2"/>
    <path id="Trazado_106048" data-name="Trazado 106048" d="M3902.746-1464.016s-2.212,16.366-12.827,16.808l-1.106,78.071h17.693l8.215-90.677Z" transform="translate(-3116.369 12922.375)" fill="#fff" stroke="#1d1d1b" stroke-linecap="round" stroke-linejoin="round" stroke-width="2"/>
    <path id="Trazado_106049" data-name="Trazado 106049" d="M3941.007-1451.189l8.4,8.626s-25.345,21.01-3.494,36.049l-17.074,41.358-22.337-3.981,3.893-39.035Z" transform="translate(-3116.369 12922.375)" fill="#fff" stroke="#1d1d1b" stroke-linecap="round" stroke-linejoin="round" stroke-width="2"/>
    <path id="Trazado_106050" data-name="Trazado 106050" d="M4002.933-1465.564l25.169,7.74s-15,48.214-15.217,50.868-5.971,39.588-5.971,39.588h-16.145l-1.327-81.609S3998.731-1445.66,4002.933-1465.564Z" transform="translate(-3116.369 12922.375)" fill="#fff" stroke="#1d1d1b" stroke-linecap="round" stroke-linejoin="round" stroke-width="2"/>
    <path id="Trazado_106051" data-name="Trazado 106051" d="M4051.81-1444.111l-38.666,35.939-6.23,40.8,22.448,4.866,18.246-45.67S4027.261-1414.254,4051.81-1444.111Z" transform="translate(-3116.369 12922.375)" fill="#fff" stroke="#1d1d1b" stroke-linecap="round" stroke-linejoin="round" stroke-width="2"/>
    <path id="Trazado_106052" data-name="Trazado 106052" d="M4115.652-1468.292l22.116,6.782s-4.423,20.053,0,25.36l-14.154,26.245-7.962,37.306-15.629,1.619V-1450.6S4112.7-1457.086,4115.652-1468.292Z" transform="translate(-3116.369 12922.375)" fill="#fff" stroke="#1d1d1b" stroke-linecap="round" stroke-linejoin="round" stroke-width="2"/>
    <path id="Trazado_106053" data-name="Trazado 106053" d="M4126.268-1411.379l22.116-10.616s.59,8.257,7.667,10.616l-14.892,44.011-25.507-5.231,7.962-37.306Z" transform="translate(-3116.369 12922.375)" fill="#fff" stroke="#1d1d1b" stroke-linecap="round" stroke-linejoin="round" stroke-width="2"/>
    <path id="Trazado_106054" data-name="Trazado 106054" d="M4229.182-1468.292l21.822,9.436s-11.206,32.143,16.808,32.438l2.359,17.4-33.591,1.179,27.988,16.514-10.616,26.244-24.77-4.128h-13.859l-1.18-81.093S4225.349-1449.714,4229.182-1468.292Z" transform="translate(-3116.369 12922.375)" fill="#fff" stroke="#1d1d1b" stroke-linecap="round" stroke-linejoin="round" stroke-width="2"/>
    <line id="Línea_188" data-name="Línea 188" x1="5.485" y2="36.884" transform="translate(1114.727 11516.599)" fill="none" stroke="#1d1d1b" stroke-linecap="round" stroke-linejoin="round" stroke-width="2"/>
    <path id="Trazado_106055" data-name="Trazado 106055" d="M4338.879-1465.343s-2.654,14.6-14.6,17.693v78.758l40.252,5.947,4.423-9.654-21.232-33.178,34.944,17.4-6.192-35.608s-24.107-1.769-14.818-32.953Z" transform="translate(-3116.369 12922.375)" fill="#fff" stroke="#1d1d1b" stroke-linecap="round" stroke-linejoin="round" stroke-width="2"/>
    <line id="Línea_189" data-name="Línea 189" x1="6.822" y2="39.34" transform="translate(1224.534 11516.599)" fill="none" stroke="#1d1d1b" stroke-linecap="round" stroke-linejoin="round" stroke-width="2"/>
    <circle id="Elipse_4042" data-name="Elipse 4042" cx="14.598" cy="14.598" r="14.598" transform="translate(336.479 11409.888)" fill="#f5947a"/>
    <path id="Trazado_106056" data-name="Trazado 106056" d="M3682.91-1455.612l-2.654,44.675-6.192,38.338,26.318,3.462,17.914-40.252s-20.125-11.058-3.1-30.963l6.635-5.529-16.366-17.282S3693.526-1446.765,3682.91-1455.612Z" transform="translate(-3116.369 12922.375)" fill="#fff" stroke="#1d1d1b" stroke-linecap="round" stroke-linejoin="round" stroke-width="2"/>
    <path id="Trazado_772834" data-name="Trazado 772834" d="M6.258,0H4V-8.7l-2.7.836V-9.7l4.711-1.687h.242Z" transform="translate(346.135 11430.685)" fill="#fff"/>
    <circle id="Elipse_4043" data-name="Elipse 4043" cx="14.598" cy="14.598" r="14.598" transform="translate(446.052 11409.888)" fill="#f5947a"/>
    <path id="Trazado_772835" data-name="Trazado 772835" d="M8.57,0H.773V-1.547l3.68-3.922A9.078,9.078,0,0,0,5.574-6.914a2.322,2.322,0,0,0,.363-1.172,1.738,1.738,0,0,0-.383-1.191,1.382,1.382,0,0,0-1.094-.434,1.49,1.49,0,0,0-1.207.527A2.089,2.089,0,0,0,2.813-7.8H.547a3.729,3.729,0,0,1,.5-1.9,3.5,3.5,0,0,1,1.4-1.348A4.262,4.262,0,0,1,4.5-11.531a4.036,4.036,0,0,1,2.73.844A2.985,2.985,0,0,1,8.2-8.3a3.825,3.825,0,0,1-.437,1.719,9.551,9.551,0,0,1-1.5,2.039L3.68-1.82H8.57Z" transform="translate(455.708 11430.685)" fill="#fff"/>
    <circle id="Elipse_4044" data-name="Elipse 4044" cx="14.598" cy="14.598" r="14.598" transform="translate(552.276 11409.888)" fill="#f5947a"/>
    <path id="Trazado_772836" data-name="Trazado 772836" d="M3.07-6.687h1.2a1.7,1.7,0,0,0,1.273-.43,1.574,1.574,0,0,0,.414-1.141,1.392,1.392,0,0,0-.41-1.07,1.59,1.59,0,0,0-1.129-.383,1.666,1.666,0,0,0-1.086.355A1.137,1.137,0,0,0,2.9-8.43H.641a2.777,2.777,0,0,1,.48-1.6,3.2,3.2,0,0,1,1.344-1.105,4.485,4.485,0,0,1,1.9-.4,4.253,4.253,0,0,1,2.828.863A2.945,2.945,0,0,1,8.219-8.289a2.394,2.394,0,0,1-.477,1.438,3.1,3.1,0,0,1-1.25,1.008A2.826,2.826,0,0,1,7.926-4.812,2.8,2.8,0,0,1,8.4-3.187,2.994,2.994,0,0,1,7.293-.758,4.445,4.445,0,0,1,4.367.156a4.214,4.214,0,0,1-2.785-.9A2.934,2.934,0,0,1,.5-3.117H2.758a1.308,1.308,0,0,0,.48,1.047,1.771,1.771,0,0,0,1.184.406A1.779,1.779,0,0,0,5.684-2.09a1.47,1.47,0,0,0,.457-1.129q0-1.7-1.875-1.7H3.07Z" transform="translate(561.932 11430.685)" fill="#fff"/>
    <circle id="Elipse_4045" data-name="Elipse 4045" cx="14.598" cy="14.598" r="14.598" transform="translate(662.303 11409.888)" fill="#f5947a"/>
    <path id="Trazado_772837" data-name="Trazado 772837" d="M7.453-4.281H8.742v1.82H7.453V0H5.2V-2.461H.531L.43-3.883l4.742-7.492H7.453Zm-4.773,0H5.2V-8.3l-.148.258Z" transform="translate(671.959 11430.685)" fill="#fff"/>
    <circle id="Elipse_4046" data-name="Elipse 4046" cx="14.598" cy="14.598" r="14.598" transform="translate(783.753 11409.888)" fill="#f5947a"/>
    <path id="Trazado_772838" data-name="Trazado 772838" d="M1.109-5.594l.656-5.781H8.141v1.883H3.617L3.336-7.047a3.58,3.58,0,0,1,1.711-.43A3.279,3.279,0,0,1,7.594-6.469a4.026,4.026,0,0,1,.922,2.82,4.124,4.124,0,0,1-.465,1.973A3.281,3.281,0,0,1,6.719-.324a4.158,4.158,0,0,1-2.047.48A4.416,4.416,0,0,1,2.758-.262,3.4,3.4,0,0,1,1.363-1.437,3.2,3.2,0,0,1,.82-3.164H3.055a1.669,1.669,0,0,0,.5,1.105,1.573,1.573,0,0,0,1.113.395,1.388,1.388,0,0,0,1.18-.551,2.551,2.551,0,0,0,.414-1.559,2.11,2.11,0,0,0-.477-1.484A1.749,1.749,0,0,0,4.43-5.773a1.954,1.954,0,0,0-1.3.422l-.219.2Z" transform="translate(793.409 11430.685)" fill="#fff"/>
    <circle id="Elipse_4047" data-name="Elipse 4047" cx="14.598" cy="14.598" r="14.598" transform="translate(890.545 11409.888)" fill="#f5947a"/>
    <path id="Trazado_772839" data-name="Trazado 772839" d="M6.9-11.492v1.859H6.68a3.836,3.836,0,0,0-2.465.8A3.238,3.238,0,0,0,3.094-6.687a3.075,3.075,0,0,1,2.289-.922A2.9,2.9,0,0,1,7.742-6.547a4.259,4.259,0,0,1,.875,2.8,4.19,4.19,0,0,1-.48,2.008,3.446,3.446,0,0,1-1.359,1.4,3.949,3.949,0,0,1-1.988.5,3.689,3.689,0,0,1-2.9-1.25A4.852,4.852,0,0,1,.781-4.43v-.812a7.3,7.3,0,0,1,.7-3.27,5.127,5.127,0,0,1,2.008-2.2,5.884,5.884,0,0,1,3.035-.785ZM4.7-5.8a1.8,1.8,0,0,0-.992.285,1.717,1.717,0,0,0-.656.754v.688A3.05,3.05,0,0,0,3.492-2.3a1.438,1.438,0,0,0,1.25.637,1.422,1.422,0,0,0,1.176-.574,2.345,2.345,0,0,0,.449-1.488,2.34,2.34,0,0,0-.453-1.5A1.476,1.476,0,0,0,4.7-5.8Z" transform="translate(900.2 11430.685)" fill="#fff"/>
    <circle id="Elipse_4048" data-name="Elipse 4048" cx="14.598" cy="14.598" r="14.598" transform="translate(992.202 11409.888)" fill="#f5947a"/>
    <path id="Trazado_772840" data-name="Trazado 772840" d="M8.508-10.109,4.109,0H1.727L6.133-9.547H.477v-1.828H8.508Z" transform="translate(1001.858 11430.685)" fill="#fff"/>
    <circle id="Elipse_4049" data-name="Elipse 4049" cx="14.598" cy="14.598" r="14.598" transform="translate(1102.869 11409.888)" fill="#f5947a"/>
    <path id="Trazado_772841" data-name="Trazado 772841" d="M8.188-8.352a2.646,2.646,0,0,1-.414,1.469A2.98,2.98,0,0,1,6.633-5.859a3.3,3.3,0,0,1,1.313,1.1A2.816,2.816,0,0,1,8.43-3.117,2.981,2.981,0,0,1,7.4-.723a4.183,4.183,0,0,1-2.8.879A4.2,4.2,0,0,1,1.781-.727,2.974,2.974,0,0,1,.742-3.117a2.834,2.834,0,0,1,.484-1.648,3.239,3.239,0,0,1,1.3-1.094A2.95,2.95,0,0,1,1.395-6.883a2.664,2.664,0,0,1-.41-1.469,2.948,2.948,0,0,1,.969-2.316,3.814,3.814,0,0,1,2.633-.863,3.839,3.839,0,0,1,2.629.855A2.937,2.937,0,0,1,8.188-8.352ZM6.164-3.281a1.638,1.638,0,0,0-.43-1.187,1.532,1.532,0,0,0-1.156-.445,1.529,1.529,0,0,0-1.148.441A1.635,1.635,0,0,0,3-3.281a1.634,1.634,0,0,0,.422,1.172,1.537,1.537,0,0,0,1.172.445,1.533,1.533,0,0,0,1.152-.43A1.631,1.631,0,0,0,6.164-3.281ZM5.93-8.242a1.563,1.563,0,0,0-.352-1.066,1.247,1.247,0,0,0-.992-.4A1.256,1.256,0,0,0,3.6-9.32,1.553,1.553,0,0,0,3.25-8.242,1.633,1.633,0,0,0,3.6-7.148a1.23,1.23,0,0,0,.992.414,1.219,1.219,0,0,0,.988-.414A1.645,1.645,0,0,0,5.93-8.242Z" transform="translate(1112.525 11430.685)" fill="#fff"/>
    <circle id="Elipse_4050" data-name="Elipse 4050" cx="14.598" cy="14.598" r="14.598" transform="translate(1216.758 11409.888)" fill="#f5947a"/>
    <path id="Trazado_772842" data-name="Trazado 772842" d="M6.055-4.547a2.851,2.851,0,0,1-2.062.867A3.049,3.049,0,0,1,1.578-4.715,4.091,4.091,0,0,1,.672-7.508,4.357,4.357,0,0,1,1.16-9.559a3.582,3.582,0,0,1,1.363-1.453,3.782,3.782,0,0,1,1.969-.52,3.617,3.617,0,0,1,2,.563A3.7,3.7,0,0,1,7.852-9.352a5.806,5.806,0,0,1,.492,2.414V-6.1A6.579,6.579,0,0,1,6.93-1.633,5.346,5.346,0,0,1,2.922.1L2.367.109V-1.773l.5-.008Q5.813-1.914,6.055-4.547ZM4.547-5.406a1.579,1.579,0,0,0,.941-.281,1.879,1.879,0,0,0,.6-.68V-7.3a3.1,3.1,0,0,0-.437-1.781,1.358,1.358,0,0,0-1.172-.633,1.318,1.318,0,0,0-1.117.621,2.641,2.641,0,0,0-.437,1.559A2.57,2.57,0,0,0,3.348-6,1.387,1.387,0,0,0,4.547-5.406Z" transform="translate(1226.414 11430.685)" fill="#fff"/>
    <path id="Trazado_106044" data-name="Trazado 106044" d="M3595.423-1371.525l-16.459,9.391-20.347-33.027,22.123-9.2" transform="translate(-3116.369 12922.375)" fill="#fff" stroke="#1d1d1b" stroke-linecap="round" stroke-linejoin="round" stroke-width="2"/>
    <path id="Trazado_106043" data-name="Trazado 106043" d="M3553.773-1404.892v-41.075s13.035-5.825,14.977-17.2l23.575,8.043s-8.321,31.341,15.809,28.845l7.765,46.04-20.476,8.71-14.684-32.84Z" transform="translate(-3116.369 12922.375)" fill="#fff" stroke="#1d1d1b" stroke-linecap="round" stroke-linejoin="round" stroke-width="2"/>
  </g>
</svg>
