<svg id="Grupo_1054475" data-name="Grupo 1054475" xmlns="http://www.w3.org/2000/svg" width="132.28" height="121.827" viewBox="0 0 132.28 121.827">
  <g id="Grupo_55729" data-name="Grupo 55729" transform="translate(0 0)">
    <path id="Trazado_106029" data-name="Trazado 106029" d="M58.948,0A58.948,58.948,0,1,1,0,58.948,58.948,58.948,0,0,1,58.948,0Z" transform="translate(0 0)" fill="#fff"/>
    <path id="Path" d="M2893.124-1762.515l-5.383.455a18.571,18.571,0,0,1-18.3-15.2,18.571,18.571,0,0,1,11.665-20.733Z" transform="translate(-2842.794 1824.243)" fill="#e8e8e8" stroke="#025157" stroke-width="1" fill-rule="evenodd"/>
    <path id="Trazado_106025" data-name="Trazado 106025" d="M2911.237-1721.849v-56.682h-7.369v56.682h-11.744v5.757h30.856v-5.757Z" transform="translate(-2848.604 1819.326)" fill="#fff" stroke="#025157" stroke-width="1"/>
    <path id="Trazado_106026" data-name="Trazado 106026" d="M2928.2-1721.849h-11.743v-56.682h-3.684v62.439H2928.2Z" transform="translate(-2853.82 1819.326)" fill="#fff" stroke="#025157" stroke-width="1"/>
    <path id="Trazado_106027" data-name="Trazado 106027" d="M2924.445-1760.752l-5.979-15.668,8-25.725-13.806-6.991-.92-5.334H2899.8l-.92,5.334-13.807,6.991,8,25.725-5.979,15.668Z" transform="translate(-2846.823 1828.407)" fill="#025157"/>
    <path id="Trazado_106028" data-name="Trazado 106028" d="M2925.462-1776.42l8-25.725-13.806-6.991-.92-5.334h-5.97v53.719h18.673Z" transform="translate(-2853.82 1828.407)" fill="#73d8c0"/>
    <path id="Path-2" data-name="Path" d="M2957.6-1745.778v16.539a4.147,4.147,0,0,1-4.135,4.134h-12.4v-24.808h12.4A4.147,4.147,0,0,1,2957.6-1745.778Z" transform="translate(-2860.968 1812.095)" fill="#fff" stroke="#025157" stroke-width="1" fill-rule="evenodd"/>
    <path id="Path-3" data-name="Path" d="M2922.888-1756.2v24.808h-35.145A18.606,18.606,0,0,1,2869.136-1750v-24.809a18.525,18.525,0,0,0,6.2,13.851,18.243,18.243,0,0,0,4.135,2.812,18.958,18.958,0,0,0,4.134,1.489,19.378,19.378,0,0,0,4.135.455Z" transform="translate(-2842.796 1818.386)" fill="#fff" stroke="#025157" stroke-width="1" fill-rule="evenodd"/>
    <g id="Grupo_55729-2" data-name="Grupo 55729" transform="translate(32.542 57.428)">
      <path id="Path-4" data-name="Path" d="M2881.57-1753.463v10.213a2.067,2.067,0,0,1-2.067,2.067,2.067,2.067,0,0,1-2.068-2.067v-13.025a18.243,18.243,0,0,0,4.135,2.812Z" transform="translate(-2877.435 1756.275)" fill="#e57e25" fill-rule="evenodd"/>
      <path id="Path-5" data-name="Path" d="M2903.7-1749.912v12.4a2.067,2.067,0,0,1-2.067,2.068,2.067,2.067,0,0,1-2.067-2.068v-12.4Z" transform="translate(-2883.027 1754.667)" fill="#e57e25" fill-rule="evenodd"/>
      <path id="Path-6" data-name="Path" d="M2925.831-1749.912v12.4a2.068,2.068,0,0,1-2.067,2.068,2.068,2.068,0,0,1-2.068-2.068v-12.4Z" transform="translate(-2888.618 1754.667)" fill="#e57e25" fill-rule="evenodd"/>
      <path id="Path-7" data-name="Path" d="M2892.635-1750.066v8.269a2.067,2.067,0,0,1-2.067,2.067,2.067,2.067,0,0,1-2.068-2.067v-8.724A19.378,19.378,0,0,0,2892.635-1750.066Z" transform="translate(-2880.231 1754.821)" fill="#e57e25" fill-rule="evenodd"/>
      <path id="Path-8" data-name="Path" d="M2914.766-1749.912v8.269a2.067,2.067,0,0,1-2.068,2.067,2.067,2.067,0,0,1-2.067-2.067v-8.269Z" transform="translate(-2885.822 1754.667)" fill="#e57e25" fill-rule="evenodd"/>
    </g>
    <circle id="Oval" cx="2.067" cy="2.067" r="2.067" transform="translate(86.294 72.52)" fill="#025157"/>
  </g>
  <path id="Trazado_771802" data-name="Trazado 771802" d="M25.066,29.151c1.281-6.359.429-13.161,2.182-19.453a48.115,48.115,0,0,1,2.55-6.58L31.185,0a56.764,56.764,0,0,1-4.154,25.5,40.9,40.9,0,0,1-1.441,3.951q.676-1.118,1.354-2.234A42.521,42.521,0,0,1,31.98,20.1a68.338,68.338,0,0,1,5.829-5.106,19.97,19.97,0,0,0,5.042-5.825,8.879,8.879,0,0,1-1.1,5.171,26.445,26.445,0,0,1-3.1,4.375,64.888,64.888,0,0,1-7.168,7.878c-1.495,1.34-3.132,2.515-4.707,3.758-.7.55-1.677,1.208-2.52,1.941a42.66,42.66,0,0,1-5.251,7.884A32.806,32.806,0,0,0,26.953,35.6c1.641-1.394,3.052-3.113,4.966-4.1,2.219-1.143,4.82-1.157,7.3-1.428s5.151-.955,6.65-2.952A15.643,15.643,0,0,1,41.091,32.9a46.731,46.731,0,0,1-6.428,3.989c-3.505,1.921-7.185,3.891-11.181,3.985a36.173,36.173,0,0,0-4.337.025,5.834,5.834,0,0,0-.955.223q-1.228,1.377-2.572,2.645-.994.936-2.008,1.822A21.938,21.938,0,0,1,22.752,43.8a38.028,38.028,0,0,1,9.759,1.516,29.543,29.543,0,0,0,4.327,1.013,7.5,7.5,0,0,0,4.337-.629,24.633,24.633,0,0,1-4.318,3.533,8.276,8.276,0,0,1-5.337,1.256c-1.724-.257-3.258-1.229-4.946-1.666-2.019-.522-4.156-.256-6.221-.549-1.695-.24-3.317-.854-5-1.142A9.216,9.216,0,0,0,13.4,47a15.013,15.013,0,0,1-1.714.256l-.053-.006a41.4,41.4,0,0,1-9.907,6,2.394,2.394,0,0,1-.889.24.845.845,0,0,1-.775-.415A.857.857,0,0,1,.3,52.124a2.6,2.6,0,0,1,.9-.5,45.759,45.759,0,0,0,8.517-4.463c-.455-.428-.583-2.18-.773-2.693A17.462,17.462,0,0,0,7.1,40.987c-1.382-2.1-2.983-4.134-3.691-6.548a13.032,13.032,0,0,1-.128-6.106,38.936,38.936,0,0,1,1.8-5.891,5.46,5.46,0,0,0,.7,4.127,26.618,26.618,0,0,1,2.006,3.8c.688,2.045.366,4.336,1.128,6.355.506,1.341,1.458,2.471,2.032,3.784A7.356,7.356,0,0,1,11.45,44.5a7.088,7.088,0,0,1-.492,1.805q.611-.436,1.207-.892a31.957,31.957,0,0,0,3.56-3.208,4.4,4.4,0,0,0-.127-3.269c-.669-1.452-2.091-2.445-2.79-3.883-.65-1.338-.6-2.9-.981-4.337-.4-1.508-1.274-2.879-1.5-4.422-.588-4.022,3.327-7.643,2.868-11.682a119.033,119.033,0,0,0,3.05,14.8c.427,1.479.9,2.944,1.332,4.423a11.44,11.44,0,0,1,.576,5.633c.925-1.126,1.8-2.283,2.635-3.437q.831-1.151,1.6-2.343a4.842,4.842,0,0,0,.142-1.156,11.787,11.787,0,0,0-.408-2.682,14.356,14.356,0,0,0-1.594-4.509c-.652-1.032-1.563-1.888-2.166-2.949-1.272-2.238-1-5.019-.424-7.529s1.408-5.037,1.134-7.6c2,3.427,2.61,7.464,3.138,11.4q.606,4.516,1.13,9.042a16.182,16.182,0,0,1,.15,3.357,7.643,7.643,0,0,1-.213,1.213q.658-1.081,1.269-2.191C24.716,29.776,24.889,29.466,25.066,29.151Z" transform="matrix(0.985, 0.174, -0.174, 0.985, 87.106, 61.19)" fill="#025157"/>
</svg>
