<svg xmlns="http://www.w3.org/2000/svg" width="53.086" height="52.002" viewBox="0 0 53.086 52.002">
  <g id="Grupo_1055044" data-name="Grupo 1055044" transform="translate(-370 -2419.898)">
    <path id="Trazado_109024" data-name="Trazado 109024" d="M0,0H53.086V52H0Z" transform="translate(370 2419.898)" fill="#025157"/>
    <path id="Trazado_724" data-name="Trazado 724" d="M3.363-.049l17.981,0c1.169,1.183,8.188,8.274,10.643,10.759V39.068a3.384,3.384,0,0,1-3.363,3.4H3.363A3.384,3.384,0,0,1,0,39.068V3.356A3.384,3.384,0,0,1,3.363-.049Z" transform="translate(382.395 2424.695)" fill="none"/>
    <g id="Grupo_1192" data-name="Grupo 1192" transform="translate(378 2424.631)">
      <path id="Trazado_722" data-name="Trazado 722" d="M1491.038,662.327h-17.924a3.506,3.506,0,0,0-3.48,3.524v35.474a3.506,3.506,0,0,0,3.48,3.524h25.027a3.506,3.506,0,0,0,3.48-3.524V673.042Zm8.628,39a1.536,1.536,0,0,1-1.525,1.544h-25.027a1.536,1.536,0,0,1-1.525-1.544V665.851a1.537,1.537,0,0,1,1.525-1.544h17.114l.009.01v9.54h9.422l.006.006Z" transform="translate(-1465.27 -662.327)" fill="#fff" stroke="#fff" stroke-width="1"/>
      <path id="Trazado_723" data-name="Trazado 723" d="M1450.922,946.157a1.357,1.357,0,0,1-1.308,1.394h-28.772a1.357,1.357,0,0,1-1.308-1.394V932.221a1.357,1.357,0,0,1,1.308-1.394h28.772a1.357,1.357,0,0,1,1.308,1.394Z" transform="translate(-1419.534 -911.26)" fill="#fff" stroke="#f5f5f5" stroke-width="1"/>
      <text id="PDF" transform="translate(12.373 30.358)" fill="#397478" font-size="9" font-family="Montserrat-ExtraBold, Montserrat" font-weight="800" letter-spacing="0.04em" style="isolation: isolate"><tspan x="-10.238" y="0">PDF</tspan></text>
    </g>
  </g>
</svg>
