<svg xmlns="http://www.w3.org/2000/svg" width="449" height="226" viewBox="0 0 449 226">
  <g id="Grupo_1054504" data-name="Grupo 1054504" transform="translate(3692.902 -2516.672)">
    <g id="Rectángulo_5555" data-name="Rectángulo 5555">
      <rect id="Rectángulo_5623" data-name="Rectángulo 5623" width="449" height="226" transform="translate(-3692.902 2516.672)" fill="#fff"/>
    </g>
    <g id="Grupo_55915" data-name="Grupo 55915">
      <path id="Trazado_106324" data-name="Trazado 106324" d="M-3395.975,2527.606s2.646,27.307,15.78,25.985,15.4-25.985,15.4-25.985l31.748,13.016s-18.283,57.378,14.74,63.9l1.985,15.874-26.174-7.559,25.418,15.714-6.425,44.38s8.787,37.7,5.48,42.331c0,0-11.055,4.205-12.756,5.2s-16.724,8.5-44.787,7.795-38.41-2.268-38.41-2.268-12.472-5.385-18.85-7.937-10.205-2.551-10.205-2.551,4.394-38.126,5.811-43.653-5.811-43.89-5.811-43.89l24.8-14.929-26.787,6.378,1.559-15.733s17.716,4.252,19.559-19.275a161.07,161.07,0,0,0-2.977-44.079Z" fill="none" stroke="#12263f" stroke-linecap="round" stroke-linejoin="round" stroke-width="2.235"/>
      <line id="Línea_290" data-name="Línea 290" y1="173.007" transform="translate(-3352.322 2544.332)" fill="none" stroke="#12263f" stroke-linecap="round" stroke-linejoin="round" stroke-width="1.028"/>
      <line id="Línea_291" data-name="Línea 291" y1="173.007" transform="translate(-3408.448 2544.332)" fill="none" stroke="#12263f" stroke-linecap="round" stroke-linejoin="round" stroke-width="1.028"/>
      <line id="Línea_292" data-name="Línea 292" y1="173.007" transform="translate(-3579.941 2544.332)" fill="none" stroke="#12263f" stroke-linecap="round" stroke-linejoin="round" stroke-width="1.028"/>
      <line id="Línea_293" data-name="Línea 293" y2="174.24" transform="translate(-3384.166 2553.059)" fill="none" stroke="#12263f" stroke-linecap="round" stroke-linejoin="round" stroke-width="2.235"/>
      <line id="Línea_294" data-name="Línea 294" x2="0.567" y2="175.193" transform="translate(-3376.132 2553.059)" fill="none" stroke="#12263f" stroke-linecap="round" stroke-linejoin="round" stroke-width="2.235"/>
      <line id="Línea_295" data-name="Línea 295" x2="0.354" y2="173.315" transform="translate(-3382.51 2554.299)" fill="none" stroke="#f5947a" stroke-linecap="round" stroke-linejoin="round" stroke-width="0.75" stroke-dasharray="3"/>
      <path id="Trazado_771810" data-name="Trazado 771810" d="M0,0,.3,146.787l.043,20.97" transform="translate(-3378.21 2554.299)" fill="none" stroke="#f5947a" stroke-linecap="round" stroke-width="0.75" stroke-dasharray="3"/>
      <circle id="Elipse_4119" data-name="Elipse 4119" cx="1.028" cy="1.028" r="1.028" transform="translate(-3381.518 2560.972)" fill="none" stroke="#12263f" stroke-linecap="round" stroke-linejoin="round" stroke-width="0.75"/>
      <circle id="Elipse_4120" data-name="Elipse 4120" cx="1.028" cy="1.028" r="1.028" transform="translate(-3381.518 2584.375)" fill="none" stroke="#12263f" stroke-linecap="round" stroke-linejoin="round" stroke-width="0.75"/>
      <circle id="Elipse_4121" data-name="Elipse 4121" cx="1.028" cy="1.028" r="1.028" transform="translate(-3381.518 2609.068)" fill="none" stroke="#12263f" stroke-linecap="round" stroke-linejoin="round" stroke-width="0.75"/>
      <circle id="Elipse_4122" data-name="Elipse 4122" cx="1.028" cy="1.028" r="1.028" transform="translate(-3381.518 2632.077)" fill="none" stroke="#12263f" stroke-linecap="round" stroke-linejoin="round" stroke-width="0.75"/>
      <circle id="Elipse_4123" data-name="Elipse 4123" cx="1.028" cy="1.028" r="1.028" transform="translate(-3381.518 2654.91)" fill="none" stroke="#12263f" stroke-linecap="round" stroke-linejoin="round" stroke-width="0.75"/>
      <circle id="Elipse_4124" data-name="Elipse 4124" cx="1.028" cy="1.028" r="1.028" transform="translate(-3381.518 2677.14)" fill="none" stroke="#12263f" stroke-linecap="round" stroke-linejoin="round" stroke-width="0.75"/>
      <circle id="Elipse_4125" data-name="Elipse 4125" cx="1.028" cy="1.028" r="1.028" transform="translate(-3381.518 2698.4)" fill="none" stroke="#12263f" stroke-linecap="round" stroke-linejoin="round" stroke-width="0.75"/>
      <path id="Trazado_106325" data-name="Trazado 106325" d="M-3556.136,2553.607c-12.718.62-15.307-26-15.307-26l-30.9,12.709a161.093,161.093,0,0,1,2.976,44.079c-1.843,23.527-19.559,19.275-19.559,19.275l-1.559,15.732,26.787-6.377-24.8,14.929s7.228,38.362,5.811,43.89-5.811,43.653-5.811,43.653,3.827,0,10.205,2.551,18.85,7.937,18.85,7.937,9.083,1.369,33.307,2.124Z" fill="none" stroke="#12263f" stroke-linecap="round" stroke-linejoin="round" stroke-width="2.235"/>
      <g id="Grupo_55914" data-name="Grupo 55914">
        <line id="Línea_297" data-name="Línea 297" y1="152.398" transform="translate(-3493.377 2552.469)" fill="none" stroke="#12263f" stroke-linecap="round" stroke-linejoin="round" stroke-width="0.965"/>
        <path id="Trazado_106326" data-name="Trazado 106326" d="M-3503.582,2540.587v178.17h20.41v-178.17S-3489.125,2545.252-3503.582,2540.587Z" fill="none" stroke="#12263f" stroke-linecap="round" stroke-linejoin="round" stroke-width="2" stroke-dasharray="3"/>
        <line id="Línea_298" data-name="Línea 298" y2="171.685" transform="translate(-3500.18 2544.143)" fill="none" stroke="#f5947a" stroke-linecap="round" stroke-linejoin="round" stroke-width="1.932" stroke-dasharray="3"/>
        <line id="Línea_299" data-name="Línea 299" y2="171.685" transform="translate(-3486.574 2544.143)" fill="none" stroke="#f5947a" stroke-linecap="round" stroke-linejoin="round" stroke-width="1.932" stroke-dasharray="3"/>
      </g>
    </g>
  </g>
</svg>
