<svg xmlns="http://www.w3.org/2000/svg" width="387.157" height="325.421" viewBox="0 0 387.157 325.421">
  <g id="Grupo_1055042" data-name="Grupo 1055042" transform="translate(-1032.843 -6185.652)">
    <g id="Grupo_1054396" data-name="Grupo 1054396" transform="matrix(0.545, -0.839, 0.839, 0.545, 128.624, 7831.56)" opacity="0.37">
      <path id="Trazado_771758" data-name="Trazado 771758" d="M1720.25,183.343c-.654,3.174-.947,7.2,1.851,9.347,2.085,1.6,4.668,3,7.4,2.5,5.018-.926,4.826-4.75,5.139-9.2a16.347,16.347,0,0,0-.684-7.031,6.9,6.9,0,0,0-5.066-4.528,6.765,6.765,0,0,0-6.006,2.647A14.337,14.337,0,0,0,1720.25,183.343Z" transform="translate(-13.545 -37.695)" fill="#025157"/>
      <path id="Trazado_771759" data-name="Trazado 771759" d="M1706.516,146.321a5.527,5.527,0,0,0-.251-1.881,5.775,5.775,0,0,0-.791-1.323q-.966-1.326-1.931-2.653a8.582,8.582,0,0,0-2.492-2.573,5.537,5.537,0,0,0-4.632-.18,12.294,12.294,0,0,0-3.942,2.667,14.676,14.676,0,0,0-3.507,4.516c-3.137,6.882,2.748,15.468,8.98,18.383C1706.946,167.487,1706.58,151.1,1706.516,146.321Z" transform="translate(-5.417 -28.192)" fill="#025157"/>
      <path id="Trazado_771760" data-name="Trazado 771760" d="M1686.516,104.965a7.058,7.058,0,0,0-2.049-2.66c-3.28-3.075-6.681-6.228-10.9-7.778a5.376,5.376,0,0,0-3.98-.22c-1.922.856-2.482,3.293-2.595,5.394-.3,5.474,1.774,13.335,8.214,14.471C1679.548,114.937,1688.34,110.236,1686.516,104.965Z" transform="translate(0 -17.098)" fill="#025157"/>
      <path id="Trazado_771761" data-name="Trazado 771761" d="M1704.476,49.828c-1.573-3.037-4.258-6.084-7.674-5.93-2.226.1-4.13,1.551-5.872,2.937-1.964,1.562-4.01,3.232-4.937,5.565a12.481,12.481,0,0,0-.71,3.729c-.557,7.718,5.422,14.945,13.823,13.238C1707.776,67.6,1707.635,55.922,1704.476,49.828Z" transform="translate(-4.686 -4.253)" fill="#025157"/>
      <path id="Trazado_771762" data-name="Trazado 771762" d="M1749.83,39.857a12.359,12.359,0,0,0,1.237-3.5,11.518,11.518,0,0,0-1.019-5.544,5.559,5.559,0,0,0-2.169-3.145c-1.479-.806-3.312-.167-4.808.606-4.9,2.533-8.987,6.368-13,10.154a11.776,11.776,0,0,0-2.205,2.515,8.055,8.055,0,0,0-.98,3.848c-.152,5.289,4.542,11.128,10.258,9.276C1743.639,51.966,1747.128,45.583,1749.83,39.857Z" transform="translate(-15.357 0)" fill="#025157"/>
      <path id="Trazado_771763" data-name="Trazado 771763" d="M1726.307,102.665c.832-.939,1.917-1.716,2.375-2.884.721-1.842-.406-3.906-1.819-5.291a18.164,18.164,0,0,0-6.585-3.888,7.381,7.381,0,0,0-4.785-.481,5.582,5.582,0,0,0-3.255,3.5,15.915,15.915,0,0,0-.7,4.876c-.147,4.008-.055,11.242,5.3,11.947C1721.831,111.1,1723.71,105.6,1726.307,102.665Z" transform="translate(-11.416 -16.043)" fill="#025157"/>
      <path id="Trazado_771764" data-name="Trazado 771764" d="M1771.543,84.473a7.663,7.663,0,0,0-5.222-7.451,12.657,12.657,0,0,0-5.879-.068,15.287,15.287,0,0,0-4.647,1.417c-3.205,1.708-5.158,5.155-6.058,8.673a12.54,12.54,0,0,0-.268,5.918c1.323,5.7,8.463,8.382,13.757,6.7C1769.156,97.782,1771.287,89.955,1771.543,84.473Z" transform="translate(-21.084 -12.647)" fill="#025157"/>
      <path id="Trazado_771765" data-name="Trazado 771765" d="M1794.069,130.415a16.767,16.767,0,0,0,.417-4.719c-.015-2.12-.1-4.447-1.517-6.027-1.537-1.719-4.1-1.963-6.4-2.028a17.554,17.554,0,0,0-5.311.428,5.855,5.855,0,0,0-4.2,8.232c1.36,3.733,4.566,7.764,8.6,8.688C1789.09,135.778,1793.063,133.947,1794.069,130.415Z" transform="translate(-28.092 -23.15)" fill="#025157"/>
      <path id="Trazado_771766" data-name="Trazado 771766" d="M1749.844,142.287c-.357-2.694-2.079-4.985-3.8-7.088-2.612-3.19-5.717-6.467-9.8-7.053a2.943,2.943,0,0,0-3.838,2.161,13.008,13.008,0,0,0,.31,8.091,33.2,33.2,0,0,0,3.8,7.281c1.62,2.511,4.461,6.7,8.02,5.767C1747.976,150.548,1750.271,145.508,1749.844,142.287Z" transform="translate(-16.644 -25.832)" fill="#025157"/>
      <path id="Trazado_771767" data-name="Trazado 771767" d="M1787.951,167.854c-.064-2.462-.847-5.094-2.842-6.538-1.737-1.257-4.036-1.377-6.177-1.265a8.437,8.437,0,0,0-4.858,1.394c-1.792,1.413-2.314,3.885-2.519,6.158a20.83,20.83,0,0,0,.48,7.557c1.092,3.847,5.18,8.913,9.51,6.378C1785.806,179.045,1788.07,172.484,1787.951,167.854Z" transform="translate(-26.774 -34.017)" fill="#025157"/>
    </g>
    <g id="Grupo_56422" data-name="Grupo 56422" transform="translate(1032.843 6185.652)" opacity="0.15">
      <g id="Grupo_56421" data-name="Grupo 56421">
        <path id="Trazado_107870" data-name="Trazado 107870" d="M499.89-738.533c-53.517-2.773-103.072-30.623-133.261-68.425-45.43-56.883-63.509-149.2-9.2-206.255,52.58-55.243,148.853-60.437,223.27-38.238,52.272,15.594,98.15,48.824,119.175,92.387,49.122,101.775-71.556,223.762-195.4,220.706Q502.179-738.415,499.89-738.533Z" transform="translate(-323.94 1063.723)" fill="#f5947a"/>
      </g>
    </g>
    <g id="Grupo_1054830" data-name="Grupo 1054830" transform="translate(1238.593 6231.434)">
      <g id="Grupo_56011" data-name="Grupo 56011" transform="translate(0 0)">
        <g id="Grupo_56010" data-name="Grupo 56010">
          <g id="Grupo_56009" data-name="Grupo 56009" transform="translate(6.84)">
            <path id="Trazado_106587" data-name="Trazado 106587" d="M-6024.264,3924.207" transform="translate(6080.602 -3826.342)" fill="#afafaf" stroke="#fff" stroke-width="1"/>
            <path id="Trazado_106588" data-name="Trazado 106588" d="M-6077.5,4019.262h12.439l9.865-27.61s2.394-10.49,2.394-13.968.684-9.748.684-9.748l5.188-13.969s3.649,15.679,4.333,20.753,1.482,16.247,0,23.6-8.105,37.865-8.105,37.865l49.381.761,29.129-1.428-6.838-40.447s-1.235-16.741-.55-18.852,5.321-24.779,5.321-24.779l6.86,20.714s3.534,23.317,4.219,25.2,8.152,21.909,8.152,21.909l13.019-.38-6.748-41.083-2.109-8.78-.855-5.643-4.276-33.238s-3.192-18.3-7.3-22.006-13.511-3.648-13.511-3.648l-20.181-7.241-1.142-18.586-22.4.969-2.908-1.387s.457,17.56-.684,18.928-18.775,6.005-18.775,6.005-11.022-.532-16.191,8.057-7.754,38.919-7.754,38.919l-1.749,18.549s-6.917,21.435-6.917,23.412-1.988,27.154-1.988,27.154" transform="translate(6077.504 -3829.017)" fill="#afafaf" stroke="#fff" stroke-width="1"/>
            <g id="Grupo_56008" data-name="Grupo 56008" transform="translate(0 49.221)">
              <path id="Trazado_106589" data-name="Trazado 106589" d="M-6027.065,3897.166s10.841,3.858,14.053,3.938c3.627.09,13.3-3.261,13.3-3.261l-1.356-19.186-22.405.969-2.908-1.387S-6027,3892.17-6027.065,3897.166Z" transform="translate(6080.439 -3878.239)" fill="#afafaf" stroke="#fff" stroke-width="1"/>
              <path id="Trazado_106590" data-name="Trazado 106590" d="M-6052.806,3976.313c0-3.477.684-9.75.684-9.75l5.188-13.967c-3.5-11.382-.912-27.536,1.976-31.793s1.977-12.162,1.977-12.162c.521-1.56-.063-4.339-.824-6.838-2.729.085-11.012.944-15.291,8.054-5.169,8.591-7.754,38.919-7.754,38.919l-1.749,18.548s-6.917,21.436-6.917,23.412-1.988,27.154-1.988,27.154h12.439l9.865-27.61S-6052.806,3979.791-6052.806,3976.313Z" transform="translate(6077.504 -3876.867)" fill="#afafaf" stroke="#fff" stroke-width="1"/>
              <path id="Trazado_106591" data-name="Trazado 106591" d="M-5954.175,3976.36l-2.109-8.78-.855-5.643-4.276-33.238s-3.192-18.3-7.3-22.007-13.511-3.649-13.511-3.649l-.26-.093c-1.064,3.066-1.873,6.049-1.873,6.049s-.913,7.906,1.975,12.163c2.59,3.814,4.935,17.188,2.876,28.116l.019,1.3,6.67,20.135s3.534,23.317,4.218,25.2,7.9,21.564,7.9,21.564l12.555-7.79Z" transform="translate(6082.916 -3876.8)" fill="#afafaf" stroke="#fff" stroke-width="1"/>
            </g>
            <path id="Trazado_106592" data-name="Trazado 106592" d="M-6012.634,3831.793l-.266-.018c-8.37-.518-15.832,2.875-18.415,11.347-4.36,14.3,1.22,32.09,1.22,32.09l4.186,9.07c2.378,5.152,10.019,8.436,15.272,6.837a17.7,17.7,0,0,0,7.14-4.811c5.675-5.723,7.493-12.643,9.063-20.336,1.649-8.079,1.935-16.641-1.845-24.2a17.6,17.6,0,0,0-6.761-7.447A22.04,22.04,0,0,0-6012.634,3831.793Z" transform="translate(6080.095 -3831.724)" fill="#afafaf" stroke="#fff" stroke-width="1"/>
            <line id="Línea_403" data-name="Línea 403" y2="54.677" transform="translate(66.966 2.372)" fill="none" stroke="#fff" stroke-linecap="round" stroke-linejoin="round" stroke-width="0.76" stroke-dasharray="1.901"/>
            <line id="Línea_404" data-name="Línea 404" y2="109.45" transform="translate(66.966 80.996)" fill="none" stroke="#fff" stroke-linecap="round" stroke-linejoin="round" stroke-width="0.76" stroke-dasharray="1.901"/>
            <path id="Trazado_106593" data-name="Trazado 106593" d="M-6050.124,3936.711s60.887,3.422,75.026,0" transform="translate(6079.097 -3825.614)" fill="#afafaf" stroke="#fff" stroke-linecap="round" stroke-linejoin="round" stroke-width="0.76" stroke-dasharray="1.901"/>
            <path id="Trazado_106594" data-name="Trazado 106594" d="M-5982.378,3981.1s-41.732,2.737-60.2,0" transform="translate(6079.535 -3823.031)" fill="#afafaf" stroke="#fff" stroke-linecap="round" stroke-linejoin="round" stroke-width="0.76" stroke-dasharray="1.901"/>
            <path id="Trazado_106595" data-name="Trazado 106595" d="M-6027.855,3885.422" transform="translate(6080.393 -3828.599)" fill="#afafaf" stroke="#fff" stroke-linecap="round" stroke-linejoin="round" stroke-width="0.76"/>
            <ellipse id="Elipse_4154" data-name="Elipse 4154" cx="0.943" cy="0.943" rx="0.943" ry="0.943" transform="translate(66.22 75.096)" fill="#afafaf" stroke="#fff" stroke-width="1"/>
            <path id="Trazado_106596" data-name="Trazado 106596" d="M-6032.292,3859.923s20.907,8.391,38.247,0" transform="translate(6080.136 -3830.082)" fill="#afafaf" stroke="#fff" stroke-linecap="round" stroke-linejoin="round" stroke-width="0.735" stroke-dasharray="1.837"/>
          </g>
          <path id="Trazado_106597" data-name="Trazado 106597" d="M-6070.058,4002.251l5.369,9.793s-5.027,13.238-5.369,13.58-1.939,8.779,0,11.288,3.192,9.007,3.192,9.007v5.929a20.838,20.838,0,0,1-.979,3.992c-.389.456-2.1,1.71-2.328,0s-.829-4.79-.829-4.79-1.108-3.306-1.451-3.306-4.562.114-3.42,1.938A58.73,58.73,0,0,0-6072,4054.7s3.992,3.306,4.333,3.649a5.18,5.18,0,0,1,1.027,2.508,7.127,7.127,0,0,1,.113,2.622c-.227.343-.912,1.6-.912,1.6s-1.711,1.711-2.167,1.6-10.717-12.884-10.717-12.884l-3.65-11.174,3.535-12.884,3.877-25.427Z" transform="translate(6083.969 -3821.8)" fill="#afafaf"/>
          <path id="Trazado_106598" data-name="Trazado 106598" d="M-5956.431,4001.568l-5.724,9.794s5.359,13.238,5.724,13.58,2.067,8.781,0,11.289-3.4,9.007-3.4,9.007v5.929s.629,3.535,1.044,3.99,2.238,1.711,2.481,0,.883-4.788.883-4.788,1.182-3.306,1.547-3.306,4.863.114,3.646,1.938a59.359,59.359,0,0,1-4.131,5.018s-4.255,3.307-4.621,3.648a5.022,5.022,0,0,0-1.093,2.508c-.121,1.027-.365,2.28-.121,2.623s.972,1.6.972,1.6,1.823,1.71,2.309,1.6,11.427-12.884,11.427-12.884l3.89-11.175-3.769-12.884-4.132-25.426Z" transform="translate(6091.056 -3821.84)" fill="#afafaf"/>
        </g>
        <path id="Trazado_106599" data-name="Trazado 106599" d="M-6028.419,3895.918l-21.646,7.443s-10.051-1.285-16.437,25.167a340.639,340.639,0,0,0-7.889,53.362l-8.5,47.66,16.843,3.422,15.279-52.907,2.55-19.876v-1.331l1.556,10.49-4.333,38.368,80.955-1.353-3.152-42.654,3.152,10.427,16.19,57.467,20.98-2.966-15.05-64.928s-8.667-52.741-14.352-56.689c-2.442-1.7-31.258-11.1-31.258-11.1s-2.281,12.162-13.074,11.935S-6028.039,3904.28-6028.419,3895.918Z" transform="translate(6084.031 -3827.988)" fill="#025157"/>
        <path id="Trazado_106600" data-name="Trazado 106600" d="M-6050.124,3904.472s8.4,12.613,2.24,43.855" transform="translate(6085.937 -3827.49)" fill="none" stroke="#e7fcfe" stroke-linecap="round" stroke-linejoin="round" stroke-width="0.76" stroke-dasharray="1.901"/>
        <line id="Línea_405" data-name="Línea 405" x2="17.36" y2="4.105" transform="translate(6.84 177.01)" fill="none" stroke="#e7fcfe" stroke-linecap="round" stroke-linejoin="round" stroke-width="0.76" stroke-dasharray="1.901"/>
        <line id="Línea_406" data-name="Línea 406" x2="19.156" y2="4.105" transform="translate(12.966 145.596)" fill="none" stroke="#e7fcfe" stroke-linecap="round" stroke-linejoin="round" stroke-width="0.76" stroke-dasharray="1.901"/>
        <line id="Línea_407" data-name="Línea 407" x2="19.46" y2="3.801" transform="translate(15.52 130.3)" fill="none" stroke="#e7fcfe" stroke-linecap="round" stroke-linejoin="round" stroke-width="0.76" stroke-dasharray="1.901"/>
        <line id="Línea_408" data-name="Línea 408" x2="16.766" y2="17.331" transform="translate(18.213 108.75)" fill="none" stroke="#e7fcfe" stroke-linecap="round" stroke-linejoin="round" stroke-width="0.76" stroke-dasharray="1.901"/>
        <path id="Trazado_106601" data-name="Trazado 106601" d="M-5978.64,3904.472s-8.4,12.613-2.239,43.855" transform="translate(6089.836 -3827.49)" fill="none" stroke="#c0dee1" stroke-linecap="round" stroke-linejoin="round" stroke-width="0.76" stroke-dasharray="1.901"/>
        <line id="Línea_409" data-name="Línea 409" x1="17.36" y2="4.105" transform="translate(126.782 176.324)" fill="none" stroke="#c0dee1" stroke-linecap="round" stroke-linejoin="round" stroke-width="0.76" stroke-dasharray="1.901"/>
        <line id="Línea_410" data-name="Línea 410" x1="19.156" y2="4.105" transform="translate(117.204 145.596)" fill="none" stroke="#c0dee1" stroke-linecap="round" stroke-linejoin="round" stroke-width="0.76" stroke-dasharray="1.901"/>
        <line id="Línea_411" data-name="Línea 411" x1="19.46" y2="3.801" transform="translate(112.03 130.3)" fill="none" stroke="#c0dee1" stroke-linecap="round" stroke-linejoin="round" stroke-width="0.76" stroke-dasharray="1.901"/>
        <line id="Línea_412" data-name="Línea 412" x1="16.766" y2="17.331" transform="translate(112.03 108.75)" fill="none" stroke="#c0dee1" stroke-linecap="round" stroke-linejoin="round" stroke-width="0.76" stroke-dasharray="1.901"/>
        <path id="Trazado_106602" data-name="Trazado 106602" d="M-6052,4027.584l-3.3,22.951v17.472h85.706v-17.213l-3.9-23.925Z" transform="translate(6085.637 -3820.368)" fill="#afafaf"/>
      </g>
    </g>
    <path id="Trazado_106603" data-name="Trazado 106603" d="M-5999.446,3923.927l-43.776-59.916h-99.705" transform="translate(7271.784 2386.04)" fill="none" stroke="#f5947a" stroke-miterlimit="10" stroke-width="1"/>
    <path id="Trazado_772801" data-name="Trazado 772801" d="M4.672-5.07A7.053,7.053,0,0,1,1.863-6.434a2.6,2.6,0,0,1-.879-2,2.751,2.751,0,0,1,1.074-2.223,4.269,4.269,0,0,1,2.793-.879,4.66,4.66,0,0,1,2.09.453,3.436,3.436,0,0,1,1.422,1.25,3.2,3.2,0,0,1,.5,1.742H7.359A2.069,2.069,0,0,0,6.7-9.707a2.675,2.675,0,0,0-1.852-.59,2.736,2.736,0,0,0-1.73.488A1.628,1.628,0,0,0,2.5-8.453a1.465,1.465,0,0,0,.59,1.176A5.79,5.79,0,0,0,5.1-6.4a9.3,9.3,0,0,1,2.219.879A3.367,3.367,0,0,1,8.5-4.4a2.861,2.861,0,0,1,.387,1.508A2.658,2.658,0,0,1,7.813-.676,4.6,4.6,0,0,1,4.93.156,5.347,5.347,0,0,1,2.742-.293a3.681,3.681,0,0,1-1.566-1.23A3,3,0,0,1,.625-3.3H2.133a1.959,1.959,0,0,0,.762,1.629,3.207,3.207,0,0,0,2.035.6,2.948,2.948,0,0,0,1.82-.484,1.573,1.573,0,0,0,.633-1.32A1.545,1.545,0,0,0,6.8-4.168,6.755,6.755,0,0,0,4.672-5.07ZM12.156,0H10.711V-8.453h1.445ZM10.594-10.7a.863.863,0,0,1,.215-.594.807.807,0,0,1,.637-.242.819.819,0,0,1,.641.242.854.854,0,0,1,.219.594.826.826,0,0,1-.219.586.834.834,0,0,1-.641.234.821.821,0,0,1-.637-.234A.834.834,0,0,1,10.594-10.7Zm5.242,2.242.047,1.063a3.08,3.08,0,0,1,2.531-1.219q2.68,0,2.7,3.023V0H19.672V-5.594a1.946,1.946,0,0,0-.418-1.352,1.675,1.675,0,0,0-1.277-.437,2.086,2.086,0,0,0-1.234.375,2.546,2.546,0,0,0-.828.984V0H14.469V-8.453Zm12.781,0,.039.938a3.122,3.122,0,0,1,2.508-1.094A2.417,2.417,0,0,1,33.578-7.25a3.2,3.2,0,0,1,1.1-.984,3.242,3.242,0,0,1,1.6-.375q2.781,0,2.828,2.945V0H37.656V-5.578a1.941,1.941,0,0,0-.414-1.355,1.823,1.823,0,0,0-1.391-.449,1.916,1.916,0,0,0-1.336.48A1.949,1.949,0,0,0,33.9-5.609V0H32.445V-5.539a1.613,1.613,0,0,0-1.8-1.844A1.934,1.934,0,0,0,28.7-6.172V0H27.25V-8.453ZM46.5,0a3.036,3.036,0,0,1-.2-.891A3.225,3.225,0,0,1,43.891.156,2.984,2.984,0,0,1,41.84-.551a2.287,2.287,0,0,1-.8-1.793,2.39,2.39,0,0,1,1-2.051,4.733,4.733,0,0,1,2.824-.73h1.406v-.664A1.623,1.623,0,0,0,45.82-7a1.821,1.821,0,0,0-1.336-.449,2.107,2.107,0,0,0-1.3.391,1.151,1.151,0,0,0-.523.945H41.211a2,2,0,0,1,.449-1.223,3.066,3.066,0,0,1,1.219-.934,4.1,4.1,0,0,1,1.691-.344,3.342,3.342,0,0,1,2.289.73,2.635,2.635,0,0,1,.859,2.012v3.891a4.757,4.757,0,0,0,.3,1.852V0ZM44.1-1.1a2.54,2.54,0,0,0,1.289-.352,2.127,2.127,0,0,0,.883-.914V-4.1H45.141q-2.656,0-2.656,1.555a1.316,1.316,0,0,0,.453,1.063A1.742,1.742,0,0,0,44.1-1.1Zm7.25-7.352L51.4-7.391A3.08,3.08,0,0,1,53.93-8.609q2.68,0,2.7,3.023V0H55.188V-5.594a1.946,1.946,0,0,0-.418-1.352,1.675,1.675,0,0,0-1.277-.437,2.086,2.086,0,0,0-1.234.375,2.546,2.546,0,0,0-.828.984V0H49.984V-8.453ZM58.469-4.3a4.968,4.968,0,0,1,.914-3.145A2.923,2.923,0,0,1,61.8-8.609a2.908,2.908,0,0,1,2.414,1.094l.07-.937h1.32V-.2a3.439,3.439,0,0,1-.973,2.586,3.589,3.589,0,0,1-2.613.945,4.348,4.348,0,0,1-1.789-.391A3.08,3.08,0,0,1,58.9,1.867L59.648,1a2.826,2.826,0,0,0,2.273,1.148,2.214,2.214,0,0,0,1.645-.594,2.269,2.269,0,0,0,.59-1.672V-.844a2.971,2.971,0,0,1-2.367,1,2.887,2.887,0,0,1-2.4-1.2A5.224,5.224,0,0,1,58.469-4.3Zm1.453.164a3.79,3.79,0,0,0,.586,2.246,1.9,1.9,0,0,0,1.641.816,2.117,2.117,0,0,0,2.008-1.242V-6.172a2.142,2.142,0,0,0-1.992-1.211,1.921,1.921,0,0,0-1.648.82A4.128,4.128,0,0,0,59.922-4.133ZM73.008,0a3.036,3.036,0,0,1-.2-.891A3.225,3.225,0,0,1,70.4.156a2.984,2.984,0,0,1-2.051-.707,2.288,2.288,0,0,1-.8-1.793,2.39,2.39,0,0,1,1-2.051,4.733,4.733,0,0,1,2.824-.73h1.406v-.664A1.623,1.623,0,0,0,72.328-7a1.821,1.821,0,0,0-1.336-.449,2.108,2.108,0,0,0-1.3.391,1.151,1.151,0,0,0-.523.945H67.719a2,2,0,0,1,.449-1.223,3.066,3.066,0,0,1,1.219-.934,4.1,4.1,0,0,1,1.691-.344,3.342,3.342,0,0,1,2.289.73,2.635,2.635,0,0,1,.859,2.012v3.891a4.757,4.757,0,0,0,.3,1.852V0Zm-2.4-1.1A2.54,2.54,0,0,0,71.9-1.453a2.127,2.127,0,0,0,.883-.914V-4.1H71.648q-2.656,0-2.656,1.555a1.316,1.316,0,0,0,.453,1.063A1.742,1.742,0,0,0,70.609-1.1Z" transform="translate(1047.843 6251.894)" fill="#12263f"/>
    <path id="Trazado_772802" data-name="Trazado 772802" d="M3.258-11.375,6.977-2.094,10.7-11.375h1.945V0h-1.5V-4.43l.141-4.781L7.547,0H6.4L2.672-9.187,2.82-4.43V0H1.32V-11.375ZM20.281,0a3.036,3.036,0,0,1-.2-.891A3.225,3.225,0,0,1,17.672.156a2.984,2.984,0,0,1-2.051-.707,2.287,2.287,0,0,1-.8-1.793,2.39,2.39,0,0,1,1-2.051,4.733,4.733,0,0,1,2.824-.73h1.406v-.664A1.623,1.623,0,0,0,19.6-7a1.821,1.821,0,0,0-1.336-.449,2.108,2.108,0,0,0-1.3.391,1.151,1.151,0,0,0-.523.945H14.992a2,2,0,0,1,.449-1.223,3.066,3.066,0,0,1,1.219-.934,4.1,4.1,0,0,1,1.691-.344,3.342,3.342,0,0,1,2.289.73A2.635,2.635,0,0,1,21.5-5.867v3.891a4.757,4.757,0,0,0,.3,1.852V0Zm-2.4-1.1a2.54,2.54,0,0,0,1.289-.352,2.127,2.127,0,0,0,.883-.914V-4.1H18.922q-2.656,0-2.656,1.555a1.316,1.316,0,0,0,.453,1.063A1.742,1.742,0,0,0,17.883-1.1Zm7.25-7.352.047,1.063a3.08,3.08,0,0,1,2.531-1.219q2.68,0,2.7,3.023V0H28.969V-5.594a1.946,1.946,0,0,0-.418-1.352,1.675,1.675,0,0,0-1.277-.437,2.086,2.086,0,0,0-1.234.375,2.546,2.546,0,0,0-.828.984V0H23.766V-8.453ZM32.25-4.3a4.968,4.968,0,0,1,.914-3.145,2.923,2.923,0,0,1,2.422-1.168A2.908,2.908,0,0,1,38-7.516l.07-.937h1.32V-.2a3.439,3.439,0,0,1-.973,2.586,3.589,3.589,0,0,1-2.613.945,4.348,4.348,0,0,1-1.789-.391,3.08,3.08,0,0,1-1.336-1.07L33.43,1A2.826,2.826,0,0,0,35.7,2.148a2.214,2.214,0,0,0,1.645-.594,2.269,2.269,0,0,0,.59-1.672V-.844a2.971,2.971,0,0,1-2.367,1,2.887,2.887,0,0,1-2.4-1.2A5.224,5.224,0,0,1,32.25-4.3Zm1.453.164a3.79,3.79,0,0,0,.586,2.246,1.9,1.9,0,0,0,1.641.816,2.117,2.117,0,0,0,2.008-1.242V-6.172a2.142,2.142,0,0,0-1.992-1.211,1.921,1.921,0,0,0-1.648.82A4.128,4.128,0,0,0,33.7-4.133ZM46.789,0a3.036,3.036,0,0,1-.2-.891A3.225,3.225,0,0,1,44.18.156a2.984,2.984,0,0,1-2.051-.707,2.287,2.287,0,0,1-.8-1.793,2.39,2.39,0,0,1,1-2.051,4.733,4.733,0,0,1,2.824-.73h1.406v-.664A1.623,1.623,0,0,0,46.109-7a1.821,1.821,0,0,0-1.336-.449,2.107,2.107,0,0,0-1.3.391,1.151,1.151,0,0,0-.523.945H41.5a2,2,0,0,1,.449-1.223,3.066,3.066,0,0,1,1.219-.934,4.1,4.1,0,0,1,1.691-.344,3.342,3.342,0,0,1,2.289.73,2.635,2.635,0,0,1,.859,2.012v3.891a4.757,4.757,0,0,0,.3,1.852V0Zm-2.4-1.1a2.54,2.54,0,0,0,1.289-.352,2.127,2.127,0,0,0,.883-.914V-4.1H45.43q-2.656,0-2.656,1.555a1.316,1.316,0,0,0,.453,1.063A1.742,1.742,0,0,0,44.391-1.1Zm13.234.078a2.082,2.082,0,0,0,1.352-.469,1.649,1.649,0,0,0,.641-1.172h1.367a2.621,2.621,0,0,1-.5,1.383,3.293,3.293,0,0,1-1.23,1.047,3.55,3.55,0,0,1-1.629.391A3.482,3.482,0,0,1,54.879-1a4.59,4.59,0,0,1-1.02-3.152v-.242a5.089,5.089,0,0,1,.453-2.2,3.451,3.451,0,0,1,1.3-1.492,3.7,3.7,0,0,1,2-.531,3.39,3.39,0,0,1,2.363.852,3.043,3.043,0,0,1,1,2.211H59.617A1.992,1.992,0,0,0,59-6.895a1.932,1.932,0,0,0-1.379-.527,2.023,2.023,0,0,0-1.707.793A3.724,3.724,0,0,0,55.3-4.336v.273a3.65,3.65,0,0,0,.6,2.25A2.033,2.033,0,0,0,57.625-1.023Zm4.6-3.281a4.993,4.993,0,0,1,.488-2.234A3.643,3.643,0,0,1,64.074-8.07a3.7,3.7,0,0,1,1.988-.539,3.565,3.565,0,0,1,2.793,1.2,4.6,4.6,0,0,1,1.066,3.18v.1a5.036,5.036,0,0,1-.473,2.215A3.589,3.589,0,0,1,68.1-.391a3.743,3.743,0,0,1-2.02.547,3.556,3.556,0,0,1-2.785-1.2A4.575,4.575,0,0,1,62.227-4.2Zm1.453.172a3.616,3.616,0,0,0,.652,2.258,2.088,2.088,0,0,0,1.746.852,2.075,2.075,0,0,0,1.75-.863A3.955,3.955,0,0,0,68.477-4.3a3.61,3.61,0,0,0-.66-2.254,2.1,2.1,0,0,0-1.754-.863,2.075,2.075,0,0,0-1.727.852A3.925,3.925,0,0,0,63.68-4.133Zm7.7-.164A4.961,4.961,0,0,1,72.3-7.449a2.962,2.962,0,0,1,2.453-1.16A2.96,2.96,0,0,1,77.117-7.6l.063-.852h1.328V3.25H77.063V-.781a3.033,3.033,0,0,1-2.328.938,2.915,2.915,0,0,1-2.441-1.191,5.072,5.072,0,0,1-.91-3.16Zm1.445.164a3.761,3.761,0,0,0,.613,2.281,1.951,1.951,0,0,0,1.652.828,2.164,2.164,0,0,0,1.969-1.141V-6.3a2.171,2.171,0,0,0-1.953-1.117,1.965,1.965,0,0,0-1.664.832A4.094,4.094,0,0,0,72.828-4.133Zm13.219,3.3A3.07,3.07,0,0,1,83.57.156a2.628,2.628,0,0,1-2.059-.785A3.4,3.4,0,0,1,80.8-2.953v-5.5h1.445v5.461q0,1.922,1.563,1.922a2.163,2.163,0,0,0,2.2-1.234V-8.453h1.445V0H86.078Zm7.109.992a3.693,3.693,0,0,1-2.8-1.129,4.19,4.19,0,0,1-1.078-3.02v-.266a5.073,5.073,0,0,1,.48-2.246,3.748,3.748,0,0,1,1.344-1.547,3.378,3.378,0,0,1,1.871-.559,3.166,3.166,0,0,1,2.563,1.086,4.7,4.7,0,0,1,.914,3.109v.6H90.727a3,3,0,0,0,.73,2.02,2.3,2.3,0,0,0,1.777.77,2.517,2.517,0,0,0,1.3-.312,3.259,3.259,0,0,0,.93-.828l.883.688A3.55,3.55,0,0,1,93.156.156Zm-.18-7.578a1.928,1.928,0,0,0-1.469.637A3.1,3.1,0,0,0,90.773-5h4.234v-.109a2.753,2.753,0,0,0-.594-1.707A1.815,1.815,0,0,0,92.977-7.422Zm7.109-3.078v2.047h1.578v1.117h-1.578v5.242a1.171,1.171,0,0,0,.211.762.888.888,0,0,0,.719.254,3.5,3.5,0,0,0,.688-.094V0a4.19,4.19,0,0,1-1.109.156A1.8,1.8,0,0,1,99.133-.43a2.517,2.517,0,0,1-.492-1.664V-7.336H97.1V-8.453h1.539V-10.5ZM108.57,0a3.036,3.036,0,0,1-.2-.891A3.225,3.225,0,0,1,105.961.156a2.984,2.984,0,0,1-2.051-.707,2.288,2.288,0,0,1-.8-1.793,2.39,2.39,0,0,1,1-2.051,4.733,4.733,0,0,1,2.824-.73h1.406v-.664A1.623,1.623,0,0,0,107.891-7a1.821,1.821,0,0,0-1.336-.449,2.108,2.108,0,0,0-1.3.391,1.151,1.151,0,0,0-.523.945h-1.453a2,2,0,0,1,.449-1.223,3.066,3.066,0,0,1,1.219-.934,4.1,4.1,0,0,1,1.691-.344,3.342,3.342,0,0,1,2.289.73,2.635,2.635,0,0,1,.859,2.012v3.891a4.757,4.757,0,0,0,.3,1.852V0Zm-2.4-1.1a2.54,2.54,0,0,0,1.289-.352,2.127,2.127,0,0,0,.883-.914V-4.1h-1.133q-2.656,0-2.656,1.555a1.316,1.316,0,0,0,.453,1.063A1.742,1.742,0,0,0,106.172-1.1Z" transform="translate(1047.843 6276.809)" fill="#12263f"/>
    <path id="Trazado_772803" data-name="Trazado 772803" d="M3.258-11.375,6.977-2.094,10.7-11.375h1.945V0h-1.5V-4.43l.141-4.781L7.547,0H6.4L2.672-9.187,2.82-4.43V0H1.32V-11.375ZM20.281,0a3.036,3.036,0,0,1-.2-.891A3.225,3.225,0,0,1,17.672.156a2.984,2.984,0,0,1-2.051-.707,2.287,2.287,0,0,1-.8-1.793,2.39,2.39,0,0,1,1-2.051,4.733,4.733,0,0,1,2.824-.73h1.406v-.664A1.623,1.623,0,0,0,19.6-7a1.821,1.821,0,0,0-1.336-.449,2.108,2.108,0,0,0-1.3.391,1.151,1.151,0,0,0-.523.945H14.992a2,2,0,0,1,.449-1.223,3.066,3.066,0,0,1,1.219-.934,4.1,4.1,0,0,1,1.691-.344,3.342,3.342,0,0,1,2.289.73A2.635,2.635,0,0,1,21.5-5.867v3.891a4.757,4.757,0,0,0,.3,1.852V0Zm-2.4-1.1a2.54,2.54,0,0,0,1.289-.352,2.127,2.127,0,0,0,.883-.914V-4.1H18.922q-2.656,0-2.656,1.555a1.316,1.316,0,0,0,.453,1.063A1.742,1.742,0,0,0,17.883-1.1Zm7.25-7.352.047,1.063a3.08,3.08,0,0,1,2.531-1.219q2.68,0,2.7,3.023V0H28.969V-5.594a1.946,1.946,0,0,0-.418-1.352,1.675,1.675,0,0,0-1.277-.437,2.086,2.086,0,0,0-1.234.375,2.546,2.546,0,0,0-.828.984V0H23.766V-8.453ZM32.25-4.3a4.968,4.968,0,0,1,.914-3.145,2.923,2.923,0,0,1,2.422-1.168A2.908,2.908,0,0,1,38-7.516l.07-.937h1.32V-.2a3.439,3.439,0,0,1-.973,2.586,3.589,3.589,0,0,1-2.613.945,4.348,4.348,0,0,1-1.789-.391,3.08,3.08,0,0,1-1.336-1.07L33.43,1A2.826,2.826,0,0,0,35.7,2.148a2.214,2.214,0,0,0,1.645-.594,2.269,2.269,0,0,0,.59-1.672V-.844a2.971,2.971,0,0,1-2.367,1,2.887,2.887,0,0,1-2.4-1.2A5.224,5.224,0,0,1,32.25-4.3Zm1.453.164a3.79,3.79,0,0,0,.586,2.246,1.9,1.9,0,0,0,1.641.816,2.117,2.117,0,0,0,2.008-1.242V-6.172a2.142,2.142,0,0,0-1.992-1.211,1.921,1.921,0,0,0-1.648.82A4.128,4.128,0,0,0,33.7-4.133ZM46.789,0a3.036,3.036,0,0,1-.2-.891A3.225,3.225,0,0,1,44.18.156a2.984,2.984,0,0,1-2.051-.707,2.287,2.287,0,0,1-.8-1.793,2.39,2.39,0,0,1,1-2.051,4.733,4.733,0,0,1,2.824-.73h1.406v-.664A1.623,1.623,0,0,0,46.109-7a1.821,1.821,0,0,0-1.336-.449,2.107,2.107,0,0,0-1.3.391,1.151,1.151,0,0,0-.523.945H41.5a2,2,0,0,1,.449-1.223,3.066,3.066,0,0,1,1.219-.934,4.1,4.1,0,0,1,1.691-.344,3.342,3.342,0,0,1,2.289.73,2.635,2.635,0,0,1,.859,2.012v3.891a4.757,4.757,0,0,0,.3,1.852V0Zm-2.4-1.1a2.54,2.54,0,0,0,1.289-.352,2.127,2.127,0,0,0,.883-.914V-4.1H45.43q-2.656,0-2.656,1.555a1.316,1.316,0,0,0,.453,1.063A1.742,1.742,0,0,0,44.391-1.1Zm13.234.078a2.082,2.082,0,0,0,1.352-.469,1.649,1.649,0,0,0,.641-1.172h1.367a2.621,2.621,0,0,1-.5,1.383,3.293,3.293,0,0,1-1.23,1.047,3.55,3.55,0,0,1-1.629.391A3.482,3.482,0,0,1,54.879-1a4.59,4.59,0,0,1-1.02-3.152v-.242a5.089,5.089,0,0,1,.453-2.2,3.451,3.451,0,0,1,1.3-1.492,3.7,3.7,0,0,1,2-.531,3.39,3.39,0,0,1,2.363.852,3.043,3.043,0,0,1,1,2.211H59.617A1.992,1.992,0,0,0,59-6.895a1.932,1.932,0,0,0-1.379-.527,2.023,2.023,0,0,0-1.707.793A3.724,3.724,0,0,0,55.3-4.336v.273a3.65,3.65,0,0,0,.6,2.25A2.033,2.033,0,0,0,57.625-1.023Zm4.6-3.281a4.993,4.993,0,0,1,.488-2.234A3.643,3.643,0,0,1,64.074-8.07a3.7,3.7,0,0,1,1.988-.539,3.565,3.565,0,0,1,2.793,1.2,4.6,4.6,0,0,1,1.066,3.18v.1a5.036,5.036,0,0,1-.473,2.215A3.589,3.589,0,0,1,68.1-.391a3.743,3.743,0,0,1-2.02.547,3.556,3.556,0,0,1-2.785-1.2A4.575,4.575,0,0,1,62.227-4.2Zm1.453.172a3.616,3.616,0,0,0,.652,2.258,2.088,2.088,0,0,0,1.746.852,2.075,2.075,0,0,0,1.75-.863A3.955,3.955,0,0,0,68.477-4.3a3.61,3.61,0,0,0-.66-2.254,2.1,2.1,0,0,0-1.754-.863,2.075,2.075,0,0,0-1.727.852A3.925,3.925,0,0,0,63.68-4.133ZM75.82-7.156a4.331,4.331,0,0,0-.711-.055A1.9,1.9,0,0,0,73.18-6V0H71.734V-8.453h1.406l.023.977A2.251,2.251,0,0,1,75.18-8.609a1.477,1.477,0,0,1,.641.109ZM79.5-10.5v2.047h1.578v1.117H79.5v5.242a1.171,1.171,0,0,0,.211.762.888.888,0,0,0,.719.254,3.5,3.5,0,0,0,.688-.094V0a4.19,4.19,0,0,1-1.109.156A1.8,1.8,0,0,1,78.547-.43a2.517,2.517,0,0,1-.492-1.664V-7.336H76.516V-8.453h1.539V-10.5ZM87.984,0a3.036,3.036,0,0,1-.2-.891A3.225,3.225,0,0,1,85.375.156a2.984,2.984,0,0,1-2.051-.707,2.288,2.288,0,0,1-.8-1.793,2.39,2.39,0,0,1,1-2.051,4.733,4.733,0,0,1,2.824-.73h1.406v-.664A1.623,1.623,0,0,0,87.3-7a1.821,1.821,0,0,0-1.336-.449,2.108,2.108,0,0,0-1.3.391,1.151,1.151,0,0,0-.523.945H82.7a2,2,0,0,1,.449-1.223,3.066,3.066,0,0,1,1.219-.934,4.1,4.1,0,0,1,1.691-.344,3.342,3.342,0,0,1,2.289.73A2.635,2.635,0,0,1,89.2-5.867v3.891a4.757,4.757,0,0,0,.3,1.852V0Zm-2.4-1.1a2.54,2.54,0,0,0,1.289-.352,2.127,2.127,0,0,0,.883-.914V-4.1H86.625q-2.656,0-2.656,1.555a1.316,1.316,0,0,0,.453,1.063A1.742,1.742,0,0,0,85.586-1.1Z" transform="translate(1047.843 6303.211)" fill="#12263f"/>
    <path id="Trazado_772804" data-name="Trazado 772804" d="M3.258-11.375,6.977-2.094,10.7-11.375h1.945V0h-1.5V-4.43l.141-4.781L7.547,0H6.4L2.672-9.187,2.82-4.43V0H1.32V-11.375ZM20.281,0a3.036,3.036,0,0,1-.2-.891A3.225,3.225,0,0,1,17.672.156a2.984,2.984,0,0,1-2.051-.707,2.287,2.287,0,0,1-.8-1.793,2.39,2.39,0,0,1,1-2.051,4.733,4.733,0,0,1,2.824-.73h1.406v-.664A1.623,1.623,0,0,0,19.6-7a1.821,1.821,0,0,0-1.336-.449,2.108,2.108,0,0,0-1.3.391,1.151,1.151,0,0,0-.523.945H14.992a2,2,0,0,1,.449-1.223,3.066,3.066,0,0,1,1.219-.934,4.1,4.1,0,0,1,1.691-.344,3.342,3.342,0,0,1,2.289.73A2.635,2.635,0,0,1,21.5-5.867v3.891a4.757,4.757,0,0,0,.3,1.852V0Zm-2.4-1.1a2.54,2.54,0,0,0,1.289-.352,2.127,2.127,0,0,0,.883-.914V-4.1H18.922q-2.656,0-2.656,1.555a1.316,1.316,0,0,0,.453,1.063A1.742,1.742,0,0,0,17.883-1.1Zm7.25-7.352.047,1.063a3.08,3.08,0,0,1,2.531-1.219q2.68,0,2.7,3.023V0H28.969V-5.594a1.946,1.946,0,0,0-.418-1.352,1.675,1.675,0,0,0-1.277-.437,2.086,2.086,0,0,0-1.234.375,2.546,2.546,0,0,0-.828.984V0H23.766V-8.453ZM32.25-4.3a4.968,4.968,0,0,1,.914-3.145,2.923,2.923,0,0,1,2.422-1.168A2.908,2.908,0,0,1,38-7.516l.07-.937h1.32V-.2a3.439,3.439,0,0,1-.973,2.586,3.589,3.589,0,0,1-2.613.945,4.348,4.348,0,0,1-1.789-.391,3.08,3.08,0,0,1-1.336-1.07L33.43,1A2.826,2.826,0,0,0,35.7,2.148a2.214,2.214,0,0,0,1.645-.594,2.269,2.269,0,0,0,.59-1.672V-.844a2.971,2.971,0,0,1-2.367,1,2.887,2.887,0,0,1-2.4-1.2A5.224,5.224,0,0,1,32.25-4.3Zm1.453.164a3.79,3.79,0,0,0,.586,2.246,1.9,1.9,0,0,0,1.641.816,2.117,2.117,0,0,0,2.008-1.242V-6.172a2.142,2.142,0,0,0-1.992-1.211,1.921,1.921,0,0,0-1.648.82A4.128,4.128,0,0,0,33.7-4.133ZM46.789,0a3.036,3.036,0,0,1-.2-.891A3.225,3.225,0,0,1,44.18.156a2.984,2.984,0,0,1-2.051-.707,2.287,2.287,0,0,1-.8-1.793,2.39,2.39,0,0,1,1-2.051,4.733,4.733,0,0,1,2.824-.73h1.406v-.664A1.623,1.623,0,0,0,46.109-7a1.821,1.821,0,0,0-1.336-.449,2.107,2.107,0,0,0-1.3.391,1.151,1.151,0,0,0-.523.945H41.5a2,2,0,0,1,.449-1.223,3.066,3.066,0,0,1,1.219-.934,4.1,4.1,0,0,1,1.691-.344,3.342,3.342,0,0,1,2.289.73,2.635,2.635,0,0,1,.859,2.012v3.891a4.757,4.757,0,0,0,.3,1.852V0Zm-2.4-1.1a2.54,2.54,0,0,0,1.289-.352,2.127,2.127,0,0,0,.883-.914V-4.1H45.43q-2.656,0-2.656,1.555a1.316,1.316,0,0,0,.453,1.063A1.742,1.742,0,0,0,44.391-1.1ZM64.7-2.969H59.938L58.867,0H57.32l4.344-11.375h1.313L67.328,0H65.789ZM60.391-4.2h3.867L62.32-9.523ZM70.2,0H68.758V-12H70.2Zm4.273-10.5v2.047h1.578v1.117H74.477v5.242a1.171,1.171,0,0,0,.211.762.888.888,0,0,0,.719.254,3.5,3.5,0,0,0,.688-.094V0a4.19,4.19,0,0,1-1.109.156A1.8,1.8,0,0,1,73.523-.43a2.517,2.517,0,0,1-.492-1.664V-7.336H71.492V-8.453h1.539V-10.5Zm3.3,9.742A.905.905,0,0,1,78-1.383a.848.848,0,0,1,.668-.25.874.874,0,0,1,.676.25.887.887,0,0,1,.23.625.839.839,0,0,1-.23.6.89.89,0,0,1-.676.242A.863.863,0,0,1,78-.156.855.855,0,0,1,77.773-.758ZM89.3-1.023a2.082,2.082,0,0,0,1.352-.469A1.649,1.649,0,0,0,91.3-2.664h1.367a2.621,2.621,0,0,1-.5,1.383,3.293,3.293,0,0,1-1.23,1.047A3.55,3.55,0,0,1,89.3.156,3.482,3.482,0,0,1,86.559-1a4.59,4.59,0,0,1-1.02-3.152v-.242a5.089,5.089,0,0,1,.453-2.2,3.451,3.451,0,0,1,1.3-1.492,3.7,3.7,0,0,1,2-.531,3.39,3.39,0,0,1,2.363.852,3.043,3.043,0,0,1,1,2.211H91.3a1.992,1.992,0,0,0-.621-1.348A1.932,1.932,0,0,0,89.3-7.422a2.023,2.023,0,0,0-1.707.793,3.724,3.724,0,0,0-.605,2.293v.273a3.65,3.65,0,0,0,.6,2.25A2.033,2.033,0,0,0,89.3-1.023Zm4.6-3.281a4.993,4.993,0,0,1,.488-2.234A3.643,3.643,0,0,1,95.754-8.07a3.7,3.7,0,0,1,1.988-.539,3.565,3.565,0,0,1,2.793,1.2,4.6,4.6,0,0,1,1.066,3.18v.1a5.036,5.036,0,0,1-.473,2.215A3.589,3.589,0,0,1,99.777-.391a3.743,3.743,0,0,1-2.02.547,3.556,3.556,0,0,1-2.785-1.2A4.575,4.575,0,0,1,93.906-4.2Zm1.453.172a3.616,3.616,0,0,0,.652,2.258,2.088,2.088,0,0,0,1.746.852,2.075,2.075,0,0,0,1.75-.863,3.955,3.955,0,0,0,.648-2.418,3.61,3.61,0,0,0-.66-2.254,2.1,2.1,0,0,0-1.754-.863,2.075,2.075,0,0,0-1.727.852A3.925,3.925,0,0,0,95.359-4.133Zm7.7-.164a4.952,4.952,0,0,1,.922-3.129A2.915,2.915,0,0,1,106.4-8.609a2.932,2.932,0,0,1,2.352,1.016V-12H110.2V0h-1.328l-.07-.906A2.943,2.943,0,0,1,106.383.156a2.887,2.887,0,0,1-2.395-1.2,5.008,5.008,0,0,1-.926-3.141Zm1.445.164a3.749,3.749,0,0,0,.594,2.25,1.92,1.92,0,0,0,1.641.813A2.109,2.109,0,0,0,108.75-2.3V-6.187a2.125,2.125,0,0,0-1.992-1.2,1.929,1.929,0,0,0-1.656.82A4.128,4.128,0,0,0,104.508-4.133Zm7.547-.172a4.993,4.993,0,0,1,.488-2.234A3.643,3.643,0,0,1,113.9-8.07a3.7,3.7,0,0,1,1.988-.539,3.565,3.565,0,0,1,2.793,1.2,4.6,4.6,0,0,1,1.066,3.18v.1a5.036,5.036,0,0,1-.473,2.215,3.589,3.589,0,0,1-1.352,1.527,3.743,3.743,0,0,1-2.02.547,3.556,3.556,0,0,1-2.785-1.2A4.575,4.575,0,0,1,112.055-4.2Zm1.453.172a3.616,3.616,0,0,0,.652,2.258,2.088,2.088,0,0,0,1.746.852,2.075,2.075,0,0,0,1.75-.863A3.955,3.955,0,0,0,118.3-4.3a3.61,3.61,0,0,0-.66-2.254,2.1,2.1,0,0,0-1.754-.863,2.075,2.075,0,0,0-1.727.852A3.925,3.925,0,0,0,113.508-4.133Z" transform="translate(1047.843 6329.738)" fill="#12263f"/>
    <path id="Trazado_772805" data-name="Trazado 772805" d="M3.258-11.375,6.977-2.094,10.7-11.375h1.945V0h-1.5V-4.43l.141-4.781L7.547,0H6.4L2.672-9.187,2.82-4.43V0H1.32V-11.375ZM20.281,0a3.036,3.036,0,0,1-.2-.891A3.225,3.225,0,0,1,17.672.156a2.984,2.984,0,0,1-2.051-.707,2.287,2.287,0,0,1-.8-1.793,2.39,2.39,0,0,1,1-2.051,4.733,4.733,0,0,1,2.824-.73h1.406v-.664A1.623,1.623,0,0,0,19.6-7a1.821,1.821,0,0,0-1.336-.449,2.108,2.108,0,0,0-1.3.391,1.151,1.151,0,0,0-.523.945H14.992a2,2,0,0,1,.449-1.223,3.066,3.066,0,0,1,1.219-.934,4.1,4.1,0,0,1,1.691-.344,3.342,3.342,0,0,1,2.289.73A2.635,2.635,0,0,1,21.5-5.867v3.891a4.757,4.757,0,0,0,.3,1.852V0Zm-2.4-1.1a2.54,2.54,0,0,0,1.289-.352,2.127,2.127,0,0,0,.883-.914V-4.1H18.922q-2.656,0-2.656,1.555a1.316,1.316,0,0,0,.453,1.063A1.742,1.742,0,0,0,17.883-1.1Zm7.25-7.352.047,1.063a3.08,3.08,0,0,1,2.531-1.219q2.68,0,2.7,3.023V0H28.969V-5.594a1.946,1.946,0,0,0-.418-1.352,1.675,1.675,0,0,0-1.277-.437,2.086,2.086,0,0,0-1.234.375,2.546,2.546,0,0,0-.828.984V0H23.766V-8.453ZM32.25-4.3a4.968,4.968,0,0,1,.914-3.145,2.923,2.923,0,0,1,2.422-1.168A2.908,2.908,0,0,1,38-7.516l.07-.937h1.32V-.2a3.439,3.439,0,0,1-.973,2.586,3.589,3.589,0,0,1-2.613.945,4.348,4.348,0,0,1-1.789-.391,3.08,3.08,0,0,1-1.336-1.07L33.43,1A2.826,2.826,0,0,0,35.7,2.148a2.214,2.214,0,0,0,1.645-.594,2.269,2.269,0,0,0,.59-1.672V-.844a2.971,2.971,0,0,1-2.367,1,2.887,2.887,0,0,1-2.4-1.2A5.224,5.224,0,0,1,32.25-4.3Zm1.453.164a3.79,3.79,0,0,0,.586,2.246,1.9,1.9,0,0,0,1.641.816,2.117,2.117,0,0,0,2.008-1.242V-6.172a2.142,2.142,0,0,0-1.992-1.211,1.921,1.921,0,0,0-1.648.82A4.128,4.128,0,0,0,33.7-4.133ZM46.789,0a3.036,3.036,0,0,1-.2-.891A3.225,3.225,0,0,1,44.18.156a2.984,2.984,0,0,1-2.051-.707,2.287,2.287,0,0,1-.8-1.793,2.39,2.39,0,0,1,1-2.051,4.733,4.733,0,0,1,2.824-.73h1.406v-.664A1.623,1.623,0,0,0,46.109-7a1.821,1.821,0,0,0-1.336-.449,2.107,2.107,0,0,0-1.3.391,1.151,1.151,0,0,0-.523.945H41.5a2,2,0,0,1,.449-1.223,3.066,3.066,0,0,1,1.219-.934,4.1,4.1,0,0,1,1.691-.344,3.342,3.342,0,0,1,2.289.73,2.635,2.635,0,0,1,.859,2.012v3.891a4.757,4.757,0,0,0,.3,1.852V0Zm-2.4-1.1a2.54,2.54,0,0,0,1.289-.352,2.127,2.127,0,0,0,.883-.914V-4.1H45.43q-2.656,0-2.656,1.555a1.316,1.316,0,0,0,.453,1.063A1.742,1.742,0,0,0,44.391-1.1Zm15.766-9.4v2.047h1.578v1.117H60.156v5.242a1.171,1.171,0,0,0,.211.762.888.888,0,0,0,.719.254,3.5,3.5,0,0,0,.688-.094V0a4.19,4.19,0,0,1-1.109.156A1.8,1.8,0,0,1,59.2-.43a2.517,2.517,0,0,1-.492-1.664V-7.336H57.172V-8.453h1.539V-10.5Zm7.352,3.344a4.331,4.331,0,0,0-.711-.055A1.9,1.9,0,0,0,64.867-6V0H63.422V-8.453h1.406l.023.977a2.251,2.251,0,0,1,2.016-1.133,1.477,1.477,0,0,1,.641.109ZM72.344.156a3.693,3.693,0,0,1-2.8-1.129,4.19,4.19,0,0,1-1.078-3.02v-.266a5.073,5.073,0,0,1,.48-2.246,3.748,3.748,0,0,1,1.344-1.547,3.378,3.378,0,0,1,1.871-.559,3.166,3.166,0,0,1,2.563,1.086,4.7,4.7,0,0,1,.914,3.109v.6H69.914a3,3,0,0,0,.73,2.02,2.3,2.3,0,0,0,1.777.77,2.517,2.517,0,0,0,1.3-.312,3.259,3.259,0,0,0,.93-.828l.883.688A3.55,3.55,0,0,1,72.344.156Zm-.18-7.578a1.928,1.928,0,0,0-1.469.637A3.1,3.1,0,0,0,69.961-5H74.2v-.109A2.753,2.753,0,0,0,73.6-6.816,1.815,1.815,0,0,0,72.164-7.422Zm10.07,5.18a1.064,1.064,0,0,0-.441-.91,4.249,4.249,0,0,0-1.539-.559,7.277,7.277,0,0,1-1.742-.562,2.479,2.479,0,0,1-.953-.781,1.869,1.869,0,0,1-.309-1.078,2.193,2.193,0,0,1,.879-1.758,3.432,3.432,0,0,1,2.246-.719,3.532,3.532,0,0,1,2.332.742,2.357,2.357,0,0,1,.895,1.9H82.148a1.3,1.3,0,0,0-.5-1.023,1.888,1.888,0,0,0-1.27-.43,1.976,1.976,0,0,0-1.234.344,1.082,1.082,0,0,0-.445.9.877.877,0,0,0,.414.789,5.1,5.1,0,0,0,1.5.508,7.8,7.8,0,0,1,1.754.578,2.558,2.558,0,0,1,1,.809,1.988,1.988,0,0,1,.324,1.152,2.163,2.163,0,0,1-.906,1.816,3.8,3.8,0,0,1-2.352.684,4.257,4.257,0,0,1-1.8-.359,2.922,2.922,0,0,1-1.223-1A2.42,2.42,0,0,1,76.961-2.6h1.445a1.5,1.5,0,0,0,.582,1.152,2.258,2.258,0,0,0,1.434.426,2.331,2.331,0,0,0,1.316-.332A1.02,1.02,0,0,0,82.234-2.242Zm10.68,1.219a2.082,2.082,0,0,0,1.352-.469,1.649,1.649,0,0,0,.641-1.172h1.367a2.621,2.621,0,0,1-.5,1.383,3.293,3.293,0,0,1-1.23,1.047,3.55,3.55,0,0,1-1.629.391A3.482,3.482,0,0,1,90.168-1a4.59,4.59,0,0,1-1.02-3.152v-.242a5.089,5.089,0,0,1,.453-2.2,3.451,3.451,0,0,1,1.3-1.492,3.7,3.7,0,0,1,2-.531,3.39,3.39,0,0,1,2.363.852,3.043,3.043,0,0,1,1,2.211H94.906a1.992,1.992,0,0,0-.621-1.348,1.932,1.932,0,0,0-1.379-.527,2.023,2.023,0,0,0-1.707.793,3.724,3.724,0,0,0-.605,2.293v.273a3.65,3.65,0,0,0,.6,2.25A2.033,2.033,0,0,0,92.914-1.023Zm10.2.188a3.07,3.07,0,0,1-2.477.992,2.628,2.628,0,0,1-2.059-.785,3.4,3.4,0,0,1-.715-2.324v-5.5h1.445v5.461q0,1.922,1.563,1.922a2.163,2.163,0,0,0,2.2-1.234V-8.453h1.445V0h-1.375Zm8.82.836a3.036,3.036,0,0,1-.2-.891A3.225,3.225,0,0,1,109.328.156a2.984,2.984,0,0,1-2.051-.707,2.288,2.288,0,0,1-.8-1.793,2.39,2.39,0,0,1,1-2.051,4.733,4.733,0,0,1,2.824-.73h1.406v-.664A1.623,1.623,0,0,0,111.258-7a1.821,1.821,0,0,0-1.336-.449,2.108,2.108,0,0,0-1.3.391,1.151,1.151,0,0,0-.523.945h-1.453a2,2,0,0,1,.449-1.223,3.066,3.066,0,0,1,1.219-.934,4.1,4.1,0,0,1,1.691-.344,3.342,3.342,0,0,1,2.289.73,2.635,2.635,0,0,1,.859,2.012v3.891a4.757,4.757,0,0,0,.3,1.852V0Zm-2.4-1.1a2.54,2.54,0,0,0,1.289-.352,2.127,2.127,0,0,0,.883-.914V-4.1h-1.133q-2.656,0-2.656,1.555a1.316,1.316,0,0,0,.453,1.063A1.742,1.742,0,0,0,109.539-1.1Zm9.969-6.055a4.331,4.331,0,0,0-.711-.055A1.9,1.9,0,0,0,116.867-6V0h-1.445V-8.453h1.406l.023.977a2.251,2.251,0,0,1,2.016-1.133,1.477,1.477,0,0,1,.641.109Zm3.68-3.344v2.047h1.578v1.117h-1.578v5.242a1.171,1.171,0,0,0,.211.762.888.888,0,0,0,.719.254,3.5,3.5,0,0,0,.688-.094V0A4.19,4.19,0,0,1,123.7.156a1.8,1.8,0,0,1-1.461-.586,2.517,2.517,0,0,1-.492-1.664V-7.336H120.2V-8.453h1.539V-10.5Zm2.727,6.2a4.993,4.993,0,0,1,.488-2.234,3.643,3.643,0,0,1,1.359-1.531,3.7,3.7,0,0,1,1.988-.539,3.565,3.565,0,0,1,2.793,1.2,4.6,4.6,0,0,1,1.066,3.18v.1a5.036,5.036,0,0,1-.473,2.215,3.589,3.589,0,0,1-1.352,1.527,3.743,3.743,0,0,1-2.02.547,3.556,3.556,0,0,1-2.785-1.2A4.575,4.575,0,0,1,125.914-4.2Zm1.453.172a3.616,3.616,0,0,0,.652,2.258,2.088,2.088,0,0,0,1.746.852,2.075,2.075,0,0,0,1.75-.863,3.954,3.954,0,0,0,.648-2.418,3.61,3.61,0,0,0-.66-2.254,2.1,2.1,0,0,0-1.754-.863,2.075,2.075,0,0,0-1.727.852A3.925,3.925,0,0,0,127.367-4.133Zm12.977,1.891a1.064,1.064,0,0,0-.441-.91,4.249,4.249,0,0,0-1.539-.559,7.277,7.277,0,0,1-1.742-.562,2.479,2.479,0,0,1-.953-.781,1.869,1.869,0,0,1-.309-1.078,2.193,2.193,0,0,1,.879-1.758,3.432,3.432,0,0,1,2.246-.719,3.532,3.532,0,0,1,2.332.742,2.357,2.357,0,0,1,.895,1.9h-1.453a1.3,1.3,0,0,0-.5-1.023,1.888,1.888,0,0,0-1.27-.43,1.976,1.976,0,0,0-1.234.344,1.082,1.082,0,0,0-.445.9.877.877,0,0,0,.414.789,5.1,5.1,0,0,0,1.5.508,7.8,7.8,0,0,1,1.754.578,2.558,2.558,0,0,1,1,.809,1.988,1.988,0,0,1,.324,1.152,2.163,2.163,0,0,1-.906,1.816,3.8,3.8,0,0,1-2.352.684,4.257,4.257,0,0,1-1.8-.359,2.922,2.922,0,0,1-1.223-1A2.42,2.42,0,0,1,135.07-2.6h1.445a1.5,1.5,0,0,0,.582,1.152,2.258,2.258,0,0,0,1.434.426,2.331,2.331,0,0,0,1.316-.332A1.02,1.02,0,0,0,140.344-2.242Z" transform="translate(1047.843 6357.208)" fill="#12263f"/>
    <path id="Trazado_106604" data-name="Trazado 106604" d="M-6008.152,3963.5l-38-64.148h-53.892" transform="translate(7264.409 2377.731)" fill="none" stroke="#f5947a" stroke-miterlimit="10" stroke-width="1"/>
    <path id="Trazado_106605" data-name="Trazado 106605" d="M-6019.317,3990.264c-29.209-46.07-36.787-57.787-36.787-57.787h-70.749" transform="translate(7268.847 2370.469)" fill="none" stroke="#f5947a" stroke-miterlimit="10" stroke-width="1"/>
    <path id="Trazado_106654" data-name="Trazado 106654" d="M-33.445,0H12.74s1.1-.221,30.165,46.13" transform="translate(1204.05 6329.318)" fill="none" stroke="#f5947a" stroke-width="1"/>
    <path id="Trazado_106655" data-name="Trazado 106655" d="M-6084.5,4006.563h23.63l23.745,48.389" transform="translate(7278.083 2352.532)" fill="none" stroke="#f5947a" stroke-width="1"/>
  </g>
</svg>
