<svg xmlns="http://www.w3.org/2000/svg" width="620" height="310.415" viewBox="0 0 620 310.415">
  <g id="Grupo_1055044" data-name="Grupo 1055044" transform="translate(-180 -7322)">
    <path id="Rectángulo_4912" data-name="Rectángulo 4912" d="M21,0H599a21,21,0,0,1,21,21V310.415a0,0,0,0,1,0,0H0a0,0,0,0,1,0,0V21A21,21,0,0,1,21,0Z" transform="translate(180 7322)" fill="#025157" opacity="0.58"/>
    <g id="Grupo_56026" data-name="Grupo 56026" transform="translate(325.08 7333)">
      <path id="Trazado_106636" data-name="Trazado 106636" d="M-6449.561,6446.585l-7.317-8.783s-21.157-2.395-31.538,6.388-29.541,36.726-31.4,39.654-37.79,36.992-37.79,36.992l-3.193,1.863s-48.17-17.831-53.493-20.493-35.4-21.024-35.4-21.024-14.771-11.71-16.367-12.508a28.7,28.7,0,0,0-5.589-1.463s-10.778-2.349-11.178-2.306-6.385-1.953-7.717,3.1,0,3.061,0,3.061-5.854-.134-6.12,3.859,2.793,4.524,2.793,4.524-1.6,5.056-.4,6.52l1.064,1.065s-4.39,4.924-1.2,6.52,2.928,2.128,3.593,2.395,6.919,3.726,6.919,3.726l20.093,3.062,8.381,1.2,33.934,23.818s25.681,15.437,28.208,17.034,20.36,8.782,24.484,11.577,7.453,5.322,11.579,3.194,33.93-22.356,33.93-22.356l29.541-21.956,13.439-17.964,1.6-2.928s3.542,13.108,5.364,13.541,26.972-6.39,26.972-8.968,5.055-27.061,5.055-27.061Z" transform="translate(6696.679 -6308.64)" fill="#d3d3d3"/>
      <path id="Trazado_106637" data-name="Trazado 106637" d="M-6464.474,6426.075s13.308-4.105,17.565-3.839,23.153,4.524,25.281,8.251,8.784,23.686,9.582,29.541,2.128,52.427,2.128,52.427v29.274l2.13,31.937-1.863,39.532H-6432.8l-3.309-49.646-1.481-38.057-2.4-19.428s-11.976-29.008-13.041-31.4S-6464.474,6426.075-6464.474,6426.075Z" transform="translate(6787.707 -6314.63)" fill="#d3d3d3"/>
      <path id="Trazado_106638" data-name="Trazado 106638" d="M-6493.693,6435.355l-17.563,5.988-5.59,1.994s11.179,54.691-16.766,69.462c0,0,10.777,21.157,7.585,41.116s-19.161,47.4-17.564,58.829h129.34l-4.79-28.888,7.583-44.311s6.786-32.734,6.389-39.122-2-20.359-2-20.359l-19.562-54.444-.4-2.241h-28.21l-2.129,10.378Z" transform="translate(6756.648 -6314.177)" fill="#e7e7e8"/>
      <path id="Trazado_106639" data-name="Trazado 106639" d="M-6507.626,6416.349l-3.592,25.949s14.77,12.376,32.335,12.376,19.161-14.372,19.161-14.372l-9.979-29.541Z" transform="translate(6769.383 -6319.123)" fill="#d3d3d3"/>
      <g id="Grupo_56025" data-name="Grupo 56025" transform="translate(241.825)">
        <path id="Trazado_106640" data-name="Trazado 106640" d="M-6485.041,6345.057c-.163-.011-.33-.023-.495-.032-15.595-.966-29.505,5.357-34.317,21.145-8.125,26.651,2.274,59.8,2.274,59.8l7.8,16.9c4.432,9.6,18.671,15.723,28.461,12.742,5.169-1.572,9.5-5.128,13.3-8.966,10.577-10.667,13.962-23.562,16.889-37.9,3.074-15.056,3.606-31.014-3.436-45.094a32.837,32.837,0,0,0-12.6-13.878C-6472.546,6346.672-6478.828,6345.481-6485.041,6345.057Z" transform="translate(6522.956 -6344.93)" fill="#e7e7e8"/>
        <line id="Línea_419" data-name="Línea 419" y2="101.894" transform="translate(36.994 4.419)" fill="none" stroke="#a8a8a8" stroke-linecap="round" stroke-linejoin="round" stroke-width="1.077" stroke-dasharray="2.693"/>
        <path id="Trazado_106641" data-name="Trazado 106641" d="M-6515.7,6421" transform="translate(6525.802 -6315.109)" fill="none" stroke="#e7e7e8" stroke-linecap="round" stroke-linejoin="round" stroke-width="1.077"/>
        <path id="Trazado_106642" data-name="Trazado 106642" d="M-6521.982,6384.878s38.96,15.639,71.276,0" transform="translate(6523.338 -6329.269)" fill="none" stroke="#a8a8a8" stroke-linecap="round" stroke-linejoin="round" stroke-width="1.041" stroke-dasharray="2.602"/>
      </g>
      <path id="Trazado_106643" data-name="Trazado 106643" d="M-6563.552,6460.248c1.862,1.958,34.373,29.24,34.373,29.24l-8.429,9.074-32.864-30.5Z" transform="translate(6746.154 -6299.724)" fill="#f2db36"/>
      <path id="Trazado_106644" data-name="Trazado 106644" d="M-6593.887,6497.817c-1.066,2.482-10.764,33.733-10.764,33.733l-11.655-4.185,12.517-32.841Z" transform="translate(6728.187 -6286.286)" fill="#f2db36"/>
      <path id="Trazado_106645" data-name="Trazado 106645" d="M-6644.839,6475.629c-1.579,2.193-12.776,24.11-12.776,24.11l-10.477-6.607,14.3-22.859Z" transform="translate(6707.888 -6295.793)" fill="#f2db36"/>
      <line id="Línea_420" data-name="Línea 420" x1="4.47" y2="3.989" transform="translate(178.104 166.596)" fill="none" stroke="#30302f" stroke-miterlimit="10" stroke-width="0.337"/>
      <line id="Línea_421" data-name="Línea 421" x1="4.47" y2="3.989" transform="translate(184.643 172.668)" fill="none" stroke="#30302f" stroke-miterlimit="10" stroke-width="0.337"/>
      <line id="Línea_422" data-name="Línea 422" x1="2.625" y2="2.292" transform="translate(181.355 171.279)" fill="none" stroke="#30302f" stroke-miterlimit="10" stroke-width="0.337"/>
      <line id="Línea_423" data-name="Línea 423" x1="4.47" y2="3.989" transform="translate(191.859 179.235)" fill="none" stroke="#30302f" stroke-miterlimit="10" stroke-width="0.337"/>
      <line id="Línea_424" data-name="Línea 424" x1="2.625" y2="2.292" transform="translate(188.571 177.845)" fill="none" stroke="#30302f" stroke-miterlimit="10" stroke-width="0.337"/>
      <line id="Línea_425" data-name="Línea 425" x1="4.47" y2="3.989" transform="translate(198.499 185.333)" fill="none" stroke="#30302f" stroke-miterlimit="10" stroke-width="0.337"/>
      <line id="Línea_426" data-name="Línea 426" x1="2.625" y2="2.292" transform="translate(195.212 183.943)" fill="none" stroke="#30302f" stroke-miterlimit="10" stroke-width="0.337"/>
      <line id="Línea_427" data-name="Línea 427" x1="4.47" y2="3.989" transform="translate(205.569 191.841)" fill="none" stroke="#30302f" stroke-miterlimit="10" stroke-width="0.337"/>
      <line id="Línea_428" data-name="Línea 428" x1="2.625" y2="2.292" transform="translate(202.282 190.451)" fill="none" stroke="#30302f" stroke-miterlimit="10" stroke-width="0.337"/>
      <line id="Línea_429" data-name="Línea 429" x1="5.588" y1="2.16" transform="translate(123.693 210.451)" fill="none" stroke="#30302f" stroke-miterlimit="10" stroke-width="0.337"/>
      <line id="Línea_430" data-name="Línea 430" x1="5.588" y1="2.16" transform="translate(120.405 218.729)" fill="none" stroke="#30302f" stroke-miterlimit="10" stroke-width="0.337"/>
      <line id="Línea_431" data-name="Línea 431" x1="3.236" y1="1.291" transform="translate(122.517 214.705)" fill="none" stroke="#30302f" stroke-miterlimit="10" stroke-width="0.337"/>
      <line id="Línea_432" data-name="Línea 432" x1="5.588" y1="2.16" transform="translate(117.113 227.866)" fill="none" stroke="#30302f" stroke-miterlimit="10" stroke-width="0.337"/>
      <line id="Línea_433" data-name="Línea 433" x1="3.236" y1="1.291" transform="translate(118.787 223.789)" fill="none" stroke="#30302f" stroke-miterlimit="10" stroke-width="0.337"/>
      <line id="Línea_434" data-name="Línea 434" x1="5.588" y1="2.16" transform="translate(113.817 236.294)" fill="none" stroke="#30302f" stroke-miterlimit="10" stroke-width="0.337"/>
      <line id="Línea_435" data-name="Línea 435" x1="3.236" y1="1.291" transform="translate(115.495 231.988)" fill="none" stroke="#30302f" stroke-miterlimit="10" stroke-width="0.337"/>
      <line id="Línea_436" data-name="Línea 436" x1="5.038" y1="3.243" transform="translate(53.067 176.444)" fill="none" stroke="#30302f" stroke-miterlimit="10" stroke-width="0.337"/>
      <line id="Línea_437" data-name="Línea 437" x1="5.038" y1="3.243" transform="translate(48.177 183.89)" fill="none" stroke="#30302f" stroke-miterlimit="10" stroke-width="0.337"/>
      <line id="Línea_438" data-name="Línea 438" x1="2.909" y1="1.917" transform="translate(50.696 180.143)" fill="none" stroke="#30302f" stroke-miterlimit="10" stroke-width="0.337"/>
      <line id="Línea_439" data-name="Línea 439" x1="5.038" y1="3.243" transform="translate(43.111 192.175)" fill="none" stroke="#30302f" stroke-miterlimit="10" stroke-width="0.337"/>
      <line id="Línea_440" data-name="Línea 440" x1="2.909" y1="1.917" transform="translate(45.572 188.52)" fill="none" stroke="#30302f" stroke-miterlimit="10" stroke-width="0.337"/>
      <line id="Línea_441" data-name="Línea 441" x1="2.909" y1="1.917" transform="translate(40.695 195.886)" fill="none" stroke="#30302f" stroke-miterlimit="10" stroke-width="0.337"/>
    </g>
  </g>
</svg>
