<svg xmlns="http://www.w3.org/2000/svg" width="376" height="431" viewBox="0 0 376 431">
  <g id="Grupo_1055047" data-name="Grupo 1055047" transform="translate(-988 -2788.107)">
    <rect id="Rectángulo_362211" data-name="Rectángulo 362211" width="376" height="431" transform="translate(988 2788.107)" fill="#d2e1f1"/>
    <g id="Grupo_1054942" data-name="Grupo 1054942" transform="translate(258.186 -990.495)">
      <g id="Grupo_55984" data-name="Grupo 55984" transform="translate(873.785 3842.5)">
        <path id="Trazado_106433" data-name="Trazado 106433" d="M1849.931,3926.129h19.875l15.757-44.109s3.825-16.759,3.825-22.315,1.093-15.575,1.093-15.575l8.289-22.315s5.829,25.047,6.922,33.153,2.368,25.958,0,37.708-6.74,33.454-6.74,33.454h72.682l42.08-.391-6.467-38.254s-1.973-26.748-.88-30.118,8.5-39.59,8.5-39.59l10.96,33.093s5.647,37.252,6.74,40.258,13.024,35,13.024,35h21.951l-11.932-66.242-3.37-14.027-1.366-9.017-6.831-53.1s-5.1-29.237-11.659-35.157-21.586-5.83-21.586-5.83l-32.243-11.567-1.822-29.692-35.795,1.548-4.645-2.216s.729,28.053-1.093,30.239-30,9.594-30,9.594-17.609-.851-25.867,12.873-12.387,62.178-12.387,62.178l-2.793,29.631s-11.051,34.247-11.051,37.4-3.177,43.38-3.177,43.38" transform="translate(-1849.931 -3622.191)" fill="#e7e7e8"/>
        <g id="Grupo_55983" data-name="Grupo 55983" transform="translate(0 73.9)">
          <path id="Trazado_106434" data-name="Trazado 106434" d="M1984.439,3714.612l41.315.409-.991-16.159-30.968-5.4-9.472,4.736S1984.542,3706.631,1984.439,3714.612Z" transform="translate(-1897.959 -3693.458)" fill="#d3d3d3"/>
          <path id="Trazado_106435" data-name="Trazado 106435" d="M1889.388,3881.858c0-5.556,1.093-15.575,1.093-15.575l8.289-22.315c-5.586-18.187-1.458-43.992,3.157-50.793s3.158-19.431,3.158-19.431c.831-2.492-.1-6.932-1.316-10.925-4.358.136-17.594,1.508-24.429,12.869-8.258,13.723-12.387,62.178-12.387,62.178l-2.793,29.631s-11.051,34.247-11.051,37.4-3.177,43.381-3.177,43.381h19.875l15.757-44.11S1889.388,3887.414,1889.388,3881.858Z" transform="translate(-1849.931 -3718.246)" fill="#d3d3d3"/>
          <path id="Trazado_106436" data-name="Trazado 106436" d="M2143.055,3883.12l-3.37-14.027-1.366-9.017-6.831-53.1s-5.1-29.237-11.658-35.158-21.586-5.829-21.586-5.829l-.415-.149c-1.7,4.9-2.994,9.665-2.994,9.665s-1.457,12.63,3.158,19.431c4.136,6.1,7.882,27.459,4.592,44.92l.032,2.077,10.655,32.169s5.647,37.252,6.74,40.258,13.025,35,13.025,35h21.95Z" transform="translate(-1937.375 -3719.326)" fill="#d3d3d3"/>
        </g>
        <line id="Línea_370" data-name="Línea 370" y2="172.958" transform="translate(106.986 129.399)" fill="none" stroke="#a8a8a8" stroke-linecap="round" stroke-linejoin="round" stroke-width="2" stroke-dasharray="5"/>
        <path id="Trazado_106437" data-name="Trazado 106437" d="M1921.961,3854.656s97.275,5.464,119.863,0" transform="translate(-1875.672 -3677.165)" fill="none" stroke="#a8a8a8" stroke-linecap="round" stroke-linejoin="round" stroke-width="2" stroke-dasharray="5"/>
        <path id="Trazado_106438" data-name="Trazado 106438" d="M2037.985,3971.442s-66.671,4.372-96.182,0" transform="translate(-1882.764 -3718.901)" fill="none" stroke="#a8a8a8" stroke-linecap="round" stroke-linejoin="round" stroke-width="2" stroke-dasharray="5"/>
        <path id="Trazado_106439" data-name="Trazado 106439" d="M1980.543,3719.726" transform="translate(-1896.608 -3628.945)" fill="none" stroke="#e7e7e8" stroke-linecap="round" stroke-linejoin="round" stroke-width="2"/>
        <circle id="Elipse_4143" data-name="Elipse 4143" cx="1.506" cy="1.506" r="1.506" transform="translate(105.794 119.974)" fill="#e7e7e8"/>
        <path id="Trazado_106440" data-name="Trazado 106440" d="M1978.359,3662.428l.006.012c2.652-1.924,15.871-10.044,39.817-1.487,5.989-8.141,8.369-17.528,10.461-27.776,2.635-12.908,3.092-26.588-2.947-38.659a28.149,28.149,0,0,0-10.8-11.9c-4.617-2.667-10-3.687-15.328-4.051l-.424-.028c-13.371-.827-25.3,4.594-29.421,18.127-6.966,22.849,1.95,51.269,1.95,51.269Z" transform="translate(-1891.79 -3578.461)" fill="#e7e7e8"/>
      </g>
      <path id="Trazado_106441" data-name="Trazado 106441" d="M1649.238,3926.129h19.875l15.757-44.109s3.826-16.759,3.826-22.315,1.092-15.575,1.092-15.575l8.289-22.315s5.829,25.047,6.922,33.153,2.368,25.958,0,37.708-6.74,33.454-6.74,33.454h72.683l42.079-.391-6.467-38.254s-1.973-26.748-.88-30.118,8.5-39.59,8.5-39.59l10.96,33.093s5.647,37.252,6.74,40.258,13.025,35,13.025,35h21.95l-11.932-66.242-3.37-14.027-1.366-9.017-6.831-53.1s-5.1-29.237-11.659-35.157-21.586-5.83-21.586-5.83l-32.242-11.567-1.822-29.692-35.795,1.548-4.645-2.216s.729,28.053-1.093,30.239-30,9.594-30,9.594-17.609-.851-25.867,12.873-12.387,62.178-12.387,62.178l-2.793,29.631s-11.051,34.247-11.051,37.4-3.177,43.38-3.177,43.38" transform="translate(-904.424 220.127)" fill="#e7e7e8"/>
      <g id="Grupo_55985" data-name="Grupo 55985" transform="translate(744.814 3920.954)">
        <path id="Trazado_106442" data-name="Trazado 106442" d="M1781.929,3731.067s17.32,6.164,22.451,6.291c5.794.144,21.249-5.211,21.249-5.211l-2.167-30.651-35.8,1.548-4.645-2.216S1782.032,3723.086,1781.929,3731.067Z" transform="translate(-1696.658 -3700.828)" fill="#d3d3d3"/>
        <path id="Trazado_106443" data-name="Trazado 106443" d="M1688.7,3881.858c0-5.556,1.092-15.575,1.092-15.575l8.289-22.315c-5.586-18.187-1.457-43.992,3.158-50.793s3.157-19.431,3.157-19.431c.831-2.492-.1-6.932-1.317-10.925-4.358.136-17.593,1.508-24.429,12.869-8.258,13.723-12.387,62.178-12.387,62.178l-2.793,29.631s-11.051,34.247-11.051,37.4-3.177,43.381-3.177,43.381h19.875l15.757-44.11S1688.7,3887.414,1688.7,3881.858Z" transform="translate(-1649.238 -3722.982)" fill="#d3d3d3"/>
        <path id="Trazado_106444" data-name="Trazado 106444" d="M1942.362,3883.12l-3.37-14.027-1.366-9.017-6.831-53.1s-5.1-29.237-11.659-35.158-21.586-5.829-21.586-5.829l-.414-.149c-1.7,4.9-2.994,9.665-2.994,9.665s-1.458,12.63,3.157,19.431c4.136,6.1,7.883,27.459,4.592,44.92l.032,2.077,10.655,32.169s5.647,37.252,6.74,40.258,13.025,35,13.025,35h21.95Z" transform="translate(-1736.682 -3724.062)" fill="#d3d3d3"/>
      </g>
      <path id="Trazado_106445" data-name="Trazado 106445" d="M1798.874,3578.57l-.424-.028c-13.37-.827-25.3,4.594-29.421,18.127-6.966,22.849,1.95,51.269,1.95,51.269l6.687,14.489c3.8,8.232,16.007,13.478,24.4,10.924,4.432-1.349,8.144-4.4,11.406-7.687,9.067-9.145,11.97-20.2,14.479-32.489,2.635-12.907,3.092-26.587-2.947-38.658a28.152,28.152,0,0,0-10.8-11.9C1809.584,3579.955,1804.2,3578.934,1798.874,3578.57Z" transform="translate(-946.283 263.857)" fill="#e7e7e8"/>
      <line id="Línea_371" data-name="Línea 371" y2="87.353" transform="translate(851.8 3846.108)" fill="none" stroke="#a8a8a8" stroke-linecap="round" stroke-linejoin="round" stroke-width="2" stroke-dasharray="5"/>
      <line id="Línea_372" data-name="Línea 372" x2="0.131" y2="173.783" transform="translate(851.8 3971.718)" fill="none" stroke="#a8a8a8" stroke-linecap="round" stroke-linejoin="round" stroke-width="2" stroke-dasharray="5"/>
      <path id="Trazado_106446" data-name="Trazado 106446" d="M1721.268,3854.656s97.275,5.464,119.863,0" transform="translate(-930.165 165.153)" fill="none" stroke="#a8a8a8" stroke-linecap="round" stroke-linejoin="round" stroke-width="2" stroke-dasharray="5"/>
      <path id="Trazado_106447" data-name="Trazado 106447" d="M1837.292,3971.442s-66.672,4.372-96.182,0" transform="translate(-937.256 123.417)" fill="none" stroke="#a8a8a8" stroke-linecap="round" stroke-linejoin="round" stroke-width="2" stroke-dasharray="5"/>
      <path id="Trazado_106448" data-name="Trazado 106448" d="M1779.85,3719.726" transform="translate(-951.101 213.373)" fill="none" stroke="#e7e7e8" stroke-linecap="round" stroke-linejoin="round" stroke-width="2"/>
      <circle id="Elipse_4144" data-name="Elipse 4144" cx="1.506" cy="1.506" r="1.506" transform="translate(850.608 3962.292)" fill="#e7e7e8"/>
      <path id="Trazado_106449" data-name="Trazado 106449" d="M1768.178,3652.645s33.4,13.407,61.1,0" transform="translate(-946.93 237.346)" fill="none" stroke="#a8a8a8" stroke-linecap="round" stroke-linejoin="round" stroke-width="1.933" stroke-dasharray="4.832"/>
      <path id="Trazado_106450" data-name="Trazado 106450" d="M1752.414,3632.914s-2.983-17.9,39.082-20.287c0,0,38.784-3.878,42.066,20.287,0,0,4.177-46.242-26.254-52.806s-45.645,7.757-51.314,20.585S1752.414,3632.914,1752.414,3632.914Z" transform="translate(-941.162 263.857)" fill="#f5947a"/>
      <path id="Trazado_106451" data-name="Trazado 106451" d="M1845.958,3678.748v44.493s-6.638,13.086-32.519,11.146l7.683-19.615,15.215-36.024Z" transform="translate(-963.105 228.017)" fill="#f5947a"/>
      <path id="Trazado_106452" data-name="Trazado 106452" d="M1766.551,3678.748v45.778s6.15,11.8,30.132,9.861l-7.119-19.615-14.1-36.024Z" transform="translate(-946.348 228.017)" fill="#f5947a"/>
      <path id="Trazado_106453" data-name="Trazado 106453" d="M1791.575,3719.374l-24.762-82.64s-16.707,3.878-14.32,17.005S1791.575,3719.374,1791.575,3719.374Z" transform="translate(-941.241 243.032)" fill="#fff"/>
      <path id="Trazado_106454" data-name="Trazado 106454" d="M1839.693,3636.616l-26.254,82.64s39.977-56.685,42.066-65.635S1849.24,3634.825,1839.693,3636.616Z" transform="translate(-963.105 243.15)" fill="#fff"/>
      <path id="Trazado_106455" data-name="Trazado 106455" d="M1815.619,3622.476" transform="translate(-963.884 248.127)" fill="#fffdf4"/>
      <line id="Línea_373" data-name="Línea 373" y2="25.989" transform="translate(851.735 3844.615)" fill="none" stroke="#e07575" stroke-linecap="round" stroke-linejoin="round" stroke-width="2" stroke-dasharray="5"/>
      <path id="Trazado_106456" data-name="Trazado 106456" d="M1967.731,3686.467c-3.4-13.507-6.366-32.534-10.908-45.708-3.713-10.767-4.01-23.616-1.936-34.833,1.074-5.809,3.356-11.519,7.345-15.876,4.52-4.939,10.866-7.793,17.225-9.888,6.846-2.256,14.232-3.789,21.238-2.091,6.487,1.571,12.02,5.762,16.889,10.327,5.088,4.771,9.74,10.148,12.737,16.446,6.051,12.71,2.245,26.205-1.783,38.751-3.233,10.069-7.467,25.595-8.739,36.157-.058.483-.109.966-.141,1.451C2018.929,3692.133,1993.6,3700.024,1967.731,3686.467Z" transform="translate(-1013.195 264.255)" fill="#f5947a"/>
      <line id="Línea_374" data-name="Línea 374" y2="97.04" transform="translate(979.579 3850.399)" fill="none" stroke="#e07575" stroke-linecap="round" stroke-linejoin="round" stroke-width="2" stroke-dasharray="5"/>
    </g>
  </g>
</svg>
