<svg id="Grupo_1054821" data-name="Grupo 1054821" xmlns="http://www.w3.org/2000/svg" xmlns:xlink="http://www.w3.org/1999/xlink" width="83.974" height="83.975" viewBox="0 0 83.974 83.975">
  <defs>
    <clipPath id="clip-path">
      <circle id="Elipse_4164" data-name="Elipse 4164" cx="41.987" cy="41.987" r="41.987" fill="none"/>
    </clipPath>
  </defs>
  <circle id="Elipse_4163" data-name="Elipse 4163" cx="41.987" cy="41.987" r="41.987" transform="translate(0 0)" fill="#fff"/>
  <g id="Grupo_56064" data-name="Grupo 56064" transform="translate(0 0)">
    <g id="Grupo_56063" data-name="Grupo 56063">
      <g id="Grupo_56062" data-name="Grupo 56062" clip-path="url(#clip-path)">
        <g id="Grupo_56061" data-name="Grupo 56061" transform="translate(12.125 4.824)">
          <path id="Trazado_106662" data-name="Trazado 106662" d="M3859.666-3965.794c-4.221,1.3-4.53,1.237-4.53,1.237-6.1-2.454-21.479.467-21.479.467a108.071,108.071,0,0,0-23.059-.081c.974-1.461,1.623-8.443,1.623-8.443a46.03,46.03,0,0,1,5.719-16.56c.649-3.734,4.871-3.248,4.871-3.248a8.881,8.881,0,0,0,4.22,1.624c3.9,1.136,4.709,0,4.709,0,.649,2.436,2.11,1.46,2.11,1.46,2.923-1.46.812-3.9.812-3.9-1.137-1.3.649-1.949.649-1.949,1.623-.649,1.137-1.623,1.137-1.623l-3.9-8.767c-3.9-.812-12.664,2.922-12.664,2.922-7.468,1.625-9.379,10.391-9.379,10.391s-18.072,27.763-15.312,36.205c2.76,8.28,11.216,6.383,11.216,6.383,24.328,4.176,32.995,2.023,32.995,2.023.9,6.366,6.243,11.63,6.819,15.948C3850.449-3934.785,3863.075-3946.312,3859.666-3965.794Z" transform="translate(-3794.911 4005.688)" fill="#f4d0b8"/>
          <g id="Grupo_56059" data-name="Grupo 56059" transform="translate(0 19.391)" opacity="0.1" style="isolation: isolate">
            <path id="Trazado_106663" data-name="Trazado 106663" d="M3838.907-3948.3a14.9,14.9,0,0,0,.382,1.792C3841.4-3947.77,3838.907-3948.3,3838.907-3948.3Z" transform="translate(-3794.409 3986.951)" fill="#231f20"/>
            <path id="Trazado_106664" data-name="Trazado 106664" d="M3809.145-3951.192s-3.727-.287-8.171-.573-3.154-3.3-4.3-6.594,5.466-19.789,6.451-19.5c.533.159,2.249-4.419,3.714-8.659-5.126,8.642-13.592,24.271-11.64,30.243,2.76,8.28,11.216,6.383,11.216,6.383,24.328,4.176,32.995,2.023,32.995,2.023s-5.465-.172-9.335-.172S3809.145-3951.192,3809.145-3951.192Z" transform="translate(-3794.911 3986.515)" fill="#231f20"/>
          </g>
          <path id="Trazado_106665" data-name="Trazado 106665" d="M3868.194-3968.01c-3.734-.163-8.768,1.786-8.768,1.786-.162,0-5.051.39-5.214.39,3.409,19.32-5.339,30.619-9.723,33.7a9.868,9.868,0,0,0,1.462,1.461C3870.629-3943.656,3868.194-3968.01,3868.194-3968.01Z" transform="translate(-3794.345 4006.117)" fill="#73d8c0"/>
          <g id="Grupo_56060" data-name="Grupo 56060" transform="translate(9.584 22.341)" opacity="0.62">
            <path id="Trazado_106666" data-name="Trazado 106666" d="M3839.081-3962.022a2.524,2.524,0,0,1,.753.368,11.435,11.435,0,0,1,1.865,1.57,17.73,17.73,0,0,1,1.994,3.22c.642,1.292,1.1,2.623,1.714,3.791a17.48,17.48,0,0,0,4.24,5.747,6.735,6.735,0,0,0,1.792,1.2,5.007,5.007,0,0,0,.729.244,3.336,3.336,0,0,1-.775.022,3.687,3.687,0,0,1-2.094-.75,10.043,10.043,0,0,1-2.666-2.187,16.644,16.644,0,0,1-2.347-3.538,38.177,38.177,0,0,1-1.576-4.076,26.866,26.866,0,0,0-1.5-3.188,6.718,6.718,0,0,0-1.444-1.91A1.472,1.472,0,0,0,3839.081-3962.022Z" transform="translate(-3803.991 3983.844)" fill="#f7c39f"/>
            <path id="Trazado_106667" data-name="Trazado 106667" d="M3812.544-3955.637s1.462.163,3.734.324,5.2.325,7.956.244a18.379,18.379,0,0,0,2.111-.081c.649-.081,1.461-.081,1.948-.163.65-.081,1.3-.162,1.786-.243a8.282,8.282,0,0,0,1.623-.324c.487-.163.975-.244,1.3-.326s.649-.243.974-.325a7.241,7.241,0,0,1,.974-.243s0,.243-.488.486a13.422,13.422,0,0,1-2.111.974c-.487.163-.974.325-1.623.488a16.635,16.635,0,0,1-1.948.406,39.383,39.383,0,0,1-4.546.406,41.125,41.125,0,0,1-4.546-.162,20.142,20.142,0,0,1-3.734-.568A23.109,23.109,0,0,1,3812.544-3955.637Z" transform="translate(-3804.293 3983.904)" fill="#f7c39f"/>
            <path id="Trazado_106668" data-name="Trazado 106668" d="M3805.164-3963.11s-.068-.334-.221-.841a11.21,11.21,0,0,1-.459-2.5,19.383,19.383,0,0,1-.007-3.757,30.981,30.981,0,0,1,.79-4.324,41.408,41.408,0,0,1,1.479-3.92,28.587,28.587,0,0,1,1.683-2.919,12.045,12.045,0,0,1,2.026-2.227s-.14.31-.4.773-.659,1.234-1.059,2.006a42.907,42.907,0,0,0-2.522,6.746c-.349,1.268-.594,2.549-.84,3.828a18.615,18.615,0,0,0-.372,3.389c0,.979-.109,1.948-.059,2.444A6.807,6.807,0,0,0,3805.164-3963.11Z" transform="translate(-3804.386 3983.598)" fill="#f7c39f"/>
          </g>
          <path id="Trazado_106669" data-name="Trazado 106669" d="M3845.773-3930.669l.812,2.6h21.594v-39.939l-6.657,15.911-1.948,7.144-4.384,7.144Z" transform="translate(-3794.331 4006.117)" fill="#ff9696"/>
        </g>
      </g>
    </g>
  </g>
</svg>
