<svg xmlns="http://www.w3.org/2000/svg" xmlns:xlink="http://www.w3.org/1999/xlink" width="521.367" height="310.066" viewBox="0 0 521.367 310.066">
  <defs>
    <linearGradient id="linear-gradient" x1="1.758" y1="-4.257" x2="0.028" y2="2.091" gradientUnits="objectBoundingBox">
      <stop offset="0" stop-color="#b8aaaf"/>
      <stop offset="0.552" stop-color="#8c757e"/>
      <stop offset="1" stop-color="#8c757e"/>
    </linearGradient>
    <linearGradient id="linear-gradient-2" x1="0.542" y1="1.152" x2="0.333" y2="-2.341" xlink:href="#linear-gradient"/>
    <linearGradient id="linear-gradient-3" x1="0.768" y1="1.08" x2="0.385" y2="0.251" gradientUnits="objectBoundingBox">
      <stop offset="0" stop-color="#2b3582"/>
      <stop offset="1" stop-color="#150e42"/>
    </linearGradient>
    <linearGradient id="linear-gradient-4" x1="0.407" y1="1.037" x2="0.551" y2="0.205" xlink:href="#linear-gradient-3"/>
    <linearGradient id="linear-gradient-5" x1="0.524" y1="0.369" x2="0.484" y2="0.997" xlink:href="#linear-gradient"/>
    <linearGradient id="linear-gradient-6" x1="0.497" y1="0.921" x2="0.505" y2="-0.35" xlink:href="#linear-gradient-3"/>
    <linearGradient id="linear-gradient-7" x1="0" y1="0.5" x2="1" y2="0.5" xlink:href="#linear-gradient-3"/>
    <linearGradient id="linear-gradient-8" x1="0" y1="0.5" x2="1" y2="0.5" xlink:href="#linear-gradient"/>
    <linearGradient id="linear-gradient-9" x1="1.626" y1="-1.773" x2="-1.334" y2="4.099" xlink:href="#linear-gradient"/>
    <linearGradient id="linear-gradient-10" x1="4.891" y1="-1.811" x2="-1.712" y2="1.592" xlink:href="#linear-gradient"/>
    <linearGradient id="linear-gradient-11" x1="1.546" y1="0.045" x2="-1.398" y2="1.235" xlink:href="#linear-gradient-3"/>
    <linearGradient id="linear-gradient-12" x1="2.638" y1="-5.853" x2="-1.829" y2="7.304" gradientUnits="objectBoundingBox">
      <stop offset="0" stop-color="#53d8ff"/>
      <stop offset="0.206" stop-color="#4db9fd"/>
      <stop offset="1" stop-color="#3840f7"/>
    </linearGradient>
  </defs>
  <g id="Grupo_1055043" data-name="Grupo 1055043" transform="translate(-180 -6522.934)">
    <g id="Grupo_1054396" data-name="Grupo 1054396" transform="matrix(0.545, -0.839, 0.839, 0.545, -690.101, 7958.821)" opacity="0.62">
      <path id="Trazado_771758" data-name="Trazado 771758" d="M1720.212,182.568c-.6,2.9-.865,6.576,1.691,8.54,1.9,1.463,4.265,2.741,6.76,2.28,4.585-.846,4.409-4.34,4.695-8.405a14.933,14.933,0,0,0-.625-6.423,6.3,6.3,0,0,0-4.628-4.137,6.18,6.18,0,0,0-5.487,2.418A13.1,13.1,0,0,0,1720.212,182.568Z" transform="translate(-16.941 -47.144)" fill="#025157"/>
      <path id="Trazado_771759" data-name="Trazado 771759" d="M1704.925,145.541a5.052,5.052,0,0,0-.229-1.718,5.272,5.272,0,0,0-.723-1.209q-.883-1.212-1.764-2.424a7.841,7.841,0,0,0-2.277-2.351,5.059,5.059,0,0,0-4.232-.164,11.233,11.233,0,0,0-3.6,2.436,13.408,13.408,0,0,0-3.2,4.126c-2.866,6.288,2.51,14.132,8.2,16.8C1705.318,164.878,1704.984,149.91,1704.925,145.541Z" transform="translate(-6.775 -35.259)" fill="#025157"/>
      <path id="Trazado_771760" data-name="Trazado 771760" d="M1684.827,104.019a6.45,6.45,0,0,0-1.872-2.43c-3-2.81-6.1-5.69-9.96-7.106a4.911,4.911,0,0,0-3.636-.2c-1.756.782-2.268,3.009-2.37,4.928-.272,5,1.62,12.183,7.5,13.221C1678.461,113.129,1686.494,108.834,1684.827,104.019Z" transform="translate(0 -21.384)" fill="#025157"/>
      <path id="Trazado_771761" data-name="Trazado 771761" d="M1702.815,49.316c-1.437-2.774-3.89-5.559-7.011-5.418-2.034.092-3.773,1.417-5.365,2.683-1.794,1.428-3.663,2.953-4.51,5.084a11.4,11.4,0,0,0-.648,3.407c-.509,7.051,4.954,13.654,12.629,12.094C1705.83,65.556,1705.7,54.883,1702.815,49.316Z" transform="translate(-5.861 -5.319)" fill="#025157"/>
      <path id="Trazado_771762" data-name="Trazado 771762" d="M1747.848,38.772a11.291,11.291,0,0,0,1.13-3.194,10.522,10.522,0,0,0-.931-5.065,5.079,5.079,0,0,0-1.982-2.873c-1.351-.737-3.026-.152-4.392.554-4.479,2.314-8.21,5.818-11.877,9.276a10.759,10.759,0,0,0-2.015,2.3,7.359,7.359,0,0,0-.9,3.515c-.139,4.832,4.15,10.167,9.372,8.475C1742.191,49.835,1745.379,44,1747.848,38.772Z" transform="translate(-19.207 0)" fill="#025157"/>
      <path id="Trazado_771763" data-name="Trazado 771763" d="M1725.028,101.562a9.861,9.861,0,0,0,2.169-2.635c.659-1.683-.371-3.568-1.662-4.834a16.6,16.6,0,0,0-6.016-3.552,6.744,6.744,0,0,0-4.372-.44,5.1,5.1,0,0,0-2.974,3.2,14.542,14.542,0,0,0-.642,4.454c-.134,3.662-.05,10.271,4.84,10.915C1720.938,109.271,1722.655,104.244,1725.028,101.562Z" transform="translate(-14.277 -20.064)" fill="#025157"/>
      <path id="Trazado_771764" data-name="Trazado 771764" d="M1769.615,83.8a7,7,0,0,0-4.771-6.807,11.564,11.564,0,0,0-5.371-.062,13.966,13.966,0,0,0-4.246,1.3c-2.928,1.56-4.713,4.709-5.535,7.924a11.457,11.457,0,0,0-.245,5.407c1.209,5.207,7.731,7.658,12.568,6.123C1767.434,95.955,1769.382,88.8,1769.615,83.8Z" transform="translate(-26.369 -15.817)" fill="#025157"/>
      <path id="Trazado_771765" data-name="Trazado 771765" d="M1792.557,129.309a15.32,15.32,0,0,0,.381-4.311c-.013-1.937-.1-4.062-1.386-5.506-1.4-1.57-3.745-1.794-5.851-1.853a16.038,16.038,0,0,0-4.852.391,5.349,5.349,0,0,0-3.841,7.521c1.242,3.41,4.172,7.093,7.855,7.937C1788.009,134.209,1791.638,132.537,1792.557,129.309Z" transform="translate(-35.133 -28.952)" fill="#025157"/>
      <path id="Trazado_771766" data-name="Trazado 771766" d="M1748.293,141.06c-.326-2.461-1.9-4.554-3.472-6.476-2.386-2.914-5.223-5.908-8.95-6.444a2.688,2.688,0,0,0-3.506,1.974,11.884,11.884,0,0,0,.284,7.392,30.339,30.339,0,0,0,3.476,6.652c1.48,2.294,4.076,6.119,7.327,5.269C1746.588,148.607,1748.684,144,1748.293,141.06Z" transform="translate(-20.816 -32.307)" fill="#025157"/>
      <path id="Trazado_771767" data-name="Trazado 771767" d="M1786.524,167.177c-.058-2.25-.774-4.653-2.6-5.973-1.587-1.148-3.687-1.258-5.643-1.156a7.708,7.708,0,0,0-4.438,1.273c-1.638,1.291-2.114,3.549-2.3,5.626a19.033,19.033,0,0,0,.439,6.9c1,3.515,4.732,8.143,8.688,5.827C1784.563,177.4,1786.632,171.407,1786.524,167.177Z" transform="translate(-33.485 -42.544)" fill="#025157"/>
    </g>
    <path id="Trazado_771793" data-name="Trazado 771793" d="M57.543,66.923c2.94-14.6.984-30.214,5.008-44.657a110.447,110.447,0,0,1,5.854-15.1L71.592,0a130.314,130.314,0,0,1-9.536,58.547,93.913,93.913,0,0,1-3.309,9.069q1.553-2.566,3.109-5.128c3.477-5.711,6.989-11.468,11.56-16.348,4.057-4.331,8.86-7.878,13.381-11.722s8.853-8.1,11.575-13.373a20.384,20.384,0,0,1-2.526,11.87A60.712,60.712,0,0,1,88.739,42.96C83.587,49.287,78.4,55.647,72.284,61.045c-3.431,3.077-7.19,5.774-10.805,8.626-1.6,1.263-3.85,2.774-5.785,4.457a97.933,97.933,0,0,1-12.056,18.1c6.453-2.913,12.869-5.938,18.238-10.5,3.767-3.2,7.006-7.146,11.4-9.41,5.094-2.625,11.066-2.657,16.763-3.278s11.825-2.193,15.265-6.776A35.912,35.912,0,0,1,94.332,75.529a107.291,107.291,0,0,1-14.756,9.158c-8.047,4.41-16.494,8.933-25.668,9.148-3.322.078-6.668-.418-9.957.058a13.4,13.4,0,0,0-2.193.512q-2.819,3.162-5.9,6.072-2.281,2.149-4.61,4.183a50.365,50.365,0,0,1,20.987-4.1,87.3,87.3,0,0,1,22.4,3.481,67.82,67.82,0,0,0,9.935,2.326,17.22,17.22,0,0,0,9.957-1.444,56.545,56.545,0,0,1-9.912,8.11c-3.683,2.178-8.02,3.516-12.252,2.884-3.958-.59-7.48-2.822-11.353-3.824-4.635-1.2-9.542-.588-14.282-1.261-3.891-.552-7.614-1.961-11.487-2.623a21.155,21.155,0,0,0-4.475-.317c-1.259.055-2.721.7-3.935.589-.044,0-.08-.01-.121-.015A95.039,95.039,0,0,1,3.966,122.231a5.492,5.492,0,0,1-2.042.552,1.939,1.939,0,0,1-1.779-.953,1.967,1.967,0,0,1,.535-2.168,5.979,5.979,0,0,1,2.071-1.149A105.046,105.046,0,0,0,22.3,108.268c-1.044-.984-1.338-5-1.775-6.183a40.087,40.087,0,0,0-4.235-7.991C13.123,89.266,9.445,84.6,7.821,79.061a29.918,29.918,0,0,1-.293-14.018,89.383,89.383,0,0,1,4.123-13.524c-1.011,3.133.069,6.565,1.61,9.475s3.554,5.6,4.6,8.718c1.58,4.694.841,9.955,2.589,14.588,1.162,3.079,3.348,5.672,4.666,8.688a16.887,16.887,0,0,1,1.166,9.169,16.271,16.271,0,0,1-1.131,4.144q1.4-1,2.771-2.048A73.361,73.361,0,0,0,36.1,96.888a10.1,10.1,0,0,0-.292-7.5c-1.536-3.334-4.8-5.613-6.4-8.915-1.491-3.071-1.378-6.656-2.253-9.956-.918-3.461-2.925-6.609-3.443-10.152-1.35-9.234,7.638-17.546,6.584-26.818a273.258,273.258,0,0,0,7,33.965c.981,3.4,2.075,6.759,3.058,10.154,1.186,4.1,2.309,8.663,1.322,12.932,2.123-2.585,4.137-5.24,6.049-7.89q1.907-2.643,3.68-5.38a11.115,11.115,0,0,0,.326-2.654,27.058,27.058,0,0,0-.936-6.157c-.831-3.583-1.694-7.243-3.659-10.351-1.5-2.369-3.587-4.333-4.972-6.769-2.921-5.137-2.288-11.523-.974-17.285s3.233-11.564,2.6-17.441c4.587,7.868,5.992,17.135,7.2,26.161Q52.384,53.2,53.588,63.588a37.148,37.148,0,0,1,.345,7.707,17.545,17.545,0,0,1-.488,2.784q1.511-2.483,2.914-5.029C56.74,68.356,57.139,67.645,57.543,66.923Z" transform="translate(580 6538.413) rotate(-8)" fill="#025157"/>
    <path id="Trazado_771747" data-name="Trazado 771747" d="M100.045,418.013c16.358-3.4,17.974-18.286,19.974-36.05,4.9-43.5-3.563-88.9,7.6-130.859a131.664,131.664,0,0,1,28.41-53.554c10.449-11.717,22.817-20.948,33.787-32.026s20.835-24.724,23.9-41.088c4.438-23.691-6.065-48.555-1.665-72.255,3.263-17.575,14.409-32.046,27.163-42.539C245.591,4.4,252.917-.214,260.77.008c10.756.3,19.97,9.877,24.465,21.054s5.192,23.793,5.787,36.078c4.037,83.446,6.549,167.181,1.379,250.546-3.109,50.131-9.421,101.535-31.363,145.08-6.433,12.766-14.334,24.906-24.9,33.337-13.8,11.008-30.968,14.827-47.7,16.808-38.087,4.507-76.511.857-114.668-2.795-21.247-2.033-83.933,5.076-72.353-41.059,2.613-10.412,10.513-17.875,18.5-23.707,15.031-10.98,32.4-18.748,50.235-18.336,8.74.2,17.449,2.353,26.163,1.548A33.685,33.685,0,0,0,100.045,418.013Z" transform="translate(685 6537.688) rotate(90)" fill="#baefe4"/>
    <g id="Grupo_1054433" data-name="Grupo 1054433" transform="translate(16.582 -353.123)">
      <g id="Grupo_56088" data-name="Grupo 56088" transform="translate(213.546 7004.014)">
        <g id="Grupo_56086" data-name="Grupo 56086" transform="translate(0 0)">
          <path id="Trazado_106939" data-name="Trazado 106939" d="M1814.289-1718.492a10.219,10.219,0,0,0,.343-2.619,62.683,62.683,0,0,0-25.988-50.7l-3.554,6.769A62.927,62.927,0,0,1,1814.289-1718.492Z" transform="translate(-1684.662 1833.874)" fill="#e6a883"/>
          <path id="Trazado_106941" data-name="Trazado 106941" d="M1764.887-1772.2q2.464.359,4.862.9a8.94,8.94,0,0,1,8.2,2.429,64.281,64.281,0,0,1,11.66,5.7l3.269-7.005a64.38,64.38,0,0,0-28.387-11.244l-1.592,7.726C1763.577-1773.2,1764.235-1772.7,1764.887-1772.2Z" transform="translate(-1689.61 1831.731)" fill="#e6a883"/>
          <path id="Trazado_106942" data-name="Trazado 106942" d="M1762.7-1774.058l.6.07c-.172-.132-.358-.262-.532-.393Z" transform="translate(-1689.655 1833.302)" fill="#e6a883"/>
          <path id="Trazado_106945" data-name="Trazado 106945" d="M1768.847-1772.85c.181-.048.365-.091.54-.133q-2.4-.538-4.862-.9c.8.609,1.585,1.227,2.346,1.855A8.732,8.732,0,0,1,1768.847-1772.85Z" transform="translate(-1689.248 1833.413)" fill="#f6b48c"/>
          <path id="Trazado_106946" data-name="Trazado 106946" d="M1751.691-1773.525a64.429,64.429,0,0,0-26.886,11.877l5.154,11.029A103.4,103.4,0,0,1,1751.691-1773.525Z" transform="translate(-1698.106 1833.492)" fill="#f6b48c"/>
          <path id="Trazado_106947" data-name="Trazado 106947" d="M1723.769-1764.54l3.363,6.393,5.616,10.69c.012-.012.022-.033.039-.043l-5.154-11.029-3.114-6.666-10.427-22.317a8.848,8.848,0,0,1-1.974.8Z" transform="translate(-1700.935 1830.373)" fill="#743940"/>
          <path id="Trazado_106948" data-name="Trazado 106948" d="M1729.449-1753.881l-.1-.206-.007.006Z" transform="translate(-1697.094 1837.827)" fill="#743940"/>
          <path id="Trazado_106949" data-name="Trazado 106949" d="M1720.622-1792.1a8.751,8.751,0,0,0-8.823-8.674,8.75,8.75,0,0,0-8.825,8.674,8.75,8.75,0,0,0,8.825,8.67,9.04,9.04,0,0,0,2.359-.323,8.848,8.848,0,0,0,1.974-.8A8.624,8.624,0,0,0,1720.622-1792.1Z" transform="translate(-1702.974 1827.417)" fill="#c9c9c9"/>
          <path id="Trazado_106950" data-name="Trazado 106950" d="M1781.012-1751.027l4.988-9.49,3.554-6.769,12.629-24.025a8.644,8.644,0,0,1-1.971-.8l-11.37,24.313-3.269,7.005Z" transform="translate(-1685.571 1829.348)" fill="#743940"/>
          <path id="Trazado_106951" data-name="Trazado 106951" d="M1801.859-1788.031a8.749,8.749,0,0,0,8.823-8.67,8.749,8.749,0,0,0-8.823-8.672,8.749,8.749,0,0,0-8.822,8.672,8.643,8.643,0,0,0,4.491,7.55,8.644,8.644,0,0,0,1.971.8A9.209,9.209,0,0,0,1801.859-1788.031Z" transform="translate(-1682.89 1826.39)" fill="#ee8169"/>
          <path id="Trazado_106952" data-name="Trazado 106952" d="M1762.93-1767.641l1.592-7.726,6.783-32.973a8.57,8.57,0,0,1-2.125-.239l-5.206,33.135-1.207,7.683C1762.824-1767.717,1762.878-1767.678,1762.93-1767.641Z" transform="translate(-1689.64 1825.675)" fill="#743940"/>
          <path id="Trazado_106953" data-name="Trazado 106953" d="M1762.794-1774.042l.065-.323c-.042-.029-.084-.062-.127-.089l-.057.406-.4,2.531Z" transform="translate(-1689.75 1833.286)" fill="#743940"/>
          <path id="Trazado_106954" data-name="Trazado 106954" d="M1771.368-1805.223a8.765,8.765,0,0,0,2.36-.327,8.646,8.646,0,0,0,6.071-10.71,8.848,8.848,0,0,0-10.9-5.965,8.65,8.65,0,0,0-6.071,10.711,8.751,8.751,0,0,0,6.419,6.051A8.57,8.57,0,0,0,1771.368-1805.223Z" transform="translate(-1689.703 1822.558)" fill="#f3a073"/>
          <path id="Trazado_106955" data-name="Trazado 106955" d="M1716.739-1713.191c-.462,2.307-.745,4.167-.939,5.45-.1.641-.177,1.146-.239,1.482-.033.166-.062.289-.082.358l-.011.031a.392.392,0,0,0-.06.408.408.408,0,0,0,.539.213.6.6,0,0,0,.177-.123.753.753,0,0,0,.113-.2,2.4,2.4,0,0,0,.106-.4c.13-.6.275-1.732.536-3.333a96.343,96.343,0,0,1,9.905-29.747,97.486,97.486,0,0,1,5.672-9.425l.006-.006a102.8,102.8,0,0,1,23.065-24.071c2.675-2.03,5.528-4.008,8.587-5.925a.407.407,0,0,0,.128-.561.422.422,0,0,0-.576-.122,119.269,119.269,0,0,0-9.874,6.907,103.4,103.4,0,0,0-21.733,22.906c-.017.01-.027.031-.039.043a97.867,97.867,0,0,0-9.67,17.737A96.716,96.716,0,0,0,1716.739-1713.191Z" transform="translate(-1700.208 1832.221)" fill="#d39c7b"/>
          <path id="Trazado_106956" data-name="Trazado 106956" d="M1764.7-1772.908c1.118.838,2.19,1.682,3.248,2.535a6.839,6.839,0,0,1,.734-.461c-.76-.629-1.548-1.246-2.346-1.855-.652-.505-1.31-1-1.987-1.5-.051-.037-.105-.076-.163-.12q-3.381-2.482-7.153-4.854a.414.414,0,0,0-.57.122.4.4,0,0,0,.124.561c2.636,1.658,5.111,3.357,7.454,5.088.043.027.086.06.127.089C1764.343-1773.17,1764.529-1773.04,1764.7-1772.908Z" transform="translate(-1691.06 1832.221)" fill="#d39c7b"/>
          <path id="Trazado_106957" data-name="Trazado 106957" d="M1793.207-1734.905a96.2,96.2,0,0,1,5.565,18.222c.455,2.29.737,4.134.937,5.419.093.642.172,1.147.239,1.509.037.182.07.325.106.445a1.765,1.765,0,0,0,.072.184.881.881,0,0,0,.071.109.787.787,0,0,0,.174.123.42.42,0,0,0,.549-.213.4.4,0,0,0-.061-.408,1.215,1.215,0,0,1-.056-.217c-.111-.505-.267-1.629-.522-3.207a97.075,97.075,0,0,0-9.923-29.976,98.65,98.65,0,0,0-13.875-19.972,8.526,8.526,0,0,1-.449.735A97.45,97.45,0,0,1,1793.207-1734.905Z" transform="translate(-1686.682 1835.865)" fill="#d39c7b"/>
          <path id="Trazado_106958" data-name="Trazado 106958" d="M1751.674-1741.227l18.056-18.642a9.231,9.231,0,0,1-1.556-1.115Z" transform="translate(-1692.114 1836.289)" fill="#743940"/>
          <path id="Trazado_106959" data-name="Trazado 106959" d="M1767.251-1772.153a6.839,6.839,0,0,0-.734.461,8.579,8.579,0,0,0-3.36,9.425,8.582,8.582,0,0,0,2.531,4.031,9.231,9.231,0,0,0,1.556,1.115,8.964,8.964,0,0,0,6.81.824,8.776,8.776,0,0,0,4.924-3.529,8.526,8.526,0,0,0,.449-.735,8.513,8.513,0,0,0,.7-6.453,8.566,8.566,0,0,0-2.163-3.669,8.94,8.94,0,0,0-8.2-2.429c-.175.043-.358.085-.54.133A8.732,8.732,0,0,0,1767.251-1772.153Z" transform="translate(-1689.629 1833.541)" fill="#f9c37f"/>
        </g>
        <g id="Grupo_56087" data-name="Grupo 56087" transform="translate(319.595 31.359)">
          <path id="Trazado_106960" data-name="Trazado 106960" d="M2002.857-1772.365v34.792c1.506.235,2.923.492,4.241.775.261-.485.532-.953.8-1.4a37.492,37.492,0,0,1,3.707-5.122l.006-.01a71.868,71.868,0,0,0,10.081-13.512c2.043-3.775,2.866-6.823,2.864-9.25a8.825,8.825,0,0,0-.768-3.707,8.63,8.63,0,0,0-2.066-2.771,17.086,17.086,0,0,0-6.929-3.473,36.87,36.87,0,0,0-5.494-1.042,55.207,55.207,0,0,0-6.445-.37v5.089Z" transform="translate(-1950.124 1819.592)" fill="none"/>
          <path id="Trazado_106961" data-name="Trazado 106961" d="M1981.037-1721.288c-18.606,0-33.69-3.4-33.69-7.593v3.068c0,4.189,15.084,7.588,33.69,7.588a124.413,124.413,0,0,0,21.275-1.674,11.091,11.091,0,0,1-.815-2.954A123.8,123.8,0,0,1,1981.037-1721.288Z" transform="translate(-1947.347 1817.162)" fill="#a4705c"/>
          <path id="Trazado_106962" data-name="Trazado 106962" d="M2006.325-1723.2a9.112,9.112,0,0,0,.862,2.931c5.573-1.165,9.418-2.731,10.491-4.5v-4.115C2017.678-1726.619,2013.285-1724.591,2006.325-1723.2Z" transform="translate(-1950.297 1817.162)" fill="#a4705c"/>
          <path id="Trazado_106963" data-name="Trazado 106963" d="M2007.307-1730.176a16,16,0,0,0-1.071,5.407,10.6,10.6,0,0,0,.083,1.3c6.959-1.392,11.353-3.42,11.353-5.682,0-1.93-3.208-3.7-8.484-5.031A27.365,27.365,0,0,0,2007.307-1730.176Z" transform="translate(-1950.293 1817.427)" fill="#c1826c"/>
          <path id="Trazado_106964" data-name="Trazado 106964" d="M1981.037-1721.618a123.8,123.8,0,0,0,20.46-1.564,11.82,11.82,0,0,1-.109-1.651,17.663,17.663,0,0,1,1.182-6.042,28.809,28.809,0,0,1,1.752-3.823c-1.318-.283-2.735-.54-4.241-.775v7.8h-38.087v-7.8c-8.845,1.366-14.646,3.665-14.646,6.263C1947.347-1725.019,1962.431-1721.618,1981.037-1721.618Z" transform="translate(-1947.347 1817.492)" fill="#c1826c"/>
          <path id="Trazado_106965" data-name="Trazado 106965" d="M2000.851-1803.987a129.518,129.518,0,0,1-19.043,1.314,127.318,127.318,0,0,1-19.044-1.331v4.271h38.087Z" transform="translate(-1948.118 1820.92)" fill="#e1967c"/>
          <rect id="Rectángulo_5720" data-name="Rectángulo 5720" width="38.088" height="3.162" transform="translate(14.645 86.655)" fill="#e1967c"/>
          <rect id="Rectángulo_5721" data-name="Rectángulo 5721" width="38.088" height="7.176" transform="translate(14.645 68.363)" fill="#ee7d74"/>
          <rect id="Rectángulo_5722" data-name="Rectángulo 5722" width="38.088" height="6.692" transform="translate(14.645 50.178)" fill="#ee7d74"/>
          <rect id="Rectángulo_5723" data-name="Rectángulo 5723" width="38.088" height="3.267" transform="translate(14.645 21.188)" fill="#ee7d74"/>
          <rect id="Rectángulo_5724" data-name="Rectángulo 5724" width="38.088" height="5.591" transform="translate(14.645 59.821)" fill="#ee7d74"/>
          <rect id="Rectángulo_5725" data-name="Rectángulo 5725" width="38.088" height="6.533" transform="translate(14.645 33.313)" fill="#ee7d74"/>
          <rect id="Rectángulo_5726" data-name="Rectángulo 5726" width="38.088" height="2.953" transform="translate(14.645 27.409)" fill="#ee7d74"/>
          <rect id="Rectángulo_5727" data-name="Rectángulo 5727" width="38.088" height="4.429" transform="translate(14.645 42.798)" fill="#ee7d74"/>
          <path id="Trazado_106966" data-name="Trazado 106966" d="M1962.764-1731.023h38.087v-8.162h-38.087v8.162Z" transform="translate(-1948.118 1817.678)" fill="#ee7d74"/>
          <path id="Trazado_106967" data-name="Trazado 106967" d="M2000.08-1804.478c7.8-1.178,13.324-3.053,14.648-5.229v-4.118c0,4.194-15.081,7.594-33.691,7.594s-33.69-3.4-33.69-7.594v3.071c0,2.6,5.8,4.894,14.646,6.26a127.285,127.285,0,0,0,19.044,1.331A129.48,129.48,0,0,0,2000.08-1804.478Z" transform="translate(-1947.347 1821.412)" fill="#a4705c"/>
          <path id="Trazado_106968" data-name="Trazado 106968" d="M1981.037-1821.811c-18.606,0-33.69,3.4-33.69,7.586s15.084,7.594,33.69,7.594,33.691-3.4,33.691-7.594S1999.647-1821.811,1981.037-1821.811Zm0,11.174c-11.141,0-20.178-2.039-20.178-4.549s9.037-4.547,20.178-4.547,20.179,2.033,20.179,4.547S1992.182-1810.637,1981.037-1810.637Z" transform="translate(-1947.347 1821.811)" fill="#c1826c"/>
          <path id="Trazado_106969" data-name="Trazado 106969" d="M1961.57-1815.076c0,2.51,9.037,4.549,20.178,4.549s20.18-2.039,20.18-4.549-9.034-4.547-20.18-4.547S1961.57-1817.59,1961.57-1815.076Z" transform="translate(-1948.059 1821.702)" fill="#ce8b73"/>
          <rect id="Rectángulo_5728" data-name="Rectángulo 5728" width="38.088" height="2.953" transform="translate(14.645 24.456)" fill="#d3545e"/>
          <rect id="Rectángulo_5729" data-name="Rectángulo 5729" width="38.088" height="2.952" transform="translate(14.645 30.362)" fill="#d3545e"/>
          <path id="Trazado_106970" data-name="Trazado 106970" d="M2000.851-1777.575h-.065c-2.071,0-3.467.107-3.617.121h-.013a.953.953,0,0,1-1.033-.854.934.934,0,0,1,.867-1.012c.022-.007,1.518-.13,3.8-.13h.065v-.416h-38.087v2.952h38.087Z" transform="translate(-1948.118 1819.713)" fill="#d3545e"/>
          <rect id="Rectángulo_5730" data-name="Rectángulo 5730" width="38.088" height="2.951" transform="translate(14.645 47.227)" fill="#d3545e"/>
          <rect id="Rectángulo_5731" data-name="Rectángulo 5731" width="38.088" height="2.952" transform="translate(14.645 56.87)" fill="#d3545e"/>
          <rect id="Rectángulo_5732" data-name="Rectángulo 5732" width="38.088" height="2.951" transform="translate(14.645 65.412)" fill="#d3545e"/>
          <rect id="Rectángulo_5733" data-name="Rectángulo 5733" width="38.088" height="2.954" transform="translate(14.645 75.539)" fill="#d3545e"/>
          <path id="Trazado_106971" data-name="Trazado 106971" d="M2012.156-1741.422c.2-.25.362-.446.469-.569l.125-.143.032-.038.009-.008h0l0,0a73.427,73.427,0,0,0,10.337-13.884c2.138-3.95,3.083-7.278,3.083-10.122a10.649,10.649,0,0,0-.743-4.029,11.01,11.01,0,0,0-4.179-4.987,24.825,24.825,0,0,0-9.611-3.492,54.26,54.26,0,0,0-9.071-.73h-.064c-2.278,0-3.774.123-3.8.13a.934.934,0,0,0-.867,1.012.953.953,0,0,0,1.033.854h.013c.15-.013,1.547-.121,3.618-.121h.064a55.2,55.2,0,0,1,6.445.369,36.9,36.9,0,0,1,5.494,1.042,17.088,17.088,0,0,1,6.929,3.473,8.631,8.631,0,0,1,2.066,2.771,8.824,8.824,0,0,1,.768,3.707c0,2.426-.821,5.475-2.864,9.25a71.875,71.875,0,0,1-10.081,13.511l-.006.01a37.46,37.46,0,0,0-3.707,5.122c-.271.447-.542.915-.8,1.4a28.8,28.8,0,0,0-1.752,3.823,17.661,17.661,0,0,0-1.182,6.042,11.82,11.82,0,0,0,.109,1.651,11.089,11.089,0,0,0,.815,2.953c.029.072.06.14.089.217a11.386,11.386,0,0,0,2.36,3.323,18.4,18.4,0,0,0,6.6,3.986,44.683,44.683,0,0,0,10.932,2.382.946.946,0,0,0,1.05-.828.944.944,0,0,0-.841-1.035,45.285,45.285,0,0,1-9.536-1.942,20.994,20.994,0,0,1-4.709-2.186,10.93,10.93,0,0,1-3.876-4c-.054-.1-.1-.2-.145-.291a9.113,9.113,0,0,1-.862-2.931,10.658,10.658,0,0,1-.083-1.3,16,16,0,0,1,1.071-5.407,27.336,27.336,0,0,1,1.882-4c.6-1.075,1.234-2.054,1.81-2.882C2011.2-1740.207,2011.756-1740.928,2012.156-1741.422Z" transform="translate(-1949.875 1819.691)" fill="#d3545e"/>
        </g>
      </g>
      <path id="Trazado_771794" data-name="Trazado 771794" d="M34.079,909.322c-6.52-12.863-12.924-26.329-24.554-35.826s-30.243-13.758-43.148-5.707c-8.661,5.4-12.837,14.873-19.7,22.072-5.9,6.183-13.7,10.6-20.513,15.966s-12.946,12.309-13.586,20.44c-1.047,13.3,12.528,23.675,25.721,29.726a159.661,159.661,0,0,0,73.832,14.047c12.887-.636,48.259-5.212,48.8-21.74.216-6.541-8.919-11.655-12.91-16.331C42.191,925.137,38.032,917.123,34.079,909.322Z" transform="translate(290.792 6174.893)" fill="#f5947a"/>
      <g id="Grupo_56230" data-name="Grupo 56230" transform="translate(303.217 6931.81)">
        <g id="Grupo_55598" data-name="Grupo 55598" transform="translate(171.233)">
          <path id="Trazado_105423" data-name="Trazado 105423" d="M697.234,179.486l-23.443-1.534,3.311-31.688,16.332-.04Z" transform="translate(-671.736 -145.262)" fill="#ffad54"/>
          <path id="Trazado_105424" data-name="Trazado 105424" d="M697.6,176.612H673.014a1.484,1.484,0,0,0,0,2.94H697.6a1.484,1.484,0,0,0,0-2.94Z" transform="translate(-671.732 -145.328)" fill="#6f6f6e"/>
          <path id="Trazado_105425" data-name="Trazado 105425" d="M694.515,145.26h-18.9a1.556,1.556,0,1,0,0,3.065h18.9a1.556,1.556,0,1,0,0-3.065Z" transform="translate(-671.736 -145.26)" fill="#6f6f6e"/>
        </g>
        <path id="Trazado_105426" data-name="Trazado 105426" d="M500.127,297.006v23.716a25.009,25.009,0,0,0,2.1,10.024h0a25.006,25.006,0,0,0,16.248,14.079l48.873,13.51,5.642-20.362-5.642-26Z" transform="translate(-500.126 -145.589)" fill="url(#linear-gradient)"/>
        <path id="Trazado_105427" data-name="Trazado 105427" d="M632.843,280.534,500.127,296.971l67.217,14.964,141.793-19.871Z" transform="translate(-500.127 -145.554)" fill="url(#linear-gradient-2)"/>
        <path id="Trazado_105428" data-name="Trazado 105428" d="M601.859,295.746l-28.8-5.145a2.932,2.932,0,0,0-.891-.02l-30.783,4.03a.339.339,0,0,0-.037.665l26.306,6.449a2.34,2.34,0,0,0,.916.041l33.278-5.072A.481.481,0,0,0,601.859,295.746Z" transform="translate(-500.215 -145.575)" fill="#d8dee8"/>
        <path id="Trazado_105429" data-name="Trazado 105429" d="M567.486,292.7l-1.441,2.116V278.168h1.441Z" transform="translate(-500.269 -145.548)" fill="url(#linear-gradient-3)"/>
        <rect id="Rectángulo_5321" data-name="Rectángulo 5321" width="3.819" height="19.584" transform="translate(64.518 115.292)" fill="url(#linear-gradient-4)"/>
        <path id="Trazado_105430" data-name="Trazado 105430" d="M634.358,220.992c0,2.207-1.226,59.366-1.226,59.366l76.293,11.53L703.783,199.4l-63.047,8.1Z" transform="translate(-500.415 -145.378)" fill="url(#linear-gradient-5)"/>
        <path id="Trazado_105431" data-name="Trazado 105431" d="M558.885,256.933v12.143a3.557,3.557,0,0,0,3.557,3.557H567.1a3.557,3.557,0,0,0,3.557-3.557V256.933Z" transform="translate(-500.254 -145.502)" fill="url(#linear-gradient-6)"/>
        <path id="Trazado_105432" data-name="Trazado 105432" d="M551.17,258.654l-2.558,6.659a2.623,2.623,0,0,0,4.768,2.164l4.659-8.824Z" transform="translate(-500.231 -145.506)" fill="url(#linear-gradient-7)"/>
        <path id="Trazado_105433" data-name="Trazado 105433" d="M741.668,301.552,723.954,195.3a12.778,12.778,0,0,0-3.494-6.521L715.686,184a15.959,15.959,0,0,0-11.487-4.675L561.976,181.1a66.419,66.419,0,0,0-16.779,2.372L534.084,187.7l18.292,72.816s21.466-.6,30.189-.891a13.8,13.8,0,0,0,8.693-3.465l22.907-20.312A75.55,75.55,0,0,1,637,221.929l25.992-10.066a25.746,25.746,0,0,1,28.648,18.388l17.572,61.593L567.417,311.715V358.08l162.54-31.33a13.309,13.309,0,0,0,9.58-7.528l2.6-5.683C743.308,310.988,742.221,304.3,741.668,301.552Z" transform="translate(-500.2 -145.334)" fill="url(#linear-gradient-8)"/>
        <path id="Trazado_105434" data-name="Trazado 105434" d="M724.943,234.126l-3.073-14.519a2.9,2.9,0,0,0-2.656-2.5H700.17c-1.736,0-3.036,1.935-2.686,4l2.763,16.363a2.88,2.88,0,0,0,2.9,2.651l19.354-1.844C724.2,238.115,725.367,236.131,724.943,234.126Z" transform="translate(-500.555 -145.416)" fill="url(#linear-gradient-9)"/>
        <path id="Trazado_105435" data-name="Trazado 105435" d="M559.313,185.522c-7.369-1.418-18.389-2.338-27.048,2.057a5.3,5.3,0,0,0-2.882,4.727V235.69a5.178,5.178,0,0,0,.2,1.42l5.407,19.026a5.194,5.194,0,0,0,4.74,3.767l12.639.625a4.934,4.934,0,0,0,4.821-3.089l9.487-23.619a10.139,10.139,0,0,0,.732-3.784V195.341A9.993,9.993,0,0,0,559.313,185.522Z" transform="translate(-500.19 -145.345)" fill="url(#linear-gradient-10)"/>
        <path id="Trazado_105436" data-name="Trazado 105436" d="M700.452,208.969c.275,1.6-.5,3.073-1.737,3.286s-2.46-.914-2.735-2.517.5-3.073,1.736-3.286S700.176,207.367,700.452,208.969Z" transform="translate(-500.551 -145.393)" fill="#ffad54"/>
        <path id="Trazado_105437" data-name="Trazado 105437" d="M708.565,208.969c.275,1.6-.5,3.073-1.737,3.286s-2.46-.914-2.735-2.517.5-3.073,1.736-3.286S708.29,207.367,708.565,208.969Z" transform="translate(-500.569 -145.393)" fill="#ffad54"/>
        <path id="Trazado_105438" data-name="Trazado 105438" d="M716.678,208.969c.275,1.6-.5,3.073-1.737,3.286s-2.46-.914-2.735-2.517.5-3.073,1.736-3.286S716.4,207.367,716.678,208.969Z" transform="translate(-500.587 -145.393)" fill="#ffad54"/>
        <path id="Trazado_105439" data-name="Trazado 105439" d="M582.906,195.47h-4.968v31.064h4.968a2.76,2.76,0,0,0,2.76-2.759V198.23A2.76,2.76,0,0,0,582.906,195.47Z" transform="translate(-500.295 -145.369)" fill="url(#linear-gradient-11)"/>
        <path id="Trazado_105440" data-name="Trazado 105440" d="M577.938,205.292l11.557-5.448a2.166,2.166,0,0,1,2.549,1.7v.515a2.9,2.9,0,0,1-1.882,2.712l-12.224,4.571Z" transform="translate(-500.295 -145.378)" fill="url(#linear-gradient-12)"/>
        <path id="Trazado_105441" data-name="Trazado 105441" d="M577.938,204.575l11.076-4.623a1.424,1.424,0,0,1,1.972,1.314v.515a2.9,2.9,0,0,1-1.881,2.712l-11.167,4.176Z" transform="translate(-500.295 -145.378)" fill="#d8dee8"/>
      </g>
    </g>
  </g>
</svg>
