<svg id="Grupo_1054822" data-name="Grupo 1054822" xmlns="http://www.w3.org/2000/svg" xmlns:xlink="http://www.w3.org/1999/xlink" width="83.974" height="83.975" viewBox="0 0 83.974 83.975">
  <defs>
    <clipPath id="clip-path">
      <circle id="Elipse_4166" data-name="Elipse 4166" cx="41.987" cy="41.987" r="41.987" fill="none"/>
    </clipPath>
  </defs>
  <circle id="Elipse_4165" data-name="Elipse 4165" cx="41.987" cy="41.987" r="41.987" transform="translate(0 0)" fill="#fff"/>
  <g id="Grupo_56070" data-name="Grupo 56070" transform="translate(0 0)">
    <g id="Grupo_56069" data-name="Grupo 56069" clip-path="url(#clip-path)">
      <g id="Grupo_56068" data-name="Grupo 56068" transform="translate(12.039 4.824)">
        <path id="Trazado_106670" data-name="Trazado 106670" d="M4193.291-3965.794c-4.221,1.3-5.483.4-5.483.4-9.579-6.819-21.144,2.835-21.144,2.835-12.014-8.767-22.442-1.61-22.442-1.61.974-1.461,2.635-8.443,2.635-8.443a58.281,58.281,0,0,1,4.708-16.56c.649-3.734,4.871-3.248,4.871-3.248a8.882,8.882,0,0,0,4.221,1.624c3.9,1.136,4.708,0,4.708,0,.649,2.436,2.111,1.46,2.111,1.46,2.921-1.46.811-3.9.811-3.9-1.137-1.3.649-1.949.649-1.949,1.625-.649,1.137-1.623,1.137-1.623l-3.9-8.767c-3.9-.812-12.664,2.922-12.664,2.922-7.468,1.625-9.378,10.391-9.378,10.391s-18.072,27.763-15.312,36.205c2.759,8.28,11.216,8.406,11.216,8.406a46.9,46.9,0,0,0,11.2,3.571,62.659,62.659,0,0,0,20.781-2.56c-.162,6.656,4.385,12.339,6.82,14.936C4183.062-3934.785,4196.7-3946.312,4193.291-3965.794Z" transform="translate(-4128.448 4005.688)" fill="#f4d0b8"/>
        <path id="Trazado_106671" data-name="Trazado 106671" d="M4201.817-3968.01c-3.734-.163-8.768,1.786-8.768,1.786h-.324c3.409,19.32-10.229,31.01-14.612,34.094a9.875,9.875,0,0,0,1.462,1.461C4204.253-3943.656,4201.817-3968.01,4201.817-3968.01Z" transform="translate(-4127.882 4006.117)" fill="#727997"/>
        <g id="Grupo_56066" data-name="Grupo 56066" transform="translate(10.128 22.034)">
          <path id="Trazado_106672" data-name="Trazado 106672" d="M4168.481-3963.836a4.463,4.463,0,0,1,1.137.649,16.505,16.505,0,0,1,2.6,2.436,19.74,19.74,0,0,1,2.272,4.545c.649,1.786.974,3.572,1.623,5.2a20.737,20.737,0,0,0,5.2,8.28,10.641,10.641,0,0,0,2.6,1.948,9.774,9.774,0,0,0,1.137.488,7.337,7.337,0,0,1-1.3-.163,6.938,6.938,0,0,1-3.247-1.461,14.51,14.51,0,0,1-3.734-3.41,18.9,18.9,0,0,1-2.76-5.032,38.477,38.477,0,0,1-1.3-5.52,27.8,27.8,0,0,0-1.461-4.383,8.064,8.064,0,0,0-1.786-2.76A2.288,2.288,0,0,0,4168.481-3963.836Z" transform="translate(-4138.121 3984.131)" fill="#f7c39f"/>
          <path id="Trazado_106673" data-name="Trazado 106673" d="M4146.169-3954.5s1.46.324,3.734.649a41.092,41.092,0,0,0,7.955.488,9.228,9.228,0,0,0,2.111-.163c.649-.162,1.461-.162,1.949-.325.649-.162,1.3-.325,1.785-.486a4.864,4.864,0,0,0,1.625-.65,9.553,9.553,0,0,1,1.3-.649c.324-.162.649-.487.974-.649a4.55,4.55,0,0,1,.974-.486,1.507,1.507,0,0,1-.488.974,12.86,12.86,0,0,1-2.109,1.948,14.362,14.362,0,0,1-1.625.974,10,10,0,0,1-1.948.812,20.49,20.49,0,0,1-4.546.811,20.7,20.7,0,0,1-4.546-.325,11.274,11.274,0,0,1-3.734-1.136A15.433,15.433,0,0,1,4146.169-3954.5Z" transform="translate(-4138.375 3984.211)" fill="#f7c39f"/>
          <path id="Trazado_106674" data-name="Trazado 106674" d="M4140.737-3962.958a8.684,8.684,0,0,0-.487-.812,8.568,8.568,0,0,1-1.137-2.435,12.8,12.8,0,0,1-.649-3.734,20.149,20.149,0,0,1,.488-4.383,30.157,30.157,0,0,1,1.623-4.059,25.358,25.358,0,0,1,2.111-3.085,14.535,14.535,0,0,1,2.76-2.436,8.463,8.463,0,0,1-.488.811c-.324.488-.811,1.3-1.3,2.111a31.309,31.309,0,0,0-2.76,6.981,32.444,32.444,0,0,0-.649,3.9,11.881,11.881,0,0,0,0,3.409c.163.974.163,1.948.324,2.436A4.477,4.477,0,0,0,4140.737-3962.958Z" transform="translate(-4138.463 3983.902)" fill="#f7c39f"/>
        </g>
        <path id="Trazado_106675" data-name="Trazado 106675" d="M4179.4-3930.669l.812,2.6H4201.8v-39.939l-6.656,15.911-1.948,7.144-4.384,7.144Z" transform="translate(-4127.868 4006.117)" fill="#ff9696"/>
        <g id="Grupo_56067" data-name="Grupo 56067" transform="translate(0 15.377)">
          <path id="Trazado_106676" data-name="Trazado 106676" d="M4174.213-3948.464a54.709,54.709,0,0,1-19.366,2.561s-8.312-1.024-13.3-3.621c0,0-8.634.086-11.357-8.357-1.06-3.247,3.934-15.749,3.934-15.749-3.631,6.819-6.507,13.8-5.447,17.373,2.572,8.279,11.357,8.356,11.357,8.356,4.992,2.6,13.305,3.621,13.305,3.621a54.715,54.715,0,0,0,19.366-2.561c-.151,6.657,4.086,12.339,6.355,14.937a38.742,38.742,0,0,0,5.144-4.87,38.5,38.5,0,0,1-3.631,3.247C4178.3-3936.125,4174.063-3941.807,4174.213-3948.464Z" transform="translate(-4128.449 3990.676)" fill="#231f20" opacity="0.1" style="isolation: isolate"/>
          <path id="Trazado_106677" data-name="Trazado 106677" d="M4193.121-3965.968c-4.221,1.3-5.483.4-5.483.4-9.579-6.819-21.144,2.835-21.144,2.835-12.014-8.767-21.431-1.61-21.431-1.61.974-1.461,1.624-8.443,1.624-8.443a58.281,58.281,0,0,1,4.708-16.56,2.348,2.348,0,0,1,.325-1.137,3.661,3.661,0,0,0-1.948,2.76,65.037,65.037,0,0,0-4.708,16.56s-.65,6.981-1.624,8.442c0,0,10.428-7.157,22.443,1.61,0,0,11.726-10.665,21.144-3.845,0,0,.25,1.748,4.471.612,2.435,13.638-3.734,23.541-9.092,29.223C4188.087-3940.316,4195.88-3950.707,4193.121-3965.968Z" transform="translate(-4128.278 3990.484)" fill="#231f20" opacity="0.1" style="isolation: isolate"/>
        </g>
      </g>
    </g>
  </g>
</svg>
