<svg id="Grupo_1054820" data-name="Grupo 1054820" xmlns="http://www.w3.org/2000/svg" xmlns:xlink="http://www.w3.org/1999/xlink" width="83.975" height="83.975" viewBox="0 0 83.975 83.975">
  <defs>
    <clipPath id="clip-path">
      <circle id="Elipse_4162" data-name="Elipse 4162" cx="41.987" cy="41.987" r="41.987" fill="none"/>
    </clipPath>
  </defs>
  <g id="Grupo_56053" data-name="Grupo 56053" transform="translate(0)">
    <circle id="Elipse_4161" data-name="Elipse 4161" cx="41.987" cy="41.987" r="41.987" transform="translate(0 0)" fill="#fff"/>
    <g id="Grupo_56057" data-name="Grupo 56057" transform="translate(0 0)">
      <g id="Grupo_56056" data-name="Grupo 56056">
        <g id="Grupo_56055" data-name="Grupo 56055" clip-path="url(#clip-path)">
          <g id="Grupo_56054" data-name="Grupo 56054" transform="translate(14.097 4.824)">
            <path id="Trazado_106656" data-name="Trazado 106656" d="M3575.985-3963.373c-4.222,1.3-5.959,0-5.959,0-4.693-1.3-8.439-3.233-16.448-1.358-12.656,2.963-31.556,3.221-31.556,3.221.975-1.461,3.008-11.1,3.008-11.1.974-8.767,5.719-17.571,5.719-17.571a8.081,8.081,0,0,1,5.883-2.236,8.882,8.882,0,0,0,4.221,1.624c3.9,1.136,4.708,0,4.708,0,.649,2.436,2.111,1.46,2.111,1.46,2.922-1.46.811-3.9.811-3.9-1.136-1.3.65-1.949.65-1.949,1.623-.649,1.136-1.623,1.136-1.623l-3.9-8.767c-3.9-.812-12.664,2.922-12.664,2.922-7.469,1.625-9.38,10.391-9.38,10.391s-15.037,27.763-12.277,36.205c-1.991,5.932,11.215,6.383,11.215,6.383,25.919-.085,33.509.7,33.509.7,1.791,2.652.931-2.007,3.272,17.267C3564.269-3934.785,3579.394-3943.89,3575.985-3963.373Z" transform="translate(-3511.714 4005.688)" fill="#f4d0b8"/>
            <path id="Trazado_106657" data-name="Trazado 106657" d="M3583.046-3968.01c-3.734-.163.066,4.662.066,4.662-.163,0-13.606-.74-13.768-.74,3.41,19.32-5.617,28.874-10,31.958a9.861,9.861,0,0,0,1.461,1.461C3585.482-3943.656,3583.046-3968.01,3583.046-3968.01Z" transform="translate(-3511.171 4006.117)" fill="#f5947a"/>
            <g id="Grupo_56053-2" data-name="Grupo 56053" transform="translate(7.611 22.341)" opacity="0.3">
              <path id="Trazado_106658" data-name="Trazado 106658" d="M3553.935-3962.022a2.526,2.526,0,0,1,.753.368,11.487,11.487,0,0,1,1.865,1.57,17.8,17.8,0,0,1,1.992,3.22c.642,1.292,1.1,2.623,1.715,3.791a17.465,17.465,0,0,0,4.239,5.747,6.742,6.742,0,0,0,1.792,1.2,5,5,0,0,0,.729.244,3.336,3.336,0,0,1-.775.022,3.685,3.685,0,0,1-2.093-.75,10.032,10.032,0,0,1-2.667-2.187,16.681,16.681,0,0,1-2.347-3.538,38.383,38.383,0,0,1-1.576-4.076,26.561,26.561,0,0,0-1.5-3.188,6.723,6.723,0,0,0-1.444-1.91A1.469,1.469,0,0,0,3553.935-3962.022Z" transform="translate(-3518.844 3983.844)" fill="#f7c39f"/>
              <path id="Trazado_106659" data-name="Trazado 106659" d="M3527.4-3955.637s1.46.163,3.734.324,5.2.325,7.956.244a18.36,18.36,0,0,0,2.11-.081c.65-.081,1.461-.081,1.949-.163.649-.081,1.3-.162,1.785-.243a8.288,8.288,0,0,0,1.625-.324c.487-.163.974-.244,1.3-.326s.649-.243.974-.325a7.289,7.289,0,0,1,.974-.243s0,.243-.486.486a13.524,13.524,0,0,1-2.111.974c-.487.163-.974.325-1.624.488a16.645,16.645,0,0,1-1.948.406,39.364,39.364,0,0,1-4.546.406,41.1,41.1,0,0,1-4.545-.162,20.129,20.129,0,0,1-3.734-.568A23.053,23.053,0,0,1,3527.4-3955.637Z" transform="translate(-3519.146 3983.904)" fill="#f7c39f"/>
              <path id="Trazado_106660" data-name="Trazado 106660" d="M3520.018-3963.11s-.069-.334-.222-.841a11.193,11.193,0,0,1-.459-2.5,19.312,19.312,0,0,1-.006-3.757,31.193,31.193,0,0,1,.789-4.324,41.407,41.407,0,0,1,1.479-3.92,28.772,28.772,0,0,1,1.683-2.919,12.055,12.055,0,0,1,2.026-2.227s-.138.31-.4.773-.66,1.234-1.058,2.006a42.784,42.784,0,0,0-2.523,6.746c-.349,1.268-.594,2.549-.84,3.828a18.538,18.538,0,0,0-.373,3.389c0,.979-.108,1.948-.059,2.444A6.83,6.83,0,0,0,3520.018-3963.11Z" transform="translate(-3519.239 3983.598)" fill="#f7c39f"/>
            </g>
            <path id="Trazado_106661" data-name="Trazado 106661" d="M3560.627-3930.669l.812,2.6h21.593v-39.939l-6.657,15.911-1.948,7.144-4.384,7.144Z" transform="translate(-3511.156 4006.117)" fill="#ff9696"/>
          </g>
        </g>
      </g>
    </g>
  </g>
</svg>
