<svg xmlns="http://www.w3.org/2000/svg" width="376" height="431" viewBox="0 0 376 431">
  <g id="Grupo_1055050" data-name="Grupo 1055050" transform="translate(1157.33 8361.759)">
    <rect id="Rectángulo_362216" data-name="Rectángulo 362216" width="376" height="431" transform="translate(-1157.33 -8361.759)" fill="#12263f"/>
    <g id="Grupo_1054962" data-name="Grupo 1054962" transform="translate(-2355.288 -1356.484)">
      <path id="Trazado_106531" data-name="Trazado 106531" d="M1789.3,6464.4" transform="translate(-490.045 -13242.427)"/>
      <g id="Grupo_56001" data-name="Grupo 56001" transform="translate(1339.818 -6940.793)">
        <path id="Trazado_106532" data-name="Trazado 106532" d="M1849.931,6578.021h20.69l16.4-45.921s3.983-17.447,3.983-23.23,1.137-16.215,1.137-16.215l8.629-23.231s6.069,26.077,7.207,34.515,2.465,27.024,0,39.256-7.017,34.827-7.017,34.827h75.667l43.807-.407-6.732-39.825s-2.054-27.845-.917-31.354,8.85-41.215,8.85-41.215l11.411,34.452s5.879,38.782,7.016,41.911,13.559,36.438,13.559,36.438h22.852l-12.421-68.961-3.508-14.6-1.422-9.387-7.112-55.281s-5.31-30.437-12.137-36.6-22.472-6.069-22.472-6.069l-33.567-12.042-1.9-30.912-37.265,1.612-4.836-2.308s.759,29.205-1.138,31.48-31.228,9.988-31.228,9.988-18.332-.885-26.929,13.4-12.9,64.732-12.9,64.732l-2.907,30.848s-11.505,35.652-11.505,38.939-3.307,45.162-3.307,45.162" transform="translate(-1849.931 -6261.606)" fill="#e7e7e8"/>
        <g id="Grupo_56000" data-name="Grupo 56000" transform="translate(0 76.934)">
          <path id="Trazado_106533" data-name="Trazado 106533" d="M1983.058,6372.639s12.161,4.9,23.036,4.842a53.521,53.521,0,0,0,21.807-4.842l-1.9-30.913-32.239-5.625-9.861,4.93S1983.165,6364.33,1983.058,6372.639Z" transform="translate(-1893.995 -6336.101)" fill="#d3d3d3"/>
          <path id="Trazado_106534" data-name="Trazado 106534" d="M1891.008,6529.388c0-5.784,1.137-16.214,1.137-16.214l8.629-23.231c-5.816-18.932-1.517-45.8,3.287-52.878s3.287-20.229,3.287-20.229c.865-2.6-.1-7.216-1.371-11.374-4.537.141-18.315,1.57-25.432,13.4-8.6,14.287-12.9,64.73-12.9,64.73l-2.907,30.849s-11.505,35.652-11.505,38.939-3.307,45.163-3.307,45.163h20.69l16.4-45.92S1891.008,6535.171,1891.008,6529.388Z" transform="translate(-1849.931 -6359.059)" fill="#d3d3d3"/>
          <path id="Trazado_106535" data-name="Trazado 106535" d="M2145.044,6530.578l-3.508-14.6-1.423-9.387L2133,6451.307s-5.31-30.437-12.137-36.6-22.472-6.068-22.472-6.068l-.432-.155c-1.772,5.1-3.117,10.062-3.117,10.062s-1.517,13.148,3.288,20.229c4.306,6.345,8.206,28.587,4.781,46.764l.033,2.163,11.092,33.49s5.879,38.782,7.016,41.91,13.56,36.439,13.56,36.439h22.852Z" transform="translate(-1930.919 -6360.059)" fill="#d3d3d3"/>
        </g>
        <line id="Línea_389" data-name="Línea 389" y2="182.038" transform="translate(111.378 132.036)" fill="none" stroke="#a8a8a8" stroke-linecap="round" stroke-linejoin="round" stroke-width="2" stroke-dasharray="5"/>
        <path id="Trazado_106536" data-name="Trazado 106536" d="M1921.961,6497.3s101.269,5.689,124.784,0" transform="translate(-1873.772 -6312.521)" fill="none" stroke="#a8a8a8" stroke-linecap="round" stroke-linejoin="round" stroke-width="2" stroke-dasharray="5"/>
        <path id="Trazado_106537" data-name="Trazado 106537" d="M2041.933,6614.085s-69.409,4.552-100.13,0" transform="translate(-1880.339 -6351.176)" fill="none" stroke="#a8a8a8" stroke-linecap="round" stroke-linejoin="round" stroke-width="2" stroke-dasharray="5"/>
        <path id="Trazado_106538" data-name="Trazado 106538" d="M1980.543,6362.368" transform="translate(-1893.162 -6267.86)" fill="none" stroke="#e7e7e8" stroke-linecap="round" stroke-linejoin="round" stroke-width="2"/>
        <circle id="Elipse_4151" data-name="Elipse 4151" cx="1.568" cy="1.568" r="1.568" transform="translate(110.137 124.899)" fill="#e7e7e8"/>
        <path id="Trazado_106539" data-name="Trazado 106539" d="M1978.823,6308.518l.006.012c2.76-2,16.522-10.455,41.451-1.548,6.235-8.474,8.713-18.247,10.891-28.916,2.743-13.437,3.219-27.679-3.068-40.245a29.3,29.3,0,0,0-11.245-12.386c-4.807-2.777-10.414-3.839-15.957-4.217l-.442-.029c-13.919-.861-26.333,4.782-30.629,18.872-7.252,23.787,2.031,53.374,2.031,53.374Z" transform="translate(-1888.699 -6221.104)" fill="#e7e7e8"/>
        <path id="Trazado_106540" data-name="Trazado 106540" d="M2045.133,6402.694a190.68,190.68,0,0,1,5.5,52.175c-1.653,41.036-11.075,91.24-9.275,92.292,0,0-61.905,1.9-88.2,0s-14.641-83.94-14.641-83.94l-3.108-42.6-1.7-20.1,32.725-9.993s24.653,11.124,45.135.126Z" transform="translate(-1877.66 -6277.18)" fill="#baefe4"/>
      </g>
      <path id="Trazado_106541" data-name="Trazado 106541" d="M1649.238,6578.021h20.691l16.4-45.921s3.983-17.447,3.983-23.23,1.137-16.215,1.137-16.215l8.629-23.231s6.069,26.077,7.207,34.515,2.465,27.024,0,39.256-7.017,34.827-7.017,34.827h75.667l43.807-.407-6.732-39.825s-2.054-27.845-.916-31.354,8.85-41.215,8.85-41.215l11.41,34.452s5.879,38.782,7.017,41.911,13.56,36.438,13.56,36.438h22.851l-12.422-68.961-3.508-14.6-1.422-9.387-7.112-55.281s-5.31-30.437-12.137-36.6-22.472-6.069-22.472-6.069l-33.566-12.042-1.9-30.912-37.265,1.612-4.836-2.308s.759,29.205-1.138,31.48-31.227,9.988-31.227,9.988-18.333-.885-26.929,13.4-12.9,64.732-12.9,64.732l-2.907,30.848s-11.505,35.652-11.505,38.939-3.307,45.162-3.307,45.162" transform="translate(-443.687 -13202.399)" fill="#e7e7e8"/>
      <g id="Grupo_56002" data-name="Grupo 56002" transform="translate(1205.552 -6858.929)">
        <path id="Trazado_106542" data-name="Trazado 106542" d="M1781.929,6374.951s18.031,6.417,23.373,6.549c6.032.149,22.122-5.425,22.122-5.425l-2.256-31.909-37.265,1.612-4.836-2.308S1782.036,6366.643,1781.929,6374.951Z" transform="translate(-1693.157 -6343.47)" fill="#d3d3d3"/>
        <path id="Trazado_106543" data-name="Trazado 106543" d="M1690.316,6529.388c0-5.784,1.137-16.214,1.137-16.214l8.629-23.231c-5.816-18.932-1.517-45.8,3.288-52.878s3.287-20.229,3.287-20.229c.865-2.6-.105-7.216-1.371-11.374-4.537.141-18.315,1.57-25.432,13.4-8.6,14.287-12.9,64.73-12.9,64.73l-2.907,30.849s-11.505,35.652-11.505,38.939-3.307,45.163-3.307,45.163h20.691l16.4-45.92S1690.316,6535.171,1690.316,6529.388Z" transform="translate(-1649.238 -6363.988)" fill="#d3d3d3"/>
        <path id="Trazado_106544" data-name="Trazado 106544" d="M1944.351,6530.578l-3.508-14.6-1.422-9.387-7.112-55.281s-5.31-30.437-12.137-36.6-22.472-6.068-22.472-6.068l-.432-.155c-1.772,5.1-3.116,10.062-3.116,10.062s-1.517,13.148,3.287,20.229c4.306,6.345,8.206,28.587,4.781,46.764l.033,2.163,11.092,33.49s5.879,38.782,7.017,41.91,13.56,36.439,13.56,36.439h22.851Z" transform="translate(-1730.226 -6364.989)" fill="#d3d3d3"/>
      </g>
      <path id="Trazado_106545" data-name="Trazado 106545" d="M1800.208,6221.217l-.442-.029c-13.92-.861-26.334,4.782-30.629,18.872-7.252,23.787,2.03,53.374,2.03,53.374l6.962,15.084c3.955,8.57,16.664,14.031,25.4,11.373,4.614-1.4,8.478-4.578,11.874-8,9.44-9.52,12.462-21.029,15.073-33.822,2.743-13.437,3.219-27.679-3.068-40.245a29.3,29.3,0,0,0-11.245-12.386C1811.359,6222.659,1805.751,6221.6,1800.208,6221.217Z" transform="translate(-482.455 -13161.896)" fill="#e7e7e8"/>
      <line id="Línea_390" data-name="Línea 390" y2="90.939" transform="translate(1316.93 -6936.849)" fill="none" stroke="#a8a8a8" stroke-linecap="round" stroke-linejoin="round" stroke-width="2" stroke-dasharray="5"/>
      <path id="Trazado_107845" data-name="Trazado 107845" d="M0,0V179.362" transform="translate(1316.93 -6806.082)" fill="none" stroke="#a8a8a8" stroke-linecap="round" stroke-width="2" stroke-dasharray="5"/>
      <path id="Trazado_106546" data-name="Trazado 106546" d="M1721.268,6497.3s101.269,5.689,124.784,0" transform="translate(-467.527 -13253.314)" fill="none" stroke="#a8a8a8" stroke-linecap="round" stroke-linejoin="round" stroke-width="2" stroke-dasharray="5"/>
      <path id="Trazado_106547" data-name="Trazado 106547" d="M1841.24,6614.085s-69.409,4.552-100.13,0" transform="translate(-474.095 -13291.969)" fill="none" stroke="#a8a8a8" stroke-linecap="round" stroke-linejoin="round" stroke-width="2" stroke-dasharray="5"/>
      <path id="Trazado_106548" data-name="Trazado 106548" d="M1779.85,6362.368" transform="translate(-486.917 -13208.654)" fill="none" stroke="#e7e7e8" stroke-linecap="round" stroke-linejoin="round" stroke-width="2"/>
      <circle id="Elipse_4152" data-name="Elipse 4152" cx="1.568" cy="1.568" r="1.568" transform="translate(1315.689 -6815.894)" fill="#e7e7e8"/>
      <path id="Trazado_106549" data-name="Trazado 106549" d="M1768.178,6295.287s34.772,13.958,63.612,0" transform="translate(-483.054 -13186.451)" fill="none" stroke="#a8a8a8" stroke-linecap="round" stroke-linejoin="round" stroke-width="1.933" stroke-dasharray="4.832"/>
      <path id="Trazado_106550" data-name="Trazado 106550" d="M1977.2,6370.672l-6.754,15.77a92.21,92.21,0,0,0,30.752,7.5,53.187,53.187,0,0,0,29.089-7.512l-6.561-14.536-45.7-1.227" transform="translate(-550.003 -13211.403)" fill="#73d8c0"/>
      <path id="Trazado_106551" data-name="Trazado 106551" d="M1792.007,6477.442v69.829s-37.884,1.265-46.987,0a98.558,98.558,0,0,1-16.991-4.038s-13.176-73.872-12.214-78.891c1.78-9.284-3-41.6-3-61.142,0,0,34.709-9.1,35.827-9.286s5.111,9.745,5.111,9.745l14.4,37.411,6.638,16.943Z" transform="translate(-464.73 -13219.095)" fill="#baefe4"/>
      <path id="Trazado_106552" data-name="Trazado 106552" d="M1796.424,6477.442v69.829s37.884,1.265,46.987,0a98.58,98.58,0,0,0,16.991-4.038s13.176-73.872,12.214-78.891c-1.779-9.284,3-41.6,3-61.142,0,0-34.709-9.1-35.827-9.286s-5.112,9.745-5.112,9.745l-14.4,37.411-6.637,16.943Z" transform="translate(-492.403 -13219.095)" fill="#baefe4"/>
      <path id="Trazado_106553" data-name="Trazado 106553" d="M1851.656,6386.024a99.666,99.666,0,0,0-14.681-15.352s-1.722,45.083-24.506,83.833l4.769,4.921a162.373,162.373,0,0,0,36.925-39.73l-7.747-6.173,11.136-1.695S1857.951,6394.5,1851.656,6386.024Z" transform="translate(-497.714 -13211.403)" fill="#73d8c0"/>
      <path id="Trazado_106554" data-name="Trazado 106554" d="M1771.567,6370.2s.591,57.447,32.547,98.361c0,0-27.6-13.315-51.324-49.024l7.747-6.173-11.136-1.7s-.4-17.328,5.9-25.8S1771.567,6370.2,1771.567,6370.2Z" transform="translate(-476.838 -13211.248)" fill="#73d8c0"/>
      <line id="Línea_392" data-name="Línea 392" x1="12.684" y2="7.688" transform="translate(1284.547 -6806.082)" fill="none" stroke="#baefe4" stroke-linecap="round" stroke-linejoin="round" stroke-width="2"/>
      <line id="Línea_393" data-name="Línea 393" x2="10.961" y2="6.851" transform="translate(1335.545 -6806.082)" fill="none" stroke="#baefe4" stroke-linecap="round" stroke-linejoin="round" stroke-width="2"/>
      <line id="Línea_394" data-name="Línea 394" x2="0.613" y2="67.617" transform="translate(1327.277 -6741.653)" fill="none" stroke="#73d8c0" stroke-linecap="round" stroke-linejoin="round" stroke-width="2"/>
      <line id="Línea_395" data-name="Línea 395" y2="48.089" transform="translate(1278.899 -6720.917)" fill="none" stroke="#73d8c0" stroke-linecap="round" stroke-linejoin="round" stroke-width="2" opacity="0.48"/>
      <line id="Línea_396" data-name="Línea 396" y2="48.089" transform="translate(1357.537 -6720.917)" fill="none" stroke="#73d8c0" stroke-linecap="round" stroke-linejoin="round" stroke-width="2" opacity="0.48"/>
      <path id="Trazado_772794" data-name="Trazado 772794" d="M3.187,0A3.187,3.187,0,1,1,0,3.187,3.187,3.187,0,0,1,3.187,0Z" transform="translate(1315.638 -6743.408)" fill="#f5947a"/>
    </g>
  </g>
</svg>
