<svg xmlns="http://www.w3.org/2000/svg" width="170.409" height="108.649" viewBox="0 0 170.409 108.649">
  <g id="Grupo_55940" data-name="Grupo 55940" transform="translate(2.5)">
    <line id="Línea_336" data-name="Línea 336" y2="67.359" fill="none" stroke="#f5947a" stroke-miterlimit="10" stroke-width="5"/>
    <line id="Línea_337" data-name="Línea 337" y2="67.359" transform="translate(148.273)" fill="none" stroke="#f5947a" stroke-miterlimit="10" stroke-width="5"/>
    <line id="Línea_338" data-name="Línea 338" x2="148.273" transform="translate(0 33.68)" fill="none" stroke="#f5947a" stroke-miterlimit="10" stroke-width="5"/>
    <path id="Trazado_106345" data-name="Trazado 106345" d="M-2164.828,3956.913s10.154,34.019,32.494,31.734,33.511-31.734,33.511-31.734" transform="translate(2168.975 -3916.633)" fill="none" stroke="#28c6ba" stroke-miterlimit="10" stroke-width="5" stroke-dasharray="4"/>
    <path id="Trazado_106346" data-name="Trazado 106346" d="M-2084.363,3956.913s10.155,34.019,32.5,31.734,33.51-31.734,33.51-31.734" transform="translate(2160.573 -3916.633)" fill="none" stroke="#28c6ba" stroke-miterlimit="10" stroke-width="5" stroke-dasharray="4"/>
    <circle id="Elipse_4133" data-name="Elipse 4133" cx="13.646" cy="13.646" r="13.646" transform="translate(95.566 80.358)" fill="none" stroke="#8c757e" stroke-miterlimit="10" stroke-width="2"/>
    <circle id="Elipse_4134" data-name="Elipse 4134" cx="8.89" cy="8.89" r="8.89" transform="translate(100.322 85.113)" fill="none" stroke="#8c757e" stroke-miterlimit="10" stroke-width="2"/>
    <path id="Trazado_772816" data-name="Trazado 772816" d="M-13.963-4.775h2.115v1.529h-2.115V-.855h-1.611V-3.246H-17.7V-4.775h2.121V-7.066h1.611ZM-3.8,0H-5.49V-6.527L-7.512-5.9V-7.277l3.533-1.266H-3.8ZM4.67-1.248a1.111,1.111,0,0,0,.762-.258.9.9,0,0,0,.3-.686H7.324a2.172,2.172,0,0,1-.352,1.181,2.32,2.32,0,0,1-.946.832A2.962,2.962,0,0,1,4.7.117,2.752,2.752,0,0,1,2.555-.747,3.42,3.42,0,0,1,1.77-3.135v-.111a3.381,3.381,0,0,1,.779-2.338,2.72,2.72,0,0,1,2.139-.873,2.667,2.667,0,0,1,1.907.677,2.4,2.4,0,0,1,.729,1.8H5.736a1.154,1.154,0,0,0-.3-.8,1.019,1.019,0,0,0-.773-.308,1.02,1.02,0,0,0-.894.431,2.493,2.493,0,0,0-.3,1.4v.176a2.524,2.524,0,0,0,.3,1.406A1.033,1.033,0,0,0,4.67-1.248ZM9.879-6.34l.053.709a2.228,2.228,0,0,1,1.822-.826,1.691,1.691,0,0,1,1.682.967,2.177,2.177,0,0,1,1.9-.967,1.891,1.891,0,0,1,1.535.6,2.761,2.761,0,0,1,.5,1.808V0h-1.7V-4.043a1.207,1.207,0,0,0-.211-.788.935.935,0,0,0-.744-.249,1.057,1.057,0,0,0-1.055.727L13.676,0H11.982V-4.037a1.193,1.193,0,0,0-.217-.8.944.944,0,0,0-.738-.246,1.1,1.1,0,0,0-1.043.6V0H8.291V-6.34Z" transform="translate(150.53 97.917)"/>
  </g>
</svg>
