<svg xmlns="http://www.w3.org/2000/svg" width="449" height="226" viewBox="0 0 449 226">
  <g id="Grupo_1054503" data-name="Grupo 1054503" transform="translate(3692.901 -2190.121)">
    <g id="Rectángulo_5555" data-name="Rectángulo 5555">
      <rect id="Rectángulo_5603" data-name="Rectángulo 5603" width="449" height="226" transform="translate(-3692.902 2190.121)" fill="#fff"/>
    </g>
    <g id="Grupo_55912" data-name="Grupo 55912">
      <path id="Trazado_106322" data-name="Trazado 106322" d="M-3352.7,2371.439s.378-39.307,40.441-38.929l-19.654-66.141s-85.039,38.551-99.4-29.481l-24.755-4.724,11.338,54.142-22.11-51.308-71.433,13.04-65.764-14.551s-7.937,34.393-12.85,43.086-9.071,83.528-7.181,94.866" fill="none" stroke="#12263f" stroke-linecap="round" stroke-linejoin="round" stroke-width="2.235"/>
      <g id="Grupo_55911" data-name="Grupo 55911">
        <rect id="Rectángulo_5604" data-name="Rectángulo 5604" width="3.064" height="8.374" transform="translate(-3517.421 2371.014) rotate(90)" fill="#db0080"/>
        <rect id="Rectángulo_5605" data-name="Rectángulo 5605" width="3.064" height="27.002" transform="translate(-3532.658 2371.014) rotate(90)" fill="#db0080"/>
        <rect id="Rectángulo_5606" data-name="Rectángulo 5606" width="3.064" height="27.002" transform="translate(-3566.44 2371.014) rotate(90)" fill="#db0080"/>
        <rect id="Rectángulo_5607" data-name="Rectángulo 5607" width="3.064" height="24.444" transform="translate(-3599.413 2371.014) rotate(90)" fill="#db0080"/>
        <rect id="Rectángulo_5608" data-name="Rectángulo 5608" width="3.064" height="4.003" transform="translate(-3527.552 2371.014) rotate(90)" fill="#db0080"/>
        <rect id="Rectángulo_5609" data-name="Rectángulo 5609" width="3.064" height="4.003" transform="translate(-3561.538 2371.014) rotate(90)" fill="#db0080"/>
        <rect id="Rectángulo_5610" data-name="Rectángulo 5610" width="3.064" height="4.003" transform="translate(-3594.426 2371.014) rotate(90)" fill="#db0080"/>
        <rect id="Rectángulo_5611" data-name="Rectángulo 5611" width="3.064" height="8.374" transform="translate(-3419.359 2371.014) rotate(90)" fill="#db0080"/>
        <rect id="Rectángulo_5612" data-name="Rectángulo 5612" width="3.064" height="27.002" transform="translate(-3434.596 2371.014) rotate(90)" fill="#db0080"/>
        <rect id="Rectángulo_5613" data-name="Rectángulo 5613" width="3.064" height="27.002" transform="translate(-3468.379 2371.014) rotate(90)" fill="#db0080"/>
        <rect id="Rectángulo_5614" data-name="Rectángulo 5614" width="3.064" height="24.444" transform="translate(-3501.351 2371.014) rotate(90)" fill="#db0080"/>
        <rect id="Rectángulo_5615" data-name="Rectángulo 5615" width="3.064" height="4.003" transform="translate(-3429.49 2371.014) rotate(90)" fill="#db0080"/>
        <rect id="Rectángulo_5616" data-name="Rectángulo 5616" width="3.064" height="4.003" transform="translate(-3463.477 2371.014) rotate(90)" fill="#db0080"/>
        <rect id="Rectángulo_5617" data-name="Rectángulo 5617" width="3.064" height="4.003" transform="translate(-3496.364 2371.014) rotate(90)" fill="#db0080"/>
        <rect id="Rectángulo_5618" data-name="Rectángulo 5618" width="3.064" height="11.399" transform="translate(-3352.137 2371.014) rotate(90)" fill="#db0080"/>
        <rect id="Rectángulo_5619" data-name="Rectángulo 5619" width="3.064" height="27.002" transform="translate(-3370.317 2371.014) rotate(90)" fill="#db0080"/>
        <rect id="Rectángulo_5620" data-name="Rectángulo 5620" width="3.064" height="24.444" transform="translate(-3403.29 2371.014) rotate(90)" fill="#db0080"/>
        <rect id="Rectángulo_5621" data-name="Rectángulo 5621" width="3.064" height="4.003" transform="translate(-3365.415 2371.014) rotate(90)" fill="#db0080"/>
        <rect id="Rectángulo_5622" data-name="Rectángulo 5622" width="3.064" height="4.003" transform="translate(-3398.302 2371.014) rotate(90)" fill="#db0080"/>
      </g>
      <line id="Línea_288" data-name="Línea 288" x1="272.335" transform="translate(-3624.473 2365.988)" fill="none" stroke="#8c757e" stroke-linecap="round" stroke-linejoin="round" stroke-width="2.235"/>
      <path id="Trazado_106323" data-name="Trazado 106323" d="M-3352.137,2358.306c-.189-.284-269.2,0-269.2,0" fill="none" stroke="#f5947a" stroke-linecap="round" stroke-linejoin="round" stroke-width="1.932" stroke-dasharray="3"/>
      <line id="Línea_289" data-name="Línea 289" x1="258.024" transform="translate(-3599.2 2329.864)" fill="none" stroke="#424242" stroke-linecap="round" stroke-linejoin="round" stroke-width="1.256"/>
      <text id="Hilo" transform="translate(-3486.736 2320.708)" font-size="12" font-family="Roboto-Regular, Roboto"><tspan x="0" y="0">Hilo</tspan></text>
    </g>
  </g>
</svg>
