<svg xmlns="http://www.w3.org/2000/svg" xmlns:xlink="http://www.w3.org/1999/xlink" width="173.876" height="223.51" viewBox="0 0 173.876 223.51">
  <defs>
    <linearGradient id="linear-gradient" y1="0.5" x2="1" y2="0.5" gradientUnits="objectBoundingBox">
      <stop offset="0" stop-color="#f08e73"/>
      <stop offset="1" stop-color="#f9b99d"/>
    </linearGradient>
    <linearGradient id="linear-gradient-3" y1="0.5" x2="1" y2="0.5" gradientUnits="objectBoundingBox">
      <stop offset="0" stop-color="#5f3759"/>
      <stop offset="1" stop-color="#3c3257"/>
    </linearGradient>
    <linearGradient id="linear-gradient-5" y1="0.5" x2="1" y2="0.5" gradientUnits="objectBoundingBox">
      <stop offset="0" stop-color="#fac383"/>
      <stop offset="1" stop-color="#f19b6c"/>
    </linearGradient>
  </defs>
  <g id="Grupo_1054772" data-name="Grupo 1054772" transform="translate(-195.025 -5148.292)">
    <g id="Grupo_1054627" data-name="Grupo 1054627" transform="translate(-2106.681 5779.413)">
      <g id="Grupo_56284" data-name="Grupo 56284" transform="translate(2371.681 -599.814)">
        <g id="Grupo_56283" data-name="Grupo 56283" transform="translate(0 0)">
          <g id="Grupo_56282" data-name="Grupo 56282">
            <g id="Grupo_56279" data-name="Grupo 56279">
              <path id="Trazado_107705" data-name="Trazado 107705" d="M2544.307-435.948l-.437,3.689.437,2.91h2.474s1.6-2.474,1.6-2.619.291-2.862.291-3.056a13.745,13.745,0,0,0-1.067-1.746Z" transform="translate(-2540.019 542.168)" fill="#feb396"/>
              <path id="Trazado_107706" data-name="Trazado 107706" d="M2540.861-484.026l-.572,3,2.437,29.9,4.846-.335,2.032-32.56Z" transform="translate(-2538.829 557.864)" fill="#271f37"/>
              <path id="Trazado_107707" data-name="Trazado 107707" d="M2540.42-537.568l.484,35.758h8.743l2.112-34.793Z" transform="translate(-2538.873 575.647)" fill="#271f37"/>
              <path id="Trazado_107708" data-name="Trazado 107708" d="M2612.173-317.263l-3.952.232-.636.038-.059-.2-1.259-4.218-.1-.322,4.507-1.067.358,1.328.393,1.456Z" transform="translate(-2560.712 504.313)" fill="#f28a81"/>
              <path id="Trazado_107709" data-name="Trazado 107709" d="M2560.938-410.639q-.062,1.971-.175,3.957c-.571,10.3-1.964,20.969-1.456,31.859h-7.372l-5.974-47.592-.724-1.961a4.013,4.013,0,0,1-.156-2.228l.285-1.326c0-.012,0-.026,0-.037-.818-15.674-.458-22.757-.386-35.413.008-1.163.012-2.372.012-3.639s.026-2.41.067-3.456c.044-1.144.108-2.161.183-3.059.052-.619.111-1.181.168-1.688a20.583,20.583,0,0,1,.623-3.46c.1-.3.736-.374,1.487-.35h0a20.9,20.9,0,0,1,2.78.35l5.123-.751.09.25,4.167,11.772s.6,5.686.993,14.039q.044.935.083,1.913c.137,3.395.233,7.159.239,11.113,0,3.013-.047,6.137-.168,9.293q-.044,1.15-.1,2.3v0c-.079,1.575-.178,3.154-.3,4.727v.014A84.036,84.036,0,0,1,2560.938-410.639Z" transform="translate(-2540.34 556.338)" fill="#51242c"/>
              <path id="Trazado_107710" data-name="Trazado 107710" d="M2596.207-373.455l-1.328-.019-4.781-.072-.844-.011s-12.623-34.968-20.092-64.732c-.559-1.595-1.075-3.123-1.557-4.6-1.119-3.419-2.053-6.54-2.892-9.508v0c-.182-.644-.359-1.281-.534-1.911-1.527-5.542-2.776-10.634-4.362-16.265h-1.264l-1.543-7.727-.262-1.318,6-1.1,6.184-1.137,2.1-.386s5.4,5.384,6.264,7.4a62.914,62.914,0,0,1,2.355,6.437c2.813,9.16,3.355,17.952,5.695,29.74C2588.369-423.412,2590.692-409.248,2596.207-373.455Z" transform="translate(-2544.296 557.271)" fill="#5d343a"/>
              <path id="Trazado_107711" data-name="Trazado 107711" d="M2559.9-557.1l1.651-.3s.1.822.1.958a2.487,2.487,0,0,1-.128.642c-.086.247-.08.383-.367.442a1.46,1.46,0,0,1-.6-.031.761.761,0,0,1-.114-.348A11.355,11.355,0,0,0,2559.9-557.1Z" transform="translate(-2545.344 582.236)" fill="#b9c5ef"/>
              <path id="Trazado_107712" data-name="Trazado 107712" d="M2543.987-541.438c.474-1.9-.13-4.77.783-5.344,3.271-2.062,4.334-4.26,6.236-5.37.8-.464,1.482-.855,2.067-1.183q.367-.206.681-.379c.49-.269.887-.482,1.2-.646.207-.109.378-.2.514-.266s.223-.112.292-.144a25.661,25.661,0,0,0-.272,3.3,10.852,10.852,0,0,1,1.237-3.321l7.722.409.85.672,10.771,8.744-6.112,23.923,2.279,14.016.624,3.838-27.584-1.461-.57-17.648Z" transform="translate(-2540.057 581.367)" fill="#ebfffe"/>
              <path id="Trazado_107713" data-name="Trazado 107713" d="M2570.163-558.66l-7.721-.409a10.868,10.868,0,0,0-1.236,3.322,25.635,25.635,0,0,1,.271-3.3l.24-2.207c3.475-.01,6.417-3.786,7.111-4.914a1.416,1.416,0,0,0,.212-.679l.044-.822.216.061.5,5.162v0l.234,2.419.014.155Z" transform="translate(-2545.777 585.646)" fill="url(#linear-gradient)"/>
              <path id="Trazado_107714" data-name="Trazado 107714" d="M2571.435-586.175c-.278,2.03-2.393,5.11-2.393,5.11l-.48.921a10.006,10.006,0,0,1-2.18,1.207,10.29,10.29,0,0,1-.874-1.522s-2.028-1.252-.227-3.782l-4.386-.55c-.295-.034-.611-.326-.483-.573.461-.884-.151-1.011-.416-.94-4,1.092-5.21-.775-5.311-.948a.039.039,0,0,1-.007-.01v0a34.88,34.88,0,0,0-.819,4.658,13.139,13.139,0,0,1-.936-4.9c.188-3.55,3.176-3.307,3.176-3.307s.553-2.764,2.787-3.43c6.5-1.939,8.657,5.015,8.657,5.015S2571.88-589.428,2571.435-586.175Z" transform="translate(-2543.022 594.585)" fill="#773634"/>
              <path id="Trazado_107715" data-name="Trazado 107715" d="M2567.57-574.327c-.019.061-.039.122-.062.183a1.65,1.65,0,0,1-.793.106l-.1,1.891a1.419,1.419,0,0,1-.211.68,13.823,13.823,0,0,1-2.8,3.118,7.107,7.107,0,0,1-4.311,1.8c-.086,0-.174,0-.266-.009-2.262-.119-4.825-2.814-5.1-8.044a20.919,20.919,0,0,1,.259-4.358c.122-1.143.294-2.171.447-2.965.022-.125.047-.244.069-.355.169-.836.3-1.338.3-1.338l0,0a.083.083,0,0,0,.005.011c.1.172,1.313,2.04,5.311.949.266-.072.877.053.416.938-.128.247.189.538.483.572l4.386.553c-1.8,2.529.228,3.78.228,3.78s.069.156.192.389a10.194,10.194,0,0,0,.683,1.133A5.017,5.017,0,0,0,2567.57-574.327Z" transform="translate(-2543.351 590.944)" fill="url(#linear-gradient)"/>
              <path id="Trazado_107716" data-name="Trazado 107716" d="M2574.9-572.29a3.374,3.374,0,0,1-1.771,1.86,1.543,1.543,0,0,1-.239.069,1.411,1.411,0,0,1-.336.047,1.827,1.827,0,0,1-.219-.011.219.219,0,0,1-.039-.008,1.368,1.368,0,0,1-.324-.091,1.5,1.5,0,0,1-.733-.725,2.488,2.488,0,0,1-.242-.952,3.621,3.621,0,0,1,.042-.766c.014-.081.031-.164.05-.247a4.029,4.029,0,0,1,.177-.58c.006-.017.014-.03.02-.047s.026-.061.039-.092c.059-.133.122-.263.192-.389.033-.061.069-.122.108-.18.059-.1.122-.188.189-.277a3.507,3.507,0,0,1,.308-.359,1.982,1.982,0,0,1,2.13-.661,1.531,1.531,0,0,1,.8.872A3.4,3.4,0,0,1,2574.9-572.29Z" transform="translate(-2549.025 588.349)" fill="#feb396"/>
              <path id="Trazado_107717" data-name="Trazado 107717" d="M2574.839-573.746a1.144,1.144,0,0,0-.81-.423,2.462,2.462,0,0,0-1.419.482,3.924,3.924,0,0,1,1.481-1.249.087.087,0,0,0,.043-.114.086.086,0,0,0-.114-.043,3.633,3.633,0,0,0-1.843,1.9,2.582,2.582,0,0,0,.324,2.139.086.086,0,0,0,.07.043.088.088,0,0,0,.048-.011.087.087,0,0,0,.031-.118,2.416,2.416,0,0,1-.31-2c.021-.066.047-.13.073-.191a2.728,2.728,0,0,1,1.575-.67l.026,0a.974.974,0,0,1,.692.363.085.085,0,0,0,.121.01A.086.086,0,0,0,2574.839-573.746Z" transform="translate(-2549.385 588.114)" fill="#f28a81"/>
              <path id="Trazado_107718" data-name="Trazado 107718" d="M2571.014-554.717l-.027.524-4,1.174-2.266.212-1.1.1-1.713.16-.708.067a8.623,8.623,0,0,1,.77-2.334c.013-.031.026-.061.042-.092.122-.274.262-.573.425-.9.129-.254.269-.524.425-.809,2.768-.043,5.654.04,7.143-.381.621-.175,1.052-.417,1.15-.741a.446.446,0,0,0,.019-.1Z" transform="translate(-2545.777 582.377)" fill="#b9c5ef"/>
              <path id="Trazado_107719" data-name="Trazado 107719" d="M2563.451-531.49c.03,2.541.15,5.088.333,7.589q.059.852.129,1.69c.094,1.163.207,2.311.326,3.444,0,.01,0,.017.007.026.017.163.032.336.052.5v.007c0,.033.007.07.01.107.511,4.666,1.046,8.927,1.521,12.454.037.262.07.521.107.777.046.329.086.648.133.96,0,.009,0,.016,0,.026.007.06.017.12.023.18.066.478.136.97.2,1.465.4,2.85.844,5.822,1.123,7.692.176,1.179.292,1.923.292,1.923.159-.02.319-.036.475-.056.272-.03.535-.057.791-.08l.13-.01c6.592-.594,8.415.954,12.989,1.006.421.007.874,0,1.352-.027-.515-2.59-.99-4.739-1.425-6.592-1.358-5.759-2.341-8.628-3.068-12.836-.206-1.185-.389-2.484-.555-3.982-.073-.654-.143-1.345-.209-2.086,0-.04,0-.06,0-.06l1.278-8,.206-1.3.3-1.879v0l1.1-6.845s-.505-13.427-.505-13.427a37.94,37.94,0,0,1-6.911-4.119l-1.857-1.614-.335-.292a11.786,11.786,0,0,0-2.437,2.458C2566.616-549.3,2563.311-542.945,2563.451-531.49Z" transform="translate(-2546.521 581.389)" fill="url(#linear-gradient-3)"/>
              <path id="Trazado_107720" data-name="Trazado 107720" d="M2575.454-558.543l-.021.142c-.1.324-.529.566-1.15.741l-.211-2.189h0S2575.454-559.587,2575.454-558.543Z" transform="translate(-2550.05 583.048)" fill="#b9c5ef"/>
              <path id="Trazado_107721" data-name="Trazado 107721" d="M2561.044-555.49a25.55,25.55,0,0,0-.271,3.3l-.36-.266a10.4,10.4,0,0,0-.083-1.827c-.024-.274-.056-.544-.09-.8-.142-1.044-.337-1.872-.337-1.872a6.863,6.863,0,0,0,1.321.419C2561.154-556.178,2561.094-555.828,2561.044-555.49Z" transform="translate(-2545.344 582.085)" fill="#b9c5ef"/>
              <path id="Trazado_107722" data-name="Trazado 107722" d="M2560.67-556.532l-.47,1.187-.171.429-.252.637-.037.094h0l-.109.274h0l-.213.536-.065.164-.865-1.226-.25-.354.733-1.427.379-.737A6.863,6.863,0,0,0,2560.67-556.532Z" transform="translate(-2544.791 582.085)" fill="#ebfffe"/>
              <path id="Trazado_107723" data-name="Trazado 107723" d="M2571.878-555.5l-.337-.292a11.718,11.718,0,0,0-2.435,2.458l-1.291.365-3.245.917-.117-.6-.433-2.216-.329-1.687a41,41,0,0,0,7-.344c.049-.011.1-.024.145-.037.62-.175,1.051-.417,1.149-.741Z" transform="translate(-2546.603 582.328)" fill="#ebfffe"/>
              <g id="Grupo_56270" data-name="Grupo 56270" transform="translate(17.776 63.153)">
                <path id="Trazado_107724" data-name="Trazado 107724" d="M2564.72-500.025c0,.036.008.072.012.107h0C2564.727-499.953,2564.724-499.989,2564.72-500.025Z" transform="translate(-2564.72 500.025)" fill="#fff"/>
              </g>
              <path id="Trazado_107725" data-name="Trazado 107725" d="M2558.241-503.944c-2.567-15.4,1.548-45.592,1.59-45.895l.22.03c-.042.3-4.153,30.458-1.591,45.828Z" transform="translate(-2544.512 579.723)" fill="#b9c5ef" opacity="0.5"/>
              <path id="Trazado_107726" data-name="Trazado 107726" d="M2569.214-548.262l2.512,2.285s-6.432,10.6-7.459,21.422q-.092.941-.122,1.876a25.628,25.628,0,0,0,.092,3.3c-.12-1.129-.228-2.279-.325-3.439-.031-.367-.062-.733-.089-1.1q-.021-.3-.042-.592c-.183-2.5-.3-5.049-.333-7.586-.138-11.459,3.168-17.813,5.577-20.908l2.856-3.679s2.223,2.121,2.307,3.673Z" transform="translate(-2546.521 581.995)" fill="#271f37" opacity="0.75"/>
              <path id="Trazado_107727" data-name="Trazado 107727" d="M2558.022-554.42l.25.354c-.21.116-.436.241-.681.379.072-.286.112-.433.112-.433a6.575,6.575,0,0,1,1.052-1.726Z" transform="translate(-2544.576 581.719)" fill="#0e0e56"/>
              <path id="Trazado_107728" data-name="Trazado 107728" d="M2562.313-552.008l-.341.561-.052.088-.283.467-1.27-.463-.026-.945-.019-.685h0V-553a.347.347,0,0,1,.109-.264h0l.613-.586.261-.248a.277.277,0,0,1,.427.053l.224.357.349.556A1.068,1.068,0,0,1,2562.313-552.008Z" transform="translate(-2545.483 581.163)" fill="#e04c3d"/>
              <path id="Trazado_107729" data-name="Trazado 107729" d="M2563.109-551.776a1.067,1.067,0,0,0-.009-1.122l-.348-.556.4,0c.16,0,.343-.009.544-.019l.432,2.217-1.413.132.052-.088Z" transform="translate(-2546.279 580.931)" fill="#932519"/>
              <path id="Trazado_107730" data-name="Trazado 107730" d="M2561.1-553.758l-.613.586.037-.095.252-.637A2.717,2.717,0,0,0,2561.1-553.758Z" transform="translate(-2545.538 581.073)" fill="#932519"/>
              <path id="Trazado_107731" data-name="Trazado 107731" d="M2560.236-551.71a1.537,1.537,0,0,1-.232-.149l.213-.536Z" transform="translate(-2545.377 580.572)" fill="#932519"/>
              <path id="Trazado_107732" data-name="Trazado 107732" d="M2558.733-513.741l-.952,1.758-1.283-1.258c-3.926-14.915,2.161-36.713,2.161-36.713l1.27.464q-.043.25-.086.5c-2.634,15.39-2.6,24.749-2.1,29.919A21.565,21.565,0,0,0,2558.733-513.741Z" transform="translate(-2543.775 579.761)" fill="#e04c3d"/>
              <path id="Trazado_107733" data-name="Trazado 107733" d="M2559.886-518.552l-.491.492-.462-.443-.044-.094c-.5-5.169-.534-14.529,2.1-29.919C2559.565-539.815,2558.888-522.115,2559.886-518.552Z" transform="translate(-2544.919 579.283)" fill="#932519"/>
              <path id="Trazado_107734" data-name="Trazado 107734" d="M2548.838-479.529h12.4l-.03-.206-.2-1.428-12.106-.824-.056,2.106Z" transform="translate(-2541.669 557.187)" fill="#250f19"/>
              <path id="Trazado_107735" data-name="Trazado 107735" d="M2568.426-498.348l-1.651.12a.205.205,0,0,1-.22-.19h0a.206.206,0,0,1,.19-.22l1.651-.121a.206.206,0,0,1,.22.19h0A.206.206,0,0,1,2568.426-498.348Z" transform="translate(-2547.553 562.757)" fill="#271f37" opacity="0.75"/>
              <path id="Trazado_107736" data-name="Trazado 107736" d="M2569.485-486.986l-1.642.208a.206.206,0,0,1-.23-.178h0a.205.205,0,0,1,.178-.23l1.642-.208a.2.2,0,0,1,.229.178h0A.2.2,0,0,1,2569.485-486.986Z" transform="translate(-2547.905 558.983)" fill="#271f37" opacity="0.75"/>
              <path id="Trazado_107737" data-name="Trazado 107737" d="M2571.815-473.561l-1.642.208a.206.206,0,0,1-.23-.178h0a.206.206,0,0,1,.178-.23l1.642-.208a.2.2,0,0,1,.23.178h0A.2.2,0,0,1,2571.815-473.561Z" transform="translate(-2548.678 554.524)" fill="#271f37" opacity="0.75"/>
              <path id="Trazado_107738" data-name="Trazado 107738" d="M2561.929-322.8v3.079a3.492,3.492,0,0,0-1.835.464,4.41,4.41,0,0,1-2.14.43h-.466l-.271-3.974Z" transform="translate(-2544.452 504.313)" fill="#f28a81"/>
              <path id="Trazado_107739" data-name="Trazado 107739" d="M2557.22-308.154l-.033.185-.127.722H2552.7l-.189-.215-.211-.238-14.125.426-.069-.813a.06.06,0,0,1,.06-.066Z" transform="translate(-2538.104 499.449)" fill="#c08a9b"/>
              <path id="Trazado_107740" data-name="Trazado 107740" d="M2557.125-312.022c-.007.149-.017.3-.03.447h-18.888a2.2,2.2,0,0,1,1.667-1.8c.648-.154,1.328-.345,2.02-.558,1.578-.488,3.218-1.093,4.662-1.665a25.509,25.509,0,0,0,3.9-1.873h1.014a4.819,4.819,0,0,0,2.342-.471,4.717,4.717,0,0,1,2.3-.508l.3,1.917A12.225,12.225,0,0,1,2557.125-312.022Z" transform="translate(-2538.138 502.87)" fill="#6d2847"/>
              <path id="Trazado_107741" data-name="Trazado 107741" d="M2547.652-314.787a15.148,15.148,0,0,0,5.881-3.555l.037.016a1.137,1.137,0,0,1,.11,2.01,11.443,11.443,0,0,1-5.715,1.66A.343.343,0,0,1,2547.652-314.787Z" transform="translate(-2541.275 502.833)" fill="#963c58"/>
              <path id="Trazado_107742" data-name="Trazado 107742" d="M2557.125-309.775c-.007.149-.017.3-.03.447h-18.888a2.2,2.2,0,0,1,1.667-1.8c.648-.154,1.328-.345,2.02-.558a8.117,8.117,0,0,0,5.5,1.855C2550.863-309.821,2555.711-309.785,2557.125-309.775Z" transform="translate(-2538.138 500.624)" fill="#963c58"/>
              <g id="Grupo_56271" data-name="Grupo 56271" transform="translate(46.022 185.902)">
                <path id="Trazado_107743" data-name="Trazado 107743" d="M2618.587-310.157h-11.573l.077-1.089.185-.091-.182-3.919a.538.538,0,0,1,.456-.558l.021.019a2.845,2.845,0,0,0,.8.465,2.824,2.824,0,0,0,1.026.194,3.464,3.464,0,0,0,2.183-.862,1.043,1.043,0,0,1,1.384.067C2614.652-314.279,2618.587-310.157,2618.587-310.157Z" transform="translate(-2607.014 316.23)" fill="#6d2847"/>
                <path id="Trazado_107744" data-name="Trazado 107744" d="M2619.2-310.269h-11.379a4.829,4.829,0,0,1,.211-.525,7.058,7.058,0,0,1,2.163-2.731,5.4,5.4,0,0,1,1.986-.912,5.335,5.335,0,0,1,.751-.125c.069-.007.137-.014.208-.017.134-.009.271-.014.41-.014C2616.56-314.593,2619.2-310.269,2619.2-310.269Z" transform="translate(-2607.281 315.686)" fill="#963c58"/>
                <rect id="Rectángulo_5770" data-name="Rectángulo 5770" width="11.379" height="0.778" transform="translate(0.536 5.417)" fill="#c08a9b"/>
              </g>
              <path id="Trazado_107745" data-name="Trazado 107745" d="M2613.288-315.693a5.472,5.472,0,0,0-2.738,1.037,4.981,4.981,0,0,1-1.535-2.189,3.759,3.759,0,0,1-.117-.468,2.929,2.929,0,0,1,.471-.276,4.308,4.308,0,0,1,2.861-.292A15.788,15.788,0,0,0,2613.288-315.693Z" transform="translate(-2561.618 502.72)" fill="#963c58"/>
              <path id="Trazado_107746" data-name="Trazado 107746" d="M2607.761-308.9a5.056,5.056,0,0,0-.211.524v.655h-.536l.077-1.089.185-.09Z" transform="translate(-2560.991 499.698)" fill="#963c58"/>
              <path id="Trazado_107747" data-name="Trazado 107747" d="M2551.11-314.1a.166.166,0,0,1-.054-.009l-1.622-.536a.171.171,0,0,1-.109-.217.171.171,0,0,1,.217-.109l1.345.445-.18-.955a.171.171,0,0,1,.05-.155.17.17,0,0,1,.157-.044l1.874.417-.5-1.2a.171.171,0,0,1,.093-.224.171.171,0,0,1,.224.092l.628,1.507a.173.173,0,0,1-.027.176.171.171,0,0,1-.169.057l-1.943-.433.186.986a.169.169,0,0,1-.056.16A.168.168,0,0,1,2551.11-314.1Z" transform="translate(-2541.828 502.287)" fill="#fff"/>
              <path id="Trazado_107748" data-name="Trazado 107748" d="M2566.2-576.817a4.2,4.2,0,0,0-.192.389c-.02.047-.04.092-.057.14a2.4,2.4,0,0,1-.737-3.984c-5.609.252-4.7-.526-4.848-1.377-3.253.938-4.8.16-5.368-.28.022-.124.045-.243.069-.355.169-.835.3-1.338.3-1.338v0a.038.038,0,0,0,.007.01c.1.172,1.311,2.04,5.311.948.264-.071.876.055.416.94-.128.247.188.539.483.573l4.386.55C2564.173-578.069,2566.2-576.817,2566.2-576.817Z" transform="translate(-2543.715 590.944)" fill="#f28a81"/>
              <path id="Trazado_107749" data-name="Trazado 107749" d="M2570.265-560.234l-.145.037-.732-5.269a9.184,9.184,0,0,1-3.515,3.419c-2.414,1.308-3.9.814-3.9.814,3.474-.01,6.417-3.786,7.111-4.914a1.419,1.419,0,0,0,.212-.679l.041-.772a1.6,1.6,0,0,0,.22.011l.5,5.162v0Z" transform="translate(-2546.031 585.621)" fill="#db6951" opacity="0.5"/>
              <path id="Trazado_107750" data-name="Trazado 107750" d="M2560.493-423.806v-.014c.12-1.573.22-3.152.3-4.727v0q.059-1.153.1-2.3c.121-3.156.171-6.279.168-9.293-.005-3.954-.1-7.718-.238-11.113v0c-.156-.552-.308-1.1-.458-1.64-1.507-5.454-2.738-10.459-4.273-15.95a.8.8,0,0,0-.771-.586h0a.8.8,0,0,1-.785-.644l-.323-1.615c-.553-2.769,3.188-5.231,6.007-5.074,0,0-.136-1.18-.239-1.712h-12.4l.011-.35h0l-.151,5.5-.047,1.724h0l-.028,1.027-.063,2.494a10.534,10.534,0,0,0-1.509.365,5.766,5.766,0,0,0-.726.26c0,1.135-.009,3.232-.016,4.284h0a5.177,5.177,0,0,1,6.86,1.947,36.747,36.747,0,0,0,3.927,5.679,25.86,25.86,0,0,1,1.779,2.382h0l1.068,14.117c.563,7.449-4.829,17.02-5.112,26.276s4.532,22.6,4.777,38.156h1.03c-.508-10.89.885-21.562,1.456-31.859q.11-1.986.175-3.957A84.093,84.093,0,0,0,2560.493-423.806Z" transform="translate(-2540.409 556.139)" fill="#3d1b21" opacity="0.5"/>
              <path id="Trazado_107751" data-name="Trazado 107751" d="M2557.405-482.188l-3.984-.275a.523.523,0,0,0-.4.141.529.529,0,0,0-.168.386v2.285a.529.529,0,0,0,.529.528h3.984a.528.528,0,0,0,.527-.528v-2.01A.53.53,0,0,0,2557.405-482.188Zm.142,2.537a.179.179,0,0,1-.178.178h-3.984a.179.179,0,0,1-.179-.178v-1.266h1.783a.186.186,0,0,0,.186-.186.186.186,0,0,0-.186-.186h-1.783v-.647a.179.179,0,0,1,.057-.131.179.179,0,0,1,.122-.048h.013l3.983.275a.178.178,0,0,1,.166.178Z" transform="translate(-2543.004 557.345)" fill="#afa9cb"/>
              <path id="Trazado_107752" data-name="Trazado 107752" d="M2613.83-314.83l-.116.065c-.07,0-.139.01-.208.017a5.333,5.333,0,0,0-.751.125l.208-.117-3.221.28a.167.167,0,0,1-.185-.156.17.17,0,0,1,.156-.186l4.019-.35a.173.173,0,0,1,.179.12A.173.173,0,0,1,2613.83-314.83Z" transform="translate(-2561.836 501.773)" fill="#fff"/>
              <path id="Trazado_107753" data-name="Trazado 107753" d="M2581.391-480.118l-8.921-1.445v.722l8.921,1.415Z" transform="translate(-2549.518 557.046)" fill="#271f37" opacity="0.75"/>
              <path id="Trazado_107754" data-name="Trazado 107754" d="M2573.019-586.175c-.278,2.03-2.392,5.11-2.392,5.11v0a1.533,1.533,0,0,0-.8-.874,2.17,2.17,0,0,0-2.437,1.02,4.091,4.091,0,0,0-.3.458s-2.027-1.252-.227-3.782c.111-2.03-2.169-1.549-2.283-1.524.138-.089,2.924-1.913.3-5.659-2.693-3.838-7.195.61-7.195.61s.553-2.764,2.787-3.43c6.5-1.939,8.658,5.015,8.658,5.015S2573.464-589.428,2573.019-586.175Z" transform="translate(-2544.607 594.585)" fill="#63212d"/>
              <path id="Trazado_107755" data-name="Trazado 107755" d="M2551.844-552.828a126.754,126.754,0,0,0-3.084,34.455l-.944,25.435a10.5,10.5,0,0,0-4.333.753,9.86,9.86,0,0,0-2.2,1.183c2.4-22.588.96-31.024.739-33.467-.325-3.536-.792-6.665-.986-8.539-.333-3.253-1.493-8.838.005-12.78a5.941,5.941,0,0,1,.683-1.374c.955-1.3,2.4-1.025,7.956-4.8a15.793,15.793,0,0,1,2.28-1.3S2551.916-553.114,2551.844-552.828Z" transform="translate(-2538.829 580.86)" fill="url(#linear-gradient-3)"/>
              <path id="Trazado_107756" data-name="Trazado 107756" d="M2555.921-555.847a6.559,6.559,0,0,0-1.052,1.726s-.04.147-.112.433a126.781,126.781,0,0,0-3.083,34.456c-3.3-9.391-2.54-28.055-2.54-28.055l2.41-.654-.053-.385a6.64,6.64,0,0,1,2.761-6.349Z" transform="translate(-2541.742 581.719)" fill="#271f37" opacity="0.75"/>
              <g id="Grupo_56272" data-name="Grupo 56272" transform="translate(7.111 64.354)">
                <path id="Trazado_107757" data-name="Trazado 107757" d="M2550.113-497.189c-.057.532-.406.928-.78.89a.467.467,0,0,1-.141-.037.949.949,0,0,1-.433-1c.056-.531.4-.928.778-.89a.568.568,0,0,1,.4.262A1.14,1.14,0,0,1,2550.113-497.189Z" transform="translate(-2548.751 498.227)" fill="#271f37" opacity="0.75"/>
                <path id="Trazado_107758" data-name="Trazado 107758" d="M2550.594-496.834c-.057.531-.406.928-.78.89a.567.567,0,0,1-.4-.26.467.467,0,0,0,.141.037c.374.039.723-.358.78-.89a1.14,1.14,0,0,0-.172-.773A.953.953,0,0,1,2550.594-496.834Z" transform="translate(-2548.97 498.095)" fill="#1d1729" opacity="0.75"/>
              </g>
              <g id="Grupo_56273" data-name="Grupo 56273" transform="translate(6.403 80.291)">
                <path id="Trazado_107759" data-name="Trazado 107759" d="M2549.053-473.361c-.027.534-.355.95-.73.93a.523.523,0,0,1-.146-.031.95.95,0,0,1-.483-.972c.03-.534.356-.949.732-.928a.567.567,0,0,1,.417.238A1.157,1.157,0,0,1,2549.053-473.361Z" transform="translate(-2547.691 474.363)" fill="#271f37" opacity="0.75"/>
                <path id="Trazado_107760" data-name="Trazado 107760" d="M2549.567-473.033c-.028.534-.357.95-.733.93a.566.566,0,0,1-.417-.24.52.52,0,0,0,.146.031c.375.021.7-.4.731-.93a1.158,1.158,0,0,0-.211-.763A.951.951,0,0,1,2549.567-473.033Z" transform="translate(-2547.932 474.244)" fill="#1d1729" opacity="0.75"/>
              </g>
              <g id="Grupo_56274" data-name="Grupo 56274" transform="translate(6.646 71.31)">
                <path id="Trazado_107761" data-name="Trazado 107761" d="M2549.417-486.808c-.029.534-.357.95-.732.93a.484.484,0,0,1-.143-.029.95.95,0,0,1-.485-.974c.028-.534.355-.949.733-.928a.567.567,0,0,1,.417.24A1.15,1.15,0,0,1,2549.417-486.808Z" transform="translate(-2548.055 487.81)" fill="#271f37" opacity="0.75"/>
                <path id="Trazado_107762" data-name="Trazado 107762" d="M2549.932-486.479c-.03.534-.356.95-.733.93a.568.568,0,0,1-.415-.238.484.484,0,0,0,.142.029c.375.021.7-.4.733-.93a1.149,1.149,0,0,0-.211-.761A.951.951,0,0,1,2549.932-486.479Z" transform="translate(-2548.297 487.69)" fill="#1d1729" opacity="0.75"/>
              </g>
              <path id="Trazado_107763" data-name="Trazado 107763" d="M2543.975-461.811l-.017,1.524a8.161,8.161,0,0,1-2.187-.341A9.859,9.859,0,0,1,2543.975-461.811Z" transform="translate(-2539.322 550.485)" fill="#2b204f"/>
              <path id="Trazado_107764" data-name="Trazado 107764" d="M2564.8-478.307l1.744,11.4,2.656.258,11.84,1.91,1.618,23.969a117.161,117.161,0,0,0,6.217,30.561l1.959,5.636a76.885,76.885,0,0,1,3.228,12.7l2.876,17.42-5.012,2.2,6.955.1c-5.517-35.8-7.838-49.957-10.864-65.211-2.275-11.471-2.853-20.11-5.473-29.01-4.574-.053-6.4-1.6-12.989-1.006l-.13.01c-.256.023-.518.05-.791.08v0c-.156.017-.312.033-.475.053,0,0-.116-.744-.292-1.923-.279-1.87-.721-4.842-1.123-7.692-.066-.495-.136-.986-.2-1.465Z" transform="translate(-2546.971 555.964)" fill="#51242c" opacity="0.5"/>
              <g id="Grupo_56277" data-name="Grupo 56277" transform="translate(10.472 11.373)">
                <g id="Grupo_56275" data-name="Grupo 56275" transform="translate(5.463)">
                  <path id="Trazado_107765" data-name="Trazado 107765" d="M2564.815-574.8a.094.094,0,0,1-.03-.005,4.031,4.031,0,0,0-2.128-.15.087.087,0,0,1-.106-.063.087.087,0,0,1,.063-.106,4.126,4.126,0,0,1,2.23.154.086.086,0,0,1,.052.112A.087.087,0,0,1,2564.815-574.8Z" transform="translate(-2562.158 576.777)" fill="#5e2023"/>
                  <path id="Trazado_107766" data-name="Trazado 107766" d="M2562.072-577.4a4.651,4.651,0,0,1,1-.148,4.7,4.7,0,0,1,1.009.067,4.678,4.678,0,0,1,.5.116c.082.026.162.057.243.085a1.82,1.82,0,0,1,.239.1,4.135,4.135,0,0,1,.887.545.305.305,0,0,1,.058.427.306.306,0,0,1-.427.058l-.017-.014-.017-.015a3.561,3.561,0,0,0-.719-.526,1.552,1.552,0,0,0-.2-.1c-.069-.03-.137-.063-.207-.092a4.366,4.366,0,0,0-.434-.139,4.3,4.3,0,0,0-.912-.135,4.333,4.333,0,0,0-.924.059l-.01,0a.147.147,0,0,1-.171-.118A.147.147,0,0,1,2562.072-577.4Z" transform="translate(-2561.963 577.556)" fill="#4f1019"/>
                </g>
                <g id="Grupo_56276" data-name="Grupo 56276">
                  <path id="Trazado_107767" data-name="Trazado 107767" d="M2555.906-574.8a.092.092,0,0,0,.029-.005,4.031,4.031,0,0,1,2.128-.15.086.086,0,0,0,.106-.063.087.087,0,0,0-.063-.106,4.129,4.129,0,0,0-2.231.154.087.087,0,0,0-.052.112A.088.088,0,0,0,2555.906-574.8Z" transform="translate(-2554.459 576.777)" fill="#5e2023"/>
                  <path id="Trazado_107768" data-name="Trazado 107768" d="M2557.777-577.4a4.654,4.654,0,0,0-1-.148,4.693,4.693,0,0,0-1.008.067,4.615,4.615,0,0,0-.5.116c-.082.026-.162.057-.244.085a1.862,1.862,0,0,0-.239.1,4.145,4.145,0,0,0-.887.545.306.306,0,0,0-.058.427.306.306,0,0,0,.427.058l.017-.014.018-.015a3.538,3.538,0,0,1,.719-.526,1.483,1.483,0,0,1,.2-.1c.07-.03.138-.063.207-.092a4.386,4.386,0,0,1,.434-.139,4.3,4.3,0,0,1,.913-.135,4.328,4.328,0,0,1,.923.059l.011,0a.147.147,0,0,0,.17-.118A.148.148,0,0,0,2557.777-577.4Z" transform="translate(-2553.783 577.556)" fill="#4f1019"/>
                </g>
                <path id="Trazado_107769" data-name="Trazado 107769" d="M2560.516-572.325c0,.611-.02,1.218-.036,1.824-.009.3-.013.605-.015.906a8.319,8.319,0,0,0,.038.9l-.062-.073a4.929,4.929,0,0,0,.661.2,3.515,3.515,0,0,0,.692.091,2.6,2.6,0,0,1-.71.025,3.78,3.78,0,0,1-.7-.139l-.051-.015-.011-.058a5.6,5.6,0,0,1-.074-.924c0-.307.007-.612.028-.917A13.325,13.325,0,0,1,2560.516-572.325Z" transform="translate(-2555.93 575.818)" fill="#f28a81"/>
                <path id="Trazado_107770" data-name="Trazado 107770" d="M2561.054-563.512c.237.018.471.025.7.029a4.82,4.82,0,0,0,.69-.037,1.729,1.729,0,0,0,1.2-.578,1.121,1.121,0,0,1-.486.526,1.833,1.833,0,0,1-.694.216A3.159,3.159,0,0,1,2561.054-563.512Z" transform="translate(-2556.198 573.086)" fill="#f28a81"/>
              </g>
              <g id="Grupo_56278" data-name="Grupo 56278" transform="translate(31.532 101.031)">
                <path id="Trazado_107771" data-name="Trazado 107771" d="M2585.45-427.182l1.03,3a.167.167,0,0,0,.158.112h.583a.166.166,0,0,0,.167-.166v-.51l.473-.019a.516.516,0,0,0,.482-.4l.244-1.072Z" transform="translate(-2585.361 437.953)" fill="#f28a81"/>
                <path id="Trazado_107772" data-name="Trazado 107772" d="M2590.254-436.789a16.215,16.215,0,0,1,.634,4.095,1.787,1.787,0,0,1-.428.874c-1.175,1.358-4.274,1.226-5.015-.611-.628-1.554,1.262-4.357,1.262-4.357l0-1.412v-1.813l-.007-3.295,4.414.186-.236,1.74Z" transform="translate(-2585.317 443.309)" fill="#feb396"/>
              </g>
              <path id="Trazado_107773" data-name="Trazado 107773" d="M2594.791-503.652l-2.212,19.166-1.345,11.661-1.271-.049-.592-.023-2.876-.12-.953-.043h-.007l-.608-.023-.382-.017-.262-.01-.289-31.79a15.5,15.5,0,0,1,1.232-6.207l-1.288-7.207,0-.013-1.781-9.956a21.247,21.247,0,0,1,3.006-15.184l1.507-2.365.691.18a10.194,10.194,0,0,1,2.527,1.033c.232.133.458.279.678.432a9.989,9.989,0,0,1,2.168,2.029,9.855,9.855,0,0,1,2.122,5.427c.455,6.363-1.033,8.8-1.674,23.653C2594.37-509.942,2595.336-506.066,2594.791-503.652Z" transform="translate(-2552.624 578.393)" fill="#583d66"/>
              <path id="Trazado_107774" data-name="Trazado 107774" d="M2582.154-528.284l1.781,9.957,0,.013,1.288,7.207a15.5,15.5,0,0,0-1.232,6.207l.289,31.79.262.01.382.017c.551-6.5,2.746-33.205,2.122-38.5a4.289,4.289,0,0,0-.093-.531c-.1-.385-.2-.771-.292-1.149-5.6-22.683.695-32.395.695-32.395l-.691-.179-1.507,2.364A21.247,21.247,0,0,0,2582.154-528.284Z" transform="translate(-2552.624 578.392)" fill="#271f37" opacity="0.5"/>
              <path id="Trazado_107775" data-name="Trazado 107775" d="M2595.935-517.454a27.037,27.037,0,0,1,.165,2.73c.024.817.04,1.77.053,2.823.093,8.582-.119,23.919.462,28.233l2.212-19.166c.544-2.415-.422-6.291-1.611-9.429.641-14.856,2.129-17.29,1.674-23.654a9.846,9.846,0,0,0-2.122-5.426,10,10,0,0,0-2.168-2.03C2594.563-543.229,2592.55-534.77,2595.935-517.454Z" transform="translate(-2556.66 577.575)" fill="#271f37" opacity="0.25"/>
            </g>
            <path id="Trazado_107776" data-name="Trazado 107776" d="M2595.245-541.474l.118.9a.354.354,0,0,0,.388.306h0a.54.54,0,0,0,.468-.417l.465-2.068Z" transform="translate(-2557.083 577.37)" fill="#f2726b"/>
            <path id="Trazado_107777" data-name="Trazado 107777" d="M2596.971-542.386l1.273-.407s2.811.227,3.294,1.874c1.125-.809.5-2.426.484-2.476s-.01-.562-.74-.612-2.377-.355-2.476-.375a.793.793,0,0,0-.78-.049c-.523.188-1.065.2-1.115.424s-.177.276-.158.434S2596.971-542.386,2596.971-542.386Z" transform="translate(-2557.583 577.952)" fill="#f2726b"/>
            <path id="Trazado_107778" data-name="Trazado 107778" d="M2604.17-507.316l-.7.841-.172.209c-5.281-4.367-3.737-14.165-2.372-22.8l.163-1.029a11.213,11.213,0,0,0-.146-5.467,3.748,3.748,0,0,0-.322-.681,2.736,2.736,0,0,0-.345-.462,2.087,2.087,0,0,0-1.607-.688l-.153-1.352a3.443,3.443,0,0,1,2.72,1.077,3.932,3.932,0,0,1,.478.6,4.762,4.762,0,0,1,.488.983c.036.1.073.2.106.305.043.133.079.272.116.415.03.11.053.222.076.339.03.146.057.3.077.452.017.087.026.176.036.269.007.047.013.093.017.143.013.113.023.229.033.349,0,.086.01.17.013.259s.01.176.01.266a18.445,18.445,0,0,1-.252,3.4l-.163,1.03C2600.965-520.577,2599.484-511.189,2604.17-507.316Z" transform="translate(-2558.169 576.042)" fill="url(#linear-gradient-5)"/>
            <path id="Trazado_107779" data-name="Trazado 107779" d="M2635.441-584.587a2.466,2.466,0,0,0-.7-2.3,2.423,2.423,0,0,1,1.325,1.717c.513-.608-.067-2.366-.812-3.015.636.095,2.7,2.177,2.042,3.664s-1.758,1.081-1.785.96S2635.441-584.587,2635.441-584.587Z" transform="translate(-2570.2 592.459)" fill="#63212d"/>
            <path id="Trazado_107780" data-name="Trazado 107780" d="M2599.06-546l-1.465-.437a1.386,1.386,0,0,0-1.585.614l-1.554,2.587,1.878-1.664a11.926,11.926,0,0,1,1.7-.536C2598.323-545.44,2599.06-546,2599.06-546Z" transform="translate(-2556.821 578.613)" fill="#f2726b"/>
            <path id="Trazado_107781" data-name="Trazado 107781" d="M2626.342-524.507a5.477,5.477,0,0,1-.644-.13,9.387,9.387,0,0,1-2.776-1.408.724.724,0,0,1-.06-.043c-.116-.076-.232-.163-.355-.249-.419-.3-.86-.631-1.335-1a158.84,158.84,0,0,0-18.442-12.046,3.287,3.287,0,0,1-2.1.97.588.588,0,0,1-.077,0A3.587,3.587,0,0,1,2599-538.8a14.576,14.576,0,0,0-3.926-1.079.43.43,0,0,1-.3-.456.691.691,0,0,1,.026-.182.373.373,0,0,1,.358-.266l.818.007,2.029.02a3.543,3.543,0,0,0,1.057-.153,3.482,3.482,0,0,0,1.022-.471,1.463,1.463,0,0,0,.641-1.3.986.986,0,0,0-.747-.877l-3.132-.771-2.308,2.059a.647.647,0,0,1-.645.12.181.181,0,0,1-.083-.272l2.2-3.005a.79.79,0,0,1,.641-.329h1.631a7.524,7.524,0,0,1,4.7,1.654,14.131,14.131,0,0,0,4.271,2.424c7.386,2.521,11.062,3.637,14.547,4.939.1.04.206.076.308.116.262.1.525.2.791.3,1.325.518,2.677,1.086,4.251,1.793.9.405,1.87.854,2.953,1.368C2631.975-532.276,2630.441-523.959,2626.342-524.507Z" transform="translate(-2556.596 578.368)" fill="url(#linear-gradient)"/>
            <path id="Trazado_107782" data-name="Trazado 107782" d="M2641.409-524.63c-.033.183-1.156,3.019-1.757,4.53-.222.555-.372.933-.372.933s-2.7-.132-3.488-1.551a5.653,5.653,0,0,0,.668-1.079,6.975,6.975,0,0,0,.488-1.378c.973-3.886-.816-8.738-.884-8.911v0l4.264.445a4.788,4.788,0,0,1,.727,1.455c.013.063.033.13.05.2a4.888,4.888,0,0,1,.3,1.651C2641.323-527.841,2641.449-524.882,2641.409-524.63Z" transform="translate(-2570.551 573.827)" fill="#d4cdf7"/>
            <path id="Trazado_107783" data-name="Trazado 107783" d="M2648.986-314.862c-.021.7-.052,1.218-.078,1.606-.033.432-.066.7-.094.859a.289.289,0,0,1-.287.24H2630.9a.293.293,0,0,1-.29-.254,3,3,0,0,1-.028-.325,2.9,2.9,0,0,1,2.42-2.934c3.188-.53,7.072-1.177,9.234-4.6a.289.289,0,0,1,.243-.136h4.2a.287.287,0,0,1,.226.108A9.26,9.26,0,0,1,2648.986-314.862Z" transform="translate(-2568.819 503.518)" fill="#2f1a1d"/>
            <path id="Trazado_107784" data-name="Trazado 107784" d="M2660.275-437.337h0l9.667-50.73h-19.851s-3.943,20.36-2.5,50.73h0l-.37,2.955,1.081,2.184s-1.107,41.957-2.6,55.9a.287.287,0,0,0,.174.3c1.1.467,6.441,2.581,8.119.064a7.986,7.986,0,0,0,1.245-6.04l-.415-2.645a.278.278,0,0,1,.009-.127c.437-1.445,8.409-24.732,8.72-37.379C2663.65-426.008,2660.275-437.337,2660.275-437.337Z" transform="translate(-2573.841 559.206)" fill="#0b151e"/>
            <path id="Trazado_107785" data-name="Trazado 107785" d="M2653.04-558.423l-8.293,5.731-.432-1.354-1.78-5.595,3.24-2.583,2.311-1.848.215-.17c.007.034.017.071.024.105a7.229,7.229,0,0,0,1.4,2.559,13.987,13.987,0,0,0,1,1.123c.068.071.136.14.2.2.473.47.932.875,1.3,1.181.436.364.745.592.81.636Z" transform="translate(-2572.79 584.507)" fill="url(#linear-gradient)"/>
            <g id="Grupo_56280" data-name="Grupo 56280" transform="translate(88.935 185.751)">
              <path id="Trazado_107786" data-name="Trazado 107786" d="M2683.624-311.677c-.013.173-.037.349-.063.528l-.059.372a.29.29,0,0,1-.286.249h-11.508a.281.281,0,0,1-.266-.176,2.362,2.362,0,0,1-.11-.4,4.062,4.062,0,0,1,.442-2.677,2.015,2.015,0,0,1,1.318-1h.017a8.184,8.184,0,0,0,.86-.1,5.6,5.6,0,0,0,3.155-1.488.281.281,0,0,1,.206-.086l5.058.006a.3.3,0,0,1,.262.156A7.864,7.864,0,0,1,2683.624-311.677Z" transform="translate(-2671.268 316.456)" fill="#2f1a1d"/>
              <path id="Trazado_107787" data-name="Trazado 107787" d="M2678.5-309.757h-6.787a.281.281,0,0,1-.266-.175,3.951,3.951,0,0,1,.331-3.075,2.021,2.021,0,0,1,1.32-1h.014a1.03,1.03,0,0,1,.154-.027c.044-.007.085-.01.129-.017a.139.139,0,0,0,.024,0l.068-.01c.1-.01.266-.027.487-.044,1.021-.065,3.124-.051,4.172,1.079a2.968,2.968,0,0,1,.628,3.084A.288.288,0,0,1,2678.5-309.757Z" transform="translate(-2671.268 315.684)" fill="#2f1a1d"/>
            </g>
            <path id="Trazado_107788" data-name="Trazado 107788" d="M2676.117-373.456a.3.3,0,0,1-.336.159,19.127,19.127,0,0,0-5.061-.01.306.306,0,0,1-.186-.049,8.9,8.9,0,0,1-2.016-4.281,3.306,3.306,0,0,1-.033-.475c-.063-20.505-5.971-40.877-8.764-49.05-.734-2.139-1.3-4.278-1.322-4.38l0,0v-3.76c-4.593-28.881-7.482-31.3-7.154-39.455.027-.7.08-1.445.156-2.252.023-.279.052-.564.086-.86a13.721,13.721,0,0,1-.243-2.527,47.649,47.649,0,0,1,.681-7.668h19.851s3.381,5.832,4.145,11.229c-.867,9.013-.411,17.562-1.773,40.551,0,0,4.6,9.389,5.3,18.519C2680.2-407.81,2677.521-376.508,2676.117-373.456Z" transform="translate(-2575.673 559.207)" fill="#16293c"/>
            <path id="Trazado_107789" data-name="Trazado 107789" d="M2645.58-550.272c-3.813,1.146-7.479,6.938-6.931,13.208,0,.007,0,.013,0,.02-.023-.073-.047-.153-.077-.229a7.432,7.432,0,0,1-.286-1.219s0-.007,0-.01c-.778-5.331,3.958-11.474,4.869-12.594.093-.12.149-.18.149-.18l-.093-.289-.053-.173-.282-.894a13.325,13.325,0,0,0,5.559-4.546,8.017,8.017,0,0,0,.479-.884,7.65,7.65,0,0,0,.369-.976,7.333,7.333,0,0,0,.209-.94l2.1,2.959.007.01,0,0C2652.657-555.37,2651.711-552.109,2645.58-550.272Z" transform="translate(-2571.35 583.09)" fill="#e8e3f9"/>
            <path id="Trazado_107790" data-name="Trazado 107790" d="M2667.646-510.474v0a9.578,9.578,0,0,1-10.276,4.261,23.808,23.808,0,0,1-8.618,5.446c-.522.19-.993.343-1.4.459a14.436,14.436,0,0,1-1.618.388,24.519,24.519,0,0,1-1.438-6.546v0c-.047-.731-.054-1.422-.043-2.129a42.675,42.675,0,0,0-.534-8.665v0c-.053-.315-.11-.645-.17-.983l-.01-.325s-.039-.126-.116-.365c-.591-1.833-3.248-10.236-4.576-16.629,0-.007,0-.013,0-.02-.548-6.271,3.118-12.062,6.931-13.208,6.131-1.837,7.077-5.1,6.025-6.732a.2.2,0,0,1,.036.023c.09.056.323.212.665.458.06.047.126.093.192.143a28.658,28.658,0,0,1,3.932,3.574q.174.189.349.389c.372.418.744.867,1.113,1.342.077.1.153.2.226.3s.146.19.217.289c.129.173.255.349.382.531s.252.365.375.552a24.341,24.341,0,0,1,2.033,3.727c.079.186.16.375.236.568.232.574.442,1.182.638,1.817a49.054,49.054,0,0,1,1.873,7.453c1.309,7.429,1.176,14.437,2,17.861.282,1.185,1.288,2.132,1.744,3.315.036.1.069.192.1.293A3.269,3.269,0,0,1,2667.646-510.474Z" transform="translate(-2571.546 581.612)" fill="#1b4166"/>
            <path id="Trazado_107791" data-name="Trazado 107791" d="M2665.056-529.857c-.95,5.384-3.7,7.775-5.5,8.788a7.537,7.537,0,0,1-1.491.651c-.1.029-.156.039-.156.039v0q.467-.871.923-1.753c2.75-5.321,5.132-10.74,5.537-14.165a4.641,4.641,0,0,0-.18-1.561c-.023-.1-.05-.2-.073-.3a7.955,7.955,0,0,0-1.886-3.139,6.517,6.517,0,0,1,2.454,3.4s0,.009.007.013A15.414,15.414,0,0,1,2665.056-529.857Z" transform="translate(-2577.897 576.886)" fill="#d4cdf7"/>
            <path id="Trazado_107792" data-name="Trazado 107792" d="M2627.995-475.164c-4.7-.916-8.981-5.35-8.981-5.35a.026.026,0,0,1,0,.011c-.731,1.01-1.46,2.052-2.168,3.1l.038.472.139.386.007.017c.429,1.334,1.848,3.764,6.508,4.2,3.689.4,5.39-.766,6.234-2.671A8.438,8.438,0,0,1,2627.995-475.164Z" transform="translate(-2564.256 556.697)" fill="#e8e3f9"/>
            <path id="Trazado_107793" data-name="Trazado 107793" d="M2651.811-537.168c-.352,2.973-2.195,7.453-4.477,12.066-.342.7-.7,1.4-1.06,2.1-.3.591-.614,1.175-.923,1.756v0c-.256.482-.791,1.551-1.432,2.85-.452.916-.957,1.946-1.455,2.966-1.083,2.225-2.132,4.387-2.524,5.194a.015.015,0,0,0,0,.01c-.07.116-.768,1.328-1.874,3.042-.342.525-.72,1.1-1.133,1.7,0,0,0,0,0,0-.186.276-.381.558-.582.844-.594.84-1.249,1.73-1.959,2.627a37.763,37.763,0,0,1-5.313,5.533,10.956,10.956,0,0,1-1.787-.512,22.614,22.614,0,0,1-7.194-4.839c1.209-1.674,2.424-3.268,3.567-4.722l0,0c2.64-3.348,4.9-5.928,5.792-6.934-.176-.3-.359-.562-.266-.823a.673.673,0,0,1,.7-.456s-.525-.411-.269-.8a.7.7,0,0,1,.813-.3c.216-1.295.545-3.192.947-5.364.232-1.268.492-2.627.771-4.019v0c1.155-5.729,2.627-11.973,3.968-14.247a12.258,12.258,0,0,1,1.485-1.824c.312-.335.654-.691,1.02-1.056a7.819,7.819,0,0,1,8.874-1.554.011.011,0,0,1,.01,0,7.518,7.518,0,0,1,2.239,1.591h0a7.382,7.382,0,0,1,1.93,3.58A4.636,4.636,0,0,1,2651.811-537.168Z" transform="translate(-2565.336 578.006)" fill="#e8e3f9"/>
            <path id="Trazado_107794" data-name="Trazado 107794" d="M2664.881-533.245c-.4,3.331-2.664,8.559-5.321,13.737a6.571,6.571,0,0,1-1.647.691v0q.467-.872.923-1.753c2.75-5.321,5.132-10.741,5.537-14.165a4.641,4.641,0,0,0-.18-1.561c-.023-.1-.05-.2-.073-.3a7.488,7.488,0,0,1,.635,1.77A4.7,4.7,0,0,1,2664.881-533.245Z" transform="translate(-2577.897 575.325)" fill="#847caa" opacity="0.15"/>
            <path id="Trazado_107795" data-name="Trazado 107795" d="M2646.718-549.878a11.668,11.668,0,0,0,1.98-.883,13.415,13.415,0,0,0,1.81-1.183,13.69,13.69,0,0,0,1.617-1.436,17.679,17.679,0,0,0,1.411-1.649c-.207.3-.4.609-.618.9s-.448.575-.7.838a12.278,12.278,0,0,1-1.61,1.48,12.09,12.09,0,0,1-1.851,1.164A9.145,9.145,0,0,1,2646.718-549.878Z" transform="translate(-2574.179 581.447)" fill="#847caa" opacity="0.5"/>
            <path id="Trazado_107796" data-name="Trazado 107796" d="M2636.129-517.175a5.651,5.651,0,0,1-.667,1.079,3.483,3.483,0,0,1-.667-2.076C2635.268-517.807,2635.711-517.474,2636.129-517.175Z" transform="translate(-2570.219 569.205)" fill="#847caa"/>
            <path id="Trazado_107797" data-name="Trazado 107797" d="M2648.892-309.369c-.023.246-.046.415-.065.531a.289.289,0,0,1-.287.24h-17.629a.293.293,0,0,1-.29-.254v-.006a.29.29,0,0,1,.281-.327l17.692-.5A.293.293,0,0,1,2648.892-309.369Z" transform="translate(-2568.832 499.959)" fill="#231416"/>
            <path id="Trazado_107798" data-name="Trazado 107798" d="M2642.4-564.839a13.74,13.74,0,0,1-.548,6.987,5.891,5.891,0,0,1-4.115,3.614,10.261,10.261,0,0,1-4.772-1.518,12.684,12.684,0,0,1-1.711-1.258,43.4,43.4,0,0,1-3.762-4.155c-.053-.057-.106-.106-.156-.153-.156-.143-.309-.293-.455-.451.209-.02.426-.05.645-.087,6.722-1.059,6.918-5.466,6.918-5.466,3.029-.7,5.42,1.767,5.42,1.767l1.2-.794,1.229-.817.495-.336a14.061,14.061,0,0,1-.339,2.474A1.882,1.882,0,0,1,2642.4-564.839Z" transform="translate(-2567.591 585.591)" fill="url(#linear-gradient)"/>
            <path id="Trazado_107799" data-name="Trazado 107799" d="M2654.507-560.084a6.894,6.894,0,0,1-.208.94,13.988,13.988,0,0,1-1-1.123A1.815,1.815,0,0,1,2654.507-560.084Z" transform="translate(-2576.365 583.197)" fill="#938cac"/>
            <path id="Trazado_107800" data-name="Trazado 107800" d="M2638.678-573.094l-.027.016-.495.336-2.427,1.611s-2.392-2.464-5.42-1.767c0,0-.2,4.407-6.918,5.466-.219.037-.436.067-.644.087-7.765.86-8.316-6.038-8.316-6.038a.037.037,0,0,1,.007.013c.119.15,3.155,2.235,4.759,1.408a.053.053,0,0,1-.007-.009c-1.4-2.392,1.156-10.774,7.277-11.575a8.1,8.1,0,0,1,3.265.269,3.232,3.232,0,0,1,1.3-.764,5.431,5.431,0,0,1,5.59,1.547,7.662,7.662,0,0,1,1.564,2.551C2640.153-574.818,2638.678-573.094,2638.678-573.094Z" transform="translate(-2563.455 591.163)" fill="#773634"/>
            <path id="Trazado_107801" data-name="Trazado 107801" d="M2649.723-565.644a1.793,1.793,0,0,1-.89.688,1.18,1.18,0,0,1-.289.073,2.433,2.433,0,0,1-2.361-1.873,4.493,4.493,0,0,1-.236-.93,3.686,3.686,0,0,1,.538-2.623,1.764,1.764,0,0,1,1.2-.784c1.2-.166,2.358,1.089,2.6,2.8A3.681,3.681,0,0,1,2649.723-565.644Z" transform="translate(-2573.909 586.787)" fill="#f8b296"/>
            <path id="Trazado_107802" data-name="Trazado 107802" d="M2649.781-565.427a1.175,1.175,0,0,1-.612.39,1.261,1.261,0,0,1-.741-.053,2.195,2.195,0,0,1-1.07-1.005,3.226,3.226,0,0,1-.376-1.419,2.372,2.372,0,0,1,.375-1.4,2.673,2.673,0,0,0-.247,1.389,3.263,3.263,0,0,0,.394,1.345,2.131,2.131,0,0,0,.972.966A1.183,1.183,0,0,0,2649.781-565.427Z" transform="translate(-2574.267 586.057)" fill="#db6951" opacity="0.5"/>
            <path id="Trazado_107803" data-name="Trazado 107803" d="M2632.317-555.793c.615.705,1.185,1.441,1.794,2.137.3.348.617.689.951,1a4.744,4.744,0,0,0,1.091.811l-.069,0c.149-.078.3-.161.442-.247a2.16,2.16,0,0,0,.406-.3,1.682,1.682,0,0,1-.352.379,3.548,3.548,0,0,1-.418.306l-.03.02-.039-.015a4.018,4.018,0,0,1-1.192-.779,9.952,9.952,0,0,1-.972-1.022A20.032,20.032,0,0,1,2632.317-555.793Z" transform="translate(-2569.396 581.701)" fill="#db6951" opacity="0.5"/>
            <path id="Trazado_107804" data-name="Trazado 107804" d="M2634.03-558.087c.045-.376.109-.747.175-1.119l0-.02.018-.015a5.872,5.872,0,0,1,1.393-.892,4.894,4.894,0,0,1,.777-.285,4.065,4.065,0,0,1,.812-.145,7.454,7.454,0,0,0-1.522.571,8.648,8.648,0,0,0-1.376.849l.021-.035C2634.239-558.813,2634.144-558.449,2634.03-558.087Z" transform="translate(-2569.965 583.285)" fill="#db6951" opacity="0.5"/>
            <path id="Trazado_107805" data-name="Trazado 107805" d="M2631.32-555.655a2.887,2.887,0,0,1-.853-.1l.058-.01a2.561,2.561,0,0,1-.5.215,2.6,2.6,0,0,1,.419-.351l.023-.017.035.007A2.894,2.894,0,0,1,2631.32-555.655Z" transform="translate(-2568.634 581.742)" fill="#db6951" opacity="0.5"/>
            <path id="Trazado_107806" data-name="Trazado 107806" d="M2642.3-551.964a.085.085,0,0,1-.071-.039.083.083,0,0,1,.028-.114,2.449,2.449,0,0,0,.927-1.319.082.082,0,0,1,.1-.057.083.083,0,0,1,.056.1,2.569,2.569,0,0,1-1,1.415A.086.086,0,0,1,2642.3-551.964Z" transform="translate(-2572.683 580.938)" fill="#db6951" opacity="0.5"/>
            <path id="Trazado_107807" data-name="Trazado 107807" d="M2680.4-493.163a3.964,3.964,0,0,1-2.046.542.535.535,0,0,1-.418-.212.514.514,0,0,1-.093-.183l-.446-1.637a.283.283,0,0,1,.219-.352,3.791,3.791,0,0,0,1.495-.621.891.891,0,0,1,1.315.275,3.027,3.027,0,0,1,.176.385,4.2,4.2,0,0,1,.216.95A.866.866,0,0,1,2680.4-493.163Z" transform="translate(-2584.365 561.776)" fill="#1d69b3"/>
            <path id="Trazado_107808" data-name="Trazado 107808" d="M2681-491.844a.778.778,0,0,1-.209.176,3.969,3.969,0,0,1-2.046.538.531.531,0,0,1-.511-.4l-.023-.089a.536.536,0,0,0,.418.212,3.966,3.966,0,0,0,2.046-.542.911.911,0,0,0,.226-.192C2680.933-492.041,2680.967-491.945,2681-491.844Z" transform="translate(-2584.638 560.558)" fill="#16293c" opacity="0.25"/>
            <path id="Trazado_107809" data-name="Trazado 107809" d="M2680.916-494.236c.137.453.06.878-.17.947s-.529-.242-.666-.7-.06-.878.17-.947S2680.779-494.689,2680.916-494.236Z" transform="translate(-2585.237 561.489)" fill="#14314d"/>
            <path id="Trazado_107810" data-name="Trazado 107810" d="M2635.494-567.91a4.43,4.43,0,0,0,.235.933s-2.393-2.464-5.422-1.77c0,0-.193,4.407-6.916,5.469-8.378,1.324-8.96-5.953-8.96-5.953a.035.035,0,0,1,.007.013c.16.412,3.611,9.514,11.939,2.917,1.972-1.563.978-4.758.978-4.758a10.4,10.4,0,0,1,8.677.526A3.685,3.685,0,0,0,2635.494-567.91Z" transform="translate(-2563.455 587.01)" fill="#63212d"/>
            <path id="Trazado_107811" data-name="Trazado 107811" d="M2648.094-566.076a1.722,1.722,0,0,1-.158-.709,1.492,1.492,0,0,1,.167-.724,1.387,1.387,0,0,1,.5-.546,2.05,2.05,0,0,1,.327-.168c.115-.038.234-.069.351-.1a3.237,3.237,0,0,0-.6.367,1.565,1.565,0,0,0-.432.519A2.168,2.168,0,0,0,2648.094-566.076Z" transform="translate(-2574.583 585.861)" fill="#db6951" opacity="0.5"/>
            <path id="Trazado_107812" data-name="Trazado 107812" d="M2652.974-560.016a7.187,7.187,0,0,1-.367.976,7.811,7.811,0,0,1-.48.885c-.354-.745-.857-1.793-1.33-2.719a14.227,14.227,0,0,1-1.484,4.533,12.745,12.745,0,0,0,.653-5.894,1.819,1.819,0,0,0,.888-.687,8.545,8.545,0,0,0,1.123,1.783A13.953,13.953,0,0,0,2652.974-560.016Z" transform="translate(-2575.041 584.069)" fill="#db6951" opacity="0.5"/>
            <path id="Trazado_107813" data-name="Trazado 107813" d="M2643.022-547c-.908,1.12-5.646,7.263-4.866,12.592-1.95-7.658,4.87-13.236,4.87-13.236l.054.174.092.289S2643.118-547.117,2643.022-547Z" transform="translate(-2571.219 578.993)" fill="#16293c"/>
            <path id="Trazado_107814" data-name="Trazado 107814" d="M2652.722-504.881a6.063,6.063,0,0,1-.645,2.76c-.2-.033-.392-.073-.584-.113a5.966,5.966,0,0,0,.89-3.192v-.053c.1.02.2.04.3.056A4.048,4.048,0,0,1,2652.722-504.881Z" transform="translate(-2575.765 564.989)" fill="#e8e3f9" opacity="0.5"/>
            <path id="Trazado_107815" data-name="Trazado 107815" d="M2595.845-537.282a1.743,1.743,0,0,1,1.756-1.64l.376,0a3.573,3.573,0,0,0,1.059-.15,2.455,2.455,0,0,0-2.826-1.031,2.71,2.71,0,0,0-1.957,2.47c-.538,8.728-2.549,53.156,6.785,74.391l1.247-.548C2593.292-484.245,2595.317-528.218,2595.845-537.282Z" transform="translate(-2556.568 576.525)" fill="url(#linear-gradient-5)"/>
            <g id="Grupo_56281" data-name="Grupo 56281" transform="translate(39.155 79.297)">
              <path id="Trazado_107816" data-name="Trazado 107816" d="M2598.1-451.452l-1.167,1.873c-.777,1.041.994,1.306.994,1.306.272.981,1.362.7,1.362.7a4.665,4.665,0,0,0,.76.511,1.373,1.373,0,0,0,1.03-.014s.551.456.952.289c1.208-.506,1.82-2.19,2.4-3.851C2603.553-451.83,2598.1-451.452,2598.1-451.452Z" transform="translate(-2596.732 467.766)" fill="#ef7b60"/>
              <path id="Trazado_107817" data-name="Trazado 107817" d="M2617.289-470.779a149.719,149.719,0,0,0-11.6,10.531s0,.007-.007.007c-.153.153-.309.313-.468.472-.7,2.4-1.648,3.749-3.919,3.636a5.427,5.427,0,0,1-2.318-.664c-.485-.262-.937-.581-.937-.857a3.862,3.862,0,0,1,1.67-3.182l1.189-.82c4.271-5.742,6.247-9.09,8.688-12.72.325-.485.661-.973,1.01-1.475a3.813,3.813,0,0,0,.176.857l.007.017C2611.211-473.642,2612.629-471.211,2617.289-470.779Z" transform="translate(-2597.166 475.851)" fill="url(#linear-gradient)"/>
            </g>
            <path id="Trazado_107818" data-name="Trazado 107818" d="M2642.515-563.732a2.121,2.121,0,0,1-2.577-.133c-.491-.641-2.338-2.414-4.135-2.315a10.567,10.567,0,0,1-8.31,5.038c-.053-.057-.106-.106-.156-.153-.156-.143-.309-.293-.455-.451.209-.02.426-.05.645-.087,6.722-1.059,6.918-5.466,6.918-5.466,3.029-.7,5.42,1.767,5.42,1.767a2.433,2.433,0,0,0,2.361,1.873A1.177,1.177,0,0,0,2642.515-563.732Z" transform="translate(-2567.591 585.563)" fill="#db6951" opacity="0.5"/>
            <path id="Trazado_107819" data-name="Trazado 107819" d="M2591.577-430.556a1.787,1.787,0,0,1-.428.874,9.79,9.79,0,0,0-1.1-5.29l-2.653-1.09v-.807l.953.043,2.876.12-.279,2.056A16.213,16.213,0,0,1,2591.577-430.556Z" transform="translate(-2554.474 542.201)" fill="#f28a81"/>
            <path id="Trazado_107820" data-name="Trazado 107820" d="M2609.492-460.249c1.312-1.647,7.19-7.171,8.516-9.552-3.506-1.775-4.61-3.234-4.617-4.575.325-.485.661-.973,1.01-1.475a3.813,3.813,0,0,0,.176.857l.007.017c.432,1.335,1.85,3.766,6.51,4.2A149.763,149.763,0,0,0,2609.492-460.249Z" transform="translate(-2561.814 555.148)" fill="#f28a81"/>
            <path id="Trazado_107821" data-name="Trazado 107821" d="M2629.075-477.515c-4.7-.914-8.981-5.351-8.981-5.351,1.209-1.674,2.424-3.268,3.567-4.722a.024.024,0,0,1,.01,0l-2.531,4.368A18.759,18.759,0,0,0,2629.075-477.515Z" transform="translate(-2565.336 559.048)" fill="#847caa" opacity="0.15"/>
            <path id="Trazado_107822" data-name="Trazado 107822" d="M2628.437-556.622a1.3,1.3,0,0,1,.411-.526,1.783,1.783,0,0,1,.584-.316,1.707,1.707,0,0,1,.661-.087,1.324,1.324,0,0,1,.64.192c-.216.092-.409.142-.6.2l-.547.176C2629.226-556.866,2628.877-556.735,2628.437-556.622Z" transform="translate(-2568.107 582.286)" fill="#4a1922"/>
            <path id="Trazado_107823" data-name="Trazado 107823" d="M2632.962-560.535a1.885,1.885,0,0,1,.224-1.276,3.058,3.058,0,0,1,.867-.986,3.981,3.981,0,0,1,1.141-.6c.2-.059.412-.107.619-.147a4.611,4.611,0,0,1,.637-.036,5.092,5.092,0,0,1-.521.35c-.172.109-.339.222-.51.319-.328.22-.658.418-.954.652a5.9,5.9,0,0,0-.838.747A3.91,3.91,0,0,0,2632.962-560.535Z" transform="translate(-2569.598 584.286)" fill="#4a1922"/>
            <path id="Trazado_107824" data-name="Trazado 107824" d="M2683.656-309.3c-.013.173-.037.349-.063.528l-.059.372a.29.29,0,0,1-.286.249h-11.508a.281.281,0,0,1-.266-.176,2.362,2.362,0,0,1-.11-.4Z" transform="translate(-2582.365 499.83)" fill="#231416"/>
            <path id="Trazado_107825" data-name="Trazado 107825" d="M2676.207-373.454s-1.438-38.565-3.471-48.21c.066-4.089,0-12.893,0-12.893s-3.208-10.063-3.4-19.249c1.272-7.509,3.4-28.337,3.4-28.337s-3.122,1.3-9.661.594a28.057,28.057,0,0,1-11.587,4.537c.023-.278.053-.564.086-.86a.073.073,0,0,1,0-.026,23.865,23.865,0,0,0,10.017-5.905,9.578,9.578,0,0,0,10.276-4.261s3.381,5.828,4.144,11.225c-.867,9.013-.411,17.562-1.773,40.551,0,0,4.6,9.389,5.3,18.519C2680.289-407.808,2677.612-376.506,2676.207-373.454Z" transform="translate(-2575.763 559.205)" fill="#0b151e" opacity="0.25"/>
            <path id="Trazado_107826" data-name="Trazado 107826" d="M2655.389-537.168c-.405,3.421-2.787,8.844-5.537,14.162-.3.591-.614,1.175-.923,1.756v0c-.256.482-.791,1.551-1.432,2.85-.452.916-.957,1.946-1.455,2.966-1.083,2.225-2.132,4.387-2.524,5.194a.015.015,0,0,0,0,.01c-.093.153-1.252,2.175-3.006,4.746,0,0,0,0,0,0-.186.276-.382.558-.581.844-.594.84-1.249,1.73-1.959,2.627a37.763,37.763,0,0,1-5.313,5.533,10.949,10.949,0,0,1-1.787-.512l7.319-7.779s4.421-15.792,5.925-19.352c5.961-3.185,7.283-14.766,5.055-16.606-1.943-1.607-6.769-.827-7.978-.6.312-.335.655-.691,1.02-1.056a7.818,7.818,0,0,1,8.874-1.554.012.012,0,0,1,.01,0,7.525,7.525,0,0,1,2.239,1.591h0a7.382,7.382,0,0,1,1.93,3.58A4.636,4.636,0,0,1,2655.389-537.168Z" transform="translate(-2568.914 578.006)" fill="#d4cdf7" opacity="0.5"/>
            <path id="Trazado_107827" data-name="Trazado 107827" d="M2604.89-506.218l-.7.841c-5.19-6.075-3.228-14.733-2.713-17.5,2.351-9.313,1.292-11.2,1.292-11.2l-1.106-.4a3.732,3.732,0,0,0-.322-.681l-.208-.3a4.292,4.292,0,0,0,1.713.461.586.586,0,0,0,.077,0c.036.1.073.2.106.305.044.133.08.272.116.415.03.11.053.222.076.339.03.146.057.3.077.451.017.087.026.176.036.269.007.047.014.093.017.143.013.113.023.229.033.349,0,.086.01.17.014.259s.01.176.01.266a18.444,18.444,0,0,1-.252,3.4l-.163,1.03C2601.685-519.479,2600.2-510.09,2604.89-506.218Z" transform="translate(-2558.89 574.944)" fill="#f19b6c"/>
            <path id="Trazado_107828" data-name="Trazado 107828" d="M2597.362-449.811l-.644.98a1.054,1.054,0,0,0,.3,1.456l.637.425.071.143a.755.755,0,0,0,1.036.326l.673-.365-.293-.475s-.9-.573-.946-.616-.649-.7-.649-.7l-.211-.144Z" transform="translate(-2557.514 546.499)" fill="#ef7b60"/>
            <path id="Trazado_107829" data-name="Trazado 107829" d="M2627.446-524.543a6.961,6.961,0,0,1-.488,1.378c-.419-.3-.86-.631-1.335-1a158.844,158.844,0,0,0-18.442-12.045l19.109,10.554a17.679,17.679,0,0,0-.036-7.917c.1.04.206.076.308.116C2626.629-533.28,2628.419-528.428,2627.446-524.543Z" transform="translate(-2561.047 575.195)" fill="#db6951" opacity="0.5"/>
            <path id="Trazado_107830" data-name="Trazado 107830" d="M2657.163-515.678s8.615-9.96,3.9-20.508a15.414,15.414,0,0,1,.362,8.027c-.95,5.384-3.7,7.775-5.5,8.788a7.537,7.537,0,0,1-1.491.651c-.053.1-.106.192-.156.289v0c-.256.482-.791,1.551-1.432,2.85-.452.916-.957,1.946-1.455,2.966-1.083,2.225-2.132,4.387-2.524,5.194a.015.015,0,0,0,0,.01c-.07.116-.768,1.328-1.874,3.042,0,1.175-.037,2.187-.019,3.221v.039c.006.349.019.7.042,1.064v0a24.521,24.521,0,0,0,1.438,6.546,14.439,14.439,0,0,0,1.618-.388c.405-.116.877-.269,1.4-.459a26.2,26.2,0,0,1-1.594-10.108Z" transform="translate(-2574.261 575.188)" fill="#16293c" opacity="0.5"/>
            <path id="Trazado_107831" data-name="Trazado 107831" d="M2639.386-539.653s-2.475,18.157-5.424,25.278a18.013,18.013,0,0,1-8.522,9.492c2.64-3.348,4.9-5.928,5.792-6.934-.176-.3-.359-.562-.266-.823a.673.673,0,0,1,.7-.455s-.525-.411-.269-.8a.7.7,0,0,1,.813-.3c.216-1.295.545-3.192.947-5.364.232-1.268.492-2.627.771-4.018v0c1.155-5.729,2.627-11.973,3.968-14.247A12.226,12.226,0,0,1,2639.386-539.653Z" transform="translate(-2567.112 576.34)" fill="#fff" opacity="0.25"/>
            <path id="Trazado_107832" data-name="Trazado 107832" d="M2658.395-428.688c-4.593-28.881-7.482-31.3-7.154-39.455C2651.241-468.143,2664.244-454.121,2658.395-428.688Z" transform="translate(-2575.673 552.588)" fill="#1b4166" opacity="0.5"/>
            <path id="Trazado_107833" data-name="Trazado 107833" d="M2672.09-349.526a3.306,3.306,0,0,1-.033-.475c-.063-20.505-5.971-40.877-8.764-49.05-.734-2.139-1.3-4.278-1.322-4.38.19.156,6.194,5.247,8.751,16.745C2672.943-376.683,2672.316-355.421,2672.09-349.526Z" transform="translate(-2579.245 531.095)" fill="#1b4166" opacity="0.5"/>
            <path id="Trazado_107834" data-name="Trazado 107834" d="M2637.806-581.791a6.142,6.142,0,0,1,2.922-.937,2.916,2.916,0,0,1,1.517.356,4.325,4.325,0,0,1,1.164,1.043,4.4,4.4,0,0,1,.889,2.935,8.22,8.22,0,0,1-.787,2.977,10.879,10.879,0,0,0,.455-1.468,6.685,6.685,0,0,0,.2-1.512,4.968,4.968,0,0,0-.2-1.5,4.029,4.029,0,0,0-.7-1.331,4.164,4.164,0,0,0-1.108-1.014,2.906,2.906,0,0,0-1.441-.36,5.184,5.184,0,0,0-1.5.234A7.3,7.3,0,0,0,2637.806-581.791Z" transform="translate(-2571.219 590.647)" fill="#63212d"/>
            <path id="Trazado_107835" data-name="Trazado 107835" d="M2637.806-581.124a5.71,5.71,0,0,1,2.808.032,2.706,2.706,0,0,1,1.23.725,2.969,2.969,0,0,1,.684,1.258,3.233,3.233,0,0,1,.075,1.43,2.32,2.32,0,0,1-.681,1.254,2.818,2.818,0,0,1-1.25.672,4,4,0,0,1-1.407.073,3.332,3.332,0,0,0,2.567-.837,2.271,2.271,0,0,0,.621-1.191,3.076,3.076,0,0,0-.086-1.357,2.811,2.811,0,0,0-.633-1.2,2.709,2.709,0,0,0-1.16-.707,4.908,4.908,0,0,0-1.369-.232A6.748,6.748,0,0,0,2637.806-581.124Z" transform="translate(-2571.219 590.167)" fill="#63212d"/>
            <path id="Trazado_107836" data-name="Trazado 107836" d="M2638.8-582.494c-3.086-2.832-6.726-.508-6.726-.508s-3.218.763-3.337,3.192c-.82,7.645-7.36,7.847-7.36,7.847a.053.053,0,0,1-.007-.009c-1.4-2.392,1.156-10.774,7.277-11.575a8.1,8.1,0,0,1,3.265.269,3.235,3.235,0,0,1,1.3-.764A5.431,5.431,0,0,1,2638.8-582.494Z" transform="translate(-2565.635 591.163)" fill="#992c2c" opacity="0.5"/>
            <path id="Trazado_107837" data-name="Trazado 107837" d="M2640.056-557.913a1.961,1.961,0,0,1-.682,2.635,1.961,1.961,0,0,1-2.722.049,1.961,1.961,0,0,1,.682-2.635A1.961,1.961,0,0,1,2640.056-557.913Z" transform="translate(-2570.742 582.578)" fill="#db6951" opacity="0.15"/>
            <path id="Trazado_107838" data-name="Trazado 107838" d="M2635.141-550.558a12.679,12.679,0,0,1-1.711-1.258,1.4,1.4,0,0,1,1.069.159A1.448,1.448,0,0,1,2635.141-550.558Z" transform="translate(-2569.765 580.393)" fill="#db6951" opacity="0.15"/>
          </g>
        </g>
      </g>
    </g>
    <g id="Grupo_1054765" data-name="Grupo 1054765" transform="translate(215.251 5137.453) rotate(25)" opacity="0.62">
      <path id="Trazado_771758" data-name="Trazado 771758" d="M.281,5.745c-.419,2.032-.606,4.608,1.185,5.984a6.174,6.174,0,0,0,4.736,1.6c3.212-.593,3.089-3.041,3.289-5.89a10.464,10.464,0,0,0-.438-4.5A4.417,4.417,0,0,0,5.812.037,4.33,4.33,0,0,0,1.967,1.731,9.177,9.177,0,0,0,.281,5.745Z" transform="translate(25.16 70.018)" fill="#025157"/>
      <path id="Trazado_771759" data-name="Trazado 771759" d="M11.79,5.78a3.542,3.542,0,0,0-.161-1.2,3.693,3.693,0,0,0-.506-.847L9.886,2.03A5.5,5.5,0,0,0,8.291.383,3.545,3.545,0,0,0,5.326.268,7.87,7.87,0,0,0,2.8,1.975,9.392,9.392,0,0,0,.557,4.866c-2.008,4.406,1.759,9.9,5.748,11.768C12.065,19.329,11.831,8.841,11.79,5.78Z" transform="translate(10.063 52.366)" fill="#025157"/>
      <path id="Trazado_771760" data-name="Trazado 771760" d="M12.517,7.014a4.521,4.521,0,0,0-1.312-1.7C9.105,3.342,6.928,1.324,4.226.332A3.441,3.441,0,0,0,1.679.191C.448.739.09,2.3.018,3.644c-.191,3.5,1.135,8.537,5.258,9.264C8.057,13.4,13.685,10.388,12.517,7.014Z" transform="translate(0 31.76)" fill="#025157"/>
      <path id="Trazado_771761" data-name="Trazado 771761" d="M12.31,3.8C11.3,1.856,9.584-.095,7.4,0a6.9,6.9,0,0,0-3.759,1.88A9.332,9.332,0,0,0,.477,5.446,8,8,0,0,0,.023,7.833c-.357,4.941,3.471,9.567,8.849,8.474C14.422,15.179,14.332,7.7,12.31,3.8Z" transform="translate(8.705 7.9)" fill="#025157"/>
      <path id="Trazado_771762" data-name="Trazado 771762" d="M14.691,8.039A7.912,7.912,0,0,0,15.483,5.8a7.374,7.374,0,0,0-.653-3.549A3.558,3.558,0,0,0,13.441.239a3.388,3.388,0,0,0-3.078.388,38.037,38.037,0,0,0-8.323,6.5A7.54,7.54,0,0,0,.629,8.737,5.155,5.155,0,0,0,0,11.2c-.1,3.386,2.908,7.124,6.567,5.938C10.727,15.792,12.961,11.705,14.691,8.039Z" transform="translate(28.527 0)" fill="#025157"/>
      <path id="Trazado_771763" data-name="Trazado 771763" d="M9.479,8.178A6.907,6.907,0,0,0,11,6.331c.462-1.179-.26-2.5-1.164-3.387A11.629,11.629,0,0,0,5.619.456,4.725,4.725,0,0,0,2.556.147,3.573,3.573,0,0,0,.472,2.389,10.19,10.19,0,0,0,.022,5.51c-.094,2.566-.035,7.2,3.392,7.648C6.613,13.579,7.816,10.057,9.479,8.178Z" transform="translate(21.203 29.799)" fill="#025157"/>
      <path id="Trazado_771764" data-name="Trazado 771764" d="M14.288,5.014A4.905,4.905,0,0,0,10.945.244,8.1,8.1,0,0,0,7.181.2a9.786,9.786,0,0,0-2.975.907A8.511,8.511,0,0,0,.328,6.66a8.027,8.027,0,0,0-.172,3.789C1,14.1,5.574,15.815,8.963,14.739,12.76,13.534,14.124,8.524,14.288,5.014Z" transform="translate(39.163 23.491)" fill="#025157"/>
      <path id="Trazado_771765" data-name="Trazado 771765" d="M11.205,8.192a10.735,10.735,0,0,0,.267-3.021c-.009-1.357-.067-2.847-.971-3.858C9.517.213,7.876.056,6.4.015A11.237,11.237,0,0,0,3,.289,4.179,4.179,0,0,0,.35,2.3a4.186,4.186,0,0,0-.04,3.26c.87,2.389,2.923,4.97,5.5,5.562A4.546,4.546,0,0,0,11.205,8.192Z" transform="translate(52.18 43)" fill="#025157"/>
      <path id="Trazado_771766" data-name="Trazado 771766" d="M11.488,9.093A9.5,9.5,0,0,0,9.055,4.555C7.383,2.514,5.4.415,2.783.04A2.274,2.274,0,0,0,.836.489a2.291,2.291,0,0,0-.509.935,8.327,8.327,0,0,0,.2,5.18,21.25,21.25,0,0,0,2.436,4.661C4,12.872,5.817,15.552,8.1,14.957,10.292,14.382,11.761,11.155,11.488,9.093Z" transform="translate(30.915 47.982)" fill="#025157"/>
      <path id="Trazado_771767" data-name="Trazado 771767" d="M10.581,5.016A5.241,5.241,0,0,0,8.761.831,6.136,6.136,0,0,0,4.807.021,5.4,5.4,0,0,0,1.7.913,5.476,5.476,0,0,0,.084,4.855,13.34,13.34,0,0,0,.392,9.693c.7,2.463,3.316,5.706,6.088,4.083C9.207,12.18,10.657,7.98,10.581,5.016Z" transform="translate(49.732 63.186)" fill="#025157"/>
    </g>
  </g>
</svg>
