<svg xmlns="http://www.w3.org/2000/svg" xmlns:xlink="http://www.w3.org/1999/xlink" width="391.146" height="223.996" viewBox="0 0 391.146 223.996">
  <defs>
    <linearGradient id="linear-gradient" x1="-22.427" y1="-88.937" x2="-22.617" y2="-85.217" gradientUnits="objectBoundingBox">
      <stop offset="0" stop-color="#2b3582"/>
      <stop offset="1" stop-color="#150e42"/>
    </linearGradient>
    <linearGradient id="linear-gradient-2" x1="33.8" y1="-91.138" x2="33.579" y2="-88.029" xlink:href="#linear-gradient"/>
    <linearGradient id="linear-gradient-3" x1="-148.871" y1="-4.477" x2="-148.522" y2="-3.823" xlink:href="#linear-gradient"/>
    <linearGradient id="linear-gradient-4" x1="-433.098" y1="-8.891" x2="-432.877" y2="-9.98" gradientUnits="objectBoundingBox">
      <stop offset="0" stop-color="#f9b776"/>
      <stop offset="1" stop-color="#f47960"/>
    </linearGradient>
    <linearGradient id="linear-gradient-5" x1="-244.685" y1="-3.846" x2="-244.075" y2="-2.407" xlink:href="#linear-gradient"/>
    <linearGradient id="linear-gradient-6" x1="-70.453" y1="57.917" x2="-71.192" y2="60.354" xlink:href="#linear-gradient"/>
    <linearGradient id="linear-gradient-7" x1="-55.875" y1="0.134" x2="-56.275" y2="0.8" xlink:href="#linear-gradient"/>
    <linearGradient id="linear-gradient-8" x1="-573.711" y1="-0.304" x2="-575.551" y2="1.583" gradientUnits="objectBoundingBox">
      <stop offset="0" stop-color="#53d8ff"/>
      <stop offset="1" stop-color="#3840f7"/>
    </linearGradient>
  </defs>
  <g id="Grupo_1054491" data-name="Grupo 1054491" transform="translate(-180 -10321.296)">
    <path id="Trazado_771747" data-name="Trazado 771747" d="M75.885,286.937c12.407-2.332,13.633-12.552,15.151-24.745,3.716-29.86-2.7-61.023,5.765-89.826A87.962,87.962,0,0,1,118.35,135.6c7.926-8.043,17.307-14.379,25.628-21.983s15.8-16.971,18.128-28.2c3.366-16.262-4.6-33.33-1.263-49.6,2.475-12.064,10.929-22,20.6-29.2,4.836-3.6,10.393-6.766,16.349-6.613,8.158.208,15.147,6.78,18.557,14.452s3.938,16.332,4.389,24.765C223.8,96.5,225.71,153.981,221.788,211.2c-2.358,34.411-7.146,69.7-23.789,99.587-4.879,8.763-10.872,17.1-18.887,22.883-10.464,7.556-23.489,10.178-36.182,11.537-28.89,3.093-58.034.588-86.977-1.918-16.116-1.4-63.664,3.484-54.88-28.184,1.982-7.147,7.974-12.27,14.029-16.273,11.4-7.537,24.578-12.869,38.1-12.586,6.63.139,13.235,1.615,19.845,1.063A28.066,28.066,0,0,0,75.885,286.937Z" transform="translate(526.647 10321.296) rotate(90)" fill="#baefe4"/>
    <g id="Grupo_1054396" data-name="Grupo 1054396" transform="matrix(0.545, -0.839, 0.839, 0.545, 444.978, 10390.191)" opacity="0.62">
      <path id="Trazado_771758" data-name="Trazado 771758" d="M.363,7.414c-.541,2.622-.782,5.946,1.529,7.723C3.615,16.459,5.75,17.615,8.005,17.2c4.146-.765,3.987-3.924,4.245-7.6a13.5,13.5,0,0,0-.565-5.809A5.7,5.7,0,0,0,7.5.048,5.589,5.589,0,0,0,2.538,2.234,11.845,11.845,0,0,0,.363,7.414Z" transform="translate(32.47 90.362)" fill="#025157"/>
      <path id="Trazado_771759" data-name="Trazado 771759" d="M15.215,7.459a4.568,4.568,0,0,0-.208-1.554,4.768,4.768,0,0,0-.653-1.093q-.8-1.1-1.6-2.192A7.09,7.09,0,0,0,10.7.494,4.574,4.574,0,0,0,6.873.346a10.158,10.158,0,0,0-3.256,2.2A12.125,12.125,0,0,0,.719,6.28c-2.591,5.686,2.27,12.779,7.419,15.188C15.571,24.946,15.268,11.41,15.215,7.459Z" transform="translate(12.986 67.582)" fill="#025157"/>
      <path id="Trazado_771760" data-name="Trazado 771760" d="M16.154,9.051a5.833,5.833,0,0,0-1.693-2.2C11.751,4.313,8.941,1.709,5.455.428A4.441,4.441,0,0,0,2.166.246C.579.954.116,2.967.023,4.7-.223,9.225,1.488,15.72,6.809,16.658,10.4,17.29,17.661,13.406,16.154,9.051Z" transform="translate(0 40.988)" fill="#025157"/>
      <path id="Trazado_771761" data-name="Trazado 771761" d="M15.886,4.9C14.586,2.4,12.368-.123,9.546,0,7.707.088,6.135,1.286,4.695,2.431,3.072,3.722,1.382,5.1.616,7.029A10.313,10.313,0,0,0,.03,10.109c-.46,6.376,4.48,12.347,11.42,10.937C18.612,19.59,18.5,9.938,15.886,4.9Z" transform="translate(11.234 10.196)" fill="#025157"/>
      <path id="Trazado_771762" data-name="Trazado 771762" d="M18.959,10.375a10.213,10.213,0,0,0,1.022-2.888,9.514,9.514,0,0,0-.842-4.58,4.593,4.593,0,0,0-1.792-2.6c-1.221-.666-2.736-.138-3.972.5C9.325,2.9,5.95,6.07,2.634,9.2A9.729,9.729,0,0,0,.813,11.275,6.654,6.654,0,0,0,0,14.454c-.126,4.37,3.753,9.193,8.475,7.664C13.844,20.38,16.727,15.106,18.959,10.375Z" transform="translate(36.815 0)" fill="#025157"/>
      <path id="Trazado_771763" data-name="Trazado 771763" d="M12.233,10.554A8.918,8.918,0,0,0,14.2,8.171c.6-1.522-.336-3.227-1.5-4.371A15.007,15.007,0,0,0,7.252.588,6.1,6.1,0,0,0,3.3.19,4.611,4.611,0,0,0,.609,3.083,13.151,13.151,0,0,0,.028,7.111c-.121,3.311-.045,9.288,4.377,9.87C8.535,17.525,10.088,12.979,12.233,10.554Z" transform="translate(27.364 38.458)" fill="#025157"/>
      <path id="Trazado_771764" data-name="Trazado 771764" d="M18.439,6.471A6.331,6.331,0,0,0,14.125.315,10.457,10.457,0,0,0,9.268.259,12.629,12.629,0,0,0,5.428,1.43C2.78,2.841,1.167,5.689.423,8.6A10.36,10.36,0,0,0,.2,13.485C1.3,18.194,7.193,20.41,11.567,19.022,16.467,17.466,18.228,11,18.439,6.471Z" transform="translate(50.543 30.317)" fill="#025157"/>
      <path id="Trazado_771765" data-name="Trazado 771765" d="M14.461,10.572a13.852,13.852,0,0,0,.344-3.9C14.793,4.922,14.719,3,13.552,1.695,12.282.275,10.165.072,8.261.019A14.5,14.5,0,0,0,3.873.373,5.393,5.393,0,0,0,.452,2.966,5.4,5.4,0,0,0,.4,7.174c1.123,3.084,3.772,6.414,7.1,7.178A5.867,5.867,0,0,0,14.461,10.572Z" transform="translate(67.341 55.494)" fill="#025157"/>
      <path id="Trazado_771766" data-name="Trazado 771766" d="M14.825,11.735c-.295-2.225-1.718-4.118-3.139-5.856C9.528,3.244,6.963.536,3.592.052A2.935,2.935,0,0,0,1.079.631,2.958,2.958,0,0,0,.421,1.838,10.746,10.746,0,0,0,.678,8.522a27.434,27.434,0,0,0,3.143,6.015c1.339,2.074,3.686,5.533,6.626,4.765C13.283,18.561,15.178,14.4,14.825,11.735Z" transform="translate(39.898 61.923)" fill="#025157"/>
      <path id="Trazado_771767" data-name="Trazado 771767" d="M13.655,6.473a6.763,6.763,0,0,0-2.348-5.4A7.919,7.919,0,0,0,6.2.027,6.97,6.97,0,0,0,2.19,1.178C.709,2.346.278,4.388.109,6.266a17.213,17.213,0,0,0,.4,6.244c.9,3.178,4.279,7.364,7.857,5.269C11.882,15.719,13.753,10.3,13.655,6.473Z" transform="translate(64.182 81.545)" fill="#025157"/>
    </g>
    <g id="Grupo_56098" data-name="Grupo 56098" transform="translate(198.43 10331.932)">
      <g id="Grupo_55725" data-name="Grupo 55725" transform="translate(43.862)">
        <g id="Grupo_53859" data-name="Grupo 53859">
          <path id="Trazado_100591" data-name="Trazado 100591" d="M1679.8-1380.544a4.064,4.064,0,0,1-4.137-3.4l27.764-166.041a3.926,3.926,0,0,1,3.656-4.263,4.511,4.511,0,0,1,.481-.025h149.377a4.059,4.059,0,0,1,4.136,3.4l-27.763,166.041a3.927,3.927,0,0,1-3.659,4.262,4.457,4.457,0,0,1-.478.026Z" transform="translate(-1675.662 1564.792)" fill="#54494d"/>
          <path id="Trazado_100592" data-name="Trazado 100592" d="M1731.314-1380.544a4.062,4.062,0,0,1-4.137-3.4l-20.823-166.041a3.927,3.927,0,0,1,3.656-4.263,4.54,4.54,0,0,1,.482-.025h149.38a4.061,4.061,0,0,1,4.137,3.4l20.822,166.041a3.926,3.926,0,0,1-3.656,4.262,4.511,4.511,0,0,1-.481.026Z" transform="translate(-1678.597 1564.792)" fill="#736369"/>
          <path id="Trazado_100593" data-name="Trazado 100593" d="M1881.138-1383.982H1731.757l-20.823-166.041h149.382Z" transform="translate(-1679.038 1564.385)" fill="#fff2f6"/>
          <ellipse id="Elipse_3989" data-name="Elipse 3989" cx="4.89" cy="4.516" rx="4.89" ry="4.516" transform="translate(55.405 17.091)" fill="#54494d"/>
          <path id="Trazado_100594" data-name="Trazado 100594" d="M1739.8-1542.764a1.338,1.338,0,0,1-1.386-1.284,1.218,1.218,0,0,1,.286-.779,10.845,10.845,0,0,0,2.565-6.995c0-6.358-5.582-11.512-12.467-11.511a12.47,12.47,0,0,0-11.67,7.469,1.427,1.427,0,0,1-1.79.748,1.256,1.256,0,0,1-.809-1.652h0c2.957-7.279,11.743-10.964,19.624-8.234a14.163,14.163,0,0,1,9.888,13.176,13.265,13.265,0,0,1-3.133,8.555A1.431,1.431,0,0,1,1739.8-1542.764Z" transform="translate(-1679.374 1565.905)" fill="#736369"/>
          <ellipse id="Elipse_3990" data-name="Elipse 3990" cx="4.89" cy="4.516" rx="4.89" ry="4.516" transform="translate(90.804 17.091)" fill="#54494d"/>
          <path id="Trazado_100595" data-name="Trazado 100595" d="M1778.949-1542.764a1.339,1.339,0,0,1-1.387-1.284,1.225,1.225,0,0,1,.287-.779,10.85,10.85,0,0,0,2.564-6.995c0-6.358-5.582-11.512-12.467-11.511a12.47,12.47,0,0,0-11.67,7.469,1.426,1.426,0,0,1-1.789.748,1.256,1.256,0,0,1-.81-1.652c2.956-7.279,11.741-10.966,19.623-8.237a14.162,14.162,0,0,1,9.889,13.18,13.265,13.265,0,0,1-3.133,8.555A1.434,1.434,0,0,1,1778.949-1542.764Z" transform="translate(-1683.12 1565.905)" fill="#736369"/>
          <ellipse id="Elipse_3991" data-name="Elipse 3991" cx="4.889" cy="4.515" rx="4.889" ry="4.515" transform="translate(126.202 17.092)" fill="#54494d"/>
          <path id="Trazado_100596" data-name="Trazado 100596" d="M1818.093-1542.764a1.338,1.338,0,0,1-1.386-1.284,1.218,1.218,0,0,1,.286-.779,10.846,10.846,0,0,0,2.565-6.995c0-6.358-5.582-11.512-12.467-11.511a12.47,12.47,0,0,0-11.67,7.469,1.427,1.427,0,0,1-1.79.748,1.256,1.256,0,0,1-.809-1.652c2.955-7.279,11.741-10.966,19.623-8.237a14.163,14.163,0,0,1,9.889,13.18,13.275,13.275,0,0,1-3.133,8.555A1.436,1.436,0,0,1,1818.093-1542.764Z" transform="translate(-1686.867 1565.905)" fill="#736369"/>
          <ellipse id="Elipse_3992" data-name="Elipse 3992" cx="4.889" cy="4.515" rx="4.889" ry="4.515" transform="translate(161.6 17.092)" fill="#54494d"/>
          <path id="Trazado_100597" data-name="Trazado 100597" d="M1857.239-1542.764a1.338,1.338,0,0,1-1.386-1.284,1.217,1.217,0,0,1,.286-.779,10.851,10.851,0,0,0,2.564-6.995c0-6.358-5.582-11.512-12.467-11.511a12.471,12.471,0,0,0-11.671,7.469,1.426,1.426,0,0,1-1.79.748,1.255,1.255,0,0,1-.81-1.652c2.959-7.279,11.747-10.964,19.628-8.231a14.164,14.164,0,0,1,9.886,13.174,13.275,13.275,0,0,1-3.133,8.555A1.436,1.436,0,0,1,1857.239-1542.764Z" transform="translate(-1690.614 1565.905)" fill="#736369"/>
          <g id="Grupo_53857" data-name="Grupo 53857" transform="translate(69.195 47.15)">
            <path id="Trazado_100598" data-name="Trazado 100598" d="M1834.1-1399.755h-71.911l-10.01-88.062.123-.109a27.119,27.119,0,0,0,7.143-25.453l-.086-.385h6.838l.075.226c.061.181,6.01,17.828,16.7,22.155,4.6-1.643,10.9-13.333,10.551-21.923l-.014-.332h6.788l.028.292c.015.15,1.538,15.032,10.013,21.392l.091.069Zm-71.287-.64h70.406l-23.41-91.132c-8.063-6.138-9.89-19.28-10.143-21.471h-5.44c.2,9.03-6.3,20.708-11.153,22.264l-.126.04-.123-.048c-10.523-4.143-16.378-20.178-17.136-22.381h-5.477a27.785,27.785,0,0,1-7.3,25.548Z" transform="translate(-1752.181 1513.764)" fill="#736369"/>
            <path id="Trazado_106011" data-name="Trazado 106011" d="M1807.748-1469.712l18.462,72.19h-12.9Z" transform="translate(-1757.5 1509.548)" fill="none" stroke="#707070" stroke-width="1.041"/>
            <path id="Trazado_106012" data-name="Trazado 106012" d="M1780.412-1469.712l10.175,69.21h-10.175Z" transform="translate(-1754.883 1509.548)" fill="none" stroke="#707070" stroke-width="1.041"/>
          </g>
          <g id="Grupo_53858" data-name="Grupo 53858" transform="translate(126.232 47.316)">
            <rect id="Rectángulo_5089" data-name="Rectángulo 5089" width="22.995" height="0.641" fill="#736369"/>
            <rect id="Rectángulo_5090" data-name="Rectángulo 5090" width="22.995" height="0.641" transform="translate(31.928 113.453)" fill="#736369"/>
            <path id="Trazado_100599" data-name="Trazado 100599" d="M1863.537-1405.265l-3.123-.315a20.064,20.064,0,0,1,4.6,4.606,18.22,18.22,0,0,1,1.809-6.042l-2.618,1.6-27.04-102.966,3.122.316a20.021,20.021,0,0,1-4.6-4.606,18.253,18.253,0,0,1-1.809,6.042l2.618-1.6Z" transform="translate(-1817.037 1513.494)" fill="#736369"/>
          </g>
        </g>
        <g id="Grupo_53894" data-name="Grupo 53894" transform="translate(204.976 73.26)">
          <path id="Trazado_100604" data-name="Trazado 100604" d="M1935.684-1430.018c3.944,8.7,4.06,20.876,4.93,22.126a8.849,8.849,0,0,1,1.131,3.306s.957,17.954,2.523,22.39,2,7.83,1.566,8.092-7.917,1.393-9.309.435-6.438-4.521-7.918-7.658-4.959-16.792-4.959-17.835,2.524-11.394,3.046-13.745S1935.684-1430.018,1935.684-1430.018Z" transform="translate(-1884.174 1479.639)" fill="#f08741"/>
          <rect id="Rectángulo_5091" data-name="Rectángulo 5091" width="2.088" height="13.282" transform="translate(45.477 68.818)" fill="#3b3336"/>
          <path id="Trazado_100605" data-name="Trazado 100605" d="M1934.981-1430.292c3.393,6.4,4.175,17.618,4.046,18.01-6.656,4.177-13.05,3.263-13.18,2.741s-1.306-9.656-.131-12.136S1934.981-1430.292,1934.981-1430.292Z" transform="translate(-1884.322 1479.665)" fill="#54494d"/>
          <path id="Trazado_100606" data-name="Trazado 100606" d="M1930.6-1465.59c-.007.265-.53,2.151,2.777,3.948s7.569,5.365,6.989,9.658-6.554,10.671-6.554,10.671l-13.051-4.988s-3.944-10.789-3.306-12.76,2.611-1.74,4.408-2.726,1.885-3.8,1.885-3.8Z" transform="translate(-1883.574 1483.043)" fill="#54494d"/>
          <ellipse id="Elipse_3993" data-name="Elipse 3993" cx="3.425" cy="0.946" rx="3.425" ry="0.946" transform="translate(40.17 16.508)" fill="#3b3336"/>
          <rect id="Rectángulo_5092" data-name="Rectángulo 5092" width="0.87" height="2.263" transform="translate(43.161 15.181)" fill="#54494d"/>
          <path id="Trazado_100607" data-name="Trazado 100607" d="M1929.626-1468.992a1.587,1.587,0,0,1-1.588,1.586,1.585,1.585,0,0,1-1.586-1.587,1.587,1.587,0,0,1,1.587-1.587,1.588,1.588,0,0,1,1.587,1.588Z" transform="translate(-1884.443 1483.521)" fill="#3b3336"/>
          <path id="Trazado_100609" data-name="Trazado 100609" d="M1918.028-1460.742c-7.308.522-9.28,2.494-9.8,7.308s3.712,3.248,3.829,6.727,2.783,9.454,4.349,9.976c-2.261,3.654-5.509,20.36-5.568,26.564s-1.971,24.882-3.6,27.49-5.047,11.021-5.047,11.021,39.992.261,39.731,0c-1.972-1.8-4.521-12.528-6.38-19.024s-12.3-13.862-7.366-26.857,5.452-15.428,5.452-15.428a6.192,6.192,0,0,1-.348-3.19c.29-1.74,4.466-10.324,4.756-12.471C1921.682-1446.127,1917.739-1457.667,1918.028-1460.742Z" transform="translate(-1882.121 1482.579)" fill="#ffad54"/>
          <g id="Grupo_53874" data-name="Grupo 53874">
            <path id="Trazado_100610" data-name="Trazado 100610" d="M1895.486-1365.357a5.5,5.5,0,0,0-.174,2.553h14.877c-1.447-1.422-7.54-3.8-7.858-4.234S1895.486-1365.357,1895.486-1365.357Z" transform="translate(-1881.455 1473.616)" fill="#2b1710"/>
            <path id="Trazado_100611" data-name="Trazado 100611" d="M1899.223-1437.562s3.625,25.2,3.232,31.47-.173,32.193-.173,32.193c-1.61,1.653-7.788,2.479-8.265,2.261s-2.393-22.708-2.566-25.928-.61-28.014-.61-28.014l5.047-12.354Z" transform="translate(-1881.034 1480.396)" fill="#2e3b4a"/>
            <path id="Trazado_100612" data-name="Trazado 100612" d="M1881.963-1365.357a5.509,5.509,0,0,0-.173,2.553h14.876c-1.447-1.422-7.539-3.8-7.859-4.234S1881.963-1365.357,1881.963-1365.357Z" transform="translate(-1880.161 1473.616)" fill="#2b1710"/>
            <path id="Trazado_100613" data-name="Trazado 100613" d="M1885.366-1438.486s-3.175,5.5-3.872,10.151,1.7,21.924.914,23.142-1.479,13.4-2.089,19.489a73.287,73.287,0,0,0,0,13.744c4.175,1.653,9.483-2.087,9.483-2.087-.261-3.046,1.13-27.67,2.785-30.886s2.784-22.186,3.306-22.621c1.393-1.74.958-10.44.958-10.44Z" transform="translate(-1879.996 1480.449)" fill="#3b4b5e"/>
            <path id="Trazado_100614" data-name="Trazado 100614" d="M1885.933-1438.719a21.974,21.974,0,0,0,12.819.871c-.058-.639-.091-1.566-.091-1.566l-12.644-1.508Z" transform="translate(-1880.564 1480.682)" fill="#2b1710"/>
            <path id="Trazado_100615" data-name="Trazado 100615" d="M1887.627-1466.419s-4.379.841-5.6,4.843,2.669,12.006,3.075,14.152.463,3.888.521,4.06c3.422,3.364,12.645,1.507,12.645,1.507s-.523-1.913.232-2.2c2.842-.986,10.788-6.323,11.223-7.569l-.84-2.32s-8.99,2.581-9.048,2.407c0-.231.928-3.017.928-3.017l5.511.58a18.054,18.054,0,0,1,2.088-5.1s-8.178-3.306-10.382-4.465-3.527-1.871-3.527-1.871a16.128,16.128,0,0,1-2.392.014C1891.83-1465.52,1887.627-1466.419,1887.627-1466.419Z" transform="translate(-1880.168 1483.123)" fill="#86bec4"/>
            <path id="Trazado_100616" data-name="Trazado 100616" d="M1912.592-1450.848l-.842-2.32a20.97,20.97,0,0,1,1.74-3.626c.465-.377,2.437-1.564,3.046-1.479s3.248.668,3.248.668c-.753.522-3.016.232-3.1.319s-.668.609-.668.609a6.9,6.9,0,0,1,1.218-.291c.319,0,2.929.146,2.842.377a3.284,3.284,0,0,1-1.131.754c.145.232-1.073,1.189-1.073,1.189s.724-.2.668.029-.724.551-2.089,1.334S1914.3-1451.341,1912.592-1450.848Z" transform="translate(-1883.035 1482.344)" fill="#ff8762"/>
            <circle id="Elipse_3994" data-name="Elipse 3994" cx="3.349" cy="3.349" r="3.349" transform="translate(2.411 1.783)" fill="#2b1710"/>
            <path id="Trazado_100617" data-name="Trazado 100617" d="M1890.032-1473.672c-4.379-3.277-2.872-9.308-.493-10.527a7.651,7.651,0,0,1,6.293-.029c4.351.957,5.713,6.323,2.436,8.381S1890.032-1473.672,1890.032-1473.672Z" transform="translate(-1880.689 1484.891)" fill="#2b1710"/>
            <path id="Trazado_100618" data-name="Trazado 100618" d="M1895.856-1482.966c.13,3.527-4,4.916-5.395,4.916a.753.753,0,0,1,0,1.044c-1.085-.783-2.045-.391-2.045.871a1.842,1.842,0,0,0,1.392,1.827c.957,2.914.3,5.829-1.566,6.307a17.1,17.1,0,0,0,7.525,5.787,10.889,10.889,0,0,0-.7-4.785c-.261,0-1.13-.827-.979-1.457s.348-1.3.348-1.3a5.482,5.482,0,0,0,2.2-.391c.675-.413,1.582-2.632,1.958-5.039a11.053,11.053,0,0,0,.09-4.263A6.137,6.137,0,0,0,1895.856-1482.966Z" transform="translate(-1880.785 1484.706)" fill="#ff8762"/>
            <path id="Trazado_100619" data-name="Trazado 100619" d="M1895.5-1475.8c0,.4-.2.723-.445.723s-.445-.324-.445-.723.2-.724.445-.724S1895.5-1476.2,1895.5-1475.8Z" transform="translate(-1881.395 1484.09)" fill="#2b1710"/>
            <path id="Trazado_100620" data-name="Trazado 100620" d="M1899.055-1475.676c0,.4-.2.723-.445.723s-.446-.324-.446-.723.2-.724.446-.724S1899.055-1476.075,1899.055-1475.676Z" transform="translate(-1881.735 1484.078)" fill="#2b1710"/>
            <path id="Trazado_100621" data-name="Trazado 100621" d="M1893.343-1477.53a3.329,3.329,0,0,1,2.718-.37C1894.9-1478.738,1893.755-1478.586,1893.343-1477.53Z" transform="translate(-1881.273 1484.273)" fill="#2b1710"/>
            <path id="Trazado_100622" data-name="Trazado 100622" d="M1898.069-1477.714c1.382-.293,1.686.382,1.686.382a.9.9,0,0,0-.935-.855A.893.893,0,0,0,1898.069-1477.714Z" transform="translate(-1881.726 1484.249)" fill="#2b1710"/>
            <g id="Grupo_53861" data-name="Grupo 53861" transform="translate(15.45 6.985)">
              <path id="Trazado_100623" data-name="Trazado 100623" d="M1897.081-1473.313v-.084a6.474,6.474,0,0,0,1.1-.155,2.155,2.155,0,0,0-.156-.434c-.085-.2-.191-.458-.3-.769a2.933,2.933,0,0,1,.24-2.412l.077.032a2.834,2.834,0,0,0-.239,2.351c.11.309.215.562.3.766.153.367.205.492.128.535A5.9,5.9,0,0,1,1897.081-1473.313Z" transform="translate(-1897.081 1477.166)" fill="#2b1710"/>
            </g>
            <g id="Grupo_53862" data-name="Grupo 53862" transform="translate(8.224 7.721)">
              <path id="Trazado_100624" data-name="Trazado 100624" d="M1890.42-1474.267c-.6,0-.9-.324-.94-.664a.734.734,0,0,1,.642-.781.946.946,0,0,0-.408-.49.71.71,0,0,0-.594,0l-.03-.079a.753.753,0,0,1,.885.181,1.157,1.157,0,0,1,.236.4l.007.02h0a.063.063,0,0,1,0,.032l-.034.02h-.008a.657.657,0,0,0-.612.7c.031.3.308.633.989.583l.006.083C1890.513-1474.27,1890.465-1474.267,1890.42-1474.267Z" transform="translate(-1889.091 1476.353)" fill="#e0b3a8"/>
            </g>
            <g id="Grupo_53863" data-name="Grupo 53863" transform="translate(10 11.743)">
              <path id="Trazado_100625" data-name="Trazado 100625" d="M1894.317-1468.628a6.2,6.2,0,0,1-3.263-3.245l.077-.033a6.208,6.208,0,0,0,3.2,3.195Z" transform="translate(-1891.054 1471.905)" fill="#e0b3a8"/>
            </g>
            <g id="Grupo_53864" data-name="Grupo 53864" transform="translate(14.69 13.393)">
              <path id="Trazado_100626" data-name="Trazado 100626" d="M1896.769-1469.766a1.3,1.3,0,0,1-.528-.111l.034-.077a1.377,1.377,0,0,0,1.266-.126l.047.068A1.542,1.542,0,0,1,1896.769-1469.766Z" transform="translate(-1896.241 1470.08)" fill="#e0b3a8"/>
            </g>
            <path id="Trazado_100627" data-name="Trazado 100627" d="M1894.913-1471.681c1.073-.479,2.756-.827,2.77.1C1897.683-1470.581,1896.261-1469.768,1894.913-1471.681Z" transform="translate(-1881.424 1483.672)" fill="#ff4d4d"/>
            <g id="Grupo_53865" data-name="Grupo 53865" transform="translate(12.995 11.821)">
              <path id="Trazado_100628" data-name="Trazado 100628" d="M1896.439-1471.408a6.185,6.185,0,0,1-2.073-.33l.028-.08a7.08,7.08,0,0,0,3.572.174l.019.08A7.281,7.281,0,0,1,1896.439-1471.408Z" transform="translate(-1894.366 1471.818)" fill="#2b1710"/>
            </g>
            <circle id="Elipse_3995" data-name="Elipse 3995" cx="0.711" cy="0.711" r="0.711" transform="translate(8.617 10.222)" fill="#fff"/>
            <g id="Grupo_53866" data-name="Grupo 53866" transform="translate(32.572 26.451)">
              <path id="Trazado_100629" data-name="Trazado 100629" d="M1916.072-1454.394l-.057-.061a9.67,9.67,0,0,1,1.053-.876,10.438,10.438,0,0,1,2.017-.309l.006.083a10.752,10.752,0,0,0-1.984.3A9.82,9.82,0,0,0,1916.072-1454.394Z" transform="translate(-1916.015 1455.64)" fill="#e0b3a8"/>
            </g>
            <g id="Grupo_53867" data-name="Grupo 53867" transform="translate(2.486 19.917)">
              <path id="Trazado_100630" data-name="Trazado 100630" d="M1888.594-1460.4a4.777,4.777,0,0,0-5.823-2.067l-.026-.079a4.861,4.861,0,0,1,5.924,2.109Z" transform="translate(-1882.745 1462.866)" fill="#dedede"/>
            </g>
            <g id="Grupo_53868" data-name="Grupo 53868" transform="translate(10.074 26.081)">
              <path id="Trazado_100631" data-name="Trazado 100631" d="M1895.913-1449.114c-.28,0-4.146-5.738-4.777-6.9l.072-.04a68.218,68.218,0,0,0,4.712,6.853c.167,0,3.279-.814,4.464-1.13l.021.08C1900.23-1450.2,1896.139-1449.114,1895.913-1449.114Z" transform="translate(-1891.136 1456.049)" fill="#dedede"/>
            </g>
            <g id="Grupo_53869" data-name="Grupo 53869" transform="translate(14.245 33.27)">
              <path id="Trazado_100632" data-name="Trazado 100632" d="M1895.833-1446.564l-.084-.011c.023-.159.375-1.525.543-1.525h0c.037,0,.06.03.067.09.031.24.081.734.109,1.015a6.043,6.043,0,0,0,.242-1.009h.084a8.01,8.01,0,0,1-.307,1.231l-.061.192-.019-.2c0-.009-.085-.85-.129-1.2A7.676,7.676,0,0,0,1895.833-1446.564Z" transform="translate(-1895.749 1448.099)" fill="#dedede"/>
            </g>
            <g id="Grupo_53870" data-name="Grupo 53870" transform="translate(4.163 29.599)">
              <path id="Trazado_100633" data-name="Trazado 100633" d="M1895.615-1442.328a3.475,3.475,0,0,1-2.136-.551c-1.12-.9-8.8-9.143-8.879-9.223l.061-.057c.077.083,7.753,8.319,8.87,9.218,1.1.89,3.69.491,4.833.08l.027.08A9,9,0,0,1,1895.615-1442.328Z" transform="translate(-1884.6 1452.159)" fill="#dedede"/>
            </g>
            <g id="Grupo_53871" data-name="Grupo 53871" transform="translate(16.552 20.514)">
              <path id="Trazado_100634" data-name="Trazado 100634" d="M1902.081-1454.358H1902c0-.014,0-1.4-.091-2.08a9.816,9.816,0,0,0-1.388-2.3c-.668-.969-1.5-2.17-2.217-3.423l.072-.042c.715,1.246,1.546,2.45,2.214,3.417a9.437,9.437,0,0,1,1.4,2.341C1902.079-1455.76,1902.081-1454.371,1902.081-1454.358Z" transform="translate(-1898.3 1462.205)" fill="#dedede"/>
            </g>
            <rect id="Rectángulo_5093" data-name="Rectángulo 5093" width="0.667" height="2.146" transform="translate(12.707 41.674)" fill="#3b4b5e"/>
            <path id="Trazado_100635" data-name="Trazado 100635" d="M1887.253-1438.087h-.667v-2.519l.67.367Z" transform="translate(-1880.627 1480.652)" fill="#3b4b5e"/>
            <g id="Grupo_53873" data-name="Grupo 53873" transform="translate(2.499 74.888)">
              <g id="Grupo_53872" data-name="Grupo 53872">
                <path id="Trazado_100636" data-name="Trazado 100636" d="M1884.173-1400.182a3.468,3.468,0,0,1-1.413-.723l.128-.171c.663.492,1.26.765,1.331.674.036-.048.029-.069.028-.076-.028-.1-.335-.227-.6-.337l-.181-.076c-.283-.118-.312-.25-.287-.339.1-.352,1.188-.2,1.519-.147.39.065.512,0,.521-.026,0,0-.005-.033-.052-.079a2.541,2.541,0,0,0-1.989-.271l-.036-.21a2.459,2.459,0,0,1,2.242.408.24.24,0,0,1,.016.271c-.091.143-.346.181-.733.12a2.378,2.378,0,0,0-1.266-.009.494.494,0,0,0,.151.09l.181.074c.377.153.676.271.731.479a.293.293,0,0,1-.065.263A.252.252,0,0,1,1884.173-1400.182Z" transform="translate(-1882.76 1402.076)" fill="#dedede"/>
              </g>
            </g>
            <path id="Trazado_100637" data-name="Trazado 100637" d="M1891.277-1436.745c-.222,1.651-1.166,5.426-5.121,4.96a23.973,23.973,0,0,1,2.023-5.4l-.073-.04a30.587,30.587,0,0,0-3.079,13.534c0,2.678.24,7.188.452,11.169.2,3.667.38,7.132.262,7.356a.284.284,0,0,0-.145.162,1.87,1.87,0,0,0,.129,1.167c.1.235-.151.549-.444.911a4.741,4.741,0,0,0-.482.676c-.185.34-1.016,6.382-1.578,12.878-.515,5.954-.943,13.73-.05,16.965l.081-.023c-.89-3.223-.463-10.989.052-16.936.582-6.722,1.412-12.558,1.569-12.841a4.514,4.514,0,0,1,.475-.664c.308-.384.576-.716.452-.995a1.81,1.81,0,0,1-.129-1.1.2.2,0,0,1,.107-.119c.151-.061.086-1.728-.218-7.435-.213-3.979-.452-8.49-.452-11.164a32.938,32.938,0,0,1,1.025-8.014,5.783,5.783,0,0,0,.675.042c3.471,0,4.34-3.493,4.549-5.073Z" transform="translate(-1880.25 1480.328)" fill="#dedede"/>
          </g>
          <g id="Grupo_53888" data-name="Grupo 53888" transform="translate(46.855 44.544)">
            <g id="Grupo_53886" data-name="Grupo 53886" transform="translate(5.573)">
              <path id="Trazado_100638" data-name="Trazado 100638" d="M1968.59-1367.606a11.025,11.025,0,0,1,3.51,3.165,3.367,3.367,0,0,0-1.828,1.131h4.438s-2.088-7.975-2.146-8.469a14.007,14.007,0,0,0-4.785,1.508Z" transform="translate(-1940.826 1429.52)" fill="#2b1710"/>
              <path id="Trazado_100639" data-name="Trazado 100639" d="M1954.947-1389.626c-12.036,8.354-18.763,20.648-16.559,23.549s28.073-1.508,28.073-1.508c-.406-1.8-.753-4.988-.753-4.988s-13.8.581-13.863,0,4.93-2.841,10.5-5.8,7.714-7.482,6.439-10.963S1954.947-1389.626,1954.947-1389.626Z" transform="translate(-1937.973 1431.356)" fill="#86bec4"/>
              <path id="Trazado_100640" data-name="Trazado 100640" d="M1952.469-1435.547c-4.235-.406-4.38,4.553-3.6,7.163s-2.812,8,.145,11.136a9.122,9.122,0,0,0,8.933,2.233c1.653-.523,5.6-3.6,5.6-3.6-1.682-4.93-1.334-6.206-1.769-10.381S1958.851-1436.184,1952.469-1435.547Z" transform="translate(-1938.917 1435.632)" fill="#2b1710"/>
              <path id="Trazado_100641" data-name="Trazado 100641" d="M1955.206-1392.29c6,3.915,14.181,2.523,14.877.174-1.13-14.181-4.292-23.578-8.235-26.362-3.6-1.391-4.9,2.2-4.9,2.2s-.523,1.276-.61,1.628c-1.479,2.176-10.7,7.4-14.093,7.831a17.476,17.476,0,0,1,1.131,3.306c1.217.26,9.831.09,9.831.09a24.439,24.439,0,0,0,1.7,3.654c-4.959-.043-11.919.957-14.007.174a21.29,21.29,0,0,0-.217,3.392c.957.565,13.962,2.393,14.486,2.393A10.094,10.094,0,0,1,1955.206-1392.29Z" transform="translate(-1938.232 1434.021)" fill="#3b4b5e"/>
              <path id="Trazado_100642" data-name="Trazado 100642" d="M1952.885-1421.592c.117.2.871.319,1.885-.09,1.683.145,2.117,1.827,3.074,4.031,0,0,.724-1.944,4.9-2.2.291,0-4.322-3.364-3.6-6.467a2.461,2.461,0,0,0,.091-2.929c-.693-.724-2.176-.724-2.176.87a4.277,4.277,0,0,1-.463-1.16s-4.148-.667-4.437-3.625c-1.683,1.682-1.508,3.045-1.247,3.944a3.057,3.057,0,0,1,.09,1.885,15,15,0,0,1-.957,1.566c.09.145.987.29.987.29.145.09.232.522.232.609,0,.2.025.362.34.6-.2.522.24,1.077.381,1.055.392.022.783.674.783,1.085A.869.869,0,0,0,1952.885-1421.592Z" transform="translate(-1939.129 1435.396)" fill="#ff8762"/>
              <path id="Trazado_100643" data-name="Trazado 100643" d="M1952.408-1427.833c0,.4.154.723.345.723s.343-.324.343-.723-.154-.724-.343-.724S1952.408-1428.231,1952.408-1427.833Z" transform="translate(-1939.355 1434.955)" fill="#2b1710"/>
              <g id="Grupo_53875" data-name="Grupo 53875" transform="translate(18.378 6.542)">
                <path id="Trazado_100644" data-name="Trazado 100644" d="M1958.687-1426.018c.55-.24.7-.659.594-.985a.735.735,0,0,0-.9-.457.953.953,0,0,1,.176-.613.7.7,0,0,1,.543-.241v-.084a.752.752,0,0,0-.739.517,1.149,1.149,0,0,0-.057.457v.02h0a.05.05,0,0,0,.013.029l.038,0h.005a.656.656,0,0,1,.84.391c.09.288-.026.705-.671.931l.027.08A.725.725,0,0,0,1958.687-1426.018Z" transform="translate(-1958.296 1428.397)" fill="#e0b3a8"/>
              </g>
              <g id="Grupo_53876" data-name="Grupo 53876" transform="translate(16.075 8.783)">
                <path id="Trazado_100645" data-name="Trazado 100645" d="M1955.81-1421.309l-.06-.09a5.028,5.028,0,0,0,2.562-3.869v-.058h.058a.968.968,0,0,0,1.074-.592l.106.033a1.085,1.085,0,0,1-1.131.673A5.2,5.2,0,0,1,1955.81-1421.309Z" transform="translate(-1955.75 1425.919)" fill="#e0b3a8"/>
              </g>
              <path id="Trazado_100646" data-name="Trazado 100646" d="M1951.324-1429.685a6.114,6.114,0,0,1,2.581.289C1952.338-1430.57,1951.207-1430.526,1951.324-1429.685Z" transform="translate(-1939.25 1435.122)" fill="#2b1710"/>
              <path id="Trazado_100647" data-name="Trazado 100647" d="M1953.525-1423.995a13.31,13.31,0,0,0-2.14-.048.323.323,0,0,1,0,.043c0,.2.025.363.341.6a.922.922,0,0,0,.354,1.052A3.807,3.807,0,0,0,1953.525-1423.995Z" transform="translate(-1939.257 1434.525)" fill="#ff4d4d"/>
              <g id="Grupo_53878" data-name="Grupo 53878" transform="translate(12.659 10.201)">
                <g id="Grupo_53877" data-name="Grupo 53877">
                  <path id="Trazado_100648" data-name="Trazado 100648" d="M1951.988-1423.392l-.016-.109a3.043,3.043,0,0,0,1.9-.85l.09.07A3.1,3.1,0,0,1,1951.988-1423.392Z" transform="translate(-1951.972 1424.351)" fill="#2b1710"/>
                </g>
              </g>
              <g id="Grupo_53879" data-name="Grupo 53879" transform="translate(18.877 16.609)">
                <path id="Trazado_100649" data-name="Trazado 100649" d="M1958.959-1412.888l-.111-.014c.006-.045.619-4.573,4.67-4.355l-.006.111C1959.565-1417.355,1958.965-1412.931,1958.959-1412.888Z" transform="translate(-1958.848 1417.265)" fill="#dedede"/>
              </g>
              <g id="Grupo_53880" data-name="Grupo 53880" transform="translate(15.364 21.46)">
                <path id="Trazado_100650" data-name="Trazado 100650" d="M1955.054-1403.171l-.091-.061a25.559,25.559,0,0,0,2.17-8.669h.111A25.861,25.861,0,0,1,1955.054-1403.171Z" transform="translate(-1954.963 1411.901)" fill="#dedede"/>
              </g>
              <g id="Grupo_53881" data-name="Grupo 53881" transform="translate(17.662 24.85)">
                <path id="Trazado_100651" data-name="Trazado 100651" d="M1957.614-1398.7l-.11-.01c.008-.09.826-8.661.783-9.432l.111-.005C1958.44-1407.374,1957.647-1399.058,1957.614-1398.7Z" transform="translate(-1957.504 1408.152)" fill="#dedede"/>
              </g>
              <g id="Grupo_53882" data-name="Grupo 53882" transform="translate(17.49 29.366)">
                <path id="Trazado_100652" data-name="Trazado 100652" d="M1958.713-1392.116c-.814,0-1.386-.056-1.4-.056l.01-.112a13.285,13.285,0,0,0,5.021-.475c1.948-.762,3.086-10.3,3.1-10.4l.11.013c-.046.4-1.158,9.7-3.165,10.49A10.8,10.8,0,0,1,1958.713-1392.116Z" transform="translate(-1957.314 1403.158)" fill="#dedede"/>
              </g>
              <g id="Grupo_53883" data-name="Grupo 53883" transform="translate(9.48 44.211)">
                <path id="Trazado_100653" data-name="Trazado 100653" d="M1949.558-1369.082c-.326,0-.373-.142-.425-.4a1.775,1.775,0,0,0-.5-.97.774.774,0,0,1-.16-.645c.18-1.554,2.908-4.749,5.622-6.573,1.975-1.329,8.481-5.909,9.257-9.074l.108.026c-.763,3.116-6.761,7.43-9.3,9.14-2.949,1.983-5.418,5.119-5.573,6.494a.675.675,0,0,0,.131.556,1.9,1.9,0,0,1,.53,1.024c.055.271.072.349.524.293.167-.021.33-.043.491-.066a9.4,9.4,0,0,1,2.422-.109c1.143.115,13.326-.4,13.449-.406l0,.111c-.5.023-12.314.522-13.464.406a9.275,9.275,0,0,0-2.395.108c-.163.024-.326.047-.492.066A1.535,1.535,0,0,1,1949.558-1369.082Z" transform="translate(-1948.456 1386.741)" fill="#dedede"/>
              </g>
              <g id="Grupo_53884" data-name="Grupo 53884" transform="translate(20.193 43.493)">
                <path id="Trazado_100654" data-name="Trazado 100654" d="M1961.946-1382.979a2.009,2.009,0,0,1-1.481-1.374,3.354,3.354,0,0,1,.622-3.183l.091.071a3.237,3.237,0,0,0-.6,3.075,1.9,1.9,0,0,0,1.4,1.3Z" transform="translate(-1960.303 1387.536)" fill="#dedede"/>
              </g>
              <g id="Grupo_53885" data-name="Grupo 53885" transform="translate(10.298 58.681)">
                <path id="Trazado_100655" data-name="Trazado 100655" d="M1950.593-1368.511a.118.118,0,0,1-.113-.057c-.134-.231.713-1.176,1.133-1.463a.5.5,0,0,0,.106-.09,5.6,5.6,0,0,0-1.793.49c-.281.118-.459.145-.531.081a.1.1,0,0,1-.028-.1c.059-.216.887-.755,2.615-1.085l.021.109a4.607,4.607,0,0,0-2.532.995.847.847,0,0,0,.409-.1c.64-.267,1.838-.641,1.947-.44.044.08-.053.163-.154.232-.511.354-1.162,1.2-1.1,1.316a.028.028,0,0,0,.017,0,.529.529,0,0,0,.2-.065,4.772,4.772,0,0,0,1.331-.945l.082.075a4.794,4.794,0,0,1-1.365.969A.641.641,0,0,1,1950.593-1368.511Z" transform="translate(-1949.361 1370.74)" fill="#dedede"/>
              </g>
            </g>
            <path id="Trazado_100656" data-name="Trazado 100656" d="M1939.938-1394.7l.2-3.323a20.887,20.887,0,0,0-1.741-3.625c-.464-.376-2.436-1.566-3.044-1.479s-3.248.667-3.248.667c.753.522,3.015.231,3.1.319s.667.609.667.609a6.878,6.878,0,0,0-1.217-.29c-.319,0-2.929.146-2.842.377a3.3,3.3,0,0,0,1.131.754c-.145.232,1.073,1.189,1.073,1.189s-.724-.2-.667.029.723.552,2.089,1.335S1938.226-1395.188,1939.938-1394.7Z" transform="translate(-1931.811 1432.521)" fill="#ff8762"/>
            <g id="Grupo_53887" data-name="Grupo 53887" transform="translate(1.39 31.777)">
              <path id="Trazado_100657" data-name="Trazado 100657" d="M1936.368-1399.244l.058-.06a9.527,9.527,0,0,0-1.052-.876,10.353,10.353,0,0,0-2.019-.311l-.007.084a10.668,10.668,0,0,1,1.985.3A9.654,9.654,0,0,1,1936.368-1399.244Z" transform="translate(-1933.348 1400.492)" fill="#e0b3a8"/>
            </g>
          </g>
          <path id="Trazado_100658" data-name="Trazado 100658" d="M1919.272-1434.284a39.619,39.619,0,0,0,15.183.565C1925.536-1429.5,1919.794-1433.765,1919.272-1434.284Z" transform="translate(-1883.755 1480.047)" fill="#54494d"/>
          <g id="Grupo_53889" data-name="Grupo 53889" transform="translate(34.926 30.614)">
            <path id="Trazado_100659" data-name="Trazado 100659" d="M1931.485-1444.438a19.527,19.527,0,0,1-3.157-.253,15.139,15.139,0,0,1-5.16-1.795,12.6,12.6,0,0,1-4.549-4.521l.048-.028a13.414,13.414,0,0,0,9.67,6.294,19.21,19.21,0,0,0,5.961.044l.011.054A17.172,17.172,0,0,1,1931.485-1444.438Z" transform="translate(-1918.619 1451.036)" fill="#dedede"/>
          </g>
          <g id="Grupo_53890" data-name="Grupo 53890" transform="translate(35.847 38.435)">
            <path id="Trazado_100660" data-name="Trazado 100660" d="M1925.9-1439.956a10.167,10.167,0,0,1-6.268-2l.034-.044a10.956,10.956,0,0,0,8.641,1.774,11.248,11.248,0,0,0,5.285-2.16l.042.036a11.277,11.277,0,0,1-5.318,2.178A13.975,13.975,0,0,1,1925.9-1439.956Z" transform="translate(-1919.637 1442.387)" fill="#dedede"/>
          </g>
          <g id="Grupo_53891" data-name="Grupo 53891" transform="translate(39.853 54.845)">
            <path id="Trazado_100661" data-name="Trazado 100661" d="M1927.406-1397.07c-3.1-3.948-5.2-13.432-.918-27.171l.054.016c-4.279,13.717-2.185,23.181.9,27.119Z" transform="translate(-1924.067 1424.241)" fill="#dedede"/>
          </g>
          <g id="Grupo_53892" data-name="Grupo 53892" transform="translate(30.269 76.78)">
            <path id="Trazado_100662" data-name="Trazado 100662" d="M1913.522-1371.135l-.053-.018c2.09-6.064,2.9-13.58,3.212-18.816.339-5.675.181-9.972.181-10.014h.056c0,.042.159,4.341-.18,10.019C1916.425-1384.727,1915.613-1377.206,1913.522-1371.135Z" transform="translate(-1913.469 1399.984)" fill="#dedede"/>
          </g>
          <g id="Grupo_53893" data-name="Grupo 53893" transform="translate(40.575 91.132)">
            <path id="Trazado_100663" data-name="Trazado 100663" d="M1926.1-1368.448h-.055a62.182,62.182,0,0,0-1.176-15.651l.054-.014A62.219,62.219,0,0,1,1926.1-1368.448Z" transform="translate(-1924.866 1384.113)" fill="#dedede"/>
          </g>
        </g>
      </g>
      <g id="Grupo_56092" data-name="Grupo 56092" transform="translate(0 135.88)">
        <g id="Grupo_56090" data-name="Grupo 56090" transform="translate(6.704)">
          <g id="Grupo_56089" data-name="Grupo 56089">
            <path id="Trazado_106972" data-name="Trazado 106972" d="M1723.126-1397.071h-81.2v-15.657h81.2C1721.388-1412.728,1721.388-1397.071,1723.126-1397.071Z" transform="translate(-1635.275 1416.268)" fill="#fff8d5"/>
            <path id="Trazado_106973" data-name="Trazado 106973" d="M1641.218-1401.363v-7.166c0-2.526,1.6-4.574,3.584-4.574h77.279a2.768,2.768,0,0,0,2.819-2.715.842.842,0,0,0-.856-.826h-84.459c-1.936,0-5.011,2.933-5.011,6.552v10.007c0,3.412,2.985,6.178,4.812,6.178H1723.6a1.277,1.277,0,0,0,1.3-1.253,2.331,2.331,0,0,0-2.374-2.287h-78.237C1642.592-1397.446,1641.218-1399.2,1641.218-1401.363Z" transform="translate(-1634.571 1416.643)" fill="#ffad54"/>
          </g>
          <path id="Trazado_106974" data-name="Trazado 106974" d="M1644.379-1408.907h76.141a.3.3,0,0,0,.3-.3.3.3,0,0,0-.3-.3h-76.141a.3.3,0,0,0-.3.3A.3.3,0,0,0,1644.379-1408.907Z" transform="translate(-1635.481 1415.96)" fill="#fff"/>
          <path id="Trazado_106975" data-name="Trazado 106975" d="M1644.379-1406.337h76.141a.3.3,0,0,0,.3-.3.3.3,0,0,0-.3-.3h-76.141a.3.3,0,0,0-.3.3A.3.3,0,0,0,1644.379-1406.337Z" transform="translate(-1635.481 1415.714)" fill="#fff"/>
          <path id="Trazado_106976" data-name="Trazado 106976" d="M1644.379-1403.768h76.141a.3.3,0,0,0,.3-.3.3.3,0,0,0-.3-.3h-76.141a.3.3,0,0,0-.3.3A.3.3,0,0,0,1644.379-1403.768Z" transform="translate(-1635.481 1415.468)" fill="#fff"/>
          <path id="Trazado_106977" data-name="Trazado 106977" d="M1644.379-1401.2h76.141a.3.3,0,0,0,.3-.3.3.3,0,0,0-.3-.3h-76.141a.3.3,0,0,0-.3.3A.3.3,0,0,0,1644.379-1401.2Z" transform="translate(-1635.481 1415.222)" fill="#fff"/>
          <path id="Trazado_106978" data-name="Trazado 106978" d="M1644.379-1398.628h76.141a.3.3,0,0,0,.3-.3.3.3,0,0,0-.3-.3h-76.141a.3.3,0,0,0-.3.3A.3.3,0,0,0,1644.379-1398.628Z" transform="translate(-1635.481 1414.976)" fill="#fff"/>
        </g>
        <g id="Grupo_56091" data-name="Grupo 56091" transform="translate(0 22.571)">
          <rect id="Rectángulo_5734" data-name="Rectángulo 5734" width="108.378" height="26.161" rx="2.104" transform="translate(108.378 26.161) rotate(-180)" fill="#ff9696"/>
          <rect id="Rectángulo_5735" data-name="Rectángulo 5735" width="4.777" height="20.147" rx="0.579" transform="translate(81.525 23.154) rotate(-180)" fill="#e68f8f"/>
          <rect id="Rectángulo_5736" data-name="Rectángulo 5736" width="4.777" height="20.147" rx="0.579" transform="translate(89.3 23.154) rotate(-180)" fill="#e68f8f"/>
        </g>
      </g>
      <g id="Grupo_56097" data-name="Grupo 56097" transform="translate(56.174 73.207)">
        <path id="Trazado_106979" data-name="Trazado 106979" d="M1750.36-1393.464c-.037-.014-20.273-35.453-23.008-38.787a2.12,2.12,0,0,0-1.893-.761l-5.648.673-6.636,14.356,11.055-6.439c-1.094,7.565,13.107,18.808,17.977,22.91a1.119,1.119,0,0,1,.089,1.63l-1.944,2.036a22.326,22.326,0,0,0,11.033,6.274Z" transform="translate(-1687.361 1480.884)" fill="#e57557"/>
        <path id="Trazado_106980" data-name="Trazado 106980" d="M1744.288-1395.338a2.86,2.86,0,0,0-1.66,1.507,1.263,1.263,0,0,0,.475,1.457c2.044,1.464,8.784,6.191,11.894,7.116a.352.352,0,0,0,.44-.414,11.194,11.194,0,0,0-2.339-4.278l.149.3a.432.432,0,0,1-.6.571C1750.568-1390.253,1746.331-1392.823,1744.288-1395.338Z" transform="translate(-1690.172 1477.276)" fill="url(#linear-gradient)"/>
        <path id="Trazado_106981" data-name="Trazado 106981" d="M1742.251-1384.341c-.034-.022-3.07-7.337-3.1-7.359a128.793,128.793,0,0,0-11.578-35.282,2.118,2.118,0,0,0-1.7-1.128l-5.667-.485-9.4,12.715,12.129-4.068c-2.6,7.187,9.029,21.072,12.968,26.074a1.12,1.12,0,0,1-.242,1.614l-2.317,1.6a22.333,22.333,0,0,0,9.536,8.377Z" transform="translate(-1687.133 1480.459)" fill="#ff8762"/>
        <path id="Trazado_106982" data-name="Trazado 106982" d="M1736.962-1387.582a2.863,2.863,0,0,0-1.932,1.139,1.265,1.265,0,0,0,.171,1.524c1.7,1.847,7.349,7.839,10.208,9.376a.352.352,0,0,0,.516-.317,11.216,11.216,0,0,0-1.425-4.662l.085.326a.433.433,0,0,1-.7.438C1742.083-1381.332,1738.453-1384.706,1736.962-1387.582Z" transform="translate(-1689.435 1476.534)" fill="url(#linear-gradient-2)"/>
        <g id="Grupo_56093" data-name="Grupo 56093" transform="translate(0.934 48.962)">
          <path id="Trazado_106983" data-name="Trazado 106983" d="M1691.267-1431.58s-5.127,7.626-5.548,11.1,1.417,4.681,6.784,5.125c15.969,1.319,23.842-3.466,23.842-3.466,1.092-6.966,1.869-8.737,10.993-12.524,0,0-11.54.916-13.862.015S1691.267-1431.58,1691.267-1431.58Z" transform="translate(-1685.661 1431.804)" fill="#3b4b5e"/>
        </g>
        <g id="Grupo_56095" data-name="Grupo 56095">
          <path id="Trazado_106984" data-name="Trazado 106984" d="M1706.8-1481.274s-2.546,1.019-3.1,2.361c-.442,1.076-3.172,1.023-3.6,3.172a2.5,2.5,0,0,1-2.24,2.037c-2.808.226-7.192,1.36-8.223,6.133-.788,3.643.988,5.173,2.923,5.8a2.8,2.8,0,0,1,1.884,3.374c-.382,1.381-.08,3.03,2.254,4.484,5.231,3.26,11.356-6.015,11.356-6.015l2.327-16.8Z" transform="translate(-1685.09 1485.502)" fill="url(#linear-gradient-3)"/>
          <path id="Trazado_106985" data-name="Trazado 106985" d="M1705.176-1435.6a117.1,117.1,0,0,0,8.909-9.451,7.987,7.987,0,0,0,1.353-7.19,99.021,99.021,0,0,0-3.944-9.932c-.333-1.117-7.028-1.071-7.028-1.071s-13.173,8.55-18.349,23.032l5.813,1.811a67.925,67.925,0,0,1,6.838-9.44s-5.881,7.769-6.088,10.949Z" transform="translate(-1684.771 1483.776)" fill="#ffad54"/>
          <path id="Trazado_106986" data-name="Trazado 106986" d="M1716.409-1430.917l-4.486-4.881-5.182,1.4s-6.041.936-9.5,0l-3.457-.936-7.812-2.432-1.227,3.468a2.089,2.089,0,0,0,.763,2.4,13.8,13.8,0,0,0,1.973,1.229c1.028.449,23.7.142,23.7.142Z" transform="translate(-1684.628 1481.338)" fill="#ff8762"/>
          <path id="Trazado_106987" data-name="Trazado 106987" d="M1709.761-1472.651l-3.24,8.788c.3,1.826,4.9,1.877,5.608.787a1.064,1.064,0,0,0,.141-.369l1.457-6.871a1.251,1.251,0,0,0-.636-1.363l-1.789-.952C1710.614-1473,1710-1473.395,1709.761-1472.651Z" transform="translate(-1686.724 1484.716)" fill="url(#linear-gradient-4)"/>
          <g id="Grupo_56094" data-name="Grupo 56094" transform="translate(18.653)">
            <path id="Trazado_106988" data-name="Trazado 106988" d="M1714.628-1481.584a9.9,9.9,0,0,1,2.981,5.939c.725,4.162-1.036,5.51-2.728,5.3a7.9,7.9,0,0,1-6.038-4C1706.92-1477.435,1711.66-1483.769,1714.628-1481.584Z" transform="translate(-1705.556 1485.574)" fill="#ff8762"/>
            <path id="Trazado_106989" data-name="Trazado 106989" d="M1710.812-1476.217s-.448-5.922,4.352-4.676l.911,1.1s2.574-2.51.085-4.727-6.184-1.96-8.472,1.584-3.209,6.085-1.678,8.5,2.947.54,2.947.54-.635-2.04.072-2.846,1.442.6,1.442.6Z" transform="translate(-1705.255 1485.949)" fill="url(#linear-gradient-5)"/>
            <path id="Trazado_106990" data-name="Trazado 106990" d="M1710.368-1474.941s-.212-3.046-1.814-2.294.353,2.856,1.144,3.582Z" transform="translate(-1705.512 1485.126)" fill="#ff8762"/>
          </g>
        </g>
        <g id="Grupo_56096" data-name="Grupo 56096" transform="translate(16.054 33.618)">
          <path id="Trazado_106991" data-name="Trazado 106991" d="M1703.258-1428.253h.047l20.635-.022a.923.923,0,0,0,.922-.924.918.918,0,0,0-.924-.922l-20.635.023a.922.922,0,0,0-.922.924A.923.923,0,0,0,1703.258-1428.253Z" transform="translate(-1702.381 1446.988)" fill="url(#linear-gradient-6)"/>
          <path id="Trazado_106992" data-name="Trazado 106992" d="M1743.762-1448.773h-17.185a3.275,3.275,0,0,0-2.961,1.878l-7.945,16.846h21.356a1.991,1.991,0,0,0,1.851-1.259l6.16-15.589A1.372,1.372,0,0,0,1743.762-1448.773Z" transform="translate(-1703.653 1448.773)" fill="url(#linear-gradient-7)"/>
          <path id="Trazado_106993" data-name="Trazado 106993" d="M1733.329-1439.4c-.373,1.156-.1,2.281.614,2.509s1.591-.524,1.963-1.68.1-2.281-.614-2.509S1733.7-1440.561,1733.329-1439.4Z" transform="translate(-1705.327 1448.041)" fill="url(#linear-gradient-8)"/>
        </g>
      </g>
      <path id="Trazado_100077" data-name="Trazado 100077" d="M1715.008-1476.045c0,.361.157.653.353.653s.353-.292.353-.653-.157-.653-.353-.653S1715.008-1476.406,1715.008-1476.045Z" transform="translate(-1630.46 1557.367)" fill="#2b1710"/>
      <path id="Trazado_100078" data-name="Trazado 100078" d="M1713.973-1477.739a8.1,8.1,0,0,1,2.577-.83C1715.686-1479.152,1714.98-1479.031,1713.973-1477.739Z" transform="translate(-1630.391 1557.578)" fill="#2b1710"/>
      <g id="Grupo_53645" data-name="Grupo 53645" transform="translate(85.696 84.938)">
        <path id="Trazado_100079" data-name="Trazado 100079" d="M1718.146-1471.537l-.007-.09a3.221,3.221,0,0,1-1.909-.35l-.051.075A3.232,3.232,0,0,0,1718.146-1471.537Z" transform="translate(-1716.179 1471.977)" fill="#2b1710"/>
      </g>
      <path id="Trazado_106994" data-name="Trazado 106994" d="M1717.792-1477.616l2.019,3.427-1.289.865Z" transform="translate(-1630.542 1558.359)" fill="#ff8762"/>
    </g>
    <path id="Trazado_771804" data-name="Trazado 771804" d="M8.061,899.526c-5.124-10.11-10.158-20.694-19.3-28.158s-23.77-10.813-33.913-4.486c-6.808,4.247-10.089,11.69-15.485,17.348-4.635,4.86-10.767,8.332-16.123,12.549s-10.175,9.674-10.678,16.066c-.823,10.456,9.846,18.608,20.216,23.364a125.489,125.489,0,0,0,58.03,11.04c10.129-.5,37.931-4.1,38.359-17.087.17-5.141-7.01-9.16-10.147-12.835C14.437,911.956,11.169,905.657,8.061,899.526Z" transform="translate(267.481 9585.54)" fill="#f5947a"/>
  </g>
</svg>
