<svg xmlns="http://www.w3.org/2000/svg" width="620" height="310.415" viewBox="0 0 620 310.415">
  <g id="Grupo_1055045" data-name="Grupo 1055045" transform="translate(-800 -7322)">
    <path id="Rectángulo_362221" data-name="Rectángulo 362221" d="M21,0H599a21,21,0,0,1,21,21V310.415a0,0,0,0,1,0,0H0a0,0,0,0,1,0,0V21A21,21,0,0,1,21,0Z" transform="translate(800 7322)" fill="#f5947a" opacity="0.58"/>
    <g id="Grupo_56039" data-name="Grupo 56039" transform="translate(945.08 7327.329)">
      <g id="Grupo_56038" data-name="Grupo 56038">
        <path id="Trazado_106646" data-name="Trazado 106646" d="M-6226.394,6446.5l7.478-8.973s21.619-2.448,32.225,6.527,30.185,37.526,32.088,40.518,38.617,37.8,38.617,37.8l3.262,1.9s49.221-18.219,54.659-20.938,36.169-21.484,36.169-21.484,15.091-11.965,16.724-12.78a29.338,29.338,0,0,1,5.711-1.5s11.014-2.4,11.422-2.355,6.526-2,7.886,3.169,0,3.129,0,3.129,5.982-.137,6.253,3.942-2.855,4.623-2.855,4.623,1.633,5.167.409,6.663l-1.088,1.089s4.487,5.03,1.224,6.662-2.992,2.176-3.671,2.447-7.069,3.808-7.069,3.808l-20.533,3.127-8.565,1.223-34.672,24.339s-26.242,15.772-28.824,17.4-20.8,8.975-25.02,11.829-7.615,5.44-11.83,3.265-34.671-22.844-34.671-22.844l-30.186-22.435-13.732-18.354-1.632-2.991s-3.622,13.393-5.482,13.834-27.56-6.53-27.56-9.164-5.167-27.651-5.167-27.651Z" transform="translate(6362.092 -6305.544)" fill="#d3d3d3"/>
        <path id="Trazado_106647" data-name="Trazado 106647" d="M-6266.584,6425.842s-13.6-4.2-17.947-3.923-23.66,4.623-25.835,8.429-8.975,24.2-9.791,30.187-2.175,53.571-2.175,53.571v29.914l-2.176,32.633,1.9,40.4h23.658l3.381-50.73,1.515-38.886,2.445-19.852s12.238-29.642,13.325-32.089S-6266.584,6425.842-6266.584,6425.842Z" transform="translate(6324.507 -6311.962)" fill="#d3d3d3"/>
        <path id="Trazado_106648" data-name="Trazado 106648" d="M-6213.538,6435.3l17.947,6.118,5.711,2.04s-11.422,55.883,17.132,70.977c0,0-11.013,21.618-7.75,42.014s19.579,48.432,17.948,60.111h-132.162l4.894-29.519-7.75-45.279s-6.936-33.446-6.527-39.974,2.04-20.8,2.04-20.8l19.986-55.631.409-2.292h28.824l2.176,10.606Z" transform="translate(6333.056 -6311.478)" fill="#e7e7e8"/>
        <path id="Trazado_106649" data-name="Trazado 106649" d="M-6224.969,6416.128l3.672,26.513s-15.093,12.646-33.041,12.646-19.579-14.685-19.579-14.685l10.2-30.185Z" transform="translate(6345.708 -6316.779)" fill="#d3d3d3"/>
        <g id="Grupo_56032" data-name="Grupo 56032" transform="translate(65.505)">
          <path id="Trazado_106650" data-name="Trazado 106650" d="M-6241.488,6344.563l.505-.032c15.937-.986,30.148,5.475,35.067,21.606,8.3,27.233-2.324,61.108-2.324,61.108l-7.971,17.271c-4.529,9.812-19.079,16.064-29.085,13.02-5.28-1.607-9.7-5.242-13.591-9.162-10.809-10.9-14.268-24.077-17.258-38.722-3.141-15.387-3.685-31.692,3.512-46.079a33.553,33.553,0,0,1,12.874-14.181C-6254.256,6346.212-6247.836,6345-6241.488,6344.563Z" transform="translate(6278.348 -6344.433)" fill="#e7e7e8"/>
          <line id="Línea_442" data-name="Línea 442" y2="104.117" transform="translate(37.801 4.517)" fill="none" stroke="#a8a8a8" stroke-linecap="round" stroke-linejoin="round" stroke-width="1.08" stroke-dasharray="2.699"/>
          <path id="Trazado_106651" data-name="Trazado 106651" d="M-6232.348,6420.681" transform="translate(6297.625 -6312.477)" fill="none" stroke="#e7e7e8" stroke-linecap="round" stroke-linejoin="round" stroke-width="1.08"/>
          <path id="Trazado_106652" data-name="Trazado 106652" d="M-6204.541,6384.475s-39.81,15.978-72.829,0" transform="translate(6278.757 -6327.652)" fill="none" stroke="#a8a8a8" stroke-linecap="round" stroke-linejoin="round" stroke-width="1.043" stroke-dasharray="2.608"/>
        </g>
        <path id="Trazado_106653" data-name="Trazado 106653" d="M-6120.247,6562.192l-1.828-1.1C-6153.786,6542-6222.7,6459.115-6225.7,6455.516l1.216-8.916c.712.857,72.727,86.6,104.329,107.2,32.653-19.087,92.731-54.4,98.319-58.438l4.213,5.835c-7.4,5.342-96.972,57.689-100.783,59.913Z" transform="translate(6365.916 -6301.615)" fill="#f2db36"/>
        <path id="Trazado_772806" data-name="Trazado 772806" d="M10.293-3.835A4.447,4.447,0,0,1,8.878-.876,4.638,4.638,0,0,1,5.711.166,4.259,4.259,0,0,1,2.279-1.37,6.178,6.178,0,0,1,.988-5.479V-6.641A6.886,6.886,0,0,1,1.59-9.6,4.5,4.5,0,0,1,3.3-11.567a4.75,4.75,0,0,1,2.557-.685A4.367,4.367,0,0,1,8.94-11.177,4.5,4.5,0,0,1,10.293-8.2h-1.6a3.457,3.457,0,0,0-.9-2.092,2.73,2.73,0,0,0-1.938-.647A2.852,2.852,0,0,0,3.457-9.812,5.179,5.179,0,0,0,2.59-6.6v1.17A5.324,5.324,0,0,0,3.412-2.3a2.656,2.656,0,0,0,2.3,1.162,3.067,3.067,0,0,0,2.038-.6,3.34,3.34,0,0,0,.942-2.1Zm1.527-.739a5.3,5.3,0,0,1,.519-2.374,3.87,3.87,0,0,1,1.444-1.627A3.932,3.932,0,0,1,15.9-9.147a3.788,3.788,0,0,1,2.968,1.27A4.886,4.886,0,0,1,20-4.5v.108a5.351,5.351,0,0,1-.5,2.353A3.813,3.813,0,0,1,18.058-.415a3.977,3.977,0,0,1-2.146.581A3.778,3.778,0,0,1,12.953-1.1,4.861,4.861,0,0,1,11.82-4.466Zm1.544.183a3.842,3.842,0,0,0,.693,2.4,2.218,2.218,0,0,0,1.855.9A2.2,2.2,0,0,0,17.772-2a4.2,4.2,0,0,0,.689-2.569,3.836,3.836,0,0,0-.7-2.395A2.23,2.23,0,0,0,15.9-7.886a2.205,2.205,0,0,0-1.834.9A4.17,4.17,0,0,0,13.364-4.391Zm8.185-.174a5.261,5.261,0,0,1,.979-3.324,3.1,3.1,0,0,1,2.565-1.258,3.115,3.115,0,0,1,2.5,1.079V-12.75h1.536V0H27.716l-.075-.963A3.127,3.127,0,0,1,25.077.166a3.068,3.068,0,0,1-2.544-1.278,5.321,5.321,0,0,1-.984-3.337Zm1.536.174A3.984,3.984,0,0,0,23.715-2a2.039,2.039,0,0,0,1.743.863,2.24,2.24,0,0,0,2.133-1.312V-6.574a2.257,2.257,0,0,0-2.117-1.27,2.049,2.049,0,0,0-1.76.872A4.386,4.386,0,0,0,23.084-4.391ZM31.1-4.574a5.3,5.3,0,0,1,.519-2.374,3.87,3.87,0,0,1,1.444-1.627,3.932,3.932,0,0,1,2.113-.573,3.788,3.788,0,0,1,2.968,1.27A4.886,4.886,0,0,1,39.279-4.5v.108a5.351,5.351,0,0,1-.5,2.353A3.813,3.813,0,0,1,37.341-.415,3.977,3.977,0,0,1,35.2.166,3.778,3.778,0,0,1,32.236-1.1,4.861,4.861,0,0,1,31.1-4.466Zm1.544.183a3.842,3.842,0,0,0,.693,2.4,2.218,2.218,0,0,0,1.855.9A2.2,2.2,0,0,0,37.055-2a4.2,4.2,0,0,0,.689-2.569,3.836,3.836,0,0,0-.7-2.395,2.23,2.23,0,0,0-1.864-.917,2.205,2.205,0,0,0-1.834.9A4.17,4.17,0,0,0,32.647-4.391Z" transform="translate(223.337 277.938)"/>
        <path id="Trazado_772807" data-name="Trazado 772807" d="M2.82-4.453V0H1.32V-11.375h4.2a4.215,4.215,0,0,1,2.926.953A3.231,3.231,0,0,1,9.5-7.9,3.189,3.189,0,0,1,8.465-5.348,4.4,4.4,0,0,1,5.5-4.453Zm0-1.227h2.7a2.7,2.7,0,0,0,1.844-.566A2.069,2.069,0,0,0,8-7.883a2.138,2.138,0,0,0-.641-1.625A2.528,2.528,0,0,0,5.6-10.141H2.82ZM16.406-.836A3.07,3.07,0,0,1,13.93.156a2.628,2.628,0,0,1-2.059-.785,3.4,3.4,0,0,1-.715-2.324v-5.5H12.6v5.461q0,1.922,1.563,1.922a2.163,2.163,0,0,0,2.2-1.234V-8.453h1.445V0H16.438Zm4.969-7.617.047,1.063a3.08,3.08,0,0,1,2.531-1.219q2.68,0,2.7,3.023V0H25.211V-5.594a1.946,1.946,0,0,0-.418-1.352,1.675,1.675,0,0,0-1.277-.437,2.086,2.086,0,0,0-1.234.375,2.546,2.546,0,0,0-.828.984V0H20.008V-8.453Zm4.781-3.3a1.942,1.942,0,0,1-.48,1.367,1.561,1.561,0,0,1-1.2.523,1.76,1.76,0,0,1-.555-.078,2.993,2.993,0,0,1-.613-.32,2.656,2.656,0,0,0-.547-.293,1.338,1.338,0,0,0-.387-.051.717.717,0,0,0-.547.246.892.892,0,0,0-.227.629l-.969-.055a2.039,2.039,0,0,1,.473-1.383,1.516,1.516,0,0,1,1.2-.547,1.457,1.457,0,0,1,.492.078,3.587,3.587,0,0,1,.594.3,3.494,3.494,0,0,0,.574.3,1.319,1.319,0,0,0,.441.07.7.7,0,0,0,.559-.266.932.932,0,0,0,.223-.617Zm2.3,7.445a4.993,4.993,0,0,1,.488-2.234A3.643,3.643,0,0,1,30.3-8.07a3.7,3.7,0,0,1,1.988-.539,3.565,3.565,0,0,1,2.793,1.2,4.6,4.6,0,0,1,1.066,3.18v.1a5.036,5.036,0,0,1-.473,2.215A3.589,3.589,0,0,1,34.324-.391,3.743,3.743,0,0,1,32.3.156a3.556,3.556,0,0,1-2.785-1.2A4.575,4.575,0,0,1,28.453-4.2Zm1.453.172a3.616,3.616,0,0,0,.652,2.258,2.088,2.088,0,0,0,1.746.852,2.075,2.075,0,0,0,1.75-.863A3.955,3.955,0,0,0,34.7-4.3a3.61,3.61,0,0,0-.66-2.254,2.1,2.1,0,0,0-1.754-.863,2.075,2.075,0,0,0-1.727.852A3.925,3.925,0,0,0,29.906-4.133Z" transform="translate(355.681 222.237)"/>
        <g id="Grupo_56033" data-name="Grupo 56033" transform="translate(142.41 153.904)">
          <line id="Línea_443" data-name="Línea 443" x1="3.019" y2="2.618" fill="none" stroke="#30302f" stroke-miterlimit="10" stroke-width="0.338"/>
          <line id="Línea_444" data-name="Línea 444" x1="1.479" y2="1.267" transform="translate(2.9 4.793)" fill="none" stroke="#30302f" stroke-miterlimit="10" stroke-width="0.338"/>
          <line id="Línea_445" data-name="Línea 445" x1="3.019" y2="2.618" transform="translate(6.236 7.507)" fill="none" stroke="#30302f" stroke-miterlimit="10" stroke-width="0.338"/>
          <line id="Línea_446" data-name="Línea 446" x1="1.479" y2="1.267" transform="translate(9.136 12.3)" fill="none" stroke="#30302f" stroke-miterlimit="10" stroke-width="0.338"/>
          <line id="Línea_447" data-name="Línea 447" x1="3.019" y2="2.618" transform="translate(12.245 14.511)" fill="none" stroke="#30302f" stroke-miterlimit="10" stroke-width="0.338"/>
          <line id="Línea_448" data-name="Línea 448" x1="1.479" y2="1.267" transform="translate(15.264 19.304)" fill="none" stroke="#30302f" stroke-miterlimit="10" stroke-width="0.338"/>
          <line id="Línea_449" data-name="Línea 449" x1="3.019" y2="2.618" transform="translate(18.345 21.308)" fill="none" stroke="#30302f" stroke-miterlimit="10" stroke-width="0.338"/>
          <line id="Línea_450" data-name="Línea 450" x1="1.479" y2="1.267" transform="translate(21.245 26.101)" fill="none" stroke="#30302f" stroke-miterlimit="10" stroke-width="0.338"/>
          <line id="Línea_451" data-name="Línea 451" x1="3.019" y2="2.618" transform="translate(23.996 28.001)" fill="none" stroke="#30302f" stroke-miterlimit="10" stroke-width="0.338"/>
          <line id="Línea_452" data-name="Línea 452" x1="1.479" y2="1.267" transform="translate(27.141 32.648)" fill="none" stroke="#30302f" stroke-miterlimit="10" stroke-width="0.338"/>
        </g>
        <g id="Grupo_56034" data-name="Grupo 56034" transform="translate(174.372 190.659)">
          <line id="Línea_453" data-name="Línea 453" x1="2.912" y2="2.737" fill="none" stroke="#30302f" stroke-miterlimit="10" stroke-width="0.338"/>
          <line id="Línea_454" data-name="Línea 454" x1="1.427" y2="1.326" transform="translate(3.036 4.735)" fill="none" stroke="#30302f" stroke-miterlimit="10" stroke-width="0.338"/>
          <line id="Línea_455" data-name="Línea 455" x1="2.912" y2="2.737" transform="translate(6.532 7.251)" fill="none" stroke="#30302f" stroke-miterlimit="10" stroke-width="0.338"/>
          <line id="Línea_456" data-name="Línea 456" x1="1.427" y2="1.326" transform="translate(9.567 11.986)" fill="none" stroke="#30302f" stroke-miterlimit="10" stroke-width="0.338"/>
          <line id="Línea_457" data-name="Línea 457" x1="2.912" y2="2.737" transform="translate(12.816 14.009)" fill="none" stroke="#30302f" stroke-miterlimit="10" stroke-width="0.338"/>
          <line id="Línea_458" data-name="Línea 458" x1="1.427" y2="1.326" transform="translate(15.971 18.739)" fill="none" stroke="#30302f" stroke-miterlimit="10" stroke-width="0.338"/>
          <line id="Línea_459" data-name="Línea 459" x1="2.912" y2="2.737" transform="translate(19.183 20.556)" fill="none" stroke="#30302f" stroke-miterlimit="10" stroke-width="0.338"/>
          <line id="Línea_460" data-name="Línea 460" x1="1.427" y2="1.326" transform="translate(22.218 25.291)" fill="none" stroke="#30302f" stroke-miterlimit="10" stroke-width="0.338"/>
          <line id="Línea_461" data-name="Línea 461" x1="2.912" y2="2.737" transform="translate(25.098 27.018)" fill="none" stroke="#30302f" stroke-miterlimit="10" stroke-width="0.338"/>
          <line id="Línea_462" data-name="Línea 462" x1="1.427" y2="1.326" transform="translate(28.372 31.598)" fill="none" stroke="#30302f" stroke-miterlimit="10" stroke-width="0.338"/>
        </g>
        <g id="Grupo_56035" data-name="Grupo 56035" transform="translate(206.705 224.361)">
          <line id="Línea_463" data-name="Línea 463" x1="2.669" y2="2.975" fill="none" stroke="#30302f" stroke-miterlimit="10" stroke-width="0.338"/>
          <line id="Línea_464" data-name="Línea 464" x1="1.309" y2="1.442" transform="translate(3.307 4.586)" fill="none" stroke="#30302f" stroke-miterlimit="10" stroke-width="0.338"/>
          <line id="Línea_465" data-name="Línea 465" x1="2.669" y2="2.975" transform="translate(7.125 6.669)" fill="none" stroke="#30302f" stroke-miterlimit="10" stroke-width="0.338"/>
          <line id="Línea_466" data-name="Línea 466" x1="1.309" y2="1.442" transform="translate(10.433 11.254)" fill="none" stroke="#30302f" stroke-miterlimit="10" stroke-width="0.338"/>
          <line id="Línea_467" data-name="Línea 467" x1="2.669" y2="2.975" transform="translate(13.963 12.867)" fill="none" stroke="#30302f" stroke-miterlimit="10" stroke-width="0.338"/>
          <line id="Línea_468" data-name="Línea 468" x1="1.309" y2="1.442" transform="translate(17.389 17.437)" fill="none" stroke="#30302f" stroke-miterlimit="10" stroke-width="0.338"/>
          <line id="Línea_469" data-name="Línea 469" x1="2.669" y2="2.975" transform="translate(20.864 18.848)" fill="none" stroke="#30302f" stroke-miterlimit="10" stroke-width="0.338"/>
          <line id="Línea_470" data-name="Línea 470" x1="1.309" y2="1.442" transform="translate(24.172 23.433)" fill="none" stroke="#30302f" stroke-miterlimit="10" stroke-width="0.338"/>
          <line id="Línea_471" data-name="Línea 471" x1="2.669" y2="2.975" transform="translate(27.308 24.782)" fill="none" stroke="#30302f" stroke-miterlimit="10" stroke-width="0.338"/>
          <line id="Línea_472" data-name="Línea 472" x1="1.309" y2="1.442" transform="translate(30.84 29.193)" fill="none" stroke="#30302f" stroke-miterlimit="10" stroke-width="0.338"/>
        </g>
        <g id="Grupo_56036" data-name="Grupo 56036" transform="translate(245.793 236.649)">
          <line id="Línea_473" data-name="Línea 473" x2="2.011" y2="3.454" transform="translate(0 19.085)" fill="none" stroke="#30302f" stroke-miterlimit="10" stroke-width="0.338"/>
          <line id="Línea_474" data-name="Línea 474" x2="0.97" y2="1.689" transform="translate(4.963 18.64)" fill="none" stroke="#30302f" stroke-miterlimit="10" stroke-width="0.338"/>
          <line id="Línea_475" data-name="Línea 475" x2="2.011" y2="3.454" transform="translate(8.535 14.353)" fill="none" stroke="#30302f" stroke-miterlimit="10" stroke-width="0.338"/>
          <line id="Línea_476" data-name="Línea 476" x2="0.97" y2="1.689" transform="translate(13.498 13.908)" fill="none" stroke="#30302f" stroke-miterlimit="10" stroke-width="0.338"/>
          <line id="Línea_477" data-name="Línea 477" x2="2.011" y2="3.454" transform="translate(16.534 9.751)" fill="none" stroke="#30302f" stroke-miterlimit="10" stroke-width="0.338"/>
          <line id="Línea_478" data-name="Línea 478" x2="0.97" y2="1.689" transform="translate(21.519 9.189)" fill="none" stroke="#30302f" stroke-miterlimit="10" stroke-width="0.338"/>
          <line id="Línea_479" data-name="Línea 479" x2="2.011" y2="3.454" transform="translate(24.347 5.022)" fill="none" stroke="#30302f" stroke-miterlimit="10" stroke-width="0.338"/>
          <line id="Línea_480" data-name="Línea 480" x2="0.97" y2="1.689" transform="translate(29.309 4.576)" fill="none" stroke="#30302f" stroke-miterlimit="10" stroke-width="0.338"/>
          <line id="Línea_481" data-name="Línea 481" x2="2.011" y2="3.454" transform="translate(31.974 0.712)" fill="none" stroke="#30302f" stroke-miterlimit="10" stroke-width="0.338"/>
          <line id="Línea_482" data-name="Línea 482" x2="0.97" y2="1.689" transform="translate(36.839)" fill="none" stroke="#30302f" stroke-miterlimit="10" stroke-width="0.338"/>
        </g>
        <g id="Grupo_56037" data-name="Grupo 56037" transform="translate(285.206 198.809)">
          <line id="Línea_483" data-name="Línea 483" x2="2.011" y2="3.454" transform="translate(0 33.473)" fill="none" stroke="#30302f" stroke-miterlimit="10" stroke-width="0.338"/>
          <line id="Línea_484" data-name="Línea 484" x2="0.97" y2="1.689" transform="translate(4.962 33.028)" fill="none" stroke="#30302f" stroke-miterlimit="10" stroke-width="0.338"/>
          <line id="Línea_485" data-name="Línea 485" x2="2.011" y2="3.454" transform="translate(8.535 28.741)" fill="none" stroke="#30302f" stroke-miterlimit="10" stroke-width="0.338"/>
          <line id="Línea_486" data-name="Línea 486" x2="0.97" y2="1.689" transform="translate(13.497 28.296)" fill="none" stroke="#30302f" stroke-miterlimit="10" stroke-width="0.338"/>
          <line id="Línea_487" data-name="Línea 487" x2="2.011" y2="3.454" transform="translate(16.534 24.139)" fill="none" stroke="#30302f" stroke-miterlimit="10" stroke-width="0.338"/>
          <line id="Línea_488" data-name="Línea 488" x2="0.97" y2="1.689" transform="translate(21.519 23.577)" fill="none" stroke="#30302f" stroke-miterlimit="10" stroke-width="0.338"/>
          <line id="Línea_489" data-name="Línea 489" x2="2.011" y2="3.454" transform="translate(24.347 19.409)" fill="none" stroke="#30302f" stroke-miterlimit="10" stroke-width="0.338"/>
          <line id="Línea_490" data-name="Línea 490" x2="0.97" y2="1.689" transform="translate(29.309 18.964)" fill="none" stroke="#30302f" stroke-miterlimit="10" stroke-width="0.338"/>
          <line id="Línea_491" data-name="Línea 491" x2="2.011" y2="3.454" transform="translate(31.974 15.1)" fill="none" stroke="#30302f" stroke-miterlimit="10" stroke-width="0.338"/>
          <line id="Línea_492" data-name="Línea 492" x2="0.97" y2="1.689" transform="translate(36.839 14.388)" fill="none" stroke="#30302f" stroke-miterlimit="10" stroke-width="0.338"/>
          <line id="Línea_493" data-name="Línea 493" x2="2.135" y2="3.378" transform="translate(39.75 10.181)" fill="none" stroke="#30302f" stroke-miterlimit="10" stroke-width="0.338"/>
          <line id="Línea_494" data-name="Línea 494" x2="1.031" y2="1.653" transform="translate(44.963 9.738)" fill="none" stroke="#30302f" stroke-miterlimit="10" stroke-width="0.338"/>
          <line id="Línea_495" data-name="Línea 495" x2="2.135" y2="3.378" transform="translate(47.638 5.471)" fill="none" stroke="#30302f" stroke-miterlimit="10" stroke-width="0.338"/>
          <line id="Línea_496" data-name="Línea 496" x2="1.031" y2="1.653" transform="translate(52.581 4.846)" fill="none" stroke="#30302f" stroke-miterlimit="10" stroke-width="0.338"/>
          <line id="Línea_497" data-name="Línea 497" x2="2.135" y2="3.378" transform="translate(55.104 0.888)" fill="none" stroke="#30302f" stroke-miterlimit="10" stroke-width="0.338"/>
          <line id="Línea_498" data-name="Línea 498" x2="1.031" y2="1.653" transform="translate(59.94)" fill="none" stroke="#30302f" stroke-miterlimit="10" stroke-width="0.338"/>
        </g>
      </g>
    </g>
  </g>
</svg>
