<svg id="Grupo_1054823" data-name="Grupo 1054823" xmlns="http://www.w3.org/2000/svg" xmlns:xlink="http://www.w3.org/1999/xlink" width="83.974" height="83.975" viewBox="0 0 83.974 83.975">
  <defs>
    <clipPath id="clip-path">
      <circle id="Elipse_4168" data-name="Elipse 4168" cx="41.987" cy="41.987" r="41.987" fill="none"/>
    </clipPath>
  </defs>
  <path id="Trazado_772795" data-name="Trazado 772795" d="M41.987,0A41.987,41.987,0,1,1,0,41.987,41.987,41.987,0,0,1,41.987,0Z" transform="translate(0 0)" fill="#fff"/>
  <g id="Grupo_56076" data-name="Grupo 56076" transform="translate(0 0)">
    <g id="Grupo_56075" data-name="Grupo 56075" clip-path="url(#clip-path)">
      <g id="Grupo_56074" data-name="Grupo 56074" transform="translate(7.889 4.569)">
        <path id="Trazado_106678" data-name="Trazado 106678" d="M4500.611-3966.047a5.968,5.968,0,0,1-6.5-1.623c-9.578-6.819-20.132.811-20.132.811-12.014-8.767-21.43,2.435-21.43,2.435.974-1.461,2.608-3.332,3.278-5.677,2.421-8.481,1.48-14.477,3.054-19.326a4.728,4.728,0,0,1,4.871-3.247,8.884,8.884,0,0,0,4.222,1.623c3.9,1.137,4.708,0,4.708,0,.649,2.436,2.111,1.462,2.111,1.462,2.922-1.462.811-3.9.811-3.9-1.135-1.3.65-1.948.65-1.948,1.623-.649,1.136-1.623,1.136-1.623l-3.9-8.768c-3.9-.811-12.664,2.923-12.664,2.923-7.469,1.623-10.391,10.39-10.391,10.39a104.206,104.206,0,0,0-11.574,15.148c-4.8,7.862-8.121,16.931-6.772,21.058,2.76,8.28,15.262,9.416,15.262,9.416a46.9,46.9,0,0,0,11.2,3.572,54.733,54.733,0,0,0,19.592-2.4c-.163,6.657,5.573,11.166,8.008,13.763C4490.382-3935.037,4504.021-3946.564,4500.611-3966.047Z" transform="translate(-4431.674 4005.939)" fill="#f4d0b8"/>
        <path id="Trazado_106679" data-name="Trazado 106679" d="M4508.05-3970.795c-3.734-.163-8,4.467-8,4.467-.163,0,.17.135.007.135,3.409,19.32-10.229,31.01-14.612,34.094a9.875,9.875,0,0,0,1.462,1.461C4511.581-3943.625,4508.05-3970.795,4508.05-3970.795Z" transform="translate(-4431.063 4006.34)" fill="#73d8c0"/>
        <g id="Grupo_56072" data-name="Grupo 56072" transform="translate(14.278 22.288)">
          <path id="Trazado_106680" data-name="Trazado 106680" d="M4475.81-3963.836a4.465,4.465,0,0,1,1.137.649,16.443,16.443,0,0,1,2.6,2.436,19.68,19.68,0,0,1,2.274,4.545c.649,1.786.974,3.572,1.623,5.2a20.732,20.732,0,0,0,5.2,8.28,10.641,10.641,0,0,0,2.6,1.948,9.709,9.709,0,0,0,1.137.488,7.332,7.332,0,0,1-1.3-.163,6.949,6.949,0,0,1-3.248-1.461,14.534,14.534,0,0,1-3.734-3.41,18.944,18.944,0,0,1-2.76-5.032,38.543,38.543,0,0,1-1.3-5.52,27.748,27.748,0,0,0-1.46-4.383,8.079,8.079,0,0,0-1.786-2.76A2.291,2.291,0,0,0,4475.81-3963.836Z" transform="translate(-4445.45 3984.131)" fill="#f7c39f"/>
          <path id="Trazado_106681" data-name="Trazado 106681" d="M4453.5-3954.5s1.461.324,3.734.649a41.113,41.113,0,0,0,7.956.488,9.235,9.235,0,0,0,2.111-.163c.649-.162,1.461-.162,1.948-.325.65-.162,1.3-.325,1.786-.486a4.844,4.844,0,0,0,1.623-.65,9.641,9.641,0,0,1,1.3-.649c.325-.162.649-.487.974-.649a4.553,4.553,0,0,1,.974-.486,1.508,1.508,0,0,1-.487.974,12.819,12.819,0,0,1-2.111,1.948,14.2,14.2,0,0,1-1.623.974,9.994,9.994,0,0,1-1.948.812,20.5,20.5,0,0,1-4.546.811,20.7,20.7,0,0,1-4.546-.325,11.259,11.259,0,0,1-3.734-1.136A15.413,15.413,0,0,1,4453.5-3954.5Z" transform="translate(-4445.704 3984.211)" fill="#f7c39f"/>
          <path id="Trazado_106682" data-name="Trazado 106682" d="M4448.065-3962.958a8.465,8.465,0,0,0-.487-.812,8.57,8.57,0,0,1-1.137-2.435,12.788,12.788,0,0,1-.649-3.734,20.179,20.179,0,0,1,.487-4.383,30.158,30.158,0,0,1,1.624-4.059,25.413,25.413,0,0,1,2.111-3.085,14.507,14.507,0,0,1,2.76-2.436,8.3,8.3,0,0,1-.487.811c-.324.488-.812,1.3-1.3,2.111a31.262,31.262,0,0,0-2.76,6.981,32.347,32.347,0,0,0-.649,3.9,11.916,11.916,0,0,0,0,3.409c.162.974.162,1.948.325,2.436A4.5,4.5,0,0,0,4448.065-3962.958Z" transform="translate(-4445.792 3983.902)" fill="#f7c39f"/>
        </g>
        <path id="Trazado_106683" data-name="Trazado 106683" d="M4486.727-3930.669l.812,2.6h21.593v-39.939l-6.657,15.911-1.948,7.144-4.384,7.144Z" transform="translate(-4431.048 4006.372)" fill="#ff9696"/>
        <g id="Grupo_56073" data-name="Grupo 56073" transform="translate(0 15.631)">
          <path id="Trazado_106684" data-name="Trazado 106684" d="M4479.215-3947.828a45.049,45.049,0,0,1-19.137,2.941,46.925,46.925,0,0,1-11.2-3.572s-12.339-.974-15.263-9.417c-1.137-3.247,3.157-16.16,3.157-16.16-3.9,6.819-5.917,14.212-4.78,17.785,2.76,8.279,15.261,9.416,15.261,9.416a46.9,46.9,0,0,0,11.2,3.572,50.455,50.455,0,0,0,19.7-2.816c-.163,6.657,5.466,11.583,7.9,14.18a40.484,40.484,0,0,0,5.52-4.87,40.539,40.539,0,0,1-3.9,3.247C4485.243-3936.12,4479.053-3941.171,4479.215-3947.828Z" transform="translate(-4431.676 3990.672)" fill="#231f20" opacity="0.1" style="isolation: isolate"/>
          <path id="Trazado_106685" data-name="Trazado 106685" d="M4500.449-3965.968a5.967,5.967,0,0,1-6.495-1.625c-9.579-6.819-20.131.812-20.131.812-12.015-8.767-21.432,2.436-21.432,2.436.975-1.461,3.2-4.9,3.652-7.071,1.8-8.636,2.68-17.932,2.68-17.932a2.348,2.348,0,0,1,.325-1.137,3.658,3.658,0,0,0-1.948,2.76,123.765,123.765,0,0,1-2.3,15.791,40.46,40.46,0,0,1-4.029,9.212s9.417-11.2,21.432-2.435c0,0,10.714-7.631,20.132-.811a6.3,6.3,0,0,0,6.495,1.623c2.435,13.638-3.734,23.541-9.093,29.223C4495.417-3940.316,4503.209-3950.707,4500.449-3965.968Z" transform="translate(-4431.458 3990.484)" fill="#231f20" opacity="0.1" style="isolation: isolate"/>
        </g>
      </g>
    </g>
  </g>
</svg>
