<svg xmlns="http://www.w3.org/2000/svg" xmlns:xlink="http://www.w3.org/1999/xlink" width="234.363" height="312.43" viewBox="0 0 234.363 312.43">
  <defs>
    <linearGradient id="linear-gradient" y1="0.5" x2="1" y2="0.5" gradientUnits="objectBoundingBox">
      <stop offset="0" stop-color="#5f3759"/>
      <stop offset="0.345" stop-color="#5b3658"/>
      <stop offset="0.671" stop-color="#4f3458"/>
      <stop offset="0.99" stop-color="#3c3257"/>
      <stop offset="1" stop-color="#3c3257"/>
    </linearGradient>
    <linearGradient id="linear-gradient-2" y1="0.5" x2="1" y2="0.5" gradientUnits="objectBoundingBox">
      <stop offset="0" stop-color="#f08e73"/>
      <stop offset="1" stop-color="#f9b99d"/>
    </linearGradient>
    <linearGradient id="linear-gradient-4" y1="0.5" x2="1" y2="0.5" gradientUnits="objectBoundingBox">
      <stop offset="0.006" stop-color="#77a5bd"/>
      <stop offset="1" stop-color="#66b0a5"/>
    </linearGradient>
    <linearGradient id="linear-gradient-5" x1="0" y1="0.5" x2="1" y2="0.5" xlink:href="#linear-gradient-2"/>
  </defs>
  <g id="Grupo_1055044" data-name="Grupo 1055044" transform="translate(3034.006 7287.217)">
    <circle id="Elipse_4753" data-name="Elipse 4753" cx="93.13" cy="93.13" r="93.13" transform="translate(-3034.006 -7287.217)" fill="#025157"/>
    <g id="Grupo_1054490" data-name="Grupo 1054490" transform="matrix(0.545, -0.839, 0.839, 0.545, -3869.953, -5633.553)" opacity="0.62">
      <path id="Trazado_771758" data-name="Trazado 771758" d="M1720.212,182.568c-.6,2.9-.865,6.576,1.691,8.54,1.9,1.463,4.265,2.741,6.76,2.28,4.585-.846,4.409-4.34,4.695-8.405a14.933,14.933,0,0,0-.625-6.423,6.3,6.3,0,0,0-4.628-4.137,6.18,6.18,0,0,0-5.487,2.418A13.1,13.1,0,0,0,1720.212,182.568Z" transform="translate(-16.941 -47.144)" fill="#f5947a"/>
      <path id="Trazado_771759" data-name="Trazado 771759" d="M1704.925,145.541a5.052,5.052,0,0,0-.229-1.718,5.272,5.272,0,0,0-.723-1.209q-.883-1.212-1.764-2.424a7.841,7.841,0,0,0-2.277-2.351,5.059,5.059,0,0,0-4.232-.164,11.233,11.233,0,0,0-3.6,2.436,13.408,13.408,0,0,0-3.2,4.126c-2.866,6.288,2.51,14.132,8.2,16.8C1705.318,164.878,1704.984,149.91,1704.925,145.541Z" transform="translate(-6.775 -35.259)" fill="#f5947a"/>
      <path id="Trazado_771760" data-name="Trazado 771760" d="M1684.827,104.019a6.45,6.45,0,0,0-1.872-2.43c-3-2.81-6.1-5.69-9.96-7.106a4.911,4.911,0,0,0-3.636-.2c-1.756.782-2.268,3.009-2.37,4.928-.272,5,1.62,12.183,7.5,13.221C1678.461,113.129,1686.494,108.834,1684.827,104.019Z" transform="translate(0 -21.384)" fill="#f5947a"/>
      <path id="Trazado_771761" data-name="Trazado 771761" d="M1702.815,49.316c-1.437-2.774-3.89-5.559-7.011-5.418-2.034.092-3.773,1.417-5.365,2.683-1.794,1.428-3.663,2.953-4.51,5.084a11.4,11.4,0,0,0-.648,3.407c-.509,7.051,4.954,13.654,12.629,12.094C1705.83,65.556,1705.7,54.883,1702.815,49.316Z" transform="translate(-5.861 -5.319)" fill="#f5947a"/>
      <path id="Trazado_771762" data-name="Trazado 771762" d="M1747.848,38.772a11.291,11.291,0,0,0,1.13-3.194,10.522,10.522,0,0,0-.931-5.065,5.079,5.079,0,0,0-1.982-2.873c-1.351-.737-3.026-.152-4.392.554-4.479,2.314-8.21,5.818-11.877,9.276a10.759,10.759,0,0,0-2.015,2.3,7.359,7.359,0,0,0-.9,3.515c-.139,4.832,4.15,10.167,9.372,8.475C1742.191,49.835,1745.379,44,1747.848,38.772Z" transform="translate(-19.207 0)" fill="#f5947a"/>
      <path id="Trazado_771763" data-name="Trazado 771763" d="M1725.028,101.562a9.861,9.861,0,0,0,2.169-2.635c.659-1.683-.371-3.568-1.662-4.834a16.6,16.6,0,0,0-6.016-3.552,6.744,6.744,0,0,0-4.372-.44,5.1,5.1,0,0,0-2.974,3.2,14.542,14.542,0,0,0-.642,4.454c-.134,3.662-.05,10.271,4.84,10.915C1720.938,109.271,1722.655,104.244,1725.028,101.562Z" transform="translate(-14.277 -20.064)" fill="#f5947a"/>
      <path id="Trazado_771764" data-name="Trazado 771764" d="M1769.615,83.8a7,7,0,0,0-4.771-6.807,11.564,11.564,0,0,0-5.371-.062,13.966,13.966,0,0,0-4.246,1.3c-2.928,1.56-4.713,4.709-5.535,7.924a11.457,11.457,0,0,0-.245,5.407c1.209,5.207,7.731,7.658,12.568,6.123C1767.434,95.955,1769.382,88.8,1769.615,83.8Z" transform="translate(-26.369 -15.817)" fill="#f5947a"/>
      <path id="Trazado_771765" data-name="Trazado 771765" d="M1792.557,129.309a15.32,15.32,0,0,0,.381-4.311c-.013-1.937-.1-4.062-1.386-5.506-1.4-1.57-3.745-1.794-5.851-1.853a16.038,16.038,0,0,0-4.852.391,5.349,5.349,0,0,0-3.841,7.521c1.242,3.41,4.172,7.093,7.855,7.937C1788.009,134.209,1791.638,132.537,1792.557,129.309Z" transform="translate(-35.133 -28.952)" fill="#f5947a"/>
      <path id="Trazado_771766" data-name="Trazado 771766" d="M1748.293,141.06c-.326-2.461-1.9-4.554-3.472-6.476-2.386-2.914-5.223-5.908-8.95-6.444a2.688,2.688,0,0,0-3.506,1.974,11.884,11.884,0,0,0,.284,7.392,30.339,30.339,0,0,0,3.476,6.652c1.48,2.294,4.076,6.119,7.327,5.269C1746.588,148.607,1748.684,144,1748.293,141.06Z" transform="translate(-20.816 -32.307)" fill="#f5947a"/>
      <path id="Trazado_771767" data-name="Trazado 771767" d="M1786.524,167.177c-.058-2.25-.774-4.653-2.6-5.973-1.587-1.148-3.687-1.258-5.643-1.156a7.708,7.708,0,0,0-4.438,1.273c-1.638,1.291-2.114,3.549-2.3,5.626a19.033,19.033,0,0,0,.439,6.9c1,3.515,4.732,8.143,8.688,5.827C1784.563,177.4,1786.632,171.407,1786.524,167.177Z" transform="translate(-33.485 -42.544)" fill="#f5947a"/>
    </g>
    <g id="Grupo_1054631" data-name="Grupo 1054631" transform="translate(-5527.741 -6630.542)">
      <g id="Grupo_56265" data-name="Grupo 56265" transform="translate(2493.735 -624.087)">
        <path id="Trazado_107588" data-name="Trazado 107588" d="M2452.747-447.8c-4.392-10.786-5.042-23.288-.457-33.994-.478,5.563,2.885,10.922,7.4,14.205s10.042,4.83,15.5,6.021a119.355,119.355,0,0,1,16.138,4.361c29.354,10.882,24.014,49.174-.8,42.5C2478.75-417.88,2462.168-424.659,2452.747-447.8Z" transform="translate(-2449.139 575.324)" fill="#ecb89f"/>
        <path id="Trazado_107589" data-name="Trazado 107589" d="M2512.156-426.368l-.038,0c-25.688-3.607-43.386-12.379-52.6-26.069a39.933,39.933,0,0,1-6.092-29.541.264.264,0,0,1,.323-.193.266.266,0,0,1,.195.324,39.386,39.386,0,0,0,6.023,29.121c9.127,13.553,26.7,22.244,52.224,25.828a.268.268,0,0,1,.227.3A.267.267,0,0,1,2512.156-426.368Z" transform="translate(-2450.474 575.468)" fill="#fff"/>
        <path id="Trazado_107590" data-name="Trazado 107590" d="M2525.408-414.114a.253.253,0,0,1-.073-.011c-.145-.04-14.592-4.419-18.962-31.746a.267.267,0,0,1,.222-.305.274.274,0,0,1,.305.222c4.312,26.959,18.438,31.276,18.581,31.316a.267.267,0,0,1,.184.33A.269.269,0,0,1,2525.408-414.114Z" transform="translate(-2470.327 562.138)" fill="#fff"/>
        <path id="Trazado_107591" data-name="Trazado 107591" d="M2528.959-529.985a.252.252,0,0,1-.076,0,.268.268,0,0,1-.235-.3c.42-3.681.739-7.233,1.048-10.668,1.921-21.414,3.438-38.327,26.068-60.689a.267.267,0,0,1,.377,0,.266.266,0,0,1,0,.377c-22.49,22.225-24,39.053-25.911,60.357-.308,3.438-.627,6.992-1.049,10.68A.266.266,0,0,1,2528.959-529.985Z" transform="translate(-2478.575 619.721)" fill="#fff"/>
        <path id="Trazado_107592" data-name="Trazado 107592" d="M2690.128-503.851c.882-.911,2.031-2.126,2.985-3.294,1-1.178,1.931-2.421,2.83-3.681.92-1.236,1.691-2.59,2.536-3.856l2.185-4.01a48.2,48.2,0,0,0,4.932-16.766A44.214,44.214,0,0,0,2704.344-552c-.449-2.674-1.756-5.29-2.623-7.865a10.085,10.085,0,0,0-.863-1.912l-.982-1.887-1.905-3.738-.458-.9a14.025,14.025,0,0,1,6.125-18.864,14.024,14.024,0,0,1,18.864,6.125,14.752,14.752,0,0,1,1.11,2.962l1.45,5.792.7,2.877a18.653,18.653,0,0,1,.555,2.927c.455,4.022,1.22,7.882,1.054,11.972a65.072,65.072,0,0,1-3.775,23.535,64.645,64.645,0,0,1-11.33,20c-1.226,1.424-2.48,2.81-3.729,4.179-1.35,1.286-2.614,2.626-4.022,3.825-1.383,1.219-2.791,2.4-4.273,3.5a56.861,56.861,0,0,1-4.725,3.224,4.651,4.651,0,0,1-6.4-1.519,4.653,4.653,0,0,1,.616-5.675Z" transform="translate(-2537.729 614.903)" fill="#ecb89f"/>
        <g id="Grupo_56236" data-name="Grupo 56236" transform="translate(154.932 29.509)">
          <path id="Trazado_107593" data-name="Trazado 107593" d="M2695.313-497.947a.16.16,0,0,1-.135-.073.162.162,0,0,1,.046-.222,59.245,59.245,0,0,0,18-21.2c6.542-12.9,11.163-34.443-3.958-63.78a.162.162,0,0,1,.071-.216.163.163,0,0,1,.216.07c6.7,13.005,10.132,25.588,10.191,37.4a57.779,57.779,0,0,1-6.24,26.687,59.61,59.61,0,0,1-18.108,21.309A.158.158,0,0,1,2695.313-497.947Z" transform="translate(-2695.152 583.452)" fill="#fff"/>
          <path id="Trazado_107594" data-name="Trazado 107594" d="M2723.162-540.777a.16.16,0,0,1-.154-.12c-2.631-9.932-17.335-15.006-17.483-15.055a.162.162,0,0,1-.1-.2.164.164,0,0,1,.2-.1c.15.051,15.016,5.182,17.69,15.279a.159.159,0,0,1-.114.2A.131.131,0,0,1,2723.162-540.777Z" transform="translate(-2698.952 573.387)" fill="#fff"/>
          <path id="Trazado_107595" data-name="Trazado 107595" d="M2729.776-563.185a.158.158,0,0,1-.074-.019.16.16,0,0,1-.067-.216c.045-.087,4.5-8.734,3.839-17.844a.159.159,0,0,1,.148-.171.169.169,0,0,1,.171.148c.672,9.2-3.828,17.929-3.874,18.015A.159.159,0,0,1,2729.776-563.185Z" transform="translate(-2707.912 582.705)" fill="#fff"/>
          <path id="Trazado_107596" data-name="Trazado 107596" d="M2731.787-510.861a.159.159,0,0,1-.145-.094.158.158,0,0,1,.078-.212c.08-.038,8.059-3.812,10.707-12.234a.164.164,0,0,1,.2-.105.162.162,0,0,1,.106.2c-2.693,8.561-10.8,12.391-10.88,12.428A.145.145,0,0,1,2731.787-510.861Z" transform="translate(-2708.656 561.261)" fill="#fff"/>
          <path id="Trazado_107597" data-name="Trazado 107597" d="M2723.65-494.292a.157.157,0,0,1-.053-.009,9.927,9.927,0,0,1-6.056-9.881.161.161,0,0,1,.161-.156h.005a.16.16,0,0,1,.156.164,9.6,9.6,0,0,0,5.841,9.569.16.16,0,0,1,.1.2A.161.161,0,0,1,2723.65-494.292Z" transform="translate(-2703.438 554.162)" fill="#fff"/>
        </g>
        <path id="Trazado_107598" data-name="Trazado 107598" d="M2637.35-499.328l-65.741,65.762h-30.146L2478.029-497a5.519,5.519,0,0,1,0-7.841l76.893-76.915a5.585,5.585,0,0,1,7.863,0l74.564,74.586A5.52,5.52,0,0,1,2637.35-499.328Z" transform="translate(-2459.23 612.932)" fill="#fff"/>
        <rect id="Rectángulo_5769" data-name="Rectángulo 5769" width="21.882" height="21.882" rx="4.748" transform="translate(128.819 3.309) rotate(28.322)" fill="#ecb89f"/>
        <g id="Grupo_56239" data-name="Grupo 56239" transform="translate(110.118)">
          <g id="Grupo_56237" data-name="Grupo 56237" transform="translate(5.404)">
            <path id="Trazado_107599" data-name="Trazado 107599" d="M2639.429-619.918a2.3,2.3,0,0,1-1.708-.154h0l-3.895-2a2.287,2.287,0,0,1-1.14-1.341,2.289,2.289,0,0,1,.142-1.754l2-3.894a2.289,2.289,0,0,1,1.34-1.142l.047-.014a2.278,2.278,0,0,1,1.708.157l3.894,1.994a2.3,2.3,0,0,1,1,3.1l-1.994,3.895A2.3,2.3,0,0,1,2639.429-619.918Zm-1.328-.9a1.469,1.469,0,0,0,1.973-.635l1.994-3.894a1.467,1.467,0,0,0-.635-1.974l-3.894-1.993a1.6,1.6,0,0,0-1.12-.092,1.455,1.455,0,0,0-.852.727l-2,3.895a1.455,1.455,0,0,0-.091,1.117,1.453,1.453,0,0,0,.726.855Z" transform="translate(-2632.575 630.309)" fill="#fff"/>
            <path id="Trazado_107600" data-name="Trazado 107600" d="M2663.445-607.612a2.281,2.281,0,0,1-1.708-.157l-3.894-1.994a2.3,2.3,0,0,1-1-3.1l1.994-3.894a2.308,2.308,0,0,1,3.1-1l3.894,2a2.285,2.285,0,0,1,1.14,1.341,2.285,2.285,0,0,1-.142,1.753l-2,3.895a2.289,2.289,0,0,1-1.34,1.142Zm-2.98-9.5a1.466,1.466,0,0,0-.884.734l-1.994,3.894a1.467,1.467,0,0,0,.635,1.974l3.894,1.994h0a1.581,1.581,0,0,0,1.12.091,1.452,1.452,0,0,0,.852-.726l2-3.894a1.457,1.457,0,0,0,.091-1.118,1.451,1.451,0,0,0-.725-.854l-3.895-2A1.464,1.464,0,0,0,2660.466-617.108Z" transform="translate(-2641.467 625.753)" fill="#fff"/>
            <path id="Trazado_107601" data-name="Trazado 107601" d="M2687.461-595.313a2.3,2.3,0,0,1-1.708-.153h0l-3.895-2a2.3,2.3,0,0,1-1-3.094l2-3.895a2.289,2.289,0,0,1,1.34-1.142,2.282,2.282,0,0,1,1.754.143l3.894,1.994a2.3,2.3,0,0,1,1,3.1l-1.994,3.894A2.3,2.3,0,0,1,2687.461-595.313Zm-1.329-.9a1.47,1.47,0,0,0,1.974-.635l1.994-3.894a1.466,1.466,0,0,0-.635-1.973l-3.894-1.994a1.575,1.575,0,0,0-1.12-.091,1.451,1.451,0,0,0-.852.726l-2,3.895a1.467,1.467,0,0,0,.635,1.972Z" transform="translate(-2650.358 621.199)" fill="#fff"/>
          </g>
          <g id="Grupo_56238" data-name="Grupo 56238" transform="translate(0 10.555)">
            <path id="Trazado_107602" data-name="Trazado 107602" d="M2630.846-603.158a2.279,2.279,0,0,1-1.707-.157l-3.895-1.994a2.3,2.3,0,0,1-1-3.1l1.994-3.894a2.308,2.308,0,0,1,3.1-1l3.895,2a2.29,2.29,0,0,1,1.14,1.342,2.278,2.278,0,0,1-.142,1.752l-2,3.895a2.288,2.288,0,0,1-1.34,1.142Zm-2.979-9.5a1.464,1.464,0,0,0-.884.734l-1.994,3.894a1.467,1.467,0,0,0,.635,1.974l3.894,1.994h0a1.433,1.433,0,0,0,1.12.091,1.451,1.451,0,0,0,.852-.726l2-3.894a1.454,1.454,0,0,0,.09-1.118,1.455,1.455,0,0,0-.725-.854l-3.895-2A1.462,1.462,0,0,0,2627.868-612.654Z" transform="translate(-2623.994 613.549)" fill="#fff"/>
            <path id="Trazado_107603" data-name="Trazado 107603" d="M2654.86-590.857a2.3,2.3,0,0,1-1.706-.154h0l-3.895-2a2.3,2.3,0,0,1-1-3.094l2-3.895a2.306,2.306,0,0,1,3.094-1l3.895,2a2.3,2.3,0,0,1,1,3.1l-1.994,3.893A2.289,2.289,0,0,1,2654.86-590.857Zm-1.326-.9a1.47,1.47,0,0,0,1.973-.637l1.994-3.892a1.467,1.467,0,0,0-.635-1.974l-3.895-2a1.468,1.468,0,0,0-1.971.637l-2,3.894a1.467,1.467,0,0,0,.635,1.972Z" transform="translate(-2632.885 608.994)" fill="#fff"/>
            <path id="Trazado_107604" data-name="Trazado 107604" d="M2678.875-578.553a2.279,2.279,0,0,1-1.706-.157l-3.894-2a2.287,2.287,0,0,1-1.142-1.341,2.28,2.28,0,0,1,.143-1.753l1.994-3.895a2.306,2.306,0,0,1,3.1-1l3.894,2a2.287,2.287,0,0,1,1.14,1.341,2.286,2.286,0,0,1-.142,1.754l-2,3.895a2.289,2.289,0,0,1-1.343,1.141Zm-2.979-9.5a1.463,1.463,0,0,0-.884.734l-1.994,3.894a1.456,1.456,0,0,0-.092,1.12,1.455,1.455,0,0,0,.727.852l3.895,2h0a1.456,1.456,0,0,0,1.088.1l.029-.011a1.458,1.458,0,0,0,.855-.726l1.995-3.894a1.451,1.451,0,0,0,.09-1.119,1.452,1.452,0,0,0-.725-.853l-3.895-2A1.459,1.459,0,0,0,2675.9-588.049Z" transform="translate(-2641.775 604.44)" fill="#fff"/>
          </g>
        </g>
        <ellipse id="Elipse_4171" data-name="Elipse 4171" cx="30.867" cy="3.499" rx="30.867" ry="3.499" transform="translate(53.324 201.26)" fill="#ecb89f"/>
        <g id="Grupo_56264" data-name="Grupo 56264" transform="translate(24.039 16.32)">
          <g id="Grupo_56256" data-name="Grupo 56256" transform="translate(0 17.231)">
            <g id="Grupo_56240" data-name="Grupo 56240" transform="translate(14.041)">
              <path id="Trazado_107605" data-name="Trazado 107605" d="M2633.009-499.5h-123.4l1.811-75.238,119.762-2.3Z" transform="translate(-2509.606 577.035)" fill="#392b69"/>
              <path id="Trazado_107606" data-name="Trazado 107606" d="M2512.321-500.167l1.731-71.931,116.5-2.236,1.751,74.167Z" transform="translate(-2510.611 576.035)" fill="url(#linear-gradient)"/>
            </g>
            <g id="Grupo_56242" data-name="Grupo 56242" transform="translate(66.597 15.489)">
              <path id="Trazado_107607" data-name="Trazado 107607" d="M2599.6-515.291a3.856,3.856,0,0,1-2.208-.821.069.069,0,0,1-.028-.067c.1-.557.179-1.187.232-1.873.823-10.731-4.482-34.069-4.536-34.3a.07.07,0,0,1,.018-.064.068.068,0,0,1,.063-.019c.063.014,6.266,1.449,9.143,6.536l0,.008c4.365,10.617.948,23.438-.724,28.457-.352,1.056-.6,1.666-.6,1.671a.07.07,0,0,1-.015.024A2.042,2.042,0,0,1,2599.6-515.291Zm-2.093-.908c2.041,1.416,3.218.472,3.339.367.038-.1.269-.688.588-1.65,1.667-5,5.074-17.784.729-28.357-2.64-4.665-8.115-6.227-8.945-6.439.393,1.745,5.311,23.861,4.514,34.236C2597.679-517.369,2597.6-516.749,2597.506-516.2Z" transform="translate(-2593.058 552.44)" fill="#fff"/>
              <path id="Trazado_107608" data-name="Trazado 107608" d="M2602.129-495.112a3.856,3.856,0,0,1-2.208-.821.068.068,0,0,1-.027-.067c.1-.557.178-1.187.231-1.873a.069.069,0,0,1,.04-.057.068.068,0,0,1,.069.007,4.2,4.2,0,0,0,3.776.577.07.07,0,0,1,.068.018.069.069,0,0,1,.016.069c-.352,1.056-.6,1.666-.6,1.671a.069.069,0,0,1-.016.024A2.039,2.039,0,0,1,2602.129-495.112Zm-2.093-.908c2.057,1.428,3.21.483,3.338.367.037-.093.25-.637.549-1.529a4.324,4.324,0,0,1-3.671-.561C2600.2-497.117,2600.128-496.538,2600.037-496.02Z" transform="translate(-2595.588 532.261)" fill="#fff"/>
              <g id="Grupo_56241" data-name="Grupo 56241" transform="translate(3.381 2.648)">
                <path id="Trazado_107609" data-name="Trazado 107609" d="M2599.236-547.294a.067.067,0,0,1-.052-.025,9.954,9.954,0,0,0-.736-.8.069.069,0,0,1,0-.1.07.07,0,0,1,.1,0,9.969,9.969,0,0,1,.747.809.068.068,0,0,1-.008.1A.068.068,0,0,1,2599.236-547.294Z" transform="translate(-2598.427 548.234)" fill="#fff"/>
                <path id="Trazado_107610" data-name="Trazado 107610" d="M2604.539-516.112l-.018,0a.069.069,0,0,1-.048-.084c.195-.717.375-1.441.536-2.152a.068.068,0,0,1,.082-.052.068.068,0,0,1,.052.082c-.162.713-.343,1.439-.537,2.158A.07.07,0,0,1,2604.539-516.112Zm.979-4.331h-.013a.068.068,0,0,1-.055-.079c.131-.732.246-1.47.339-2.191a.067.067,0,0,1,.077-.059.069.069,0,0,1,.059.077c-.094.723-.209,1.462-.341,2.2A.068.068,0,0,1,2605.519-520.443Zm.569-4.4h-.005a.068.068,0,0,1-.063-.074c.058-.741.094-1.486.11-2.214a.069.069,0,0,1,.07-.067.069.069,0,0,1,.067.07c-.016.73-.052,1.478-.11,2.221A.068.068,0,0,1,2606.088-524.846Zm.09-4.437a.068.068,0,0,1-.068-.065c-.029-.742-.082-1.486-.157-2.211a.069.069,0,0,1,.061-.075.069.069,0,0,1,.075.061c.076.727.128,1.474.157,2.219a.069.069,0,0,1-.065.071Zm-.46-4.414a.068.068,0,0,1-.068-.057c-.126-.731-.28-1.46-.456-2.168a.069.069,0,0,1,.05-.083.069.069,0,0,1,.083.05c.177.71.331,1.443.458,2.177a.069.069,0,0,1-.056.079Zm-1.074-4.3a.069.069,0,0,1-.065-.047c-.233-.7-.5-1.4-.781-2.072a.068.068,0,0,1,.036-.089.068.068,0,0,1,.09.036c.286.674.55,1.375.785,2.083a.068.068,0,0,1-.043.086A.061.061,0,0,1,2604.644-538Zm-1.738-4.082a.068.068,0,0,1-.061-.037c-.352-.663-.732-1.3-1.129-1.9a.069.069,0,0,1,.02-.1.068.068,0,0,1,.094.019c.4.6.781,1.249,1.136,1.916a.068.068,0,0,1-.028.092A.067.067,0,0,1,2602.906-542.084Z" transform="translate(-2599.641 546.715)" fill="#fff"/>
                <path id="Trazado_107611" data-name="Trazado 107611" d="M2604.639-495.289a.062.062,0,0,1-.021,0,.068.068,0,0,1-.044-.086q.175-.524.337-1.04a.069.069,0,0,1,.085-.045.069.069,0,0,1,.045.086q-.162.518-.337,1.042A.068.068,0,0,1,2604.639-495.289Z" transform="translate(-2600.701 529.068)" fill="#fff"/>
              </g>
            </g>
            <g id="Grupo_56244" data-name="Grupo 56244" transform="translate(119.492 30.799)">
              <path id="Trazado_107612" data-name="Trazado 107612" d="M2681.869-490.981a2.041,2.041,0,0,1-1.351-.451.069.069,0,0,1-.016-.024c0-.006-.246-.616-.6-1.672-1.671-5.019-5.088-17.84-.724-28.456l0-.008c2.877-5.087,9.08-6.522,9.143-6.536a.069.069,0,0,1,.064.019.07.07,0,0,1,.018.064c-.054.234-5.359,23.572-4.536,34.3.053.683.131,1.314.231,1.872a.069.069,0,0,1-.028.068A3.859,3.859,0,0,1,2681.869-490.981Zm-1.245-.54c.127.115,1.28,1.061,3.338-.368-.1-.552-.173-1.172-.225-1.843-.8-10.375,4.121-32.491,4.514-34.237-.83.214-6.3,1.775-8.945,6.44-4.343,10.573-.937,23.353.729,28.357C2680.355-492.208,2680.585-491.618,2680.624-491.521Z" transform="translate(-2677.048 528.13)" fill="#fff"/>
              <path id="Trazado_107613" data-name="Trazado 107613" d="M2683.546-470.8a2.042,2.042,0,0,1-1.351-.451.069.069,0,0,1-.016-.024c0-.006-.246-.616-.6-1.672a.068.068,0,0,1,.015-.069.07.07,0,0,1,.068-.019,4.2,4.2,0,0,0,3.776-.576.069.069,0,0,1,.069-.007.069.069,0,0,1,.04.057c.053.683.131,1.314.231,1.872a.069.069,0,0,1-.028.068A3.858,3.858,0,0,1,2683.546-470.8Zm-1.245-.54c.127.115,1.281,1.061,3.338-.368-.091-.52-.164-1.1-.216-1.722a4.324,4.324,0,0,1-3.671.561C2682.052-471.98,2682.265-471.435,2682.3-471.343Z" transform="translate(-2678.725 507.951)" fill="#fff"/>
              <g id="Grupo_56243" data-name="Grupo 56243" transform="translate(1.355 2.648)">
                <path id="Trazado_107614" data-name="Trazado 107614" d="M2688.4-522.985a.07.07,0,0,1-.044-.016.069.069,0,0,1-.008-.1,9.67,9.67,0,0,1,.747-.809.068.068,0,0,1,.1,0,.068.068,0,0,1,0,.1,9.986,9.986,0,0,0-.736.8A.068.068,0,0,1,2688.4-522.985Z" transform="translate(-2682.579 523.925)" fill="#fff"/>
                <path id="Trazado_107615" data-name="Trazado 107615" d="M2680.927-491.8a.069.069,0,0,1-.066-.05c-.194-.719-.375-1.445-.537-2.158a.068.068,0,0,1,.052-.082.068.068,0,0,1,.082.052c.161.711.341,1.435.536,2.152a.069.069,0,0,1-.048.084A.065.065,0,0,1,2680.927-491.8Zm-.979-4.331a.068.068,0,0,1-.067-.057c-.132-.735-.247-1.474-.341-2.2a.068.068,0,0,1,.059-.076.068.068,0,0,1,.077.059c.094.721.208,1.458.34,2.191a.069.069,0,0,1-.055.079Zm-.57-4.4a.069.069,0,0,1-.069-.063c-.056-.745-.094-1.493-.109-2.221a.069.069,0,0,1,.067-.07.067.067,0,0,1,.07.067c.015.727.052,1.471.109,2.214a.068.068,0,0,1-.063.074Zm-.09-4.437h0a.069.069,0,0,1-.065-.071c.029-.745.082-1.491.157-2.219a.067.067,0,0,1,.075-.06.068.068,0,0,1,.061.075c-.075.725-.128,1.469-.157,2.21A.068.068,0,0,1,2679.288-504.974Zm.46-4.414h-.011a.069.069,0,0,1-.056-.079c.127-.734.281-1.467.458-2.177a.07.07,0,0,1,.083-.05.069.069,0,0,1,.05.083c-.176.708-.33,1.437-.456,2.168A.068.068,0,0,1,2679.748-509.388Zm1.074-4.305a.062.062,0,0,1-.021,0,.068.068,0,0,1-.043-.086c.235-.708.5-1.409.785-2.083a.068.068,0,0,1,.089-.036.069.069,0,0,1,.037.089c-.285.671-.548,1.368-.782,2.073A.069.069,0,0,1,2680.822-513.693Zm1.738-4.081a.065.065,0,0,1-.032-.008.069.069,0,0,1-.029-.093c.353-.666.736-1.31,1.135-1.916a.068.068,0,0,1,.094-.019.068.068,0,0,1,.02.094c-.4.6-.777,1.243-1.128,1.9A.069.069,0,0,1,2682.56-517.774Z" transform="translate(-2679.2 522.406)" fill="#fff"/>
                <path id="Trazado_107616" data-name="Trazado 107616" d="M2683.23-470.979a.068.068,0,0,1-.065-.047q-.175-.525-.337-1.042a.068.068,0,0,1,.045-.086.069.069,0,0,1,.086.045q.162.516.336,1.04a.069.069,0,0,1-.043.087A.063.063,0,0,1,2683.23-470.979Z" transform="translate(-2680.542 504.759)" fill="#fff"/>
              </g>
            </g>
            <g id="Grupo_56245" data-name="Grupo 56245" transform="translate(82.37 35.28)">
              <path id="Trazado_107617" data-name="Trazado 107617" d="M2627.543-475.013a7.339,7.339,0,0,1-4.179-1.433.073.073,0,0,1-.024-.03c-.154-.353-.3-.715-.435-1.074-2.841-7.573.349-12.035.382-12.079a.068.068,0,0,1,.1-.014.068.068,0,0,1,.014.1c-.032.043-3.177,4.45-.364,11.95.132.351.274.7.424,1.05,4.471,3.025,7.841.586,11.741-2.236,3.666-2.653,7.819-5.658,13.854-4.99a8.932,8.932,0,0,0-.252-1.19c-1.424-5.066-7.052-9.191-7.109-9.232a.069.069,0,0,1-.015-.1.069.069,0,0,1,.1-.016c.058.042,5.724,4.194,7.16,9.306a9.144,9.144,0,0,1,.268,1.3.068.068,0,0,1-.02.057.067.067,0,0,1-.056.02c-6.03-.7-10.181,2.3-13.845,4.955C2632.628-476.755,2630.219-475.013,2627.543-475.013Z" transform="translate(-2619.445 511.132)" fill="#fff"/>
              <path id="Trazado_107618" data-name="Trazado 107618" d="M2624.616-499.225a18.608,18.608,0,0,1-2.626-.156.069.069,0,0,1-.047-.031.07.07,0,0,1-.007-.056c1.781-5.715-3.765-16.839-3.821-16.951a.069.069,0,0,1,.03-.092.068.068,0,0,1,.092.03c.056.112,5.578,11.187,3.853,16.977a27.9,27.9,0,0,0,18.194-4.617c-4.272-4.271-4.7-16.634-4.7-16.758a.069.069,0,0,1,.066-.07.071.071,0,0,1,.071.066c0,.125.429,12.548,4.718,16.724a.067.067,0,0,1,.021.055.071.071,0,0,1-.03.05A28.424,28.424,0,0,1,2624.616-499.225Z" transform="translate(-2618.105 520.991)" fill="#fff"/>
              <path id="Trazado_107619" data-name="Trazado 107619" d="M2618.372-516.364c-.24,0-.253-.052-.263-.093-.023-.091-.062-.245,2.527-1.041,1.63-.5,3.814-1.1,6.15-1.7s4.543-1.1,6.215-1.44c2.655-.533,2.694-.38,2.717-.289h0c.023.091.062.244-2.527,1.041-1.63.5-3.814,1.1-6.15,1.7s-4.542,1.1-6.214,1.439A15.716,15.716,0,0,1,2618.372-516.364Zm-.1-.135a60.7,60.7,0,0,0,8.731-1.819,60.5,60.5,0,0,0,8.542-2.561,60.124,60.124,0,0,0-8.73,1.818A60.532,60.532,0,0,0,2618.276-516.5Zm17.323-4.367h0Z" transform="translate(-2618.103 521.015)" fill="#fff"/>
              <path id="Trazado_107620" data-name="Trazado 107620" d="M2625.534-498.665a.056.056,0,0,1-.023,0,.069.069,0,0,1-.042-.088,8.769,8.769,0,0,0,.465-2.115.068.068,0,0,1,.075-.061.067.067,0,0,1,.061.074,8.877,8.877,0,0,1-.473,2.148A.068.068,0,0,1,2625.534-498.665Zm.473-4.317a.068.068,0,0,1-.068-.062,16.329,16.329,0,0,0-.336-2.153.068.068,0,0,1,.052-.082.069.069,0,0,1,.082.052,16.547,16.547,0,0,1,.339,2.171.068.068,0,0,1-.062.074Zm-.923-4.27a.068.068,0,0,1-.065-.047c-.22-.666-.479-1.354-.771-2.044a.069.069,0,0,1,.036-.089.069.069,0,0,1,.09.037c.293.693.553,1.384.774,2.054a.068.068,0,0,1-.043.086A.065.065,0,0,1,2625.084-507.252Zm-1.7-4.035a.068.068,0,0,1-.061-.038c-.594-1.168-1.06-1.9-1.064-1.91a.068.068,0,0,1,.021-.094.068.068,0,0,1,.094.021c0,.008.474.747,1.071,1.922a.068.068,0,0,1-.031.092A.066.066,0,0,1,2623.388-511.287Z" transform="translate(-2619.639 518.174)" fill="#fff"/>
              <path id="Trazado_107621" data-name="Trazado 107621" d="M2646.578-504.126a.066.066,0,0,1-.047-.02,10.439,10.439,0,0,1-1.409-1.687.069.069,0,0,1,.019-.1.069.069,0,0,1,.095.019,10.266,10.266,0,0,0,1.39,1.664.069.069,0,0,1,0,.1A.068.068,0,0,1,2646.578-504.126Zm-2.444-3.595a.069.069,0,0,1-.063-.041,14.935,14.935,0,0,1-.719-2.074.068.068,0,0,1,.048-.084.068.068,0,0,1,.084.048,14.882,14.882,0,0,0,.713,2.055.069.069,0,0,1-.036.09A.071.071,0,0,1,2644.134-507.721Zm-1.152-4.208a.068.068,0,0,1-.068-.059c-.1-.7-.17-1.439-.2-2.186a.069.069,0,0,1,.066-.072.065.065,0,0,1,.071.066c.033.743.1,1.474.2,2.173a.068.068,0,0,1-.058.077Zm-.2-4.367h0a.068.068,0,0,1-.065-.071,19.565,19.565,0,0,1,.206-2.187.068.068,0,0,1,.079-.056.069.069,0,0,1,.056.079,19.5,19.5,0,0,0-.2,2.17A.068.068,0,0,1,2642.782-516.3Z" transform="translate(-2627.214 520.125)" fill="#fff"/>
              <path id="Trazado_107622" data-name="Trazado 107622" d="M2628.219-469.7a7.321,7.321,0,0,1-4.165-1.435.069.069,0,0,1-.024-.03c-.154-.353-.3-.715-.435-1.074a.067.067,0,0,1,.019-.076.068.068,0,0,1,.078-.008c2.078,1.152,5.533,1.8,10.19-1.664,6.3-4.686,10.254-6.742,15.687-5.752a.067.067,0,0,1,.053.049,9.109,9.109,0,0,1,.268,1.3.067.067,0,0,1-.019.057.066.066,0,0,1-.056.02c-6.031-.7-10.182,2.3-13.845,4.955a29.345,29.345,0,0,1-4.446,2.845A7.73,7.73,0,0,1,2628.219-469.7Zm-4.072-1.537a6.763,6.763,0,0,0,7.317.6,29.112,29.112,0,0,0,4.424-2.832c3.666-2.653,7.819-5.659,13.854-4.99a8.888,8.888,0,0,0-.24-1.149c-5.362-.962-9.288,1.086-15.539,5.735-4.6,3.419-8.047,2.877-10.174,1.762C2623.9-471.826,2624.021-471.531,2624.147-471.241Z" transform="translate(-2620.135 505.825)" fill="#fff"/>
              <path id="Trazado_107623" data-name="Trazado 107623" d="M2636.1-469.677a.069.069,0,0,1-.066-.052.069.069,0,0,1,.037-.078,29.107,29.107,0,0,0,4.424-2.832c3.684-2.665,7.86-5.686,13.942-4.98a.07.07,0,0,1,.061.07c-.187,7.019-18.212,7.865-18.394,7.873Zm16.567-7.91c-5.1,0-8.795,2.672-12.092,5.058a31.906,31.906,0,0,1-4.14,2.7c2.475-.152,17.655-1.348,17.923-7.659A15.217,15.217,0,0,0,2652.666-477.587Z" transform="translate(-2624.741 504.988)" fill="#fff"/>
            </g>
            <g id="Grupo_56247" data-name="Grupo 56247" transform="translate(79.967 5.518)">
              <path id="Trazado_107624" data-name="Trazado 107624" d="M2623.355-546.782a12.191,12.191,0,0,1-3.963-.676c-2.6-.913-4.619-2.61-5.015-4.224a2.9,2.9,0,0,1-.071-.424.068.068,0,0,1,.052-.072.067.067,0,0,1,.079.04c.672,1.642,2.995,3.289,5.649,4a10.693,10.693,0,0,0,9.447-1.765,48.033,48.033,0,0,1,7.042-4.311c3.174-1.684,5.467-2.9,5.35-4.69a.069.069,0,0,1,.053-.071.068.068,0,0,1,.079.04,3.023,3.023,0,0,1,.14.424h0c.517,2.108-1.948,3.416-5.359,5.227a47.881,47.881,0,0,0-7.022,4.3A10.4,10.4,0,0,1,2623.355-546.782Zm-8.827-4.862c.423,1.527,2.425,3.185,4.908,4.056a10.869,10.869,0,0,0,10.294-1.5,48.035,48.035,0,0,1,7.042-4.31c3.356-1.782,5.782-3.068,5.29-5.073l-.012-.047c-.2,1.666-2.42,2.845-5.412,4.432a47.913,47.913,0,0,0-7.023,4.3,10.826,10.826,0,0,1-9.565,1.789A9.266,9.266,0,0,1,2614.528-551.644Z" transform="translate(-2614.294 564.829)" fill="#fff"/>
              <path id="Trazado_107625" data-name="Trazado 107625" d="M2623.142-549.431a12.02,12.02,0,0,1-3.1-.414c-2.736-.738-5.042-2.38-5.74-4.085a.057.057,0,0,1-.005-.02,3.133,3.133,0,0,1,.026-.753c.354-2.267,3.079-4.738,7.289-6.611a.068.068,0,0,1,.091.035.068.068,0,0,1-.035.09c-4.105,1.827-6.868,4.32-7.21,6.507a3.026,3.026,0,0,0-.026.71c.677,1.639,3,3.281,5.645,4a10.693,10.693,0,0,0,9.447-1.765,48.015,48.015,0,0,1,7.042-4.311c3.167-1.68,5.457-2.9,5.351-4.679a2.964,2.964,0,0,0-.417-.695c-1.447-1.821-5.273-2.7-9.985-2.291a.07.07,0,0,1-.074-.062.069.069,0,0,1,.062-.074c4.756-.413,8.629.485,10.1,2.342a3.142,3.142,0,0,1,.44.737.08.08,0,0,1,0,.021c.123,1.878-2.2,3.112-5.422,4.82a47.931,47.931,0,0,0-7.023,4.3A10.412,10.412,0,0,1,2623.142-549.431Z" transform="translate(-2614.287 566.673)" fill="#fff"/>
              <path id="Trazado_107626" data-name="Trazado 107626" d="M2625.742-562.372a.06.06,0,0,1-.018,0,.068.068,0,0,1-.048-.084c.6-2.246,1.87-5.057,4.461-5.693,2.763-.678,4.857,1.62,6.125,3.668a.068.068,0,0,1-.022.094.069.069,0,0,1-.094-.022c-1.244-2.009-3.291-4.266-5.977-3.607-2.526.62-3.766,3.384-4.361,5.6A.069.069,0,0,1,2625.742-562.372Z" transform="translate(-2618.502 568.272)" fill="#fff"/>
              <path id="Trazado_107627" data-name="Trazado 107627" d="M2626.217-555.281c-.739,0-1.45-.1-1.538-.453a.338.338,0,0,1,.01-.185,19.185,19.185,0,0,1,.321-2.411.067.067,0,0,1,.08-.054.069.069,0,0,1,.054.08,19.787,19.787,0,0,0-.323,2.41.243.243,0,0,0-.01.127c.067.271.8.4,1.96.333a25.537,25.537,0,0,0,4.481-.734c3.689-.9,6.028-2.088,5.9-2.626a.141.141,0,0,0-.012-.033,16.5,16.5,0,0,0-.743-1.635.069.069,0,0,1,.03-.092.068.068,0,0,1,.092.029,16.4,16.4,0,0,1,.746,1.643.259.259,0,0,1,.02.055c.192.78-2.9,2.032-6,2.791a25.74,25.74,0,0,1-4.506.738C2626.6-555.288,2626.406-555.281,2626.217-555.281Z" transform="translate(-2618.132 565.418)" fill="#fff"/>
              <path id="Trazado_107628" data-name="Trazado 107628" d="M2636.938-559.372a.068.068,0,0,1-.033-.009.07.07,0,0,1-.033-.044l-.29-1.183a.068.068,0,0,1,.045-.081,20.789,20.789,0,0,0,3.706-1.644.308.308,0,0,1,.418.112c.121.2.243.416.366.64a.313.313,0,0,1-.119.421h0a22.077,22.077,0,0,1-3.934,1.753l-.1.033A.08.08,0,0,1,2636.938-559.372Zm-.208-1.207.258,1.051.034-.011a21.936,21.936,0,0,0,3.909-1.741.176.176,0,0,0,.067-.235c-.122-.223-.244-.436-.363-.636a.173.173,0,0,0-.234-.063A20.945,20.945,0,0,1,2636.73-560.579Zm4.234-.641h0Z" transform="translate(-2622.541 566.088)" fill="#fff"/>
              <path id="Trazado_107629" data-name="Trazado 107629" d="M2627.868-557.361q-.161,0-.319,0a11.638,11.638,0,0,1-2.565-.345.31.31,0,0,1-.225-.367c.047-.224.1-.458.168-.717a.312.312,0,0,1,.142-.191.307.307,0,0,1,.235-.035,10.1,10.1,0,0,0,2.366.312,12.782,12.782,0,0,0,2.4-.2.073.073,0,0,1,.051.011.071.071,0,0,1,.028.045l.2,1.194a.068.068,0,0,1-.056.079A14.083,14.083,0,0,1,2627.868-557.361Zm-2.639-1.532a.172.172,0,0,0-.089.025.175.175,0,0,0-.08.108c-.066.257-.12.49-.167.712a.173.173,0,0,0,.125.206,11.457,11.457,0,0,0,2.533.341,13.847,13.847,0,0,0,2.648-.2l-.178-1.059a12.947,12.947,0,0,1-2.354.186,10.262,10.262,0,0,1-2.4-.315A.159.159,0,0,0,2625.229-558.893Z" transform="translate(-2618.162 564.851)" fill="#fff"/>
              <g id="Grupo_56246" data-name="Grupo 56246" transform="translate(11.777 5.175)">
                <path id="Trazado_107630" data-name="Trazado 107630" d="M2633.513-557.539a.206.206,0,0,1-.111-.033.2.2,0,0,1-.091-.139l-.319-1.9a.191.191,0,0,1,.04-.158.2.2,0,0,1,.14-.078l1.965-.208a.2.2,0,0,1,.219.154l.39,1.591a.2.2,0,0,1-.148.247l-2.037.518A.208.208,0,0,1,2633.513-557.539Zm1.646-2.38h-.008l-1.966.208a.071.071,0,0,0-.046.026.06.06,0,0,0-.012.05l.319,1.9a.061.061,0,0,0,.028.044.067.067,0,0,0,.054.01l2.036-.518a.066.066,0,0,0,.049-.081h0l-.39-1.592A.067.067,0,0,0,2635.158-559.919Zm-1.537,2.078a.068.068,0,0,1-.038-.011.074.074,0,0,1-.03-.046l-.271-1.615a.07.07,0,0,1,.013-.053.066.066,0,0,1,.047-.026l1.706-.18a.07.07,0,0,1,.073.052l.33,1.346a.068.068,0,0,1-.049.082l-1.764.448Zm-.192-1.623.247,1.47,1.627-.414-.3-1.222Z" transform="translate(-2632.988 560.056)" fill="#fff"/>
                <path id="Trazado_107631" data-name="Trazado 107631" d="M2634.523-557.889a.208.208,0,0,1-.108-.031.205.205,0,0,1-.1-.13.208.208,0,0,1,.024-.159.21.21,0,0,1,.13-.1l.851-.209a.211.211,0,0,1,.254.154.208.208,0,0,1-.025.159.206.206,0,0,1-.129.1l-.852.209A.192.192,0,0,1,2634.523-557.889Zm.853-.493a.051.051,0,0,0-.017,0l-.852.209a.073.073,0,0,0-.045.033.073.073,0,0,0-.009.056.077.077,0,0,0,.033.045.075.075,0,0,0,.056.008l.853-.209h0a.072.072,0,0,0,.045-.033.073.073,0,0,0,.009-.056A.074.074,0,0,0,2635.376-558.382Z" transform="translate(-2633.479 559.487)" fill="#fff"/>
              </g>
            </g>
            <g id="Grupo_56248" data-name="Grupo 56248" transform="translate(102.824 15.43)">
              <path id="Trazado_107632" data-name="Trazado 107632" d="M2655.617-532.339a7.588,7.588,0,0,1-4.74-1.78.068.068,0,0,1-.023-.074,14.837,14.837,0,0,0-.265-9.684.065.065,0,0,1,0-.064.068.068,0,0,1,.055-.033,18.953,18.953,0,0,0,13.921-8.529.067.067,0,0,1,.054-.031.066.066,0,0,1,.057.025,14.835,14.835,0,0,0,8.506,4.637.069.069,0,0,1,.055.054,7.375,7.375,0,0,1-1.018,5.782c-1.294,1.865-3.494,3.048-6.539,3.514l-3.095,1.9c-1.8,2.5-3.852,3.923-6.1,4.228A6.4,6.4,0,0,1,2655.617-532.339ZM2651-534.2a7.228,7.228,0,0,0,5.473,1.663c2.214-.3,4.238-1.708,6.017-4.183a.066.066,0,0,1,.02-.018l3.118-1.91a.063.063,0,0,1,.026-.01c3.013-.459,5.187-1.623,6.46-3.459a7.225,7.225,0,0,0,1.006-5.63,15.075,15.075,0,0,1-8.484-4.607,19.142,19.142,0,0,1-13.883,8.509A15.081,15.081,0,0,1,2651-534.2Z" transform="translate(-2650.582 552.534)" fill="#fff"/>
              <path id="Trazado_107633" data-name="Trazado 107633" d="M2655.776-529.6a7.629,7.629,0,0,1-4.742-1.781.069.069,0,0,1-.015-.09.067.067,0,0,1,.088-.024c.054.026,5.391,2.609,11.435-4.065l.723-.84a.063.063,0,0,1,.053-.023,10.4,10.4,0,0,0,4.172-1.048,10.834,10.834,0,0,0,5.775-7.611.062.062,0,0,1,.068-.052.069.069,0,0,1,.065.054c.745,3.558-.6,7.822-6.624,9.125a5.928,5.928,0,0,0-1.852.734l-1.256.77a5.948,5.948,0,0,0-1.5,1.316C2660.081-530.571,2657.841-529.6,2655.776-529.6Zm-4.276-1.6c2.784,2,6.9,2.461,10.566-2.024a6.08,6.08,0,0,1,1.53-1.346l1.256-.77a6.06,6.06,0,0,1,1.9-.751c5.754-1.245,7.17-5.234,6.576-8.664a10.89,10.89,0,0,1-5.778,7.408,10.664,10.664,0,0,1-4.195,1.059l-.7.817C2657.548-529.838,2652.931-530.726,2651.5-531.195Z" transform="translate(-2650.74 549.793)" fill="#fff"/>
            </g>
            <g id="Grupo_56255" data-name="Grupo 56255" transform="translate(0 3.021)">
              <g id="Grupo_56251" data-name="Grupo 56251" transform="translate(21.232)">
                <path id="Trazado_107634" data-name="Trazado 107634" d="M2566.457-566.966q-2.5,25.482-5,50.964a13.763,13.763,0,0,0-4.529-4.1c-3.085-1.636-6.356-1.371-9.7-.37q-.591.179-1.185.383c-1.335.46-2.677,1.016-4.023,1.592-6.6,2.83-13.256,6.19-19.119,1.473a14.543,14.543,0,0,1-1.88-1.833c.022-.277.044-.556.066-.833l4.064-51.215c5.218,7.021,11.245,5.8,17.393,3.344,5.193-2.075,10.473-5.033,15.427-4.646C2560.949-571.973,2563.807-570.531,2566.457-566.966Z" transform="translate(-2521.024 572.239)" fill="#ffe0ce"/>
                <g id="Grupo_56249" data-name="Grupo 56249" transform="translate(3.781 11.667)">
                  <path id="Trazado_107635" data-name="Trazado 107635" d="M2532.157-511.4a10.9,10.9,0,0,1-3.405-.54,12.085,12.085,0,0,1-1.506-.669l-.009-.005a.091.091,0,0,1-.064-.1l4-40.777a.092.092,0,0,1,.048-.072.092.092,0,0,1,.086,0,10.679,10.679,0,0,0,6.826,1.051.076.076,0,0,1,.039-.007c.086,0,.087.085.089.133.018,1.132.284,4.982,2.941,6.985,1.729,1.3,4.139,1.555,7.161.743a.093.093,0,0,1,.083.019.09.09,0,0,1,.031.078l-1.57,16.011c0,.032,0,.032-.136.181-2.023,2.245-8.668,10.03-9.249,15.953a.092.092,0,0,1-.063.078A17.546,17.546,0,0,1,2532.157-511.4Zm-4.8-1.353a12.543,12.543,0,0,0,1.443.639c1.319.4,3.765,1.131,8.54-.373.625-5.971,7.263-13.75,9.288-16l.094-.1,1.554-15.853c-3.021.786-5.44.515-7.191-.807-2.675-2.018-2.984-5.839-3.012-7.065a10.849,10.849,0,0,1-6.738-1.019Z" transform="translate(-2527.081 553.66)" fill="#ffe0ce"/>
                  <path id="Trazado_107636" data-name="Trazado 107636" d="M2532.1-511.362a11,11,0,0,1-3.431-.545,12.156,12.156,0,0,1-1.527-.677.179.179,0,0,1-.118-.189l4-40.776a.185.185,0,0,1,.1-.144.184.184,0,0,1,.173,0,10.579,10.579,0,0,0,6.759,1.043.172.172,0,0,1,.071-.009c.075,0,.169.044.172.222.018,1.122.281,4.936,2.9,6.915,1.706,1.287,4.089,1.531,7.083.727a.187.187,0,0,1,.165.037.181.181,0,0,1,.064.157l-1.57,16.011c-.006.062-.015.072-.161.234-2.018,2.239-8.647,10.005-9.225,15.9a.182.182,0,0,1-.127.156A17.888,17.888,0,0,1,2532.1-511.362Zm-1.335-.263a10.869,10.869,0,0,0,1.335.08q.419,0,.858-.03A11.5,11.5,0,0,1,2530.769-511.624Zm-3.365-1.233a13.3,13.3,0,0,0,1.38.6c1.3.388,3.714,1.113,8.423-.357.665-5.992,7.286-13.749,9.3-15.99l.074-.082,1.539-15.693c-2.99.753-5.393.465-7.143-.855-2.651-2-3-5.766-3.045-7.033a10.922,10.922,0,0,1-6.573-.981Zm9.958.389-.044.014c-.068.022-.135.043-.2.063Zm.016-.032,0,.028h0Zm-6.169-41.031-4,40.777.009,0-.009-.005.006-.059,3.993-40.715.092.048Zm15.5,24.982-.053.059-.19.212.179-.2Zm1.62-16.068-.013.13-1.557,15.879,0,0,1.567-16.006-.092.025Zm-7.531-.993q.141.121.291.234a7.352,7.352,0,0,0,5.846,1.065,7.355,7.355,0,0,1-5.846-1.065Q2540.94-545.49,2540.8-545.611Zm6.143,1.3h0Zm.006,0h0Zm.006,0h0Zm.006,0h0Zm.006,0h0Zm.006,0Zm-15.256-8.958a10.872,10.872,0,0,0,6.3.817l.1-.014,0-.011-.018.013A10.913,10.913,0,0,1,2531.715-553.276Zm6.4.822,0,.073c0-.018,0-.035,0-.052Z" transform="translate(-2527.028 553.714)" fill="#b2927e"/>
                </g>
                <g id="Grupo_56250" data-name="Grupo 56250" transform="translate(25.281 4.199)">
                  <path id="Trazado_107637" data-name="Trazado 107637" d="M2569.907-522.1h-.01a.094.094,0,0,1-.033-.01l-.01,0c-.054-.01-.187-.034-.516-.109l-.107-.018a11.738,11.738,0,0,0-3.774-.016.089.089,0,0,1-.075-.025.091.091,0,0,1-.028-.074c.969-9.881-.428-21.127-1.347-26.951-.486-3.115-1.335-7.888-2.624-12.929a1.519,1.519,0,0,1-.073-.312h0a.092.092,0,0,1,.086-.083c.285-.147.837-.373,1.641-.673l.321-.132a35.9,35.9,0,0,1,3.629-1.314,14.511,14.511,0,0,1,7.484-.318.093.093,0,0,1,.061.048.091.091,0,0,1,0,.077c-3.874,9.029-4.513,41.363-4.539,42.735v.011a.085.085,0,0,1,0,.016.085.085,0,0,1,0,.016A.091.091,0,0,1,2569.907-522.1Zm-2.447-.476a9.888,9.888,0,0,1,1.8.156l.111.019c.233.053.367.081.444.1.045-2.332.722-33.564,4.509-42.61a14.367,14.367,0,0,0-7.286.339,35.694,35.694,0,0,0-3.611,1.308l-.324.134c-.774.288-1.309.507-1.6.651.011.046.029.114.052.2,1.291,5.049,2.142,9.827,2.628,12.946.917,5.811,2.309,17.01,1.359,26.884A16.032,16.032,0,0,1,2567.46-522.578Z" transform="translate(-2561.22 565.517)" fill="#ffe0ce"/>
                  <path id="Trazado_107638" data-name="Trazado 107638" d="M2569.853-522.066h-.021a.183.183,0,0,1-.051-.013c-.067-.013-.2-.038-.517-.11l-.1-.016a11.666,11.666,0,0,0-3.748-.016.185.185,0,0,1-.15-.051.183.183,0,0,1-.054-.147c.969-9.872-.428-21.109-1.346-26.928-.486-3.114-1.334-7.882-2.623-12.921-.078-.307-.078-.307-.075-.344a.181.181,0,0,1,.15-.162c.292-.149.843-.375,1.636-.67l.318-.132a36.019,36.019,0,0,1,3.638-1.317,14.6,14.6,0,0,1,7.531-.319.183.183,0,0,1,.122.1.184.184,0,0,1,.005.154c-3.868,9.015-4.506,41.33-4.532,42.7a.206.206,0,0,1,0,.036l-.006.032A.184.184,0,0,1,2569.853-522.066Zm-.019-.189.018.007v0Zm.021-.178v.072l0,.1v-.006C2569.854-522.3,2569.855-522.357,2569.856-522.432Zm-4.23-3.177c-.053,1.079-.13,2.151-.233,3.207l.073-.009-.073.009.011-.113C2565.5-523.535,2565.575-524.568,2565.626-525.61Zm1.779,3.069a9.645,9.645,0,0,1,1.584.122,9.635,9.635,0,0,0-1.583-.122c-.139,0-.281,0-.426.008C2567.13-522.538,2567.271-522.541,2567.405-522.541Zm0-.182a9.921,9.921,0,0,1,1.817.157l.111.018.34.074c.078-3.892.789-33.424,4.472-42.433a14.3,14.3,0,0,0-7.136.362,35.588,35.588,0,0,0-3.6,1.3l-.327.135c-.717.267-1.228.474-1.524.616l.033.132c1.292,5.051,2.143,9.833,2.63,12.954.913,5.783,2.3,16.935,1.37,26.794A15.954,15.954,0,0,1,2567.406-522.723Zm-3.893-29.838c.211,1.184.388,2.257.532,3.184.105.665.216,1.4.329,2.2-.113-.8-.224-1.532-.329-2.2C2563.9-550.3,2563.724-551.377,2563.513-552.561Zm0,0v0Zm-.192-1.054v0Zm-1.846-8.48c.769,3.034,1.378,5.959,1.846,8.477C2562.853-556.139,2562.243-559.066,2561.475-562.1Zm-.1-.379.024.1Zm-.011-.122h-.018v.008Zm.093-.047-.057.029.011-.006Zm6.865-2.413c-.478.1-.933.217-1.365.337a35.978,35.978,0,0,0-3.619,1.311l-.041.017.041-.017a35.839,35.839,0,0,1,3.619-1.311C2567.393-564.84,2567.848-564.956,2568.326-565.057Zm6.073.02-.042.1-.075.184q.058-.146.118-.284Z" transform="translate(-2561.167 565.571)" fill="#b2927e"/>
                </g>
              </g>
              <g id="Grupo_56254" data-name="Grupo 56254" transform="translate(0 23.597)">
                <path id="Trazado_107639" data-name="Trazado 107639" d="M2532.313-498.768c-5.016-2.068-8.233-.335-10.9,2.553-2.156,2.33-3.953,5.414-6.053,7.858-2.6,3.029-5.667,5.08-10.446,3.51q-8.79-17.706-17.6-35.462a9.276,9.276,0,0,0,6.212.618c3.7-1.057,6.121-4.833,8.666-8.344,2.4-3.308,4.908-6.376,8.715-6.706a10.213,10.213,0,0,1,4.8.877q6.92,14.621,13.841,29.241Q2530.928-501.7,2532.313-498.768Z" transform="translate(-2487.31 534.77)" fill="#ffece2"/>
                <g id="Grupo_56252" data-name="Grupo 56252" transform="translate(5.727 14.699)">
                  <path id="Trazado_107640" data-name="Trazado 107640" d="M2511.146-476.977a.09.09,0,0,1-.082-.052l-14.5-30.641-.006-.014a.091.091,0,0,1,.044-.121.094.094,0,0,1,.064-.005c.038,0,.15-.015.379-.04l.55-.06.114-.026c.962-.209,2.753-.6,5.3-3.32a.093.093,0,0,1,.081-.028.092.092,0,0,1,.068.051c1.347,2.845,3.143,4.641,5.195,5.2a4.639,4.639,0,0,0,2.981-.109.092.092,0,0,1,.04-.026.091.091,0,0,1,.109.049.107.107,0,0,1,.008.026h0l.282,1.962c1.266,8.782,2.574,17.863,3.378,25.775a.092.092,0,0,1-.042.086,7.825,7.825,0,0,1-3.954,1.3Zm-14.37-30.662,14.426,30.477a7.641,7.641,0,0,0,3.756-1.238c-.8-7.894-2.109-16.952-3.371-25.711l-.265-1.837a4.665,4.665,0,0,1-2.038.258c-1.743-.142-4.233-1.186-6.239-5.344-2.537,2.675-4.333,3.066-5.3,3.277l-.124.027-.559.062C2496.936-507.655,2496.845-507.645,2496.777-507.638Z" transform="translate(-2496.456 511.376)" fill="#ffe0ce"/>
                  <path id="Trazado_107641" data-name="Trazado 107641" d="M2511.094-476.939a.182.182,0,0,1-.165-.1l-14.5-30.641a.187.187,0,0,1,.082-.256.186.186,0,0,1,.109-.014c.045,0,.149-.015.339-.037l.572-.063.1-.024c.953-.207,2.725-.593,5.253-3.293a.184.184,0,0,1,.16-.055.181.181,0,0,1,.137.1c1.335,2.82,3.111,4.6,5.137,5.146a4.617,4.617,0,0,0,2.9-.094.178.178,0,0,1,.071-.04.183.183,0,0,1,.217.1.184.184,0,0,1,.016.052l.283,1.962c1.266,8.783,2.574,17.865,3.378,25.778a.182.182,0,0,1-.083.172,7.919,7.919,0,0,1-4,1.313Zm0-.183v0Zm-14.511-30.654,14.511,30.654-.027-.055-14.482-30.594h.01Zm15.368,30.567a7.669,7.669,0,0,1-.8.084l-.037,0A7.7,7.7,0,0,0,2511.951-477.209Zm-15.089-30.405,14.345,30.3a7.54,7.54,0,0,0,3.6-1.189c-.8-7.885-2.106-16.916-3.365-25.651l-.248-1.724a4.927,4.927,0,0,1-1.971.222c-1.745-.141-4.24-1.175-6.257-5.277-2.51,2.609-4.294,3-5.259,3.207l-.124.027-.568.064Zm18.119,29.222-.026.016q-.272.173-.547.322Q2514.7-478.21,2514.981-478.392Zm-3.637-27.738.282,1.954c1.244,8.63,2.53,17.552,3.336,25.372-.806-7.815-2.092-16.737-3.336-25.371l-.283-1.962-.02.016Zm-8.325-5.115.057.118c1.807,3.745,4,4.939,5.674,5.23q-.233-.041-.478-.106c-2.079-.561-3.9-2.374-5.253-5.243l-.062.066ZM2498-507.973c-.117.028-.226.051-.325.073l-.114.026-.582.064-.1.011.121-.013.562-.062.114-.026C2497.771-507.922,2497.879-507.946,2498-507.973Z" transform="translate(-2496.404 511.429)" fill="#b2927e"/>
                </g>
                <g id="Grupo_56253" data-name="Grupo 56253" transform="translate(17.39 2.828)">
                  <path id="Trazado_107642" data-name="Trazado 107642" d="M2531.84-496.065a.092.092,0,0,1-.075-.04l-.007-.013-.253-.375c-4.151-6.122-14.063-21.156-16.431-28.508a.092.092,0,0,1,.015-.084c1.865-2.372,4.233-4.826,7.669-5.05a.09.09,0,0,1,.091.059c.113.28,9.988,24.113,13.919,31.175a.093.093,0,0,1,0,.081.093.093,0,0,1-.063.052,8.693,8.693,0,0,0-4.1,2.032c-.065.057-.124.109-.179.154a3.069,3.069,0,0,1-.5.454.089.089,0,0,1-.047.053A.086.086,0,0,1,2531.84-496.065Zm-16.579-28.945c2.388,7.346,12.255,22.312,16.395,28.416l.2.3a3.494,3.494,0,0,0,.451-.415l.183-.159a8.792,8.792,0,0,1,4.061-2.044c-2.042-3.7-5.677-11.891-8.38-18.141-1.549-3.581-2.958-6.908-3.867-9.069-1.147-2.724-1.5-3.553-1.591-3.822C2519.4-529.706,2517.086-527.324,2515.261-525.009Z" transform="translate(-2514.978 530.225)" fill="#ffe0ce"/>
                  <path id="Trazado_107643" data-name="Trazado 107643" d="M2531.787-496.027a.182.182,0,0,1-.151-.081l-.015-.026h0s-.1-.151-.245-.36c-4.153-6.126-14.071-21.168-16.443-28.531a.181.181,0,0,1,.031-.169c1.876-2.387,4.263-4.858,7.735-5.084a.182.182,0,0,1,.182.117c.09.223,10.011,24.154,13.913,31.164a.182.182,0,0,1,.008.162.183.183,0,0,1-.125.1,8.613,8.613,0,0,0-4.061,2.012c-.065.057-.125.11-.18.156a3.508,3.508,0,0,1-.49.446.18.18,0,0,1-.081.074A.176.176,0,0,1,2531.787-496.027Zm-.008-.2,0,0,.006.1v-.091h0l.009-.026Zm.279-.223c-.067.061-.126.112-.179.151A2.317,2.317,0,0,0,2532.057-496.446Zm-16.748-28.6c2.411,7.351,12.245,22.266,16.368,28.347l.146.215a4.327,4.327,0,0,0,.364-.347c.067-.057.125-.108.189-.164a8.81,8.81,0,0,1,3.984-2.034c-2.056-3.755-5.657-11.87-8.327-18.046-1.552-3.588-2.96-6.912-3.868-9.069-1.07-2.543-1.444-3.431-1.569-3.761C2519.36-529.639,2517.1-527.308,2515.309-525.045Zm-.2-.037c2.353,7.3,12.168,22.21,16.355,28.39-4.173-6.16-13.961-21.024-16.34-28.343Zm17.875,27.818c-.2.152-.354.291-.486.406l-.026.023.026-.023C2532.628-496.973,2532.787-497.111,2532.981-497.263Zm2.716-1.384h0Zm.922-.289.014.026-.115.029c-.293.073-.566.152-.821.234q.431-.139.937-.262Zm-13.771-30.826c.159.4.5,1.2,1.19,2.849C2523.468-528.273,2523.051-529.273,2522.848-529.762Z" transform="translate(-2514.924 530.279)" fill="#b2927e"/>
                </g>
              </g>
            </g>
            <path id="Trazado_107644" data-name="Trazado 107644" d="M2587.566-566.946q-2.5,25.482-5,50.964a13.768,13.768,0,0,0-4.529-4.1l1.043-52.1C2582.058-571.953,2584.916-570.511,2587.566-566.946Z" transform="translate(-2520.901 575.239)" fill="#ffcab3" opacity="0.4"/>
            <path id="Trazado_107645" data-name="Trazado 107645" d="M2548.619-519.684a49.743,49.743,0,0,0-5.208,1.975q-6.92-14.621-13.841-29.241a10.213,10.213,0,0,0-4.8-.877q.883-11.14,1.768-22.29c5.218,7.021,11.245,5.8,17.393,3.344Z" transform="translate(-2501.18 574.474)" fill="#fff" opacity="0.25"/>
            <path id="Trazado_107646" data-name="Trazado 107646" d="M2550.413-505.347c-1.335.46-2.677,1.016-4.022,1.592l-13.571-28.67h5.854Z" transform="translate(-2504.159 560.519)" fill="#b2927e" opacity="0.15"/>
            <path id="Trazado_107647" data-name="Trazado 107647" d="M2515.356-479.856c-2.6,3.029-5.667,5.08-10.446,3.51q-8.79-17.706-17.6-35.462a9.277,9.277,0,0,0,6.212.618Z" transform="translate(-2487.31 552.886)" fill="#fff" opacity="0.25"/>
            <path id="Trazado_107648" data-name="Trazado 107648" d="M2541.06-498.768c-5.016-2.068-8.234-.335-10.9,2.553l-19.221-31.819c2.4-3.308,4.908-6.376,8.715-6.706a10.214,10.214,0,0,1,4.8.877q6.92,14.621,13.841,29.241Q2539.675-501.7,2541.06-498.768Z" transform="translate(-2496.057 561.387)" fill="#ffcab3" opacity="0.4"/>
          </g>
          <g id="Grupo_56263" data-name="Grupo 56263" transform="translate(34.458)">
            <g id="Grupo_56261" data-name="Grupo 56261">
              <g id="Grupo_56260" data-name="Grupo 56260">
                <g id="Grupo_56259" data-name="Grupo 56259">
                  <path id="Trazado_107649" data-name="Trazado 107649" d="M2576.843-571.213h0a7.1,7.1,0,0,1-.886-2.4l-.278-1.592.583-.091,1.044,1.425Z" transform="translate(-2554.485 593.62)" fill="#f28c70"/>
                  <path id="Trazado_107650" data-name="Trazado 107650" d="M2577.769-576.117l-.2.287a6.483,6.483,0,0,0-1.163,3.263l-.078,1.093-2.035,6.558,4.965,2.508v-8.039l.224-.224a5.31,5.31,0,0,0,1.55-2.663Z" transform="translate(-2553.971 593.926)" fill="#f28c70"/>
                  <g id="Grupo_56258" data-name="Grupo 56258" transform="translate(23.068 17.164)">
                    <g id="Grupo_56257" data-name="Grupo 56257">
                      <path id="Trazado_107651" data-name="Trazado 107651" d="M2581.093-575.606l-.326.329-.446.45a.414.414,0,0,1-.537.045.413.413,0,0,1-.129-.522l.488-.983a.415.415,0,0,1,.613-.152l.285.2a.381.381,0,0,1,.109.115l.022.037A.417.417,0,0,1,2581.093-575.606Z" transform="translate(-2579.009 576.909)" fill="#f5a38d"/>
                      <path id="Trazado_107652" data-name="Trazado 107652" d="M2578.911-575.433h0a.374.374,0,0,1-.252-.414l.158-.979a.374.374,0,0,1,.487-.3l.3.1a.374.374,0,0,1,.214.528l-.457.879A.374.374,0,0,1,2578.911-575.433Z" transform="translate(-2578.655 577.14)" fill="#f5a38d"/>
                      <path id="Trazado_107653" data-name="Trazado 107653" d="M2583.157-574.135a.367.367,0,0,1-.163.307l-.394.261-.414.272a.369.369,0,0,1-.472-.058.368.368,0,0,1-.017-.474l.274-.344.326-.413a.347.347,0,0,1,.1-.085.364.364,0,0,1,.459.063l.209.226a.35.35,0,0,1,.093.229A.043.043,0,0,1,2583.157-574.135Z" transform="translate(-2579.752 576.246)" fill="#f5a38d"/>
                      <path id="Trazado_107654" data-name="Trazado 107654" d="M2582.872-572.007h0a.318.318,0,0,1,.106-.4l.693-.479a.318.318,0,0,1,.468.125l.115.242a.318.318,0,0,1-.2.442l-.808.237A.319.319,0,0,1,2582.872-572.007Z" transform="translate(-2580.204 575.585)" fill="#f5a38d"/>
                    </g>
                  </g>
                  <path id="Trazado_107655" data-name="Trazado 107655" d="M2574.324-580.069h-1.6a1.887,1.887,0,0,1-.323-.021,3.215,3.215,0,0,1-1.039-.331,3.749,3.749,0,0,1-1.018-.766,7.6,7.6,0,0,1-.518-3.134c0-.409.022-.809.052-1.183a12.7,12.7,0,0,1,.331-2.182c.1-.222.757-2.858,1.092-3.651a.984.984,0,0,1,.085-.172c.3-.455.672-1.577,1.018-1.738a28.4,28.4,0,0,1,3-.454s.059.18.144.487c.115.4.279,1.016.422,1.721a12.99,12.99,0,0,1,.313,2.954C2576.561-586.072,2574.938-581.009,2574.324-580.069Z" transform="translate(-2552.318 600.436)" fill="url(#linear-gradient-2)"/>
                  <path id="Trazado_107656" data-name="Trazado 107656" d="M2593.971-368.909a5.063,5.063,0,0,1-4.018.2q-.32-.089-.685-.2s-11.53-29.721-12.482-37.978c-.5-4.348-1.064-23.405-1.064-23.405l10.627-30.559s1.255,12.9,1.255,26.192l-.779,3.006Z" transform="translate(-2554.501 551.251)" fill="#346062"/>
                  <path id="Trazado_107657" data-name="Trazado 107657" d="M2611.534-309.046H2596.17a6.517,6.517,0,0,1,1.29-5.609,5.062,5.062,0,0,0,4.017-.2,26.345,26.345,0,0,0,8.162,3.811,2.58,2.58,0,0,1,1.238.724A2.567,2.567,0,0,1,2611.534-309.046Z" transform="translate(-2562.007 497.2)" fill="#e04c3d"/>
                  <path id="Trazado_107658" data-name="Trazado 107658" d="M2598.612-523.224c-.061.03-.124.059-.185.087a9.422,9.422,0,0,1-2.877.8,9.268,9.268,0,0,1-1.1.066,9.532,9.532,0,0,1-2.345-.292l-2.21-.559-.47-6.74Z" transform="translate(-2559.575 576.801)" fill="#f28686"/>
                  <path id="Trazado_107659" data-name="Trazado 107659" d="M2568.1-571.281c-1.8-.028-3.987,2.458-9.892-.572a8.472,8.472,0,0,0,.759-1.875,13.569,13.569,0,0,0,.485-2.523,16.694,16.694,0,0,0-.033-3.491l.2-1.261h7.452l.018.38.02.444.176,3.932.029.642.13,2.908a1.986,1.986,0,0,0,.191.772A1.993,1.993,0,0,0,2568.1-571.281Z" transform="translate(-2548.019 595.735)" fill="url(#linear-gradient-2)"/>
                  <path id="Trazado_107660" data-name="Trazado 107660" d="M2576.683-449.885l-1.649,2.457-12.729,62.315s-.241.076-.624.165a7.177,7.177,0,0,1-3.776.042,2.172,2.172,0,0,1-.415-.207c-.579-.372-.294-7.4-.542-16.62v0c-.372-13.839-.64-31.77.344-34.867a37.253,37.253,0,0,1,6.995-13.141c-.915-3.263-1.664-6.405-2.276-9.353a128.589,128.589,0,0,1-2.732-21.022s-4.785-2.471-5.512-11c-.226-2.658.807-6.192,1.677-8.615.594-1.644,1.111-2.777,1.111-2.777l21,1.425S2580.182-492.017,2576.683-449.885Z" transform="translate(-2546.361 566.675)" fill="url(#linear-gradient-4)"/>
                  <path id="Trazado_107661" data-name="Trazado 107661" d="M2572.73-309.408h-14.825a13.961,13.961,0,0,1,1.544-6.386,7.176,7.176,0,0,0,3.776-.042c3.306,3.969,5.6,4.063,7.426,4.376a2.529,2.529,0,0,1,2.071,2.005Z" transform="translate(-2547.904 497.562)" fill="#e04c3d"/>
                  <path id="Trazado_107662" data-name="Trazado 107662" d="M2574.815-524.768v0a26.039,26.039,0,0,1-4.829,1.448,34.1,34.1,0,0,1-16.841-1.281c-1.107-.37-1.736-.649-1.736-.649s.072-.256.16-.717a20.6,20.6,0,0,0-.087-8.126c-.815-3.654-2.24-7.858-3.386-11.636l0-.011c-1.109-3.656-1.956-6.914-1.734-8.887.751-6.655,7.452-11.85,7.452-11.85,5.9,3.03,8.095.544,9.892.572a1.751,1.751,0,0,1,1.107.424,22.027,22.027,0,0,1,2.979,2.976c.335.4.655.817.959,1.239a29.3,29.3,0,0,1,4.081,8.378,48.249,48.249,0,0,1,1.874,9.361c.185,1.725.294,3.432.354,5.085C2575.259-532.848,2574.878-527.852,2574.815-524.768Z" transform="translate(-2543.616 590.356)" fill="#ff9696"/>
                  <path id="Trazado_107663" data-name="Trazado 107663" d="M2594-537.8a2.5,2.5,0,0,1-.892,1.916,2.43,2.43,0,0,1-.524.339c-.1.05-.209.1-.313.137a4.81,4.81,0,0,1-3.658-.037,4.8,4.8,0,0,1-1.727-1.237c-.491-.555-1.039-1.175-1.626-1.846-.159-.183-.325-.372-.49-.564l0,0c-1.046-1.207-2.192-2.547-3.347-3.937-2.125-2.558-4.28-5.277-5.894-7.6-1.479-2.127-2.5-3.928-2.641-4.979a9.1,9.1,0,0,1-.078-1.127,10.641,10.641,0,0,1,.666-3.737,3.779,3.779,0,0,1,3.954-2.473,4.156,4.156,0,0,1,.457.079,11.344,11.344,0,0,1,2.825,1.113,10.976,10.976,0,0,1,3,2.33c4.108,4.815,8.441,16.069,10.146,20.777A2.48,2.48,0,0,1,2594-537.8Z" transform="translate(-2553.422 589.058)" fill="#f28686"/>
                  <path id="Trazado_107664" data-name="Trazado 107664" d="M2569.637-597.487c-.189.174-.365.344-.528.513-2.354,2.4-2.419,4.4-2.16,5.533a.918.918,0,0,1,.024.2.92.92,0,0,1-.828.911c-.429-1.912-1.229-3.139-2.395-1.414-.048.072-.1.148-.148.231a4.681,4.681,0,0,0-.629,1.86c-.206,1.486.061,3.073-.689,5.007-.818,2.11-3.822,1.923-5.231,1.142-.433-.239-.716-.535-.738-.837a8.47,8.47,0,0,0-1.556-3.993c-3.165-4.219-3.226-10.216-.54-13.026a5.033,5.033,0,0,1,.54-.492C2562.344-607.836,2569.894-601.972,2569.637-597.487Z" transform="translate(-2545.825 604.395)" fill="#743234"/>
                  <path id="Trazado_107665" data-name="Trazado 107665" d="M2572.515-583.422a2.927,2.927,0,0,1-1,2.358,1.466,1.466,0,0,1-.395.209,1.258,1.258,0,0,1-.41.069,1.547,1.547,0,0,1-1.225-.7v0a2.807,2.807,0,0,1-.417-.839,3.741,3.741,0,0,1-.16-1.092c0-1.455.807-2.634,1.8-2.634.959,0,1.742,1.092,1.8,2.473C2572.512-583.531,2572.515-583.476,2572.515-583.422Z" transform="translate(-2551.978 597.605)" fill="url(#linear-gradient-5)"/>
                  <path id="Trazado_107666" data-name="Trazado 107666" d="M2555.6-588.444a7.987,7.987,0,0,1-1.1,4.129,17.852,17.852,0,0,1-1.344,2l0,0c-1.694,2.164-4.213,4.133-7.222,2.617-6.019-5.23-4.111-15.975-.777-17.225,1.494-.56,3.468-.147,5.258.7h0a10.011,10.011,0,0,1,4.316,3.571A9.581,9.581,0,0,1,2555.6-588.444Z" transform="translate(-2542.025 601.724)" fill="#572627"/>
                  <path id="Trazado_107667" data-name="Trazado 107667" d="M2558.091-581.757a18.038,18.038,0,0,0,1.344-2,7.98,7.98,0,0,0,1.094-4.128,9.569,9.569,0,0,0-.859-4.211,9.559,9.559,0,0,0-3.8-3.313h0v0c-.168-.089-.34-.176-.511-.256a7.477,7.477,0,0,1,6.471,6.658C2562.541-583.027,2558.218-581.792,2558.091-581.757Z" transform="translate(-2546.96 601.162)" fill="url(#linear-gradient-4)"/>
                </g>
                <path id="Trazado_107668" data-name="Trazado 107668" d="M2582.329-575.079a.357.357,0,0,0-.1.085l-.326.413-.461-.441.326-.329a.417.417,0,0,0,.079-.478Z" transform="translate(-2556.62 593.819)" fill="#f28c70"/>
                <path id="Trazado_107669" data-name="Trazado 107669" d="M2583.749-573.164l-.286.217-.286-.274.394-.261a.367.367,0,0,0,.163-.307Z" transform="translate(-2557.261 593.063)" fill="#f28c70"/>
              </g>
              <path id="Trazado_107670" data-name="Trazado 107670" d="M2584.542-519.8a26.013,26.013,0,0,1-4.829,1.448c1.1-2.973,1.4-6.98,1.359-10.714a26.319,26.319,0,0,0-5.024-15.169c-1.864-2.573-3.212-4.794-3.371-6.012a9.583,9.583,0,0,1,.052-2.823,9.106,9.106,0,0,0,.078,1.127c.331,2.547,5.873,9.487,10.429,14.83.05.059.1.119.151.176.073.087.148.172.22.257l.267.313c.022.024.039.046.061.07l.754.874,0,0q.058.985.093,1.949c.007.178.013.356.018.535C2584.962-527.568,2584.6-522.791,2584.542-519.8Z" transform="translate(-2553.344 585.395)" fill="#a76b40" opacity="0.5"/>
              <path id="Trazado_107671" data-name="Trazado 107671" d="M2599.307-521.355a9.42,9.42,0,0,1-2.877.8,8.705,8.705,0,0,1-4.516-2.012c0-.179-.01-.357-.018-.535q-.036-.963-.093-1.949c.587.673,1.625,1.855,2.116,2.41a4.817,4.817,0,0,0,5.385,1.275A.017.017,0,0,1,2599.307-521.355Z" transform="translate(-2560.454 575.02)" fill="#a76b40" opacity="0.25"/>
              <path id="Trazado_107672" data-name="Trazado 107672" d="M2577.687-449.046l-1.649,2.457-12.728,62.315c-2.434-31.773,13.391-65.229,13.391-65.229s-5.347-27.671-2.8-45.776a35.246,35.246,0,0,1-17.45-3.617c.157-.435.309-.833.446-1.183a34.1,34.1,0,0,0,16.841,1.281,26.028,26.028,0,0,0,4.829-1.448C2578.619-500.048,2581.149-490.722,2577.687-449.046Z" transform="translate(-2547.365 565.836)" fill="#346062" opacity="0.25"/>
              <path id="Trazado_107673" data-name="Trazado 107673" d="M2563.276-464.4s.6,9.951,1.993,18.466a128.57,128.57,0,0,1-2.732-21.022,27.279,27.279,0,0,0,6.335,1.547C2567.32-464.288,2563.276-464.4,2563.276-464.4Z" transform="translate(-2549.619 553.512)" fill="#346062" opacity="0.25"/>
              <path id="Trazado_107674" data-name="Trazado 107674" d="M2565.978-407.149c-1.583,6.764-6.562,20.643-7.338,36.432-.372-13.839-.64-31.77.344-34.867a37.258,37.258,0,0,1,6.995-13.141A23.225,23.225,0,0,1,2565.978-407.149Z" transform="translate(-2548.052 535.655)" fill="#8abdbf"/>
              <path id="Trazado_107675" data-name="Trazado 107675" d="M2567.728-517.06c-3.191,1.081-12.482-2.223-14.675-6.568a14.95,14.95,0,0,1-.439,9.862,20.6,20.6,0,0,0-.087-8.126c-.816-3.654-2.24-7.858-3.386-11.636C2549.312-533.075,2554.932-518.506,2567.728-517.06Z" transform="translate(-2544.659 578.158)" fill="#a76b40" opacity="0.5"/>
              <path id="Trazado_107676" data-name="Trazado 107676" d="M2567.731-575.927l-.122-2.738a1.262,1.262,0,0,1-.411.069,1.548,1.548,0,0,1-1.225-.7v0a2.8,2.8,0,0,1-.417-.839,13.6,13.6,0,0,1-.633,4.478c-.818,2.11-3.821,1.923-5.231,1.142-.083.411-.176.783-.274,1.112,1.236.357,4.95.982,6.992-.448a3.868,3.868,0,0,0,1.358-1.237Z" transform="translate(-2548.465 595.415)" fill="#f28c70"/>
              <path id="Trazado_107677" data-name="Trazado 107677" d="M2570.889-580.919a1.027,1.027,0,0,1-.808-.392,2.95,2.95,0,0,1,0-3.7.054.054,0,0,1,.076-.007.054.054,0,0,1,.007.077,2.841,2.841,0,0,0,0,3.558c.675.792,1.625.025,1.665-.008a.054.054,0,0,1,.077.007.055.055,0,0,1-.007.077A1.834,1.834,0,0,1,2570.889-580.919Z" transform="translate(-2552.164 597.225)" fill="#dd735b"/>
              <path id="Trazado_107678" data-name="Trazado 107678" d="M2574.324-579.665h-1.6a1.89,1.89,0,0,1-.323-.021,3.219,3.219,0,0,1-1.039-.331,3.749,3.749,0,0,1-1.018-.766,7.593,7.593,0,0,1-.518-3.132,1.547,1.547,0,0,0,1.225.7,1.257,1.257,0,0,0,.41-.069,1.461,1.461,0,0,0,.394-.209,2.926,2.926,0,0,0,1-2.358c0-.054,0-.108,0-.161a.917.917,0,0,0,.615-.863.9.9,0,0,0-.024-.2c-.259-1.129-.193-3.13,2.16-5.533.108.392.243.924.365,1.52a7.362,7.362,0,0,0-2.166,4.509c-.038,2.638-.949,3.708-1.784,4.032A2.572,2.572,0,0,0,2574.324-579.665Z" transform="translate(-2552.318 600.032)" fill="#f28c70" opacity="0.5"/>
              <path id="Trazado_107679" data-name="Trazado 107679" d="M2570.772-597.487s-2.682.811-4.113-2.832c-2.288-5.826-11.306-1.037-11.306-1.037a5.057,5.057,0,0,1,.54-.492C2563.479-607.836,2571.029-601.972,2570.772-597.487Z" transform="translate(-2546.96 604.395)" fill="#914047"/>
              <path id="Trazado_107680" data-name="Trazado 107680" d="M2559.737-583.6a7.977,7.977,0,0,0,1.094-4.128,9.569,9.569,0,0,0-.859-4.211,9.555,9.555,0,0,0-3.8-3.313c.137.039,4.5,1.383,4.924,5.792a11.11,11.11,0,0,1-2.7,7.856A17.941,17.941,0,0,0,2559.737-583.6Z" transform="translate(-2547.261 601.01)" fill="#a3d0c9"/>
              <path id="Trazado_107681" data-name="Trazado 107681" d="M2579.1-551.234a6.727,6.727,0,0,1-.189-4.047c.018-.072.034-.145.047-.22a10.871,10.871,0,0,0,.165-1.894,9.742,9.742,0,0,0-.93-4.274,1.988,1.988,0,0,0-2.479-1,3.777,3.777,0,0,0-2.244,2.26,10.641,10.641,0,0,0-.666,3.736,9.105,9.105,0,0,0,.078,1.127c.01.079.027.164.047.251,0,.009,0,.018.005.028s.01.033.015.05c.018.07.039.143.063.218l.01.032a19.718,19.718,0,0,0,2.5,4.4c1.614,2.327,3.769,5.046,5.894,7.6,1.155,1.39,2.3,2.729,3.347,3.937l0,0c.165.191.331.381.49.564.587.672,1.135,1.292,1.626,1.846a4.8,4.8,0,0,0,1.727,1.238C2584.143-539.409,2580.809-546.812,2579.1-551.234Z" transform="translate(-2553.422 588.993)" fill="#fbdfc9" opacity="0.25"/>
              <path id="Trazado_107682" data-name="Trazado 107682" d="M2598.646-537.083a2.5,2.5,0,0,1-.892,1.917c-3-10.856-12.4-25.874-12.4-25.874a10.981,10.981,0,0,1,3,2.33c4.108,4.815,8.44,16.069,10.146,20.777A2.486,2.486,0,0,1,2598.646-537.083Z" transform="translate(-2558.067 588.344)" fill="#a76b40" opacity="0.25"/>
              <path id="Trazado_107683" data-name="Trazado 107683" d="M2572.45-306.1h-14.832a.272.272,0,0,1-.272-.272v-.253a.272.272,0,0,1,.277-.272l14.831.253a.272.272,0,0,1,.265.23h0A.272.272,0,0,1,2572.45-306.1Z" transform="translate(-2547.698 494.252)" fill="#6f1b13"/>
              <path id="Trazado_107684" data-name="Trazado 107684" d="M2611.347-306.1h-15.4a.272.272,0,0,1-.272-.272v-.253a.272.272,0,0,1,.277-.272l15.4.253a.272.272,0,0,1,.264.23h0A.272.272,0,0,1,2611.347-306.1Z" transform="translate(-2561.886 494.252)" fill="#6f1b13"/>
            </g>
            <g id="Grupo_56262" data-name="Grupo 56262" transform="translate(9.648 188.154)" opacity="0.15">
              <path id="Trazado_107685" data-name="Trazado 107685" d="M2572.45-305.63h-14.832c-.15,0-.272.065-.272.145v.135c0,.081.125.146.277.145l14.831-.135c.133,0,.244-.053.265-.123h0C2572.744-305.551,2572.616-305.63,2572.45-305.63Z" transform="translate(-2557.346 305.63)" fill="#6f1b13"/>
              <path id="Trazado_107686" data-name="Trazado 107686" d="M2611.347-305.63h-15.4c-.151,0-.272.065-.272.145v.135c0,.081.125.146.277.145l15.4-.135c.132,0,.244-.053.264-.123h0C2611.641-305.551,2611.513-305.63,2611.347-305.63Z" transform="translate(-2571.535 305.63)" fill="#6f1b13"/>
            </g>
          </g>
        </g>
      </g>
    </g>
  </g>
</svg>
