<svg xmlns="http://www.w3.org/2000/svg" width="376" height="431" viewBox="0 0 376 431">
  <g id="Grupo_1055045" data-name="Grupo 1055045" transform="translate(-236 -2788.107)">
    <path id="Trazado_772793" data-name="Trazado 772793" d="M0,0H376V431H0Z" transform="translate(236 2788.107)" fill="#12263f"/>
    <g id="Grupo_1054844" data-name="Grupo 1054844" transform="translate(385.72 2896.524)">
      <path id="Trazado_106382" data-name="Trazado 106382" d="M1849.931,5875.42h19.253l15.264-42.729s3.706-16.234,3.706-21.617,1.058-15.087,1.058-15.087l8.029-21.616s5.647,24.263,6.706,32.114,2.294,25.147,0,36.528-6.529,32.407-6.529,32.407h70.408l40.762-.379-6.264-37.056s-1.912-25.911-.853-29.175,8.235-38.351,8.235-38.351l10.617,32.057s5.47,36.086,6.529,39,12.617,33.906,12.617,33.906h21.264l-11.558-64.168-3.264-13.588-1.323-8.736-6.617-51.437s-4.941-28.323-11.294-34.058-20.91-5.646-20.91-5.646l-31.234-11.205-1.765-28.764-34.674,1.5-4.5-2.146s.706,27.175-1.059,29.293-29.057,9.292-29.057,9.292-17.058-.823-25.057,12.471-12,60.231-12,60.231l-2.705,28.705s-10.705,33.174-10.705,36.233-3.077,42.023-3.077,42.023" transform="translate(-1849.931 -5580.996)" fill="#e7e7e8"/>
      <g id="Grupo_55974" data-name="Grupo 55974" transform="translate(0 71.587)">
        <path id="Trazado_106383" data-name="Trazado 106383" d="M1984.436,5670.293l40.021.4-.96-15.653-30-5.234-9.176,4.587S1984.535,5662.562,1984.436,5670.293Z" transform="translate(-1900.662 -5649.801)" fill="#d3d3d3"/>
        <path id="Trazado_106384" data-name="Trazado 106384" d="M1888.153,5834.475c0-5.381,1.058-15.087,1.058-15.087l8.029-21.618c-5.411-17.617-1.412-42.615,3.059-49.2s3.059-18.823,3.059-18.823c.805-2.415-.1-6.713-1.276-10.583-4.222.133-17.042,1.462-23.664,12.466-8,13.293-12,60.232-12,60.232l-2.705,28.7s-10.705,33.175-10.705,36.233-3.077,42.023-3.077,42.023h19.253l15.264-42.729S1888.153,5839.856,1888.153,5834.475Z" transform="translate(-1849.931 -5675.982)" fill="#d3d3d3"/>
        <path id="Trazado_106385" data-name="Trazado 106385" d="M2141.539,5835.792l-3.265-13.588-1.323-8.734-6.617-51.438s-4.941-28.321-11.294-34.057-20.91-5.647-20.91-5.647l-.4-.145c-1.649,4.746-2.9,9.363-2.9,9.363s-1.411,12.235,3.059,18.823c4.007,5.905,7.636,26.6,4.449,43.514l.031,2.012,10.321,31.162s5.47,36.086,6.529,39,12.617,33.906,12.617,33.906H2153.1Z" transform="translate(-1942.296 -5677.124)" fill="#d3d3d3"/>
      </g>
      <line id="Línea_357" data-name="Línea 357" x2="0.176" y2="164.096" transform="translate(103.637 125.349)" fill="none" stroke="#a8a8a8" stroke-linecap="round" stroke-linejoin="round" stroke-width="2" stroke-dasharray="5"/>
      <path id="Trazado_106386" data-name="Trazado 106386" d="M1921.961,5811s94.23,5.294,116.111,0" transform="translate(-1877.121 -5639.063)" fill="none" stroke="#a8a8a8" stroke-linecap="round" stroke-linejoin="round" stroke-width="2" stroke-dasharray="5"/>
      <path id="Trazado_106387" data-name="Trazado 106387" d="M2034.974,5927.785s-64.585,4.234-93.172,0" transform="translate(-1884.611 -5683.148)" fill="none" stroke="#a8a8a8" stroke-linecap="round" stroke-linejoin="round" stroke-width="2" stroke-dasharray="5"/>
      <path id="Trazado_106388" data-name="Trazado 106388" d="M1980.543,5676.069" transform="translate(-1899.235 -5588.129)" fill="none" stroke="#e7e7e8" stroke-linecap="round" stroke-linejoin="round" stroke-width="2"/>
      <circle id="Elipse_4138" data-name="Elipse 4138" cx="1.459" cy="1.459" r="1.459" transform="translate(102.483 116.219)" fill="#e7e7e8"/>
      <path id="Trazado_106389" data-name="Trazado 106389" d="M1978.005,5616.144l.006.011c2.569-1.863,15.374-9.729,38.571-1.44,5.8-7.886,8.107-16.979,10.134-26.906,2.552-12.5,2.995-25.756-2.855-37.448a27.262,27.262,0,0,0-10.463-11.526c-4.473-2.583-9.69-3.572-14.848-3.923l-.411-.028c-12.952-.8-24.5,4.45-28.5,17.561-6.748,22.133,1.889,49.665,1.889,49.665S1978,5616.126,1978.005,5616.144Z" transform="translate(-1894.146 -5534.803)" fill="#e7e7e8"/>
    </g>
    <path id="Trazado_772745" data-name="Trazado 772745" d="M1649.238,5875.42h19.252l15.264-42.729s3.706-16.234,3.706-21.617,1.058-15.087,1.058-15.087l8.029-21.616s5.647,24.263,6.706,32.114,2.294,25.147,0,36.528-6.529,32.407-6.529,32.407h70.408l40.763-.379-6.265-37.056s-1.912-25.911-.853-29.175,8.235-38.351,8.235-38.351l10.617,32.057s5.47,36.086,6.529,39,12.617,33.906,12.617,33.906h21.263l-11.558-64.168-3.265-13.588-1.324-8.736-6.617-51.437s-4.941-28.323-11.294-34.058-20.91-5.646-20.91-5.646l-31.234-11.205-1.765-28.764-34.675,1.5-4.5-2.146s.706,27.175-1.059,29.293-29.057,9.292-29.057,9.292-17.058-.823-25.058,12.471-12,60.231-12,60.231l-2.705,28.705s-10.705,33.174-10.705,36.233-3.077,42.023-3.077,42.023" transform="translate(-1388.453 -2684.471)" fill="#e7e7e8"/>
    <g id="Grupo_1054845" data-name="Grupo 1054845" transform="translate(260.785 2972.699)">
      <path id="Trazado_106391" data-name="Trazado 106391" d="M1783.743,5673.075l40.022.4-.96-15.653-34.675,1.5-4.5-2.146S1783.842,5665.344,1783.743,5673.075Z" transform="translate(-1699.969 -5657.171)" fill="#d3d3d3"/>
      <path id="Trazado_106392" data-name="Trazado 106392" d="M1687.46,5834.475c0-5.381,1.058-15.087,1.058-15.087l8.029-21.618c-5.411-17.617-1.412-42.615,3.059-49.2s3.058-18.823,3.058-18.823c.8-2.415-.1-6.713-1.275-10.583-4.222.133-17.042,1.462-23.665,12.466-8,13.293-12,60.232-12,60.232l-2.705,28.7s-10.705,33.175-10.705,36.233-3.077,42.023-3.077,42.023h19.252l15.264-42.729S1687.46,5839.856,1687.46,5834.475Z" transform="translate(-1649.238 -5680.571)" fill="#d3d3d3"/>
      <path id="Trazado_106393" data-name="Trazado 106393" d="M1940.846,5835.792l-3.265-13.588-1.324-8.734-6.617-51.438s-4.941-28.321-11.294-34.057-20.91-5.647-20.91-5.647l-.4-.145c-1.649,4.746-2.9,9.363-2.9,9.363s-1.412,12.235,3.058,18.823c4.007,5.905,7.636,26.6,4.449,43.514l.031,2.012L1912,5827.057s5.47,36.086,6.529,39,12.617,33.906,12.617,33.906H1952.4Z" transform="translate(-1741.603 -5681.711)" fill="#d3d3d3"/>
    </g>
    <path id="Trazado_772746" data-name="Trazado 772746" d="M1797.856,5534.91l-.411-.028c-12.952-.8-24.5,4.45-28.5,17.561-6.748,22.133,1.889,49.665,1.889,49.665l6.478,14.036c3.68,7.975,15.506,13.056,23.636,10.582,4.293-1.307,7.889-4.26,11.049-7.447,8.784-8.858,11.6-19.567,14.026-31.471,2.552-12.5,2.995-25.756-2.855-37.448a27.268,27.268,0,0,0-10.463-11.526C1808.232,5536.25,1803.014,5535.262,1797.856,5534.91Z" transform="translate(-1432.668 -2638.279)" fill="#e7e7e8"/>
    <line id="Línea_517" data-name="Línea 517" y2="84.619" transform="translate(364.423 2900.195)" fill="none" stroke="#a8a8a8" stroke-linecap="round" stroke-linejoin="round" stroke-width="2" stroke-dasharray="5"/>
    <line id="Línea_518" data-name="Línea 518" x1="0.015" y2="164.718" transform="translate(364.407 3021.873)" fill="none" stroke="#a8a8a8" stroke-linecap="round" stroke-linejoin="round" stroke-width="2" stroke-dasharray="5"/>
    <path id="Trazado_772747" data-name="Trazado 772747" d="M1721.268,5811s94.23,5.294,116.111,0" transform="translate(-1415.643 -2742.539)" fill="none" stroke="#a8a8a8" stroke-linecap="round" stroke-linejoin="round" stroke-width="2" stroke-dasharray="5"/>
    <path id="Trazado_772748" data-name="Trazado 772748" d="M1834.281,5927.785s-64.585,4.234-93.172,0" transform="translate(-1423.133 -2786.623)" fill="none" stroke="#a8a8a8" stroke-linecap="round" stroke-linejoin="round" stroke-width="2" stroke-dasharray="5"/>
    <path id="Trazado_772749" data-name="Trazado 772749" d="M1814.072,5703.22l-7.387-19.527,28-7.062-.588,12.589-7.764,10.354Z" transform="translate(-1447.887 -2691.816)" fill="#ff9696"/>
    <path id="Trazado_772751" data-name="Trazado 772751" d="M1806.535,5710.031l11.411-1.176,15.293-12,1.765,7.294s-8.66,9.706-13.352,11.706-14.293,1.705-14.293,1.705l-2.942-3.177Z" transform="translate(-1447.03 -2699.451)" fill="#fcb1b1"/>
    <path id="Trazado_772752" data-name="Trazado 772752" d="M1776.394,5685.517l20.352,18.706-7.411,19.293-20.823-24.47S1777.217,5691.4,1776.394,5685.517Z" transform="translate(-1433.477 -2695.171)" fill="#ff9696"/>
    <circle id="Elipse_4754" data-name="Elipse 4754" cx="1.459" cy="1.459" r="1.459" transform="translate(363.268 3012.743)" fill="#e7e7e8"/>
    <path id="Trazado_772753" data-name="Trazado 772753" d="M1768.178,5608.987s32.355,12.989,59.191,0" transform="translate(-1433.351 -2666.282)" fill="none" stroke="#a8a8a8" stroke-linecap="round" stroke-linejoin="round" stroke-width="1.933" stroke-dasharray="4.832"/>
    <path id="Trazado_772754" data-name="Trazado 772754" d="M1978.064,5684.572l-8.294,13.235a83.744,83.744,0,0,0,55.762,0l-6.353-13.235Z" transform="translate(-1509.448 -2694.814)" fill="#ff9696"/>
  </g>
</svg>
