<svg xmlns="http://www.w3.org/2000/svg" width="184.263" height="160.553" viewBox="0 0 184.263 160.553">
  <g id="Grupo_1054527" data-name="Grupo 1054527" transform="translate(-180 -2010.838)">
    <g id="Grupo_1054523" data-name="Grupo 1054523" transform="translate(0 1102.623)">
      <path id="Trazado_771806" data-name="Trazado 771806" d="M-78.367,670.182c-.15-.562-.292-1.124-.432-1.684-1.591-6.355-3.057-12.44-10.654-16.393-6.181-3.216-14.452-2.922-21.71-1.5s-14.2,3.853-21.646,4.547c-11.378,1.061-23.319-2.294-31.033-8.721-5.485-4.569-9.211-10.722-16.549-13.409-4.8-1.756-10.457-1.7-15.627-.733a45.223,45.223,0,0,0-23.668,12.443,45.563,45.563,0,0,0-11.394,20.33,54.292,54.292,0,0,0,.317,29.679,49.042,49.042,0,0,0,19.807,27.264,73.849,73.849,0,0,0,16.908,8.017c25.315,8.727,54.265,9,81.945,6.961,17.017-1.255,34.4-3.449,49.118-10.04,8.567-3.836,9.822-10.75,12.826-17.3,3.031-6.614,1.237-14.625-5.328-19.686-5.951-4.588-14.944-6.826-19.429-12.288A19.114,19.114,0,0,1-78.367,670.182Z" transform="translate(412.993 330.732)" fill="#baefe4"/>
      <g id="Grupo_1054396" data-name="Grupo 1054396" transform="translate(-1415.594 473.237) rotate(14)" opacity="0.62">
        <path id="Trazado_771758" data-name="Trazado 771758" d="M1720.023,178.711c-.317,1.536-.458,3.482.9,4.522a4.666,4.666,0,0,0,3.579,1.207c2.428-.448,2.335-2.3,2.486-4.451a7.907,7.907,0,0,0-.331-3.4,3.338,3.338,0,0,0-2.451-2.191,3.273,3.273,0,0,0-2.906,1.28A6.935,6.935,0,0,0,1720.023,178.711Z" transform="translate(-33.834 -94.158)" fill="#f5947a"/>
        <path id="Trazado_771759" data-name="Trazado 771759" d="M1697.009,141.66a2.674,2.674,0,0,0-.122-.91,2.8,2.8,0,0,0-.383-.64l-.934-1.284a4.154,4.154,0,0,0-1.206-1.245,2.679,2.679,0,0,0-2.241-.087,5.949,5.949,0,0,0-1.907,1.29,7.1,7.1,0,0,0-1.7,2.185c-1.517,3.329,1.329,7.483,4.344,8.893C1697.217,151.9,1697.04,143.974,1697.009,141.66Z" transform="translate(-13.532 -70.421)" fill="#f5947a"/>
        <path id="Trazado_771760" data-name="Trazado 771760" d="M1676.422,99.309a3.416,3.416,0,0,0-.991-1.287,16.338,16.338,0,0,0-5.274-3.763,2.6,2.6,0,0,0-1.925-.107c-.93.414-1.2,1.593-1.255,2.609-.144,2.648.858,6.451,3.974,7C1673.052,104.133,1677.3,101.859,1676.422,99.309Z" transform="translate(0 -42.71)" fill="#f5947a"/>
        <path id="Trazado_771761" data-name="Trazado 771761" d="M1694.55,46.764c-.761-1.469-2.06-2.943-3.712-2.869A5.213,5.213,0,0,0,1688,45.316a7.051,7.051,0,0,0-2.388,2.692,6.031,6.031,0,0,0-.343,1.8c-.27,3.734,2.623,7.23,6.687,6.4C1696.146,55.363,1696.078,49.712,1694.55,46.764Z" transform="translate(-11.706 -10.624)" fill="#f5947a"/>
        <path id="Trazado_771762" data-name="Trazado 771762" d="M1737.984,33.374a5.979,5.979,0,0,0,.6-1.691,5.572,5.572,0,0,0-.493-2.682,2.69,2.69,0,0,0-1.05-1.521,2.56,2.56,0,0,0-2.326.293,28.748,28.748,0,0,0-6.289,4.912,5.7,5.7,0,0,0-1.067,1.217,3.9,3.9,0,0,0-.474,1.861c-.073,2.559,2.2,5.383,4.963,4.487C1734.988,39.232,1736.676,36.144,1737.984,33.374Z" transform="translate(-38.361 0)" fill="#f5947a"/>
        <path id="Trazado_771763" data-name="Trazado 771763" d="M1718.663,96.071a5.22,5.22,0,0,0,1.149-1.4,2.524,2.524,0,0,0-.88-2.559,8.787,8.787,0,0,0-3.186-1.881,3.571,3.571,0,0,0-2.315-.233,2.7,2.7,0,0,0-1.575,1.694,7.7,7.7,0,0,0-.34,2.359c-.071,1.939-.026,5.438,2.563,5.779C1716.5,100.153,1717.407,97.491,1718.663,96.071Z" transform="translate(-28.514 -40.073)" fill="#f5947a"/>
        <path id="Trazado_771764" data-name="Trazado 771764" d="M1760.021,80.43a3.707,3.707,0,0,0-2.526-3.6,6.124,6.124,0,0,0-2.844-.033,7.4,7.4,0,0,0-2.248.686,6.432,6.432,0,0,0-2.931,4.2,6.067,6.067,0,0,0-.13,2.863c.64,2.757,4.094,4.055,6.655,3.242C1758.866,86.868,1759.9,83.082,1760.021,80.43Z" transform="translate(-52.666 -31.59)" fill="#f5947a"/>
        <path id="Trazado_771765" data-name="Trazado 771765" d="M1785.033,123.809a8.109,8.109,0,0,0,.2-2.283,4.319,4.319,0,0,0-.734-2.916,4.185,4.185,0,0,0-3.1-.981,8.492,8.492,0,0,0-2.569.207,2.832,2.832,0,0,0-2.034,3.982c.658,1.806,2.209,3.756,4.159,4.2A3.435,3.435,0,0,0,1785.033,123.809Z" transform="translate(-70.17 -57.825)" fill="#f5947a"/>
        <path id="Trazado_771766" data-name="Trazado 771766" d="M1740.58,134.954a7.175,7.175,0,0,0-1.838-3.429c-1.264-1.543-2.765-3.129-4.739-3.412a1.423,1.423,0,0,0-1.857,1.046,6.292,6.292,0,0,0,.15,3.914,16.067,16.067,0,0,0,1.841,3.522c.784,1.215,2.158,3.24,3.88,2.79C1739.677,138.951,1740.787,136.512,1740.58,134.954Z" transform="translate(-41.574 -64.524)" fill="#f5947a"/>
        <path id="Trazado_771767" data-name="Trazado 771767" d="M1779.419,163.809a3.96,3.96,0,0,0-1.375-3.163,4.637,4.637,0,0,0-2.988-.612,4.081,4.081,0,0,0-2.35.674,4.137,4.137,0,0,0-1.219,2.979,10.077,10.077,0,0,0,.232,3.656c.528,1.861,2.506,4.312,4.6,3.085C1778.381,169.223,1779.477,166.049,1779.419,163.809Z" transform="translate(-66.878 -84.971)" fill="#f5947a"/>
      </g>
    </g>
    <g id="Grupo_55742" data-name="Grupo 55742" transform="translate(46.603 5133.092)">
      <path id="Trazado_106057" data-name="Trazado 106057" d="M260.262-3095.953l25.314,18.006s-13.905,20.82,6.6,29.4l3.922,32.642,3.387,21.749H258.836l-7.666-72.378s10.518-.891,10.874-7.844-4.278-13.727-6.953-13.905S260.262-3095.953,260.262-3095.953Z" transform="translate(-0.499)" fill="#fff" stroke="#000" stroke-miterlimit="10" stroke-width="2"/>
      <line id="Línea_190" data-name="Línea 190" x2="7.354" y2="68.989" transform="translate(256.287 -3064.978)" fill="none" stroke="#000" stroke-miterlimit="10" stroke-width="2"/>
      <path id="Trazado_106058" data-name="Trazado 106058" d="M265.833-3049.992l13.9-1.2,2.14,10.028s.4,5.215-3.61,5.348a50.447,50.447,0,0,0-7.353.8s-3.076.669-3.342-2.941S265.833-3049.992,265.833-3049.992Z" transform="translate(-0.722 -0.681)" fill="none" stroke="#000" stroke-miterlimit="10" stroke-width="2"/>
      <line id="Línea_191" data-name="Línea 191" x2="14.574" y2="5.805" transform="translate(266.448 -3074.07)" fill="none" stroke="#000" stroke-miterlimit="10" stroke-width="2"/>
      <circle id="Elipse_4051" data-name="Elipse 4051" cx="1.136" cy="1.136" r="1.136" transform="translate(252.346 -3063.303)" fill="none" stroke="#000" stroke-miterlimit="10" stroke-width="2"/>
      <circle id="Elipse_4052" data-name="Elipse 4052" cx="1.136" cy="1.136" r="1.136" transform="translate(253.761 -3048.94)" fill="none" stroke="#000" stroke-miterlimit="10" stroke-width="2"/>
      <circle id="Elipse_4053" data-name="Elipse 4053" cx="1.136" cy="1.136" r="1.136" transform="translate(255.648 -3034.431)" fill="none" stroke="#000" stroke-miterlimit="10" stroke-width="2"/>
      <circle id="Elipse_4054" data-name="Elipse 4054" cx="1.136" cy="1.136" r="1.136" transform="translate(257.063 -3020.012)" fill="none" stroke="#000" stroke-miterlimit="10" stroke-width="2"/>
      <circle id="Elipse_4055" data-name="Elipse 4055" cx="1.136" cy="1.136" r="1.136" transform="translate(258.478 -3006.537)" fill="none" stroke="#000" stroke-miterlimit="10" stroke-width="2"/>
      <path id="Trazado_106059" data-name="Trazado 106059" d="M241.579-3095.953,219.1-3077.947s21.923,21.764,1.422,30.339l-1.563,32.642-.557,21.75,39.94-.944-7.666-72.378s-10.519-.891-10.875-7.844,4.279-13.727,6.953-13.905S241.579-3095.953,241.579-3095.953Z" fill="#fff" stroke="#000" stroke-miterlimit="10" stroke-width="2"/>
      <line id="Línea_192" data-name="Línea 192" y1="4.925" x2="9.089" transform="translate(225.003 -3075.452)" fill="none" stroke="#000" stroke-miterlimit="10" stroke-width="2"/>
    </g>
  </g>
</svg>
