<svg xmlns="http://www.w3.org/2000/svg" width="376" height="431" viewBox="0 0 376 431">
  <g id="Grupo_1055047" data-name="Grupo 1055047" transform="translate(1533.33 8912.759)">
    <rect id="Rectángulo_362210" data-name="Rectángulo 362210" width="376" height="431" transform="translate(-1533.33 -8912.759)" fill="#727997"/>
    <g id="Grupo_1054945" data-name="Grupo 1054945" transform="translate(-1456.286 -8859.635)">
      <path id="Trazado_772755" data-name="Trazado 772755" d="M1838.828,7521.427" transform="translate(-1828.97 -7506.894)" fill="none"/>
      <rect id="Rectángulo_362201" data-name="Rectángulo 362201" width="86.924" height="99.035" transform="translate(6.19 0.974)" fill="none" stroke="#fff" stroke-miterlimit="10" stroke-width="1"/>
      <path id="Trazado_772756" data-name="Trazado 772756" d="M1835.929,7674.086s28.733-1.224,36.221-23.536v-1.376l54.1,17.881s-21.091,104.232,14.672,105.761,18.34-115.541,18.34-115.541l52.8-15.589s18.34,7.336,38.055,5.96v225.122h-107.1s-54.752,8.483-108.167,8.712Z" transform="translate(-1828.211 -7544.428)" fill="#baefe4"/>
      <path id="Trazado_772757" data-name="Trazado 772757" d="M2048.953,7803.827H1837.127" transform="translate(-1828.645 -7575.439)" fill="#fff" stroke="#fff" stroke-linecap="round" stroke-linejoin="round" stroke-width="2" stroke-dasharray="5"/>
      <line id="Línea_520" data-name="Línea 520" y1="98.806" transform="translate(113.019 228.387)" fill="none" stroke="#fff" stroke-linecap="round" stroke-linejoin="round" stroke-width="2" stroke-dasharray="5"/>
      <path id="Trazado_772758" data-name="Trazado 772758" d="M1833.975,7645.964s2.063-35.3,2.98-39.43,2.75-27.28,2.75-34.388-13.067-41.724-13.067-41.724,14.671-4.585,23.383-7.336,35.3-1.6,42.182,0,23.842,13.067,26.822,29.8-4.126,46.309-4.814,52.039l-1.376,16.736s-33.241-.459-42.411,3.9S1851.626,7649.4,1833.975,7645.964Z" transform="translate(-1826.639 -7521.426)" fill="#baefe4"/>
      <line id="Línea_521" data-name="Línea 521" y2="11.462" transform="translate(80.007 94.201)" fill="none" stroke="#707070" stroke-miterlimit="10" stroke-width="1"/>
      <line id="Línea_522" data-name="Línea 522" y2="11.462" transform="translate(43.939 94.201)" fill="none" stroke="#707070" stroke-miterlimit="10" stroke-width="1"/>
      <path id="Trazado_772759" data-name="Trazado 772759" d="M2053.977,7641.686s22.634,8.825,38.055,5.96" transform="translate(-1870.12 -7544.428)" fill="none" stroke="#f5947a" stroke-miterlimit="10" stroke-width="4"/>
      <path id="Trazado_772760" data-name="Trazado 772760" d="M1881.889,7648.879s13.947-3.954,34.812-3.506" transform="translate(-1837.206 -7545.125)" fill="none" stroke="#f5947a" stroke-miterlimit="10" stroke-width="4"/>
      <path id="Trazado_772761" data-name="Trazado 772761" d="M1836.092,7675.711s27.023.034,36.965-24.665l-.9-.858a86.179,86.179,0,0,0-13.438,11.688c-7.475,7.8-17.917,10.55-23.012,8.715" transform="translate(-1828.374 -7546.053)" fill="none" stroke="#c528e5" stroke-miterlimit="10" stroke-width="2"/>
    </g>
  </g>
</svg>
