<svg id="Grupo_1054873" data-name="Grupo 1054873" xmlns="http://www.w3.org/2000/svg" width="205.741" height="232.946" viewBox="0 0 205.741 232.946">
  <rect id="Rectángulo_5785" data-name="Rectángulo 5785" width="205.741" height="232.946" fill="none"/>
  <g id="Grupo_56293" data-name="Grupo 56293" transform="translate(61.03 3.606)">
    <g id="Grupo_55972" data-name="Grupo 55972" transform="translate(0)">
      <path id="Trazado_106371" data-name="Trazado 106371" d="M384.3,5936.307l30.092,8.074s-4.55,22.313-2.936,26.423,16.441,12.918,16.441,12.918l-5.578,40.662s8.513,23.046,9.1,33.763,10.569,89.985,10.569,89.985l1.028,8.22s-15.12,4.55-23.341,4.257-60.626-.587-60.626-.587l2.5-123.16,2.056-58.277Z" transform="translate(-359.05 -5936.307)" fill="#fff" stroke="#8c757e" stroke-linecap="round" stroke-linejoin="round" stroke-width="1.5"/>
      <path id="Trazado_106372" data-name="Trazado 106372" d="M393.515,5939.566l-19.964,41.689-1.615,51.818,56.956,22.9" transform="translate(-359.165 -5936.336)" fill="none" stroke="#000" stroke-miterlimit="10" stroke-width="1.5"/>
      <line id="Línea_349" data-name="Línea 349" x1="41.396" y2="4.257" transform="translate(15.267 41.249)" fill="none" stroke="#000" stroke-miterlimit="10" stroke-width="1.5"/>
      <line id="Línea_350" data-name="Línea 350" y1="5.753" x2="50.978" transform="translate(16.735 55.681)" fill="none" stroke="#000" stroke-miterlimit="10" stroke-width="1.5"/>
      <line id="Línea_351" data-name="Línea 351" y1="5.725" x2="44.038" transform="translate(19.377 70.167)" fill="none" stroke="#000" stroke-miterlimit="10" stroke-width="1.5"/>
      <path id="Trazado_106373" data-name="Trazado 106373" d="M373.467,5981.63l6.753,42.13-9.248,10.569-3.67,3.082-4.844,2.056" transform="translate(-359.08 -5936.711)" fill="none" stroke="#000" stroke-miterlimit="10" stroke-width="1.5"/>
      <line id="Línea_352" data-name="Línea 352" x2="29.212" y2="120.371" transform="translate(6.166 102.756)" fill="none" stroke="#000" stroke-miterlimit="10" stroke-width="1.5"/>
      <line id="Línea_353" data-name="Línea 353" x2="68.112" y2="63.121" transform="translate(8.221 100.7)" fill="none" stroke="#000" stroke-miterlimit="10" stroke-width="1.5"/>
      <rect id="Rectángulo_5673" data-name="Rectángulo 5673" width="49.616" height="45.506" transform="translate(6.166 0)" fill="none" stroke="#000" stroke-miterlimit="10" stroke-width="1.5" stroke-dasharray="4.179"/>
      <rect id="Rectángulo_5674" data-name="Rectángulo 5674" width="14.973" height="42.13" transform="translate(54.021 45.506)" fill="none" stroke="#000" stroke-miterlimit="10" stroke-width="1.5" stroke-dasharray="4.343"/>
      <line id="Línea_354" data-name="Línea 354" x2="67.819" transform="translate(3.377 126.389)" fill="none" stroke="#000" stroke-miterlimit="10" stroke-width="1.5" stroke-dasharray="4.259"/>
      <line id="Línea_355" data-name="Línea 355" x2="14.826" transform="translate(4.551 87.636)" fill="none" stroke="#000" stroke-miterlimit="10" stroke-width="1.5" stroke-dasharray="4.259"/>
      <line id="Línea_356" data-name="Línea 356" x2="41.249" transform="translate(21.139 87.049)" fill="none" stroke="#000" stroke-miterlimit="10" stroke-width="1.5"/>
    </g>
  </g>
</svg>
