<svg xmlns="http://www.w3.org/2000/svg" width="812" height="389.049" viewBox="0 0 812 389.049">
  <g id="Grupo_1055044" data-name="Grupo 1055044" transform="translate(-388 -8486)">
    <g id="Rectángulo_5516" data-name="Rectángulo 5516" transform="translate(2799.996 11060.579)">
      <path id="Rectángulo_5516-2" data-name="Rectángulo 5516-2" d="M0,0H812V389.049H0Z" transform="translate(-2411.996 -2574.579)" fill="#ccd7d7"/>
    </g>
    <path id="Trazado_106258" data-name="Trazado 106258" d="M-2339.35-2224.476s-16.827-101.738-32.35-121.429c0,0,42.664-3.751,45.477-46.884s11.721-110.645,11.721-110.645,89.079-1.876,108.3-4.22,69.856-9.846,69.856-9.846,22.5,60.949,25.318,81.109-12.19,202.538-14.534,209.1" transform="translate(2799.996 11060.579)" fill="#fff" stroke="#12263f" stroke-linecap="round" stroke-linejoin="round" stroke-width="2.235"/>
    <path id="Trazado_106259" data-name="Trazado 106259" d="M-2317.315-2450.69s34.108,1.055,45.009,13.713,20.746,50.635,41.14,60.129,88.259,4.571,113.224-9.494" transform="translate(2799.996 11060.579)" fill="none" stroke="#f5947a" stroke-linecap="round" stroke-linejoin="round" stroke-width="2.235" stroke-dasharray="7.443"/>
    <path id="Trazado_106260" data-name="Trazado 106260" d="M-2256.307-2501.149s-4.044,52.041,50.458,64.348,91.424,9.846,91.424,9.846" transform="translate(2799.996 11060.579)" fill="none" stroke="#f5947a" stroke-linecap="round" stroke-linejoin="round" stroke-width="2.235" stroke-dasharray="7.443"/>
    <path id="Trazado_106261" data-name="Trazado 106261" d="M-2232.924-2503.083s-2.989,29.713,24.79,36.218,85.094,1.582,85.094,1.582" transform="translate(2799.996 11060.579)" fill="none" stroke="#f5947a" stroke-linecap="round" stroke-linejoin="round" stroke-width="2.235" stroke-dasharray="7.443"/>
    <path id="Trazado_106262" data-name="Trazado 106262" d="M-2124.623-2473.019s-39.03,5.626-64.7,0-32.35-6.153-37.449-30.064" transform="translate(2799.996 11060.579)" fill="none" stroke="#025157" stroke-linecap="round" stroke-linejoin="round" stroke-width="2.235" stroke-dasharray="7.443"/>
    <path id="Trazado_106263" data-name="Trazado 106263" d="M-2048.228-2540.642l-5.663,48.314s38.38.133,46.56,15.863,13.842,49.077,42.784,54.739,96.9-14.156,96.9-14.156-2.2-63.681-6.921-74.154c0,0-65.435,8.911-79.277-3.14a46.108,46.108,0,0,1-15.416-27.466Z" transform="translate(2799.996 11060.579)" fill="#fff" stroke="#12263f" stroke-linecap="round" stroke-linejoin="round" stroke-width="2"/>
    <path id="Trazado_106264" data-name="Trazado 106264" d="M-2031.315-2376.317l-6.292,47.818s46.56-1.259,54.949,27.684,27.16,42.05,44.148,42.994,81.165-7.865,88.715-16.044v-40.582s-13.527-67.953-19.19-72.357S-1931.9-2373.8-2031.315-2376.317Z" transform="translate(2799.996 11060.579)" fill="#fff" stroke="#12263f" stroke-linecap="round" stroke-linejoin="round" stroke-width="2"/>
    <path id="Trazado_106265" data-name="Trazado 106265" d="M-1773.578-2482.252h27.055s-6.607,28.942,15.73,30.2,62.289,2.831,62.289,2.831v37.122l-55.683-1.573s-46.245.944-47.818-38.066Z" transform="translate(2799.996 11060.579)" fill="#fff" stroke="#12263f" stroke-linecap="round" stroke-linejoin="round" stroke-width="2"/>
    <path id="Trazado_106266" data-name="Trazado 106266" d="M-1668.5-2367.739s12.9,39.954,14.786,44.987,6.606,34.6,6.606,34.6-129.927,19.338-129.612-70.709C-1776.724-2358.856-1688.953-2356.1-1668.5-2367.739Z" transform="translate(2799.996 11060.579)" fill="#fff" stroke="#12263f" stroke-linecap="round" stroke-linejoin="round" stroke-width="2"/>
    <g id="_2_5_cm" data-name=" 2 5 cm" transform="translate(2799.996 11060.579)">
      <g id="Grupo_55878" data-name="Grupo 55878">
        <text id="Delantero" transform="translate(-2262.149 -2322.636)" font-size="15" font-family="Roboto-Regular, Roboto" style="isolation: isolate"><tspan x="0" y="0">Delantero</tspan></text>
      </g>
    </g>
    <g id="_2_5_cm-2" data-name=" 2 5 cm" transform="translate(2799.996 11060.579)">
      <g id="Grupo_55879" data-name="Grupo 55879">
        <text id="Bolsillo_menor" data-name="Bolsillo menor" transform="translate(-1949.903 -2526.756)" font-size="15" font-family="Roboto-Regular, Roboto" style="isolation: isolate"><tspan x="0" y="0">Bolsillo menor</tspan></text>
      </g>
    </g>
    <g id="_2_5_cm-3" data-name=" 2 5 cm" transform="translate(2799.996 11060.579)">
      <g id="Grupo_55880" data-name="Grupo 55880">
        <text id="_11_cm" data-name="11 cm" transform="translate(-2207.423 -2520.095)" font-size="15" font-family="Roboto-Regular, Roboto" style="isolation: isolate"><tspan x="0" y="0">11 cm</tspan></text>
      </g>
    </g>
    <g id="_2_5_cm-4" data-name=" 2 5 cm" transform="translate(2799.996 11060.579)">
      <g id="Grupo_55881" data-name="Grupo 55881">
        <text id="_5_5_cm" data-name="5,5 cm" transform="translate(-2123.041 -2494.441)" font-size="15" font-family="Roboto-Regular, Roboto" style="isolation: isolate"><tspan x="0" y="0">5,5 cm</tspan></text>
      </g>
    </g>
    <g id="_2_5_cm-5" data-name=" 2 5 cm" transform="translate(2799.996 11060.579)">
      <g id="Grupo_55882" data-name="Grupo 55882">
        <text id="Bolsillo_mayor" data-name="Bolsillo mayor" transform="translate(-1948.665 -2396.928)" font-size="15" font-family="Roboto-Regular, Roboto" style="isolation: isolate"><tspan x="0" y="0">Bolsillo mayor</tspan></text>
      </g>
    </g>
    <g id="_2_5_cm-6" data-name=" 2 5 cm" transform="translate(2799.996 11060.579)">
      <g id="Grupo_55883" data-name="Grupo 55883">
        <text id="Vista" transform="translate(-1731.647 -2373.21)" font-size="15" font-family="Roboto-Regular, Roboto" style="isolation: isolate"><tspan x="0" y="0">Vista</tspan></text>
      </g>
    </g>
    <g id="_2_5_cm-7" data-name=" 2 5 cm" transform="translate(2799.996 11060.579)">
      <g id="Grupo_55884" data-name="Grupo 55884">
        <text id="Vuelta" transform="translate(-1731.444 -2464.304)" font-size="15" font-family="Roboto-Regular, Roboto" style="isolation: isolate"><tspan x="0" y="0">Vuelta</tspan></text>
      </g>
    </g>
    <line id="Línea_238" data-name="Línea 238" y2="61.606" transform="translate(906.712 8559.524)" fill="none" stroke="#f5947a" stroke-miterlimit="10" stroke-width="1"/>
    <line id="Línea_239" data-name="Línea 239" y2="54.174" transform="translate(1122.523 8710.139)" fill="none" stroke="#f5947a" stroke-miterlimit="10" stroke-width="1"/>
    <line id="Línea_240" data-name="Línea 240" y2="22.62" transform="translate(1122.523 8617.871)" fill="none" stroke="#f5947a" stroke-miterlimit="10" stroke-width="1"/>
    <line id="Línea_241" data-name="Línea 241" y2="94.488" transform="translate(906.712 8692.941)" fill="none" stroke="#f5947a" stroke-miterlimit="10" stroke-width="1"/>
  </g>
</svg>
