<svg xmlns="http://www.w3.org/2000/svg" width="449.151" height="226" viewBox="0 0 449.151 226">
  <g id="Grupo_55907" data-name="Grupo 55907" transform="translate(0.419)">
    <g id="Rectángulo_5555" data-name="Rectángulo 5555">
      <rect id="Rectángulo_5592" data-name="Rectángulo 5592" width="449" height="226" transform="translate(-0.419)" fill="#fff"/>
      <rect id="Rectángulo_5593" data-name="Rectángulo 5593" width="448" height="225" transform="translate(0.732 0.5)" fill="#fff"/>
    </g>
    <path id="Trazado_106312" data-name="Trazado 106312" d="M-3539.551,1806.567V1668.52s-24.945.567-33.733-38.835l-62.929,19.559s34.016,93.543-28.913,94.677l-3.591,23.811,53.1-9.826-50.835,21.165s5.1,22.866,4.725,23.811" transform="translate(3693.133 -1601.879)" fill="#fff" stroke="#8c757e" stroke-linecap="round" stroke-linejoin="round" stroke-width="2.235"/>
    <path id="Trazado_106313" data-name="Trazado 106313" d="M-3274.606,1803.827l6.047-29.48-48.756-21.922,51.024,9.827-3.4-23.055s-27.213-4.535-35.906-26.457,5.67-70.677,5.67-70.677l-62.74-19.653s-4.914,40.063-31.748,38.929" transform="translate(3693.133 -1601.879)" fill="#fff" stroke="#8c757e" stroke-linecap="round" stroke-linejoin="round" stroke-width="2.235"/>
    <path id="Trazado_106314" data-name="Trazado 106314" d="M-3394.417,1803.827l-.851-142.488c-26.834,1.134-31.748-38.929-31.748-38.929l-62.74,19.653s14.362,48.756,5.669,70.677-35.905,26.457-35.905,26.457l-3.4,23.055,51.024-9.827-48.756,21.922,6.047,29.48" transform="translate(3693.133 -1601.879)" fill="#fff" stroke="#8c757e" stroke-linecap="round" stroke-linejoin="round" stroke-width="2.235"/>
    <rect id="Rectángulo_5594" data-name="Rectángulo 5594" width="6.606" height="66.172" transform="translate(294.747 59.429)" fill="none" stroke="#000" stroke-miterlimit="10" stroke-width="1"/>
    <line id="Línea_286" data-name="Línea 286" x2="4.299" y2="4.299" transform="translate(301.263 125.601)" fill="none" stroke="#000" stroke-miterlimit="10" stroke-width="1"/>
    <line id="Línea_287" data-name="Línea 287" x1="4.299" y2="4.299" transform="translate(290.245 125.601)" fill="none" stroke="#000" stroke-miterlimit="10" stroke-width="1"/>
    <path id="Trazado_106315" data-name="Trazado 106315" d="M-3548.2,1668.52v71.15h7.087" transform="translate(3693.133 -1601.879)" fill="none" stroke="#ff9696" stroke-linecap="round" stroke-linejoin="round" stroke-width="1.932" stroke-dasharray="3"/>
    <path id="Trazado_106316" data-name="Trazado 106316" d="M-3402.595,1662.567v69.449h15.023v-69.449" transform="translate(3693.133 -1601.879)" fill="none" stroke="#ff9696" stroke-linecap="round" stroke-linejoin="round" stroke-width="1.932" stroke-dasharray="3"/>
  </g>
</svg>
