<svg xmlns="http://www.w3.org/2000/svg" width="517.297" height="349.886" viewBox="0 0 517.297 349.886">
  <g id="Grupo_1055043" data-name="Grupo 1055043" transform="translate(-908 -6714.272)">
    <g id="Grupo_1054526" data-name="Grupo 1054526" transform="translate(1049.465 6730.816)">
      <path id="Trazado_771806" data-name="Trazado 771806" d="M-173.395,709.161c.3-1.13.587-2.26.869-3.386,3.2-12.779,6.147-25.016,21.424-32.964,12.43-6.466,29.062-5.876,43.656-3.007s28.563,7.747,43.527,9.143c22.88,2.134,46.893-4.614,62.405-17.537,11.029-9.188,18.522-21.56,33.279-26.964,9.643-3.532,21.028-3.42,31.425-1.474a90.939,90.939,0,0,1,47.595,25.021c11.788,11.956,18.94,26.262,22.912,40.88a109.175,109.175,0,0,1-.638,59.682c-6.089,20.7-18.833,40.8-39.831,54.825-10.066,6.723-21.786,11.91-34,16.121-50.906,17.549-109.121,18.1-164.783,14-34.22-2.524-69.169-6.936-98.772-20.189-17.228-7.714-19.751-21.618-25.791-34.795-6.1-13.3-2.488-29.409,10.714-39.586,11.967-9.225,30.05-13.726,39.069-24.709C-176.6,719.677-174.806,714.435-173.395,709.161Z" transform="translate(232.993 -512.265)" fill="#baefe4"/>
      <g id="Grupo_1054396" data-name="Grupo 1054396" transform="translate(390.056 95.957) rotate(166)" opacity="0.26">
        <path id="Trazado_771758" data-name="Trazado 771758" d="M.428,11.623c-.637-3.088-.921-7,1.8-9.093C4.257.972,6.77-.389,9.426.1c4.882.9,4.695,4.621,5,8.95a15.9,15.9,0,0,1-.665,6.84A6.712,6.712,0,0,1,8.832,20.3a6.581,6.581,0,0,1-5.843-2.575A13.945,13.945,0,0,1,.428,11.623Z" transform="translate(38.233 0)" fill="#025157"/>
        <path id="Trazado_771759" data-name="Trazado 771759" d="M17.916,17.161a5.377,5.377,0,0,1-.244,1.83,5.625,5.625,0,0,1-.769,1.287q-.94,1.29-1.878,2.581a8.354,8.354,0,0,1-2.425,2.5,5.387,5.387,0,0,1-4.507.175,11.964,11.964,0,0,1-3.834-2.594A14.28,14.28,0,0,1,.847,18.549C-2.2,11.854,3.52,3.5,9.582.666,18.335-3.429,17.978,12.509,17.916,17.161Z" transform="translate(15.291 21.232)" fill="#025157"/>
        <path id="Trazado_771760" data-name="Trazado 771760" d="M19.021,9.036a6.869,6.869,0,0,1-1.993,2.588c-3.191,2.992-6.5,6.058-10.605,7.566a5.229,5.229,0,0,1-3.872.214C.681,18.572.136,16.2.027,14.157-.263,8.832,1.752,1.185,8.017.08,12.243-.665,20.8,3.909,19.021,9.036Z" transform="translate(0 58.796)" fill="#025157"/>
        <path id="Trazado_771761" data-name="Trazado 771761" d="M18.706,19.253c-1.531,2.954-4.143,5.919-7.465,5.769-2.166-.1-4.017-1.508-5.713-2.857-1.911-1.52-3.9-3.144-4.8-5.414a12.129,12.129,0,0,1-.69-3.627C-.507,5.615,5.31-1.415,13.482.246,21.916,1.96,21.778,13.325,18.706,19.253Z" transform="translate(13.229 89.721)" fill="#025157"/>
        <path id="Trazado_771762" data-name="Trazado 771762" d="M22.325,14.168a12.022,12.022,0,0,1,1.2,3.4,11.205,11.205,0,0,1-.991,5.393,5.409,5.409,0,0,1-2.111,3.06c-1.438.784-3.222.162-4.677-.59-4.769-2.464-8.742-6.2-12.647-9.878A11.465,11.465,0,0,1,.957,13.108,7.837,7.837,0,0,1,0,9.365C-.144,4.219,4.422-1.461,9.983.341,16.3,2.388,19.7,8.6,22.325,14.168Z" transform="translate(43.35 100.369)" fill="#025157"/>
        <path id="Trazado_771763" data-name="Trazado 771763" d="M14.4,7.621a10.5,10.5,0,0,1,2.31,2.806c.7,1.792-.4,3.8-1.769,5.147a17.67,17.67,0,0,1-6.406,3.782,7.181,7.181,0,0,1-4.656.468A5.429,5.429,0,0,1,.717,16.418a15.484,15.484,0,0,1-.684-4.743C-.11,7.776-.02.739,5.187.053,10.05-.588,11.878,4.765,14.4,7.621Z" transform="translate(32.221 61.422)" fill="#025157"/>
        <path id="Trazado_771764" data-name="Trazado 771764" d="M21.712,15.261a7.455,7.455,0,0,1-5.08,7.248,12.314,12.314,0,0,1-5.719.066A14.87,14.87,0,0,1,6.392,21.2C3.274,19.535,1.374,16.182.5,12.759A12.2,12.2,0,0,1,.238,7C1.525,1.457,8.47-1.152,13.62.482,19.39,2.314,21.464,9.927,21.712,15.261Z" transform="translate(59.514 68.176)" fill="#025157"/>
        <path id="Trazado_771765" data-name="Trazado 771765" d="M17.028,4.627a16.306,16.306,0,0,1,.405,4.59c-.014,2.063-.1,4.326-1.476,5.863-1.5,1.672-3.988,1.91-6.23,1.973a17.076,17.076,0,0,1-5.166-.417A6.349,6.349,0,0,1,.533,13.582,6.363,6.363,0,0,1,.471,8.628C1.794,5,4.913,1.075,8.835.177,12.185-.591,16.049,1.19,17.028,4.627Z" transform="translate(79.294 44.335)" fill="#025157"/>
        <path id="Trazado_771766" data-name="Trazado 771766" d="M17.457,9.039c-.347,2.62-2.022,4.849-3.7,6.9-2.541,3.1-5.561,6.291-9.53,6.861a3.456,3.456,0,0,1-2.96-.681A3.482,3.482,0,0,1,.5,20.693a12.653,12.653,0,0,1,.3-7.871A32.309,32.309,0,0,1,4.5,5.739C6.076,3.3,8.839-.776,12.3.129,15.64,1,17.873,5.906,17.457,9.039Z" transform="translate(46.979 30.983)" fill="#025157"/>
        <path id="Trazado_771767" data-name="Trazado 771767" d="M16.079,13.976c-.062,2.4-.824,4.955-2.765,6.36-1.69,1.223-3.926,1.339-6.009,1.231a8.207,8.207,0,0,1-4.726-1.356C.835,18.837.327,16.432.128,14.22A20.263,20.263,0,0,1,.6,6.868C1.658,3.126,5.634-1.8,9.846.664,13.991,3.09,16.195,9.472,16.079,13.976Z" transform="translate(75.574 9.137)" fill="#025157"/>
      </g>
    </g>
    <g id="Grupo_1054834" data-name="Grupo 1054834" transform="translate(1011.605 6744.346)">
      <g id="Grupo_56017" data-name="Grupo 56017" transform="translate(0)">
        <g id="Grupo_56016" data-name="Grupo 56016">
          <g id="Grupo_56015" data-name="Grupo 56015" transform="translate(7.962)">
            <path id="Trazado_106606" data-name="Trazado 106606" d="M-6548.829,4634.716" transform="translate(6614.415 -4520.787)"/>
            <path id="Trazado_106607" data-name="Trazado 106607" d="M-6599.417,4755.209h14.483l11.481-32.142s2.788-12.21,2.788-16.259.8-11.35.8-11.35l6.042-16.26s4.246,18.252,5.042,24.159,1.725,18.914,0,27.476-9.436,44.081-9.436,44.081l57.487.884,33.911-1.662-7.96-47.086s-1.437-19.489-.642-21.945,6.2-28.847,6.2-28.847l7.985,24.113s4.116,27.145,4.912,29.335,9.491,25.5,9.491,25.5l15.156-.441-7.855-47.829-2.456-10.22-1-6.57-4.978-38.692s-3.717-21.306-8.5-25.619-15.728-4.248-15.728-4.248l-23.5-8.43-1.329-21.636-26.082,1.128-3.386-1.616s.532,20.441-.8,22.036-21.858,6.99-21.858,6.99-12.831-.62-18.848,9.38-9.025,45.309-9.025,45.309l-2.036,21.593s-8.052,24.955-8.052,27.254-2.315,31.611-2.315,31.611" transform="translate(6599.417 -4533.737)" fill="#e7e7e8"/>
            <g id="Grupo_56014" data-name="Grupo 56014" transform="translate(0 57.3)">
              <path id="Trazado_106608" data-name="Trazado 106608" d="M-6551.491,4613.073s12.622,4.491,16.36,4.584c4.221.1,15.483-3.8,15.483-3.8l-1.579-22.335-26.083,1.128-3.385-1.616S-6551.416,4607.255-6551.491,4613.073Z" transform="translate(6613.626 -4591.037)" fill="#d3d3d3"/>
              <path id="Trazado_106609" data-name="Trazado 106609" d="M-6570.665,4700.169c0-4.049.8-11.35.8-11.35l6.042-16.26c-4.072-13.252-1.063-32.057,2.3-37.012s2.3-14.159,2.3-14.159c.605-1.815-.074-5.05-.959-7.96-3.176.1-12.82,1.1-17.8,9.377-6.018,10-9.025,45.308-9.025,45.308l-2.036,21.593s-8.052,24.954-8.052,27.255-2.315,31.612-2.315,31.612h14.483l11.481-32.142S-6570.665,4704.217-6570.665,4700.169Z" transform="translate(6599.417 -4584.398)" fill="#d3d3d3"/>
              <path id="Trazado_106610" data-name="Trazado 106610" d="M-6475.743,4699.978l-2.455-10.22-1-6.571-4.977-38.692s-3.718-21.306-8.5-25.619-15.729-4.248-15.729-4.248l-.3-.109c-1.24,3.57-2.182,7.042-2.182,7.042s-1.062,9.2,2.3,14.159c3.015,4.441,5.744,20.009,3.346,32.732l.024,1.514,7.763,23.441s4.116,27.146,4.911,29.335,9.192,25.1,9.192,25.1l14.615-9.066Z" transform="translate(6625.619 -4584.075)" fill="#d3d3d3"/>
            </g>
            <path id="Trazado_106611" data-name="Trazado 106611" d="M-6533.425,4546.918l-.31-.019c-9.743-.6-18.432,3.347-21.438,13.208-5.075,16.649,1.421,37.359,1.421,37.359l4.874,10.558c2.769,6,11.663,9.821,17.781,7.96,3.229-.983,5.932-3.2,8.309-5.6,6.607-6.664,8.723-14.719,10.552-23.673,1.92-9.406,2.253-19.374-2.148-28.169a20.493,20.493,0,0,0-7.872-8.67A25.681,25.681,0,0,0-6533.425,4546.918Z" transform="translate(6611.959 -4546.84)" fill="#e7e7e8"/>
            <line id="Línea_415" data-name="Línea 415" y2="63.652" transform="translate(77.959 2.761)" fill="none" stroke="#a8a8a8" stroke-linecap="round" stroke-linejoin="round" stroke-width="0.722" stroke-dasharray="1.806"/>
            <line id="Línea_416" data-name="Línea 416" y2="127.417" transform="translate(77.959 94.29)" fill="none" stroke="#a8a8a8" stroke-linecap="round" stroke-linejoin="round" stroke-width="0.722" stroke-dasharray="1.806"/>
            <path id="Trazado_106612" data-name="Trazado 106612" d="M-6573.4,4646.6s70.882,3.982,87.342,0" transform="translate(6607.131 -4517.265)" fill="none" stroke="#a8a8a8" stroke-linecap="round" stroke-linejoin="round" stroke-width="0.722" stroke-dasharray="1.806"/>
            <path id="Trazado_106613" data-name="Trazado 106613" d="M-6496.147,4688.778s-48.583,3.187-70.086,0" transform="translate(6609.255 -4504.758)" fill="none" stroke="#a8a8a8" stroke-linecap="round" stroke-linejoin="round" stroke-width="0.722" stroke-dasharray="1.806"/>
            <path id="Trazado_106614" data-name="Trazado 106614" d="M-6552.241,4597.863" transform="translate(6613.404 -4531.713)" fill="none" stroke="#e7e7e8" stroke-linecap="round" stroke-linejoin="round" stroke-width="0.722"/>
            <circle id="Elipse_4155" data-name="Elipse 4155" cx="1.097" cy="1.097" r="1.097" transform="translate(77.09 87.423)" fill="#e7e7e8"/>
            <path id="Trazado_106615" data-name="Trazado 106615" d="M-6556.457,4573.634s24.337,9.77,44.525,0" transform="translate(6612.154 -4538.897)" fill="none" stroke="#a8a8a8" stroke-linecap="round" stroke-linejoin="round" stroke-width="0.698" stroke-dasharray="1.745"/>
          </g>
          <path id="Trazado_106616" data-name="Trazado 106616" d="M-6589.364,4708.872l6.25,11.4s-5.851,15.41-6.25,15.81-2.256,10.22,0,13.142,3.716,10.485,3.716,10.485v6.9s-.687,4.115-1.14,4.646-2.443,1.991-2.709,0-.965-5.576-.965-5.576-1.292-3.848-1.69-3.848-5.31.133-3.982,2.257a68.649,68.649,0,0,0,4.514,5.839s4.645,3.85,5.043,4.249a6.031,6.031,0,0,1,1.2,2.919c.131,1.2.4,2.656.131,3.054s-1.061,1.858-1.061,1.858-1.992,1.99-2.522,1.859-12.477-15-12.477-15l-4.247-13.007,4.115-15,4.512-29.6Z" transform="translate(6605.558 -4498.801)" fill="#d3d3d3"/>
          <path id="Trazado_106617" data-name="Trazado 106617" d="M-6483.149,4708.224l-6.664,11.4s6.239,15.411,6.664,15.809,2.406,10.222,0,13.141-3.963,10.486-3.963,10.486v6.9s.733,4.114,1.216,4.647,2.605,1.99,2.889,0,1.029-5.576,1.029-5.576,1.377-3.848,1.8-3.848,5.661.132,4.246,2.255a69.356,69.356,0,0,1-4.812,5.841s-4.952,3.849-5.378,4.247a5.861,5.861,0,0,0-1.273,2.921c-.141,1.193-.425,2.654-.141,3.052s1.131,1.858,1.131,1.858,2.123,1.991,2.69,1.857,13.3-15,13.3-15l4.528-13.01-4.388-15-4.811-29.6Z" transform="translate(6639.873 -4498.993)" fill="#d3d3d3"/>
        </g>
        <path id="Trazado_106618" data-name="Trazado 106618" d="M-6541.123,4607.836l-25.2,8.665s-11.7-1.5-19.134,29.3-9.184,62.12-9.184,62.12l-9.9,55.485,19.609,3.981,17.787-61.59,2.967-23.14v-1.549l1.813,12.212-5.044,44.667,94.243-1.575-3.67-49.657,3.67,12.139,18.849,66.9,24.424-3.454-17.521-75.586s-10.09-61.4-16.708-65.995c-2.843-1.974-36.388-12.925-36.388-12.925s-2.655,14.159-15.221,13.893S-6540.678,4617.57-6541.123,4607.836Z" transform="translate(6605.863 -4528.756)" fill="#f5947a"/>
        <path id="Trazado_106619" data-name="Trazado 106619" d="M-6573.4,4615.964s9.776,14.683,2.607,51.053" transform="translate(6615.092 -4526.347)" fill="none" stroke="#fff" stroke-linecap="round" stroke-linejoin="round" stroke-width="0.722" opacity="0.47"/>
        <path id="Trazado_106620" data-name="Trazado 106620" d="M-6504.515,4615.964s-9.774,14.683-2.606,51.053" transform="translate(6633.963 -4526.347)" fill="none" stroke="#fff" stroke-linecap="round" stroke-linejoin="round" stroke-width="0.722" opacity="0.47"/>
        <path id="Trazado_106621" data-name="Trazado 106621" d="M-6579.369,4720.716c-.617.35-3.217,4.744-8.881-7.114s-10.588-10.663-10.588-10.663l-5.8,32.44,20.22,3.822Z" transform="translate(6605.829 -4500.57)" fill="#73d8c0"/>
        <path id="Trazado_106622" data-name="Trazado 106622" d="M-6490.752,4723.262l2.835,10.062,24.424-3.453-2.9-12.515-24.787,4.381Z" transform="translate(6639.468 -4496.285)" fill="#73d8c0"/>
      </g>
      <path id="Trazado_106623" data-name="Trazado 106623" d="M-6494.825,4723.515l11.78,11.344,3.114,23.995v21.94h-98.5v-21.757l4.541-25.946s28.166-7.864,28.9-7.129S-6494.825,4723.515-6494.825,4723.515Z" transform="translate(6613.6 -4494.46)" fill="#e7e7e8"/>
    </g>
    <g id="Grupo_1054835" data-name="Grupo 1054835" transform="translate(1202.847 6744.346)">
      <path id="Trazado_106597" data-name="Trazado 106597" d="M-6580.718,4714.9l4.589,30.1,4.184,15.251-4.32,13.226s-12.146,15.114-12.685,15.25-2.565-1.89-2.565-1.89-.809-1.485-1.078-1.889a8.465,8.465,0,0,1,.134-3.1,6.142,6.142,0,0,1,1.215-2.97c.405-.407,5.13-4.319,5.13-4.319a69.042,69.042,0,0,0,4.586-5.938c1.351-2.159-3.641-2.294-4.047-2.294s-1.719,3.914-1.719,3.914-.71,3.645-.981,5.669-2.294.539-2.756,0a24.724,24.724,0,0,1-1.158-4.724v-7.013s1.485-7.7,3.781-10.663.4-12.955,0-13.36-6.357-16.073-6.357-16.073l6.357-11.592Z" transform="translate(6752.204 -4498.896)" fill="#d3d3d3"/>
      <path id="Trazado_106598" data-name="Trazado 106598" d="M-6704.269,4714.248l-4.886,30.094-4.459,15.251,4.6,13.227s12.952,15.117,13.526,15.25,2.733-1.891,2.733-1.891.863-1.482,1.151-1.889,0-1.889-.145-3.1a5.939,5.939,0,0,0-1.294-2.97c-.433-.4-5.468-4.318-5.468-4.318a69.966,69.966,0,0,1-4.885-5.937c-1.446-2.16,3.885-2.295,4.316-2.295s1.831,3.914,1.831,3.914.758,3.642,1.045,5.667,2.447.539,2.937,0a23.283,23.283,0,0,0,1.236-4.724v-7.014s-1.582-7.7-4.029-10.661-.431-12.957,0-13.361,6.777-16.073,6.777-16.073l-6.777-11.595Z" transform="translate(6716.967 -4499.091)" fill="#d3d3d3"/>
      <g id="Grupo_56021" data-name="Grupo 56021" transform="translate(10.35)">
        <path id="Trazado_106624" data-name="Trazado 106624" d="M-6708.217,4761.813h14.877l11.8-33.021s2.864-12.547,2.864-16.706.819-11.66.819-11.66l6.2-16.706s4.365,18.752,5.182,24.82,1.772,19.433,0,28.229l-5.046,25.044h54.413l31.5-.293-4.842-28.638s-1.477-20.024-.659-22.546,6.364-29.638,6.364-29.638l8.205,24.774s4.228,27.887,5.046,30.138,9.75,26.2,9.75,26.2h16.433l-8.934-49.592-2.522-10.5-1.021-6.75-5.115-39.752s-3.818-21.888-8.729-26.319-16.159-4.364-16.159-4.364l-24.137-8.661-1.364-22.227-26.8,1.159-3.479-1.66s.546,21-.818,22.638-22.456,7.183-22.456,7.183-13.183-.637-19.364,9.637-9.274,46.549-9.274,46.549l-2.091,22.183s-8.273,25.638-8.273,28-2.377,32.477-2.377,32.477" transform="translate(6708.217 -4534.276)" fill="#e7e7e8"/>
        <g id="Grupo_56020" data-name="Grupo 56020" transform="translate(0 55.324)">
          <path id="Trazado_106625" data-name="Trazado 106625" d="M-6658.259,4606.248l30.929.306-.743-12.1-23.183-4.046-7.092,3.545S-6658.183,4600.273-6658.259,4606.248Z" transform="translate(6723.001 -4590.412)" fill="#d3d3d3"/>
          <path id="Trazado_106626" data-name="Trazado 106626" d="M-6678.678,4705.266c0-4.159.819-11.66.819-11.66l6.2-16.706c-4.183-13.616-1.091-32.935,2.364-38.025s2.363-14.547,2.363-14.547c.623-1.866-.075-5.189-.985-8.18-3.262.1-13.17,1.129-18.288,9.634-6.182,10.273-9.274,46.548-9.274,46.548l-2.091,22.184s-8.273,25.638-8.273,28-2.377,32.477-2.377,32.477h14.877l11.8-33.021S-6678.678,4709.425-6678.678,4705.266Z" transform="translate(6708.217 -4582.78)" fill="#d3d3d3"/>
          <path id="Trazado_106627" data-name="Trazado 106627" d="M-6581.159,4705.07l-2.523-10.5-1.021-6.75-5.114-39.752s-3.818-21.888-8.729-26.318-16.159-4.366-16.159-4.366l-.311-.11c-1.273,3.667-2.24,7.236-2.24,7.236s-1.091,9.454,2.363,14.546c3.1,4.563,5.9,20.557,3.439,33.627l.024,1.555,7.976,24.083s4.227,27.888,5.045,30.138,9.75,26.2,9.75,26.2h16.434Z" transform="translate(6735.135 -4582.448)" fill="#d3d3d3"/>
        </g>
        <line id="Línea_417" data-name="Línea 417" y2="130.905" transform="translate(80.092 96.872)" fill="none" stroke="#a8a8a8" stroke-linecap="round" stroke-linejoin="round" stroke-width="0.742" stroke-dasharray="1.855"/>
        <path id="Trazado_106628" data-name="Trazado 106628" d="M-6681.489,4650.227s72.824,4.092,89.734,0" transform="translate(6716.142 -4517.353)" fill="none" stroke="#a8a8a8" stroke-linecap="round" stroke-linejoin="round" stroke-width="0.742" stroke-dasharray="1.855"/>
        <path id="Trazado_106629" data-name="Trazado 106629" d="M-6602.12,4693.564s-49.912,3.274-72.005,0" transform="translate(6718.323 -4504.504)" fill="none" stroke="#a8a8a8" stroke-linecap="round" stroke-linejoin="round" stroke-width="0.742" stroke-dasharray="1.855"/>
        <path id="Trazado_106630" data-name="Trazado 106630" d="M-6659.75,4600.159" transform="translate(6722.586 -4532.197)" fill="none" stroke="#e7e7e8" stroke-linecap="round" stroke-linejoin="round" stroke-width="0.742"/>
        <circle id="Elipse_4156" data-name="Elipse 4156" cx="1.128" cy="1.128" r="1.128" transform="translate(79.2 89.816)" fill="#e7e7e8"/>
        <path id="Trazado_106631" data-name="Trazado 106631" d="M-6656.294,4610.6l0,.009c1.985-1.44,11.88-7.519,29.807-1.112,4.484-6.095,6.267-13.122,7.833-20.794,1.973-9.663,2.314-19.9-2.208-28.94a21.054,21.054,0,0,0-8.086-8.908,26.39,26.39,0,0,0-11.475-3.032c-.1-.008-.211-.014-.316-.021-10.011-.62-18.937,3.438-22.026,13.571-5.214,17.105,1.459,38.382,1.459,38.382Z" transform="translate(6721.102 -4547.738)" fill="#e7e7e8"/>
      </g>
      <line id="Línea_418" data-name="Línea 418" x2="3.753" y2="18.861" transform="translate(132.963 227.244)" fill="#d3d3d3"/>
      <path id="Trazado_106602" data-name="Trazado 106602" d="M-6677.826,4721.308l-7.551,44.125v19.29h101.441v-19l-7.75-44.41Z" transform="translate(6725.339 -4496.279)" fill="#e7e7e8"/>
      <g id="Grupo_56023" data-name="Grupo 56023" transform="translate(0 78.213)">
        <path id="Trazado_106632" data-name="Trazado 106632" d="M-6662.592,4610.256l3.2-1.356s31.144-.916,34.034-.827a8.373,8.373,0,0,1,5.032,2.192s-1.294,17.425-1.778,17.425-27.62,2.841-29.315,2.131-10.837-10.713-11.174-11.274S-6662.592,4610.256-6662.592,4610.256Z" transform="translate(6732.051 -4608.066)" fill="#73d8c0"/>
        <g id="Grupo_56022" data-name="Grupo 56022" transform="translate(0 1.947)">
          <path id="Trazado_106633" data-name="Trazado 106633" d="M-6604.964,4609.568l31.179,10.616s9.246,1.623,13.78,27.838c5.4,31.216,8.56,61.631,8.56,61.631l9.894,55.484-19.61,3.982-17.785-61.59-2.968-23.14v-1.549l-1.812,12.211,5.045,44.667-94.245-1.574,3.671-49.657-3.671,12.14-18.848,66.9-9.854-1.393-14.57-2.06,17.521-75.586s10.089-61.4,16.706-65.995c2.844-1.974,36.389-12.925,36.389-12.925s2.655,14.159,15.222,13.894S-6605.406,4619.3-6604.964,4609.568Z" transform="translate(6716.199 -4609.568)" fill="#f5947a"/>
          <path id="Trazado_106634" data-name="Trazado 106634" d="M-6600.876,4722.447c.617.348,3.218,4.746,8.88-7.114s10.587-10.662,10.587-10.662l5.807,32.439-20.22,3.823Z" transform="translate(6750.392 -4581.382)" fill="#73d8c0"/>
          <path id="Trazado_106635" data-name="Trazado 106635" d="M-6688.94,4725l-2.835,10.062-24.424-3.454,2.9-12.515,24.788,4.381Z" transform="translate(6716.2 -4577.098)" fill="#73d8c0"/>
        </g>
      </g>
    </g>
    <path id="Trazado_772797" data-name="Trazado 772797" d="M57.543,55.859c2.94,14.6.984,30.213,5.008,44.657a110.447,110.447,0,0,0,5.854,15.1l3.187,7.161a130.313,130.313,0,0,0-9.536-58.547,93.914,93.914,0,0,0-3.309-9.069q1.553,2.566,3.109,5.128c3.477,5.711,6.989,11.468,11.56,16.348,4.057,4.331,8.86,7.878,13.381,11.722s8.853,8.1,11.575,13.373a20.384,20.384,0,0,0-2.526-11.87,60.713,60.713,0,0,0-7.107-10.045C83.587,73.5,78.4,67.135,72.284,61.737c-3.431-3.077-7.19-5.774-10.805-8.626-1.6-1.263-3.85-2.774-5.785-4.457a97.933,97.933,0,0,0-12.056-18.1c6.453,2.913,12.869,5.938,18.238,10.5,3.767,3.2,7.006,7.146,11.4,9.41,5.094,2.625,11.066,2.657,16.763,3.278s11.825,2.193,15.265,6.776A35.912,35.912,0,0,0,94.332,47.254,107.293,107.293,0,0,0,79.576,38.1c-8.047-4.41-16.494-8.933-25.668-9.148-3.322-.078-6.668.418-9.957-.058a13.4,13.4,0,0,1-2.193-.512q-2.819-3.162-5.9-6.072-2.281-2.149-4.61-4.183a50.365,50.365,0,0,0,20.987,4.1,87.3,87.3,0,0,0,22.4-3.481,67.82,67.82,0,0,1,9.935-2.326,17.22,17.22,0,0,1,9.957,1.444,56.545,56.545,0,0,0-9.912-8.11C80.933,7.576,76.6,6.238,72.363,6.869c-3.958.59-7.48,2.822-11.353,3.824-4.635,1.2-9.542.588-14.282,1.261-3.891.552-7.614,1.961-11.487,2.623a21.155,21.155,0,0,1-4.475.317c-1.259-.055-2.721-.7-3.935-.589-.044,0-.08.01-.121.015A95.039,95.039,0,0,0,3.966.552,5.492,5.492,0,0,0,1.925,0,1.939,1.939,0,0,0,.146.953,1.967,1.967,0,0,0,.681,3.121,5.979,5.979,0,0,0,2.752,4.27,105.047,105.047,0,0,1,22.3,14.515c-1.044.984-1.338,5-1.775,6.183a40.087,40.087,0,0,1-4.235,7.991c-3.172,4.828-6.849,9.489-8.474,15.033a29.918,29.918,0,0,0-.293,14.018,89.383,89.383,0,0,0,4.123,13.524c-1.011-3.133.069-6.565,1.61-9.475s3.554-5.6,4.6-8.718c1.58-4.694.841-9.955,2.589-14.588C21.617,35.4,23.8,32.81,25.12,29.794a16.887,16.887,0,0,0,1.166-9.169,16.271,16.271,0,0,0-1.131-4.144q1.4,1,2.771,2.048A73.361,73.361,0,0,1,36.1,25.894a10.1,10.1,0,0,1-.292,7.5c-1.536,3.334-4.8,5.613-6.4,8.915-1.491,3.071-1.378,6.656-2.253,9.956-.918,3.461-2.925,6.609-3.443,10.152-1.35,9.234,7.638,17.546,6.584,26.818a273.257,273.257,0,0,1,7-33.965c.981-3.4,2.075-6.759,3.058-10.154,1.186-4.1,2.309-8.663,1.322-12.932,2.123,2.585,4.137,5.24,6.049,7.89q1.907,2.643,3.68,5.38a11.115,11.115,0,0,1,.326,2.654,27.058,27.058,0,0,1-.936,6.157c-.831,3.583-1.694,7.243-3.659,10.351-1.5,2.369-3.587,4.333-4.972,6.769-2.921,5.137-2.288,11.523-.974,17.285s3.233,11.564,2.6,17.441c4.587-7.868,5.992-17.135,7.2-26.161q1.392-10.367,2.595-20.758a37.148,37.148,0,0,0,.345-7.707,17.545,17.545,0,0,0-.488-2.784q1.511,2.483,2.914,5.029C56.74,54.426,57.139,55.137,57.543,55.859Z" transform="translate(1012.279 7028.135) rotate(-172)" fill="#025157" opacity="0.59"/>
  </g>
</svg>
