<svg xmlns="http://www.w3.org/2000/svg" width="376" height="431" viewBox="0 0 376 431">
  <g id="Grupo_1055046" data-name="Grupo 1055046" transform="translate(-612 -2788.107)">
    <rect id="Rectángulo_362210" data-name="Rectángulo 362210" width="376" height="431" transform="translate(612 2788.107)" fill="#727997"/>
    <g id="Grupo_1054938" data-name="Grupo 1054938" transform="translate(1872 11344.519)">
      <g id="Grupo_1054850" data-name="Grupo 1054850" transform="translate(-1353.639 -8486.389)">
        <path id="Trazado_106424" data-name="Trazado 106424" d="M1911.356,6974.23l62.713,19.314s-27.763,123.243,14.544,123.7,23.454-133.359,23.454-133.359l57.022-19.774s23.913,11.037,45.066,6.9v262.12H1990.912s-92.892,12.876-122.323,8.738l-13.8.82V7003.2h12.876S1901.239,7002.741,1911.356,6974.23Z" transform="translate(-1671.469 -6915.482)" fill="#fff"/>
        <path id="Trazado_106425" data-name="Trazado 106425" d="M1870.667,7017.971V7245.6" transform="translate(-1674.467 -6925.654)" fill="none" stroke="#f5947a" stroke-linecap="round" stroke-linejoin="round" stroke-width="2" stroke-dasharray="5"/>
        <path id="Trazado_106426" data-name="Trazado 106426" d="M2117.152,7152.9H1870.667" transform="translate(-1674.467 -6951.136)" fill="none" stroke="#f5947a" stroke-linecap="round" stroke-linejoin="round" stroke-width="2" stroke-dasharray="5"/>
        <path id="Trazado_106427" data-name="Trazado 106427" d="M2022.6,7292.932" transform="translate(-1703.161 -6977.583)" fill="none" stroke="#a8a8a8" stroke-linecap="round" stroke-linejoin="round" stroke-width="2" stroke-dasharray="5"/>
        <line id="Línea_363" data-name="Línea 363" y1="114.682" transform="translate(318.15 203.143)" fill="none" stroke="#f5947a" stroke-linecap="round" stroke-linejoin="round" stroke-width="2" stroke-dasharray="5"/>
        <path id="Trazado_106428" data-name="Trazado 106428" d="M2118.982,6964.113s24.985,11.037,45.066,6.9" transform="translate(-1721.363 -6915.482)" fill="none" stroke="#75c955" stroke-linecap="round" stroke-linejoin="round" stroke-width="2"/>
        <path id="Trazado_106429" data-name="Trazado 106429" d="M1957.438,6954.553v15.063h-45.526s-41.693,1.474-49.971-5.239-2.146-13.263,0-13.591,2.913-1.965,10.576,1.8S1950.846,6956.681,1957.438,6954.553Z" transform="translate(-1672.025 -6912.845)" fill="#f5947a"/>
        <path id="Trazado_106430" data-name="Trazado 106430" d="M1955.963,6936.389v-23.3h-101.17l12.876,29.431a149.4,149.4,0,0,1,28.052-5.211C1910.743,6936.082,1955.963,6936.389,1955.963,6936.389Z" transform="translate(-1671.469 -6905.846)" fill="#f5947a"/>
        <text id="D" transform="translate(212.977 23.271)" font-size="11" font-family="Roboto-Regular, Roboto"><tspan x="0" y="0">D</tspan></text>
        <path id="Trazado_772818" data-name="Trazado 772818" d="M7.266-2.707a3.139,3.139,0,0,1-1,2.089A3.274,3.274,0,0,1,4.031.117,3.006,3.006,0,0,1,1.608-.967,4.361,4.361,0,0,1,.7-3.867v-.82a4.861,4.861,0,0,1,.425-2.092,3.173,3.173,0,0,1,1.2-1.386,3.353,3.353,0,0,1,1.8-.483,3.083,3.083,0,0,1,2.18.759,3.176,3.176,0,0,1,.955,2.1H6.135A2.44,2.44,0,0,0,5.5-7.266a1.927,1.927,0,0,0-1.368-.457,2.013,2.013,0,0,0-1.69.8,3.656,3.656,0,0,0-.612,2.268v.826a3.758,3.758,0,0,0,.58,2.209A1.875,1.875,0,0,0,4.031-.8,2.165,2.165,0,0,0,5.47-1.228a2.357,2.357,0,0,0,.665-1.479Zm5.279,2.08a2.3,2.3,0,0,1-1.857.744A1.971,1.971,0,0,1,9.144-.472a2.549,2.549,0,0,1-.536-1.743V-6.34H9.691v4.1Q9.691-.8,10.863-.8a1.623,1.623,0,0,0,1.652-.926V-6.34H13.6V0H12.568Zm5.766-4.74a3.248,3.248,0,0,0-.533-.041A1.428,1.428,0,0,0,16.33-4.5V0H15.246V-6.34H16.3l.018.732a1.688,1.688,0,0,1,1.512-.85,1.107,1.107,0,0,1,.48.082Zm3.193,3.9,1.57-4.869h1.107L21.908,0h-.826l-2.3-6.34h1.107ZM29.051,0A2.277,2.277,0,0,1,28.9-.668a2.419,2.419,0,0,1-1.8.785,2.238,2.238,0,0,1-1.538-.53,1.716,1.716,0,0,1-.6-1.345A1.792,1.792,0,0,1,25.708-3.3a3.55,3.55,0,0,1,2.118-.548h1.055v-.5a1.217,1.217,0,0,0-.34-.905,1.366,1.366,0,0,0-1-.337,1.581,1.581,0,0,0-.973.293.863.863,0,0,0-.393.709h-1.09a1.5,1.5,0,0,1,.337-.917,2.3,2.3,0,0,1,.914-.7A3.075,3.075,0,0,1,27.6-6.457a2.506,2.506,0,0,1,1.717.548A1.976,1.976,0,0,1,29.965-4.4v2.918a3.567,3.567,0,0,0,.223,1.389V0Zm-1.8-.826a1.905,1.905,0,0,0,.967-.264,1.6,1.6,0,0,0,.662-.686v-1.3h-.85q-1.992,0-1.992,1.166a.987.987,0,0,0,.34.8A1.306,1.306,0,0,0,27.252-.826Zm7.119-2.4a3.714,3.714,0,0,1,.691-2.347,2.186,2.186,0,0,1,1.811-.888,2.2,2.2,0,0,1,1.764.762V-9h1.084V0h-1l-.053-.68a2.208,2.208,0,0,1-1.811.8,2.165,2.165,0,0,1-1.8-.9,3.756,3.756,0,0,1-.694-2.355Zm1.084.123A2.812,2.812,0,0,0,35.9-1.412a1.44,1.44,0,0,0,1.23.609,1.581,1.581,0,0,0,1.506-.926V-4.641a1.593,1.593,0,0,0-1.494-.9,1.446,1.446,0,0,0-1.242.615A3.1,3.1,0,0,0,35.455-3.1ZM42.58,0H41.5V-6.34H42.58ZM41.408-8.021a.647.647,0,0,1,.161-.445.6.6,0,0,1,.478-.182.614.614,0,0,1,.48.182.64.64,0,0,1,.164.445.619.619,0,0,1-.164.439.626.626,0,0,1-.48.176.616.616,0,0,1-.478-.176A.626.626,0,0,1,41.408-8.021Zm6.6,6.34a.8.8,0,0,0-.331-.683,3.187,3.187,0,0,0-1.154-.419,5.457,5.457,0,0,1-1.307-.422,1.859,1.859,0,0,1-.715-.586,1.4,1.4,0,0,1-.231-.809,1.645,1.645,0,0,1,.659-1.318,2.574,2.574,0,0,1,1.685-.539A2.649,2.649,0,0,1,48.36-5.9a1.768,1.768,0,0,1,.671,1.424h-1.09a.979.979,0,0,0-.378-.768,1.416,1.416,0,0,0-.952-.322,1.482,1.482,0,0,0-.926.258.812.812,0,0,0-.334.674.658.658,0,0,0,.311.592,3.821,3.821,0,0,0,1.122.381,5.847,5.847,0,0,1,1.315.434,1.919,1.919,0,0,1,.747.606,1.491,1.491,0,0,1,.243.864A1.623,1.623,0,0,1,48.41-.4a2.851,2.851,0,0,1-1.764.513A3.193,3.193,0,0,1,45.3-.152a2.192,2.192,0,0,1-.917-.753,1.815,1.815,0,0,1-.331-1.046h1.084a1.122,1.122,0,0,0,.437.864,1.693,1.693,0,0,0,1.075.319,1.748,1.748,0,0,0,.987-.249A.765.765,0,0,0,48.006-1.682ZM51.68,0H50.59V-6.34h1.09Zm.012-8.994H53l-1.57,1.723h-.873ZM54.486-6.34l.029.7a2.341,2.341,0,0,1,1.881-.82,1.813,1.813,0,0,1,1.811,1.02,2.4,2.4,0,0,1,.823-.738,2.431,2.431,0,0,1,1.2-.281q2.086,0,2.121,2.209V0H61.266V-4.184A1.456,1.456,0,0,0,60.955-5.2a1.368,1.368,0,0,0-1.043-.337,1.437,1.437,0,0,0-1,.36,1.462,1.462,0,0,0-.463.97V0h-1.09V-4.154A1.209,1.209,0,0,0,56-5.537a1.45,1.45,0,0,0-1.459.908V0H53.461V-6.34ZM65.162,0H64.078V-6.34h1.084ZM63.99-8.021a.647.647,0,0,1,.161-.445.6.6,0,0,1,.478-.182.614.614,0,0,1,.48.182.64.64,0,0,1,.164.445.619.619,0,0,1-.164.439.626.626,0,0,1-.48.176.616.616,0,0,1-.478-.176A.626.626,0,0,1,63.99-8.021ZM68.074,0H66.99V-9h1.084Zm8.619,0a2.277,2.277,0,0,1-.152-.668,2.419,2.419,0,0,1-1.8.785A2.238,2.238,0,0,1,73.2-.413a1.716,1.716,0,0,1-.6-1.345A1.792,1.792,0,0,1,73.351-3.3a3.55,3.55,0,0,1,2.118-.548h1.055v-.5a1.217,1.217,0,0,0-.34-.905,1.366,1.366,0,0,0-1-.337,1.581,1.581,0,0,0-.973.293.863.863,0,0,0-.393.709h-1.09a1.5,1.5,0,0,1,.337-.917,2.3,2.3,0,0,1,.914-.7,3.075,3.075,0,0,1,1.269-.258,2.506,2.506,0,0,1,1.717.548A1.976,1.976,0,0,1,77.607-4.4v2.918A3.567,3.567,0,0,0,77.83-.094V0Zm-1.8-.826a1.905,1.905,0,0,0,.967-.264,1.6,1.6,0,0,0,.662-.686v-1.3h-.85q-1.992,0-1.992,1.166a.987.987,0,0,0,.34.8A1.306,1.306,0,0,0,74.895-.826ZM83.455,0H82.371V-9h1.084ZM89.1,0a2.277,2.277,0,0,1-.152-.668,2.419,2.419,0,0,1-1.8.785,2.238,2.238,0,0,1-1.538-.53,1.716,1.716,0,0,1-.6-1.345A1.792,1.792,0,0,1,85.761-3.3a3.55,3.55,0,0,1,2.118-.548h1.055v-.5a1.217,1.217,0,0,0-.34-.905,1.366,1.366,0,0,0-1-.337,1.581,1.581,0,0,0-.973.293.863.863,0,0,0-.393.709h-1.09a1.5,1.5,0,0,1,.337-.917,2.3,2.3,0,0,1,.914-.7,3.075,3.075,0,0,1,1.269-.258,2.506,2.506,0,0,1,1.717.548A1.976,1.976,0,0,1,90.018-4.4v2.918A3.567,3.567,0,0,0,90.24-.094V0ZM87.3-.826a1.905,1.905,0,0,0,.967-.264,1.6,1.6,0,0,0,.662-.686v-1.3h-.85q-1.992,0-1.992,1.166a.987.987,0,0,0,.34.8A1.306,1.306,0,0,0,87.3-.826Zm7.119-2.4a3.714,3.714,0,0,1,.691-2.347,2.186,2.186,0,0,1,1.811-.888,2.2,2.2,0,0,1,1.764.762V-9h1.084V0h-1l-.053-.68a2.208,2.208,0,0,1-1.811.8,2.165,2.165,0,0,1-1.8-.9,3.756,3.756,0,0,1-.694-2.355Zm1.084.123a2.812,2.812,0,0,0,.445,1.688,1.44,1.44,0,0,0,1.23.609,1.581,1.581,0,0,0,1.506-.926V-4.641a1.593,1.593,0,0,0-1.494-.9,1.446,1.446,0,0,0-1.242.615A3.1,3.1,0,0,0,95.508-3.1ZM104.086.117a2.77,2.77,0,0,1-2.1-.847,3.142,3.142,0,0,1-.809-2.265v-.2a3.8,3.8,0,0,1,.36-1.685,2.811,2.811,0,0,1,1.008-1.16,2.534,2.534,0,0,1,1.4-.419,2.374,2.374,0,0,1,1.922.814,3.526,3.526,0,0,1,.686,2.332v.451h-4.295a2.254,2.254,0,0,0,.548,1.515,1.722,1.722,0,0,0,1.333.577A1.888,1.888,0,0,0,105.117-1a2.444,2.444,0,0,0,.7-.621l.662.516A2.662,2.662,0,0,1,104.086.117Zm-.135-5.684a1.446,1.446,0,0,0-1.1.478A2.321,2.321,0,0,0,102.3-3.75h3.176v-.082a2.065,2.065,0,0,0-.445-1.28A1.361,1.361,0,0,0,103.951-5.566ZM108.99,0h-1.084V-9h1.084Zm7.336.117a2.77,2.77,0,0,1-2.1-.847,3.142,3.142,0,0,1-.809-2.265v-.2a3.8,3.8,0,0,1,.36-1.685,2.811,2.811,0,0,1,1.008-1.16,2.534,2.534,0,0,1,1.4-.419,2.374,2.374,0,0,1,1.922.814,3.526,3.526,0,0,1,.686,2.332v.451H114.5a2.254,2.254,0,0,0,.548,1.515,1.722,1.722,0,0,0,1.333.577A1.888,1.888,0,0,0,117.357-1a2.444,2.444,0,0,0,.7-.621l.662.516A2.662,2.662,0,0,1,116.326.117Zm-.135-5.684a1.446,1.446,0,0,0-1.1.478,2.321,2.321,0,0,0-.551,1.339h3.176v-.082a2.065,2.065,0,0,0-.445-1.28A1.361,1.361,0,0,0,116.191-5.566Zm7.553,3.885a.8.8,0,0,0-.331-.683,3.187,3.187,0,0,0-1.154-.419,5.457,5.457,0,0,1-1.307-.422,1.859,1.859,0,0,1-.715-.586,1.4,1.4,0,0,1-.231-.809,1.645,1.645,0,0,1,.659-1.318,2.574,2.574,0,0,1,1.685-.539A2.649,2.649,0,0,1,124.1-5.9a1.768,1.768,0,0,1,.671,1.424h-1.09a.979.979,0,0,0-.378-.768,1.416,1.416,0,0,0-.952-.322,1.482,1.482,0,0,0-.926.258.812.812,0,0,0-.334.674.658.658,0,0,0,.311.592,3.821,3.821,0,0,0,1.122.381,5.847,5.847,0,0,1,1.315.434,1.919,1.919,0,0,1,.747.606,1.491,1.491,0,0,1,.243.864,1.623,1.623,0,0,1-.68,1.362,2.851,2.851,0,0,1-1.764.513,3.193,3.193,0,0,1-1.348-.27,2.192,2.192,0,0,1-.917-.753,1.815,1.815,0,0,1-.331-1.046h1.084a1.122,1.122,0,0,0,.437.864,1.693,1.693,0,0,0,1.075.319,1.748,1.748,0,0,0,.987-.249A.765.765,0,0,0,123.744-1.682Zm5.039.914a1.561,1.561,0,0,0,1.014-.352,1.237,1.237,0,0,0,.48-.879H131.3a1.966,1.966,0,0,1-.375,1.037A2.47,2.47,0,0,1,130-.176a2.663,2.663,0,0,1-1.222.293,2.612,2.612,0,0,1-2.06-.864,3.442,3.442,0,0,1-.765-2.364v-.182a3.817,3.817,0,0,1,.34-1.646,2.588,2.588,0,0,1,.976-1.119,2.771,2.771,0,0,1,1.5-.4,2.543,2.543,0,0,1,1.772.639A2.283,2.283,0,0,1,131.3-4.16h-1.025a1.494,1.494,0,0,0-.466-1.011,1.449,1.449,0,0,0-1.034-.4,1.517,1.517,0,0,0-1.28.595,2.793,2.793,0,0,0-.454,1.72v.205a2.737,2.737,0,0,0,.451,1.688A1.524,1.524,0,0,0,128.783-.768Zm3.451-2.461A3.745,3.745,0,0,1,132.6-4.9a2.732,2.732,0,0,1,1.02-1.148,2.775,2.775,0,0,1,1.491-.4,2.674,2.674,0,0,1,2.095.9,3.449,3.449,0,0,1,.8,2.385V-3.1a3.777,3.777,0,0,1-.354,1.661,2.692,2.692,0,0,1-1.014,1.146,2.807,2.807,0,0,1-1.515.41,2.667,2.667,0,0,1-2.089-.9,3.432,3.432,0,0,1-.8-2.373Zm1.09.129a2.712,2.712,0,0,0,.489,1.693,1.566,1.566,0,0,0,1.31.639,1.556,1.556,0,0,0,1.313-.647,2.966,2.966,0,0,0,.486-1.813,2.708,2.708,0,0,0-.5-1.69,1.574,1.574,0,0,0-1.315-.647,1.557,1.557,0,0,0-1.295.639A2.944,2.944,0,0,0,133.324-3.1Zm7.512-4.775V-6.34h1.184V-5.5h-1.184V-1.57a.878.878,0,0,0,.158.571.666.666,0,0,0,.539.19,2.624,2.624,0,0,0,.516-.07V0a3.143,3.143,0,0,1-.832.117,1.35,1.35,0,0,1-1.1-.439,1.888,1.888,0,0,1-.369-1.248V-5.5H138.6V-6.34h1.154V-7.875Zm5.08,7.992a2.77,2.77,0,0,1-2.1-.847,3.142,3.142,0,0,1-.809-2.265v-.2a3.8,3.8,0,0,1,.36-1.685,2.811,2.811,0,0,1,1.008-1.16,2.534,2.534,0,0,1,1.4-.419,2.374,2.374,0,0,1,1.922.814,3.526,3.526,0,0,1,.686,2.332v.451h-4.295a2.254,2.254,0,0,0,.548,1.515,1.722,1.722,0,0,0,1.333.577A1.888,1.888,0,0,0,146.947-1a2.444,2.444,0,0,0,.7-.621l.662.516A2.662,2.662,0,0,1,145.916.117Zm-.135-5.684a1.446,1.446,0,0,0-1.1.478,2.321,2.321,0,0,0-.551,1.339H147.3v-.082a2.065,2.065,0,0,0-.445-1.28A1.361,1.361,0,0,0,145.781-5.566Z" transform="translate(108.824 -18.522)" fill="#fff"/>
        <text id="P" transform="translate(258.399 23.271)" font-size="11" font-family="Roboto-Regular, Roboto"><tspan x="0" y="0">P</tspan></text>
        <path id="Trazado_106431" data-name="Trazado 106431" d="M1854.143,6971.1s-9.81,45.066-70.972,35.1" transform="translate(-1657.942 -6916.803)" fill="none" stroke="#000" stroke-miterlimit="10" stroke-width="1"/>
        <line id="Línea_364" data-name="Línea 364" y2="55.912" transform="translate(183.324 0)" fill="none" stroke="#000" stroke-miterlimit="10" stroke-width="2"/>
        <line id="Línea_365" data-name="Línea 365" y2="55.912" transform="translate(196.201 0)" fill="none" stroke="#000" stroke-miterlimit="10" stroke-width="2"/>
        <line id="Línea_366" data-name="Línea 366" y2="55.912" transform="translate(239.427 0)" fill="none" stroke="#000" stroke-miterlimit="10" stroke-width="2"/>
        <line id="Línea_367" data-name="Línea 367" y2="55.912" transform="translate(285.413 0)" fill="none" stroke="#000" stroke-miterlimit="10" stroke-width="2"/>
        <line id="Línea_368" data-name="Línea 368" x2="12.876" transform="translate(183.324 56.908)" fill="none" stroke="#6e679b" stroke-miterlimit="10" stroke-width="2"/>
        <circle id="Elipse_4142" data-name="Elipse 4142" cx="2.702" cy="2.702" r="2.702" transform="translate(193.499 42.595)" fill="#545454"/>
        <path id="Trazado_106432" data-name="Trazado 106432" d="M1871.817,6974.317h42.077s-4.379,27.321-43.227,30.811" transform="translate(-1674.467 -6917.41)" fill="none" stroke="#c528e5" stroke-miterlimit="10" stroke-width="2"/>
      </g>
      <line id="Línea_519" data-name="Línea 519" x1="45.526" transform="translate(-1113.751 -8429.618)" fill="none" stroke="#75c955" stroke-linecap="round" stroke-linejoin="round" stroke-width="2"/>
    </g>
  </g>
</svg>
